M48
;Layer_Color=9474304
;FILE_FORMAT=4:4
METRIC,LZ
;TYPE=PLATED
T1F00S00C0.2540
T2F00S00C0.2550
T3F00S00C0.3300
T4F00S00C0.5000
T5F00S00C0.6000
T6F00S00C0.7000
T7F00S00C0.7112
T8F00S00C0.8000
T10F00S00C0.8200
T11F00S00C0.9000
T12F00S00C0.9200
T13F00S00C1.0000
T15F00S00C1.0200
T16F00S00C1.1000
T17F00S00C1.2000
T18F00S00C1.4500
T19F00S00C1.5000
T20F00S00C1.6000
T21F00S00C1.7000
T23F00S00C2.3000
T24F00S00C2.4500
T25F00S00C3.8100
;TYPE=NON_PLATED
T26F00S00C1.1684
T27F00S00C2.4000
T28F00S00C3.1250
T29F00S00C3.2000
T30F00S00C3.2500
%
T01
X0004148Y0014554
X00069858Y0015824
Y0018364
X00165342
Y0015824
X0010236Y00108456
X000922Y00106424
X00111504Y0009728
X00243664Y0012784
X00284304
X0031826Y0013538
X00345692Y0012014
X00361948Y00119124
X00387448Y0014168
X00425788Y00148132
X00459144Y00148028
X00441196Y00124712
X00431456Y00102412
Y00087172
Y00071932
X004351Y00040776
X00450288Y00040724
X0046304Y0005918
X00496824Y00078994
X00537464Y0007874
X00537718Y00037338
X00531368Y00031496
X00504444Y00040386
X00489458Y00129794
X00521462Y00131064
X00365336Y00173612
Y00183612
X00369482Y0006079
X00362456Y00041908
X00345692Y000414
X0033858
X00346172Y00027344
X00329856Y00021132
X00371732Y00027344
X00381732
X00655574Y00042926
X00702564Y00129794
X00706372Y00152144
X0146888Y001049
X0149682Y0017856
X022639Y0018618
X02317496Y0016002
X0235458Y00156972
X0236982Y00155448
X0238479Y00139138
X0240284Y00156464
X02442464Y00146304
X02452624
X0245979Y00139138
X0248479Y00156576
X0250979
X0253479
X02286Y00117856
X02339258Y0003887
X02577258
X0258409Y00068452
X02605508Y00249428
X02595704Y00295908
Y00312212
X0259029Y00343232
X02573272Y0036906
X02586658Y00402076
X0259157Y0041224
X0258648Y0043764
X02598756Y0047254
X0263101Y00484202
X0264101
X02647872Y0045703
X02635756Y00516888
X02635924Y005386
X02621788Y00548132
X0260604Y00547624
X0260988Y00531256
X025941Y0051384
X02647324Y00565
Y00585
X026745Y00573444
X0265186Y0031996
X0273685Y00306578
X02759708Y0022682
X02948176Y00209548
X025687Y0034874
X0255092Y0036652
X0255882Y00386332
X0257132Y0039708
Y0040708
X02494024Y00416812
X0245158Y00415796
X0244424Y0043764
X02456516Y0046746
X02396094Y0048717
X023995Y00544
X023915
X023835
X023755
X023675
X023595
X023515
X023435
Y0056
X023515
Y00552
X023595
Y0056
X023675
Y00552
X023755Y0056
X023835
Y00552
X023915
X023995
Y0056
X023915
X024155
Y00552
Y00544
X024315
Y00552
X024395
X024475
X024555
X024635
Y00544
X024475
Y0056
X024555
X024395
X024315
X024235
Y00552
X02529434Y0056238
Y0057254
Y005827
X02565654Y00585
X02539604Y0049098
X0242908Y0040708
Y0039708
X02431032Y0036906
X02439006Y0036742
X0245948Y0036144
X02399028Y00366012
X02409696Y00383792
X0234772Y00416304
X0230201Y00410208
X0229692Y00395476
X0228176Y00392
Y00402
X02265932Y00385824
X0225882Y00380744
X0223977Y0036906
X02283712Y0036398
X02291686Y0036234
X0231724Y0036144
X0229692Y0043256
X02314276Y0046746
X02253854Y004859
X02233422Y00490728
X02235708Y0050292
X02224276Y00543812
X0221818Y00538732
X02218608Y0055956
X02192352
X02179828Y00522478
X02182622Y0048641
X0218254Y0043002
X02204972Y00417828
X02175079Y00397
X0219278Y003589
X0219024Y0033096
X02188811Y0030876
X02177574Y002804
X02212Y00254
X0224395Y00268796
Y00290796
X0223445Y00284764
X0225345
Y00306765
X0223445
X02290244Y0029528
Y0028028
X02280345Y0021854
Y0020904
Y0019954
X02292004Y0019397
X0223088Y00216945
X0236504Y00292816
X02449312Y00294884
X0216484Y0032588
X0216738Y00345692
X0216484Y00392936
X02155054Y0040796
X02132086Y0041296
Y0043296
X02124253Y00433576
X02132086Y0045296
X02123713Y0046296
X02132086Y0047296
Y0049296
X02123713Y0050296
X02124253Y0051892
X02115312Y0051816
X0210332Y00521726
X0209332Y00513353
X02099869Y00506728
Y00482344
X02155054Y0048796
X02163427Y0048296
X02155054Y0046796
Y0044796
X02166872Y00427988
X02115056Y00405636
X0211832Y00394194
X02100324Y00408176
X02074416
X0208077Y00418078
X0207832Y00394194
X0205832
X0203832
X02017012Y00406652
X02004554Y0040796
X02012927Y0041796
Y0043796
X02004554Y0044796
X02012927Y0045796
X02004554Y0046796
X02012927Y0047796
X02004554Y0048796
X02012927Y0049796
X0201332Y00513353
X02004554Y0051796
Y0050796
X01981586Y0051296
X01973213Y0050296
X01981586Y0049296
X01973213Y0048296
X01981586Y0047296
X01973213Y0046296
X01981586Y0045296
X01973213Y0044296
Y0042296
X0196672Y004097
X01977896Y00400556
X01940304Y00405636
X01948004Y0041732
X01948181Y00427228
X01916Y00392936
X0193624Y00364488
X01942844Y00332484
Y0032334
X02027106Y0032346
Y0033846
X0203332Y00362853
X02043936Y00363393
X0205332Y00362853
X0207332
X0208332Y00371226
X0209332Y00362853
X0210332Y00371226
X0211332Y00362853
X0212832Y00371226
X02092704Y00339009
X02075974Y003104
X0206629Y00298196
X02075974Y002804
X0203514Y00259332
X02009106Y0024053
Y0022153
X02052574Y0023103
X02001772Y00360932
X0200832Y00371226
X0198958Y0036652
X02056128Y00426411
X0203395Y0048963
X0203332Y00513353
X0204332Y00521726
X0205332Y00513353
X0205832Y00544694
X02056128Y00552527
X0206832Y00553067
X0208832
X02127756Y00550924
X02142996
X02132086Y0051296
X02155054Y0050796
X0202332Y00521726
X0201832Y00544694
X02008254Y00544234
X0202832Y00553067
X02041316Y0056972
X02014044
X02000676
X01973404
X0192354Y00560576
X01914904
X01925572Y00552448
X01925064Y00545336
X0193624Y00541272
X01914396Y00540764
X0190322Y00544828
X01901188Y0055448
X01853944Y00552448
X01854452Y00543304
X01845816Y00570228
Y00580388
X01869184Y00581912
X01820924Y0058242
X01821432Y00574292
X0180416Y00538732
X01793492Y00530096
X01785364Y00524
X018Y00495
Y00485
X0179
Y00475
Y00465
X018
Y00475
X0181
Y00485
Y00465
X0183
Y00475
Y00485
X0184
X0185
Y00495
Y00475
Y00465
X0184
Y00475
X0186016Y0047484
Y0046484
Y0044547
Y0043547
Y0042547
X0185Y00425
Y00415
X0184
X0183
Y00425
X0184
Y00435
X0185
Y00445
X0184
X0183
Y00435
X0181
Y00425
Y00415
X018
X0179
Y00425
Y00435
Y00445
X018
Y00435
Y00425
X0178
Y00435
Y00445
Y00465
Y00475
Y00485
X0181Y00445
X01871216Y00425956
X01864104Y00383284
Y00376172
X01822876Y0036779
X01795604
X01837944Y00341376
X0186016Y0048484
X01916Y00474724
X01934636Y0048336
X01931668Y00495044
X01937764Y0050876
X0193878Y00517396
X01914396Y00516888
X01758948Y00487424
X01723212Y0048844
Y0049794
Y0047894
X01682215Y0047915
X01682924Y0048844
Y0049794
X0166192Y00524508
X01661412Y00562608
X01660904Y0057226
X01625852Y0057734
X01605Y00575
X0159508Y00575
X01595Y00585
X01585
X01575
X01565
X01555
X01545
X01535
X01545Y00575
X01555
X01565
X01575
Y00565
X01565
X01555
X01545
X01535
X01515
Y00575
Y00585
X01505
X01495
Y00575
X01485
X01485Y00585
X01475
Y00575
Y00565
X01485
X01495
X01505
Y00575
X01465
Y00585
X01455
Y00575
X01465Y00565
X01394Y00564
X01405808Y0058496
X01405249Y00450209
X01410976Y00454412
X0143205Y00454302
Y00448359
X01462276Y00415288
X01497836Y00495552
Y00510792
X01541524
Y00495552
X01566504Y0048844
X01594276
X01595Y00565
X01585
Y00575
X01605Y00585
Y00565
X01629916Y00551432
X017051Y00543812
Y0053416
X0170434Y00562864
X017051Y0057226
Y00581912
X01719832Y005748
X01718816Y00564132
X01717802Y00553974
X01740152Y00542796
X01741598Y00578864
X0177579
X01759456Y0044526
X01710688Y00426464
X01681224Y00429512
X01683256Y004478
X01682748Y00403096
X0168986Y00378712
X01708656Y00372616
X01714752Y00362456
X01726436Y00358392
X0172974Y00329692
X01723644Y00323088
X01652141Y00371
X01630308Y00358
X01624328Y00357122
X01617995Y00356997
X0161112Y00356868
X01587324Y003462
X0156032Y003208
X0155524Y00297432
X01573528Y00301496
X01609776Y0029016
X01618232Y00288288
X01614676Y0028016
X01609776Y0027516
X01612136Y00266952
X0154
X0153873Y0028524
X0151984Y0029413
X0150952Y00294892
X0147904Y00305052
Y00265428
X01490724Y00261364
X0152349Y0025984
X014892Y0022174
X01624328Y00438656
X01630678
X01637028
X01643378
X0125679Y00406601
X01258998Y00400658
X01214694Y0056449
X01209772Y0057961
X01199772
X01189772
X01179772
X01184772Y0056461
X01159772Y0057961
X01149772
X01139772
X01129772
X01134772Y0056461
X01144772
X01094772
X01084772
X01074772
X01064772
X01059772Y0057961
X01049772
X01039772
X01029772
X01009772
X00999772
X00989772
X00984772Y0056461
X01004772
X01014772
X01024772
X01034646Y00564462
X01079772Y0057961
X01089772
X01099772
X01109772
X01229612Y0057988
X01050826Y00452358
X01047363Y00447415
X01030984Y00415288
X01033016Y00394968
X0097282Y0043053
X00905001Y00435
Y00425
Y00415
Y00405
Y00395
Y00385
X00895
X00885
X00875
X00865
X00855
Y00395
X00865
X00875
X00885
Y00405
X00875
X00865
X00855
X00865Y00415
X00875
X00885
Y00425
X00875
Y00435
X00885
X00895
Y00425
Y00415
Y00405
Y00395
Y00375
X00885
X00875
X00865
X00855
Y00355
Y00345
X00865
Y00355
X00875
Y00345
Y00335
X00865
X00855
Y00325
X00865
X00875
X00885
Y00335
Y00345
Y00355
X00895
Y00345
Y00335
Y00325
X00905001Y00325
Y00315
Y00305
Y00295
Y00285
X00895
Y00295
Y00305
X00885
Y00315
X00875
X00865
X00855
Y00305
X00865
X00875
Y00295
X00865
X00855
Y00285
X00865
X00875
X00885
Y00295
X00895001Y00315
X00905001Y00335
Y00345
Y00375
X00835
X00825
X00815
X00805
X00795
Y00385
X00805
X00815
X00825
X00835
Y00395
X00825
X00815
X00805
Y00405
X00815
X00825
X00835
Y00415
X00825
X00815
X00805
X00795
Y00405
Y00395
Y00425
X00805
X00815
X00825
Y00435
X00815
X00805
X0079951Y00477772
X00855Y00435
Y00425
X00835Y00355
Y00345
X00825
Y00355
X00815
Y00345
Y00335
X00825
X00835
Y00325
X00825
X00815
X00805
Y00335
Y00345
Y00355
X00795
Y00345
Y00335
Y00325
Y00315
X00805
X00805Y00304839
X00805Y00295
X00815
Y00305
X00815Y00314839
X00825Y00315
X00835
Y00305
X00825
Y00295
X00835
Y00285
X00825
X00815
X00805
X00795
Y00295
Y00305
X00785112Y00285748
X00739392Y0028016
X00715008
X0071958Y00339596
X007347
Y00375156
X007197
X00696468Y0037846
X00694436Y0038608
X00688506Y00381708
X0066624Y0038176
X00644228Y00381812
X00644815Y00351332
X00644816Y00336092
X00621028Y003208
X0062052Y0031064
X00614336Y00346252
X0061544Y0036652
X00614336Y00376732
X00614336Y00391972
X0061544Y0041224
X00630652Y00399454
X00655318Y0040335
X0066624Y0040716
X00677162Y0040335
X00669034Y0043248
X00679528Y00467866
X00652952Y00468374
X00653532Y00509314
X00644906Y00513334
X00635Y00514096
X00634142Y00506474
Y00500124
X00615106Y00525872
X0060528Y0054813
X00599692Y00481836
X00698752Y00493088
Y00499032
X00677162Y0036017
X00807177Y00242694
X00856312Y0024214
X00860804Y0023178
Y0021678
X00902032Y0024214
X00947752Y0030564
X00954772Y0056461
X00964772
X00974772
X00979772Y0057961
X00959772
X00949772
X00939772
X0093012Y00578594
X00934772Y0056461
X00914772
X00910106Y00572632
X00909772Y0057961
X00899772Y00581014
X00889772Y00581522
X00879772Y0057961
X00879626Y00571616
X00874771Y0056461
X00864771
X00854771
X00849772Y0057961
X00839772
X00859772
X0088976Y00555751
X0089992Y0055575
X005748Y00481908
X0057988Y00456182
X00547528Y00457706
X00520952Y00458214
X00529508Y00509268
X00440434Y004274
X0043764Y0040716
X00426718Y0040335
X00448563
X00460756Y00389636
X00459906Y00381708
X00466344Y00377952
X0043764Y0038176
X00415628Y00381812
X00416216Y00351332
X00416216Y00336092
X00385736Y00346252
X0038684Y0036652
X00385736Y00376732
X00385736Y00391972
X0038684Y0041224
X00402052Y00399454
X00448563Y0036017
X0047574Y00348232
X00502918Y00267492
Y00250292
X00545082Y00250188
X0053416Y002827
X0038684Y0031064
X00387348Y003208
X001938Y00365486
Y003937
X00214628Y00390904
X0021209Y00404368
X0019364Y00417321
Y0044272
Y0046812
X0020912Y0057353
X0021912
X0032088Y0057861
X0033088
X00218184Y0020142
X00165342Y0020904
Y0025984
Y0028524
Y0031064
X00165342Y0035814
X00165354Y0036576
X00175514Y0040513
X001811Y00430528
X00180084Y0045542
X00180592Y00480312
X00173988Y00527556
X00139956Y00582928
X00072408Y0056896
X00069858Y0051054
Y0048514
Y0045974
Y0043434
Y0040894
Y0038354
X00070102Y00358513
X00069858Y0031064
Y0028524
X0006426Y0027254
X00069858Y0023444
X0005148
X0003251Y0020396
X0003683Y00527812
X00072408Y0059436
Y0061976
Y0064516
Y0067056
X00086708Y00723184
X00095442Y00726342
X00103884Y00725168
X00056712Y00755092
X00028144Y00778516
X00052068Y00806956
X00076452Y0080848
X00101852Y00816608
Y00824736
X001176Y0083769
X0007188Y0086944
X00056632Y00871932
X0005884Y0091008
X00064768Y00914296
X000668Y0092024
X00067308Y00905508
X00098804Y00904492
X00105916Y00905
Y0091516
X00098804
X0013538Y00917192
X00115012Y00943028
X0009144Y00978408
X0006172Y00952752
X00046988Y00955292
X00038948Y00920248
X0018161Y0098298
X00186213Y00701808
X00163472Y00658572
X00139954Y0065913
Y0063373
X00139956Y00608328
X00163472Y00607772
X00192624Y00619758
X0020912Y0061417
X0021912
Y0065481
X0020912
X0019288Y0064516
Y0067056
X00193888Y00689148
X0020912Y0069545
X0021912
Y0073609
X0020912
Y0077673
X0021912
Y0081737
X0020912
X0022436Y00882648
X0032088Y0085293
X0033088
Y00813741
X0032088
Y00774553
X0033088
Y00735364
X0032088
X0032038Y00695958
X0033088Y00696176
Y00656987
X0032088
Y00617799
X0033088
X00192878Y00594358
X00465834Y00846326
Y00861312
X00480566
Y00846834
X00535938Y00846326
Y00861566
X00566244Y0086182
X0057Y0092
X0056
Y0093
Y0094
Y0095
Y0096
Y0097
X0057
Y0096
Y0095
X0058
Y0096
Y0097
Y0094
X0057
X0057Y0093
X0058
Y0092
X0054
Y0093
Y0094
Y0095
Y0096
Y0097
X0053
Y0096
X0052
Y0097
X0051
Y0096
Y0095
X0052
X0053
Y0094
X0052
X0051
Y0093
X0052
X0053
X0053Y0092
X0052
X0051
X005
Y0093
Y0094
Y0095
Y0096
Y0097
X0049
X0048
Y0096
X0049
Y0095
Y0094
Y0093
Y0092
X0048
Y0093
Y0094
Y0095
X0047
Y0096
Y0097
Y0094
Y0093
Y0092
X0042756Y00938448
Y00974008
X00539748Y0081237
X00615186Y00806372
Y00800428
X00593516Y0086182
X0059Y0092
Y0093
Y0094
Y0095
Y0096
Y0097
X006Y0096
Y0095
Y0094
Y0093
Y0092
X0061
Y0093
Y0094
Y0095
X0062
Y0094
Y0093
Y0092
X00609092Y00908812
X0061Y0097
X0062
X0067386Y00966896
X0067132Y00939624
X00751078Y00949198
X0080601Y00948002
X00805966Y00941948
X00823756Y0092961
Y0091961
Y0090961
Y0089961
X00814772Y0090461
Y0089461
Y0088461
X00823756Y0086961
X00834865Y0087461
X00844771
X00854771
Y0088461
X00844771
Y0089461
Y0090461
X00854771
X00864771
Y0089461
X00874673Y0089464
X00874771Y0090461
X00884771
X00894771
Y0089461
X00884771
X00884769Y0088448
X00874771Y0088461
Y0087461
X00864771
Y0086461
X00854771
X00844771
Y0085461
Y0084461
Y0083461
Y0082461
Y0081461
X00834771
X00823756Y0081961
X00809772Y0082961
Y0083961
Y0084961
Y0085961
X00794772Y0085461
Y0086461
X00795256Y0083468
X00794772Y0082461
X00781836Y00811392
X0078209Y0080174
X00794772Y0079461
X00809772Y0078961
Y0077961
Y0075961
Y0074961
Y0073961
Y0072961
Y0070961
Y0068961
Y0067961
Y0065961
Y0064961
Y0063961
Y0062961
X00794772Y00624609
Y00614609
X00793748Y00604772
X00781556Y00602232
X00794772Y0064461
Y0065461
Y0066461
Y0067461
Y0070461
X00823756Y0071961
X00834772Y0072461
X00844771
Y0071461
Y0070461
Y0069461
Y0068461
Y0067461
Y0066461
Y0065461
Y0064461
X00854771
Y0065461
Y0066461
Y0067461
Y0068461
X00864771
Y0069461
Y0070461
Y0071461
Y0072461
Y0073461
Y0074461
X00854771
Y0075461
X00864771
X00864771Y0076461
X00854771Y0076461
X00844771
Y0075461
Y0074461
Y0073461
X00834771
Y0074461
Y0071461
Y0069461
Y0068461
X00823756Y0066961
X00864771Y0067461
X00874771
Y0068461
Y0069461
Y0070461
Y0071461
Y0072461
Y0073461
Y0074461
Y0075461
Y0076461
X00884771
Y0077461
Y0078461
Y0079461
X00874771
X00864771
X00854771
X00844771
Y0078461
Y0077461
X00854771
Y0078461
X00864771
X00874771
Y0077461
X00864771Y0077461
X00894771Y0077461
Y0078461
Y0079461
X00904772
X00914772
X00924772
X00934772
X00944772
X00954772
X00964772
X00974772
Y0078461
Y0077461
Y0076461
Y0075461
Y0074461
X00964772
X00954772
Y0075461
X00964772
Y0076461
Y0078461
X00954772
X00944772
X00934772
X00924772
X00914772
X00904772
Y0077461
X00914772
X00924772
X00934772
Y0076461
X00944772
X00944772Y0077461
X00954772
X00944772Y0075461
X00934772
X00924772
Y0076461
X00914772
X00904772
Y0075461
X00914772
Y0074461
X00924772
X00934772
X00944772
Y0073461
X00954772Y0073461
X00954772Y0072461
X00964772
X00974772
Y0073461
X00964772Y0073461
X00964772Y0071461
X00954772
X00944772
X00934772
Y0072461
Y0073461
X00924772
X00914772
X00904772
Y0074461
X00894771
Y0075461
Y0076461
X00884771Y0075461
Y0074461
Y0073461
X00894771
Y0072461
X00884771
Y0071461
X00894771
Y0070461
X00884771
Y0069461
X00894771
Y0068461
X00884771
Y0067461
X00894771
Y0066461
X00884771
X00874771
Y0065461
X00864771
Y0066461
Y0064461
X00874771
X00884771
Y0065461
X00894771
Y0064461
Y00634609
X00884771
Y00624609
Y00614609
X00894771
Y00604609
Y00624609
X00904772
Y00634609
X00914772
X00924772
X00934772
Y00624609
Y00614609
X00944772
X00954772
X00964772
X00974772
Y00624609
Y00634609
X00964772
X00954772
X00944772
Y00624609
X00954772
X00964772
Y0064461
Y0065461
Y0066461
Y0067461
Y0068461
Y0069461
X00954772
Y0070461
X00964772
X00974772
Y0071461
Y0069461
Y0068461
Y0067461
Y0066461
Y0065461
Y0064461
X00954772
Y0065461
Y0066461
Y0067461
Y0068461
X00944772
Y0069461
Y0070461
X00934772
Y0069461
Y0068461
Y0067461
X00944772
Y0066461
X00934772
Y0065461
X00944772
Y0064461
X00934772
X00924772
X00914772
Y0065461
X00904772
Y0066461
Y0067461
Y0068461
Y0069461
X00914772
Y0070461
Y0071461
Y0072461
X00924772
Y0071461
Y0070461
Y0069461
Y0068461
Y0067461
X00914772
Y0068461
X00924772Y0066461
Y0065461
X00904772Y0064461
Y00614609
X00914772
X00924772
Y00624609
X00914772
X00924772Y00604609
X0093Y0059472
X00919772Y00593594
X00944772Y00604609
X00969772Y00593594
X00869772
X00874771Y00614609
X00864771
X00854771
X00844771
Y00624609
Y00634609
X00834771
X00854771
X00864771
Y00624609
X00854771
X00874771
X00844771Y00604609
X00823756Y0061961
X00854771Y0070461
Y0071461
Y0072461
Y0073461
X00904772Y0072461
Y0071461
X00904772Y0070461
X00944772Y0072461
Y0081461
X00934772
Y0082461
Y0083461
Y0084461
X00944772
Y0085461
X00954772
Y0086461
X00964772
Y0087461
X00974772
Y0086461
Y0085461
Y0084461
Y0083461
X00964772
X00954772
Y0084461
X00964772
Y0085461
X00954772Y0087461
X00944772
Y0086461
X00934772
X00924772
Y0087461
Y0088461
Y0089461
X00934772
X00944772
X00954772
X00964772
Y0090461
X00954772
X00944772
X00934772
X00924772
X00914772
X00904772
Y0089461
Y0088461
X00914772
Y0089461
Y0087461
Y0086461
Y0085461
Y0084461
X00904772
Y0083461
X00914772
X00924772
Y0084461
Y0085461
X00934772
Y0087461
Y0088461
X00944772
X00954772
X00964772
X00974772
Y0089461
Y0090461
Y0091461
X00964772
X00954772
X00944772
X00944787Y00924397
X00954772Y0092461
Y0093461
Y0094461
Y0095461
X00964772
X00974772
Y0094461
X00964772
Y0093461
X00974772
Y0092461
X00964772
X00944772Y0093461
Y0094461
X00934772
Y0095461
X00944772
X00945Y00965
X00935
X00925
Y00975
X00915
X00905
Y00965
X00915
X00914772Y0095461
X00904772
Y0094461
X00914772
X00924772
Y0095461
Y0093461
Y0092461
Y0091461
X00914772
Y0092461
Y0093461
X00904772
Y0092461
Y0091461
X00894771
Y0092461
Y0093461
Y0094461
X00884771
Y0095461
X00894771
X00894999Y00965
X00884999
Y00975
X00874999
Y00965
X00865
X00855
X00845
X00835
Y00975
X00845
X00855
X00865
X00864771Y0095461
X00874771
Y0094461
X00864771
X00854771
Y0095461
X00844771
Y0094461
X00834771
Y0095461
X00823984Y0096
Y0097
X00798828Y00967992
X0080594Y00982216
X00834771Y0093461
X00844771
X00854771
Y0092461
Y0091461
X00844771
Y0092461
X00834771
Y0091461
Y0090461
Y0089461
X00854771
X00864771Y0088461
Y0085461
Y0084461
X00854771
Y0083461
X00864771
X00874771
Y0084461
Y0085461
X00884771
Y0084461
X00894771
Y0083461
X00884771
Y0082461
X00874771
X00864771
X00854771
Y0081461
X00864771
X00874771
X00884771
X00894771
Y0082461
X00904772
X00914772
X00924772
Y0081461
X00914772
X00904772
Y0085461
Y0086461
Y0087461
X00894771
Y0088461
Y0086461
Y0085461
X00884771Y0086461
Y0091461
Y0092461
Y0093461
X00864771
Y0092461
Y0091461
X00874771
X00934772
Y0092461
Y0093461
X00935Y00975
X00945
X00955
X00965
X00975
Y00965
X00965
X00955
X00894999Y00975
X00944772Y0083461
Y0082461
X00954772
X00964772
X00974772
Y0081461
X00964772
X00954772
X00834771Y0084461
X00809772Y0080961
Y0079961
X00834771Y0078461
X00823756Y0076961
X00794772Y0077461
Y0076461
Y0075461
X00736344Y00783588
X0069164Y00641722
X00674114Y0065862
X00644538Y00654192
X00637538
Y00663192
X00644538
X00657604Y00633474
X00653286Y0062044
X00622806Y0062052
X00984772Y00624609
Y00614609
X00994772
X01004772
X01014772
X01024772
Y00624609
Y00634609
X01014772
X01004772
X00994772
X00984772
Y0064461
Y0065461
Y0066461
Y0067461
Y0068461
Y0069461
X00994772
X00994772Y0070461
Y0071461
X01004772
X01014772
Y0072461
Y0073461
Y0074461
Y0075461
Y0076461
Y0077461
Y0078461
Y0079461
X01024772
Y0078461
Y0077461
Y0076461
Y0075461
Y0074461
Y0073461
Y0072461
Y0071461
Y0070461
X01014772
X01004772
Y0069461
X01014772
X01024772
Y0068461
X01014772
X01004772
Y0067461
X00994772
Y0066461
X01004772
Y0065461
X00994772
Y0064461
X01004772
X01014772
Y0065461
Y0066461
Y0067461
X01024772Y0067461
Y0066461
Y0065461
Y0064461
X01044772
Y0065461
Y0066461
Y0067461
Y0068461
Y0069461
Y0070461
Y0071461
Y0072461
Y0073461
Y0074461
Y0075461
Y0076461
Y0077461
Y0078461
Y0079461
X01054772
X01064772
X01074772
X01084772
X01094772
X01104772
X01114772
X01124772
Y0078461
X01114772
X01104772
X01094772
X01084772
X01074772
X01064772
Y0077461
X01074772
X01084772
X01094772
X01104772
X01114772
X01124772
X01134772
Y0076461
X01124772
X01114772
X01104772
X01094772
X01084772
X01074772
X01064772
Y0075461
X01074772
X01084772
X01094772
X01104772
Y0074461
X01114772
X01114772Y0075461
X01124772
Y0074461
Y0073461
X01114772
X01104772
X01094772
Y0072461
X01084772
X01074772
Y0073461
X01064772
Y0074461
X01074772
X01084772
X01094772
X01084772Y0073461
Y0071461
X01094772
X01104772
Y0072461
X01114772
X01124772
Y0071461
X01114772
Y0070461
X01104772
X01094772
X01084772
X01074772
Y0071461
X01064772
Y0072461
X01054772
Y0073461
Y0074461
Y0075461
Y0076461
Y0077461
Y0078461
Y0081461
Y0082461
Y0083461
Y0084461
Y0085461
Y0086461
Y0087461
Y0088461
Y0089461
Y0090461
X01064772
X01074772
X01084772
X01094772
X01104772
X01114772
X01124772
Y0089461
X01114772
X01104772
X01094772
X01084772
X01074772
X01064772
Y0088461
X01074772
X01084772
X01094772
X01104772
X01114772
X01124772
Y0087461
X01114772
X01104772
X01094772
X01084772
X01074772
X01064772
Y0086461
X01074772
X01084772
X01094772
X01104772
X01114772
X01124772
Y0085461
X01114772
X01104772
X01094772
X01084772
X01074772
X01064772
Y0084461
X01074772
X01084772
X01094772
X01104772
X01114772
X01124772
Y0083461
X01114772
X01104772
X01094772
X01084772
X01074772
X01064772
Y0082461
X01074772
X01084772
X01094772
X01104772
X01114772
X01124772
Y0081461
X01114772
X01104772
X01094772
X01084772
X01074772
X01064772
X01044772
Y0082461
Y0083461
Y0084461
Y0085461
Y0086461
Y0087461
Y0088461
Y0089461
Y0090461
Y0091461
Y0092461
Y0093461
X01054772
Y0094461
Y0095461
X01044772
Y0094461
X01064772
Y0095461
X01065Y00965
X01075
X01085
X01095
X01105
X01115
X01125
X01135
X01145
X01155
Y00975
X01145
X01135
X01125
X01115
X01105
X01095
X01085
X01075
X01065
X01055
Y00965
X01045
Y00975
X01025
Y00965
X01015
Y00975
X01005
Y00965
X00995
Y00975
X00985
Y00965
X00994772Y0095461
Y0094461
Y0093461
Y0092461
Y0091461
X00984772
Y0092461
Y0093461
X01004772
X01014772
Y0094461
X01024772
Y0093461
Y0092461
X01014772
X01004772
Y0091461
X01014772
X01024772
Y0090461
X01014772
X01004772
X00994772
Y0089461
Y0088461
Y0087461
X00984772
Y0086461
Y0085461
Y0084461
X00994772
Y0085461
Y0086461
X01004772
Y0087461
Y0088461
Y0089461
X01014772
X01024772
Y0088461
X01014772
Y0087461
X01024772
Y0086461
X01014772
Y0085461
X01004772
Y0084461
X01014772
X01024772
Y0085461
Y0083461
X01014772
X01004772
X00994772
X00984772
Y0082461
X00994772
X01004772
X01014772
X01024772
Y0081461
X01014772
X01004772
X00994772
X00984772
Y0079461
X00994772
X01004772
Y0078461
X00994772
X00984772
Y0077461
X00994772
X01004772
Y0076461
X00994772
X00984772
Y0075461
X00994772
X01004772
Y0074461
X00994772
X00984772
Y0073461
X00994772
X01004772
Y0072461
X00994772
X00984772
Y0071461
Y0070461
X00994772Y0068461
X00994772Y00624609
X01004772
X01014772
X01044772
Y00614609
X01054772
X01064772
X01074772
X01084772
X01094772
X01104772
X01114772
X01124772
X01134772
X01144772
X01154772
Y00604609
X01164772
X01174772
Y00614609
X01184772
X01194772
X01204772
X01214772
Y00624609
Y00634609
X01224772
Y00624609
Y00614609
X01234772
Y00624609
X01246296Y0063961
X01259772Y0062961
Y0061961
Y0060961
X01249772Y0059961
X01224772Y00604609
X01219732Y00594222
X01204772Y00604609
X01194772
Y00624609
X01184772
X01174772
X01164772
Y00614609
Y00634609
X01174772
X01184772
X01194772
X01204772
Y00624609
Y0064461
X01214772
Y0065461
Y0066461
Y0067461
Y0068461
Y0069461
Y0070461
Y0071461
Y0072461
Y0073461
Y0074461
Y0075461
Y0076461
X01224772
Y0077461
X01214772
Y0078461
X01224772
Y0079461
X01214772
X01204772
X01194772
Y0078461
Y0077461
Y0076461
X01184772
Y0075461
X01194772
Y0074461
Y0073461
Y0072461
Y0071461
Y0070461
Y0069461
Y0068461
Y0067461
Y0066461
Y0065461
Y0064461
X01184772
X01174772
X01164772
Y0065461
X01174772
X01184772
Y0066461
X01174772
X01164772
Y0067461
X01174772
X01184772
Y0068461
X01174772
X01164772
Y0069461
X01174772
X01184772
Y0070461
X01174772
Y0071461
X01184772
Y0072461
X01174772
X01164772
Y0071461
Y0070461
X01154772
Y0069461
Y0068461
Y0067461
Y0066461
Y0065461
X01144772
Y0064461
X01134772
X01124772
Y0065461
Y0066461
Y0067461
Y0068461
Y0069461
Y0070461
X01134772
X01144772
Y0069461
Y0068461
Y0067461
Y0066461
X01134772
Y0067461
Y0068461
Y0069461
X01114772
X01104772
X01094772
X01084772
X01074772
X01064772
Y0070461
X01054772
Y0071461
Y0069461
Y0068461
X01064772
X01074772
X01084772
X01094772
X01104772
X01114772
Y0067461
X01104772
X01094772
X01084772
X01074772
X01064772
Y0066461
Y0065461
X01074772
Y0066461
X01084772
X01094772
X01104772
Y0065461
X01094772
X01084772
Y0064461
X01074772
X01064772
X01054772
Y0065461
Y0066461
Y0067461
Y00634609
X01064772
X01074772
X01084772
X01094772
X01104772
X01114772
X01124772
Y00624609
X01114772
X01104772
X01094772
X01084772
X01074772
X01064772
X01054772
Y00604609
X01069772Y00593594
X01104772Y00604609
X01114772
X01124772
X01119772Y00593594
X01134772Y00624609
X01144772
X01154772
Y00634609
X01144772
X01134772
Y0065461
X01114772
Y0064461
X01104772
X01094772
X01114772Y0066461
X01154772Y0064461
X01204772Y0065461
Y0066461
Y0067461
Y0068461
Y0069461
Y0070461
Y0071461
Y0072461
Y0073461
Y0074461
Y0075461
Y0076461
Y0077461
Y0078461
X01184772
X01174772
Y0077461
X01164772
Y0076461
Y0075461
Y0074461
Y0073461
X01174772
X01184772
Y0074461
X01174772
Y0075461
Y0076461
X01184772Y0077461
Y0079461
X01174772
X01164772
Y0078461
X01154772
Y0077461
Y0076461
Y0075461
Y0074461
Y0073461
Y0072461
Y0071461
X01144772
X01134772
Y0072461
X01144772
Y0073461
X01134772
Y0074461
X01144772
Y0075461
X01134772
X01144772Y0076461
Y0077461
Y0078461
X01134772
Y0079461
X01144772
X01154772
Y0081461
X01144772
X01134772
Y0082461
Y0083461
X01144772
Y0082461
X01154772
Y0083461
Y0084461
X01144772
Y0085461
X01154772
Y0086461
X01144772
X01134772
Y0087461
X01144772
X01154772
Y0088461
X01144772
X01134772
Y0089461
X01144772
Y0090461
X01154772
Y0089461
X01164772
Y0090461
X01174772
X01184772
X01194772
Y0089461
X01204772
X01214772
Y0088461
Y0087461
X01204772
X01194772
Y0088461
X01204772
X01224772
Y0087461
Y0086461
Y0085461
Y0084461
Y0083461
Y0082461
X01234772
X01214772
Y0081461
X01204772
X01194772
X01184772
X01174772
X01164772
Y0082461
Y0083461
X01174772
Y0082461
X01184772
Y0083461
X01194772
X01204772
X01214772
Y0084461
Y0085461
Y0086461
X01204772
Y0085461
X01194772
Y0084461
X01204772
Y0082461
X01194772
X01184772Y0084461
X01174772
X01164772
Y0085461
X01174772
X01184772
Y0086461
X01194772
X01174772
X01164772
Y0087461
X01174772
X01184772
Y0088461
Y0089461
X01174772
Y0088461
X01164772
Y0091461
Y0092461
Y0093461
Y0094461
X01174772
Y0095461
X01184772
X01194772
Y0094461
Y0093461
X01204772
X01214772
X01224772
X01234772
Y0092461
X01224772
X01214772
X01204772
X01194772
X01184772
Y0093461
Y0094461
X01204772
Y0095461
X01214772
X01224772
Y0094461
X01214772
X01215Y00965
Y00975
X01205
X01195
X01185
X01175001
Y00965
X01185
X01195
X01205
X01235
Y00975
X01246524Y0098
X01246296Y0094961
Y0093961
Y0090961
X01234772Y0090461
X01224772
Y0089461
X01234772
Y0087461
X01259584Y00864798
Y00854798
Y00844798
Y00834798
X01246296Y0083961
X01259772Y0081461
Y0080361
Y0079361
Y0077961
Y0076961
Y0075961
Y0074961
X01269772Y0074161
X01276772
X01274772Y0075461
Y0077461
Y0078461
Y0079961
Y0080961
Y0081961
Y0082961
Y0084961
Y0085961
Y0086961
Y0087961
X01259772Y0088461
X01214772Y0090461
X01204772
Y0091461
X01214772
X01224772
X01194772
X01184772
X01174772
Y0092461
Y0093461
X01154772
Y0094461
Y0095461
X01144772
Y0094461
Y0093461
X01144691Y00924691
X01134772Y0092461
Y0093461
X01124772
Y0094461
X01114772
Y0093461
X01104772
X01094772
X01084772
X01074772
X01064772
Y0092461
X01074772
X01084772
X01094772
X01104772
X01114772
X01124772
Y0091461
X01134772
X01144772
X01154772
Y0092461
X01164772Y0095461
X01165001Y00965
Y00975
X01124772Y0095461
X01114772
X01104772
Y0094461
X01084772
Y0095461
Y0091461
X01074772
X01064772
X01054772
Y0092461
X01094772Y0091461
X01104772
X01114772
X01134772Y0090461
X01134691Y00854691
X01134772Y0084461
X01246296Y0078961
X01234772Y0076461
X01224772Y0075461
Y0074461
Y0073461
Y0072461
Y0071461
Y0070461
Y0069461
Y0068461
Y0067461
Y0066461
Y0065461
Y0064461
X01234772Y0066461
X01259772Y0065961
Y0064961
X01274772Y0065461
Y0064461
X01274892Y00634688
Y00604688
X01274772Y0067461
X01270772Y0068461
X01259772Y0067961
Y0066961
Y0069961
X01252772
Y0070961
X01259772
X0125929Y00719952
X01259772Y0072961
X01253772
X01246296Y0073961
X01234772Y0071461
X01246296Y0068961
X01169772Y00594102
X01019772Y00593594
X00994772Y00604609
X01044772Y00634609
X00984772Y0088461
Y0089461
Y0090461
X01004772Y0094461
Y0095461
X01014772
X01024772
X0129227Y0094048
X0129235Y0093048
X01385824Y00953008
X01404874Y00953262
X01455Y00955
Y00965
Y00975
X01465
Y00965
Y00955
X01475
Y00965
Y00975
X01485
X01495
X01505
X01515
Y00965
X01505
X01495
X01485
Y00955
Y00945
X01475
X0146508Y00945
X01455Y00945
Y00925001
X01465
X01475Y00935
X01485
Y00925001
X01495
Y00935
Y00945
Y00955
X01505
X01515
Y00945
X01505
Y00935
Y00925001
X01515
Y00935
X01535
Y00945
Y00955
X01545
Y00965
Y00975
X01555
X01565
X01575
X01585
X01595
X01605
Y00965
Y00955
Y00945
Y00935
Y00925001
X01595
Y00935
Y00945
Y00955
Y00965
X01585
Y00955
Y00945
Y00935
Y00925001
X01575
Y00935
Y00945
Y00955
Y00965
X01565
X01555
Y00955
X01565
Y00945
Y00935
Y00925001
X01555
Y00935
Y00945
X01545
Y00935
Y00925001
X01535
Y00905
X01545
X01555
X01565
X01575
X01585
X01595
X01605
Y00894999
Y00884999
Y00874999
Y00865
X01595
Y00874999
Y00884999
Y00894999
X01585
Y00884999
Y00874999
Y00865
X01575
X01565
X01555
X01545
Y00874999
X01555
X01565
X01575
Y00884999
Y00894999
X01565
Y00884999
X01555
X01545
X01535
Y00894999
X01545
X01555
X01515
Y00884999
X01505
Y00874999
X01495
Y00865
X01485
X01475
X01465
Y00874999
X01455
Y00884999
Y00894999
X01465
Y00884999
X01475
Y00874999
X01485
Y00884999
Y00894999
X01475
Y00905
X01485
X01495
X01505
X01515
X01505Y00894999
X01495
Y00884999
X01505Y00865
X01515
Y00874999
X01535Y00865
X01537716Y0080956
X01510444
X01491Y00797364
X01476
X01455164Y0079832
X0149936Y00780032
X014892Y0076276
X01494698Y00737377
X01518364Y00734
Y00719
X01544144Y0071704
X015442Y007272
X01575995Y00712997
X01575Y00675001
Y00665001
X01565
X01555
X01545
Y00675001
X01535
X01555
X01565
X01585
Y00665001
X01595
Y00675001
X01605
Y00665001
Y00655
X01595
X01585
X01575
X01565
X01555
Y00645
Y00635
X01545
Y00625
X01535
Y00635
Y00645
X01545
Y00655
X01535
X01515
Y00645
Y00635
Y00625
X01505
Y00635
Y00645
X01495
Y00635
Y00625
X01485
Y00635
Y00645
Y00655
X01495
X01505
Y00665001
X01515
Y00675001
X01505
X01495
Y00665001
X01485
X01475
Y00675001
X01485
X01465
Y00665001
X01455
Y00675001
Y00655
X01465
X01475
Y00645
Y00635
X01465Y00625
X01455
Y00645
X01465
X01475Y00605
X01485
X01495
X01505
X01515
Y00595
X01505
X01495
X01485
X01475
X01465
X01455
X0144272Y00605536
X01406062Y0064338
X01405808Y0068148
X01511396Y00689
X01524
X01565Y00645
Y00635
Y00625
X01555
X01575
Y00635
Y00645
X01585
Y00635
Y00625
X01595
Y00635
Y00645
X01605
Y00635
Y00625
Y00605
X01595
X01585
X01575
X01565
X01555
X01545
X01535
Y00595
X01545
X01555
X01565
X01575
X01585
X01595
X01605
X0165422Y00609932
X0165472Y00630252
X01653284Y006383
X01669524Y00639216
Y00629216
Y00619216
Y00649216
Y00659216
Y00669216
Y00679216
Y00689216
X01661412Y00688084
X01656332Y00693672
X01649728Y00695704
X01669524Y00699216
Y00709216
Y00719216
Y00729216
X01668736Y00759018
Y00769017
Y00779017
Y00789017
Y00809017
Y00819017
Y00829017
X01668753Y0083893
Y0084893
Y0085893
Y0086893
Y00878929
Y00888929
X01651854Y0088595
Y0091389
X01668753Y00916758
Y00926758
Y00936758
Y00946758
Y00956758
Y00966758
Y00976758
X01694153Y00971838
Y00961838
Y00951838
Y00941838
Y00931838
Y00921838
X01694661Y00894357
Y00884357
Y00874357
Y00864358
Y00854358
Y00844358
Y00834358
X01694645Y00824017
Y00814017
Y00804017
Y00794017
Y00784017
Y00774017
Y00764017
X01695432Y00734216
Y00724216
Y00714216
Y00704216
Y00694216
Y00684216
Y00674216
Y00664216
Y00654216
Y00644216
Y00634216
Y00624216
X0171145Y00629156
X0172669
X0174204Y00629236
Y00639236
Y00649236
Y00659236
Y00669236
Y00679236
Y00689236
Y00699236
Y00709236
Y00719236
Y00729236
X0172415Y00718564
X0170637
X01713728Y0069094
X01723728
Y0064522
X01713728
X0174204Y00619236
X0176744Y00624316
Y00634316
Y00644316
Y00654316
Y00664316
Y00674316
Y00684316
Y00694316
Y00704316
Y00714316
Y00724316
Y00734316
X0177307Y00747418
X01766652Y00764118
Y00774118
Y00784118
Y00794118
X01767178Y0080401
X01766652Y00824118
Y00834118
Y00844118
Y00854118
Y00864118
Y00874118
Y00884118
Y00894118
X017675Y009111
X01766652Y00921838
Y00931838
Y00941838
Y00951838
Y00961838
Y00971838
Y00981837
X01741252Y00976758
Y00966758
Y00956758
Y00946758
Y00936758
Y00926758
Y00916758
X01731008Y00906524
X01731516Y0088976
X01741252Y00889038
Y00879038
Y00869038
Y00859038
Y00849038
Y00839038
Y00829038
Y00819038
X01732532Y00819148
X01741252Y00809038
Y00799038
Y00789038
Y00779038
Y00769038
Y00759038
X0172421Y00779781
X01714211
X01707894Y0080721
Y0082118
X01714211Y00845822
X0172421
X01731516Y0087579
X01728235Y00940815
X01712139Y00934718
X01694153Y00981837
X01651854Y0094691
X01656332Y0084412
X01648204Y00832356
X01594Y0079
X01578Y008
X01564Y00788
X01557
Y00779
X01564
X0152708Y0077808
X01526Y00792
X01467426Y00737377
X0140927Y00843866
X01403889Y0089484
X01535Y00975
X0165422Y00675972
X01761904Y0060782
X01796096
X01820924Y00603248
Y0059004
X0183464Y00589532
X01845308Y00589024
X018693Y0059131
X0182956Y00611884
X0182067Y0066497
X0182212Y007096
Y007196
Y007296
Y007396
X0183212
Y007296
Y007196
Y007096
X0184212
X0185212
X0186212
X0187212
X0188212
X0189212
X0190212
X0191212
X0192212
X0193212
X0194212
Y007196
X0195212
X0196195Y0070967
X01972119Y007096
Y007196
Y007296
Y007396
Y007496
X0198212
Y007396
Y007296
Y007196
Y007096
X02002121
X02012121
X0202212
X0203212
X0204212
X0205212
X0206212
X0207212
X0208212
Y007196
X0209212
X0210212
X0211212
Y007096
X0212212Y007196
X0213212
X0214212
Y007096
X0215212
X0216212
Y007196
Y007296
Y007396
Y007496
Y007596
Y007696
Y007796
Y007896
Y007996
Y008096
Y008196
Y008296
Y008396
Y008496
Y008596
X0215212
Y008496
Y008396
Y008296
Y008196
Y008096
Y007996
Y007896
Y007796
Y007696
Y007596
Y007496
Y007396
Y007296
Y007196
X0214212Y007296
Y007396
Y007496
Y007596
Y007696
Y007796
Y007896
Y007996
Y008096
Y008196
Y008296
Y008396
Y008496
Y008596
X0213212
Y008496
Y008396
Y008296
Y008196
Y008096
Y007996
Y007896
Y007796
Y007696
Y007596
Y007496
Y007396
Y007296
X0212212
X0211212
X0210212
X0209212
X0208212
X0207212
Y007396
X0206212
Y007296
Y007196
X0207212
X0205212
X0204212
X0203212
X0202212
X02012121
X02002121
Y007296
X02012121
X0202212
X0203212
X0204212
X0205212
Y007396
X0204212
X0203212
Y007496
X0204212
X0205212
X0206212
X0207212
X0208212
Y007396
X0209212
X0210212
X0211212
X0212212
Y007496
Y007596
Y007696
Y007796
Y007896
Y007996
Y008096
Y008196
Y008296
Y008396
Y008496
Y008596
Y008696
X0213212
X0214212
X0215212
X0216212
Y00889601
Y00899601
Y009096
Y009196
Y009296
Y009396
Y009496
Y009596
X0215212
Y009496
Y009396
Y009296
Y009196
Y009096
Y00899601
Y00889601
X0214212
Y00899601
Y009096
Y009196
Y009296
X0213212
Y009196
Y009096
Y00899601
Y00889601
X0212212
Y00899601
Y009096
Y009196
Y009296
Y009396
Y009496
X0213212
Y009596
X0214212
Y009796
X0215212
X0216212
X0213212
X0212212
Y009696
Y009596
X02099Y00944
Y00934
Y00915
X020805Y009465
X020705
X0204212Y009296
X0203212
X0202212
X02012121
X02002121
Y009196
X02012121
X0202212
X0203212
X0204212
Y009096
Y00899601
Y00889601
X0203212
Y00899601
Y009096
X0202212
X02012121
X02002121
Y00899601
X02012121
X0202212
Y00889601
X02012121
X02002121
X0198212
Y00899601
Y009096
Y009196
Y009296
X01972119
X019622Y0092963
X01962075Y0091972
X0195212Y009196
Y009096
Y00899601
Y00889601
X0194212
Y00899601
Y009096
Y009196
Y009296
X0195212
X019622Y00909705
Y00899795
X01972119Y00899601
Y009096
Y009196
Y00889601
X01962125Y00889625
X01962075Y0086969
Y00859655
X0195212Y008596
Y008496
Y008396
X0196195Y0083973
X01962075Y00849495
X01972119Y008496
Y008596
Y008696
X0198212
Y008596
Y008496
Y008396
Y008296
X01972119
Y008396
X0196195Y0082957
X0195212Y008296
X0194212
Y008396
Y008496
Y008596
Y008696
X0195212
X02002121
X02012121
X0202212
X0203212
X0204212
Y008596
Y008496
Y008396
Y008296
X0203212
X0202212
X02012121
X02002121
Y008396
X02012121
X0202212
X0203212
Y008496
Y008596
X0202212
Y008496
X02012121
X02002121
Y008596
X02012121
X02027Y00773
X02037
X02047
X0206Y008035
X020705
X021045Y00803
Y00813
X020995Y00824
Y00834
Y008445
X0210212Y007496
X0211212
X0209212
X02088Y00703
X02078
X0211412Y00669368
X0212428
X0213436Y00659128
X02144012
X0215468Y00656588
Y00662684
X0215476Y00669368
X0216492
X0199085Y0067767
X02002121Y007396
X02012121
X0202212
Y007496
X02012121
X02002121
X01962125Y0074958
X0195212Y007496
Y007396
X0194212
Y007296
X0193212
Y007196
X0192212
X0191212
X0190212
X0189212
X0188212
X0187212
X0186212
X0185212
X0184212
Y007296
Y007396
Y007496
X0183212
X0182212Y007596
Y007696
X0183212
Y007796
Y007896
Y007996
Y008096
X0184212
Y007996
Y007896
X0185212
Y007796
X0186212
Y007696
Y007596
Y007496
X0185212
Y007396
Y007296
X0186212
X0187212
X0188212
X0189212
X0190212
X0191212
X0192212
Y007396
X0191212
X0190212
X0189212
X0188212
X0187212
X0186212
X0187212Y007496
X0188212
X0189212
X0190212
X0191212
X0192212
X0193212
Y007396
X0194212Y007496
X01947Y00773
X01937
X01957068Y0077292
X018855Y008
X0186212Y007996
X0185212
Y008096
Y008196
X0184212
X0183212
X0182212
Y008096
Y007996
Y007896
X0179715Y00798422
Y00808582
Y00818742
X0182212Y008296
Y008396
Y008496
Y008596
X0183212
Y008496
Y008396
Y008296
X0184212
Y008396
Y008496
Y008596
X0185212
Y008496
Y008396
Y008296
X0186212
Y008196
Y008096
Y007896
X0184212Y007596
X01798166Y00747622
X01800694Y00724316
X01800604Y00698752
X01798318Y0077419
X01784856Y00791208
X0182212Y008696
X0183212
X0184212
X0185212
X0186212
Y008596
Y008496
Y008396
X01886Y0084
Y0083
Y0085
X0186212Y00889601
X0185212
X0184212
X0183212
X0182212
Y00899601
Y009096
Y009196
Y009296
Y009396
Y009496
Y009596
X0183212
Y009696
Y009796
X0184212
X0185212
X0186212
Y009696
Y009596
X0185212
X0184212
Y009496
X0183212
Y009396
Y009296
Y009196
Y009096
Y00899601
X0184212
Y009096
Y009196
Y009296
Y009396
X0185212
Y009496
X0186212
Y009396
Y009296
X0185212
Y009196
Y009096
Y00899601
X0186212
Y009096
Y009196
X01885Y0092
Y0093
Y0094
X018855Y0096
X0189Y00971
X01906268Y00941576
X01912364
X0191846
X01924556
X01930652
X0188925Y0069164
Y0068148
X01865117Y00660649
X01930652Y0061036
X019591Y00605788
X02192352Y0061036
X02218608
X02262884Y00605788
X023435Y006
X023515
Y00608
Y00616
X023435
X023595
Y00608
Y006
X023675
Y00608
Y00616
X023755
X023835
X023915
X023995
Y00608
X023915
X023835
Y006
X023755
X023915
X023995
X024155
Y00608
Y00616
X024235
Y00608
X024315
X024395
X024475
X024555
X024635
X024555Y00616
Y006
X024475
X024395
X024315
X024235
X024395Y00616
X02419602Y00639316
X0241173Y0065532
X02425952Y0069672
X0242646Y00716024
X024505Y007175
X024585
Y007095
X024665
Y007175
X024745
Y007095
Y007015
X024665
X024585
X024505
X024825
X024905
X024985
X025065
Y007095
X024985
X024905
Y007175
X024825
X024985
X025065
X025225
Y007095
X025305
X025385
X025465
X025545
X025625
X025705
Y007015
X025545
X025385
X025225
X025305Y007175
X025385
X025465
X025545
X025625
Y007575
Y007655
X025705
X025625Y007735
X025545Y007655
Y007575
X025465
Y007655
Y007735
X025305
X025225
Y007655
X025305
X025385
Y007575
X025305
X025225
X025065
Y007655
Y007735
X024985
X024905
X024825
X024745
X024665
X024585
X024505
Y007575
X024585
Y007655
X024665
Y007575
X024745
Y007655
X024905
X024985
Y007575
X024905
X024825
X02424936Y00753616
X023448Y0075768
Y0074752
X0234488Y0073736
Y007272
Y0071704
Y0070688
Y0069672
Y0068656
Y006764
X0237088
X02300476Y00711452
X02291332Y00710944
X0228191Y0074006
X0227406Y0076725
X02304032Y00762557
Y00756105
X02304262Y0077569
X02315716Y0078348
Y0079348
Y0081848
X0232232Y00822714
Y00829166
X02338964Y008136
X023448Y0076784
X0224635Y00778278
X02237992Y0078844
X02231388Y00796796
X022385Y0080348
X02222752Y0081356
X02217559Y00809609
X02202352Y0081364
Y008238
X02205996Y0083388
X02189224Y0083134
X02202352Y0080348
Y0079332
Y0078316
X02209544Y00773
X02202352Y0076284
Y0075268
Y0074252
Y0073236
Y007222
Y0071204
Y0070188
X02215386Y0069037
Y0068021
X02238754
Y0069037
X0225124Y0072963
X0223596Y00743456
X0222596
X02216054Y00788668
X02229864Y0083388
X02237484Y008284
X02234944Y00846072
X0225882Y00844548
Y00851152
X02252216Y00863852
X02271012Y00874012
X02289808Y00886204
X02288244Y0085924
X02298912Y00845794
X0227406Y00845056
X02319264Y00902976
X02315208Y00939544
X02368294Y0095072
Y0096088
X024505Y009705
X024585
Y009785
X024665
Y009705
X024745
X024825
X024905
X024985
X025065
Y009785
X024985
X024905
X024745
X025225
Y009705
X025385
Y009785
X025465
X025545
X025625
X025705
Y009705
X025545
X025305Y009785
X02534664Y00936496
X02544824
Y00913636
X02534664
Y00890776
X02544824
Y00867916
X02534664
Y00845056
X02544824
Y00822196
X02534664
X02502486Y00823038
X02503796Y00813426
X02493596Y00818426
Y00808426
Y00831286
Y00841286
Y00854146
Y00864146
Y00877006
Y00887006
Y00899866
Y00909866
Y00922726
Y00932726
X02503796Y00927726
Y00914866
Y00904866
Y00892006
Y00882006
Y00869146
Y00859146
Y00846286
X02504264Y00836286
X02568192Y0065608
X02565654Y00605
X02558796Y00603852
Y00593852
X02565654Y00595
X02529434Y0059286
X0218524Y00669368
X0217508
X02175Y0093421
X0218516
X0219532
X0221183Y0094056
X0224727
X02259328Y0095072
X02232912Y00967992
X02232404Y00975104
X02233928Y00918208
X02582924Y00850644
X02582416Y008415
X02595624Y0084912
Y0085912
X0260934Y008669
X02626612Y00854708
X0263474
Y0084404
X02626612
X02663696Y00842008
X02664712Y00857248
X02655568Y0086712
X02652012Y0081737
X02651504Y00784604
X0263474Y00786128
X02657092Y00738884
Y00731772
X02663598Y0074203
X0269197Y0073109
X02707316Y0074109
X02732882Y0074203
X0275412Y0073736
X027465Y0072847
X0276936Y007272
X027051Y00653064
X02697116Y0063508
X02665216Y0063416
X02661636Y0061976
X0266366Y0060844
X0264922Y00604012
X02650236Y00594868
X02642866Y0059
X02642362Y00614934
X0263271Y00626364
X0262636Y00632714
X02616708Y00635254
X02611628Y00628904
X02609596Y00646176
X0259664Y0064338
X02594608Y0065608
X0258676Y00636016
X0258176Y00626106
X0257401Y0061694
X0262331Y00651
X026732Y00664144
X026797
X026862
X0267962Y00611776
X0269066Y0060844
X0264444Y0070053
X02623564Y0072212
X026035Y007315
Y007125
X0262839Y0089484
X0265387Y00931416
X02671824Y00923796
X0285572Y0082753
X028608Y0082118
X0287604Y0080086
X0286842Y0078562
X02942656Y0073294
Y0071994
Y0069992
Y0069342
Y0068692
Y006669
Y006604
Y006539
X02980624
Y006604
Y006669
Y0068692
Y0069342
Y0069992
Y0071994
Y0072644
Y0073294
X03029964Y00683004
X0260487Y01323
X02606953Y01332
X02591052Y01355596
X02589528Y01380996
X02553716Y01368044
X025102Y01361304
X025002
X0251312Y01352802
X024871Y013491
X024675Y013295
Y01323
Y013165
Y0130378
X0245059Y0130124
X0243416Y01307216
X02419348Y01302256
X0241376Y01309876
X02416184Y01327148
X02385484Y01339594
Y01345944
Y01352294
Y01358644
Y01364994
Y01371344
Y01377694
X02331464Y01358136
X02294716Y01358644
Y01364994
Y01371344
Y01377694
X02294716Y01352294
X02294716Y01345944
Y01339594
X02333322Y01309542
X02357546Y01309702
X02380306Y01258212
Y01251712
Y01245212
X02418406Y01251712
Y01258212
X02423412Y01280412
X0243416Y01280024
X0244416
X0243924Y01271656
X0244924
X024743
X024848
X0249362Y01280158
X0251312
X02513076Y01198014
Y01191514
Y01185014
X02500628Y01156714
X02535172Y01143252
X02560064Y0114122
X0255092Y01174748
X02551176Y01191514
Y01198014
X024635Y01192
X024555
Y012
Y01184
X024475
Y01192
X024395
Y012
X024235
X024155
Y01192
X024235
X024315
Y01184
X024395
X024235
X024155
X023995
Y01192
Y012
X023915
X023835
X023755
X023675
X023595
X023515
X023435
Y01184
X023515
Y01192
X023595
Y01184
X023675
Y01192
X023835
X023915
Y01184
X023835
X023755
Y01144
X023675
X023595
X023515
X023435
Y01128
X023515
Y01136
X023595
Y01128
X023675
X023755
X023835
X023915
X023995
Y01136
X023915
X023835
Y01144
X023915
X023995
X024155
Y01136
Y01128
X024315
Y01136
X024395
X024475
X024555
Y01144
X024475
X024395
X024315
X024235
Y01136
X024475Y01128
X024635
X024665Y010425
X024585
X024505
Y010265
X024585
Y010345
X024665
Y010265
X024745
Y010345
Y010425
X024825
X024905
X024985
X025065
Y010345
X024985
X024905
Y010265
X024825
X024985
X025065
X025225
Y010345
Y010425
X025305
Y010345
X025385
X025465
X025545
X025625
X025705
X025625Y010425
Y010265
X025545
X025465
X025385
X025305
X025465Y010425
Y009865
X025545
X025625
X025385
X025305
X025225
X025065
X024985
X024905
X024825
X024745
X024665
X024585
X024505
X024036Y01016252
X0241122Y01034032
X02371088Y01020316
X02345688Y01015744
X02315208Y00985772
X0224727Y0098628
X02247644Y01018284
X02244088Y01029968
X02231896Y01026412
X022385Y01040128
X0224104Y01069592
X0225104
Y01084832
X0224104
Y01100072
X0225104
X02248152Y0111344
Y0112344
X02232912
Y0111344
X02217672
Y0112344
X02202432
Y0111344
X02187192
Y0112344
X0218389Y0115762
X0219659
X0220929
X0222199
X0223469
X0224155Y01142746
X022385Y01135124
X02223768Y0114122
X02224784Y01072132
X02218688Y01058416
X02209036Y01025396
X0219532Y01008124
X0218516
X02185668Y01014728
X02175Y01008124
X022131Y0098628
X02303016Y01066544
X023675Y01136
X02269998Y01183386
X02263Y01226
X02244088Y0121996
X02297816Y01234264
Y01244264
X0224739Y0129246
X0223469
X0222199
X0220929
X02196336Y01288116
X0218389Y0129246
X02425444Y01290572
X02454908Y01228596
X02477514Y0123012
X0217119Y0129246
X0215849
X0214579
X0213309
X02118104Y01279396
X02122168Y01264156
X02103372Y01292096
X0209499Y0129246
X0208229
X0206959
X0205689
X0204419
X0203149
X0201879
X0200609
X0199339
X0198069
X0194259
X0192989
X0191719
X0190449
X0189179
X0187909
X0186639
X0185369
X0184099Y0128592
X0182829
X01810766Y01313688
X01791562Y01296262
X01784268Y01325196
X01807716Y01228088
X01808732Y0121996
X01807716Y01213864
X01815336Y01231644
X01824988Y01239772
X0182829Y0116416
X0184099
X0185369
X0186639
X0187909
X0189179
X0190449
X0191719
X0192989Y01164186
X01931668Y01157984
X019464Y01124456
X01973832Y0112344
Y0111344
X01999232
Y0112344
X01997708Y01144268
X0199339Y0116416
X0198069
X02006344Y0116444
X02018536
X02031236
X02043936
X0205689Y0116416
X0206959
X0208229
X02074416Y01200148
Y01210148
X02059176
Y01200148
X02043936
Y01210148
X02028696
Y01200148
X02013456Y01200148
X02013964Y0120992
X01998216Y01210148
Y01200148
X01982976
Y01210148
X01967736
Y01200148
X01952496
Y01210148
X01937256
X01939288Y0121996
X0192354Y01210816
X01913808Y01200228
X01918178Y01194278
X01906268Y0121488
X01900578Y01253488
X01894635
X01913888Y0125552
X01935732Y01302256
X0193624Y01312416
X02000756Y01343912
X02043936Y0135458
X02057652Y0133426
Y013241
X02090672Y01238756
X02091688Y0121996
X02107996Y01229997
X02122676Y01168144
X0213309Y0115762
X0214579
X02145536Y01145284
X02127756Y01145792
X0215849Y0115762
X0217119
X02171952Y0112344
Y0111344
X0216212Y010496
X0215212
X0214212
X0213212
X0212212
X0211212
X0210212
X0209212
X0208212
X0207212
X0206212
X0205212
Y010396
X0206212
X0207212
X0208212
X0209212
X0210212
X0211212
X0212212
X0213212
X0214212
X0215212
X0216212
Y010296
X0215212
Y010196
Y010096
Y009996
X0216212
Y009896
X0215212
X0214212
X0213212
Y009996
Y010096
Y010196
Y010296
X0214212
Y010196
X0212212
X0211212
Y010296
X0210212
X0209212
X0208212
X0207212
X0206212
X0205212
X0204212
Y010396
X0203212Y010296
X02012121
Y010396
Y010496
X02002121
Y010396
Y010296
Y010196
X02012121
Y010096
X0202212
X0203212
X0204212
Y010196
X0205212
X0206212
X0207212
X0208212
X0209212
X0210212
Y010096
X0211212
X0212212
Y009996
Y009896
X0209212Y010096
X0208212
X0207212
X0206212
X0205212
X02047Y00987
X02037
X02027
X02002121Y010096
X0198212
Y010196
Y010296
Y010396
Y010496
X01972119
Y010396
Y010296
Y010096
X01962125Y0100962
X0195212Y010096
X0194212
X0193212
X0192212
X0191212
Y010196
X0190212Y010096
X0189212
X0188212
X0187212
X0186212
Y010196
Y010296
Y010396
X0185212
X0184212
Y010496
X0183212
X0182212
Y010396
Y010296
X0183212
Y010396
Y010196
Y010096
Y009996
X0182212
Y009896
X0183212
X0184212
Y009996
Y010196
Y010296
X0185212
Y010196
Y010096
Y009896
X0186212
Y009996
X01912Y00998
X01922
X01937
X01947
X01962Y00998995
X01972Y00999
X0196395Y0106044
X019415Y010605
X0193212Y010396
X0191212Y010496
X0190212
X0189212Y010396
X020305Y010585
X020405
X02050032Y0111344
Y0112344
X02024632
Y0111344
X0208356Y01117344
X021255Y010585
X021355
X02173984Y0102184
X0196672Y011336
X01977388Y01220976
X01959Y0123
X01897632Y01371344
X01747008Y0134442
Y01338324
X01728048Y01338444
Y0134454
X01709008Y0134442
Y01338324
X01690008
Y0134442
X01665008
Y01338324
X01646008
Y0134442
X01626008
Y01338324
X01607008
Y0134442
X01534008
Y01338324
X01515008
Y0134442
X01496008
Y01338324
X01477008
Y0134442
X01451008
Y01338324
X01432008
Y0134442
X0141662Y01344412
X01410016
X0139762
X01391016
X01472334Y0123967
X01498954Y01239874
X01505354Y01239924
Y01260244
X01531974Y01260448
X0155209Y01260498
X0157871Y01260702
X01581Y0127753
Y01283981
X01570328Y01239874
X01543708Y0123967
X01531974Y01240128
X01568448Y01134616
X01594356Y0114376
X01600452
X01610612Y01132584
X01623312Y01133092
X01633472Y01150364
X01668965Y01153701
Y01143701
Y01133701
Y01123701
Y01113701
Y01103701
Y01093701
Y01083701
X0164414Y0108788
X01645156Y0109804
X01661987Y01108715
X01661412Y0113868
X01668965Y01163701
Y01173701
Y01183701
Y01193701
X01657856Y01185416
X01694873Y01188701
Y01178701
Y01168701
Y01158701
Y01148701
X01701036Y01135124
X01694873Y01128701
Y01118701
Y01098701
Y01088701
X01693924Y01078736
X01704084Y0109042
X01728976Y01086864
X01729992Y01080768
X01730246Y01093054
Y01103214
X01741481Y01103721
Y01093721
Y01083721
X01735072Y01061464
X0172542Y01056384
X01741252Y01046757
Y01036757
Y01026757
Y01016758
Y01006758
Y00996758
Y00986758
X01766652Y00991837
Y01001837
Y01011837
Y01021837
Y01031837
Y01041837
Y01051837
X01766881Y01088801
Y01098801
Y01108801
Y01118801
Y01128801
Y01138801
Y01148801
Y01158801
Y01168801
Y01178801
Y01188801
Y01198801
X01759602Y0121319
X01747772Y012098
X01728468Y01210816
X01723714Y01221382
X01707822Y0122181
Y0123705
X0173365Y01253894
X01759558Y0125491
X01759398Y0124881
X01775204Y01248321
Y01272364
X01771648Y01285492
X01759354Y01287626
X01747772Y0126822
X01742184Y01224532
X01741481Y01193721
Y01183721
Y01173721
Y01163721
Y01153721
Y01143721
Y01133721
Y01123721
Y01113721
X01729484Y0111836
X01731262Y01133186
Y01149442
X01730246Y01164682
Y01174842
X01702052Y01165604
X01703068Y0119329
X01694873Y01198701
X0177807Y01179726
Y01164486
X01694153Y01051837
Y01041837
Y01031837
Y01021837
Y01011837
Y01001837
Y00991837
X01668753Y00996758
Y00986758
Y01006758
Y01016758
Y01026757
Y01036757
Y01046757
X01680716Y01058416
X01713703Y01008124
X01723702
X01589276Y01032508
X01554732Y01041652
X0155016Y0105232
X01553208Y01014728
X01536952Y0101422
X01512568Y01015236
X01497328
X01485644Y0102692
X01549318Y01098318
X01369882Y00996
X01246524Y01
Y0099
X01225Y00985
Y00995
X01205
Y00985
X01195
X01185
X01175001
Y00995
X01185
X01195
Y01005
Y01015
X01195198Y01032254
Y0103835
X01215198
Y01032254
X01215Y01015
Y01005
X01235
Y01015
X01175001
Y01005
X01165001Y00995
Y00985
X01155
X01145
X01135
X01125
X01115
X01105
X01095
X01085
X01075
X01065
X01055
X01045
Y00995
X01055
X01065
X01075
X01085
X01095
X01105
X01115
X01125
X01135
X01145
X01155
Y01005
Y01015
X01155198Y01032254
Y0103835
X01135198
Y01032254
X01135Y01015
Y01005
X01115
Y01015
X01115198Y01032254
Y0103835
X01095198
Y01032254
X01095Y01015
Y01005
X01075
Y01015
X01075198Y01032254
Y0103835
X01055198
Y01032254
X01055Y01015
Y01005
X01025
Y00995
X01015922Y00994992
Y0098501
X01025Y00985
X01005
Y00995
X00995
X00985
Y00985
X00995
X01005Y01005
Y01015
X01004802Y01032254
Y0103835
X00984802
Y01032254
X00985Y01015
Y01005
X01025Y01015
X01175198Y01032254
Y0103835
X01094992Y01159508
X01098548Y01167636
Y0117424
X01107692Y01172716
X01102104Y01183435
Y01189378
X0109296Y01186432
X01081784Y01161032
X01086618Y01156198
X01071624Y01217078
X01052066Y01217079
X01031746Y01217078
X01011426Y01217079
Y01240622
X01031746
X01035388Y01254584
X01055708Y01254584
X01052066Y01240622
X01071624
X01089572Y01254584
X01089912Y0127584
X010828Y01271356
X01073656Y01278888
X0106248Y01271356
X01048256Y01275672
X0104216Y01271356
X01028276Y013114
X01037336Y01324356
X01065696Y01312416
X0107653Y01315632
X0108653
X01092708Y01326896
X01109216Y01300224
X01111308Y01289536
X01117344Y0125196
X01139188Y01318512
X01191512Y01313432
X0119964Y01304288
X0119075Y01294382
X0121107Y0128854
Y0127838
Y0126695
Y0125679
X0121488Y0124663
Y0123647
X01227072Y01226564
X01263354Y01256028
X01264854Y01274126
X01256854
Y01282126
X01264854
X01263648Y01300732
X0127076
X0128092Y01317496
X0128524Y0128524
X01286256Y01273302
X01276348Y01262632
X01277872Y01246202
X0122377Y0129997
Y0131013
X01311908Y01343912
X01327148Y01367788
X00987216Y01308352
X00993559Y0129235
X00934972Y01312426
X00908856Y01292904
X00909064Y01286508
X00879092Y0128939
X00868932Y01288882
X00867916Y01304288
X0086182Y01303428
X008542
X00848104Y01304288
X0085401Y0132264
X0086201
Y0133064
X0085401
X00835404Y0132918
X00834798Y0132283
X00835658Y01316734
X00839976Y0128812
X00829816Y01287778
Y01263568
X00839976Y01264068
X0083769Y0125171
X0084785Y01252052
X00857756Y0125171
X00867916Y01252052
X00868932Y0126483
X00878584Y0126433
X00901778Y0124417
X00928678Y01247344
X00932432Y01172208
X00941068Y011717
X0095072
X0092278
X00913128Y01171192
X00903476Y01170176
X00891792Y01170684
X00866269Y01177411
X00860542Y01181614
X00857756Y01228
X0084785
X0083769
X00867992Y01227478
X00888744Y01302256
X00885952Y01313688
X0088392Y0132334
X00880616Y01328672
X00873504Y01346452
X00865376Y01350262
X008509Y01350264
X00835912Y0135408
X00815604Y01343912
X00809
X00796604
X0079
X00777604
X00771
X00758604
X00752
X00733604
X00727
X00714604
X00708
X0069562
X00689016
X0067662
X00670016
X00602532
X00595928
X00885442Y0135535
X00983232Y01180844
X00982724Y01174748
X00964802Y0103835
Y01032254
X00965Y01015
Y01005
Y00995
Y00985
X00955
X00945
Y00995
Y01005
Y01015
X00944802Y01032254
Y0103835
X00924812Y01039366
X00924802Y01032254
X00925Y01015
Y01005
Y00995
X00935
Y00985
X00925
X00915
X00905
Y00995
Y01005
Y01015
X00904802Y01032254
Y0103835
X00884802
Y01032254
X00884999Y01015
Y01005
Y00995
X00874999
Y00985
X00884999
X00894999
Y00995
X00915
X00955
X00975
Y00985
X00865
X00855
X00845
X00835
Y00995
X00845
Y01005
Y01015
X00844802Y01032254
Y0103835
X00824802
Y01032254
X00823984Y01
X00805984Y0098827
X00855Y00995
X00865
Y01005
Y01015
X00864802Y01032254
Y0103835
X00676908Y01002808
X0062Y01
X0061
X006
X0059
Y0099
X006
Y0101
X0059
Y0102
X006
X0061
Y0101
X0062
Y0102
X0061Y01030001
X006
X0059
X0058
X0057
X0056
Y0102
Y0101
Y01
Y0099
X0057
Y01
Y0101
X0058
Y01
Y0099
Y0102
X0057
X0054
Y0101
Y01
Y0099
X0053
Y01
X0052
Y0099
X0051
Y01
Y0101
X0052
X0053
Y0102
X0052
X0051
X005
Y0101
Y01
Y0099
X0049
Y01
Y0101
Y0102
X0048
Y0101
Y01
Y0099
X0047
Y01
Y0101
Y0102
Y01030001
X0048
X0049
X005
X0051
X0052
X0053
X0054
X00550416Y0107899
Y0108915
Y0109931
Y0110947
Y0111963
Y0112979
X00516888Y01146634
Y01156794
X00525524Y01171018
X00494028Y01146634
X0049841Y0111982
X0050641
Y0111182
X0049841
X00499616Y010701
X00484916Y01081276
X0042756Y01004488
X00438482Y01180416
X00448482
X00397Y01171446
X00211074Y0117602
Y0115062
Y0112522
X00210312Y0109982
X00210312Y0120142
Y0122682
Y0125222
Y0127762
X00455928Y01343912
X00462532
X00474928
X00481532
X00494928
X00501532
X00513928
X00520532
X00538928
X00545532
X00557928
X00564532
X00576928
X00583532
X00182626Y0127762
Y0125222
Y0122682
Y0120142
X00182786Y0117602
X00183388Y0115062
Y0112522
X00182626Y0109982
X00052416
Y0112522
Y0115062
Y0117602
Y0120142
Y0122682
Y0125222
X00053698Y0127762
X00052416Y0130302
Y0107442
X00103632Y01006856
X00052416Y0141808
Y0144348
Y0146888
Y0149428
Y0151968
Y0154508
Y01569972
Y01595372
Y0162128
Y0164668
X001938Y01613406
X002041
X002036Y01588006
X001936
Y01562606
X002036
Y01537206
X001936
Y01511806
X002036
Y01486406
X001936
Y01461006
X002036
Y01435606
X001936
X00240456Y0140742
X00269064
X00321132Y01499288
Y01509288
X00346532
Y01499288
X00371932
Y01509288
X00367292Y01552152
Y01565152
Y01578152
Y01591152
Y01604152
Y01617152
X0039176Y01610652
Y01597652
Y01584652
Y01571652
Y01558652
Y01545652
X0033476
Y01558652
Y01571652
Y01584652
Y01597652
Y01610652
X00310292Y01617152
Y01604152
Y01591152
Y01578152
Y01565152
Y01552152
X00300552Y01631772
X00290552
X00264992Y01621612
X00254992
X00254992Y01641932
X00264992
X00278432Y01662992
X00279144Y01691384
X0026826Y01698974
X0024126
X002556Y01736694
X0027516Y01726534
X0028516
Y01751934
X0027516
X002336Y01746194
X002954Y01688734
X0033604Y0167462
X00335708Y01662152
X00322528Y01642976
X00365582Y01464838
Y01454838
X00455869Y01445
X00462829
X00475
X00482
X0049405
X0050105
X005131
X005201
X005385
X005455
X0055755
X0056455
X005766
X005836
X00570555Y01416883
X00551505
X00532455
X00526105
X00507055
X00488005
X00468955
X00449905
Y01481653
X00468955
X00488005
X00507055
X00526105
X00532455
X00551505
X00570555
X0051054Y0154408
X005207Y0156424
X00559052Y01776728
X00589605Y01481653
X00608655
X0060265Y01445
X0059565
X00589605Y01416883
X00608655
X00663265
X00682315
X00701365
X00720415
X00739465
X00745815
X00764865
X00783915
X00802965
X00822015
X0081601Y01445
X0080901
X0079696
X0078996
X0077791
X0077091
X0075886
X0075186
X0073346
X0072646
X0071441
X0070741
X0069536
X0068836
X0067631
X0066931
X00663265Y01481653
X00682315
X00701365
X00720415
X00739465
X00745815
X00764865
X00783915
X00802965
X00822015
X00839468Y01482088
X00876625Y01481653
X00895675
X00914725
X00933775
X00952825
X00959175
X00978225
X00971875Y01449757
X00965525
X00946475
X00940125
X00927425
X00921075
X00908375
X00902025
X00889325
X00882975
X00876625Y01416883
X00895675
X00914725
X00933775
X00952825
X00959175
X00978225
X00971875Y01384987
X00965525
X00946475
X00940125
X00927425
X00921075
X00908375
X00902025
X00889325
X00882975
X00984575
X00990925
X01003625
X01009975
X01022675
X01029025
X01035375Y01416883
X01016325
X00997275
X01003625Y01449757
X01009975
X01022675
X01029025
X00990925
X00984575
X00997275Y01481653
X01016325
X01035375
X01089985
X01109035
X01128085
X01147135
X01166766Y01482542
X01173116
X01191585Y01481653
X01210635
X01229685
X01248735
X01242385Y01449757
X01236035
X01223335
X01216985
X01204285
X01197935
X01185235
X01178885
X01159835
X01153485
X01147135Y01416883
X01128085
X01109035
X01089985
X01096008Y01446528
X01096335Y01384987
X01102685
X01115385
X01121735
X01134435
X01140785
X01153485
X01159835
X01178885
X01185235
X01197935
X01204285
X01216985
X01223335
X01236035
X01242385
X01257Y014
X01248735Y01416883
X01229685
X01210635
X01191585
X01173116Y01417772
X01166766
X0127076Y0142062
X0128092
X0129108
X0130124
X013114
X0134823Y0142443
Y0143205
Y0143967
Y0144602
Y0145364
Y0141427
X01378456Y01440432
X0128651Y0154408
X0129667Y0156424
X0145669
X0144653Y0154408
X01441702Y01480564
X01422652
X01403602
X01384552
X01391156Y01449576
Y01441448
X01410206
Y01449576
X01429256
Y01441448
X01448306
Y01449576
X014638Y01440432
X01473706Y01441448
Y01449576
X01492756
Y01441448
X01511806
Y01449576
X01530856
Y01441448
X01550668Y01440432
X01551068Y01417064
X01532018
X01512968
X01493918
X01474868
X01453132
X01434263Y01417445
X01415032Y01417064
X01395982
X01460752Y01480564
X01467102
X01486152
X01505202
X01524252
X01543302
X01597912Y01480764
X01616962
X01636012
X01655062
X01674112
X01680462
X01699512
X01718562
X01737612
X01756662
X01744216Y01449576
Y01441448
X01725166
Y01449576
X01706116
Y01441448
X01687066
Y01449576
X0167716Y01440432
X01661666Y01441448
Y01449576
X01642616
Y01441448
X01623566
Y01449576
X01604516
Y01441448
X01589276Y01440432
X01590292Y01417064
X01609342
X01628392
X01647623Y01417445
X01666492Y01417064
X01688228
X01707278
X01726328
X01745378
X01764428
X01764536Y01440432
X018067
X01817695Y01449757
X01824045
X01836745
X01843095
X01855795
X01862145
X01874845
X01881195
X0189052Y01440432
X01900245Y01449757
X01906595
X01919295
X01925645
X01938345
X01944695
X01957395
X01963745
X0197688Y01440432
X01970095Y01416883
X01951045
X01931995
X01912945
X01893895
X01887545
X01868495
X01849445
X01830395
X01811345
X01817695Y01384987
X01824045
X01836745
X01843095
X01855795
X01862145
X01874845
X01881195
X01900245
X01906595
X01919295
X01925645
X01938345
X01944695
X01957395
X01963745
X02031055
X02037405
X02050105
X02056455
X02069155
X02075505
X02088205
X02094555
X02113605
X02119955
X02132655
X02139005
X02151705
X02158055
X02170755
X02164405Y01416883
X02145355
X02126305
X02107255
X02100905
X02081855
X02062805
X02043755
X02024705
X02023108Y0144094
X02030728Y01446528
X02024705Y01481653
X02043755
X02062805
X02081855
X0208229Y01489962
X02101486Y01482542
X02107836
X02126305Y01481653
X02145355
X02164405
X02158055Y01449757
X02151705
X02139005
X02132655
X02119955
X02113605
X0210388Y01440432
X02094555Y01449757
X02088205
X02170755
X01970095Y01481653
X01951045
X01931995
X01912945
X01893895
X01887545
X01868495
X01849445
X01830395
X01811345
X01937764Y0154254
X0194132Y01551684
X01971292Y01574544
X01995168Y01577084
X0200482Y01569972
X02010916Y01549652
X01995676Y01534412
X01994101Y0152222
X0198196Y01614676
X0201752Y01607056
X01900172Y01638044
Y01660294
Y0167142
X01912112Y01671574
X01914906Y01678432
X01910334Y01653286
X01900172Y01704795
Y0171592
X01893568Y01739644
X02100832Y01726944
X02112008Y01737612
X02133852Y01726944
X02234716Y0172974
Y0172024
Y0173924
Y0176342
Y0177292
X02276324
Y0176342
Y0173924
Y0172974
Y0172024
X02275076Y01688336
X02282696Y0168366
Y0167716
Y0167066
X02275076Y01665484
Y01647696
X02282696Y0164302
Y0163652
Y0163002
X02275076Y01624844
Y01607056
X02282696Y0160238
Y0159588
Y0158938
X02275076Y01584204
X02321304Y0158938
Y0159588
Y0160238
X02329862Y01620438
X02321304Y0163002
Y0163652
Y0164302
X02320796Y0165684
X02321304Y0167066
Y0167716
Y0168366
X0234387Y01671962
X0235037
X0235687
X02351864Y0169232
X02394376Y0169232
X0238836Y01728468
X0241376
X0236296
X0233756
X024494Y01710978
Y01695738
Y01680498
Y01665258
X02466322Y0167036
X02494024Y01677068
Y01683568
Y01690068
Y01703068
Y01709568
X02549158Y0170936
X02556Y0171445
X025545Y017015
X0254838Y01603002
X0252298
X0249758
X02434Y01605024
X02424
X02417904Y0163144
X02440096
X0240237Y01573646
X0239587
X0238937
X0238287
X0237637
X0236987
X0236337
X0235687
X0235037
X0234387
X0223139Y0156424
X0222123Y0154408
X02183455Y01481653
X02177105Y01449757
X02198568Y0143332
X02183455Y01416883
X02177105Y01384987
X02294716Y01384044
Y01390394
Y01396744
Y01403094
Y01409444
Y01415794
Y01422144
Y01428494
Y01434844
Y01441194
Y01447544
Y01453894
X0228547Y01439
X02279019
X0225947Y01446
X02253019
X02253054Y01474
X02259506
X02278962Y014745
X02285414
X02385484Y01453894
Y01447544
Y01441194
Y01434844
Y01428494
Y01422144
Y01415794
Y01409444
Y01403094
Y01396744
Y01390394
Y01384044
X0241892Y01431144
X02457958Y0143129
X02459096Y01421008
X02451608Y0142113
X02452116Y01411224
X02459736Y01408176
X0246253Y0144018
X02475738Y01453134
X0247777Y01460246
X02503932Y01456182
X02512568Y0145542
X02523998Y01460115
X0253365Y01447038
X02546604Y01439926
X0255866Y01431408
X02542032Y01422146
X02542794Y01414272
X02542286Y01390904
X0256782Y01390396
X0250571Y0139192
X0250012Y0146888
X0251282Y0147396
X02519424Y01485136
X0253296Y01478984
X0255346Y01478984
Y01501176
X0253296
X0251264
X0249232
Y01478984
X02485136Y01519682
X0244658Y01507478
X0257378
X025736Y01501176
Y01478984
X02597656Y01478104
X02597658Y01500886
X0259918Y01507478
X02643376Y01521712
X0267375Y0152476
X02683Y01541016
X0267538Y0149428
X0266776
X02591308Y01443228
X0257366Y01431408
X02580676Y01390944
X02596132Y0139776
X0259918Y01603002
X0262458
X02641852Y01615184
X0267876Y0167635
Y0168905
X02751328Y01718818
X0257898Y01754884
X02973832Y0202184
X0298458Y02060596
X0299458
X03028Y02052
Y02037
X0303Y02023
X03027Y01991
X0294Y01996
X02955542Y020507
Y020607
X0292362Y02095628
X0293362Y02110612
X02937842Y0212555
X02941727Y02139024
X02933354Y02149024
X02918878Y02154024
X02918378Y0216365
X02918878Y02174024
X02933354Y02169024
X0295656Y02150872
X02911013Y02144024
X0291362Y02138258
X0291862Y0212429
X0288862Y02115917
X0286862
X0284862
X028404Y02120792
X028304
X02828886Y02139024
Y02149024
X02820513Y02144024
X0281246Y02141112
X0280246
Y02125872
X0281246
Y02110632
X0280246
Y02095392
X0281246
X028304Y02097128
X028404
X02857604Y0207332
Y0206332
X02797244Y02049954
Y02039954
X02750632Y0204292
Y0206324
Y0208356
Y0210388
Y021242
X02727128
X02720152Y0213436
X02696648
Y0216484
X02720152
X02727128Y0210388
X02727128Y0208356
X02727128Y0206324
Y0204292
X0271221Y0199974
X0266141Y02010222
X0265125
X0264109
X0263093
X0262077
X0261061
Y01986718
X0262077
X0263093
X0264109
X0265125
X0266141
X0262228Y01964
Y01934
X025918
X02591238Y0195402
X025918Y01964
X02584808Y0198188
X0258Y02045
Y02055
Y02065
X0259
X026
Y02075
Y02085
Y02095
X0259
Y02085
Y02075
X0258
Y02085
Y02095
Y02115
X0259
Y02125
Y02135
Y02145
Y02155
Y02165
X026
Y02155
Y02145
Y02135
Y02125
Y02115
X0262
Y02125
X0263
Y02135
X0264
X0265
Y02125
Y02115
X0264
Y02125
Y02145
Y02155
Y02165
X0265
Y02155
Y02145
X02661Y0215
X0263Y02145
Y02155
Y02165
X0262
Y02155
Y02145
Y02135
X0263Y02115
Y02095
X0264
Y02085
Y02075
X0265
Y02085
Y02095
X0262
Y02085
Y02075
Y02065
X0263
X0264
X0265
Y02055
Y02045
X0264
Y02055
X0263
Y02045
X0262
Y02055
X026
X0259
Y02045
X026
X0263Y02075
Y02085
X0258Y02125
Y02135
Y02155
Y02165
X0280246Y02171592
X0280238Y02156352
X02828886Y02174024
X02842854Y02169024
X0284362Y02146631
X02852Y02151
X0285362Y02138258
X0286362Y02146631
X0287362Y02138258
X02839464Y0186766
X027338
Y0185242
X02701202Y0186979
X02683Y01881884
X02655424Y0188028
X02658702Y0186979
Y0186329
Y0185679
X0264744Y01857784
X02639456Y0187028
X0264744Y01831817
X02652012Y01805684
X0263728Y0178094
X027211Y0189814
X0256132Y01934
Y01964
X0253084
X0252036Y01955692
X0251036
Y01940452
X0252036
X0253084Y01934
X0252036Y01904892
X0251036
X0251036Y01889652
X0252036
X0249154Y01856552
Y01833048
X025055Y0184
X024955Y01813
X02501644Y01782316
X02451352Y01850896
Y01863596
X02403724Y01839976
X0241376Y01818892
X0238836
X0236296
X0233756
X0231216
X02276324Y0182306
Y0181356
Y0180406
Y0178242
X02234716
Y0180406
Y0181356
Y0182306
X02278124Y018398
Y018498
X0227652Y01889504
X0226652
X0226652Y01904744
X0227652
X02287Y01934
Y01964
X0227652Y01955544
X0226652Y01975864
Y01991104
X0227652
X0228676Y01988632
X02290572Y0199644
X0226652Y02006344
Y02021584
X0227652
Y02036824
X0226644Y02036316
X0226652Y02052064
X0227652
X0228219Y02071878
X0226602Y02067304
X02222244Y0207332
X02224784Y0209888
Y0210888
X0224104Y02148156
X0225694Y0214876
X0226644
X0227594
X02286Y0212598
X0230625Y02145
X0233
Y02135
Y02125
X0234
X0235
Y02115
X0234
X0233
Y02095
Y02085
Y02075
X0234
Y02065
X0235
Y02055
X0236
X0237
Y02045
X0236
X0234518Y02042412
Y02035808
X0234Y02055
X0233
Y02045
X02318764Y02036824
X02306Y02055
X02305048Y02097276
X0234Y02095
Y02085
X0235
Y02075
X0236
Y02085
X0237
Y02075
Y02065
X0236
Y02095
X0235
X0237
X0239
X024
X0241
X0242
Y02085
Y02075
Y02065
Y02055
X0241
Y02045
X024
X0239
Y02055
X024
Y02065
Y02075
Y02085
X0241
Y02075
Y02065
X0239
Y02075
Y02085
Y02115
X024
X0241
X0242
Y02125
Y02135
X0241
Y02125
X024
Y02135
X0239
Y02125
Y02145
X024
X0241
X0242
Y02155
X0241
Y02165
X024
X0239
Y02155
X024
X0242Y02165
X0243125Y0215
X02451538Y02141472
X02451538Y02161792
X02475042
X02482636Y0217076
X0249062Y02156744
X0250012Y02162776
X0250962Y02156744
X0251528Y02137264
X0250012Y02140775
X02475042Y02141472
X0245948Y02110552
Y02087048
X0246456Y02059752
Y02036248
X0251036Y02036972
X0252036
Y02052212
X0251036
Y02067452
X0252036
X02536Y02055
X0256Y02055
Y02045
X0257
Y02055
Y02065
Y02075
Y02085
Y02095
X0256
Y02085
Y02075
Y02065
Y02115
X0257
Y02125
Y02135
Y02145
Y02155
Y02165
X0256Y02155
Y02145
Y02125
X02536Y02145
X0254862Y0217025
X0252036Y02021732
X0251036
Y02006492
X0252036
Y01991252
X0251036
Y01976012
X0252036
X02435604Y01920492
X0237844Y01934
X02348976Y0193376
Y0196376
X0234772Y01988632
X02340343Y01983748
X0231724Y01988632
X0231748Y01964
X02317748Y01945384
X0231748Y01934
X02316224Y01906776
X02333496Y01917444
X0237844Y01964
X023782Y01988632
X0242Y02045
X0237Y02115
X0236
Y02125
X0237
Y02135
X0236
X0235
X0234
Y02145
Y02155
X0233
X0235
Y02145
X0236
X0237
Y02155
X0236
Y02165
X0235
X0234
X0231875Y0217025
X0237Y02165
X0224104Y02171364
X02191256Y02077464
X0218516Y02065272
X0219278Y0205054
X02255772Y01939288
X02108452Y01882392
X02113532Y01852928
X0037152Y01863694
X0036152
X0036144Y01888078
X00372108
X00342269Y0187782
Y0182692
X0036152Y01838294
X0037152
Y01812894
X0036152
X00303051Y0180162
Y0185252
X00257269Y0187782
Y0182692
X00218051Y0180162
X00195244Y01794918
Y01820318
Y01845718
Y01871118
X00218051Y0185252
X00225534Y0194386
Y0196926
X00240434Y02003398
X00267054Y02003194
X00267494Y02033
Y02063
X00299066Y0206258
Y0204358
X00342534Y0205308
Y0211404
X00299066Y0212354
Y0210454
X00264954Y0210412
X0026238Y0209372
X0022174
X00224314Y0210412
Y0213412
X002192Y0216484
X0025984
X00264954Y0213412
X00226854Y02063
Y02033
X00322054Y0196926
Y0194386
X00129014
Y0196926
X00145574Y02033
Y02063
X0014046Y0209372
X00145574Y0210412
Y0213412
X0014046Y0216484
X0017856
X00183674Y0213412
Y0210412
X001811Y0209372
X00186214Y02063
Y02033
X00185244Y01871118
X00169549Y0187782
X00185244Y01845718
Y01820318
X00169549Y0182692
X00185244Y01794918
X00130331Y0180162
Y0185252
X00084549Y0187782
Y0182692
X00045331Y0180162
Y0185252
X00138936Y0218516
X00145574Y0220064
Y0223064
X00141224Y02261442
X00186214Y0223064
X00226854
Y0220064
X00267494
Y0223064
X00299066Y0223662
Y0225562
X00299066Y02293897
Y02312897
X00290828Y02353612
Y02363112
Y02372612
X00229692Y02362728
X00217676Y02268472
X00342534Y0224612
X00342534Y02303397
X00342358Y0218516
X00299066Y0219466
Y0217566
X0051562Y0220226
X00525272Y0222242
X0130048Y0222369
X0129032Y0220353
X014478Y022048
X0145796Y0222496
X022352Y0221988
X0225694Y0222496
X0226644
X0227594
Y0219108
X0226644
X0225694
X0222504Y0219972
X0226644Y0226728
X02283712Y02280584
X02283204Y0230716
Y0231716
X02348944Y0233232
X02374344
X02399744
X02450384Y0231216
X02460544Y0228676
X0248615Y02280088
X0250774Y02280088
Y02303592
X0248615
X02485388Y02313616
Y0233712
X024925Y02260025
Y02238024
X02502Y02244056
X02483
Y02222056
X02502
X0250962Y02178745
X0256652Y02199384
X02570048Y02224022
X0256997Y02247518
X02410204Y0224701
X02389884
X02389962Y0222326
X02410282
X0241348Y02199384
X0240652
X0239348
X0238652
X0236348
X0235652
X0234348
X0233652
X02340178Y0222326
X02360498
X0236042Y0224701
X023401Y02246502
X02326336Y0227152
X02356816
X02424984
X0237Y02175
X0257348Y02199384
X0258652
X0259348
X0261652
X0262348
X0263652
X0264348
X0264066Y0222453
X0262034Y02224022
X02620008Y02247518
X02640582
X02653584Y0226644
X02681524Y02265678
X0270078Y02273112
Y02249608
X0271856Y0224322
X02716968Y02302
X02817621Y0230366
X02834641Y02301335
X02869864Y0228668
X02869944Y0226644
X02893312Y02247136
X0289362Y02228758
X0290362Y02237131
X0291362Y02228758
X0291862Y0221479
X0290862Y02206417
X0289862Y0221479
X0287862
X02866976Y02214116
X0285862Y0221479
X0284862Y02206417
X02842854Y02209024
X02851227Y02199024
X02828886Y02194024
X02820513Y02204024
X0281262Y0221318
X02828886Y02214024
X02834892Y02229864
X0285362Y02228758
X0286362Y02229864
X0288362Y02237131
X0292295Y02242898
X02924556Y0227965
X02918006Y02291921
X029432Y02278736
X02938842Y02219653
X02941187Y022131
X02933354Y02209024
Y02189024
X02940304Y0219456
X02941727Y02179024
X02911013Y02184024
X02964044Y021929
X02956372Y0222707
X02966972Y02234436
X0282778Y0224612
X0281246Y02186832
X0280246
X02757676Y02203956
X02755644Y02212084
X02590368Y02224022
X0259029Y02247518
X02595576Y0226644
X0257394Y02260136
X0258648Y02343704
X0260172
X0261696
X026322
X026Y02175
X02971904Y02221736
X02987144
X0297244Y02240532
Y02282348
X03024376Y02238314
X03024632Y02208784
X02994659Y02361826
T02
X00625Y0175
X00675
X00725
X00775
X00825
X00875
X00925
X00975
X01025
X01075
X01125
X01175
X01225
X01275
X01325
X01375
X01425
X01475
X01525
X01575
X01625
X01675
X01725
X01775
X018Y019
X0185Y0195
X019Y019
X0195Y0195
X02Y019
Y021
X019
X018
X0185Y0215
X0195
X0175
X0165
X0155
X0145
X014Y021
X015
X016
X017
X0165Y0195
X0155
X0145
X014Y019
X015
X016
X017
X0175Y0195
X0135
X0125
X013Y019
X012
X011
X01
X0105Y0195
X0115
X011Y021
X01
X0105Y0215
X0115
X0125
X013Y021
X0135Y0215
X012Y021
X009
X008
X007
X006
X0065Y0215
X0075
X0085
X0095
Y0195
X0085
X0075
X0065
X006Y019
X007
X008
X009
X005
X0045Y0195
X0055
X005Y021
X0045Y0215
X0055
X005Y0235
X004
X0035Y024
X0045
X0055
X0065
X0075
X0085
X0095
X009Y0235
X008
X007
X006
X01
X011
X012
X0115Y024
X0125
X0135
X013Y0235
X0105Y024
X0145
X0155
X0165
X0175
X017Y0235
X016
X015
X018
X019
X02
X0195Y024
X0205
X0215
X021Y0235
X0185Y024
X022Y0235
T03
X0259826Y005815
X0261026
X006052Y0050868
Y0049868
X005952
Y0050868
X022706Y0079994
X022826
Y0081194
X022706
X0259826Y005935
X0261026
X0251212Y0130448
X0250012
X0248812
Y0131648
Y0132848
X0250012
Y0131648
X0251212
Y0132848
X01157792Y0129546
X01145792
X01133792
Y0128346
X01145792
X01157792
Y0127146
X01145792
X01133792
X00953576Y01267904
Y01279904
Y01291904
X00941576
X00929576
Y01279904
X00941576
Y01267904
X00929576
X0249412Y01407508
Y01419508
X0250612
Y01407508
X0286312Y02158524
X0287512
Y02170524
X0286312
X0288712
Y02158524
X0289912
Y02170524
Y02182524
Y02194524
X0288712
Y02182524
X0287512
X0286312
Y02194524
X0287512
T04
X01878838Y00376172
X017178Y0054178
X0165557
X01588514Y00523492
X01446274
X0073863Y0041859
X0073609Y0032715
X0017856Y0083896
X0021285Y007272
Y007145
X002159Y006731
X0032969Y0072466
X0126492Y0096139
X0165176Y0085928
X01652268Y00794764
X0169621Y0060528
X0174193
X02538222Y006223
X02555Y00851
X0226136Y0091516
X0180924Y0125806
X0147142Y0102565
X005748Y0106502
X0049098
X02348Y01556
X0236
X02372
X0240741Y0168224
X024384Y019558
X0245618
Y0197358
X024384
X02435Y0206324
Y0208356
Y0210388
Y021242
X0253949Y0217119
X0246202Y022512
X0232232
X0265633Y022004
T05
X0060611Y000641
Y000841
Y001041
Y001241
X0063711
Y001041
Y000841
Y000641
X0066811
Y000841
Y001041
Y001241
X0071881Y001095
X0074421
X0076961
X0079501
X0082041
X0084581
X0087121
X0089661
X0092201
X0094741
X0097281
X0096271Y00092
X0098301
X0095756Y00067
X0093726
X0094741Y000495
X0097281
X0096271Y00032
X0098301
X0093221
X0091191
X0092201Y000495
X0089661
X0087121
X0084581
X0082041
X0079501
X0076961
X0074421
X0071881
X0070871Y00032
X0072901
X0075951
X0077981
X0081031
X0083061
X0086111
X0088141
X0088646Y00067
X0090676
X0091191Y00092
X0093221
X0093726Y00127
X0095756
X0090676
X0088646
X0085596
X0083566
X0080516
X0078486
X0075436
X0073406
X0072901Y00092
X0070871
X0073406Y00067
X0075436
X0075951Y00092
X0077981
X0078486Y00067
X0080516
X0081031Y00092
X0083061
X0083566Y00067
X0085596
X0086111Y00092
X0088141
X0098806Y00067
X0100836
X0099821Y000495
X0102361
X0104901
X0107441
X0109981
X0112521
X0115061
X0117601
X0120141
X0119126Y00067
X0121156
X0118621Y00092
X0116591
X0117601Y001095
X0120141
X0119126Y00127
X0121156
X0116076
X0114046
X0115061Y001095
X0112521
X0109981
X0107441
X0104901
X0102361
X0099821
X0098806Y00127
X0100836
X0103886
X0105916
X0108966
X0110996
X0111511Y00092
X0113541
X0114046Y00067
X0116076
X0116591Y00032
X0118621
X0113541
X0111511
X0108461
X0106431
X0103381
X0101351
Y00092
X0103381
X0103886Y00067
X0105916
X0106431Y00092
X0108461
X0108966Y00067
X0110996
X0126716Y000641
Y000841
Y001041
Y001241
X0129816
Y001041
Y000841
Y000641
X0132916
Y000841
Y001041
Y001241
X0150146
Y001041
Y000841
Y000641
X0153246
Y000841
Y001041
Y001241
X0156346
Y001041
Y000841
Y000641
X0161416Y000495
X0163956
X0166496
X0169036
X0171576
X0174116
X0176656
X0175646Y00032
X0177676
X0172596
X0170566
X0167516
X0165486
X0162436
X0160406
Y00092
X0162436
X0161416Y001095
X0163956
X0166496
X0169036
X0171576
X0174116
X0176656
X0175646Y00092
X0177676
X0175131Y00067
X0173101
X0172596Y00092
X0170566
X0170051Y00067
X0168021
X0167516Y00092
X0165486
X0164971Y00067
X0162941
Y00127
X0164971
X0168021
X0170051
X0173101
X0175131
X0178181
X0180211
X0179196Y001095
X0181736
X0184276
X0186816
X0189356
X0191896
X0194436
X0196976
X0199516
X0202056
X0204596
X0207136
X0209676
X0208661Y00127
X0210691
X0205611
X0203581
X0200531
X0198501
X0195451
X0193421
X0190371
X0188341
X0185291
X0183261
X0182756Y00092
X0180726
X0180211Y00067
X0178181
X0179196Y000495
X0181736
X0184276
X0186816
X0189356
X0191896
X0194436
X0196976
X0199516
X0202056
X0204596
X0207136
X0209676
X0208661Y00067
X0210691
X0208156Y00092
X0206126
X0205611Y00067
X0203581
X0203076Y00092
X0201046
X0200531Y00067
X0198501
X0197996Y00092
X0195966
X0195451Y00067
X0193421
X0192916Y00092
X0190886
X0190371Y00067
X0188341
X0187836Y00092
X0185806
X0185291Y00067
X0183261
X0182756Y00032
X0180726
X0185806
X0187836
X0190886
X0192916
X0195966
X0197996
X0201046
X0203076
X0206126
X0208156
X0216251Y000641
Y000841
Y001041
Y001241
X0219351
Y001041
Y000841
Y000641
X0222451
Y000841
Y001041
Y001241
T06
X0023576Y0015252
Y0017252
X0025476Y0018252
Y0016252
X0027376Y0015252
Y0017252
X0029276Y0016252
Y0018252
Y0020252
Y0022252
Y0024252
Y0026252
Y0028252
Y0030252
Y0032252
Y0034252
Y0036252
Y0038252
Y0040252
Y0042252
Y0044252
Y0046252
Y0048252
Y0050252
Y0052252
Y0054252
Y0056252
Y0058252
X0027376Y0057252
Y0055252
Y0053252
Y0051252
Y0049252
Y0047252
Y0045252
Y0043252
Y0041252
Y0039252
Y0037252
Y0035252
Y0033252
Y0031252
Y0029252
Y0027252
Y0025252
Y0023252
Y0021252
Y0019252
X0025476Y0020252
Y0022252
Y0024252
Y0026252
Y0028252
Y0030252
Y0032252
Y0034252
Y0036252
Y0038252
Y0040252
Y0042252
Y0044252
Y0046252
Y0048252
Y0050252
Y0052252
Y0054252
Y0056252
Y0058252
X0023576Y0057252
Y0055252
Y0053252
Y0051252
Y0049252
Y0047252
Y0045252
Y0043252
Y0041252
Y0039252
Y0037252
Y0035252
Y0033252
Y0031252
Y0029252
Y0027252
Y0025252
Y0023252
Y0021252
Y0019252
Y0059252
Y0061252
Y0063252
Y0065252
Y0067252
Y0069252
Y0071252
Y0073252
Y0075252
Y0077252
Y0079252
Y0081252
Y0083252
Y0085252
X0025476Y0086252
Y0084252
Y0082252
Y0080252
Y0078252
Y0076252
Y0074252
Y0072252
Y0070252
Y0068252
Y0066252
Y0064252
Y0062252
Y0060252
X0027376Y0061252
Y0059252
X0029276Y0060252
Y0062252
Y0064252
Y0066252
Y0068252
Y0070252
Y0072252
Y0074252
Y0076252
Y0078252
Y0080252
Y0082252
Y0084252
Y0086252
X0027376Y0085252
Y0083252
Y0081252
Y0079252
Y0077252
Y0075252
Y0073252
Y0071252
Y0069252
Y0067252
Y0065252
Y0063252
Y0091252
Y0093252
Y0095252
Y0097252
X0025476Y0096252
Y0094252
Y0092252
X0023576Y0093252
Y0095252
Y0097252
X0025476Y0098252
X0029276
Y0096252
Y0094252
Y0092252
X0023576Y0091252
Y0099252
Y0101252
Y0103252
Y0105252
Y0107252
Y0109252
Y0111252
Y0113252
Y0115252
Y0117252
Y0119252
Y0121252
Y0123252
Y0125252
Y0127252
Y0129252
Y0131252
Y0133252
Y0135252
Y0137252
X0025476Y0136252
Y0134252
Y0132252
Y0130252
Y0128252
Y0126252
Y0124252
Y0122252
Y0120252
Y0118252
Y0116252
Y0114252
Y0112252
Y0110252
Y0108252
Y0106252
Y0104252
Y0102252
Y0100252
X0027376Y0099252
Y0101252
Y0103252
Y0105252
Y0107252
Y0109252
Y0111252
Y0113252
Y0115252
Y0117252
Y0119252
Y0121252
Y0123252
Y0125252
Y0127252
Y0129252
Y0131252
Y0133252
Y0135252
Y0137252
X0029276Y0136252
Y0134252
Y0132252
Y0130252
Y0128252
Y0126252
Y0124252
Y0122252
Y0120252
Y0118252
Y0116252
Y0114252
Y0112252
Y0110252
Y0108252
Y0106252
Y0104252
Y0102252
Y0100252
Y0138252
X0025476
T07
X0227838Y00069596
T08
X0274582Y0234884
X0275982
X0277382
X0278782
T10
X023401Y01345944
Y01371344
Y01396744
Y01422144
Y01447544
T11
X0264998Y0003776
X0273126
X028608Y0009026
Y0016526
X027338Y0021776
X0265252
X0255976Y0228422
X0254706Y0230962
X02418028
X02392628
X02367228
X02341828
X02316428
X02329128Y0228422
X02354528
X02379928
X02405328
X02430728
X0258516
X0261056
X0263596
X0266136
X0264866Y0230962
X0262326
X0259786
X0257246
T12
X0289326Y0233442
Y0235442
X0291826
Y0233442
T13
X0020142Y0017348
X00547876Y00147572
X0263236Y002484
X02683Y0022682
X02673Y0035
X02743Y0034635
X0274508Y0053
X0272508
X0270508
Y0055
X0272508
X0274508
X0268508
Y0053
X0266508
Y0055
X02530092Y00528064
X02502152
X0222843Y0023571
X0210246Y0022204
X0196164Y0058496
X0190068
X01683518Y0039192
X01684018Y0034112
X0161762Y0022204
Y0019604
X015719
X01570884Y00221232
X0130251Y0025485
X0122362Y0022204
X0125679Y0047828
X01291588Y0048844
Y0051384
X0125679Y0052908
X0119329Y005113
Y004859
X0114757
Y005113
X0110185
Y004859
X0105359Y0047828
Y0052908
X0100025Y005113
Y004859
X01333219Y00584655
X01358619
X0095453Y005113
Y004859
X0090881
Y005113
X0086309
Y004859
X00776252Y00508277
Y00533677
X0075626Y0023778
X00737002Y00237534
Y00211534
X0075626Y0021078
X0068798Y0021128
Y0023728
X0019008Y0086944
X0015325
X00116166Y00851952
X00088734
X0015307Y0092532
X001899
X00399448Y00891388
X00425448
X0037795Y0085801
X0037845Y0080848
X0036915Y007145
X0034239
X0034248Y0065354
X0036906
X0037042Y0059258
X0034248
X0053797Y0063068
X0053924Y0065735
X0056972Y0067259
X0061925Y0070053
X0061544Y0063068
X0072466Y0062687
X0075006
X0076276Y0060646
X0071196
X0072466Y0067767
X0075006
Y0072847
X0072466
X0071196Y0078698
X0076276
X007399Y0086055
X007145
Y0091135
X007399
Y0096215
X007145
X0130124Y0097993
X0135204Y0098002
X0133934Y0092532
X0131394
Y0087452
X0133934
Y0081864
X0131394
X01302Y0076441
X0135407Y00764
X0135966Y0072771
X0133426
Y0068199
X0135966
Y0063627
X0133426
X0153166Y0074856
X0158144Y0072466
X0160778Y0073609
X0163478Y0073736
Y008288
X0160778
X0184988Y006764
X0187528Y0066878
X0190068
X01921Y0068148
X019464
X019718
Y0064084
X019464
X01921
X0190068Y0062306
X0187528
X0184988Y0061544
X0200736
X0203784Y0063322
X0206324Y0061544
X020988
Y006764
X0206324
X0203784Y0067894
X0200736Y006764
X02417316Y0079705
X02445256
X0268046Y0078689
X0270713
X0273126Y0083261
X028227Y0082626
X0281Y008542
Y0087452
Y0089484
X02706876Y00912112
X0265506Y0094437
X0265252Y0098374
X026322
X0259791Y009431
X02752596Y006899
X0289382Y0071958
X029116
X0290271Y008288
X0263474Y0105486
X0263728Y0107518
X02643884Y0125044
X02579Y0125
X0273428Y0136474
X0275968
X0278508
X0281048
X0283588
X02569Y01323
X0255727Y0125044
X0245694Y0135204
X0229438Y0114757
Y0111963
X0214452Y0113106
Y0108534
X0211404Y0108788
X0207848
Y0114884
X0211404
X0192608Y0114757
Y0108788
X0186512Y0108534
X0183464Y0108788
Y0114884
X0186512Y0113106
X0188163Y0132918
Y0135458
X0197053
Y0132918
X0209499
Y0135458
X0214579
Y0132918
X01341118Y01336038
Y01361438
X01297938Y01358898
Y01333498
X01251202Y0133426
Y0135966
X01183892Y0136347
Y0133553
X01107692
Y0136347
X01045462Y01362962
X01044192Y01337562
X00999234Y0133807
Y0136347
X01002536Y01172208
X01010202Y01137918
X0099233Y0113741
X00992254Y0108661
X01010837
X0105232Y01172208
X01128774Y01200164
X01130044Y01231644
X01188972Y01230628
X01190242Y01199148
X00969516Y01198116
Y0123012
X00911096
X0091008Y01198116
X0090119Y01331466
X00899008Y0135966
X00979676Y01359444
Y01332774
X00755648Y01005584
X00704848
X00036574Y01568702
X0021666Y0168605
X0270332Y01661412
X026949Y01596896
X027084Y0147142
Y014511
X0274396Y0147904
X0273428Y0139014
X0275968
X0278508
X0281048
X0283588
X0264236Y0143332
X0262458Y01432812
X0278714Y0170764
X0296748
Y0174828
X0298272Y0168224
X0301828Y0190402
X02896868Y02015488
X0283286Y02076956
X0275412Y0215214
X02678428Y021115
Y020861
X0272872Y0192608
X0274904
X026576Y01787008
X025687Y0202006
X025433
X02458972Y02023108
X02411936Y02000322
X02326892Y0202006
X02301492
X0022428Y0228041
X0224358Y0220548
X02322828Y02210052
X0232232Y0223596
X02430524Y02231388
Y02205988
X0248488Y02188088
X02551936Y02213354
X0255092Y02240532
X02669284Y0223342
Y0220802
X0276682Y0228168
X027973Y0227279
T15
X02307328Y0241372
X02332728
X02414528
X02439928
X0253796
X0256336
X0264516
X0267056
T16
X0219532Y0042748
X0222072
X0224612
X0233756
X0236296
X0238836
X024798
X025052
X025306
X0155524Y00397
X0152984
X0150444
X0300812Y0067386
Y0069926
X0300482Y0171196
Y0173736
T17
X0297764Y0025984
X0300304
Y0043764
X0277444
Y0041224
Y0033604
Y0031064
X0282524Y0025984
X0285064
X0287604
X0290144
X0292684
X0295224
X0277444Y0051384
Y0053924
Y0061544
X0279984
X0290144
X0292684
X0295224
X028608Y009431
X0282905
X027973
X0276555
X027338
Y0097485
X0297764Y0061544
X0300304
X027338Y010066
Y010701
Y0110185
Y011336
Y0116535
Y0122885
Y012606
X028608
X027973Y0146888
Y0150063
Y0153238
Y0156413
Y0159588
Y0162763
X0282905
X029243
X0295605
Y0146888
X029878
X0297764Y0182448
Y0185623
Y0195148
X0294589
X0285064
X0278714
Y0191973
Y0188798
Y0185623
Y0182448
X0294589
T18
X0293998Y0092292
Y0096492
X0299498
Y0092292
Y0100692
Y0104892
Y0109092
Y0113292
Y0117492
Y0121692
Y0125892
Y0130092
Y0134292
X0293998
Y0130092
Y0125892
Y0121692
Y0117492
Y0113292
Y0109092
Y0104892
Y0100692
Y0138492
X0299498
T19
X0059004Y0025476
X0045796
X00524Y0038176
T20
X02295878Y0234262
X02451378
X0252651
X0268201
T21
X0061544Y0022936
Y0028016
X0056464
Y0022936
X0048336
Y0028016
X0043256
Y0022936
X004986Y0035636
X005494
Y0040716
X004986
T23
X0284556Y0238152
X0296596
T24
X0026426Y0007752
Y0145792
T25
X001651Y000635
X014097
X029845
X001651Y007874
X014097
X029845
X0046222Y0156432
X0123602
X0139694
X0217074
X029845Y021082
X001651Y023368
X0046222Y0222402
X0123602
X0139694
X014097Y023368
X0217074Y0222402
T26
X00435481Y0145237
X01262251
X01370201
X02196971
T27
X023401Y01282444
T28
X0299038Y0087592
T29
X00781Y009051
X01289Y007071
T30
X02316478Y0237312
X02430778
X0254711
X0266141
M30
