%FSLAX25Y25*%
%MOIN*%
G70*
G01*
G75*
G04 Layer_Physical_Order=7*
G04 Layer_Color=32768*
%ADD10C,0.00500*%
%ADD11C,0.00500*%
G04:AMPARAMS|DCode=12|XSize=19.69mil|YSize=23.62mil|CornerRadius=4.92mil|HoleSize=0mil|Usage=FLASHONLY|Rotation=270.000|XOffset=0mil|YOffset=0mil|HoleType=Round|Shape=RoundedRectangle|*
%AMROUNDEDRECTD12*
21,1,0.01969,0.01378,0,0,270.0*
21,1,0.00984,0.02362,0,0,270.0*
1,1,0.00984,-0.00689,-0.00492*
1,1,0.00984,-0.00689,0.00492*
1,1,0.00984,0.00689,0.00492*
1,1,0.00984,0.00689,-0.00492*
%
%ADD12ROUNDEDRECTD12*%
%ADD13R,0.02362X0.02362*%
%ADD14R,0.09449X0.10827*%
%ADD15R,0.02362X0.02362*%
%ADD16R,0.02756X0.03937*%
%ADD17R,0.03347X0.01378*%
%ADD18C,0.03937*%
%ADD19C,0.01969*%
%ADD20R,0.02362X0.08858*%
%ADD21R,0.06299X0.01772*%
%ADD22R,0.03347X0.01969*%
%ADD23R,0.04331X0.10236*%
G04:AMPARAMS|DCode=24|XSize=19.69mil|YSize=23.62mil|CornerRadius=4.92mil|HoleSize=0mil|Usage=FLASHONLY|Rotation=180.000|XOffset=0mil|YOffset=0mil|HoleType=Round|Shape=RoundedRectangle|*
%AMROUNDEDRECTD24*
21,1,0.01969,0.01378,0,0,180.0*
21,1,0.00984,0.02362,0,0,180.0*
1,1,0.00984,-0.00492,0.00689*
1,1,0.00984,0.00492,0.00689*
1,1,0.00984,0.00492,-0.00689*
1,1,0.00984,-0.00492,-0.00689*
%
%ADD24ROUNDEDRECTD24*%
%ADD25R,0.03740X0.07874*%
%ADD26R,0.06299X0.07362*%
%ADD27R,0.05906X0.04331*%
%ADD28R,0.05906X0.06496*%
%ADD29R,0.06102X0.16417*%
%ADD30R,0.06102X0.08661*%
%ADD31R,0.04724X0.07677*%
%ADD32R,0.08268X0.12598*%
%ADD33R,0.07087X0.04528*%
%ADD34O,0.06102X0.00984*%
%ADD35O,0.00984X0.06102*%
%ADD36R,0.20000X0.05000*%
%ADD37R,0.03937X0.07087*%
%ADD38R,0.14488X0.05000*%
%ADD39R,0.05000X0.01693*%
%ADD40C,0.01772*%
%ADD41R,0.05000X0.14488*%
%ADD42R,0.10236X0.04331*%
%ADD43R,0.05512X0.03937*%
%ADD44R,0.04331X0.05512*%
%ADD45R,0.01181X0.06496*%
%ADD46R,0.08661X0.05709*%
%ADD47R,0.10827X0.09449*%
%ADD48R,0.03937X0.02756*%
%ADD49R,0.05709X0.08661*%
%ADD50R,0.07874X0.04331*%
%ADD51R,0.04331X0.05315*%
%ADD52R,0.15748X0.05906*%
%ADD53R,0.05906X0.15748*%
%ADD54R,0.05315X0.04331*%
%ADD55R,0.06693X0.01378*%
%ADD56R,0.05512X0.04724*%
%ADD57R,0.02165X0.00787*%
%ADD58R,0.05512X0.04331*%
%ADD59R,0.03150X0.03150*%
%ADD60R,0.05118X0.02362*%
%ADD61R,0.05118X0.03937*%
%ADD62R,0.04528X0.06693*%
%ADD63O,0.08071X0.02362*%
%ADD64R,0.06890X0.01181*%
%ADD65R,0.25394X0.07874*%
%ADD66R,0.07874X0.25394*%
%ADD67R,0.07087X0.03937*%
%ADD68R,0.06693X0.04528*%
%ADD69R,0.03347X0.03150*%
%ADD70R,0.13976X0.12598*%
%ADD71R,0.12598X0.13976*%
%ADD72R,0.27953X0.11024*%
%ADD73R,0.07047X0.05000*%
%ADD74R,0.12500X0.07008*%
%ADD75R,0.07087X0.02362*%
%ADD76R,0.06496X0.01181*%
%ADD77R,0.01378X0.07087*%
%ADD78R,0.01772X0.06299*%
%ADD79R,0.01772X0.07087*%
%ADD80R,0.01378X0.06102*%
%ADD81R,0.01378X0.03347*%
%ADD82R,0.07087X0.07087*%
%ADD83R,0.07087X0.07087*%
%ADD84R,0.07087X0.07874*%
%ADD85R,0.07874X0.07087*%
%ADD86R,0.03937X0.05512*%
%ADD87R,0.80000X0.15000*%
%ADD88R,0.01654X0.04803*%
%ADD89R,0.01600X0.08500*%
%ADD90R,0.71000X0.02000*%
%ADD91R,0.15590X0.15590*%
%ADD92R,0.03740X0.01378*%
%ADD93R,0.01378X0.03740*%
%ADD94R,0.12992X0.12992*%
%ADD95R,0.12992X0.12992*%
%ADD96R,0.01102X0.03347*%
%ADD97R,0.03347X0.01102*%
%ADD98R,0.11811X0.11811*%
%ADD99R,0.17716X0.17716*%
%ADD100R,0.03150X0.01181*%
%ADD101R,0.01181X0.03150*%
%ADD102R,0.11811X0.11811*%
%ADD103R,0.06181X0.07402*%
%ADD104R,0.03740X0.01181*%
%ADD105R,0.01181X0.03740*%
%ADD106R,0.05512X0.05512*%
%ADD107R,0.05512X0.01575*%
%ADD108R,0.03150X0.01102*%
%ADD109R,0.01102X0.03150*%
%ADD110R,0.06299X0.06299*%
%ADD111R,0.06299X0.06299*%
%ADD112C,0.01200*%
%ADD113C,0.01000*%
%ADD114C,0.00800*%
%ADD115C,0.00600*%
%ADD116C,0.02000*%
%ADD117C,0.02500*%
%ADD118C,0.05000*%
%ADD119C,0.10000*%
%ADD120C,0.01500*%
%ADD121R,0.11500X0.04000*%
%ADD122C,0.07087*%
%ADD123C,0.07874*%
%ADD124C,0.05906*%
%ADD125C,0.11811*%
%ADD126C,0.12205*%
%ADD127C,0.06437*%
%ADD128C,0.05591*%
%ADD129C,0.09252*%
%ADD130C,0.05512*%
G04:AMPARAMS|DCode=131|XSize=78.74mil|YSize=118.11mil|CornerRadius=19.69mil|HoleSize=0mil|Usage=FLASHONLY|Rotation=270.000|XOffset=0mil|YOffset=0mil|HoleType=Round|Shape=RoundedRectangle|*
%AMROUNDEDRECTD131*
21,1,0.07874,0.07874,0,0,270.0*
21,1,0.03937,0.11811,0,0,270.0*
1,1,0.03937,-0.03937,-0.01969*
1,1,0.03937,-0.03937,0.01969*
1,1,0.03937,0.03937,0.01969*
1,1,0.03937,0.03937,-0.01969*
%
%ADD131ROUNDEDRECTD131*%
%ADD132C,0.13780*%
%ADD133C,0.09055*%
%ADD134C,0.09843*%
%ADD135C,0.08661*%
%ADD136R,0.07874X0.07874*%
%ADD137C,0.04331*%
G04:AMPARAMS|DCode=138|XSize=47.24mil|YSize=110.24mil|CornerRadius=11.81mil|HoleSize=0mil|Usage=FLASHONLY|Rotation=270.000|XOffset=0mil|YOffset=0mil|HoleType=Round|Shape=RoundedRectangle|*
%AMROUNDEDRECTD138*
21,1,0.04724,0.08661,0,0,270.0*
21,1,0.02362,0.11024,0,0,270.0*
1,1,0.02362,-0.04331,-0.01181*
1,1,0.02362,-0.04331,0.01181*
1,1,0.02362,0.04331,0.01181*
1,1,0.02362,0.04331,-0.01181*
%
%ADD138ROUNDEDRECTD138*%
G04:AMPARAMS|DCode=139|XSize=51.18mil|YSize=86.61mil|CornerRadius=12.8mil|HoleSize=0mil|Usage=FLASHONLY|Rotation=180.000|XOffset=0mil|YOffset=0mil|HoleType=Round|Shape=RoundedRectangle|*
%AMROUNDEDRECTD139*
21,1,0.05118,0.06102,0,0,180.0*
21,1,0.02559,0.08661,0,0,180.0*
1,1,0.02559,-0.01280,0.03051*
1,1,0.02559,0.01280,0.03051*
1,1,0.02559,0.01280,-0.03051*
1,1,0.02559,-0.01280,-0.03051*
%
%ADD139ROUNDEDRECTD139*%
%ADD140C,0.04724*%
%ADD141C,0.31496*%
%ADD142C,0.12598*%
%ADD143C,0.06378*%
%ADD144C,0.09646*%
%ADD145C,0.12000*%
%ADD146C,0.04500*%
%ADD147C,0.01900*%
%ADD148C,0.01940*%
%ADD149C,0.02000*%
%ADD150C,0.05000*%
%ADD151C,0.01860*%
%ADD152C,0.02598*%
%ADD153C,0.04000*%
%ADD154C,0.06771*%
%ADD155C,0.04409*%
%ADD156C,0.07164*%
G04:AMPARAMS|DCode=157|XSize=107.244mil|YSize=107.244mil|CornerRadius=0mil|HoleSize=0mil|Usage=FLASHONLY|Rotation=0.000|XOffset=0mil|YOffset=0mil|HoleType=Round|Shape=Relief|Width=15mil|Gap=10mil|Entries=4|*
%AMTHD157*
7,0,0,0.10724,0.08724,0.01500,45*
%
%ADD157THD157*%
%ADD158C,0.06062*%
G04:AMPARAMS|DCode=159|XSize=96.221mil|YSize=96.221mil|CornerRadius=0mil|HoleSize=0mil|Usage=FLASHONLY|Rotation=0.000|XOffset=0mil|YOffset=0mil|HoleType=Round|Shape=Relief|Width=15mil|Gap=10mil|Entries=4|*
%AMTHD159*
7,0,0,0.09622,0.07622,0.01500,45*
%
%ADD159THD159*%
%ADD160C,0.11495*%
%ADD161C,0.15038*%
%ADD162C,0.06377*%
G04:AMPARAMS|DCode=163|XSize=99.37mil|YSize=99.37mil|CornerRadius=0mil|HoleSize=0mil|Usage=FLASHONLY|Rotation=0.000|XOffset=0mil|YOffset=0mil|HoleType=Round|Shape=Relief|Width=15mil|Gap=10mil|Entries=4|*
%AMTHD163*
7,0,0,0.09937,0.07937,0.01500,45*
%
%ADD163THD163*%
G04:AMPARAMS|DCode=164|XSize=92.284mil|YSize=92.284mil|CornerRadius=0mil|HoleSize=0mil|Usage=FLASHONLY|Rotation=0.000|XOffset=0mil|YOffset=0mil|HoleType=Round|Shape=Relief|Width=15mil|Gap=10mil|Entries=4|*
%AMTHD164*
7,0,0,0.09228,0.07228,0.01500,45*
%
%ADD164THD164*%
%ADD165C,0.11889*%
%ADD166C,0.05196*%
G04:AMPARAMS|DCode=167|XSize=87.559mil|YSize=87.559mil|CornerRadius=0mil|HoleSize=0mil|Usage=FLASHONLY|Rotation=0.000|XOffset=0mil|YOffset=0mil|HoleType=Round|Shape=Relief|Width=15mil|Gap=10mil|Entries=4|*
%AMTHD167*
7,0,0,0.08756,0.06756,0.01500,45*
%
%ADD167THD167*%
%ADD168O,0.12204X0.09133*%
%ADD169C,0.12086*%
%ADD170C,0.08346*%
G04:AMPARAMS|DCode=171|XSize=126.929mil|YSize=126.929mil|CornerRadius=0mil|HoleSize=0mil|Usage=FLASHONLY|Rotation=0.000|XOffset=0mil|YOffset=0mil|HoleType=Round|Shape=Relief|Width=15mil|Gap=10mil|Entries=4|*
%AMTHD171*
7,0,0,0.12693,0.10693,0.01500,45*
%
%ADD171THD171*%
G04:AMPARAMS|DCode=172|XSize=103.307mil|YSize=103.307mil|CornerRadius=0mil|HoleSize=0mil|Usage=FLASHONLY|Rotation=0.000|XOffset=0mil|YOffset=0mil|HoleType=Round|Shape=Relief|Width=15mil|Gap=10mil|Entries=4|*
%AMTHD172*
7,0,0,0.10331,0.08331,0.01500,45*
%
%ADD172THD172*%
%ADD173C,0.05983*%
G04:AMPARAMS|DCode=174|XSize=95.433mil|YSize=95.433mil|CornerRadius=0mil|HoleSize=0mil|Usage=FLASHONLY|Rotation=0.000|XOffset=0mil|YOffset=0mil|HoleType=Round|Shape=Relief|Width=15mil|Gap=10mil|Entries=4|*
%AMTHD174*
7,0,0,0.09543,0.07543,0.01500,45*
%
%ADD174THD174*%
%ADD175C,0.04802*%
G04:AMPARAMS|DCode=176|XSize=83.622mil|YSize=83.622mil|CornerRadius=0mil|HoleSize=0mil|Usage=FLASHONLY|Rotation=0.000|XOffset=0mil|YOffset=0mil|HoleType=Round|Shape=Relief|Width=15mil|Gap=10mil|Entries=4|*
%AMTHD176*
7,0,0,0.08362,0.06362,0.01500,45*
%
%ADD176THD176*%
%AMTHOVALD177*
21,1,0.06299,0.09150,0,0,360.0*
1,1,0.09150,-0.03150,0.00000*
1,1,0.09150,0.03150,0.00000*
21,0,0.06299,0.07150,0,0,360.0*
1,0,0.07150,-0.03150,0.00000*
1,0,0.07150,0.03150,0.00000*
4,0,4,-0.02619,-0.00530,-0.05854,-0.03765,-0.06915,-0.02705,-0.03680,0.00530,-0.02619,-0.00530,0.0*
4,0,4,0.03680,-0.00530,0.06915,0.02705,0.05854,0.03765,0.02619,0.00530,0.03680,-0.00530,0.0*
4,0,4,-0.03680,-0.00530,-0.06915,0.02705,-0.05854,0.03765,-0.02619,0.00530,-0.03680,-0.00530,0.0*
4,0,4,0.02619,-0.00530,0.05854,-0.03765,0.06915,-0.02705,0.03680,0.00530,0.02619,-0.00530,0.0*
%
%ADD177THOVALD177*%

%AMTHOVALD178*
21,1,0.03543,0.09937,0,0,270.0*
1,1,0.09937,0.00000,0.01772*
1,1,0.09937,0.00000,-0.01772*
21,0,0.03543,0.07937,0,0,270.0*
1,0,0.07937,0.00000,0.01772*
1,0,0.07937,0.00000,-0.01772*
4,0,4,-0.00530,0.01241,-0.04044,0.04755,-0.02983,0.05815,0.00530,0.02302,-0.00530,0.01241,0.0*
4,0,4,-0.00530,-0.02302,0.02983,-0.05815,0.04044,-0.04755,0.00530,-0.01241,-0.00530,-0.02302,0.0*
4,0,4,-0.00530,0.02302,0.02983,0.05815,0.04044,0.04755,0.00530,0.01241,-0.00530,0.02302,0.0*
4,0,4,-0.00530,-0.01241,-0.04044,-0.04755,-0.02983,-0.05815,0.00530,-0.02302,-0.00530,-0.01241,0.0*
%
%ADD178THOVALD178*%

%ADD179C,0.05590*%
G04:AMPARAMS|DCode=180|XSize=91.496mil|YSize=91.496mil|CornerRadius=0mil|HoleSize=0mil|Usage=FLASHONLY|Rotation=0.000|XOffset=0mil|YOffset=0mil|HoleType=Round|Shape=Relief|Width=15mil|Gap=10mil|Entries=4|*
%AMTHD180*
7,0,0,0.09150,0.07150,0.01500,45*
%
%ADD180THD180*%
G04:AMPARAMS|DCode=181|XSize=210mil|YSize=210mil|CornerRadius=0mil|HoleSize=0mil|Usage=FLASHONLY|Rotation=0.000|XOffset=0mil|YOffset=0mil|HoleType=Round|Shape=Relief|Width=15mil|Gap=10mil|Entries=4|*
%AMTHD181*
7,0,0,0.21000,0.19000,0.01500,45*
%
%ADD181THD181*%
%ADD182C,0.17440*%
%ADD183C,0.15235*%
G04:AMPARAMS|DCode=184|XSize=122.992mil|YSize=122.992mil|CornerRadius=0mil|HoleSize=0mil|Usage=FLASHONLY|Rotation=0.000|XOffset=0mil|YOffset=0mil|HoleType=Round|Shape=Relief|Width=15mil|Gap=10mil|Entries=4|*
%AMTHD184*
7,0,0,0.12299,0.10299,0.01500,45*
%
%ADD184THD184*%
G04:AMPARAMS|DCode=185|XSize=100.157mil|YSize=100.157mil|CornerRadius=0mil|HoleSize=0mil|Usage=FLASHONLY|Rotation=0.000|XOffset=0mil|YOffset=0mil|HoleType=Round|Shape=Relief|Width=15mil|Gap=10mil|Entries=4|*
%AMTHD185*
7,0,0,0.10016,0.08016,0.01500,45*
%
%ADD185THD185*%
%ADD186C,0.06456*%
G04:AMPARAMS|DCode=187|XSize=117.087mil|YSize=117.087mil|CornerRadius=0mil|HoleSize=0mil|Usage=FLASHONLY|Rotation=0.000|XOffset=0mil|YOffset=0mil|HoleType=Round|Shape=Relief|Width=15mil|Gap=10mil|Entries=4|*
%AMTHD187*
7,0,0,0.11709,0.09709,0.01500,45*
%
%ADD187THD187*%
%ADD188C,0.08149*%
%ADD189C,0.14743*%
%ADD190C,0.07040*%
%ADD191C,0.03440*%
%ADD192C,0.03739*%
%ADD193C,0.00380*%
%ADD194C,0.00394*%
%ADD195C,0.22874*%
%ADD196C,0.00380*%
%ADD197C,0.07000*%
%ADD198C,0.05668*%
%ADD199C,0.09133*%
%ADD200O,0.11889X0.05590*%
%ADD201O,0.06377X0.09920*%
%ADD202C,0.08739*%
%ADD203C,0.05240*%
%ADD204C,0.03444*%
D113*
X1137808Y102299D02*
G03*
X1137808Y102299I-5509J0D01*
G01*
D153*
X-0Y-0D02*
X0Y960630D01*
X1200787D01*
X1200787Y960630D02*
X1200787Y960630D01*
X1200787Y0D02*
Y960630D01*
X0Y0D02*
X1200787D01*
X-0Y-0D02*
X0Y0D01*
D154*
X1183000Y674000D02*
D03*
Y684000D02*
D03*
X920299Y168299D02*
D03*
X940299D02*
D03*
X930299D02*
D03*
X976299D02*
D03*
X996299D02*
D03*
X986299D02*
D03*
X1184299Y275299D02*
D03*
X612299Y156299D02*
D03*
X592299D02*
D03*
X602299D02*
D03*
X864299Y168299D02*
D03*
X884299D02*
D03*
X874299D02*
D03*
D155*
X739700Y148099D02*
D03*
X933858Y612598D02*
D03*
X929134D02*
D03*
X924409D02*
D03*
X1005906Y335039D02*
D03*
X999300Y245000D02*
D03*
X967000Y777000D02*
D03*
X960000D02*
D03*
X967000Y770000D02*
D03*
X960000D02*
D03*
X890299Y360299D02*
D03*
X579299Y403799D02*
D03*
X569399Y206099D02*
D03*
X1045799Y866299D02*
D03*
X999799Y854799D02*
D03*
X650299Y338299D02*
D03*
X625399Y206099D02*
D03*
X193299Y419299D02*
D03*
X290799Y164799D02*
D03*
X226299Y419299D02*
D03*
X83799Y286299D02*
D03*
X85000Y265000D02*
D03*
X685799Y238299D02*
D03*
X289799Y128799D02*
D03*
X958661Y812299D02*
D03*
Y828299D02*
D03*
Y820299D02*
D03*
X129799Y285299D02*
D03*
X969299Y886299D02*
D03*
X914299D02*
D03*
X958661Y836299D02*
D03*
X676299Y213299D02*
D03*
X947799Y662299D02*
D03*
X70299Y330299D02*
D03*
X651799Y213299D02*
D03*
X712299Y495299D02*
D03*
X83799Y281299D02*
D03*
X667799Y238299D02*
D03*
X650499Y312899D02*
D03*
X498000Y378500D02*
D03*
D156*
X1126299Y371299D02*
D03*
X1113799D02*
D03*
X1101299D02*
D03*
X1126299Y496299D02*
D03*
X1076299D02*
D03*
Y446299D02*
D03*
Y371299D02*
D03*
Y383799D02*
D03*
Y433799D02*
D03*
X1122299Y102299D02*
D03*
X1142299D02*
D03*
X1152299D02*
D03*
X1182299D02*
D03*
X1172299D02*
D03*
X1112299D02*
D03*
X1162299D02*
D03*
X1092299Y162299D02*
D03*
X1172299Y242299D02*
D03*
X1162299D02*
D03*
X1152299D02*
D03*
X1142299D02*
D03*
X1092299Y172299D02*
D03*
Y242299D02*
D03*
X1102299D02*
D03*
X1163799Y578299D02*
D03*
Y640799D02*
D03*
X1101299D02*
D03*
Y578299D02*
D03*
Y590799D02*
D03*
Y603299D02*
D03*
Y628299D02*
D03*
X1159799Y718299D02*
D03*
X1172299Y730799D02*
D03*
X1122299Y768299D02*
D03*
X1097299Y718299D02*
D03*
Y730799D02*
D03*
Y743299D02*
D03*
Y768299D02*
D03*
D157*
X1088799Y371299D02*
D03*
X1076299Y483799D02*
D03*
Y458799D02*
D03*
Y396299D02*
D03*
Y421299D02*
D03*
X1132299Y102299D02*
D03*
X1092299Y122299D02*
D03*
X1182299Y172299D02*
D03*
X1092299Y132299D02*
D03*
X1182299Y242299D02*
D03*
X1092299Y202299D02*
D03*
Y212299D02*
D03*
X1176299Y578299D02*
D03*
X1151299Y640799D02*
D03*
X1113799D02*
D03*
X1101299Y615799D02*
D03*
X1172299Y718299D02*
D03*
Y768299D02*
D03*
X1159799D02*
D03*
X1097299Y755799D02*
D03*
D158*
X1139079Y919063D02*
D03*
X1148921D02*
D03*
Y926937D02*
D03*
D159*
X1139079D02*
D03*
D160*
X1167701Y937606D02*
D03*
X1120299D02*
D03*
D161*
X307480Y356339D02*
D03*
X507480Y278386D02*
D03*
D162*
X1076488Y547299D02*
D03*
X1086488D02*
D03*
X1096488D02*
D03*
X1106488D02*
D03*
X1116488D02*
D03*
X1054499Y821299D02*
D03*
X949581Y787528D02*
D03*
X79299Y68299D02*
D03*
X1033299Y564099D02*
D03*
X14399Y617599D02*
D03*
X215699Y58099D02*
D03*
X1080740Y216535D02*
D03*
X618858Y77181D02*
D03*
X636858D02*
D03*
X354799Y524199D02*
D03*
X1022799Y371299D02*
D03*
X512598Y300949D02*
D03*
X914499Y870099D02*
D03*
X978299Y861452D02*
D03*
X492599Y535299D02*
D03*
X903299Y440799D02*
D03*
X74764Y364299D02*
D03*
X60264D02*
D03*
X134835Y233299D02*
D03*
Y257299D02*
D03*
X134799Y281299D02*
D03*
X148996Y318299D02*
D03*
X662802Y154299D02*
D03*
X300299Y309835D02*
D03*
Y238764D02*
D03*
X436099Y525799D02*
D03*
X466099D02*
D03*
X883299Y868299D02*
D03*
X1004699Y871399D02*
D03*
X1011299Y795299D02*
D03*
X1050899Y869299D02*
D03*
X956899Y868499D02*
D03*
X916099Y795299D02*
D03*
X772299Y230299D02*
D03*
X722299Y428299D02*
D03*
X734299Y427299D02*
D03*
Y445299D02*
D03*
X758299Y428299D02*
D03*
X844299Y445299D02*
D03*
Y427299D02*
D03*
X832299Y428299D02*
D03*
X818299D02*
D03*
X812299Y266299D02*
D03*
X790299D02*
D03*
X728299D02*
D03*
X748299Y263299D02*
D03*
X756299Y268299D02*
D03*
X748299Y245299D02*
D03*
X738299D02*
D03*
X826299Y266299D02*
D03*
X802299Y267299D02*
D03*
Y249299D02*
D03*
X756299Y252299D02*
D03*
X776299Y268299D02*
D03*
X88299Y897799D02*
D03*
X1006799Y492299D02*
D03*
X85299Y663799D02*
D03*
X967299Y532299D02*
D03*
X1139299Y283299D02*
D03*
X1146299D02*
D03*
X1084299Y847299D02*
D03*
X1072866Y216535D02*
D03*
X1064992D02*
D03*
X1057118D02*
D03*
X1049244D02*
D03*
X1080740Y208661D02*
D03*
X1072866D02*
D03*
X1064992D02*
D03*
X1057118D02*
D03*
X1049244D02*
D03*
X1106299Y336299D02*
D03*
Y344299D02*
D03*
Y352299D02*
D03*
X1066299Y579299D02*
D03*
Y571299D02*
D03*
X1168299Y688299D02*
D03*
Y672299D02*
D03*
X1082299Y758299D02*
D03*
X1074299D02*
D03*
X1080299Y582299D02*
D03*
X1036299Y387299D02*
D03*
X1040299Y564299D02*
D03*
X738299Y263299D02*
D03*
X1142799Y326299D02*
D03*
X632984Y289799D02*
D03*
Y326299D02*
D03*
X622614Y285299D02*
D03*
X525299Y286500D02*
D03*
Y268500D02*
D03*
Y250500D02*
D03*
X494799Y208299D02*
D03*
X469799Y201299D02*
D03*
X451799D02*
D03*
X433799D02*
D03*
X393799D02*
D03*
X375799D02*
D03*
X357799D02*
D03*
X339799D02*
D03*
X295299Y246799D02*
D03*
Y266799D02*
D03*
Y286799D02*
D03*
X291299Y338799D02*
D03*
Y358799D02*
D03*
Y378799D02*
D03*
X305611Y200109D02*
D03*
X534889Y230179D02*
D03*
X411599Y536599D02*
D03*
X527999Y535999D02*
D03*
X510999Y534999D02*
D03*
X393399Y536799D02*
D03*
X385699Y524714D02*
D03*
X740799Y533299D02*
D03*
X775799D02*
D03*
X824799D02*
D03*
X844799D02*
D03*
X517299Y322299D02*
D03*
Y344299D02*
D03*
Y364299D02*
D03*
X212299Y258799D02*
D03*
X224299Y264799D02*
D03*
X776299Y252299D02*
D03*
X1055299Y309799D02*
D03*
X766299Y268299D02*
D03*
Y252299D02*
D03*
X508499Y202299D02*
D03*
X297499Y395899D02*
D03*
X381699Y484299D02*
D03*
Y471699D02*
D03*
X444899Y484899D02*
D03*
X444399Y472506D02*
D03*
X512299Y385799D02*
D03*
X390651Y427799D02*
D03*
X397967D02*
D03*
X951699Y313799D02*
D03*
X985099Y207899D02*
D03*
X414299Y461499D02*
D03*
X414799Y208299D02*
D03*
X297740Y93614D02*
D03*
X290158Y83281D02*
D03*
X270858Y83181D02*
D03*
X167499Y350940D02*
D03*
X45735Y335414D02*
D03*
X1044299Y387299D02*
D03*
D163*
X1086488Y537299D02*
D03*
X1096488D02*
D03*
X1106488D02*
D03*
X1116488D02*
D03*
X1076488D02*
D03*
D164*
X921299Y549899D02*
D03*
Y559899D02*
D03*
Y569899D02*
D03*
Y539899D02*
D03*
Y529899D02*
D03*
D165*
Y504899D02*
D03*
D166*
X100299Y544299D02*
D03*
Y536425D02*
D03*
Y520677D02*
D03*
Y512803D02*
D03*
Y497055D02*
D03*
Y489181D02*
D03*
Y473433D02*
D03*
Y465559D02*
D03*
Y449811D02*
D03*
Y441937D02*
D03*
Y426189D02*
D03*
Y418315D02*
D03*
Y402567D02*
D03*
Y394693D02*
D03*
Y378945D02*
D03*
Y371071D02*
D03*
Y79732D02*
D03*
Y95480D02*
D03*
Y103354D02*
D03*
Y119102D02*
D03*
Y126976D02*
D03*
Y142724D02*
D03*
Y150598D02*
D03*
Y166347D02*
D03*
Y174221D02*
D03*
Y189969D02*
D03*
Y197843D02*
D03*
Y213591D02*
D03*
Y221465D02*
D03*
Y229339D02*
D03*
Y237213D02*
D03*
Y245087D02*
D03*
Y252961D02*
D03*
Y260835D02*
D03*
Y268709D02*
D03*
Y276583D02*
D03*
Y284457D02*
D03*
Y292331D02*
D03*
Y300205D02*
D03*
Y308079D02*
D03*
Y315953D02*
D03*
Y323827D02*
D03*
Y331701D02*
D03*
Y339575D02*
D03*
X92819Y359260D02*
D03*
Y367134D02*
D03*
Y382882D02*
D03*
Y390756D02*
D03*
Y406504D02*
D03*
Y414378D02*
D03*
Y430126D02*
D03*
Y438000D02*
D03*
Y453748D02*
D03*
Y461622D02*
D03*
Y477370D02*
D03*
Y485244D02*
D03*
Y500992D02*
D03*
Y508866D02*
D03*
Y524614D02*
D03*
Y532488D02*
D03*
Y60047D02*
D03*
Y67921D02*
D03*
Y83669D02*
D03*
Y91543D02*
D03*
Y107291D02*
D03*
Y115165D02*
D03*
Y130913D02*
D03*
Y138787D02*
D03*
Y154535D02*
D03*
Y162409D02*
D03*
Y178157D02*
D03*
Y186031D02*
D03*
Y201780D02*
D03*
Y209653D02*
D03*
Y225402D02*
D03*
Y233276D02*
D03*
Y241150D02*
D03*
Y249024D02*
D03*
Y256898D02*
D03*
Y264772D02*
D03*
Y272646D02*
D03*
Y280520D02*
D03*
Y288394D02*
D03*
Y296268D02*
D03*
Y304142D02*
D03*
Y312016D02*
D03*
Y319890D02*
D03*
Y327764D02*
D03*
Y335638D02*
D03*
X107780D02*
D03*
Y327764D02*
D03*
Y319890D02*
D03*
Y312016D02*
D03*
Y304142D02*
D03*
Y296268D02*
D03*
Y288394D02*
D03*
Y280520D02*
D03*
Y272646D02*
D03*
Y264772D02*
D03*
Y256898D02*
D03*
Y249024D02*
D03*
Y241150D02*
D03*
Y233276D02*
D03*
Y225402D02*
D03*
Y217528D02*
D03*
Y201780D02*
D03*
Y193905D02*
D03*
Y178157D02*
D03*
Y170283D02*
D03*
Y154535D02*
D03*
Y146661D02*
D03*
Y130913D02*
D03*
Y123039D02*
D03*
Y107291D02*
D03*
Y99417D02*
D03*
Y83669D02*
D03*
Y75795D02*
D03*
Y67921D02*
D03*
Y60047D02*
D03*
Y540362D02*
D03*
Y524614D02*
D03*
Y516740D02*
D03*
Y500992D02*
D03*
Y493118D02*
D03*
Y477370D02*
D03*
Y469496D02*
D03*
Y453748D02*
D03*
Y445874D02*
D03*
Y430126D02*
D03*
Y422252D02*
D03*
Y406504D02*
D03*
Y398630D02*
D03*
Y382882D02*
D03*
Y375008D02*
D03*
Y359260D02*
D03*
X115260Y339575D02*
D03*
Y331701D02*
D03*
Y323827D02*
D03*
Y315953D02*
D03*
Y308079D02*
D03*
Y300205D02*
D03*
Y292331D02*
D03*
Y284457D02*
D03*
Y276583D02*
D03*
Y268709D02*
D03*
Y260835D02*
D03*
Y252961D02*
D03*
Y245087D02*
D03*
Y237213D02*
D03*
Y229339D02*
D03*
Y213591D02*
D03*
Y205716D02*
D03*
Y189969D02*
D03*
Y182095D02*
D03*
Y166347D02*
D03*
Y158472D02*
D03*
Y142724D02*
D03*
Y134850D02*
D03*
Y119102D02*
D03*
Y111228D02*
D03*
Y95480D02*
D03*
Y87606D02*
D03*
Y363197D02*
D03*
Y371071D02*
D03*
Y386819D02*
D03*
Y394693D02*
D03*
Y410441D02*
D03*
Y418315D02*
D03*
Y434063D02*
D03*
Y441937D02*
D03*
Y457685D02*
D03*
Y465559D02*
D03*
Y481307D02*
D03*
Y489181D02*
D03*
Y504929D02*
D03*
Y512803D02*
D03*
Y528551D02*
D03*
Y536425D02*
D03*
D167*
X100299Y528551D02*
D03*
Y504929D02*
D03*
Y481307D02*
D03*
Y457685D02*
D03*
Y434063D02*
D03*
Y410441D02*
D03*
Y386819D02*
D03*
Y363197D02*
D03*
Y63984D02*
D03*
Y71858D02*
D03*
Y87606D02*
D03*
Y111228D02*
D03*
Y134850D02*
D03*
Y158472D02*
D03*
Y182095D02*
D03*
Y205716D02*
D03*
X92819Y375008D02*
D03*
Y398630D02*
D03*
Y422252D02*
D03*
Y445874D02*
D03*
Y469496D02*
D03*
Y493118D02*
D03*
Y516740D02*
D03*
Y540362D02*
D03*
Y75795D02*
D03*
Y99417D02*
D03*
Y123039D02*
D03*
Y146661D02*
D03*
Y170283D02*
D03*
Y193905D02*
D03*
Y217528D02*
D03*
X107780Y209653D02*
D03*
Y186031D02*
D03*
Y162409D02*
D03*
Y138787D02*
D03*
Y115165D02*
D03*
Y91543D02*
D03*
Y532488D02*
D03*
Y508866D02*
D03*
Y485244D02*
D03*
Y461622D02*
D03*
Y438000D02*
D03*
Y414378D02*
D03*
Y390756D02*
D03*
Y367134D02*
D03*
X115260Y221465D02*
D03*
Y197843D02*
D03*
Y174221D02*
D03*
Y150598D02*
D03*
Y126976D02*
D03*
Y103354D02*
D03*
Y79732D02*
D03*
Y71858D02*
D03*
Y63984D02*
D03*
Y378945D02*
D03*
Y402567D02*
D03*
Y426189D02*
D03*
Y449811D02*
D03*
Y473433D02*
D03*
Y497055D02*
D03*
Y520677D02*
D03*
Y544299D02*
D03*
D168*
X104039Y349417D02*
D03*
D169*
Y30520D02*
D03*
Y573984D02*
D03*
D170*
X206299Y150299D02*
D03*
X180299Y100299D02*
D03*
X232299D02*
D03*
D171*
X196299Y160299D02*
D03*
Y140299D02*
D03*
X216299D02*
D03*
Y160299D02*
D03*
X170299Y110299D02*
D03*
Y90299D02*
D03*
X190299D02*
D03*
Y110299D02*
D03*
X222299D02*
D03*
Y90299D02*
D03*
X242299D02*
D03*
Y110299D02*
D03*
D172*
X1184299Y265299D02*
D03*
D173*
X1044299Y85732D02*
D03*
X1043299Y14866D02*
D03*
X1076299Y85732D02*
D03*
X1075299Y14866D02*
D03*
X1126299Y65063D02*
D03*
X1047779Y899299D02*
D03*
X1037780D02*
D03*
X1007780D02*
D03*
X1017780D02*
D03*
X1027779D02*
D03*
X1022779Y909299D02*
D03*
X1012780D02*
D03*
X1032780D02*
D03*
X1042780D02*
D03*
X956979Y899299D02*
D03*
X946980D02*
D03*
X916980D02*
D03*
X926980D02*
D03*
X936979D02*
D03*
X931979Y909299D02*
D03*
X921980D02*
D03*
X941980D02*
D03*
X951980D02*
D03*
D174*
X1126299Y35535D02*
D03*
X1002779Y909299D02*
D03*
X911979D02*
D03*
D175*
X289000Y50000D02*
D03*
X296992D02*
D03*
X309000D02*
D03*
X316992D02*
D03*
X329000D02*
D03*
X336992D02*
D03*
X349000D02*
D03*
X356992D02*
D03*
X369000D02*
D03*
X376992D02*
D03*
X389000D02*
D03*
X396992D02*
D03*
X409000D02*
D03*
X416992D02*
D03*
X429000D02*
D03*
X436992D02*
D03*
X449000D02*
D03*
X456992D02*
D03*
X469000D02*
D03*
X476992D02*
D03*
X279020Y36220D02*
D03*
X287012D02*
D03*
X299020D02*
D03*
X307012D02*
D03*
X319020D02*
D03*
X327012D02*
D03*
X339020D02*
D03*
X347012D02*
D03*
X359020D02*
D03*
X367012D02*
D03*
X379020D02*
D03*
X387012D02*
D03*
X399020D02*
D03*
X407012D02*
D03*
X419020D02*
D03*
X427012D02*
D03*
X439020D02*
D03*
X447012D02*
D03*
X459020D02*
D03*
X467012D02*
D03*
X289000Y26378D02*
D03*
X296992D02*
D03*
X309000D02*
D03*
X316992D02*
D03*
X329000D02*
D03*
X336992D02*
D03*
X349000D02*
D03*
X356992D02*
D03*
X369000D02*
D03*
X376992D02*
D03*
X389000D02*
D03*
X396992D02*
D03*
X409000D02*
D03*
X416992D02*
D03*
X429000D02*
D03*
X436992D02*
D03*
X449000D02*
D03*
X456992D02*
D03*
X469000D02*
D03*
X476992D02*
D03*
X279020Y12598D02*
D03*
X287012D02*
D03*
X299020D02*
D03*
X307012D02*
D03*
X319020D02*
D03*
X327012D02*
D03*
X339020D02*
D03*
X347012D02*
D03*
X359020D02*
D03*
X367012D02*
D03*
X379020D02*
D03*
X387012D02*
D03*
X399020D02*
D03*
X407012D02*
D03*
X419020D02*
D03*
X427012D02*
D03*
X439020D02*
D03*
X447012D02*
D03*
X459020D02*
D03*
X467012D02*
D03*
X511087Y48858D02*
D03*
X498882D02*
D03*
X250831D02*
D03*
X263035D02*
D03*
Y40984D02*
D03*
X250831D02*
D03*
X498882D02*
D03*
X511087D02*
D03*
X263035Y33110D02*
D03*
X250831D02*
D03*
X498882D02*
D03*
X511087D02*
D03*
X263035Y25236D02*
D03*
X250831D02*
D03*
X498882D02*
D03*
X511087D02*
D03*
X641500Y50000D02*
D03*
X649492D02*
D03*
X661500D02*
D03*
X669492D02*
D03*
X681500D02*
D03*
X689492D02*
D03*
X701500D02*
D03*
X709492D02*
D03*
X721500D02*
D03*
X729492D02*
D03*
X741500D02*
D03*
X749492D02*
D03*
X761500D02*
D03*
X769492D02*
D03*
X781500D02*
D03*
X789492D02*
D03*
X801500D02*
D03*
X809492D02*
D03*
X821500D02*
D03*
X829492D02*
D03*
X631520Y36220D02*
D03*
X639512D02*
D03*
X651520D02*
D03*
X659512D02*
D03*
X671520D02*
D03*
X679512D02*
D03*
X691520D02*
D03*
X699512D02*
D03*
X711520D02*
D03*
X719512D02*
D03*
X731520D02*
D03*
X739512D02*
D03*
X751520D02*
D03*
X759512D02*
D03*
X771520D02*
D03*
X779512D02*
D03*
X791520D02*
D03*
X799512D02*
D03*
X811520D02*
D03*
X819512D02*
D03*
X641500Y26378D02*
D03*
X649492D02*
D03*
X661500D02*
D03*
X669492D02*
D03*
X681500D02*
D03*
X689492D02*
D03*
X701500D02*
D03*
X709492D02*
D03*
X721500D02*
D03*
X729492D02*
D03*
X741500D02*
D03*
X749492D02*
D03*
X761500D02*
D03*
X769492D02*
D03*
X781500D02*
D03*
X789492D02*
D03*
X801500D02*
D03*
X809492D02*
D03*
X821500D02*
D03*
X829492D02*
D03*
X631520Y12598D02*
D03*
X639512D02*
D03*
X651520D02*
D03*
X659512D02*
D03*
X671520D02*
D03*
X679512D02*
D03*
X691520D02*
D03*
X699512D02*
D03*
X711520D02*
D03*
X719512D02*
D03*
X731520D02*
D03*
X739512D02*
D03*
X751520D02*
D03*
X759512D02*
D03*
X771520D02*
D03*
X779512D02*
D03*
X791520D02*
D03*
X799512D02*
D03*
X811520D02*
D03*
X819512D02*
D03*
X863587Y48858D02*
D03*
X851382D02*
D03*
X603331D02*
D03*
X615535D02*
D03*
Y40984D02*
D03*
X603331D02*
D03*
X851382D02*
D03*
X863587D02*
D03*
X615535Y33110D02*
D03*
X603331D02*
D03*
X851382D02*
D03*
X863587D02*
D03*
X615535Y25236D02*
D03*
X603331D02*
D03*
X851382D02*
D03*
X863587D02*
D03*
D176*
X282996Y43110D02*
D03*
X292996D02*
D03*
X302996D02*
D03*
X312996D02*
D03*
X322996D02*
D03*
X332996D02*
D03*
X342996D02*
D03*
X352996D02*
D03*
X362996D02*
D03*
X372996D02*
D03*
X382996D02*
D03*
X392996D02*
D03*
X402996D02*
D03*
X412996D02*
D03*
X422996D02*
D03*
X432996D02*
D03*
X442996D02*
D03*
X452996D02*
D03*
X462996D02*
D03*
X472996D02*
D03*
X282996Y19488D02*
D03*
X292996D02*
D03*
X302996D02*
D03*
X312996D02*
D03*
X322996D02*
D03*
X332996D02*
D03*
X342996D02*
D03*
X352996D02*
D03*
X362996D02*
D03*
X372996D02*
D03*
X382996D02*
D03*
X392996D02*
D03*
X402996D02*
D03*
X412996D02*
D03*
X422996D02*
D03*
X432996D02*
D03*
X442996D02*
D03*
X452996D02*
D03*
X462996D02*
D03*
X472996D02*
D03*
X238626Y48858D02*
D03*
X523291D02*
D03*
Y40984D02*
D03*
X238626D02*
D03*
X523291Y33110D02*
D03*
X238626D02*
D03*
X523291Y25236D02*
D03*
X238626D02*
D03*
X635496Y43110D02*
D03*
X645496D02*
D03*
X655496D02*
D03*
X665496D02*
D03*
X675496D02*
D03*
X685496D02*
D03*
X695496D02*
D03*
X705496D02*
D03*
X715496D02*
D03*
X725496D02*
D03*
X735496D02*
D03*
X745496D02*
D03*
X755496D02*
D03*
X765496D02*
D03*
X775496D02*
D03*
X785496D02*
D03*
X795496D02*
D03*
X805496D02*
D03*
X815496D02*
D03*
X825496D02*
D03*
X635496Y19488D02*
D03*
X645496D02*
D03*
X655496D02*
D03*
X665496D02*
D03*
X675496D02*
D03*
X685496D02*
D03*
X695496D02*
D03*
X705496D02*
D03*
X715496D02*
D03*
X725496D02*
D03*
X735496D02*
D03*
X745496D02*
D03*
X755496D02*
D03*
X765496D02*
D03*
X775496D02*
D03*
X785496D02*
D03*
X795496D02*
D03*
X805496D02*
D03*
X815496D02*
D03*
X825496D02*
D03*
X591126Y48858D02*
D03*
X875791D02*
D03*
Y40984D02*
D03*
X591126D02*
D03*
X875791Y33110D02*
D03*
X591126D02*
D03*
X875791Y25236D02*
D03*
X591126D02*
D03*
D177*
X1089299Y954740D02*
D03*
D178*
X1078669Y932299D02*
D03*
X1099929D02*
D03*
D179*
X1081031Y924740D02*
D03*
X1086543D02*
D03*
X1092055D02*
D03*
D180*
X1097567D02*
D03*
D181*
X65000Y25000D02*
D03*
Y310000D02*
D03*
Y920000D02*
D03*
X555000D02*
D03*
X1175000Y830000D02*
D03*
Y25000D02*
D03*
Y310000D02*
D03*
X555000Y25000D02*
D03*
Y310000D02*
D03*
D182*
X181976Y615874D02*
D03*
X486622D02*
D03*
Y875598D02*
D03*
X181976D02*
D03*
X549976Y615874D02*
D03*
X854622D02*
D03*
X549976Y875598D02*
D03*
X854622D02*
D03*
D183*
X1002799Y934299D02*
D03*
X1047799D02*
D03*
X911999D02*
D03*
X956999D02*
D03*
D184*
X1055909Y922291D02*
D03*
X994689D02*
D03*
X965109D02*
D03*
X903889D02*
D03*
D185*
X999197Y950284D02*
D03*
X1041402D02*
D03*
X908397D02*
D03*
X950602D02*
D03*
D186*
X1009197D02*
D03*
X1051402D02*
D03*
X918397D02*
D03*
X960602D02*
D03*
D187*
X1179126Y545244D02*
D03*
Y462567D02*
D03*
Y446032D02*
D03*
Y429496D02*
D03*
Y396425D02*
D03*
X1157472D02*
D03*
Y429496D02*
D03*
Y462567D02*
D03*
D188*
X1179126Y528709D02*
D03*
Y512173D02*
D03*
Y495638D02*
D03*
Y479102D02*
D03*
Y412961D02*
D03*
Y379890D02*
D03*
Y363354D02*
D03*
X1157472D02*
D03*
Y379890D02*
D03*
Y412961D02*
D03*
Y446032D02*
D03*
Y479102D02*
D03*
Y495638D02*
D03*
Y512173D02*
D03*
Y528709D02*
D03*
Y545244D02*
D03*
D189*
X1177315Y344850D02*
D03*
D190*
X864949Y571799D02*
D03*
X539449D02*
D03*
X496949D02*
D03*
X171449D02*
D03*
D191*
X195600Y31100D02*
D03*
X211600Y31000D02*
D03*
X198600Y15900D02*
D03*
X211700Y14700D02*
D03*
X1173474Y257441D02*
D03*
Y262559D02*
D03*
X1158526Y257441D02*
D03*
Y260000D02*
D03*
Y262559D02*
D03*
X1173474Y270441D02*
D03*
Y275559D02*
D03*
Y283441D02*
D03*
Y288559D02*
D03*
X1158526Y270441D02*
D03*
Y273000D02*
D03*
Y275559D02*
D03*
Y283441D02*
D03*
Y288559D02*
D03*
X813500Y117400D02*
D03*
X258100Y16900D02*
D03*
X1151031Y825051D02*
D03*
X1154969Y830949D02*
D03*
X753900Y660800D02*
D03*
X752800Y658100D02*
D03*
X752100Y650900D02*
D03*
X879809Y677260D02*
D03*
Y684740D02*
D03*
Y694260D02*
D03*
Y701740D02*
D03*
Y710260D02*
D03*
Y717740D02*
D03*
X896190D02*
D03*
Y710260D02*
D03*
Y701740D02*
D03*
Y694260D02*
D03*
Y684740D02*
D03*
Y677260D02*
D03*
X893700Y465900D02*
D03*
X882500Y449900D02*
D03*
X787099Y438362D02*
D03*
X777099D02*
D03*
X1004400Y471659D02*
D03*
X952128Y495359D02*
D03*
X989400Y469100D02*
D03*
X937128Y495359D02*
D03*
Y492800D02*
D03*
X989400Y471659D02*
D03*
X978400Y598300D02*
D03*
X1005400Y538600D02*
D03*
X1004299Y462499D02*
D03*
X974700Y572100D02*
D03*
X975500Y574900D02*
D03*
X984331Y535946D02*
D03*
X993700Y574848D02*
D03*
X989200Y573000D02*
D03*
X985800Y573300D02*
D03*
X997500Y569700D02*
D03*
X1002600Y566900D02*
D03*
X969500Y567000D02*
D03*
X967700Y563500D02*
D03*
X965200Y559500D02*
D03*
X968148Y559452D02*
D03*
X965400Y555600D02*
D03*
X1001100Y556800D02*
D03*
X1000900Y547600D02*
D03*
X1026000Y215600D02*
D03*
X1013390Y242890D02*
D03*
X1016441Y246498D02*
D03*
X1018409Y250400D02*
D03*
X1032200Y215800D02*
D03*
X1043400Y234200D02*
D03*
X1043000Y237800D02*
D03*
X1040300Y242100D02*
D03*
X1036500Y246600D02*
D03*
X1034000Y249100D02*
D03*
X1030200Y250100D02*
D03*
X1028200Y247600D02*
D03*
X1032799Y256299D02*
D03*
X1027400Y254400D02*
D03*
X1022299Y253299D02*
D03*
X1010100Y238189D02*
D03*
X1007400Y237737D02*
D03*
Y233800D02*
D03*
X1042253Y230315D02*
D03*
Y222441D02*
D03*
X1048685Y239543D02*
D03*
X55600Y890331D02*
D03*
X723600Y134400D02*
D03*
X205300Y51600D02*
D03*
X192700Y51100D02*
D03*
X1101277Y803131D02*
D03*
Y807069D02*
D03*
X958899Y756099D02*
D03*
X898500Y815700D02*
D03*
X985039Y874825D02*
D03*
X1158740Y897140D02*
D03*
X1151400Y897500D02*
D03*
X712900Y517200D02*
D03*
X276600Y51100D02*
D03*
X250000Y202400D02*
D03*
X295700Y373700D02*
D03*
X890945Y482677D02*
D03*
X829920Y484251D02*
D03*
X771260Y484252D02*
D03*
X1122835Y846850D02*
D03*
X870866Y100000D02*
D03*
X861737Y121559D02*
D03*
X952756Y852362D02*
D03*
X944882Y848425D02*
D03*
X744095Y382283D02*
D03*
X1022700Y590900D02*
D03*
X980921Y721672D02*
D03*
X71963Y463000D02*
D03*
X71500Y387000D02*
D03*
X71900Y433000D02*
D03*
X72200Y443000D02*
D03*
Y453000D02*
D03*
X71900Y473000D02*
D03*
Y483000D02*
D03*
Y493000D02*
D03*
Y503000D02*
D03*
X40800Y396400D02*
D03*
X36000Y385200D02*
D03*
X18499Y376099D02*
D03*
X24299Y375099D02*
D03*
X14500Y207800D02*
D03*
X55101Y229499D02*
D03*
Y239499D02*
D03*
X55100Y249500D02*
D03*
Y259500D02*
D03*
X65100Y144000D02*
D03*
X69100Y159500D02*
D03*
X83500Y159200D02*
D03*
X609968Y432409D02*
D03*
X395579Y375831D02*
D03*
Y371894D02*
D03*
X216699Y428799D02*
D03*
Y424799D02*
D03*
X1077500Y120700D02*
D03*
X192913Y381890D02*
D03*
X239800Y357800D02*
D03*
X224410Y366142D02*
D03*
X208661Y362205D02*
D03*
X344398Y304964D02*
D03*
X371957Y312838D02*
D03*
X364083Y269531D02*
D03*
X356209Y277405D02*
D03*
X366142Y234142D02*
D03*
X364083Y238035D02*
D03*
X320866Y123953D02*
D03*
X316929Y120016D02*
D03*
X336614Y171260D02*
D03*
Y167323D02*
D03*
X352362Y124016D02*
D03*
X356299Y127953D02*
D03*
X391642Y269531D02*
D03*
Y273468D02*
D03*
X354299Y218799D02*
D03*
X576803Y372047D02*
D03*
X545600Y375200D02*
D03*
X627984Y226378D02*
D03*
X568000Y238400D02*
D03*
X584646Y226378D02*
D03*
X366189Y227793D02*
D03*
X340461Y301027D02*
D03*
Y304964D02*
D03*
X375894Y289216D02*
D03*
X379831D02*
D03*
X399516Y261657D02*
D03*
X403453Y265594D02*
D03*
X438887Y297090D02*
D03*
X442824D02*
D03*
X446729Y336492D02*
D03*
X335000Y531600D02*
D03*
X348800Y517200D02*
D03*
X348000Y521000D02*
D03*
X206800Y874969D02*
D03*
X671000Y221600D02*
D03*
X430200Y522400D02*
D03*
X408400Y521400D02*
D03*
X912400Y63000D02*
D03*
X1190800Y869600D02*
D03*
X274200Y149000D02*
D03*
X273400Y152000D02*
D03*
X183600Y148800D02*
D03*
X181400Y153400D02*
D03*
X900000Y837000D02*
D03*
X961600Y57600D02*
D03*
X878500Y615842D02*
D03*
X573500D02*
D03*
X510500D02*
D03*
X205000D02*
D03*
X512000Y875469D02*
D03*
X574000Y875968D02*
D03*
X880000Y873969D02*
D03*
X900000Y46400D02*
D03*
X964296Y116096D02*
D03*
X902364Y76366D02*
D03*
X997949Y61644D02*
D03*
X988106D02*
D03*
X978264D02*
D03*
X946000Y61600D02*
D03*
X933000Y61200D02*
D03*
X927000Y61800D02*
D03*
X494882Y551181D02*
D03*
X708899Y275099D02*
D03*
X952599Y251699D02*
D03*
X984499Y455399D02*
D03*
X981731Y318278D02*
D03*
X985746Y320246D02*
D03*
X981731Y322215D02*
D03*
X985231Y324031D02*
D03*
X981731Y327278D02*
D03*
X985931Y329246D02*
D03*
X981731Y331215D02*
D03*
X985746Y333183D02*
D03*
X981731Y336278D02*
D03*
X985746Y338246D02*
D03*
X981731Y340215D02*
D03*
X985746Y342183D02*
D03*
X981731Y345278D02*
D03*
X985746Y347246D02*
D03*
X981731Y349215D02*
D03*
X985746Y351183D02*
D03*
X981731Y354278D02*
D03*
X985746Y356246D02*
D03*
Y360183D02*
D03*
X981731Y358215D02*
D03*
Y363278D02*
D03*
X985746Y365246D02*
D03*
X981731Y367215D02*
D03*
X997899Y350699D02*
D03*
Y341699D02*
D03*
Y332699D02*
D03*
Y323699D02*
D03*
Y359699D02*
D03*
X1163599Y811299D02*
D03*
X25299Y107299D02*
D03*
X134787Y860299D02*
D03*
X54699D02*
D03*
X27503Y72299D02*
D03*
X134856Y906849D02*
D03*
X117742Y910589D02*
D03*
X913096Y355502D02*
D03*
X933499Y401699D02*
D03*
X949299Y407099D02*
D03*
X946299Y400099D02*
D03*
X923499Y399899D02*
D03*
X911499Y388099D02*
D03*
X861899Y327299D02*
D03*
X911499Y369899D02*
D03*
X879899Y333099D02*
D03*
X886699Y340099D02*
D03*
X894099Y344099D02*
D03*
X901499Y348899D02*
D03*
X879499Y361499D02*
D03*
X1046099Y288099D02*
D03*
Y290899D02*
D03*
X1059831Y287831D02*
D03*
X955299Y281899D02*
D03*
X955099Y274299D02*
D03*
X954699Y296699D02*
D03*
X944685Y450394D02*
D03*
Y466142D02*
D03*
X941535Y450394D02*
D03*
Y466142D02*
D03*
X938386Y450394D02*
D03*
X954134D02*
D03*
X938386Y466142D02*
D03*
X954134D02*
D03*
X941535Y447244D02*
D03*
X950984D02*
D03*
X941535Y469291D02*
D03*
X950984D02*
D03*
X954134Y447244D02*
D03*
X957283Y450394D02*
D03*
Y466142D02*
D03*
X954134Y469291D02*
D03*
X944685Y444094D02*
D03*
Y472441D02*
D03*
X941535Y444094D02*
D03*
X950984D02*
D03*
X941535Y472441D02*
D03*
X950984D02*
D03*
X957283Y447244D02*
D03*
Y469291D02*
D03*
X938386Y444094D02*
D03*
X932087Y450394D02*
D03*
X960433D02*
D03*
X932087Y466142D02*
D03*
X938386Y472441D02*
D03*
X960433Y466142D02*
D03*
X954134Y472441D02*
D03*
X935236Y444094D02*
D03*
X957283D02*
D03*
X960433Y447244D02*
D03*
Y469291D02*
D03*
X935236Y472441D02*
D03*
X928937Y450394D02*
D03*
Y466142D02*
D03*
X963583Y450394D02*
D03*
Y466142D02*
D03*
X932087Y444094D02*
D03*
Y472441D02*
D03*
X960433D02*
D03*
X928937Y447244D02*
D03*
Y469291D02*
D03*
X963583Y447244D02*
D03*
Y469291D02*
D03*
X925787Y450394D02*
D03*
Y466142D02*
D03*
X966732Y450394D02*
D03*
Y466142D02*
D03*
X928937Y444094D02*
D03*
Y472441D02*
D03*
X966732Y447244D02*
D03*
Y469291D02*
D03*
X925787Y444094D02*
D03*
Y472441D02*
D03*
X969882Y469291D02*
D03*
X922638Y444094D02*
D03*
X969882D02*
D03*
X922638Y472441D02*
D03*
X995840Y221409D02*
D03*
Y225409D02*
D03*
Y229409D02*
D03*
Y233409D02*
D03*
X1011099Y258299D02*
D03*
X1021499D02*
D03*
X1035831Y190631D02*
D03*
X1160699Y82499D02*
D03*
X1086499Y89299D02*
D03*
X1021931Y122918D02*
D03*
X873468Y240299D02*
D03*
X863131Y220299D02*
D03*
X837699Y216899D02*
D03*
X1018299Y172299D02*
D03*
X1013099Y145299D02*
D03*
X904299Y170299D02*
D03*
X899099Y143299D02*
D03*
X902239Y142653D02*
D03*
X960239Y144653D02*
D03*
X957099Y145299D02*
D03*
X962299Y172299D02*
D03*
X906303Y161499D02*
D03*
X965189Y163699D02*
D03*
X1020303Y162299D02*
D03*
X881799Y145299D02*
D03*
X904299Y155699D02*
D03*
X892099Y151899D02*
D03*
X868099Y164499D02*
D03*
X944499Y144099D02*
D03*
X948699Y151099D02*
D03*
X924299Y163899D02*
D03*
X1007409Y152099D02*
D03*
X981899Y164099D02*
D03*
X1012331Y160268D02*
D03*
X956331D02*
D03*
X898331Y158268D02*
D03*
X889299Y149899D02*
D03*
X897773Y78559D02*
D03*
Y82299D02*
D03*
Y86039D02*
D03*
X883445Y114487D02*
D03*
X887185Y112112D02*
D03*
X879705Y120773D02*
D03*
X887185D02*
D03*
X901671Y116252D02*
D03*
X798073Y133252D02*
D03*
X817313Y110394D02*
D03*
Y122205D02*
D03*
X808100Y90957D02*
D03*
X790987Y94697D02*
D03*
X762299Y143499D02*
D03*
X760499Y194899D02*
D03*
X794099Y160099D02*
D03*
X733899Y148099D02*
D03*
Y150899D02*
D03*
X754331Y154699D02*
D03*
X757899Y214699D02*
D03*
X685899Y482099D02*
D03*
X495668Y157739D02*
D03*
X494799Y160079D02*
D03*
X482194Y245909D02*
D03*
X486131D02*
D03*
X555502Y178902D02*
D03*
X553248Y177248D02*
D03*
X563799Y178859D02*
D03*
Y176519D02*
D03*
X454635Y253783D02*
D03*
X438887Y261657D02*
D03*
Y257720D02*
D03*
X307699Y237099D02*
D03*
X312499Y238099D02*
D03*
X371957Y285279D02*
D03*
Y289216D02*
D03*
X332587Y293153D02*
D03*
X183399Y339099D02*
D03*
X189199D02*
D03*
X210999Y339199D02*
D03*
X242199Y317469D02*
D03*
Y315129D02*
D03*
X233668Y339299D02*
D03*
X403453Y375831D02*
D03*
X317327Y373229D02*
D03*
X312902Y257720D02*
D03*
Y253783D02*
D03*
Y312838D02*
D03*
X307909Y315646D02*
D03*
X312902Y304964D02*
D03*
Y301027D02*
D03*
Y297090D02*
D03*
Y277405D02*
D03*
Y265594D02*
D03*
Y261657D02*
D03*
Y245909D02*
D03*
Y241972D02*
D03*
Y340398D02*
D03*
Y336461D02*
D03*
X313093Y328614D02*
D03*
X312902Y324650D02*
D03*
X403453Y269531D02*
D03*
X360146Y245909D02*
D03*
X364083Y253783D02*
D03*
Y245909D02*
D03*
X356209Y241972D02*
D03*
X336524Y249846D02*
D03*
X318808Y314807D02*
D03*
Y318744D02*
D03*
Y310870D02*
D03*
Y306933D02*
D03*
Y299059D02*
D03*
Y295122D02*
D03*
Y291185D02*
D03*
Y287248D02*
D03*
Y279374D02*
D03*
Y271500D02*
D03*
Y267563D02*
D03*
Y259689D02*
D03*
Y255752D02*
D03*
Y251815D02*
D03*
Y247878D02*
D03*
X324313Y283311D02*
D03*
Y243941D02*
D03*
X342430Y233698D02*
D03*
X381800D02*
D03*
X415265Y245909D02*
D03*
X411328D02*
D03*
X415265Y249846D02*
D03*
Y253783D02*
D03*
X411328D02*
D03*
Y257720D02*
D03*
X415265D02*
D03*
Y261657D02*
D03*
X411328D02*
D03*
Y265594D02*
D03*
X415265D02*
D03*
Y269531D02*
D03*
X411328D02*
D03*
Y273468D02*
D03*
X415265D02*
D03*
X411328Y277405D02*
D03*
Y281342D02*
D03*
X415265D02*
D03*
Y285279D02*
D03*
X411328Y289216D02*
D03*
X415265Y293153D02*
D03*
Y301027D02*
D03*
Y308901D02*
D03*
Y312838D02*
D03*
X352272Y245909D02*
D03*
X348335D02*
D03*
X344398D02*
D03*
X340461D02*
D03*
X336524D02*
D03*
Y253783D02*
D03*
X340461Y249846D02*
D03*
X344398Y253783D02*
D03*
X348335D02*
D03*
Y249846D02*
D03*
X352272Y253783D02*
D03*
X356209D02*
D03*
X364083Y249846D02*
D03*
Y257720D02*
D03*
X360146Y253783D02*
D03*
Y257720D02*
D03*
X356209D02*
D03*
X348335D02*
D03*
X340461D02*
D03*
X336524D02*
D03*
Y261657D02*
D03*
X340461D02*
D03*
X344398D02*
D03*
X348335D02*
D03*
X352272D02*
D03*
X356209D02*
D03*
X364083Y265594D02*
D03*
X360146D02*
D03*
X356209D02*
D03*
X352272D02*
D03*
X348335D02*
D03*
X344398D02*
D03*
X340461D02*
D03*
X336524Y269531D02*
D03*
X340461D02*
D03*
X344398D02*
D03*
X352272D02*
D03*
X356209D02*
D03*
X364083Y273468D02*
D03*
X360146Y269531D02*
D03*
X356209Y273468D02*
D03*
X352272D02*
D03*
X348335D02*
D03*
X344398D02*
D03*
X340461D02*
D03*
X336524Y277405D02*
D03*
X340461D02*
D03*
X344398D02*
D03*
X348335D02*
D03*
X352272D02*
D03*
X364083D02*
D03*
Y281342D02*
D03*
X360146D02*
D03*
X356209D02*
D03*
X352272D02*
D03*
X348335D02*
D03*
X340461D02*
D03*
X336524D02*
D03*
Y285279D02*
D03*
X340461D02*
D03*
X344398D02*
D03*
X348335D02*
D03*
X352272D02*
D03*
X360146D02*
D03*
X364083D02*
D03*
Y289216D02*
D03*
X360146D02*
D03*
X356209D02*
D03*
X352272D02*
D03*
X348335D02*
D03*
X344398D02*
D03*
X340461D02*
D03*
X336524D02*
D03*
X371957Y245909D02*
D03*
X375894D02*
D03*
X379831D02*
D03*
X383768D02*
D03*
X387705D02*
D03*
X391642D02*
D03*
X399516D02*
D03*
X403453D02*
D03*
Y249846D02*
D03*
X399516D02*
D03*
X395579D02*
D03*
X391642D02*
D03*
X387705D02*
D03*
X383768D02*
D03*
X379831D02*
D03*
X375894D02*
D03*
X371957D02*
D03*
X368020Y253783D02*
D03*
X371957D02*
D03*
X375894D02*
D03*
X383768D02*
D03*
X387705D02*
D03*
X391642D02*
D03*
X395579D02*
D03*
X399516D02*
D03*
X403453D02*
D03*
Y257720D02*
D03*
X399516D02*
D03*
X395579D02*
D03*
X387705D02*
D03*
X383768D02*
D03*
X379831D02*
D03*
X375894D02*
D03*
X371957D02*
D03*
X368020D02*
D03*
Y261657D02*
D03*
X371957D02*
D03*
X375894D02*
D03*
X379831D02*
D03*
X383768D02*
D03*
X387705D02*
D03*
X391642D02*
D03*
X395579D02*
D03*
X399516Y265594D02*
D03*
X395579D02*
D03*
X391642D02*
D03*
X387705D02*
D03*
X383768D02*
D03*
X379831D02*
D03*
X371957D02*
D03*
X368020D02*
D03*
Y269531D02*
D03*
X371957D02*
D03*
X375894D02*
D03*
X379831D02*
D03*
X383768D02*
D03*
X395579D02*
D03*
X399516D02*
D03*
X403453Y273468D02*
D03*
X395579D02*
D03*
X387705D02*
D03*
X383768D02*
D03*
X379831D02*
D03*
X371957D02*
D03*
X368020D02*
D03*
Y277405D02*
D03*
X379831D02*
D03*
X383768D02*
D03*
X387705D02*
D03*
X391642D02*
D03*
X395579D02*
D03*
X399516D02*
D03*
X403453D02*
D03*
Y281342D02*
D03*
X391642D02*
D03*
X387705D02*
D03*
X375894D02*
D03*
Y285279D02*
D03*
X379831D02*
D03*
X387705D02*
D03*
X395579D02*
D03*
X403453D02*
D03*
X399516Y289216D02*
D03*
X391642D02*
D03*
X383768D02*
D03*
X371957Y293153D02*
D03*
X387705D02*
D03*
X395579D02*
D03*
X403453D02*
D03*
X411328Y297090D02*
D03*
X399516D02*
D03*
X391642D02*
D03*
X375894D02*
D03*
X371957D02*
D03*
X387705Y301027D02*
D03*
X395579D02*
D03*
X403453D02*
D03*
X411328Y304964D02*
D03*
X399516D02*
D03*
X391642D02*
D03*
X371957D02*
D03*
X403453Y308901D02*
D03*
X395579D02*
D03*
X387705D02*
D03*
X375894D02*
D03*
X371957D02*
D03*
X375894Y312838D02*
D03*
X391642D02*
D03*
X344398Y293153D02*
D03*
X348335D02*
D03*
X352272D02*
D03*
X356209D02*
D03*
X360146D02*
D03*
X364083D02*
D03*
X368020D02*
D03*
Y297090D02*
D03*
X364083D02*
D03*
X360146D02*
D03*
X356209D02*
D03*
X348335D02*
D03*
X344398D02*
D03*
X336524D02*
D03*
Y301027D02*
D03*
X344398D02*
D03*
X348335D02*
D03*
X352272D02*
D03*
X356209D02*
D03*
X360146D02*
D03*
X368020D02*
D03*
Y304964D02*
D03*
X364083D02*
D03*
X360146D02*
D03*
X356209D02*
D03*
X352272D02*
D03*
X348335D02*
D03*
X336524Y308901D02*
D03*
X340461D02*
D03*
X344398D02*
D03*
X352272D02*
D03*
X356209D02*
D03*
X360146D02*
D03*
X364083D02*
D03*
X368020D02*
D03*
Y312838D02*
D03*
X364083D02*
D03*
X356209D02*
D03*
X352272D02*
D03*
X348335D02*
D03*
X344398D02*
D03*
X340461D02*
D03*
X336524D02*
D03*
X328650Y281342D02*
D03*
Y273468D02*
D03*
Y293153D02*
D03*
Y308901D02*
D03*
Y269531D02*
D03*
X352272Y238035D02*
D03*
X391642D02*
D03*
X332587Y312838D02*
D03*
Y308901D02*
D03*
Y304964D02*
D03*
Y301027D02*
D03*
Y297090D02*
D03*
Y289216D02*
D03*
Y281342D02*
D03*
Y273468D02*
D03*
Y269531D02*
D03*
Y265594D02*
D03*
Y261657D02*
D03*
Y257720D02*
D03*
Y253783D02*
D03*
Y249846D02*
D03*
Y245909D02*
D03*
Y241972D02*
D03*
X336524D02*
D03*
X340461D02*
D03*
X348335D02*
D03*
X352272D02*
D03*
X360146D02*
D03*
X364083D02*
D03*
X368020D02*
D03*
X371957D02*
D03*
X375894D02*
D03*
X379831D02*
D03*
X387705D02*
D03*
X391642D02*
D03*
X395579D02*
D03*
X399516D02*
D03*
X403453D02*
D03*
X415265D02*
D03*
X375894Y273468D02*
D03*
Y277405D02*
D03*
X379831Y281342D02*
D03*
X383768Y285279D02*
D03*
X395579Y281342D02*
D03*
X399516D02*
D03*
X417233Y228193D02*
D03*
X409359D02*
D03*
X403453Y222287D02*
D03*
X399516D02*
D03*
X395579D02*
D03*
X387705D02*
D03*
X383768D02*
D03*
X379831D02*
D03*
X375894D02*
D03*
X368020D02*
D03*
X360146D02*
D03*
X405422Y228193D02*
D03*
X397548D02*
D03*
X393611D02*
D03*
X389674D02*
D03*
X385737D02*
D03*
X377863D02*
D03*
X373926D02*
D03*
X369989D02*
D03*
X358178D02*
D03*
X346367D02*
D03*
X350304Y228946D02*
D03*
X346309Y225046D02*
D03*
X358309Y225446D02*
D03*
X344398Y222287D02*
D03*
X340461D02*
D03*
X336524D02*
D03*
X338493Y228193D02*
D03*
X334556D02*
D03*
X330619D02*
D03*
X318808Y338429D02*
D03*
Y334492D02*
D03*
Y330555D02*
D03*
Y326618D02*
D03*
X356209Y344335D02*
D03*
X352272D02*
D03*
X356209Y340398D02*
D03*
X348335D02*
D03*
X356209Y336461D02*
D03*
X352272D02*
D03*
X348335D02*
D03*
X344359Y352221D02*
D03*
X427076Y289216D02*
D03*
X423139Y293153D02*
D03*
X431013D02*
D03*
X324313Y322681D02*
D03*
X421170Y233698D02*
D03*
X460540Y233898D02*
D03*
X490668Y271500D02*
D03*
X446761Y356146D02*
D03*
X462509Y352209D02*
D03*
X454635D02*
D03*
X450698D02*
D03*
X446761D02*
D03*
Y348272D02*
D03*
X450698D02*
D03*
X454635D02*
D03*
X462509D02*
D03*
X466446D02*
D03*
X474320D02*
D03*
X466446Y344335D02*
D03*
X462509D02*
D03*
X458572D02*
D03*
X454635D02*
D03*
X450698D02*
D03*
X446761Y340398D02*
D03*
X450698D02*
D03*
X454635D02*
D03*
X458572D02*
D03*
X462509D02*
D03*
X466446D02*
D03*
X470383D02*
D03*
X474320Y336461D02*
D03*
X466446D02*
D03*
X458572D02*
D03*
X446761Y332524D02*
D03*
X454635Y336461D02*
D03*
X450698D02*
D03*
X454635Y332524D02*
D03*
X458572D02*
D03*
X462509D02*
D03*
X466446D02*
D03*
X470383D02*
D03*
X474320D02*
D03*
Y324650D02*
D03*
X470383D02*
D03*
Y328587D02*
D03*
X466446D02*
D03*
X462509Y324650D02*
D03*
Y328587D02*
D03*
X458572D02*
D03*
Y324650D02*
D03*
X454635D02*
D03*
Y328587D02*
D03*
X450698D02*
D03*
Y324650D02*
D03*
X446761D02*
D03*
Y328587D02*
D03*
X474320Y320713D02*
D03*
X466446D02*
D03*
X458572D02*
D03*
X450698D02*
D03*
X446761D02*
D03*
Y312838D02*
D03*
X450698D02*
D03*
X454635D02*
D03*
X458572D02*
D03*
X466446D02*
D03*
X474320D02*
D03*
Y308901D02*
D03*
X466446D02*
D03*
X458572D02*
D03*
X454635D02*
D03*
X450698D02*
D03*
X446761D02*
D03*
X450698Y304964D02*
D03*
X470383D02*
D03*
X466446D02*
D03*
X474320D02*
D03*
Y301027D02*
D03*
X470383D02*
D03*
X462509D02*
D03*
X458572D02*
D03*
X454635D02*
D03*
X450698D02*
D03*
X446761Y297090D02*
D03*
X450698D02*
D03*
X454635D02*
D03*
X458572D02*
D03*
X462509D02*
D03*
X466446D02*
D03*
X474320Y293153D02*
D03*
X470383D02*
D03*
X466446D02*
D03*
X458572D02*
D03*
X454635D02*
D03*
X450698D02*
D03*
X446761D02*
D03*
Y289216D02*
D03*
X454635D02*
D03*
X458572D02*
D03*
X462509D02*
D03*
X466446D02*
D03*
X470383D02*
D03*
X474320D02*
D03*
Y285279D02*
D03*
X470383D02*
D03*
X466446D02*
D03*
X462509D02*
D03*
X458572D02*
D03*
X454635D02*
D03*
X450698D02*
D03*
X446761D02*
D03*
Y249846D02*
D03*
Y253783D02*
D03*
Y257720D02*
D03*
Y265594D02*
D03*
Y269531D02*
D03*
Y273468D02*
D03*
Y277405D02*
D03*
Y281342D02*
D03*
X450698D02*
D03*
X454635D02*
D03*
X458572D02*
D03*
X470383D02*
D03*
X474320D02*
D03*
Y277405D02*
D03*
X470383D02*
D03*
X466446D02*
D03*
X462509D02*
D03*
X458572D02*
D03*
X450698D02*
D03*
Y273468D02*
D03*
X454635D02*
D03*
X458572D02*
D03*
X462509D02*
D03*
X466446D02*
D03*
X470383D02*
D03*
X474320D02*
D03*
Y269531D02*
D03*
X466446D02*
D03*
X462509D02*
D03*
X458572D02*
D03*
X454635D02*
D03*
X450698D02*
D03*
Y265594D02*
D03*
X454635D02*
D03*
X462509D02*
D03*
X466446D02*
D03*
X470383D02*
D03*
X474320D02*
D03*
Y261657D02*
D03*
X470383D02*
D03*
X466446D02*
D03*
X462509D02*
D03*
X458572D02*
D03*
X454635D02*
D03*
X450698D02*
D03*
Y257720D02*
D03*
X454635D02*
D03*
X458572D02*
D03*
X462509D02*
D03*
X466446D02*
D03*
X470383D02*
D03*
X474320Y253783D02*
D03*
X470383D02*
D03*
X466446D02*
D03*
X458572D02*
D03*
X450698D02*
D03*
X454635Y249846D02*
D03*
X458572D02*
D03*
X462509D02*
D03*
X466446D02*
D03*
X470383D02*
D03*
X474320D02*
D03*
Y245909D02*
D03*
X470383D02*
D03*
X466446D02*
D03*
X462509D02*
D03*
X458572D02*
D03*
X454635D02*
D03*
X446761D02*
D03*
X450698D02*
D03*
X442824D02*
D03*
X434950D02*
D03*
X431013D02*
D03*
X427076D02*
D03*
X423139D02*
D03*
X419202D02*
D03*
Y249846D02*
D03*
X423139D02*
D03*
X427076D02*
D03*
X431013D02*
D03*
X434950D02*
D03*
X438887D02*
D03*
X442824D02*
D03*
Y253783D02*
D03*
X438887D02*
D03*
X434950D02*
D03*
X431013D02*
D03*
X427076D02*
D03*
X419202D02*
D03*
X423139Y257720D02*
D03*
X427076D02*
D03*
X431013D02*
D03*
X442824D02*
D03*
Y261657D02*
D03*
X434950D02*
D03*
X431013D02*
D03*
X427076D02*
D03*
X423139D02*
D03*
X419202D02*
D03*
X423139Y265594D02*
D03*
X427076D02*
D03*
X431013D02*
D03*
X434950D02*
D03*
X438887D02*
D03*
X442824D02*
D03*
Y269531D02*
D03*
X438887D02*
D03*
X434950D02*
D03*
X427076D02*
D03*
X423139D02*
D03*
X419202D02*
D03*
Y273468D02*
D03*
X423139D02*
D03*
X427076D02*
D03*
X431013D02*
D03*
X434950D02*
D03*
X438887D02*
D03*
X442824Y277405D02*
D03*
X438887D02*
D03*
X434950D02*
D03*
X431013D02*
D03*
X427076D02*
D03*
X423139D02*
D03*
X419202D02*
D03*
Y281342D02*
D03*
X423139D02*
D03*
X431013D02*
D03*
X434950D02*
D03*
X438887D02*
D03*
X442824D02*
D03*
Y285279D02*
D03*
X434950D02*
D03*
X431013D02*
D03*
X423139D02*
D03*
X419202D02*
D03*
Y289216D02*
D03*
X431013D02*
D03*
X434950D02*
D03*
X438887D02*
D03*
X442824D02*
D03*
Y293153D02*
D03*
X438887D02*
D03*
X434950D02*
D03*
X419202Y297090D02*
D03*
X427076D02*
D03*
X442824Y301027D02*
D03*
X438887D02*
D03*
X434950D02*
D03*
X431013D02*
D03*
X423139D02*
D03*
X419202Y304964D02*
D03*
X427076D02*
D03*
X434950D02*
D03*
X438887D02*
D03*
X442824D02*
D03*
Y308901D02*
D03*
X438887D02*
D03*
X434950D02*
D03*
X431013D02*
D03*
X423139D02*
D03*
X419202Y312838D02*
D03*
X427076D02*
D03*
X434950D02*
D03*
X438887D02*
D03*
X442824Y320713D02*
D03*
X438887D02*
D03*
X434950D02*
D03*
X431013D02*
D03*
X423139D02*
D03*
X411328Y324650D02*
D03*
X419202D02*
D03*
X427076D02*
D03*
X434950D02*
D03*
X438887D02*
D03*
X442824D02*
D03*
Y328587D02*
D03*
X431013D02*
D03*
X423139D02*
D03*
X415265D02*
D03*
X411328Y332524D02*
D03*
X419202D02*
D03*
X427076D02*
D03*
X434950D02*
D03*
X438887D02*
D03*
X442824D02*
D03*
Y336461D02*
D03*
X438887D02*
D03*
X431013D02*
D03*
X423139D02*
D03*
X415265D02*
D03*
X411328Y340398D02*
D03*
X419202D02*
D03*
X427076D02*
D03*
X438887D02*
D03*
X442824D02*
D03*
Y344335D02*
D03*
X438887D02*
D03*
X431013D02*
D03*
X423139D02*
D03*
X415265D02*
D03*
X411328Y348272D02*
D03*
X419202D02*
D03*
X427076D02*
D03*
X434950D02*
D03*
X438887D02*
D03*
X442824D02*
D03*
Y352209D02*
D03*
X438887D02*
D03*
X431013D02*
D03*
X423139D02*
D03*
X415265D02*
D03*
X411328Y356146D02*
D03*
X419202D02*
D03*
X427076D02*
D03*
X434950D02*
D03*
X442824Y360083D02*
D03*
X434950D02*
D03*
X423139D02*
D03*
X415265D02*
D03*
X399516Y320713D02*
D03*
X395579D02*
D03*
X387705D02*
D03*
X375894D02*
D03*
X371957Y324650D02*
D03*
X375894D02*
D03*
X391642D02*
D03*
X399516D02*
D03*
X403453Y328587D02*
D03*
X395579D02*
D03*
X387705D02*
D03*
X371957D02*
D03*
X399516Y332524D02*
D03*
X403453Y336461D02*
D03*
X395579D02*
D03*
X399516Y340398D02*
D03*
X403453Y344335D02*
D03*
X395579D02*
D03*
X399516Y348272D02*
D03*
X403453Y352209D02*
D03*
X395579D02*
D03*
X399516Y356146D02*
D03*
X403453Y360083D02*
D03*
X395579D02*
D03*
X336524Y320713D02*
D03*
X340461D02*
D03*
X344398D02*
D03*
X348335D02*
D03*
X352272D02*
D03*
X356209D02*
D03*
X360146D02*
D03*
X364083D02*
D03*
X368020D02*
D03*
Y324650D02*
D03*
X364083D02*
D03*
X360146D02*
D03*
X356209D02*
D03*
X352272D02*
D03*
X348335D02*
D03*
X340461D02*
D03*
X336524D02*
D03*
Y328587D02*
D03*
X340461D02*
D03*
X344398D02*
D03*
X348335D02*
D03*
X352272D02*
D03*
X360146D02*
D03*
X364083D02*
D03*
X368020D02*
D03*
X364083Y332524D02*
D03*
X356209D02*
D03*
X352272D02*
D03*
X348335D02*
D03*
X344398D02*
D03*
X336524D02*
D03*
X344398Y336461D02*
D03*
X340461Y348272D02*
D03*
X336524Y352209D02*
D03*
X450698Y371894D02*
D03*
X438887Y238035D02*
D03*
X442824D02*
D03*
X458572D02*
D03*
X470383D02*
D03*
X482194D02*
D03*
X328650Y320713D02*
D03*
X434950Y238035D02*
D03*
X474320D02*
D03*
X486131Y241972D02*
D03*
Y281342D02*
D03*
X332587Y324650D02*
D03*
X419202Y241972D02*
D03*
X431013D02*
D03*
X434950D02*
D03*
X438887D02*
D03*
X442824D02*
D03*
X446761D02*
D03*
X450698D02*
D03*
X454635D02*
D03*
X458572D02*
D03*
X462509D02*
D03*
X470383D02*
D03*
X474320D02*
D03*
X482194D02*
D03*
X478257D02*
D03*
Y249846D02*
D03*
X482194D02*
D03*
Y253783D02*
D03*
X478257D02*
D03*
Y257720D02*
D03*
X482194D02*
D03*
Y261657D02*
D03*
X478257D02*
D03*
X482194Y265594D02*
D03*
X478257D02*
D03*
X482194Y269531D02*
D03*
X478257D02*
D03*
Y273468D02*
D03*
X482194Y277405D02*
D03*
X478257D02*
D03*
X482194Y281342D02*
D03*
X478257D02*
D03*
X482194Y285279D02*
D03*
Y289216D02*
D03*
X478257D02*
D03*
Y293153D02*
D03*
X482194D02*
D03*
Y297090D02*
D03*
X478257D02*
D03*
Y301027D02*
D03*
Y324650D02*
D03*
X317309Y370846D02*
D03*
X320776Y348272D02*
D03*
Y356146D02*
D03*
X495973Y348272D02*
D03*
X501879Y346303D02*
D03*
X495899Y340472D02*
D03*
Y336535D02*
D03*
Y332598D02*
D03*
Y328661D02*
D03*
X501879Y342366D02*
D03*
Y338429D02*
D03*
Y334492D02*
D03*
Y326618D02*
D03*
Y322681D02*
D03*
Y318744D02*
D03*
Y314807D02*
D03*
Y308902D02*
D03*
Y304965D02*
D03*
X495973Y299059D02*
D03*
X501879Y297090D02*
D03*
X495973Y295122D02*
D03*
Y302996D02*
D03*
X490668Y310870D02*
D03*
X470383Y348272D02*
D03*
X495973Y312445D02*
D03*
X450698Y356146D02*
D03*
Y360083D02*
D03*
X442824Y364020D02*
D03*
X454635Y356146D02*
D03*
X458572Y352209D02*
D03*
Y356146D02*
D03*
Y360083D02*
D03*
X466446Y352209D02*
D03*
Y356146D02*
D03*
X474320Y352209D02*
D03*
Y356146D02*
D03*
X399516Y364020D02*
D03*
X419202D02*
D03*
X434950D02*
D03*
X431013D02*
D03*
X438887D02*
D03*
X446761Y360083D02*
D03*
Y364020D02*
D03*
X454635D02*
D03*
X462509Y356146D02*
D03*
X470383D02*
D03*
X478257Y340398D02*
D03*
Y352209D02*
D03*
Y356146D02*
D03*
X411328Y364020D02*
D03*
X495973Y279374D02*
D03*
Y275437D02*
D03*
Y267563D02*
D03*
Y263626D02*
D03*
Y259689D02*
D03*
Y255752D02*
D03*
X501879Y253783D02*
D03*
X501926Y249877D02*
D03*
X495973Y247878D02*
D03*
Y243941D02*
D03*
Y240004D02*
D03*
X492036Y236067D02*
D03*
X501926Y238066D02*
D03*
X478226Y222240D02*
D03*
X476288Y228193D02*
D03*
X472351D02*
D03*
X468414D02*
D03*
X464477D02*
D03*
X456603D02*
D03*
X452666D02*
D03*
X448729D02*
D03*
X444792D02*
D03*
X436918D02*
D03*
X432981D02*
D03*
X429044D02*
D03*
X425107D02*
D03*
X466446Y222287D02*
D03*
X431013D02*
D03*
X427076D02*
D03*
X423139D02*
D03*
X419202D02*
D03*
X495973Y287248D02*
D03*
X495783Y283446D02*
D03*
X501879Y257720D02*
D03*
X493611Y287248D02*
D03*
X501879Y265594D02*
D03*
X493217Y279374D02*
D03*
X499910Y291972D02*
D03*
X502666D02*
D03*
X500304Y269531D02*
D03*
X493217Y275437D02*
D03*
X450698Y222287D02*
D03*
X446761D02*
D03*
X462509Y238035D02*
D03*
X423139Y241972D02*
D03*
X419202Y257720D02*
D03*
X411328Y241972D02*
D03*
X407341Y222229D02*
D03*
X340551Y391732D02*
D03*
X332677D02*
D03*
X340551Y387795D02*
D03*
X336614D02*
D03*
X332677D02*
D03*
X328740Y383858D02*
D03*
Y379921D02*
D03*
X336614D02*
D03*
X340551D02*
D03*
X344488D02*
D03*
X328740Y387795D02*
D03*
X348425D02*
D03*
X352362D02*
D03*
X356299Y391732D02*
D03*
X360236Y387795D02*
D03*
X364173Y391732D02*
D03*
Y387795D02*
D03*
X368110D02*
D03*
X379921Y391732D02*
D03*
X375984Y387795D02*
D03*
X368110Y383858D02*
D03*
X375984Y379921D02*
D03*
X372047Y387795D02*
D03*
X368110Y379921D02*
D03*
X399969Y387799D02*
D03*
X395591Y406399D02*
D03*
X356221D02*
D03*
X356299Y387795D02*
D03*
X348425Y391732D02*
D03*
X352362Y383858D02*
D03*
Y379921D02*
D03*
X344488Y387795D02*
D03*
X336614Y383858D02*
D03*
X344488D02*
D03*
X375984D02*
D03*
X348347Y406399D02*
D03*
Y408799D02*
D03*
X356221D02*
D03*
X364099Y409199D02*
D03*
X478424Y406399D02*
D03*
X470550Y408799D02*
D03*
X462676D02*
D03*
Y406399D02*
D03*
X454802Y408799D02*
D03*
Y406399D02*
D03*
X446928Y408799D02*
D03*
Y406399D02*
D03*
X439054Y408799D02*
D03*
Y406399D02*
D03*
X431180Y408799D02*
D03*
Y406399D02*
D03*
X423306Y408799D02*
D03*
X415432D02*
D03*
Y406399D02*
D03*
X395591Y408799D02*
D03*
X387717D02*
D03*
Y406399D02*
D03*
X379843Y408799D02*
D03*
Y406399D02*
D03*
X371969Y408799D02*
D03*
Y406399D02*
D03*
X340473Y408799D02*
D03*
Y406399D02*
D03*
X332599Y408799D02*
D03*
X317299Y386699D02*
D03*
X317317Y389083D02*
D03*
X486221Y379921D02*
D03*
X403543Y391732D02*
D03*
X415354D02*
D03*
X423228D02*
D03*
X431102D02*
D03*
X438976D02*
D03*
X446850D02*
D03*
X454724D02*
D03*
X482284Y387795D02*
D03*
X450787D02*
D03*
X446850D02*
D03*
X442913D02*
D03*
X438976D02*
D03*
X435039D02*
D03*
X431102D02*
D03*
X423228D02*
D03*
X419291D02*
D03*
X415354D02*
D03*
X411417D02*
D03*
X403543D02*
D03*
X395669D02*
D03*
X383858Y383858D02*
D03*
Y379921D02*
D03*
X391732Y383858D02*
D03*
Y379921D02*
D03*
X399606Y383858D02*
D03*
Y379921D02*
D03*
X411417Y383858D02*
D03*
Y379921D02*
D03*
X419291Y383858D02*
D03*
Y379921D02*
D03*
X427165Y383858D02*
D03*
Y379921D02*
D03*
X435039Y383858D02*
D03*
Y379921D02*
D03*
X438976D02*
D03*
X442913Y383858D02*
D03*
Y379921D02*
D03*
X450787Y383858D02*
D03*
X508799Y366331D02*
D03*
X332599Y406399D02*
D03*
X478424Y408799D02*
D03*
X470550Y406399D02*
D03*
X423306D02*
D03*
X387795Y387795D02*
D03*
X360236Y379921D02*
D03*
X356299D02*
D03*
X379921Y387795D02*
D03*
X372047Y391732D02*
D03*
X391732Y387795D02*
D03*
X360236Y383858D02*
D03*
X324725Y408799D02*
D03*
Y406399D02*
D03*
X314499Y381099D02*
D03*
X395669Y391732D02*
D03*
X387795D02*
D03*
X364095Y406399D02*
D03*
X706931Y144799D02*
D03*
X717668D02*
D03*
X678430Y188559D02*
D03*
X662289Y188642D02*
D03*
X662568Y196039D02*
D03*
X678430Y192299D02*
D03*
Y196039D02*
D03*
X641854Y140945D02*
D03*
X639499Y140599D02*
D03*
X637006Y140550D02*
D03*
X646999Y172699D02*
D03*
X644499D02*
D03*
X641999D02*
D03*
X639499D02*
D03*
X619499Y118699D02*
D03*
X612299Y117099D02*
D03*
X606299Y105099D02*
D03*
X634699D02*
D03*
X637099Y113499D02*
D03*
X635699Y110299D02*
D03*
X594299Y116099D02*
D03*
X582299Y120099D02*
D03*
X616734Y192299D02*
D03*
X627668D02*
D03*
X606899Y201099D02*
D03*
X589699D02*
D03*
X548819Y222047D02*
D03*
X595038Y271260D02*
D03*
X600000D02*
D03*
X670499Y469799D02*
D03*
X617499Y446699D02*
D03*
X669699Y446899D02*
D03*
X571263Y526899D02*
D03*
Y529299D02*
D03*
X563783Y526899D02*
D03*
Y529299D02*
D03*
X864699Y507132D02*
D03*
X794699Y458441D02*
D03*
X799699D02*
D03*
X804699D02*
D03*
X789899D02*
D03*
X886315Y287256D02*
D03*
X539324Y392126D02*
D03*
X604331Y383858D02*
D03*
Y340551D02*
D03*
X596457Y344488D02*
D03*
X592520Y340551D02*
D03*
X596457D02*
D03*
X620470Y280707D02*
D03*
X621260Y314961D02*
D03*
X600787Y311811D02*
D03*
X601213Y306331D02*
D03*
X597781Y283071D02*
D03*
X588464Y290306D02*
D03*
X577727D02*
D03*
X605400Y318724D02*
D03*
X587008Y313923D02*
D03*
X927764Y865899D02*
D03*
X1038000D02*
D03*
X921330Y875299D02*
D03*
X1011830Y875599D02*
D03*
X1019830D02*
D03*
X1031630D02*
D03*
X1039630Y875799D02*
D03*
X948930Y875299D02*
D03*
X940930D02*
D03*
X929330D02*
D03*
X1040740Y865899D02*
D03*
X1032866D02*
D03*
X1030126D02*
D03*
X1021055D02*
D03*
X1018315D02*
D03*
X1013181D02*
D03*
X1010441D02*
D03*
X1023622Y856299D02*
D03*
X922630Y865899D02*
D03*
X919890D02*
D03*
X930504D02*
D03*
X942315D02*
D03*
X939575D02*
D03*
X947449D02*
D03*
X950189D02*
D03*
X602699Y570699D02*
D03*
Y567499D02*
D03*
X595199Y570699D02*
D03*
Y567499D02*
D03*
X587699Y570699D02*
D03*
Y567499D02*
D03*
X580199D02*
D03*
Y570699D02*
D03*
X562699Y567499D02*
D03*
X555199D02*
D03*
X555124Y529296D02*
D03*
X550244D02*
D03*
X664199Y570699D02*
D03*
Y567499D02*
D03*
X671699D02*
D03*
Y570699D02*
D03*
X679199Y567499D02*
D03*
Y570699D02*
D03*
X686699Y567499D02*
D03*
Y570699D02*
D03*
X631699D02*
D03*
Y567499D02*
D03*
X639199D02*
D03*
Y570699D02*
D03*
X646699Y567499D02*
D03*
Y570699D02*
D03*
X654199Y567499D02*
D03*
Y570699D02*
D03*
X570199D02*
D03*
Y567499D02*
D03*
X562699Y570699D02*
D03*
X555199D02*
D03*
X547699Y567499D02*
D03*
Y570699D02*
D03*
X189764Y568898D02*
D03*
X187008D02*
D03*
X182216D02*
D03*
X271008D02*
D03*
X273764D02*
D03*
X278508D02*
D03*
X281264D02*
D03*
X286008D02*
D03*
X288764D02*
D03*
X298764D02*
D03*
X296008D02*
D03*
X306264D02*
D03*
X303508D02*
D03*
X313764D02*
D03*
X311008D02*
D03*
X266264D02*
D03*
X263508D02*
D03*
X237264D02*
D03*
X234508D02*
D03*
X222264D02*
D03*
X219508D02*
D03*
X214764D02*
D03*
X197264D02*
D03*
X194508D02*
D03*
X263786Y529099D02*
D03*
X266386D02*
D03*
X273866D02*
D03*
X271266D02*
D03*
X281340D02*
D03*
X278740D02*
D03*
X288820D02*
D03*
X286220D02*
D03*
X298663D02*
D03*
X296063D02*
D03*
X306143D02*
D03*
X303543D02*
D03*
X313624D02*
D03*
X311024D02*
D03*
X321104D02*
D03*
X318504D02*
D03*
X557724Y529296D02*
D03*
X237217Y529099D02*
D03*
X229737D02*
D03*
X222257D02*
D03*
X214776D02*
D03*
X186980D02*
D03*
X189580D02*
D03*
X216699Y440799D02*
D03*
Y444799D02*
D03*
X194499Y451431D02*
D03*
X196699Y421299D02*
D03*
X206899Y461031D02*
D03*
X321264Y568898D02*
D03*
X318508D02*
D03*
X229764D02*
D03*
X227008D02*
D03*
X212008D02*
D03*
X204764D02*
D03*
X202008D02*
D03*
X179476D02*
D03*
X26299Y362299D02*
D03*
X46299Y329799D02*
D03*
X776425Y326614D02*
D03*
Y362047D02*
D03*
Y330551D02*
D03*
X933071Y856299D02*
D03*
X948819Y852362D02*
D03*
X944882D02*
D03*
X940945D02*
D03*
X933071D02*
D03*
X929134D02*
D03*
X921260D02*
D03*
X925197D02*
D03*
Y848425D02*
D03*
X940945D02*
D03*
X948819D02*
D03*
X952756D02*
D03*
Y844488D02*
D03*
X948819D02*
D03*
X944882D02*
D03*
X925197D02*
D03*
X921260D02*
D03*
Y848425D02*
D03*
X917323D02*
D03*
Y844488D02*
D03*
Y840551D02*
D03*
X921260D02*
D03*
X925197D02*
D03*
X944882Y836614D02*
D03*
Y840551D02*
D03*
X948819D02*
D03*
Y836614D02*
D03*
X952756Y840551D02*
D03*
X917323Y805118D02*
D03*
X925197Y832677D02*
D03*
X921260D02*
D03*
X917323D02*
D03*
Y836614D02*
D03*
X921260D02*
D03*
X933071Y812992D02*
D03*
X929134D02*
D03*
X925197Y824803D02*
D03*
Y820866D02*
D03*
Y816929D02*
D03*
X921260D02*
D03*
Y820866D02*
D03*
Y824803D02*
D03*
X917323Y820866D02*
D03*
Y816929D02*
D03*
Y824803D02*
D03*
X921260Y809055D02*
D03*
X917323D02*
D03*
X925197Y812992D02*
D03*
X921260D02*
D03*
X929134Y809055D02*
D03*
X925197D02*
D03*
X929134Y805118D02*
D03*
X933071Y809055D02*
D03*
Y805118D02*
D03*
X952756Y836614D02*
D03*
X944882Y832677D02*
D03*
X948819D02*
D03*
X952756D02*
D03*
X940945Y812992D02*
D03*
X944882D02*
D03*
X948819D02*
D03*
X944882Y816929D02*
D03*
X948819D02*
D03*
Y820866D02*
D03*
X944882D02*
D03*
Y824803D02*
D03*
X948819D02*
D03*
X952756D02*
D03*
Y820866D02*
D03*
Y816929D02*
D03*
Y812992D02*
D03*
Y805118D02*
D03*
Y809055D02*
D03*
X948819D02*
D03*
X944882D02*
D03*
Y805118D02*
D03*
X948819D02*
D03*
X940945Y809055D02*
D03*
Y805118D02*
D03*
X1031496D02*
D03*
Y809055D02*
D03*
X1039370Y805118D02*
D03*
X1035433D02*
D03*
Y809055D02*
D03*
X1039370D02*
D03*
X1043307D02*
D03*
Y805118D02*
D03*
Y812992D02*
D03*
Y820866D02*
D03*
Y824803D02*
D03*
X1035433D02*
D03*
Y820866D02*
D03*
X1039370D02*
D03*
X1035433Y816929D02*
D03*
X1039370Y812992D02*
D03*
X1035433D02*
D03*
X1039370Y832677D02*
D03*
X1035433D02*
D03*
X1023622Y805118D02*
D03*
Y809055D02*
D03*
X1015748Y805118D02*
D03*
X1019685D02*
D03*
X1015748Y809055D02*
D03*
X1019685D02*
D03*
X1011811Y812992D02*
D03*
X1015748D02*
D03*
X1007874Y809055D02*
D03*
X1011811D02*
D03*
X1007874Y824803D02*
D03*
Y812992D02*
D03*
Y816929D02*
D03*
Y820866D02*
D03*
X1011811Y824803D02*
D03*
Y820866D02*
D03*
Y816929D02*
D03*
X1015748D02*
D03*
Y820866D02*
D03*
Y824803D02*
D03*
X1019685Y812992D02*
D03*
X1011811Y836614D02*
D03*
X1007874D02*
D03*
Y832677D02*
D03*
X1011811D02*
D03*
X1015748D02*
D03*
X1011811Y805118D02*
D03*
X1007874D02*
D03*
X1039370Y836614D02*
D03*
X1035433Y840551D02*
D03*
X1015748D02*
D03*
X1011811D02*
D03*
X1007874Y844488D02*
D03*
Y848425D02*
D03*
X1011811D02*
D03*
Y844488D02*
D03*
X1035433D02*
D03*
X1039370D02*
D03*
X1043307D02*
D03*
Y848425D02*
D03*
X1039370D02*
D03*
X1035433D02*
D03*
X1031496D02*
D03*
X1015748D02*
D03*
Y852362D02*
D03*
X1011811D02*
D03*
X1019685D02*
D03*
X1023622D02*
D03*
X1031496D02*
D03*
X1035433D02*
D03*
X1039370D02*
D03*
X1043307D02*
D03*
X712598Y175197D02*
D03*
X720473D02*
D03*
X712598Y183071D02*
D03*
X720473D02*
D03*
X712598Y171260D02*
D03*
X720473D02*
D03*
X708661Y175197D02*
D03*
X724410D02*
D03*
X708661Y183071D02*
D03*
X724410D02*
D03*
X712598Y187008D02*
D03*
X720473D02*
D03*
X708661Y171260D02*
D03*
X724410D02*
D03*
X708661Y187008D02*
D03*
X724410D02*
D03*
X712598Y167323D02*
D03*
X720473D02*
D03*
X704724Y175197D02*
D03*
X728347D02*
D03*
X704724Y183071D02*
D03*
X728347D02*
D03*
X712598Y190945D02*
D03*
X720473D02*
D03*
X708661Y167323D02*
D03*
X724410D02*
D03*
X704724Y171260D02*
D03*
X728347D02*
D03*
X704724Y187008D02*
D03*
X728347D02*
D03*
X708661Y190945D02*
D03*
X724410D02*
D03*
X720473Y163386D02*
D03*
X704724Y167323D02*
D03*
X728347D02*
D03*
X700787Y175197D02*
D03*
Y183071D02*
D03*
X704724Y190945D02*
D03*
X728347D02*
D03*
X708661Y163386D02*
D03*
X724410D02*
D03*
X700787Y171260D02*
D03*
Y187008D02*
D03*
X708661Y194882D02*
D03*
X704724Y163386D02*
D03*
X728347D02*
D03*
Y194882D02*
D03*
X792173Y330551D02*
D03*
X800047Y338425D02*
D03*
Y354173D02*
D03*
X792173Y362047D02*
D03*
Y326614D02*
D03*
X764614Y338425D02*
D03*
X803984D02*
D03*
X764614Y354173D02*
D03*
X803984D02*
D03*
X792173Y365984D02*
D03*
X800047Y326614D02*
D03*
X764614Y330551D02*
D03*
X803984D02*
D03*
X764614Y362047D02*
D03*
X803984D02*
D03*
X800047Y365984D02*
D03*
X788236Y295118D02*
D03*
X733118Y342362D02*
D03*
X835480Y350236D02*
D03*
X780362Y397480D02*
D03*
X796110Y295118D02*
D03*
X733118Y334488D02*
D03*
X835480D02*
D03*
X733118Y358110D02*
D03*
X835480D02*
D03*
X796110Y397480D02*
D03*
X733118Y330551D02*
D03*
X835480D02*
D03*
X733118Y362047D02*
D03*
X835480D02*
D03*
X800047Y397480D02*
D03*
X764614Y295118D02*
D03*
X803984D02*
D03*
X733118Y326614D02*
D03*
X835480D02*
D03*
X733118Y365984D02*
D03*
X835480D02*
D03*
X764614Y397480D02*
D03*
X803984D02*
D03*
X780362Y291181D02*
D03*
X788236D02*
D03*
X729181Y342362D02*
D03*
X839417D02*
D03*
X729181Y350236D02*
D03*
X839417D02*
D03*
X780362Y401417D02*
D03*
X788236D02*
D03*
X776425Y291181D02*
D03*
X792173D02*
D03*
X729181Y338425D02*
D03*
X839417D02*
D03*
X729181Y354173D02*
D03*
X839417D02*
D03*
X792173Y401417D02*
D03*
X760677Y295118D02*
D03*
X807921D02*
D03*
X733118Y322677D02*
D03*
X835480D02*
D03*
X733118Y369921D02*
D03*
X835480D02*
D03*
X760677Y397480D02*
D03*
X807921D02*
D03*
X796110Y291181D02*
D03*
X729181Y334488D02*
D03*
X839417D02*
D03*
X729181Y358110D02*
D03*
X839417D02*
D03*
X800047Y291181D02*
D03*
X729181Y330551D02*
D03*
X839417D02*
D03*
X729181Y362047D02*
D03*
X839417D02*
D03*
X756740Y295118D02*
D03*
X811858D02*
D03*
X733118Y318740D02*
D03*
X835480D02*
D03*
X733118Y373858D02*
D03*
X835480D02*
D03*
X756740Y397480D02*
D03*
X811858D02*
D03*
X803984Y291181D02*
D03*
X729181Y326614D02*
D03*
X839417D02*
D03*
X729181Y365984D02*
D03*
X839417D02*
D03*
X803984Y401417D02*
D03*
X780362Y287244D02*
D03*
X788236D02*
D03*
X725244Y342362D02*
D03*
X843354D02*
D03*
X725244Y350236D02*
D03*
X843354D02*
D03*
X780362Y405354D02*
D03*
X788236D02*
D03*
X776425Y287244D02*
D03*
X792173D02*
D03*
X725244Y338425D02*
D03*
X843354D02*
D03*
X725244Y354173D02*
D03*
X843354D02*
D03*
X776425Y405354D02*
D03*
X792173D02*
D03*
X807921Y291181D02*
D03*
X729181Y322677D02*
D03*
X839417D02*
D03*
X729181Y369921D02*
D03*
X807921Y401417D02*
D03*
X796110Y287244D02*
D03*
X725244Y334488D02*
D03*
X843354D02*
D03*
X725244Y358110D02*
D03*
X843354D02*
D03*
X800047Y287244D02*
D03*
X725244Y330551D02*
D03*
X843354D02*
D03*
X725244Y362047D02*
D03*
X843354D02*
D03*
X800047Y405354D02*
D03*
X756740Y291181D02*
D03*
X729181Y318740D02*
D03*
X839417D02*
D03*
X729181Y373858D02*
D03*
X839417D02*
D03*
X811858Y401417D02*
D03*
X748866Y295118D02*
D03*
X819732D02*
D03*
X733118Y310866D02*
D03*
X835480D02*
D03*
X733118Y381732D02*
D03*
X835480D02*
D03*
X748866Y397480D02*
D03*
X819732D02*
D03*
X764614Y287244D02*
D03*
X803984D02*
D03*
X725244Y326614D02*
D03*
X843354D02*
D03*
X725244Y365984D02*
D03*
X843354D02*
D03*
X803984Y405354D02*
D03*
X729181Y314803D02*
D03*
X839417D02*
D03*
X729181Y377795D02*
D03*
X839417D02*
D03*
X752803Y401417D02*
D03*
X815795D02*
D03*
X780362Y283307D02*
D03*
X788236D02*
D03*
X760677Y287244D02*
D03*
X807921D02*
D03*
X725244Y322677D02*
D03*
X843354D02*
D03*
X721307Y342362D02*
D03*
X847291D02*
D03*
X721307Y350236D02*
D03*
X847291D02*
D03*
X725244Y369921D02*
D03*
X807921Y405354D02*
D03*
X780362Y409291D02*
D03*
X788236D02*
D03*
X796110Y283307D02*
D03*
X721307Y334488D02*
D03*
X847291D02*
D03*
X721307Y358110D02*
D03*
X847291D02*
D03*
X800047Y283307D02*
D03*
X756740Y287244D02*
D03*
X811858D02*
D03*
X843354Y318740D02*
D03*
X721307Y330551D02*
D03*
X847291D02*
D03*
X721307Y362047D02*
D03*
X847291D02*
D03*
X725244Y373858D02*
D03*
X811858Y405354D02*
D03*
X748866Y291181D02*
D03*
X819732D02*
D03*
X729181Y310866D02*
D03*
X839417D02*
D03*
X819732Y401417D02*
D03*
X764614Y283307D02*
D03*
X803984D02*
D03*
X721307Y326614D02*
D03*
X847291D02*
D03*
X721307Y365984D02*
D03*
X847291D02*
D03*
X803984Y409291D02*
D03*
X752803Y287244D02*
D03*
X815795D02*
D03*
X740992Y295118D02*
D03*
X827606D02*
D03*
X733118Y302992D02*
D03*
X835480D02*
D03*
X725244Y314803D02*
D03*
X843354D02*
D03*
X725244Y377795D02*
D03*
X843354D02*
D03*
X733118Y389606D02*
D03*
X835480D02*
D03*
X740992Y397480D02*
D03*
X827606D02*
D03*
X815795Y405354D02*
D03*
X760677Y283307D02*
D03*
X807921D02*
D03*
X721307Y322677D02*
D03*
X847291D02*
D03*
X721307Y369921D02*
D03*
X847291D02*
D03*
X760677Y409291D02*
D03*
X807921D02*
D03*
X780362Y279370D02*
D03*
X788236D02*
D03*
X744929Y291181D02*
D03*
X823669D02*
D03*
X729181Y306929D02*
D03*
X839417D02*
D03*
X717370Y342362D02*
D03*
X851228D02*
D03*
X717370Y350236D02*
D03*
X851228D02*
D03*
X729181Y385669D02*
D03*
X839417D02*
D03*
X823669Y401417D02*
D03*
X780362Y413228D02*
D03*
X788236D02*
D03*
X776425Y279370D02*
D03*
X792173D02*
D03*
X717370Y338425D02*
D03*
X851228D02*
D03*
X717370Y354173D02*
D03*
X851228D02*
D03*
X776425Y413228D02*
D03*
X792173D02*
D03*
X796110Y279370D02*
D03*
X717370Y334488D02*
D03*
X851228D02*
D03*
X717370Y358110D02*
D03*
X851228D02*
D03*
X756740Y283307D02*
D03*
X811858D02*
D03*
X819732Y287244D02*
D03*
X725244Y310866D02*
D03*
X843354D02*
D03*
X847291Y318740D02*
D03*
X721307Y373858D02*
D03*
X847291D02*
D03*
X819732Y405354D02*
D03*
X811858Y409291D02*
D03*
X800047Y279370D02*
D03*
X717370Y330551D02*
D03*
X851228D02*
D03*
X717370Y362047D02*
D03*
X851228D02*
D03*
X737055Y295118D02*
D03*
X831543D02*
D03*
X733118Y299055D02*
D03*
X835480D02*
D03*
X733118Y393543D02*
D03*
X835480D02*
D03*
X737055Y397480D02*
D03*
X831543D02*
D03*
X803984Y279370D02*
D03*
X740992Y291181D02*
D03*
X827606D02*
D03*
X839417Y302992D02*
D03*
X717370Y326614D02*
D03*
X851228D02*
D03*
X717370Y365984D02*
D03*
X851228D02*
D03*
X729181Y389606D02*
D03*
X839417D02*
D03*
X827606Y401417D02*
D03*
X752803Y283307D02*
D03*
X815795D02*
D03*
X847291Y314803D02*
D03*
X721307Y377795D02*
D03*
X847291D02*
D03*
X815795Y409291D02*
D03*
X744929Y287244D02*
D03*
X823669D02*
D03*
X843354Y306929D02*
D03*
X725244Y385669D02*
D03*
X843354D02*
D03*
X823669Y405354D02*
D03*
X807921Y279370D02*
D03*
X717370Y322677D02*
D03*
X851228D02*
D03*
X717370Y369921D02*
D03*
X851228D02*
D03*
X807921Y413228D02*
D03*
X748866Y283307D02*
D03*
X819732D02*
D03*
X721307Y310866D02*
D03*
X847291D02*
D03*
X819732Y409291D02*
D03*
X756740Y279370D02*
D03*
X737055Y291181D02*
D03*
X831543D02*
D03*
X851228Y318740D02*
D03*
X717370Y373858D02*
D03*
X851228D02*
D03*
X831543Y401417D02*
D03*
X811858Y413228D02*
D03*
X740992Y287244D02*
D03*
X827606D02*
D03*
X843354Y302992D02*
D03*
X725244Y389606D02*
D03*
X843354D02*
D03*
X827606Y405354D02*
D03*
X815795Y279370D02*
D03*
X851228Y314803D02*
D03*
X717370Y377795D02*
D03*
X752803Y413228D02*
D03*
X815795D02*
D03*
X733118Y291181D02*
D03*
X737055Y287244D02*
D03*
X831543D02*
D03*
X725244Y299055D02*
D03*
X843354D02*
D03*
X725244Y393543D02*
D03*
X831543Y405354D02*
D03*
X748866Y279370D02*
D03*
X819732D02*
D03*
X717370Y310866D02*
D03*
X851228D02*
D03*
X748866Y413228D02*
D03*
X819732D02*
D03*
X740992Y283307D02*
D03*
X827606D02*
D03*
X721307Y302992D02*
D03*
X847291D02*
D03*
X721307Y389606D02*
D03*
X847291D02*
D03*
X827606Y409291D02*
D03*
X851228Y306929D02*
D03*
X823669Y413228D02*
D03*
X733118Y287244D02*
D03*
X835480D02*
D03*
X725244Y295118D02*
D03*
X843354D02*
D03*
X733118Y405354D02*
D03*
X737055Y283307D02*
D03*
X831543D02*
D03*
X847291Y299055D02*
D03*
X721307Y393543D02*
D03*
X847291D02*
D03*
X831543Y409291D02*
D03*
X740992Y279370D02*
D03*
X851228Y302992D02*
D03*
Y389606D02*
D03*
X827606Y413228D02*
D03*
X733118Y283307D02*
D03*
X835480D02*
D03*
X721307Y295118D02*
D03*
X847291D02*
D03*
X721307Y397480D02*
D03*
X847291D02*
D03*
X733118Y409291D02*
D03*
X835480D02*
D03*
X737055Y279370D02*
D03*
X717370Y299055D02*
D03*
X851228D02*
D03*
X717370Y393543D02*
D03*
X851228D02*
D03*
X831543Y413228D02*
D03*
X729181Y283307D02*
D03*
X839417D02*
D03*
Y409291D02*
D03*
X733118Y279370D02*
D03*
X851228Y295118D02*
D03*
X835480Y413228D02*
D03*
X729181Y279370D02*
D03*
X717370Y291181D02*
D03*
X851228D02*
D03*
X839417Y413228D02*
D03*
X725244Y279370D02*
D03*
X12799Y80299D02*
D03*
X182299Y23299D02*
D03*
X133299Y16299D02*
D03*
X599799Y102299D02*
D03*
X605799Y112299D02*
D03*
X589299Y70299D02*
D03*
X891299Y73299D02*
D03*
X1124299Y325799D02*
D03*
X1126299Y323299D02*
D03*
X1050299Y588299D02*
D03*
X1025000Y287992D02*
D03*
Y280512D02*
D03*
X1005709Y669882D02*
D03*
X971457Y520866D02*
D03*
Y523425D02*
D03*
X964799Y512299D02*
D03*
X979173Y531142D02*
D03*
X971457Y513299D02*
D03*
Y518307D02*
D03*
X989299Y580299D02*
D03*
X1132299Y315299D02*
D03*
X984299Y578299D02*
D03*
X1129299Y309299D02*
D03*
X862299Y130299D02*
D03*
X852299Y128299D02*
D03*
X586299Y300299D02*
D03*
X210299Y111299D02*
D03*
X242299Y162299D02*
D03*
Y144299D02*
D03*
X152299Y162299D02*
D03*
Y144299D02*
D03*
X172299Y160299D02*
D03*
X28299Y342299D02*
D03*
X1084299Y290299D02*
D03*
X1081299Y286799D02*
D03*
X1076299Y735299D02*
D03*
X614299Y126299D02*
D03*
X578299Y41299D02*
D03*
X586299Y87299D02*
D03*
X1011299Y137299D02*
D03*
X1004299Y144299D02*
D03*
X968299Y142299D02*
D03*
X912299D02*
D03*
X863299Y141299D02*
D03*
X1021299Y202299D02*
D03*
X1090299Y286299D02*
D03*
X1053299Y588299D02*
D03*
X756693Y392913D02*
D03*
X766535D02*
D03*
X776378Y393307D02*
D03*
X764370Y417520D02*
D03*
X742323Y377953D02*
D03*
Y314961D02*
D03*
X828543Y320079D02*
D03*
X822047Y276772D02*
D03*
X811024Y316339D02*
D03*
X803346Y416732D02*
D03*
X836811D02*
D03*
X819094Y372638D02*
D03*
X870799Y370299D02*
D03*
X871299Y388299D02*
D03*
X783799Y266799D02*
D03*
X1027299Y341299D02*
D03*
X997899Y368699D02*
D03*
X604331Y356299D02*
D03*
Y368110D02*
D03*
X596457Y356299D02*
D03*
X608268D02*
D03*
X596457Y368110D02*
D03*
X608268D02*
D03*
X604331Y352362D02*
D03*
Y372047D02*
D03*
X596457Y352362D02*
D03*
X592520Y356299D02*
D03*
X608268Y352362D02*
D03*
X612205Y356299D02*
D03*
X592520Y368110D02*
D03*
X612205D02*
D03*
X596457Y372047D02*
D03*
X608268D02*
D03*
X592520Y352362D02*
D03*
X612205D02*
D03*
X592520Y372047D02*
D03*
X612205D02*
D03*
X604331Y348425D02*
D03*
Y375984D02*
D03*
X596457Y348425D02*
D03*
X608268D02*
D03*
X596457Y375984D02*
D03*
X608268D02*
D03*
X592520Y348425D02*
D03*
X612205D02*
D03*
X588583Y352362D02*
D03*
Y372047D02*
D03*
X616142Y352362D02*
D03*
X592520Y375984D02*
D03*
X612205D02*
D03*
X616142Y372047D02*
D03*
X608268Y344488D02*
D03*
X596457Y379921D02*
D03*
X588583Y348425D02*
D03*
X616142D02*
D03*
X588583Y375984D02*
D03*
X616142D02*
D03*
X592520Y344488D02*
D03*
X612205D02*
D03*
X592520Y379921D02*
D03*
X612205D02*
D03*
X588583Y344488D02*
D03*
X584646Y348425D02*
D03*
X616142Y344488D02*
D03*
X584646Y375984D02*
D03*
X620079Y348425D02*
D03*
X588583Y379921D02*
D03*
X624016Y364173D02*
D03*
X620079Y375984D02*
D03*
X616142Y379921D02*
D03*
X608268Y340551D02*
D03*
X580709Y356299D02*
D03*
Y368110D02*
D03*
X624016Y356299D02*
D03*
Y368110D02*
D03*
X596457Y383858D02*
D03*
X608268D02*
D03*
X612205Y340551D02*
D03*
X592520Y383858D02*
D03*
X612205D02*
D03*
X584646Y344488D02*
D03*
X620079D02*
D03*
X584646Y379921D02*
D03*
X620079D02*
D03*
X588583Y340551D02*
D03*
X580709Y348425D02*
D03*
X616142Y340551D02*
D03*
X580709Y375984D02*
D03*
X624016Y348425D02*
D03*
X588583Y383858D02*
D03*
X624016Y375984D02*
D03*
X616142Y383858D02*
D03*
X576772Y364173D02*
D03*
X627953D02*
D03*
Y356299D02*
D03*
Y368110D02*
D03*
X576772Y352362D02*
D03*
X627953D02*
D03*
Y372047D02*
D03*
X584646Y340551D02*
D03*
X580709Y344488D02*
D03*
X620079Y340551D02*
D03*
X624016Y344488D02*
D03*
X580709Y379921D02*
D03*
X584646Y383858D02*
D03*
X624016Y379921D02*
D03*
X620079Y383858D02*
D03*
X576772Y348425D02*
D03*
Y375984D02*
D03*
X627953Y348425D02*
D03*
Y375984D02*
D03*
X572835Y364173D02*
D03*
X580709Y340551D02*
D03*
X624016D02*
D03*
X580709Y383858D02*
D03*
X631890Y356299D02*
D03*
X624016Y383858D02*
D03*
X631890Y368110D02*
D03*
X576772Y344488D02*
D03*
X627953D02*
D03*
X576772Y379921D02*
D03*
X627953D02*
D03*
X572835Y352362D02*
D03*
Y372047D02*
D03*
X631890Y352362D02*
D03*
Y372047D02*
D03*
X572835Y348425D02*
D03*
Y375984D02*
D03*
X631890Y348425D02*
D03*
Y375984D02*
D03*
X576772Y340551D02*
D03*
X627953D02*
D03*
X576772Y383858D02*
D03*
X627953D02*
D03*
X572835Y344488D02*
D03*
Y379921D02*
D03*
X631890Y344488D02*
D03*
Y379921D02*
D03*
X572835Y383858D02*
D03*
X631890Y340551D02*
D03*
Y383858D02*
D03*
Y265748D02*
D03*
Y222441D02*
D03*
X572835Y265748D02*
D03*
X631890Y261811D02*
D03*
Y226378D02*
D03*
X572835Y261811D02*
D03*
Y226378D02*
D03*
X627953Y265748D02*
D03*
X576772D02*
D03*
X627953Y222441D02*
D03*
X576772D02*
D03*
X631890Y257874D02*
D03*
Y230315D02*
D03*
X572835Y257874D02*
D03*
Y230315D02*
D03*
X631890Y253937D02*
D03*
Y234252D02*
D03*
X572835Y253937D02*
D03*
Y234252D02*
D03*
X627953Y261811D02*
D03*
X576772D02*
D03*
Y226378D02*
D03*
X631890Y250000D02*
D03*
X624016Y265748D02*
D03*
X631890Y238189D02*
D03*
X580709Y265748D02*
D03*
X624016Y222441D02*
D03*
X580709D02*
D03*
X572835Y246063D02*
D03*
X627953Y257874D02*
D03*
Y230315D02*
D03*
X576772Y257874D02*
D03*
Y230315D02*
D03*
X620079Y265748D02*
D03*
X624016Y261811D02*
D03*
X584646Y265748D02*
D03*
X580709Y261811D02*
D03*
X624016Y226378D02*
D03*
X620079Y222441D02*
D03*
X580709Y226378D02*
D03*
X584646Y222441D02*
D03*
X627953Y253937D02*
D03*
Y234252D02*
D03*
X576772Y253937D02*
D03*
Y234252D02*
D03*
X627953Y250000D02*
D03*
Y238189D02*
D03*
Y246063D02*
D03*
X576772D02*
D03*
X616142Y265748D02*
D03*
X624016Y257874D02*
D03*
X588583Y265748D02*
D03*
X624016Y230315D02*
D03*
X580709Y257874D02*
D03*
X616142Y222441D02*
D03*
X580709Y230315D02*
D03*
X588583Y222441D02*
D03*
X620079Y261811D02*
D03*
X584646D02*
D03*
X620079Y226378D02*
D03*
X612205Y265748D02*
D03*
X592520D02*
D03*
X612205Y222441D02*
D03*
X592520D02*
D03*
X608268Y265748D02*
D03*
X596457D02*
D03*
X624016Y250000D02*
D03*
Y238189D02*
D03*
X580709Y250000D02*
D03*
Y238189D02*
D03*
X608268Y222441D02*
D03*
X596457D02*
D03*
X604331Y265748D02*
D03*
X616142Y261811D02*
D03*
X620079Y257874D02*
D03*
X624016Y246063D02*
D03*
X588583Y261811D02*
D03*
X620079Y230315D02*
D03*
X584646Y257874D02*
D03*
X616142Y226378D02*
D03*
X604331Y222441D02*
D03*
X584646Y230315D02*
D03*
X588583Y226378D02*
D03*
X612205Y261811D02*
D03*
X592520D02*
D03*
X612205Y226378D02*
D03*
X592520D02*
D03*
X616142Y257874D02*
D03*
X588583D02*
D03*
X616142Y230315D02*
D03*
X588583D02*
D03*
X608268Y261811D02*
D03*
X596457D02*
D03*
X608268Y226378D02*
D03*
X596457D02*
D03*
X616142Y253937D02*
D03*
X612205Y257874D02*
D03*
X592520D02*
D03*
X616142Y234252D02*
D03*
X588583Y253937D02*
D03*
Y234252D02*
D03*
X612205Y230315D02*
D03*
X592520D02*
D03*
X608268Y257874D02*
D03*
X596457D02*
D03*
X608268Y230315D02*
D03*
X596457D02*
D03*
X604331Y257874D02*
D03*
Y230315D02*
D03*
X612205Y253937D02*
D03*
X592520D02*
D03*
X612205Y234252D02*
D03*
X592520D02*
D03*
X608268Y253937D02*
D03*
X596457D02*
D03*
X612205Y250000D02*
D03*
X592520D02*
D03*
X612205Y238189D02*
D03*
X608268Y234252D02*
D03*
X592520Y238189D02*
D03*
X596457Y234252D02*
D03*
X604331Y253937D02*
D03*
Y234252D02*
D03*
X608268Y250000D02*
D03*
X596457D02*
D03*
X608268Y238189D02*
D03*
X596457D02*
D03*
X604331Y250000D02*
D03*
Y238189D02*
D03*
X356299Y112205D02*
D03*
X312992D02*
D03*
X356299Y171260D02*
D03*
X352362Y112205D02*
D03*
X316929D02*
D03*
X352362Y171260D02*
D03*
X316929D02*
D03*
X356299Y116142D02*
D03*
Y167323D02*
D03*
X312992Y116142D02*
D03*
Y167323D02*
D03*
X348425Y112205D02*
D03*
X320866D02*
D03*
X348425Y171260D02*
D03*
X320866D02*
D03*
X344488Y112205D02*
D03*
X324803D02*
D03*
X344488Y171260D02*
D03*
X324803D02*
D03*
X352362Y116142D02*
D03*
Y167323D02*
D03*
X316929Y116142D02*
D03*
Y167323D02*
D03*
X340551Y112205D02*
D03*
X356299Y120079D02*
D03*
X328740Y112205D02*
D03*
X356299Y163386D02*
D03*
X312992Y120079D02*
D03*
Y163386D02*
D03*
X348425Y116142D02*
D03*
X320866D02*
D03*
Y167323D02*
D03*
X356299Y124016D02*
D03*
X352362Y120079D02*
D03*
X356299Y159449D02*
D03*
X352362Y163386D02*
D03*
X312992Y124016D02*
D03*
X316929Y163386D02*
D03*
X312992Y159449D02*
D03*
X344488Y116142D02*
D03*
X324803D02*
D03*
X344488Y167323D02*
D03*
X324803D02*
D03*
X340551Y116142D02*
D03*
X328740D02*
D03*
X336614D02*
D03*
X348425Y120079D02*
D03*
X356299Y155512D02*
D03*
X320866Y120079D02*
D03*
X348425Y163386D02*
D03*
X312992Y127953D02*
D03*
X320866Y163386D02*
D03*
X312992Y155512D02*
D03*
X352362Y159449D02*
D03*
X316929Y124016D02*
D03*
Y159449D02*
D03*
X356299Y131890D02*
D03*
Y151575D02*
D03*
X312992Y131890D02*
D03*
Y151575D02*
D03*
X356299Y135827D02*
D03*
Y147638D02*
D03*
X340551Y120079D02*
D03*
X328740D02*
D03*
X340551Y163386D02*
D03*
X328740D02*
D03*
X312992Y135827D02*
D03*
Y147638D02*
D03*
X352362Y127953D02*
D03*
X348425Y124016D02*
D03*
X336614Y120079D02*
D03*
X352362Y155512D02*
D03*
X316929Y127953D02*
D03*
X312992Y139764D02*
D03*
X320866Y159449D02*
D03*
X316929Y155512D02*
D03*
X352362Y131890D02*
D03*
Y151575D02*
D03*
X316929Y131890D02*
D03*
Y151575D02*
D03*
X348425Y127953D02*
D03*
Y155512D02*
D03*
X320866Y127953D02*
D03*
Y155512D02*
D03*
X352362Y135827D02*
D03*
Y147638D02*
D03*
X316929Y135827D02*
D03*
Y147638D02*
D03*
X352362Y139764D02*
D03*
X316929D02*
D03*
X344488Y127953D02*
D03*
X348425Y131890D02*
D03*
Y151575D02*
D03*
X324803Y127953D02*
D03*
X344488Y155512D02*
D03*
X324803D02*
D03*
X320866Y131890D02*
D03*
Y151575D02*
D03*
X348425Y135827D02*
D03*
Y147638D02*
D03*
X320866Y135827D02*
D03*
Y147638D02*
D03*
X348425Y139764D02*
D03*
X320866D02*
D03*
X344488Y131890D02*
D03*
Y151575D02*
D03*
X324803Y131890D02*
D03*
Y151575D02*
D03*
X344488Y135827D02*
D03*
Y147638D02*
D03*
X340551Y131890D02*
D03*
Y151575D02*
D03*
X328740Y131890D02*
D03*
X324803Y135827D02*
D03*
X328740Y151575D02*
D03*
X324803Y147638D02*
D03*
X344488Y139764D02*
D03*
X324803D02*
D03*
X340551Y135827D02*
D03*
Y147638D02*
D03*
X328740Y135827D02*
D03*
Y147638D02*
D03*
X340551Y139764D02*
D03*
X328740D02*
D03*
X185039Y362205D02*
D03*
Y405512D02*
D03*
X244095Y362205D02*
D03*
X185039Y366142D02*
D03*
Y401575D02*
D03*
X244095Y366142D02*
D03*
Y401575D02*
D03*
X188976Y362205D02*
D03*
X240158D02*
D03*
X188976Y405512D02*
D03*
X240158D02*
D03*
X185039Y370079D02*
D03*
Y397638D02*
D03*
X244095Y370079D02*
D03*
Y397638D02*
D03*
X185039Y374016D02*
D03*
Y393701D02*
D03*
X244095Y374016D02*
D03*
Y393701D02*
D03*
X188976Y366142D02*
D03*
X240158D02*
D03*
X188976Y401575D02*
D03*
X240158D02*
D03*
X185039Y377953D02*
D03*
X192913Y362205D02*
D03*
X185039Y389764D02*
D03*
X236221Y362205D02*
D03*
X192913Y405512D02*
D03*
X236221D02*
D03*
X244095Y381890D02*
D03*
X188976Y370079D02*
D03*
Y397638D02*
D03*
X240158Y370079D02*
D03*
Y397638D02*
D03*
X196850Y362205D02*
D03*
X192913Y366142D02*
D03*
X232284Y362205D02*
D03*
X236221Y366142D02*
D03*
X192913Y401575D02*
D03*
X196850Y405512D02*
D03*
X236221Y401575D02*
D03*
X232284Y405512D02*
D03*
X188976Y374016D02*
D03*
Y393701D02*
D03*
X240158Y374016D02*
D03*
Y393701D02*
D03*
X188976Y377953D02*
D03*
Y389764D02*
D03*
Y381890D02*
D03*
X240158D02*
D03*
X200787Y362205D02*
D03*
X192913Y370079D02*
D03*
X228347Y362205D02*
D03*
X192913Y397638D02*
D03*
X236221Y370079D02*
D03*
X200787Y405512D02*
D03*
X236221Y397638D02*
D03*
X228347Y405512D02*
D03*
X232284Y366142D02*
D03*
X196850Y401575D02*
D03*
X232284D02*
D03*
X204724Y362205D02*
D03*
X224410D02*
D03*
X204724Y405512D02*
D03*
X224410D02*
D03*
X220473Y362205D02*
D03*
X192913Y377953D02*
D03*
Y389764D02*
D03*
X236221Y377953D02*
D03*
Y389764D02*
D03*
X208661Y405512D02*
D03*
X220473D02*
D03*
X212598Y362205D02*
D03*
X200787Y366142D02*
D03*
X196850Y370079D02*
D03*
X228347Y366142D02*
D03*
X196850Y397638D02*
D03*
X232284Y370079D02*
D03*
X200787Y401575D02*
D03*
X212598Y405512D02*
D03*
X232284Y397638D02*
D03*
X228347Y401575D02*
D03*
X204724Y366142D02*
D03*
Y401575D02*
D03*
X224410D02*
D03*
X200787Y370079D02*
D03*
X228347D02*
D03*
X200787Y397638D02*
D03*
X228347D02*
D03*
X208661Y366142D02*
D03*
X220473D02*
D03*
X208661Y401575D02*
D03*
X220473D02*
D03*
X212598Y366142D02*
D03*
Y401575D02*
D03*
X200787Y374016D02*
D03*
X204724Y370079D02*
D03*
X224410D02*
D03*
X200787Y393701D02*
D03*
X228347Y374016D02*
D03*
Y393701D02*
D03*
X204724Y397638D02*
D03*
X224410D02*
D03*
X208661Y370079D02*
D03*
X220473D02*
D03*
X208661Y397638D02*
D03*
X220473D02*
D03*
X212598Y370079D02*
D03*
Y397638D02*
D03*
X204724Y374016D02*
D03*
X224410D02*
D03*
X204724Y393701D02*
D03*
X224410D02*
D03*
X208661Y374016D02*
D03*
X220473D02*
D03*
X204724Y377953D02*
D03*
X224410D02*
D03*
X204724Y389764D02*
D03*
X208661Y393701D02*
D03*
X224410Y389764D02*
D03*
X220473Y393701D02*
D03*
X212598Y374016D02*
D03*
Y393701D02*
D03*
X208661Y377953D02*
D03*
X220473D02*
D03*
X208661Y389764D02*
D03*
X220473D02*
D03*
X212598Y377953D02*
D03*
Y389764D02*
D03*
X1113299Y884299D02*
D03*
X986811Y388386D02*
D03*
Y404134D02*
D03*
X983661Y388386D02*
D03*
Y404134D02*
D03*
X980512Y388386D02*
D03*
X996260D02*
D03*
X980512Y404134D02*
D03*
X996260D02*
D03*
X983661Y385236D02*
D03*
X993110D02*
D03*
X983661Y407283D02*
D03*
X993110D02*
D03*
X996260Y385236D02*
D03*
X999409Y388386D02*
D03*
Y404134D02*
D03*
X996260Y407283D02*
D03*
X986811Y382087D02*
D03*
Y410433D02*
D03*
X983661Y382087D02*
D03*
X993110D02*
D03*
X983661Y410433D02*
D03*
X993110D02*
D03*
X999409Y385236D02*
D03*
Y407283D02*
D03*
X980512Y382087D02*
D03*
X974213Y388386D02*
D03*
X1002559D02*
D03*
X974213Y404134D02*
D03*
X980512Y410433D02*
D03*
X1002559Y404134D02*
D03*
X996260Y410433D02*
D03*
X977362Y382087D02*
D03*
X999409D02*
D03*
X1002559Y385236D02*
D03*
Y407283D02*
D03*
X977362Y410433D02*
D03*
X971063Y388386D02*
D03*
Y404134D02*
D03*
X1005709Y388386D02*
D03*
Y404134D02*
D03*
X974213Y382087D02*
D03*
Y410433D02*
D03*
X1002559D02*
D03*
X971063Y385236D02*
D03*
Y407283D02*
D03*
X1005709Y385236D02*
D03*
Y407283D02*
D03*
X967913Y388386D02*
D03*
Y404134D02*
D03*
X1008858Y388386D02*
D03*
Y404134D02*
D03*
X971063Y382087D02*
D03*
Y410433D02*
D03*
X1008858Y385236D02*
D03*
Y407283D02*
D03*
X967913Y382087D02*
D03*
Y410433D02*
D03*
X1012008Y385236D02*
D03*
Y407283D02*
D03*
X964764Y382087D02*
D03*
X1012008D02*
D03*
X964764Y410433D02*
D03*
X986811Y282480D02*
D03*
Y298228D02*
D03*
X983661Y282480D02*
D03*
Y298228D02*
D03*
X980512Y282480D02*
D03*
X996260D02*
D03*
X980512Y298228D02*
D03*
X996260D02*
D03*
X983661Y279331D02*
D03*
X993110D02*
D03*
X983661Y301378D02*
D03*
X993110D02*
D03*
X996260Y279331D02*
D03*
X999409Y282480D02*
D03*
Y298228D02*
D03*
X996260Y301378D02*
D03*
X986811Y276181D02*
D03*
Y304528D02*
D03*
X983661Y276181D02*
D03*
X993110D02*
D03*
X983661Y304528D02*
D03*
X993110D02*
D03*
X999409Y279331D02*
D03*
Y301378D02*
D03*
X980512Y276181D02*
D03*
X974213Y282480D02*
D03*
X1002559D02*
D03*
X974213Y298228D02*
D03*
X980512Y304528D02*
D03*
X1002559Y298228D02*
D03*
X996260Y304528D02*
D03*
X977362Y276181D02*
D03*
X999409D02*
D03*
X1002559Y279331D02*
D03*
Y301378D02*
D03*
X977362Y304528D02*
D03*
X971063Y282480D02*
D03*
Y298228D02*
D03*
X1005709Y282480D02*
D03*
Y298228D02*
D03*
X974213Y276181D02*
D03*
Y304528D02*
D03*
X1002559D02*
D03*
X971063Y279331D02*
D03*
Y301378D02*
D03*
X1005709Y279331D02*
D03*
Y301378D02*
D03*
X967913Y282480D02*
D03*
Y298228D02*
D03*
X1008858Y282480D02*
D03*
Y298228D02*
D03*
X971063Y276181D02*
D03*
Y304528D02*
D03*
X1008858Y279331D02*
D03*
Y301378D02*
D03*
X967913Y276181D02*
D03*
Y304528D02*
D03*
X1012008Y279331D02*
D03*
Y301378D02*
D03*
X964764Y276181D02*
D03*
X1012008D02*
D03*
X964764Y304528D02*
D03*
X944685Y220472D02*
D03*
Y236220D02*
D03*
X941535Y220472D02*
D03*
Y236220D02*
D03*
X938386Y220472D02*
D03*
X954134D02*
D03*
X938386Y236220D02*
D03*
X954134D02*
D03*
X941535Y217323D02*
D03*
X950984D02*
D03*
X941535Y239370D02*
D03*
X950984D02*
D03*
X954134Y217323D02*
D03*
X957283Y220472D02*
D03*
Y236220D02*
D03*
X954134Y239370D02*
D03*
X944685Y214173D02*
D03*
Y242520D02*
D03*
X941535Y214173D02*
D03*
X950984D02*
D03*
X941535Y242520D02*
D03*
X950984D02*
D03*
X957283Y217323D02*
D03*
Y239370D02*
D03*
X938386Y214173D02*
D03*
X932087Y220472D02*
D03*
X960433D02*
D03*
X932087Y236220D02*
D03*
X938386Y242520D02*
D03*
X960433Y236220D02*
D03*
X954134Y242520D02*
D03*
X935236Y214173D02*
D03*
X957283D02*
D03*
X960433Y217323D02*
D03*
Y239370D02*
D03*
X935236Y242520D02*
D03*
X928937Y220472D02*
D03*
Y236220D02*
D03*
X963583Y220472D02*
D03*
Y236220D02*
D03*
X932087Y214173D02*
D03*
Y242520D02*
D03*
X960433D02*
D03*
X928937Y217323D02*
D03*
Y239370D02*
D03*
X963583Y217323D02*
D03*
Y239370D02*
D03*
X925787Y220472D02*
D03*
Y236220D02*
D03*
X966732Y220472D02*
D03*
Y236220D02*
D03*
X928937Y214173D02*
D03*
Y242520D02*
D03*
X966732Y217323D02*
D03*
Y239370D02*
D03*
X925787Y214173D02*
D03*
Y242520D02*
D03*
X969882Y217323D02*
D03*
Y239370D02*
D03*
X922638Y214173D02*
D03*
X969882D02*
D03*
X922638Y242520D02*
D03*
X238299Y215799D02*
D03*
X732347Y190882D02*
D03*
Y186945D02*
D03*
Y183008D02*
D03*
Y175382D02*
D03*
Y171445D02*
D03*
Y167508D02*
D03*
X776425Y365984D02*
D03*
X800047Y295118D02*
D03*
X815795Y291181D02*
D03*
X811858D02*
D03*
X1067799Y787299D02*
D03*
X772421Y279398D02*
D03*
X772490Y295110D02*
D03*
Y397488D02*
D03*
X768551Y283307D02*
D03*
Y291181D02*
D03*
Y338425D02*
D03*
Y354173D02*
D03*
Y295118D02*
D03*
Y326614D02*
D03*
Y365984D02*
D03*
Y397480D02*
D03*
X1023622Y812992D02*
D03*
X1031496D02*
D03*
X1043307Y816929D02*
D03*
X1039370D02*
D03*
Y824803D02*
D03*
X1035433Y836614D02*
D03*
X1043307Y832677D02*
D03*
Y836614D02*
D03*
X1039370Y840551D02*
D03*
X1043307D02*
D03*
X810099Y525299D02*
D03*
X799499Y569499D02*
D03*
X810099Y521299D02*
D03*
X787699Y529099D02*
D03*
X506400Y501300D02*
D03*
X506000Y506000D02*
D03*
X497383Y494499D02*
D03*
X497499Y512099D02*
D03*
X483099Y482899D02*
D03*
X478299Y486799D02*
D03*
Y490799D02*
D03*
X476799Y494799D02*
D03*
Y498799D02*
D03*
Y503299D02*
D03*
Y507299D02*
D03*
X481799Y511799D02*
D03*
Y515799D02*
D03*
X640099Y227299D02*
D03*
X671299Y229099D02*
D03*
X653899Y225299D02*
D03*
X654099Y221499D02*
D03*
X671299Y210299D02*
D03*
X654299Y206499D02*
D03*
X717370Y302992D02*
D03*
X707939Y294339D02*
D03*
X698059Y294259D02*
D03*
X774299Y161299D02*
D03*
X357817Y509017D02*
D03*
X328899Y523299D02*
D03*
X340699Y531599D02*
D03*
X343899Y530099D02*
D03*
X341699Y513499D02*
D03*
X339299Y513161D02*
D03*
X336299D02*
D03*
X333899Y513499D02*
D03*
X337699Y492799D02*
D03*
X341699Y492934D02*
D03*
X342099Y507434D02*
D03*
X346099Y507634D02*
D03*
X349899Y512699D02*
D03*
X346699Y523099D02*
D03*
X333799Y492934D02*
D03*
X329799Y492799D02*
D03*
X330699Y507134D02*
D03*
X326699Y506999D02*
D03*
X328661Y520799D02*
D03*
X328999Y518399D02*
D03*
X337699Y483465D02*
D03*
X333799D02*
D03*
X329799D02*
D03*
X326699Y497468D02*
D03*
X342099Y497965D02*
D03*
X345899Y497768D02*
D03*
X176568Y464731D02*
D03*
X179499Y529099D02*
D03*
X182099D02*
D03*
X197454D02*
D03*
X194854D02*
D03*
X204934D02*
D03*
X202334D02*
D03*
X212176D02*
D03*
X219657D02*
D03*
X227137D02*
D03*
X234617D02*
D03*
X547644Y529296D02*
D03*
X581499Y529299D02*
D03*
Y526899D02*
D03*
X588980D02*
D03*
Y529299D02*
D03*
X596460Y526899D02*
D03*
Y529299D02*
D03*
X603940Y526899D02*
D03*
Y529299D02*
D03*
X632680D02*
D03*
X640161Y526899D02*
D03*
Y529299D02*
D03*
X648035Y526899D02*
D03*
Y529299D02*
D03*
X655515Y526899D02*
D03*
Y529299D02*
D03*
X665357Y526899D02*
D03*
Y529299D02*
D03*
X672838Y526899D02*
D03*
Y529299D02*
D03*
X680334Y526946D02*
D03*
Y529346D02*
D03*
X687798Y526899D02*
D03*
Y529299D02*
D03*
X632680Y526899D02*
D03*
X656983Y326385D02*
D03*
Y322448D02*
D03*
Y310637D02*
D03*
Y306700D02*
D03*
Y302763D02*
D03*
Y298826D02*
D03*
X667183Y300794D02*
D03*
Y308668D02*
D03*
Y312605D02*
D03*
Y316542D02*
D03*
Y320479D02*
D03*
Y324416D02*
D03*
X657293Y287093D02*
D03*
Y279219D02*
D03*
Y275282D02*
D03*
Y267408D02*
D03*
Y263471D02*
D03*
Y259534D02*
D03*
Y255597D02*
D03*
Y251660D02*
D03*
Y247723D02*
D03*
Y243786D02*
D03*
X667493Y245754D02*
D03*
Y253628D02*
D03*
Y257565D02*
D03*
Y265439D02*
D03*
Y269376D02*
D03*
Y273313D02*
D03*
Y277250D02*
D03*
Y281187D02*
D03*
Y285124D02*
D03*
Y289061D02*
D03*
X656989Y412109D02*
D03*
Y404235D02*
D03*
Y400298D02*
D03*
Y396361D02*
D03*
Y392424D02*
D03*
Y388487D02*
D03*
Y384550D02*
D03*
Y376676D02*
D03*
Y372739D02*
D03*
Y368802D02*
D03*
Y364865D02*
D03*
Y360928D02*
D03*
X666989Y414109D02*
D03*
Y410172D02*
D03*
Y406235D02*
D03*
Y402298D02*
D03*
Y398361D02*
D03*
Y390487D02*
D03*
Y386550D02*
D03*
Y382613D02*
D03*
Y378676D02*
D03*
Y374739D02*
D03*
Y370802D02*
D03*
Y362928D02*
D03*
X667189Y352109D02*
D03*
Y348172D02*
D03*
Y344235D02*
D03*
Y340298D02*
D03*
Y336361D02*
D03*
Y328487D02*
D03*
X656989Y349972D02*
D03*
Y342098D02*
D03*
Y338161D02*
D03*
Y334224D02*
D03*
Y330287D02*
D03*
X681199Y430336D02*
D03*
X681599Y452536D02*
D03*
X667273Y471930D02*
D03*
Y467993D02*
D03*
Y464056D02*
D03*
Y460119D02*
D03*
Y456182D02*
D03*
Y452245D02*
D03*
X654099Y448299D02*
D03*
X667273Y440434D02*
D03*
Y428623D02*
D03*
X657073Y426654D02*
D03*
Y430591D02*
D03*
Y434528D02*
D03*
Y438465D02*
D03*
Y442402D02*
D03*
Y446339D02*
D03*
Y458150D02*
D03*
Y462087D02*
D03*
Y469961D02*
D03*
X681199Y458536D02*
D03*
X657073Y450276D02*
D03*
X670099Y458899D02*
D03*
X652699Y466699D02*
D03*
X643099Y452899D02*
D03*
X654325Y436502D02*
D03*
X680499Y476699D02*
D03*
X639099Y446099D02*
D03*
X627699Y450299D02*
D03*
X634099Y445899D02*
D03*
X589499Y399699D02*
D03*
X611499Y399499D02*
D03*
X610299Y414299D02*
D03*
X612099Y410099D02*
D03*
X341729Y483259D02*
D03*
X330699Y497665D02*
D03*
X338796Y465202D02*
D03*
X427802Y455196D02*
D03*
X433899Y465919D02*
D03*
Y468259D02*
D03*
X341051Y463548D02*
D03*
X887015Y569291D02*
D03*
X889555D02*
D03*
X622441Y502964D02*
D03*
Y505504D02*
D03*
X897251Y566535D02*
D03*
X899791D02*
D03*
X887029Y580315D02*
D03*
X889569D02*
D03*
X900394Y773228D02*
D03*
Y761417D02*
D03*
X912394D02*
D03*
Y773228D02*
D03*
X924794Y773134D02*
D03*
Y761323D02*
D03*
X936394Y773228D02*
D03*
Y761417D02*
D03*
X996394Y773228D02*
D03*
Y761417D02*
D03*
X1008394Y773228D02*
D03*
Y761417D02*
D03*
X1020394Y773228D02*
D03*
Y761417D02*
D03*
X1032394Y773228D02*
D03*
Y761417D02*
D03*
X964331Y673613D02*
D03*
Y667613D02*
D03*
Y661613D02*
D03*
Y655613D02*
D03*
X1003605Y672976D02*
D03*
X1006299Y674980D02*
D03*
X1054630Y664980D02*
D03*
X1046733Y733579D02*
D03*
Y731020D02*
D03*
X913899Y660299D02*
D03*
X895699Y664699D02*
D03*
X913899Y657740D02*
D03*
Y662858D02*
D03*
X898699D02*
D03*
Y657740D02*
D03*
Y641740D02*
D03*
Y646858D02*
D03*
X913899D02*
D03*
Y641740D02*
D03*
Y644299D02*
D03*
X898699Y625740D02*
D03*
Y630858D02*
D03*
X913899D02*
D03*
Y625740D02*
D03*
Y628299D02*
D03*
X895699Y648699D02*
D03*
Y632699D02*
D03*
X917268Y637968D02*
D03*
X922783Y658253D02*
D03*
Y619546D02*
D03*
X925343D02*
D03*
X927902D02*
D03*
X930461D02*
D03*
X933020D02*
D03*
X935579D02*
D03*
X938138D02*
D03*
X943256D02*
D03*
X945815D02*
D03*
X925343Y658253D02*
D03*
X927902D02*
D03*
X920299Y680499D02*
D03*
X930299D02*
D03*
X940299D02*
D03*
X950299D02*
D03*
X960668Y642299D02*
D03*
X951931D02*
D03*
X954331Y631899D02*
D03*
X993299Y631103D02*
D03*
X1003299D02*
D03*
X1023299D02*
D03*
X1033299D02*
D03*
X1023299Y593495D02*
D03*
X1013299D02*
D03*
X983299Y631103D02*
D03*
X981228Y591014D02*
D03*
X989228D02*
D03*
X997228D02*
D03*
X1005299D02*
D03*
X1013228D02*
D03*
X981228Y582277D02*
D03*
X997228D02*
D03*
X1005299Y582277D02*
D03*
X1013228Y582277D02*
D03*
X1022699Y581931D02*
D03*
X991899Y584699D02*
D03*
X896268Y743899D02*
D03*
Y749899D02*
D03*
X892331D02*
D03*
X896268Y769899D02*
D03*
X892331Y777899D02*
D03*
Y783899D02*
D03*
Y789899D02*
D03*
X896268Y795899D02*
D03*
X892331D02*
D03*
X892299Y801699D02*
D03*
X896268Y801899D02*
D03*
X892331Y807899D02*
D03*
X896268D02*
D03*
X892134Y813899D02*
D03*
X875899Y830268D02*
D03*
X882299Y845731D02*
D03*
X888559Y845968D02*
D03*
X896039D02*
D03*
X888559Y862630D02*
D03*
X892299D02*
D03*
X896039D02*
D03*
X888559Y875968D02*
D03*
X896039D02*
D03*
X892299Y892630D02*
D03*
X898899Y908331D02*
D03*
X899099Y897868D02*
D03*
X896899Y728268D02*
D03*
Y724331D02*
D03*
X923299Y804099D02*
D03*
Y801499D02*
D03*
X899769Y580512D02*
D03*
X897229D02*
D03*
X216699Y436799D02*
D03*
Y432799D02*
D03*
X724799Y506268D02*
D03*
X734799Y508842D02*
D03*
X744799D02*
D03*
X754799D02*
D03*
X759799D02*
D03*
X724799Y458331D02*
D03*
X734799D02*
D03*
X739799D02*
D03*
X744799D02*
D03*
X754799D02*
D03*
X749799D02*
D03*
X719799D02*
D03*
X729799D02*
D03*
Y508842D02*
D03*
X739799D02*
D03*
X749799D02*
D03*
X779799Y458331D02*
D03*
X809799D02*
D03*
X814799D02*
D03*
X784799D02*
D03*
X794799Y508842D02*
D03*
X789799D02*
D03*
X784799D02*
D03*
X799799D02*
D03*
X814799D02*
D03*
X809799D02*
D03*
X804799D02*
D03*
X819799D02*
D03*
X879799D02*
D03*
X869799D02*
D03*
X874799D02*
D03*
X859799D02*
D03*
X844799D02*
D03*
X849799D02*
D03*
X854799D02*
D03*
X839799Y455756D02*
D03*
X854799D02*
D03*
X849799D02*
D03*
X844799D02*
D03*
X874799D02*
D03*
X864799D02*
D03*
X855099Y442299D02*
D03*
Y438362D02*
D03*
X861099Y442299D02*
D03*
Y438362D02*
D03*
X867099D02*
D03*
Y442299D02*
D03*
X873099D02*
D03*
Y438362D02*
D03*
X879099Y442299D02*
D03*
Y438362D02*
D03*
X885099Y442299D02*
D03*
Y438362D02*
D03*
X777099Y442299D02*
D03*
X787099D02*
D03*
X797099Y438362D02*
D03*
Y442299D02*
D03*
X807099D02*
D03*
Y438362D02*
D03*
X882299Y433099D02*
D03*
Y427099D02*
D03*
Y421099D02*
D03*
X867068Y276331D02*
D03*
Y280331D02*
D03*
Y284331D02*
D03*
Y288331D02*
D03*
Y292331D02*
D03*
Y296331D02*
D03*
Y300331D02*
D03*
Y308331D02*
D03*
Y312331D02*
D03*
Y316331D02*
D03*
Y320331D02*
D03*
Y324331D02*
D03*
X840299Y259499D02*
D03*
X844099D02*
D03*
X875099Y320299D02*
D03*
X889299Y335099D02*
D03*
Y332499D02*
D03*
X895299Y332699D02*
D03*
X880899Y326142D02*
D03*
X905083Y332990D02*
D03*
X911699Y322236D02*
D03*
Y308457D02*
D03*
Y312394D02*
D03*
X880299Y292699D02*
D03*
X881299Y316331D02*
D03*
X881099Y310409D02*
D03*
X907190Y305390D02*
D03*
X907099Y300219D02*
D03*
Y297679D02*
D03*
X914299Y323903D02*
D03*
Y326443D02*
D03*
X923150Y302299D02*
D03*
Y298299D02*
D03*
Y294299D02*
D03*
X923181Y290299D02*
D03*
Y286299D02*
D03*
Y282299D02*
D03*
Y278299D02*
D03*
Y274299D02*
D03*
Y270299D02*
D03*
Y266299D02*
D03*
X933417D02*
D03*
X707539Y314339D02*
D03*
Y318339D02*
D03*
Y322339D02*
D03*
X672371Y487028D02*
D03*
Y481028D02*
D03*
X692757Y477634D02*
D03*
X692676Y491657D02*
D03*
X692659Y506939D02*
D03*
X692739Y494059D02*
D03*
X705339Y510339D02*
D03*
X700028Y464459D02*
D03*
X94659Y788739D02*
D03*
X621539Y496339D02*
D03*
X611059Y496259D02*
D03*
X607759Y488059D02*
D03*
X618239Y488139D02*
D03*
X603139Y488239D02*
D03*
X592659Y488159D02*
D03*
X603139Y496239D02*
D03*
X592659Y496159D02*
D03*
X590139Y488139D02*
D03*
X579659Y488059D02*
D03*
X365621Y491080D02*
D03*
X698899Y500931D02*
D03*
Y491465D02*
D03*
X391165Y508799D02*
D03*
X652099Y332331D02*
D03*
X418299Y500534D02*
D03*
X426299D02*
D03*
X421899Y479165D02*
D03*
X414199Y479165D02*
D03*
X406199Y479165D02*
D03*
X398199Y479165D02*
D03*
Y488434D02*
D03*
X414199D02*
D03*
X407633Y493931D02*
D03*
X415633Y493931D02*
D03*
X428965D02*
D03*
X439899Y492898D02*
D03*
X436699Y511899D02*
D03*
X448499Y519099D02*
D03*
X422699Y503499D02*
D03*
X427768Y517965D02*
D03*
X423831D02*
D03*
X419565Y516699D02*
D03*
X412699Y502233D02*
D03*
X368099Y516703D02*
D03*
X884752Y370299D02*
D03*
Y388299D02*
D03*
X932399Y374299D02*
D03*
X425899Y457099D02*
D03*
X387099Y464899D02*
D03*
X386899Y462499D02*
D03*
X860331Y263531D02*
D03*
X856331D02*
D03*
X852331D02*
D03*
X848299Y260899D02*
D03*
Y258499D02*
D03*
X836331Y263531D02*
D03*
X832331D02*
D03*
X873055Y318744D02*
D03*
X848331Y263531D02*
D03*
X895299Y302067D02*
D03*
X348425Y159449D02*
D03*
Y167323D02*
D03*
X413296Y228193D02*
D03*
X368020Y245909D02*
D03*
X344398Y257720D02*
D03*
X340461Y297090D02*
D03*
X196850Y366142D02*
D03*
X336524Y293153D02*
D03*
X352272Y348272D02*
D03*
X348334Y348221D02*
D03*
X348335Y356146D02*
D03*
X352272Y352209D02*
D03*
Y356146D02*
D03*
X391642Y332524D02*
D03*
Y340398D02*
D03*
X320776Y352209D02*
D03*
X360146Y249846D02*
D03*
X356209D02*
D03*
X352272D02*
D03*
X474410Y383858D02*
D03*
X368020Y344335D02*
D03*
X364083Y336461D02*
D03*
X368020D02*
D03*
X344398Y348272D02*
D03*
X332677Y379921D02*
D03*
X371957Y281342D02*
D03*
X368020D02*
D03*
X482194Y364020D02*
D03*
X474320D02*
D03*
X458572D02*
D03*
X458662Y379921D02*
D03*
X474410D02*
D03*
X470473D02*
D03*
X458662Y387795D02*
D03*
X470473Y391732D02*
D03*
X466536Y383858D02*
D03*
Y379921D02*
D03*
X387705Y336461D02*
D03*
X371957Y332524D02*
D03*
X379831Y297090D02*
D03*
Y301027D02*
D03*
Y308901D02*
D03*
Y320713D02*
D03*
Y312838D02*
D03*
X383768Y297090D02*
D03*
Y304964D02*
D03*
Y301027D02*
D03*
Y312838D02*
D03*
Y324650D02*
D03*
Y332524D02*
D03*
X379831Y328587D02*
D03*
X375894D02*
D03*
X371957Y348272D02*
D03*
X375894Y332524D02*
D03*
X371957Y336461D02*
D03*
X368020Y348272D02*
D03*
X344398Y356146D02*
D03*
X340461Y352209D02*
D03*
X328650D02*
D03*
Y367957D02*
D03*
Y364020D02*
D03*
X332587Y328587D02*
D03*
Y332524D02*
D03*
Y336461D02*
D03*
Y340398D02*
D03*
Y344335D02*
D03*
X340461Y332524D02*
D03*
X344398Y344335D02*
D03*
X340461Y340398D02*
D03*
Y344335D02*
D03*
X332587Y348272D02*
D03*
X336524Y340398D02*
D03*
X332587Y375831D02*
D03*
Y352209D02*
D03*
X364173Y379921D02*
D03*
X328650Y371894D02*
D03*
X336524D02*
D03*
X368020Y364020D02*
D03*
Y360083D02*
D03*
X332587Y371894D02*
D03*
X340461D02*
D03*
Y356146D02*
D03*
Y375831D02*
D03*
X336524Y356146D02*
D03*
Y364020D02*
D03*
Y367957D02*
D03*
X344398Y371894D02*
D03*
X352272D02*
D03*
Y364020D02*
D03*
Y360083D02*
D03*
X356209Y371894D02*
D03*
Y364020D02*
D03*
Y360083D02*
D03*
X360146Y332524D02*
D03*
Y336461D02*
D03*
Y340398D02*
D03*
X371957D02*
D03*
X368020D02*
D03*
X364083D02*
D03*
X360146Y344335D02*
D03*
X364083Y348272D02*
D03*
X360146D02*
D03*
Y371894D02*
D03*
Y364020D02*
D03*
Y360083D02*
D03*
X371957Y371894D02*
D03*
X364083Y356146D02*
D03*
Y371894D02*
D03*
Y360083D02*
D03*
Y375831D02*
D03*
Y352209D02*
D03*
X360146D02*
D03*
X356209D02*
D03*
Y356146D02*
D03*
Y348272D02*
D03*
Y375831D02*
D03*
X348335D02*
D03*
Y371894D02*
D03*
X379831Y364020D02*
D03*
Y371894D02*
D03*
X403453D02*
D03*
X411328D02*
D03*
X419202D02*
D03*
X434950D02*
D03*
X454635D02*
D03*
X415265Y375831D02*
D03*
X438887D02*
D03*
X458572Y371894D02*
D03*
X375894Y336461D02*
D03*
X368020Y285279D02*
D03*
X383768Y348272D02*
D03*
Y340398D02*
D03*
Y356146D02*
D03*
X371957Y344335D02*
D03*
X375894D02*
D03*
X387705Y352209D02*
D03*
X375894Y340398D02*
D03*
X379831Y352209D02*
D03*
X258899Y249399D02*
D03*
X245199Y244299D02*
D03*
X289252Y133699D02*
D03*
Y147699D02*
D03*
X281499Y110299D02*
D03*
X291099D02*
D03*
X338899Y85346D02*
D03*
X214599Y98499D02*
D03*
X197999Y98540D02*
D03*
X163864Y138320D02*
D03*
X158288Y157265D02*
D03*
X176599Y158799D02*
D03*
X266599D02*
D03*
X248288Y157265D02*
D03*
X262299Y160299D02*
D03*
X244499Y126299D02*
D03*
X244299Y122299D02*
D03*
X152299D02*
D03*
X152499Y126299D02*
D03*
X205099Y180399D02*
D03*
X208468Y200499D02*
D03*
X226299Y189728D02*
D03*
X249662Y196899D02*
D03*
Y199399D02*
D03*
X257296Y200517D02*
D03*
X257068Y184399D02*
D03*
X275099Y194129D02*
D03*
Y196469D02*
D03*
X253864Y138320D02*
D03*
X126331Y289513D02*
D03*
Y304942D02*
D03*
Y320371D02*
D03*
Y335799D02*
D03*
X126134Y273999D02*
D03*
X126331Y258656D02*
D03*
Y243228D02*
D03*
Y227799D02*
D03*
X86268Y225799D02*
D03*
Y241799D02*
D03*
Y257799D02*
D03*
Y273799D02*
D03*
Y289799D02*
D03*
Y305799D02*
D03*
Y321799D02*
D03*
X649499Y273899D02*
D03*
X652099Y273099D02*
D03*
X654099Y270899D02*
D03*
X650899Y251299D02*
D03*
X484099Y228299D02*
D03*
X688099Y476299D02*
D03*
X371957Y375831D02*
D03*
X368020Y371894D02*
D03*
Y352209D02*
D03*
X474410Y387795D02*
D03*
X466446Y367957D02*
D03*
Y364020D02*
D03*
Y371894D02*
D03*
X462509D02*
D03*
X474320D02*
D03*
X482194D02*
D03*
X478257D02*
D03*
X470473Y387795D02*
D03*
X466536D02*
D03*
X462599Y391732D02*
D03*
Y387795D02*
D03*
X454724D02*
D03*
X458662Y383858D02*
D03*
X482194Y367957D02*
D03*
X470383Y371894D02*
D03*
Y375831D02*
D03*
X450787Y379921D02*
D03*
X454635Y375831D02*
D03*
X462599Y379921D02*
D03*
X462509Y375831D02*
D03*
X478347Y379921D02*
D03*
X478257Y375831D02*
D03*
X415265Y371894D02*
D03*
X442824D02*
D03*
X399516D02*
D03*
X438887D02*
D03*
X391642D02*
D03*
Y364020D02*
D03*
Y356146D02*
D03*
Y348272D02*
D03*
X387705Y344335D02*
D03*
X379831Y375831D02*
D03*
Y344335D02*
D03*
X375894Y371894D02*
D03*
X412348Y176148D02*
D03*
X413711Y178094D02*
D03*
X399516Y312838D02*
D03*
X405899Y163499D02*
D03*
X406699Y155499D02*
D03*
X363299Y461299D02*
D03*
X374299D02*
D03*
X370499D02*
D03*
X367099Y461499D02*
D03*
X648899Y327699D02*
D03*
X355699Y460699D02*
D03*
X359499Y461099D02*
D03*
X431099Y456499D02*
D03*
X432499Y459699D02*
D03*
Y462299D02*
D03*
X436099Y461699D02*
D03*
X430299Y467099D02*
D03*
X584899Y404299D02*
D03*
X289899Y308499D02*
D03*
X309099Y112499D02*
D03*
X351099Y460899D02*
D03*
X516499Y529099D02*
D03*
X446761Y304964D02*
D03*
X470383Y297090D02*
D03*
X466446Y301027D02*
D03*
X495973Y320713D02*
D03*
X482194Y352209D02*
D03*
Y348272D02*
D03*
X478257D02*
D03*
X482194Y344335D02*
D03*
X470383Y336461D02*
D03*
Y344335D02*
D03*
X474320D02*
D03*
X478257D02*
D03*
X482194Y340398D02*
D03*
X478257Y336461D02*
D03*
X482194D02*
D03*
X474320Y328587D02*
D03*
X478257Y332524D02*
D03*
X482194D02*
D03*
Y328587D02*
D03*
X486131Y324650D02*
D03*
X482194D02*
D03*
X478257Y320713D02*
D03*
X470383D02*
D03*
X462509D02*
D03*
X495973Y316382D02*
D03*
X462509Y308901D02*
D03*
X470383Y312838D02*
D03*
X478257D02*
D03*
Y308901D02*
D03*
X495973Y306933D02*
D03*
X462509Y312838D02*
D03*
X482194Y308901D02*
D03*
X478257Y304964D02*
D03*
X482194D02*
D03*
X462509D02*
D03*
X454635D02*
D03*
X482194Y301027D02*
D03*
X462509Y281342D02*
D03*
X807128Y545270D02*
D03*
X809628D02*
D03*
X824628D02*
D03*
X822128D02*
D03*
X842128D02*
D03*
X839628D02*
D03*
X857128D02*
D03*
X854628D02*
D03*
X857128Y570770D02*
D03*
X854628D02*
D03*
X842128D02*
D03*
X839628D02*
D03*
X824628D02*
D03*
X822128D02*
D03*
X770628Y545270D02*
D03*
X773128D02*
D03*
X755628D02*
D03*
X758128D02*
D03*
X738128D02*
D03*
X740628D02*
D03*
X725628D02*
D03*
X723128D02*
D03*
X770628Y570770D02*
D03*
X773128D02*
D03*
X755628D02*
D03*
X758128D02*
D03*
X738128D02*
D03*
X740628D02*
D03*
X733128D02*
D03*
X730628D02*
D03*
X725628D02*
D03*
X723128D02*
D03*
X718128D02*
D03*
X715628D02*
D03*
X486628Y545270D02*
D03*
X489128D02*
D03*
X471628D02*
D03*
X474128D02*
D03*
X454128D02*
D03*
X456628D02*
D03*
X441628D02*
D03*
X439128D02*
D03*
X402628D02*
D03*
X405128D02*
D03*
X387628D02*
D03*
X390128D02*
D03*
X370128D02*
D03*
X372628D02*
D03*
X357628D02*
D03*
X355128D02*
D03*
X347628Y570770D02*
D03*
X350128D02*
D03*
X355128D02*
D03*
X357628D02*
D03*
X362628D02*
D03*
X365128D02*
D03*
X372628D02*
D03*
X370128D02*
D03*
X390128D02*
D03*
X387628D02*
D03*
X405128D02*
D03*
X402628D02*
D03*
X454128D02*
D03*
X456628D02*
D03*
X471628D02*
D03*
X474128D02*
D03*
X486628D02*
D03*
X489128D02*
D03*
X431499Y569499D02*
D03*
X500299Y559299D02*
D03*
X504299D02*
D03*
X508299D02*
D03*
X512299D02*
D03*
X516299D02*
D03*
X530799Y572299D02*
D03*
Y569299D02*
D03*
Y566799D02*
D03*
Y563799D02*
D03*
Y560799D02*
D03*
Y556799D02*
D03*
X76299Y635199D02*
D03*
X76220Y625199D02*
D03*
Y615199D02*
D03*
Y605199D02*
D03*
Y595199D02*
D03*
Y585199D02*
D03*
Y575199D02*
D03*
Y565199D02*
D03*
X25499Y359959D02*
D03*
X26499Y356499D02*
D03*
X37576Y285962D02*
D03*
X30099Y318299D02*
D03*
X40099Y324699D02*
D03*
Y321499D02*
D03*
X22327Y297280D02*
D03*
X20499Y317699D02*
D03*
X64359Y259280D02*
D03*
Y239280D02*
D03*
X68499Y207699D02*
D03*
X65095Y122299D02*
D03*
Y112299D02*
D03*
Y102299D02*
D03*
X27503Y112299D02*
D03*
Y92299D02*
D03*
Y62299D02*
D03*
X20268Y92299D02*
D03*
X16331Y57299D02*
D03*
X36299Y41899D02*
D03*
X43899Y38299D02*
D03*
X40299Y42699D02*
D03*
X65095Y82299D02*
D03*
Y62299D02*
D03*
X695532Y362928D02*
D03*
Y370802D02*
D03*
Y374739D02*
D03*
Y378676D02*
D03*
Y382613D02*
D03*
Y386550D02*
D03*
Y390487D02*
D03*
Y398361D02*
D03*
Y402298D02*
D03*
Y406235D02*
D03*
Y410172D02*
D03*
X685532Y364865D02*
D03*
Y368802D02*
D03*
Y372739D02*
D03*
Y376676D02*
D03*
Y384550D02*
D03*
Y388487D02*
D03*
Y392424D02*
D03*
Y396361D02*
D03*
Y400298D02*
D03*
Y404235D02*
D03*
Y412109D02*
D03*
X695532Y324456D02*
D03*
Y328393D02*
D03*
Y336267D02*
D03*
Y340204D02*
D03*
Y344141D02*
D03*
Y348078D02*
D03*
X685532Y310645D02*
D03*
Y314582D02*
D03*
Y322456D02*
D03*
Y326393D02*
D03*
Y330330D02*
D03*
Y334267D02*
D03*
Y338204D02*
D03*
Y342141D02*
D03*
Y350015D02*
D03*
X695842Y245794D02*
D03*
Y253668D02*
D03*
Y257605D02*
D03*
Y265479D02*
D03*
Y269416D02*
D03*
Y273353D02*
D03*
Y277290D02*
D03*
Y281227D02*
D03*
Y285164D02*
D03*
X685842Y247731D02*
D03*
Y251668D02*
D03*
Y255605D02*
D03*
Y259542D02*
D03*
Y263479D02*
D03*
Y267416D02*
D03*
Y275290D02*
D03*
Y279227D02*
D03*
Y287101D02*
D03*
X685622Y469969D02*
D03*
Y462095D02*
D03*
Y458158D02*
D03*
Y450284D02*
D03*
Y446347D02*
D03*
Y442410D02*
D03*
Y438473D02*
D03*
Y434536D02*
D03*
Y430599D02*
D03*
X695622Y468032D02*
D03*
Y464095D02*
D03*
Y460158D02*
D03*
Y456221D02*
D03*
Y452284D02*
D03*
Y448347D02*
D03*
Y440473D02*
D03*
Y436536D02*
D03*
Y428662D02*
D03*
X678623Y396899D02*
D03*
X674070Y367999D02*
D03*
X681699Y350299D02*
D03*
X678823Y333001D02*
D03*
X672399Y323299D02*
D03*
X674886Y307001D02*
D03*
X678799Y282899D02*
D03*
X674696Y272024D02*
D03*
Y254024D02*
D03*
X679799Y247699D02*
D03*
X693663Y239299D02*
D03*
X699130Y227899D02*
D03*
X707999Y304799D02*
D03*
X716799Y261799D02*
D03*
X708935Y285164D02*
D03*
X682099Y322499D02*
D03*
X695739Y316539D02*
D03*
X717370Y318740D02*
D03*
Y314803D02*
D03*
X721307Y318740D02*
D03*
X725244D02*
D03*
X721307Y314803D02*
D03*
X706099Y208699D02*
D03*
X702899Y206299D02*
D03*
X710299Y212099D02*
D03*
X702699Y311499D02*
D03*
X683099Y417899D02*
D03*
X750499Y370699D02*
D03*
X752899D02*
D03*
X755299D02*
D03*
X757699D02*
D03*
X760099D02*
D03*
X736699Y167699D02*
D03*
X753699Y203499D02*
D03*
X763299Y203699D02*
D03*
X753699Y212899D02*
D03*
X762299Y213099D02*
D03*
X762899Y200299D02*
D03*
X787668Y224299D02*
D03*
X776931D02*
D03*
X792931D02*
D03*
X803668D02*
D03*
X763899Y159699D02*
D03*
X754331Y186899D02*
D03*
X766931Y164299D02*
D03*
X722299Y232099D02*
D03*
X726499Y231899D02*
D03*
X726699Y228499D02*
D03*
Y224499D02*
D03*
X729899Y217499D02*
D03*
X730099Y213899D02*
D03*
X735945Y232799D02*
D03*
X735899Y229099D02*
D03*
X753899Y220699D02*
D03*
X749299Y214499D02*
D03*
X748499Y218299D02*
D03*
X692499Y191899D02*
D03*
X757299Y220699D02*
D03*
X760099Y240299D02*
D03*
X692699Y175299D02*
D03*
X802488Y155194D02*
D03*
X808394Y142855D02*
D03*
X810362Y155194D02*
D03*
X816268Y142855D02*
D03*
X818236Y155194D02*
D03*
X820205Y146152D02*
D03*
X824142Y142855D02*
D03*
X828079Y146152D02*
D03*
X832016Y142855D02*
D03*
X833984Y155194D02*
D03*
X792646Y202107D02*
D03*
X794614Y214446D02*
D03*
X796583Y205404D02*
D03*
X798551Y217743D02*
D03*
X800520Y202107D02*
D03*
X804457Y205404D02*
D03*
X808394Y202107D02*
D03*
X810362Y214446D02*
D03*
X814299Y217743D02*
D03*
X824142Y202107D02*
D03*
X828079Y205404D02*
D03*
X789194Y160614D02*
D03*
X776855Y166520D02*
D03*
X792491Y172425D02*
D03*
X776855Y174394D02*
D03*
X789194Y176362D02*
D03*
X780152Y178331D02*
D03*
X792491Y180299D02*
D03*
X776855Y182268D02*
D03*
X789194Y184236D02*
D03*
X780152Y186205D02*
D03*
X792491Y188173D02*
D03*
X776855Y190142D02*
D03*
X789194Y192110D02*
D03*
X780152Y194079D02*
D03*
X792491Y196047D02*
D03*
X776855Y198016D02*
D03*
X789194Y199984D02*
D03*
X780152Y201953D02*
D03*
X848446Y160614D02*
D03*
X839404Y162583D02*
D03*
Y170457D02*
D03*
X848446Y176362D02*
D03*
X836107Y182268D02*
D03*
X848446Y184236D02*
D03*
X839404Y186205D02*
D03*
Y194079D02*
D03*
X836107Y198016D02*
D03*
X848446Y199984D02*
D03*
X839404Y201953D02*
D03*
X789194Y203921D02*
D03*
X837921Y146152D02*
D03*
X790677D02*
D03*
X856330Y156299D02*
D03*
X826720Y199499D02*
D03*
X809499Y217530D02*
D03*
X826720Y189899D02*
D03*
X836320Y170699D02*
D03*
X823899Y133468D02*
D03*
X804699Y143068D02*
D03*
X809499Y167878D02*
D03*
X758099Y217499D02*
D03*
X884899Y400899D02*
D03*
X873499Y416699D02*
D03*
X881299Y409499D02*
D03*
X883499Y405499D02*
D03*
X878699Y404099D02*
D03*
X878899Y383899D02*
D03*
X879099Y381099D02*
D03*
X906699Y419899D02*
D03*
X855899Y402299D02*
D03*
X889499Y374299D02*
D03*
X881399Y267799D02*
D03*
X872199D02*
D03*
X881399Y271799D02*
D03*
X872199D02*
D03*
X868502Y328299D02*
D03*
X877899D02*
D03*
X998099Y450099D02*
D03*
X1048699Y331499D02*
D03*
X1021899Y338236D02*
D03*
X1016699Y331299D02*
D03*
X1016899Y334899D02*
D03*
X1045499Y341386D02*
D03*
X1051899Y363699D02*
D03*
X1043899Y308899D02*
D03*
X1037299Y309499D02*
D03*
X984299Y851487D02*
D03*
X980559Y849112D02*
D03*
X988039D02*
D03*
Y857773D02*
D03*
X981299Y881112D02*
D03*
X977559Y874825D02*
D03*
Y883487D02*
D03*
X985039D02*
D03*
X1052657Y600299D02*
D03*
X1040699Y599099D02*
D03*
X1170252Y898562D02*
D03*
X1125041Y812331D02*
D03*
X1103331Y824957D02*
D03*
X1107268D02*
D03*
X1103331Y830957D02*
D03*
X1107268D02*
D03*
X1103331Y836957D02*
D03*
X1107268D02*
D03*
X1103331Y842957D02*
D03*
X1107268D02*
D03*
X1103299Y848957D02*
D03*
X1103331Y854957D02*
D03*
Y860957D02*
D03*
X1107268D02*
D03*
X1082926Y804299D02*
D03*
X1073672D02*
D03*
Y812299D02*
D03*
X1082926D02*
D03*
X1073673Y820299D02*
D03*
X1082926D02*
D03*
Y828299D02*
D03*
Y836299D02*
D03*
X1073672Y828299D02*
D03*
Y836299D02*
D03*
X992268Y743957D02*
D03*
X988331Y749957D02*
D03*
X992268D02*
D03*
X988331Y763957D02*
D03*
X992268D02*
D03*
X988331Y769957D02*
D03*
X992268D02*
D03*
X988331Y777957D02*
D03*
X992268D02*
D03*
X988331Y783957D02*
D03*
Y789957D02*
D03*
X992268D02*
D03*
X988331Y795957D02*
D03*
X992268D02*
D03*
X988331Y801957D02*
D03*
X992268D02*
D03*
X988331Y807957D02*
D03*
X992268D02*
D03*
X988331Y813957D02*
D03*
X992268D02*
D03*
X968299Y830926D02*
D03*
X970299Y801672D02*
D03*
Y810926D02*
D03*
X974426Y843099D02*
D03*
X965172Y851099D02*
D03*
X978799Y906926D02*
D03*
X987299Y897672D02*
D03*
X978799Y897673D02*
D03*
X978499Y910873D02*
D03*
Y920126D02*
D03*
X1063299Y885673D02*
D03*
Y894926D02*
D03*
X1061672Y852299D02*
D03*
Y840299D02*
D03*
X1070926D02*
D03*
X1119535Y845130D02*
D03*
X1121504Y833038D02*
D03*
X1127409Y845130D02*
D03*
X1129378Y833038D02*
D03*
X1131346Y841834D02*
D03*
X1137252Y833038D02*
D03*
X1149063Y836335D02*
D03*
X1123472Y877464D02*
D03*
X1127409Y877899D02*
D03*
X1135283Y880760D02*
D03*
X1139220Y877464D02*
D03*
X1143157Y880760D02*
D03*
X1145126Y868668D02*
D03*
X1147094Y877464D02*
D03*
X1110438Y844104D02*
D03*
X1119234Y853946D02*
D03*
X1113735Y863789D02*
D03*
X1122530Y865757D02*
D03*
X1110438Y867726D02*
D03*
X1119234Y869694D02*
D03*
X1113735Y871663D02*
D03*
X1158160Y842135D02*
D03*
X1146068Y844104D02*
D03*
X1149165Y848041D02*
D03*
X1154864Y853946D02*
D03*
X1149165Y855915D02*
D03*
X1158160Y857883D02*
D03*
X1146068Y859852D02*
D03*
X1154864Y861820D02*
D03*
Y869694D02*
D03*
X1113735Y846072D02*
D03*
X1157948Y871299D02*
D03*
X1113735Y842135D02*
D03*
X1157024Y873879D02*
D03*
X1116099Y877899D02*
D03*
X1133315Y871965D02*
D03*
X1129868Y900268D02*
D03*
X1114331Y834957D02*
D03*
X1118268D02*
D03*
X1114331Y825641D02*
D03*
X1118268D02*
D03*
X1027799Y782173D02*
D03*
X1035799D02*
D03*
X1039799D02*
D03*
X1047799D02*
D03*
Y791426D02*
D03*
X1043799D02*
D03*
X1039799D02*
D03*
X1035799D02*
D03*
X1031799D02*
D03*
X1027799D02*
D03*
X939167Y539899D02*
D03*
Y532399D02*
D03*
Y554899D02*
D03*
Y559899D02*
D03*
Y567399D02*
D03*
Y572399D02*
D03*
X903432D02*
D03*
Y527399D02*
D03*
Y569899D02*
D03*
Y567399D02*
D03*
Y564899D02*
D03*
Y562399D02*
D03*
Y559899D02*
D03*
Y557399D02*
D03*
Y552399D02*
D03*
Y549899D02*
D03*
Y547399D02*
D03*
Y544899D02*
D03*
Y539899D02*
D03*
Y534899D02*
D03*
X1013252Y563546D02*
D03*
X989417Y503999D02*
D03*
Y532599D02*
D03*
X988268Y535946D02*
D03*
X958331Y503946D02*
D03*
X962268D02*
D03*
X960331Y500652D02*
D03*
X964268D02*
D03*
X978268D02*
D03*
X904652Y489868D02*
D03*
Y485931D02*
D03*
X1042299Y721188D02*
D03*
Y731411D02*
D03*
X1039156Y736331D02*
D03*
X1045442Y740268D02*
D03*
X1043799Y782173D02*
D03*
X1031799D02*
D03*
X762699Y476436D02*
D03*
X768699D02*
D03*
Y472499D02*
D03*
X774699D02*
D03*
Y476436D02*
D03*
X780699D02*
D03*
Y472499D02*
D03*
X786699Y476436D02*
D03*
Y472499D02*
D03*
X792899Y476347D02*
D03*
X792699Y472499D02*
D03*
X798699Y472499D02*
D03*
X804699Y476436D02*
D03*
Y472499D02*
D03*
X810699Y476436D02*
D03*
Y472499D02*
D03*
X816699Y472499D02*
D03*
X918631Y515568D02*
D03*
X928168Y515631D02*
D03*
X869699Y403699D02*
D03*
X875899Y422099D02*
D03*
X860499Y399499D02*
D03*
X902099Y279899D02*
D03*
X905699Y280099D02*
D03*
X939167Y564899D02*
D03*
Y569899D02*
D03*
X820299Y439899D02*
D03*
X952331Y563442D02*
D03*
X939167Y557399D02*
D03*
Y562399D02*
D03*
X837699Y451099D02*
D03*
X844699Y450899D02*
D03*
X835699Y459899D02*
D03*
X747099Y539899D02*
D03*
X917899Y534699D02*
D03*
X714699Y484899D02*
D03*
X718499Y488099D02*
D03*
X712099Y480299D02*
D03*
X711699Y483499D02*
D03*
X673499Y167899D02*
D03*
X662699Y176299D02*
D03*
X661899Y169099D02*
D03*
X890899Y238499D02*
D03*
X771299D02*
D03*
X685099Y213699D02*
D03*
X681499Y356899D02*
D03*
X745919Y493499D02*
D03*
X748259D02*
D03*
X755188Y470188D02*
D03*
X753468Y472531D02*
D03*
X853099Y168499D02*
D03*
X816699Y160699D02*
D03*
X832699Y159699D02*
D03*
X823099Y487699D02*
D03*
X828099Y508699D02*
D03*
X760499Y455899D02*
D03*
X716899Y237499D02*
D03*
X720299Y240899D02*
D03*
X717099Y226099D02*
D03*
X716899Y229299D02*
D03*
Y232299D02*
D03*
X764899Y127299D02*
D03*
Y130899D02*
D03*
X675099Y142699D02*
D03*
X679699Y141099D02*
D03*
X753499Y494299D02*
D03*
X785499Y620899D02*
D03*
X789299Y618099D02*
D03*
X794299Y632699D02*
D03*
X791699Y610099D02*
D03*
X785699Y604099D02*
D03*
X785079Y599299D02*
D03*
X776099Y619899D02*
D03*
X136099Y16299D02*
D03*
X143833Y68351D02*
D03*
Y72288D02*
D03*
X167633Y58320D02*
D03*
X169865Y40320D02*
D03*
Y34320D02*
D03*
Y28320D02*
D03*
X150288Y10765D02*
D03*
X146351D02*
D03*
X136288D02*
D03*
X129865Y8320D02*
D03*
X142499Y46899D02*
D03*
X136099Y47299D02*
D03*
X125299Y53299D02*
D03*
X142699Y16499D02*
D03*
X171299Y16053D02*
D03*
X71099Y189099D02*
D03*
X70899Y179299D02*
D03*
X71299Y169499D02*
D03*
X766299Y442699D02*
D03*
X774299Y446299D02*
D03*
X762899Y607299D02*
D03*
X764299Y610899D02*
D03*
X131795Y613643D02*
D03*
X122162Y616202D02*
D03*
X131795Y618761D02*
D03*
X122162Y621320D02*
D03*
X131795Y623879D02*
D03*
X122162Y626438D02*
D03*
X131795Y628997D02*
D03*
X122162Y631556D02*
D03*
X131795Y634115D02*
D03*
X122162Y636674D02*
D03*
X144603Y611083D02*
D03*
X154236Y613643D02*
D03*
X144603Y616202D02*
D03*
Y621320D02*
D03*
X154236Y623879D02*
D03*
X144603Y626438D02*
D03*
X154236Y628997D02*
D03*
X144603Y631556D02*
D03*
X154236Y634115D02*
D03*
X144603Y636674D02*
D03*
X134751Y719260D02*
D03*
X119311Y729339D02*
D03*
Y709299D02*
D03*
X134751Y739299D02*
D03*
X66751Y719260D02*
D03*
X51311Y729339D02*
D03*
Y709299D02*
D03*
X66751Y739299D02*
D03*
X134856Y808299D02*
D03*
X117742Y812039D02*
D03*
X134856Y832299D02*
D03*
X117742Y836039D02*
D03*
Y864039D02*
D03*
X134856Y884299D02*
D03*
X117742Y888039D02*
D03*
X105313Y866394D02*
D03*
Y878205D02*
D03*
X89313Y866394D02*
D03*
Y878205D02*
D03*
X73313D02*
D03*
X57313Y866394D02*
D03*
Y878205D02*
D03*
X72313Y840205D02*
D03*
X104313D02*
D03*
X57313D02*
D03*
X88313D02*
D03*
X57313Y812205D02*
D03*
X73313D02*
D03*
X89313D02*
D03*
X105313D02*
D03*
X50793Y775299D02*
D03*
X88793Y765299D02*
D03*
X126793D02*
D03*
X105614Y668887D02*
D03*
X109619Y654721D02*
D03*
X126980Y646841D02*
D03*
X91968Y687478D02*
D03*
X100630Y683738D02*
D03*
X108331Y689738D02*
D03*
X112268D02*
D03*
X108331Y679738D02*
D03*
X112268D02*
D03*
X142331Y713738D02*
D03*
X146268D02*
D03*
X142331Y723738D02*
D03*
X146268D02*
D03*
X142331Y733738D02*
D03*
X146268D02*
D03*
X142299Y743338D02*
D03*
X146499D02*
D03*
X85699Y893099D02*
D03*
X114499Y934099D02*
D03*
Y930359D02*
D03*
Y926619D02*
D03*
X132168Y654390D02*
D03*
X118328Y642430D02*
D03*
X100390Y646430D02*
D03*
X104328D02*
D03*
Y638430D02*
D03*
X126430Y590271D02*
D03*
X136430Y594208D02*
D03*
Y590271D02*
D03*
X146430Y594208D02*
D03*
Y590271D02*
D03*
X143930Y576708D02*
D03*
Y572771D02*
D03*
X87299Y824299D02*
D03*
X71299D02*
D03*
X103299D02*
D03*
X55299D02*
D03*
X70299Y852299D02*
D03*
X86299D02*
D03*
X102299D02*
D03*
X55299D02*
D03*
X109899Y665899D02*
D03*
X72931Y736661D02*
D03*
X76868D02*
D03*
X72931Y726661D02*
D03*
X76868D02*
D03*
X72931Y716661D02*
D03*
X76868D02*
D03*
X72931Y706661D02*
D03*
X76868D02*
D03*
X786499Y450499D02*
D03*
X881299Y446899D02*
D03*
X875499Y449299D02*
D03*
X572899Y314299D02*
D03*
X1168099Y879699D02*
D03*
X1190699Y881226D02*
D03*
X1020172Y769299D02*
D03*
X1017641Y780268D02*
D03*
X900299Y782926D02*
D03*
X912299D02*
D03*
X924299D02*
D03*
X936299D02*
D03*
X1139099Y884699D02*
D03*
X1170041Y874699D02*
D03*
X1176041D02*
D03*
X851743Y190142D02*
D03*
X918699Y754899D02*
D03*
X911899Y750699D02*
D03*
X901800Y786000D02*
D03*
X921395Y781003D02*
D03*
X912499Y765899D02*
D03*
X888099Y763499D02*
D03*
X912899Y801899D02*
D03*
X907499Y825699D02*
D03*
X832099Y729499D02*
D03*
X990268Y841443D02*
D03*
X977416Y854630D02*
D03*
X647299Y428299D02*
D03*
X852299Y154699D02*
D03*
X154236Y618761D02*
D03*
X85899Y79299D02*
D03*
X187299Y137099D02*
D03*
X84499Y153899D02*
D03*
X173699Y49099D02*
D03*
X586899Y102899D02*
D03*
X278099Y59899D02*
D03*
X1040099Y635899D02*
D03*
X502499Y497099D02*
D03*
X522499Y538499D02*
D03*
X697499Y506099D02*
D03*
X220099Y699499D02*
D03*
X830099Y741099D02*
D03*
X330499Y583499D02*
D03*
X236099Y189699D02*
D03*
X677099Y226299D02*
D03*
X676699Y222099D02*
D03*
X641699Y217099D02*
D03*
X819201Y164598D02*
D03*
X662499Y158699D02*
D03*
X672699Y146699D02*
D03*
X665299Y149099D02*
D03*
X788099Y142099D02*
D03*
X853299Y136099D02*
D03*
X875699Y214099D02*
D03*
X873299Y212099D02*
D03*
X1037699Y203499D02*
D03*
X1018369Y158298D02*
D03*
X661699Y416699D02*
D03*
X1022099Y550299D02*
D03*
X1019499Y543699D02*
D03*
X1056299Y740899D02*
D03*
X748099Y653659D02*
D03*
Y658039D02*
D03*
Y671179D02*
D03*
Y675559D02*
D03*
Y644899D02*
D03*
X981899Y670499D02*
D03*
Y665381D02*
D03*
Y662822D02*
D03*
Y660263D02*
D03*
Y673058D02*
D03*
X863299Y807299D02*
D03*
X860299Y813099D02*
D03*
X862699Y817899D02*
D03*
X745499Y684899D02*
D03*
X913699Y652299D02*
D03*
X468799Y509599D02*
D03*
X472299Y513499D02*
D03*
X831499Y684099D02*
D03*
X827099Y679899D02*
D03*
X762299Y516699D02*
D03*
X762099Y512699D02*
D03*
X688099Y499299D02*
D03*
X681099Y425499D02*
D03*
X666899Y424699D02*
D03*
X680699Y427899D02*
D03*
X750499Y478299D02*
D03*
X711699Y477899D02*
D03*
X757299Y476699D02*
D03*
X778499Y480699D02*
D03*
X702468Y521731D02*
D03*
X780299Y635699D02*
D03*
X833899Y503699D02*
D03*
X835499Y497699D02*
D03*
X679299Y415899D02*
D03*
X670899Y429299D02*
D03*
X680899Y440299D02*
D03*
X950299Y515699D02*
D03*
X952499Y512699D02*
D03*
X954899Y508099D02*
D03*
X954099Y504099D02*
D03*
X1020099Y533699D02*
D03*
X966499Y483699D02*
D03*
X975399Y484299D02*
D03*
X819799Y586599D02*
D03*
X984899Y701699D02*
D03*
X840099Y679899D02*
D03*
X1117899Y735299D02*
D03*
X1084899Y870899D02*
D03*
X1085699Y867699D02*
D03*
X1044099Y710899D02*
D03*
X1192899Y268899D02*
D03*
X354241Y228746D02*
D03*
X328687Y344335D02*
D03*
X336524D02*
D03*
X474320Y367957D02*
D03*
X608268Y379921D02*
D03*
X132299Y659299D02*
D03*
X1157600Y864000D02*
D03*
X949500Y258000D02*
D03*
X371963Y363936D02*
D03*
X676300Y218100D02*
D03*
X832800Y204000D02*
D03*
X450666Y364052D02*
D03*
X1076299Y729299D02*
D03*
X1071299Y747299D02*
D03*
X681000Y129800D02*
D03*
X946348Y724400D02*
D03*
X965099Y728699D02*
D03*
Y733699D02*
D03*
X986417Y724409D02*
D03*
X982480Y713779D02*
D03*
X1038299Y701157D02*
D03*
X1025539Y520866D02*
D03*
X1026359Y524409D02*
D03*
X1157480Y785827D02*
D03*
X1191732Y783858D02*
D03*
X1192126Y807874D02*
D03*
X1192913Y796457D02*
D03*
X1192126Y801968D02*
D03*
X1061857Y250031D02*
D03*
X1057559Y261474D02*
D03*
X1052441D02*
D03*
X1049298Y249669D02*
D03*
X1054968Y240857D02*
D03*
X859300Y191500D02*
D03*
X858200Y205700D02*
D03*
X880200Y198000D02*
D03*
X879300Y193200D02*
D03*
X1164000Y846800D02*
D03*
X1175031Y811258D02*
D03*
X1178969D02*
D03*
X1083200Y676700D02*
D03*
X375894Y293153D02*
D03*
X371957Y301027D02*
D03*
X383768Y293153D02*
D03*
X360146Y277405D02*
D03*
X328650Y285279D02*
D03*
X332587D02*
D03*
X896190Y681000D02*
D03*
Y698000D02*
D03*
D192*
X1127213Y849813D02*
D03*
Y854537D02*
D03*
Y859261D02*
D03*
Y863986D02*
D03*
X1131937Y849813D02*
D03*
Y854537D02*
D03*
Y859261D02*
D03*
Y863986D02*
D03*
X1136661Y849813D02*
D03*
Y854537D02*
D03*
Y859261D02*
D03*
Y863986D02*
D03*
X1141386Y849813D02*
D03*
Y854537D02*
D03*
Y859261D02*
D03*
Y863986D02*
D03*
M02*
