%FSLAX25Y25*%
%MOIN*%
G70*
G01*
G75*
G04 Layer_Physical_Order=4*
G04 Layer_Color=32768*
%ADD10C,0.00500*%
%ADD11C,0.00500*%
G04:AMPARAMS|DCode=12|XSize=19.69mil|YSize=23.62mil|CornerRadius=4.92mil|HoleSize=0mil|Usage=FLASHONLY|Rotation=90.000|XOffset=0mil|YOffset=0mil|HoleType=Round|Shape=RoundedRectangle|*
%AMROUNDEDRECTD12*
21,1,0.01969,0.01378,0,0,90.0*
21,1,0.00984,0.02362,0,0,90.0*
1,1,0.00984,0.00689,0.00492*
1,1,0.00984,0.00689,-0.00492*
1,1,0.00984,-0.00689,-0.00492*
1,1,0.00984,-0.00689,0.00492*
%
%ADD12ROUNDEDRECTD12*%
%ADD13R,0.02362X0.02362*%
G04:AMPARAMS|DCode=14|XSize=19.69mil|YSize=23.62mil|CornerRadius=4.92mil|HoleSize=0mil|Usage=FLASHONLY|Rotation=0.000|XOffset=0mil|YOffset=0mil|HoleType=Round|Shape=RoundedRectangle|*
%AMROUNDEDRECTD14*
21,1,0.01969,0.01378,0,0,0.0*
21,1,0.00984,0.02362,0,0,0.0*
1,1,0.00984,0.00492,-0.00689*
1,1,0.00984,-0.00492,-0.00689*
1,1,0.00984,-0.00492,0.00689*
1,1,0.00984,0.00492,0.00689*
%
%ADD14ROUNDEDRECTD14*%
%ADD15R,0.01378X0.03347*%
%ADD16R,0.02362X0.02362*%
%ADD17R,0.03937X0.05512*%
%ADD18R,0.06299X0.06299*%
%ADD19R,0.03150X0.01102*%
%ADD20R,0.01102X0.03150*%
%ADD21R,0.06299X0.06299*%
%ADD22R,0.05512X0.01575*%
%ADD23R,0.07087X0.07087*%
%ADD24R,0.01181X0.03740*%
%ADD25R,0.05512X0.05512*%
%ADD26R,0.03740X0.01181*%
%ADD27R,0.06496X0.01181*%
%ADD28R,0.06181X0.07402*%
%ADD29R,0.11811X0.11811*%
%ADD30R,0.01102X0.03347*%
%ADD31R,0.03347X0.01102*%
%ADD32R,0.01181X0.03150*%
%ADD33R,0.03150X0.01181*%
%ADD34R,0.17716X0.17716*%
%ADD35R,0.11811X0.11811*%
%ADD36R,0.12992X0.12992*%
%ADD37R,0.03740X0.01378*%
%ADD38R,0.01378X0.03740*%
%ADD39R,0.12992X0.12992*%
%ADD40C,0.01969*%
%ADD41C,0.03937*%
%ADD42C,0.01772*%
%ADD43R,0.07087X0.07087*%
%ADD44R,0.15590X0.15590*%
%ADD45R,0.01600X0.08500*%
%ADD46R,0.71000X0.02000*%
%ADD47R,0.01654X0.04803*%
%ADD48R,0.80000X0.15000*%
%ADD49R,0.05512X0.03937*%
%ADD50R,0.03150X0.03150*%
%ADD51R,0.10827X0.09449*%
%ADD52R,0.06890X0.01181*%
%ADD53R,0.08661X0.05709*%
%ADD54R,0.04331X0.10236*%
%ADD55R,0.05709X0.08661*%
%ADD56R,0.09449X0.10827*%
%ADD57R,0.06693X0.01378*%
%ADD58R,0.07874X0.07087*%
%ADD59R,0.07874X0.04331*%
%ADD60R,0.07087X0.07874*%
%ADD61R,0.03937X0.02756*%
%ADD62R,0.01378X0.06102*%
%ADD63R,0.01772X0.07087*%
%ADD64R,0.07087X0.02362*%
%ADD65R,0.02756X0.03937*%
%ADD66R,0.01772X0.06299*%
%ADD67R,0.01181X0.06496*%
%ADD68R,0.06299X0.01772*%
%ADD69R,0.01378X0.07087*%
%ADD70R,0.07047X0.05000*%
%ADD71R,0.12500X0.07008*%
%ADD72R,0.12598X0.13976*%
%ADD73R,0.27953X0.11024*%
%ADD74R,0.13976X0.12598*%
%ADD75R,0.04331X0.05315*%
%ADD76R,0.05315X0.04331*%
%ADD77R,0.03347X0.03150*%
%ADD78R,0.06693X0.04528*%
%ADD79R,0.04528X0.06693*%
%ADD80R,0.03937X0.07087*%
%ADD81R,0.07087X0.03937*%
%ADD82R,0.07087X0.04528*%
%ADD83R,0.05512X0.04331*%
%ADD84R,0.10236X0.04331*%
%ADD85R,0.25394X0.07874*%
%ADD86R,0.04331X0.05512*%
%ADD87R,0.07874X0.25394*%
%ADD88O,0.08071X0.02362*%
%ADD89R,0.03347X0.01378*%
%ADD90R,0.20000X0.05000*%
%ADD91R,0.05118X0.03937*%
%ADD92R,0.05118X0.02362*%
%ADD93R,0.02165X0.00787*%
%ADD94R,0.05512X0.04724*%
%ADD95R,0.05000X0.14488*%
%ADD96R,0.15748X0.05906*%
%ADD97R,0.05906X0.15748*%
%ADD98R,0.14488X0.05000*%
%ADD99R,0.03347X0.01969*%
%ADD100R,0.05000X0.01693*%
%ADD101O,0.00984X0.06102*%
%ADD102O,0.06102X0.00984*%
%ADD103R,0.08268X0.12598*%
%ADD104R,0.04724X0.07677*%
%ADD105R,0.03740X0.07874*%
%ADD106R,0.06102X0.08661*%
%ADD107R,0.06102X0.16417*%
%ADD108R,0.05906X0.06496*%
%ADD109R,0.05906X0.04331*%
%ADD110R,0.06299X0.07362*%
%ADD111R,0.02362X0.08858*%
%ADD112C,0.00800*%
%ADD113C,0.01000*%
%ADD114C,0.02500*%
%ADD115C,0.01200*%
%ADD116C,0.05000*%
%ADD117C,0.02000*%
%ADD118C,0.10000*%
%ADD119C,0.01500*%
%ADD120C,0.00600*%
%ADD121R,0.11500X0.04000*%
%ADD122C,0.04500*%
%ADD123C,0.12000*%
%ADD124C,0.09646*%
%ADD125C,0.06378*%
%ADD126C,0.09055*%
%ADD127C,0.12598*%
%ADD128C,0.05906*%
%ADD129C,0.31496*%
G04:AMPARAMS|DCode=130|XSize=51.18mil|YSize=86.61mil|CornerRadius=12.8mil|HoleSize=0mil|Usage=FLASHONLY|Rotation=180.000|XOffset=0mil|YOffset=0mil|HoleType=Round|Shape=RoundedRectangle|*
%AMROUNDEDRECTD130*
21,1,0.05118,0.06102,0,0,180.0*
21,1,0.02559,0.08661,0,0,180.0*
1,1,0.02559,-0.01280,0.03051*
1,1,0.02559,0.01280,0.03051*
1,1,0.02559,0.01280,-0.03051*
1,1,0.02559,-0.01280,-0.03051*
%
%ADD130ROUNDEDRECTD130*%
%ADD131C,0.04724*%
G04:AMPARAMS|DCode=132|XSize=47.24mil|YSize=110.24mil|CornerRadius=11.81mil|HoleSize=0mil|Usage=FLASHONLY|Rotation=270.000|XOffset=0mil|YOffset=0mil|HoleType=Round|Shape=RoundedRectangle|*
%AMROUNDEDRECTD132*
21,1,0.04724,0.08661,0,0,270.0*
21,1,0.02362,0.11024,0,0,270.0*
1,1,0.02362,-0.04331,-0.01181*
1,1,0.02362,-0.04331,0.01181*
1,1,0.02362,0.04331,0.01181*
1,1,0.02362,0.04331,-0.01181*
%
%ADD132ROUNDEDRECTD132*%
%ADD133C,0.07874*%
%ADD134C,0.04331*%
%ADD135R,0.07874X0.07874*%
%ADD136C,0.08661*%
%ADD137C,0.07087*%
%ADD138C,0.09843*%
%ADD139C,0.12205*%
%ADD140C,0.13780*%
G04:AMPARAMS|DCode=141|XSize=78.74mil|YSize=118.11mil|CornerRadius=19.69mil|HoleSize=0mil|Usage=FLASHONLY|Rotation=270.000|XOffset=0mil|YOffset=0mil|HoleType=Round|Shape=RoundedRectangle|*
%AMROUNDEDRECTD141*
21,1,0.07874,0.07874,0,0,270.0*
21,1,0.03937,0.11811,0,0,270.0*
1,1,0.03937,-0.03937,-0.01969*
1,1,0.03937,-0.03937,0.01969*
1,1,0.03937,0.03937,0.01969*
1,1,0.03937,0.03937,-0.01969*
%
%ADD141ROUNDEDRECTD141*%
%ADD142C,0.05512*%
%ADD143C,0.09252*%
%ADD144C,0.05591*%
%ADD145C,0.06437*%
%ADD146C,0.11811*%
%ADD147C,0.01940*%
%ADD148C,0.01900*%
%ADD149C,0.02000*%
%ADD150C,0.02598*%
%ADD151C,0.01860*%
%ADD152C,0.05000*%
%ADD153C,0.04000*%
%ADD154C,0.07040*%
%ADD155C,0.04409*%
%ADD156C,0.14743*%
%ADD157C,0.08149*%
G04:AMPARAMS|DCode=158|XSize=117.087mil|YSize=117.087mil|CornerRadius=0mil|HoleSize=0mil|Usage=FLASHONLY|Rotation=0.000|XOffset=0mil|YOffset=0mil|HoleType=Round|Shape=Relief|Width=15mil|Gap=10mil|Entries=4|*
%AMTHD158*
7,0,0,0.11709,0.09709,0.01500,45*
%
%ADD158THD158*%
%ADD159C,0.06456*%
G04:AMPARAMS|DCode=160|XSize=100.157mil|YSize=100.157mil|CornerRadius=0mil|HoleSize=0mil|Usage=FLASHONLY|Rotation=0.000|XOffset=0mil|YOffset=0mil|HoleType=Round|Shape=Relief|Width=15mil|Gap=10mil|Entries=4|*
%AMTHD160*
7,0,0,0.10016,0.08016,0.01500,45*
%
%ADD160THD160*%
G04:AMPARAMS|DCode=161|XSize=122.992mil|YSize=122.992mil|CornerRadius=0mil|HoleSize=0mil|Usage=FLASHONLY|Rotation=0.000|XOffset=0mil|YOffset=0mil|HoleType=Round|Shape=Relief|Width=15mil|Gap=10mil|Entries=4|*
%AMTHD161*
7,0,0,0.12299,0.10299,0.01500,45*
%
%ADD161THD161*%
%ADD162C,0.15235*%
%ADD163C,0.05983*%
G04:AMPARAMS|DCode=164|XSize=95.433mil|YSize=95.433mil|CornerRadius=0mil|HoleSize=0mil|Usage=FLASHONLY|Rotation=0.000|XOffset=0mil|YOffset=0mil|HoleType=Round|Shape=Relief|Width=15mil|Gap=10mil|Entries=4|*
%AMTHD164*
7,0,0,0.09543,0.07543,0.01500,45*
%
%ADD164THD164*%
%ADD165C,0.17440*%
G04:AMPARAMS|DCode=166|XSize=210mil|YSize=210mil|CornerRadius=0mil|HoleSize=0mil|Usage=FLASHONLY|Rotation=0.000|XOffset=0mil|YOffset=0mil|HoleType=Round|Shape=Relief|Width=15mil|Gap=10mil|Entries=4|*
%AMTHD166*
7,0,0,0.21000,0.19000,0.01500,45*
%
%ADD166THD166*%
%AMTHOVALD167*
21,1,0.03543,0.09937,0,0,270.0*
1,1,0.09937,0.00000,0.01772*
1,1,0.09937,0.00000,-0.01772*
21,0,0.03543,0.07937,0,0,270.0*
1,0,0.07937,0.00000,0.01772*
1,0,0.07937,0.00000,-0.01772*
4,0,4,-0.00530,0.01241,-0.04044,0.04755,-0.02983,0.05815,0.00530,0.02302,-0.00530,0.01241,0.0*
4,0,4,-0.00530,-0.02302,0.02983,-0.05815,0.04044,-0.04755,0.00530,-0.01241,-0.00530,-0.02302,0.0*
4,0,4,-0.00530,0.02302,0.02983,0.05815,0.04044,0.04755,0.00530,0.01241,-0.00530,0.02302,0.0*
4,0,4,-0.00530,-0.01241,-0.04044,-0.04755,-0.02983,-0.05815,0.00530,-0.02302,-0.00530,-0.01241,0.0*
%
%ADD167THOVALD167*%

G04:AMPARAMS|DCode=168|XSize=91.496mil|YSize=91.496mil|CornerRadius=0mil|HoleSize=0mil|Usage=FLASHONLY|Rotation=0.000|XOffset=0mil|YOffset=0mil|HoleType=Round|Shape=Relief|Width=15mil|Gap=10mil|Entries=4|*
%AMTHD168*
7,0,0,0.09150,0.07150,0.01500,45*
%
%ADD168THD168*%
%ADD169C,0.05590*%
%AMTHOVALD170*
21,1,0.06299,0.09150,0,0,360.0*
1,1,0.09150,-0.03150,0.00000*
1,1,0.09150,0.03150,0.00000*
21,0,0.06299,0.07150,0,0,360.0*
1,0,0.07150,-0.03150,0.00000*
1,0,0.07150,0.03150,0.00000*
4,0,4,-0.02619,-0.00530,-0.05854,-0.03765,-0.06915,-0.02705,-0.03680,0.00530,-0.02619,-0.00530,0.0*
4,0,4,0.03680,-0.00530,0.06915,0.02705,0.05854,0.03765,0.02619,0.00530,0.03680,-0.00530,0.0*
4,0,4,-0.03680,-0.00530,-0.06915,0.02705,-0.05854,0.03765,-0.02619,0.00530,-0.03680,-0.00530,0.0*
4,0,4,0.02619,-0.00530,0.05854,-0.03765,0.06915,-0.02705,0.03680,0.00530,0.02619,-0.00530,0.0*
%
%ADD170THOVALD170*%

%ADD171C,0.07164*%
G04:AMPARAMS|DCode=172|XSize=107.244mil|YSize=107.244mil|CornerRadius=0mil|HoleSize=0mil|Usage=FLASHONLY|Rotation=0.000|XOffset=0mil|YOffset=0mil|HoleType=Round|Shape=Relief|Width=15mil|Gap=10mil|Entries=4|*
%AMTHD172*
7,0,0,0.10724,0.08724,0.01500,45*
%
%ADD172THD172*%
G04:AMPARAMS|DCode=173|XSize=83.622mil|YSize=83.622mil|CornerRadius=0mil|HoleSize=0mil|Usage=FLASHONLY|Rotation=0.000|XOffset=0mil|YOffset=0mil|HoleType=Round|Shape=Relief|Width=15mil|Gap=10mil|Entries=4|*
%AMTHD173*
7,0,0,0.08362,0.06362,0.01500,45*
%
%ADD173THD173*%
%ADD174C,0.04802*%
%ADD175C,0.06771*%
G04:AMPARAMS|DCode=176|XSize=103.307mil|YSize=103.307mil|CornerRadius=0mil|HoleSize=0mil|Usage=FLASHONLY|Rotation=0.000|XOffset=0mil|YOffset=0mil|HoleType=Round|Shape=Relief|Width=15mil|Gap=10mil|Entries=4|*
%AMTHD176*
7,0,0,0.10331,0.08331,0.01500,45*
%
%ADD176THD176*%
G04:AMPARAMS|DCode=177|XSize=126.929mil|YSize=126.929mil|CornerRadius=0mil|HoleSize=0mil|Usage=FLASHONLY|Rotation=0.000|XOffset=0mil|YOffset=0mil|HoleType=Round|Shape=Relief|Width=15mil|Gap=10mil|Entries=4|*
%AMTHD177*
7,0,0,0.12693,0.10693,0.01500,45*
%
%ADD177THD177*%
%ADD178C,0.08346*%
%ADD179C,0.15038*%
%ADD180C,0.12086*%
%ADD181O,0.12204X0.09133*%
G04:AMPARAMS|DCode=182|XSize=87.559mil|YSize=87.559mil|CornerRadius=0mil|HoleSize=0mil|Usage=FLASHONLY|Rotation=0.000|XOffset=0mil|YOffset=0mil|HoleType=Round|Shape=Relief|Width=15mil|Gap=10mil|Entries=4|*
%AMTHD182*
7,0,0,0.08756,0.06756,0.01500,45*
%
%ADD182THD182*%
%ADD183C,0.05196*%
%ADD184C,0.11889*%
G04:AMPARAMS|DCode=185|XSize=92.284mil|YSize=92.284mil|CornerRadius=0mil|HoleSize=0mil|Usage=FLASHONLY|Rotation=0.000|XOffset=0mil|YOffset=0mil|HoleType=Round|Shape=Relief|Width=15mil|Gap=10mil|Entries=4|*
%AMTHD185*
7,0,0,0.09228,0.07228,0.01500,45*
%
%ADD185THD185*%
G04:AMPARAMS|DCode=186|XSize=99.37mil|YSize=99.37mil|CornerRadius=0mil|HoleSize=0mil|Usage=FLASHONLY|Rotation=0.000|XOffset=0mil|YOffset=0mil|HoleType=Round|Shape=Relief|Width=15mil|Gap=10mil|Entries=4|*
%AMTHD186*
7,0,0,0.09937,0.07937,0.01500,45*
%
%ADD186THD186*%
%ADD187C,0.06377*%
%ADD188C,0.11495*%
%ADD189C,0.06062*%
G04:AMPARAMS|DCode=190|XSize=96.221mil|YSize=96.221mil|CornerRadius=0mil|HoleSize=0mil|Usage=FLASHONLY|Rotation=0.000|XOffset=0mil|YOffset=0mil|HoleType=Round|Shape=Relief|Width=15mil|Gap=10mil|Entries=4|*
%AMTHD190*
7,0,0,0.09622,0.07622,0.01500,45*
%
%ADD190THD190*%
%ADD191C,0.03440*%
%ADD192C,0.03739*%
%ADD193C,0.00380*%
%ADD194C,0.00394*%
%ADD195C,0.22874*%
D113*
X1137801Y102299D02*
G03*
X1137801Y102299I-5502J0D01*
G01*
D153*
X-0Y-0D02*
X0Y960630D01*
X1200787D01*
X1200787Y960630D02*
X1200787Y960630D01*
X1200787Y0D02*
Y960630D01*
X0Y0D02*
X1200787D01*
X-0Y-0D02*
X0Y0D01*
D154*
X171449Y571799D02*
D03*
X496949D02*
D03*
X539449D02*
D03*
X864949D02*
D03*
D155*
X498000Y378500D02*
D03*
X650499Y312899D02*
D03*
X667799Y238299D02*
D03*
X83799Y281299D02*
D03*
X712299Y495299D02*
D03*
X651799Y213299D02*
D03*
X70299Y330299D02*
D03*
X947799Y662299D02*
D03*
X676299Y213299D02*
D03*
X958661Y836299D02*
D03*
X914299Y886299D02*
D03*
X969299D02*
D03*
X129799Y285299D02*
D03*
X958661Y820299D02*
D03*
Y828299D02*
D03*
Y812299D02*
D03*
X289799Y128799D02*
D03*
X685799Y238299D02*
D03*
X85000Y265000D02*
D03*
X83799Y286299D02*
D03*
X226299Y419299D02*
D03*
X290799Y164799D02*
D03*
X193299Y419299D02*
D03*
X625399Y206099D02*
D03*
X650299Y338299D02*
D03*
X999799Y854799D02*
D03*
X1045799Y866299D02*
D03*
X569399Y206099D02*
D03*
X579299Y403799D02*
D03*
X890299Y360299D02*
D03*
X960000Y770000D02*
D03*
X967000D02*
D03*
X960000Y777000D02*
D03*
X967000D02*
D03*
X999300Y245000D02*
D03*
X1005906Y335039D02*
D03*
X924409Y612598D02*
D03*
X929134D02*
D03*
X933858D02*
D03*
X739700Y148099D02*
D03*
D156*
X1177315Y344850D02*
D03*
D157*
X1157472Y545244D02*
D03*
Y528709D02*
D03*
Y512173D02*
D03*
Y495638D02*
D03*
Y479102D02*
D03*
Y446032D02*
D03*
Y412961D02*
D03*
Y379890D02*
D03*
Y363354D02*
D03*
X1179126D02*
D03*
Y379890D02*
D03*
Y412961D02*
D03*
Y479102D02*
D03*
Y495638D02*
D03*
Y512173D02*
D03*
Y528709D02*
D03*
D158*
X1157472Y462567D02*
D03*
Y429496D02*
D03*
Y396425D02*
D03*
X1179126D02*
D03*
Y429496D02*
D03*
Y446032D02*
D03*
Y462567D02*
D03*
Y545244D02*
D03*
D159*
X960602Y950284D02*
D03*
X918397D02*
D03*
X1051402D02*
D03*
X1009197D02*
D03*
D160*
X950602D02*
D03*
X908397D02*
D03*
X1041402D02*
D03*
X999197D02*
D03*
D161*
X903889Y922291D02*
D03*
X965109D02*
D03*
X994689D02*
D03*
X1055909D02*
D03*
D162*
X956999Y934299D02*
D03*
X911999D02*
D03*
X1047799D02*
D03*
X1002799D02*
D03*
D163*
X951980Y909299D02*
D03*
X941980D02*
D03*
X921980D02*
D03*
X931979D02*
D03*
X936979Y899299D02*
D03*
X926980D02*
D03*
X916980D02*
D03*
X946980D02*
D03*
X956979D02*
D03*
X1042780Y909299D02*
D03*
X1032780D02*
D03*
X1012780D02*
D03*
X1022779D02*
D03*
X1027779Y899299D02*
D03*
X1017780D02*
D03*
X1007780D02*
D03*
X1037780D02*
D03*
X1047779D02*
D03*
X1126299Y65063D02*
D03*
X1075299Y14866D02*
D03*
X1076299Y85732D02*
D03*
X1043299Y14866D02*
D03*
X1044299Y85732D02*
D03*
D164*
X911979Y909299D02*
D03*
X1002779D02*
D03*
X1126299Y35535D02*
D03*
D165*
X854622Y875598D02*
D03*
X549976D02*
D03*
X854622Y615874D02*
D03*
X549976D02*
D03*
X181976Y875598D02*
D03*
X486622D02*
D03*
Y615874D02*
D03*
X181976D02*
D03*
D166*
X555000Y310000D02*
D03*
Y25000D02*
D03*
X1175000Y310000D02*
D03*
Y25000D02*
D03*
Y830000D02*
D03*
X555000Y920000D02*
D03*
X65000D02*
D03*
Y310000D02*
D03*
Y25000D02*
D03*
D167*
X1099929Y932299D02*
D03*
X1078669D02*
D03*
D168*
X1097567Y924740D02*
D03*
D169*
X1092055D02*
D03*
X1086543D02*
D03*
X1081031D02*
D03*
D170*
X1089299Y954740D02*
D03*
D171*
X1097299Y768299D02*
D03*
Y743299D02*
D03*
Y730799D02*
D03*
Y718299D02*
D03*
X1122299Y768299D02*
D03*
X1172299Y730799D02*
D03*
X1159799Y718299D02*
D03*
X1101299Y628299D02*
D03*
Y603299D02*
D03*
Y590799D02*
D03*
Y578299D02*
D03*
Y640799D02*
D03*
X1163799D02*
D03*
Y578299D02*
D03*
X1102299Y242299D02*
D03*
X1092299D02*
D03*
Y172299D02*
D03*
X1142299Y242299D02*
D03*
X1152299D02*
D03*
X1162299D02*
D03*
X1172299D02*
D03*
X1092299Y162299D02*
D03*
X1162299Y102299D02*
D03*
X1112299D02*
D03*
X1172299D02*
D03*
X1182299D02*
D03*
X1152299D02*
D03*
X1142299D02*
D03*
X1122299D02*
D03*
X1076299Y433799D02*
D03*
Y383799D02*
D03*
Y371299D02*
D03*
Y446299D02*
D03*
Y496299D02*
D03*
X1126299D02*
D03*
X1101299Y371299D02*
D03*
X1113799D02*
D03*
X1126299D02*
D03*
D172*
X1097299Y755799D02*
D03*
X1159799Y768299D02*
D03*
X1172299D02*
D03*
Y718299D02*
D03*
X1101299Y615799D02*
D03*
X1113799Y640799D02*
D03*
X1151299D02*
D03*
X1176299Y578299D02*
D03*
X1092299Y212299D02*
D03*
Y202299D02*
D03*
X1182299Y242299D02*
D03*
X1092299Y132299D02*
D03*
X1182299Y172299D02*
D03*
X1092299Y122299D02*
D03*
X1132299Y102299D02*
D03*
X1076299Y421299D02*
D03*
Y396299D02*
D03*
Y458799D02*
D03*
Y483799D02*
D03*
X1088799Y371299D02*
D03*
D173*
X591126Y25236D02*
D03*
X875791D02*
D03*
X591126Y33110D02*
D03*
X875791D02*
D03*
X591126Y40984D02*
D03*
X875791D02*
D03*
Y48858D02*
D03*
X591126D02*
D03*
X825496Y19488D02*
D03*
X815496D02*
D03*
X805496D02*
D03*
X795496D02*
D03*
X785496D02*
D03*
X775496D02*
D03*
X765496D02*
D03*
X755496D02*
D03*
X745496D02*
D03*
X735496D02*
D03*
X725496D02*
D03*
X715496D02*
D03*
X705496D02*
D03*
X695496D02*
D03*
X685496D02*
D03*
X675496D02*
D03*
X665496D02*
D03*
X655496D02*
D03*
X645496D02*
D03*
X635496D02*
D03*
X825496Y43110D02*
D03*
X815496D02*
D03*
X805496D02*
D03*
X795496D02*
D03*
X785496D02*
D03*
X775496D02*
D03*
X765496D02*
D03*
X755496D02*
D03*
X745496D02*
D03*
X735496D02*
D03*
X725496D02*
D03*
X715496D02*
D03*
X705496D02*
D03*
X695496D02*
D03*
X685496D02*
D03*
X675496D02*
D03*
X665496D02*
D03*
X655496D02*
D03*
X645496D02*
D03*
X635496D02*
D03*
X238626Y25236D02*
D03*
X523291D02*
D03*
X238626Y33110D02*
D03*
X523291D02*
D03*
X238626Y40984D02*
D03*
X523291D02*
D03*
Y48858D02*
D03*
X238626D02*
D03*
X472996Y19488D02*
D03*
X462996D02*
D03*
X452996D02*
D03*
X442996D02*
D03*
X432996D02*
D03*
X422996D02*
D03*
X412996D02*
D03*
X402996D02*
D03*
X392996D02*
D03*
X382996D02*
D03*
X372996D02*
D03*
X362996D02*
D03*
X352996D02*
D03*
X342996D02*
D03*
X332996D02*
D03*
X322996D02*
D03*
X312996D02*
D03*
X302996D02*
D03*
X292996D02*
D03*
X282996D02*
D03*
X472996Y43110D02*
D03*
X462996D02*
D03*
X452996D02*
D03*
X442996D02*
D03*
X432996D02*
D03*
X422996D02*
D03*
X412996D02*
D03*
X402996D02*
D03*
X392996D02*
D03*
X382996D02*
D03*
X372996D02*
D03*
X362996D02*
D03*
X352996D02*
D03*
X342996D02*
D03*
X332996D02*
D03*
X322996D02*
D03*
X312996D02*
D03*
X302996D02*
D03*
X292996D02*
D03*
X282996D02*
D03*
D174*
X863587Y25236D02*
D03*
X851382D02*
D03*
X603331D02*
D03*
X615535D02*
D03*
X863587Y33110D02*
D03*
X851382D02*
D03*
X603331D02*
D03*
X615535D02*
D03*
X863587Y40984D02*
D03*
X851382D02*
D03*
X603331D02*
D03*
X615535D02*
D03*
Y48858D02*
D03*
X603331D02*
D03*
X851382D02*
D03*
X863587D02*
D03*
X819512Y12598D02*
D03*
X811520D02*
D03*
X799512D02*
D03*
X791520D02*
D03*
X779512D02*
D03*
X771520D02*
D03*
X759512D02*
D03*
X751520D02*
D03*
X739512D02*
D03*
X731520D02*
D03*
X719512D02*
D03*
X711520D02*
D03*
X699512D02*
D03*
X691520D02*
D03*
X679512D02*
D03*
X671520D02*
D03*
X659512D02*
D03*
X651520D02*
D03*
X639512D02*
D03*
X631520D02*
D03*
X829492Y26378D02*
D03*
X821500D02*
D03*
X809492D02*
D03*
X801500D02*
D03*
X789492D02*
D03*
X781500D02*
D03*
X769492D02*
D03*
X761500D02*
D03*
X749492D02*
D03*
X741500D02*
D03*
X729492D02*
D03*
X721500D02*
D03*
X709492D02*
D03*
X701500D02*
D03*
X689492D02*
D03*
X681500D02*
D03*
X669492D02*
D03*
X661500D02*
D03*
X649492D02*
D03*
X641500D02*
D03*
X819512Y36220D02*
D03*
X811520D02*
D03*
X799512D02*
D03*
X791520D02*
D03*
X779512D02*
D03*
X771520D02*
D03*
X759512D02*
D03*
X751520D02*
D03*
X739512D02*
D03*
X731520D02*
D03*
X719512D02*
D03*
X711520D02*
D03*
X699512D02*
D03*
X691520D02*
D03*
X679512D02*
D03*
X671520D02*
D03*
X659512D02*
D03*
X651520D02*
D03*
X639512D02*
D03*
X631520D02*
D03*
X829492Y50000D02*
D03*
X821500D02*
D03*
X809492D02*
D03*
X801500D02*
D03*
X789492D02*
D03*
X781500D02*
D03*
X769492D02*
D03*
X761500D02*
D03*
X749492D02*
D03*
X741500D02*
D03*
X729492D02*
D03*
X721500D02*
D03*
X709492D02*
D03*
X701500D02*
D03*
X689492D02*
D03*
X681500D02*
D03*
X669492D02*
D03*
X661500D02*
D03*
X649492D02*
D03*
X641500D02*
D03*
X511087Y25236D02*
D03*
X498882D02*
D03*
X250831D02*
D03*
X263035D02*
D03*
X511087Y33110D02*
D03*
X498882D02*
D03*
X250831D02*
D03*
X263035D02*
D03*
X511087Y40984D02*
D03*
X498882D02*
D03*
X250831D02*
D03*
X263035D02*
D03*
Y48858D02*
D03*
X250831D02*
D03*
X498882D02*
D03*
X511087D02*
D03*
X467012Y12598D02*
D03*
X459020D02*
D03*
X447012D02*
D03*
X439020D02*
D03*
X427012D02*
D03*
X419020D02*
D03*
X407012D02*
D03*
X399020D02*
D03*
X387012D02*
D03*
X379020D02*
D03*
X367012D02*
D03*
X359020D02*
D03*
X347012D02*
D03*
X339020D02*
D03*
X327012D02*
D03*
X319020D02*
D03*
X307012D02*
D03*
X299020D02*
D03*
X287012D02*
D03*
X279020D02*
D03*
X476992Y26378D02*
D03*
X469000D02*
D03*
X456992D02*
D03*
X449000D02*
D03*
X436992D02*
D03*
X429000D02*
D03*
X416992D02*
D03*
X409000D02*
D03*
X396992D02*
D03*
X389000D02*
D03*
X376992D02*
D03*
X369000D02*
D03*
X356992D02*
D03*
X349000D02*
D03*
X336992D02*
D03*
X329000D02*
D03*
X316992D02*
D03*
X309000D02*
D03*
X296992D02*
D03*
X289000D02*
D03*
X467012Y36220D02*
D03*
X459020D02*
D03*
X447012D02*
D03*
X439020D02*
D03*
X427012D02*
D03*
X419020D02*
D03*
X407012D02*
D03*
X399020D02*
D03*
X387012D02*
D03*
X379020D02*
D03*
X367012D02*
D03*
X359020D02*
D03*
X347012D02*
D03*
X339020D02*
D03*
X327012D02*
D03*
X319020D02*
D03*
X307012D02*
D03*
X299020D02*
D03*
X287012D02*
D03*
X279020D02*
D03*
X476992Y50000D02*
D03*
X469000D02*
D03*
X456992D02*
D03*
X449000D02*
D03*
X436992D02*
D03*
X429000D02*
D03*
X416992D02*
D03*
X409000D02*
D03*
X396992D02*
D03*
X389000D02*
D03*
X376992D02*
D03*
X369000D02*
D03*
X356992D02*
D03*
X349000D02*
D03*
X336992D02*
D03*
X329000D02*
D03*
X316992D02*
D03*
X309000D02*
D03*
X296992D02*
D03*
X289000D02*
D03*
D175*
X874299Y168299D02*
D03*
X884299D02*
D03*
X864299D02*
D03*
X602299Y156299D02*
D03*
X592299D02*
D03*
X612299D02*
D03*
X1184299Y275299D02*
D03*
X986299Y168299D02*
D03*
X996299D02*
D03*
X976299D02*
D03*
X930299D02*
D03*
X940299D02*
D03*
X920299D02*
D03*
X1183000Y684000D02*
D03*
Y674000D02*
D03*
D176*
X1184299Y265299D02*
D03*
D177*
X242299Y110299D02*
D03*
Y90299D02*
D03*
X222299D02*
D03*
Y110299D02*
D03*
X190299D02*
D03*
Y90299D02*
D03*
X170299D02*
D03*
Y110299D02*
D03*
X216299Y160299D02*
D03*
Y140299D02*
D03*
X196299D02*
D03*
Y160299D02*
D03*
D178*
X232299Y100299D02*
D03*
X180299D02*
D03*
X206299Y150299D02*
D03*
D179*
X507480Y278386D02*
D03*
X307480Y356339D02*
D03*
D180*
X104039Y573984D02*
D03*
Y30520D02*
D03*
D181*
Y349417D02*
D03*
D182*
X115260Y544299D02*
D03*
Y520677D02*
D03*
Y497055D02*
D03*
Y473433D02*
D03*
Y449811D02*
D03*
Y426189D02*
D03*
Y402567D02*
D03*
Y378945D02*
D03*
Y63984D02*
D03*
Y71858D02*
D03*
Y79732D02*
D03*
Y103354D02*
D03*
Y126976D02*
D03*
Y150598D02*
D03*
Y174221D02*
D03*
Y197843D02*
D03*
Y221465D02*
D03*
X107780Y367134D02*
D03*
Y390756D02*
D03*
Y414378D02*
D03*
Y438000D02*
D03*
Y461622D02*
D03*
Y485244D02*
D03*
Y508866D02*
D03*
Y532488D02*
D03*
Y91543D02*
D03*
Y115165D02*
D03*
Y138787D02*
D03*
Y162409D02*
D03*
Y186031D02*
D03*
Y209653D02*
D03*
X92819Y217528D02*
D03*
Y193905D02*
D03*
Y170283D02*
D03*
Y146661D02*
D03*
Y123039D02*
D03*
Y99417D02*
D03*
Y75795D02*
D03*
Y540362D02*
D03*
Y516740D02*
D03*
Y493118D02*
D03*
Y469496D02*
D03*
Y445874D02*
D03*
Y422252D02*
D03*
Y398630D02*
D03*
Y375008D02*
D03*
X100299Y205716D02*
D03*
Y182095D02*
D03*
Y158472D02*
D03*
Y134850D02*
D03*
Y111228D02*
D03*
Y87606D02*
D03*
Y71858D02*
D03*
Y63984D02*
D03*
Y363197D02*
D03*
Y386819D02*
D03*
Y410441D02*
D03*
Y434063D02*
D03*
Y457685D02*
D03*
Y481307D02*
D03*
Y504929D02*
D03*
Y528551D02*
D03*
D183*
X115260Y536425D02*
D03*
Y528551D02*
D03*
Y512803D02*
D03*
Y504929D02*
D03*
Y489181D02*
D03*
Y481307D02*
D03*
Y465559D02*
D03*
Y457685D02*
D03*
Y441937D02*
D03*
Y434063D02*
D03*
Y418315D02*
D03*
Y410441D02*
D03*
Y394693D02*
D03*
Y386819D02*
D03*
Y371071D02*
D03*
Y363197D02*
D03*
Y87606D02*
D03*
Y95480D02*
D03*
Y111228D02*
D03*
Y119102D02*
D03*
Y134850D02*
D03*
Y142724D02*
D03*
Y158472D02*
D03*
Y166347D02*
D03*
Y182095D02*
D03*
Y189969D02*
D03*
Y205716D02*
D03*
Y213591D02*
D03*
Y229339D02*
D03*
Y237213D02*
D03*
Y245087D02*
D03*
Y252961D02*
D03*
Y260835D02*
D03*
Y268709D02*
D03*
Y276583D02*
D03*
Y284457D02*
D03*
Y292331D02*
D03*
Y300205D02*
D03*
Y308079D02*
D03*
Y315953D02*
D03*
Y323827D02*
D03*
Y331701D02*
D03*
Y339575D02*
D03*
X107780Y359260D02*
D03*
Y375008D02*
D03*
Y382882D02*
D03*
Y398630D02*
D03*
Y406504D02*
D03*
Y422252D02*
D03*
Y430126D02*
D03*
Y445874D02*
D03*
Y453748D02*
D03*
Y469496D02*
D03*
Y477370D02*
D03*
Y493118D02*
D03*
Y500992D02*
D03*
Y516740D02*
D03*
Y524614D02*
D03*
Y540362D02*
D03*
Y60047D02*
D03*
Y67921D02*
D03*
Y75795D02*
D03*
Y83669D02*
D03*
Y99417D02*
D03*
Y107291D02*
D03*
Y123039D02*
D03*
Y130913D02*
D03*
Y146661D02*
D03*
Y154535D02*
D03*
Y170283D02*
D03*
Y178157D02*
D03*
Y193905D02*
D03*
Y201780D02*
D03*
Y217528D02*
D03*
Y225402D02*
D03*
Y233276D02*
D03*
Y241150D02*
D03*
Y249024D02*
D03*
Y256898D02*
D03*
Y264772D02*
D03*
Y272646D02*
D03*
Y280520D02*
D03*
Y288394D02*
D03*
Y296268D02*
D03*
Y304142D02*
D03*
Y312016D02*
D03*
Y319890D02*
D03*
Y327764D02*
D03*
Y335638D02*
D03*
X92819D02*
D03*
Y327764D02*
D03*
Y319890D02*
D03*
Y312016D02*
D03*
Y304142D02*
D03*
Y296268D02*
D03*
Y288394D02*
D03*
Y280520D02*
D03*
Y272646D02*
D03*
Y264772D02*
D03*
Y256898D02*
D03*
Y249024D02*
D03*
Y241150D02*
D03*
Y233276D02*
D03*
Y225402D02*
D03*
Y209653D02*
D03*
Y201780D02*
D03*
Y186031D02*
D03*
Y178157D02*
D03*
Y162409D02*
D03*
Y154535D02*
D03*
Y138787D02*
D03*
Y130913D02*
D03*
Y115165D02*
D03*
Y107291D02*
D03*
Y91543D02*
D03*
Y83669D02*
D03*
Y67921D02*
D03*
Y60047D02*
D03*
Y532488D02*
D03*
Y524614D02*
D03*
Y508866D02*
D03*
Y500992D02*
D03*
Y485244D02*
D03*
Y477370D02*
D03*
Y461622D02*
D03*
Y453748D02*
D03*
Y438000D02*
D03*
Y430126D02*
D03*
Y414378D02*
D03*
Y406504D02*
D03*
Y390756D02*
D03*
Y382882D02*
D03*
Y367134D02*
D03*
Y359260D02*
D03*
X100299Y339575D02*
D03*
Y331701D02*
D03*
Y323827D02*
D03*
Y315953D02*
D03*
Y308079D02*
D03*
Y300205D02*
D03*
Y292331D02*
D03*
Y284457D02*
D03*
Y276583D02*
D03*
Y268709D02*
D03*
Y260835D02*
D03*
Y252961D02*
D03*
Y245087D02*
D03*
Y237213D02*
D03*
Y229339D02*
D03*
Y221465D02*
D03*
Y213591D02*
D03*
Y197843D02*
D03*
Y189969D02*
D03*
Y174221D02*
D03*
Y166347D02*
D03*
Y150598D02*
D03*
Y142724D02*
D03*
Y126976D02*
D03*
Y119102D02*
D03*
Y103354D02*
D03*
Y95480D02*
D03*
Y79732D02*
D03*
Y371071D02*
D03*
Y378945D02*
D03*
Y394693D02*
D03*
Y402567D02*
D03*
Y418315D02*
D03*
Y426189D02*
D03*
Y441937D02*
D03*
Y449811D02*
D03*
Y465559D02*
D03*
Y473433D02*
D03*
Y489181D02*
D03*
Y497055D02*
D03*
Y512803D02*
D03*
Y520677D02*
D03*
Y536425D02*
D03*
Y544299D02*
D03*
D184*
X921299Y504899D02*
D03*
D185*
Y529899D02*
D03*
Y539899D02*
D03*
Y569899D02*
D03*
Y559899D02*
D03*
Y549899D02*
D03*
D186*
X1076488Y537299D02*
D03*
X1116488D02*
D03*
X1106488D02*
D03*
X1096488D02*
D03*
X1086488D02*
D03*
D187*
X1116488Y547299D02*
D03*
X1106488D02*
D03*
X1096488D02*
D03*
X1086488D02*
D03*
X1076488D02*
D03*
X1044299Y387299D02*
D03*
X45735Y335414D02*
D03*
X167499Y350940D02*
D03*
X270858Y83181D02*
D03*
X290158Y83281D02*
D03*
X297740Y93614D02*
D03*
X414799Y208299D02*
D03*
X414299Y461499D02*
D03*
X985099Y207899D02*
D03*
X951699Y313799D02*
D03*
X397967Y427799D02*
D03*
X390651D02*
D03*
X512299Y385799D02*
D03*
X444399Y472506D02*
D03*
X444899Y484899D02*
D03*
X381699Y471699D02*
D03*
Y484299D02*
D03*
X297499Y395899D02*
D03*
X508499Y202299D02*
D03*
X766299Y252299D02*
D03*
Y268299D02*
D03*
X1055299Y309799D02*
D03*
X776299Y252299D02*
D03*
X224299Y264799D02*
D03*
X212299Y258799D02*
D03*
X517299Y364299D02*
D03*
Y344299D02*
D03*
Y322299D02*
D03*
X844799Y533299D02*
D03*
X824799D02*
D03*
X775799D02*
D03*
X740799D02*
D03*
X385699Y524714D02*
D03*
X393399Y536799D02*
D03*
X510999Y534999D02*
D03*
X527999Y535999D02*
D03*
X411599Y536599D02*
D03*
X534889Y230179D02*
D03*
X305611Y200109D02*
D03*
X291299Y378799D02*
D03*
Y358799D02*
D03*
Y338799D02*
D03*
X295299Y286799D02*
D03*
Y266799D02*
D03*
Y246799D02*
D03*
X339799Y201299D02*
D03*
X357799D02*
D03*
X375799D02*
D03*
X393799D02*
D03*
X433799D02*
D03*
X451799D02*
D03*
X469799D02*
D03*
X494799Y208299D02*
D03*
X525299Y250500D02*
D03*
Y268500D02*
D03*
Y286500D02*
D03*
X622614Y285299D02*
D03*
X632984Y326299D02*
D03*
Y289799D02*
D03*
X1142799Y326299D02*
D03*
X738299Y263299D02*
D03*
X1040299Y564299D02*
D03*
X1036299Y387299D02*
D03*
X1080299Y582299D02*
D03*
X1074299Y758299D02*
D03*
X1082299D02*
D03*
X1168299Y672299D02*
D03*
Y688299D02*
D03*
X1066299Y571299D02*
D03*
Y579299D02*
D03*
X1106299Y352299D02*
D03*
Y344299D02*
D03*
Y336299D02*
D03*
X1049244Y208661D02*
D03*
X1057118D02*
D03*
X1064992D02*
D03*
X1072866D02*
D03*
X1080740D02*
D03*
X1049244Y216535D02*
D03*
X1057118D02*
D03*
X1064992D02*
D03*
X1072866D02*
D03*
X1084299Y847299D02*
D03*
X1146299Y283299D02*
D03*
X1139299D02*
D03*
X967299Y532299D02*
D03*
X85299Y663799D02*
D03*
X1006799Y492299D02*
D03*
X88299Y897799D02*
D03*
X776299Y268299D02*
D03*
X756299Y252299D02*
D03*
X802299Y249299D02*
D03*
Y267299D02*
D03*
X826299Y266299D02*
D03*
X738299Y245299D02*
D03*
X748299D02*
D03*
X756299Y268299D02*
D03*
X748299Y263299D02*
D03*
X728299Y266299D02*
D03*
X790299D02*
D03*
X812299D02*
D03*
X818299Y428299D02*
D03*
X832299D02*
D03*
X844299Y427299D02*
D03*
Y445299D02*
D03*
X758299Y428299D02*
D03*
X734299Y445299D02*
D03*
Y427299D02*
D03*
X722299Y428299D02*
D03*
X772299Y230299D02*
D03*
X916099Y795299D02*
D03*
X956899Y868499D02*
D03*
X1050899Y869299D02*
D03*
X1011299Y795299D02*
D03*
X1004699Y871399D02*
D03*
X883299Y868299D02*
D03*
X466099Y525799D02*
D03*
X436099D02*
D03*
X300299Y238764D02*
D03*
Y309835D02*
D03*
X662802Y154299D02*
D03*
X148996Y318299D02*
D03*
X134799Y281299D02*
D03*
X134835Y257299D02*
D03*
Y233299D02*
D03*
X60264Y364299D02*
D03*
X74764D02*
D03*
X903299Y440799D02*
D03*
X492599Y535299D02*
D03*
X978299Y861452D02*
D03*
X914499Y870099D02*
D03*
X512598Y300949D02*
D03*
X1022799Y371299D02*
D03*
X354799Y524199D02*
D03*
X636858Y77181D02*
D03*
X618858D02*
D03*
X1080740Y216535D02*
D03*
X215699Y58099D02*
D03*
X14399Y617599D02*
D03*
X1033299Y564099D02*
D03*
X79299Y68299D02*
D03*
X949581Y787528D02*
D03*
X1054499Y821299D02*
D03*
D188*
X1120299Y937606D02*
D03*
X1167701D02*
D03*
D189*
X1148921Y926937D02*
D03*
Y919063D02*
D03*
X1139079D02*
D03*
D190*
Y926937D02*
D03*
D191*
X896190Y698000D02*
D03*
Y681000D02*
D03*
X332587Y285279D02*
D03*
X328650D02*
D03*
X360146Y277405D02*
D03*
X383768Y293153D02*
D03*
X371957Y301027D02*
D03*
X375894Y293153D02*
D03*
X1083200Y676700D02*
D03*
X1178969Y811258D02*
D03*
X1175031D02*
D03*
X1164000Y846800D02*
D03*
X879300Y193200D02*
D03*
X880200Y198000D02*
D03*
X858200Y205700D02*
D03*
X859300Y191500D02*
D03*
X1054968Y240857D02*
D03*
X1049298Y249669D02*
D03*
X1052441Y261474D02*
D03*
X1057559D02*
D03*
X1061857Y250031D02*
D03*
X1192126Y801968D02*
D03*
X1192913Y796457D02*
D03*
X1192126Y807874D02*
D03*
X1191732Y783858D02*
D03*
X1157480Y785827D02*
D03*
X1026359Y524409D02*
D03*
X1025539Y520866D02*
D03*
X1038299Y701157D02*
D03*
X982480Y713779D02*
D03*
X986417Y724409D02*
D03*
X965099Y733699D02*
D03*
Y728699D02*
D03*
X946348Y724400D02*
D03*
X681000Y129800D02*
D03*
X1071299Y747299D02*
D03*
X1076299Y729299D02*
D03*
X450666Y364052D02*
D03*
X832800Y204000D02*
D03*
X676300Y218100D02*
D03*
X371963Y363936D02*
D03*
X949500Y258000D02*
D03*
X1157600Y864000D02*
D03*
X132299Y659299D02*
D03*
X608268Y379921D02*
D03*
X474320Y367957D02*
D03*
X336524Y344335D02*
D03*
X328687D02*
D03*
X354241Y228746D02*
D03*
X1192899Y268899D02*
D03*
X1044099Y710899D02*
D03*
X1085699Y867699D02*
D03*
X1084899Y870899D02*
D03*
X1117899Y735299D02*
D03*
X840099Y679899D02*
D03*
X984899Y701699D02*
D03*
X819799Y586599D02*
D03*
X975399Y484299D02*
D03*
X966499Y483699D02*
D03*
X1020099Y533699D02*
D03*
X954099Y504099D02*
D03*
X954899Y508099D02*
D03*
X952499Y512699D02*
D03*
X950299Y515699D02*
D03*
X680899Y440299D02*
D03*
X670899Y429299D02*
D03*
X679299Y415899D02*
D03*
X835499Y497699D02*
D03*
X833899Y503699D02*
D03*
X780299Y635699D02*
D03*
X702468Y521731D02*
D03*
X778499Y480699D02*
D03*
X757299Y476699D02*
D03*
X711699Y477899D02*
D03*
X750499Y478299D02*
D03*
X680699Y427899D02*
D03*
X666899Y424699D02*
D03*
X681099Y425499D02*
D03*
X688099Y499299D02*
D03*
X762099Y512699D02*
D03*
X762299Y516699D02*
D03*
X827099Y679899D02*
D03*
X831499Y684099D02*
D03*
X472299Y513499D02*
D03*
X468799Y509599D02*
D03*
X913699Y652299D02*
D03*
X745499Y684899D02*
D03*
X862699Y817899D02*
D03*
X860299Y813099D02*
D03*
X863299Y807299D02*
D03*
X981899Y673058D02*
D03*
Y660263D02*
D03*
Y662822D02*
D03*
Y665381D02*
D03*
Y670499D02*
D03*
X748099Y644899D02*
D03*
Y675559D02*
D03*
Y671179D02*
D03*
Y658039D02*
D03*
Y653659D02*
D03*
X1056299Y740899D02*
D03*
X1019499Y543699D02*
D03*
X1022099Y550299D02*
D03*
X661699Y416699D02*
D03*
X1018369Y158298D02*
D03*
X1037699Y203499D02*
D03*
X873299Y212099D02*
D03*
X875699Y214099D02*
D03*
X853299Y136099D02*
D03*
X788099Y142099D02*
D03*
X665299Y149099D02*
D03*
X672699Y146699D02*
D03*
X662499Y158699D02*
D03*
X819201Y164598D02*
D03*
X641699Y217099D02*
D03*
X676699Y222099D02*
D03*
X677099Y226299D02*
D03*
X236099Y189699D02*
D03*
X330499Y583499D02*
D03*
X830099Y741099D02*
D03*
X220099Y699499D02*
D03*
X697499Y506099D02*
D03*
X522499Y538499D02*
D03*
X502499Y497099D02*
D03*
X1040099Y635899D02*
D03*
X278099Y59899D02*
D03*
X586899Y102899D02*
D03*
X173699Y49099D02*
D03*
X84499Y153899D02*
D03*
X187299Y137099D02*
D03*
X85899Y79299D02*
D03*
X154236Y618761D02*
D03*
X852299Y154699D02*
D03*
X647299Y428299D02*
D03*
X977416Y854630D02*
D03*
X990268Y841443D02*
D03*
X832099Y729499D02*
D03*
X907499Y825699D02*
D03*
X912899Y801899D02*
D03*
X888099Y763499D02*
D03*
X912499Y765899D02*
D03*
X921395Y781003D02*
D03*
X901800Y786000D02*
D03*
X911899Y750699D02*
D03*
X918699Y754899D02*
D03*
X851743Y190142D02*
D03*
X1176041Y874699D02*
D03*
X1170041D02*
D03*
X1139099Y884699D02*
D03*
X936299Y782926D02*
D03*
X924299D02*
D03*
X912299D02*
D03*
X900299D02*
D03*
X1017641Y780268D02*
D03*
X1020172Y769299D02*
D03*
X1190699Y881226D02*
D03*
X1168099Y879699D02*
D03*
X572899Y314299D02*
D03*
X875499Y449299D02*
D03*
X881299Y446899D02*
D03*
X786499Y450499D02*
D03*
X76868Y706661D02*
D03*
X72931D02*
D03*
X76868Y716661D02*
D03*
X72931D02*
D03*
X76868Y726661D02*
D03*
X72931D02*
D03*
X76868Y736661D02*
D03*
X72931D02*
D03*
X109899Y665899D02*
D03*
X55299Y852299D02*
D03*
X102299D02*
D03*
X86299D02*
D03*
X70299D02*
D03*
X55299Y824299D02*
D03*
X103299D02*
D03*
X71299D02*
D03*
X87299D02*
D03*
X143930Y572771D02*
D03*
Y576708D02*
D03*
X146430Y590271D02*
D03*
Y594208D02*
D03*
X136430Y590271D02*
D03*
Y594208D02*
D03*
X126430Y590271D02*
D03*
X104328Y638430D02*
D03*
Y646430D02*
D03*
X100390D02*
D03*
X118328Y642430D02*
D03*
X132168Y654390D02*
D03*
X114499Y926619D02*
D03*
Y930359D02*
D03*
Y934099D02*
D03*
X85699Y893099D02*
D03*
X146499Y743338D02*
D03*
X142299D02*
D03*
X146268Y733738D02*
D03*
X142331D02*
D03*
X146268Y723738D02*
D03*
X142331D02*
D03*
X146268Y713738D02*
D03*
X142331D02*
D03*
X112268Y679738D02*
D03*
X108331D02*
D03*
X112268Y689738D02*
D03*
X108331D02*
D03*
X100630Y683738D02*
D03*
X91968Y687478D02*
D03*
X126980Y646841D02*
D03*
X109619Y654721D02*
D03*
X105614Y668887D02*
D03*
X126793Y765299D02*
D03*
X88793D02*
D03*
X50793Y775299D02*
D03*
X105313Y812205D02*
D03*
X89313D02*
D03*
X73313D02*
D03*
X57313D02*
D03*
X88313Y840205D02*
D03*
X57313D02*
D03*
X104313D02*
D03*
X72313D02*
D03*
X57313Y878205D02*
D03*
Y866394D02*
D03*
X73313Y878205D02*
D03*
X89313D02*
D03*
Y866394D02*
D03*
X105313Y878205D02*
D03*
Y866394D02*
D03*
X117742Y888039D02*
D03*
X134856Y884299D02*
D03*
X117742Y864039D02*
D03*
Y836039D02*
D03*
X134856Y832299D02*
D03*
X117742Y812039D02*
D03*
X134856Y808299D02*
D03*
X66751Y739299D02*
D03*
X51311Y709299D02*
D03*
Y729339D02*
D03*
X66751Y719260D02*
D03*
X134751Y739299D02*
D03*
X119311Y709299D02*
D03*
Y729339D02*
D03*
X134751Y719260D02*
D03*
X144603Y636674D02*
D03*
X154236Y634115D02*
D03*
X144603Y631556D02*
D03*
X154236Y628997D02*
D03*
X144603Y626438D02*
D03*
X154236Y623879D02*
D03*
X144603Y621320D02*
D03*
Y616202D02*
D03*
X154236Y613643D02*
D03*
X144603Y611083D02*
D03*
X122162Y636674D02*
D03*
X131795Y634115D02*
D03*
X122162Y631556D02*
D03*
X131795Y628997D02*
D03*
X122162Y626438D02*
D03*
X131795Y623879D02*
D03*
X122162Y621320D02*
D03*
X131795Y618761D02*
D03*
X122162Y616202D02*
D03*
X131795Y613643D02*
D03*
X764299Y610899D02*
D03*
X762899Y607299D02*
D03*
X774299Y446299D02*
D03*
X766299Y442699D02*
D03*
X71299Y169499D02*
D03*
X70899Y179299D02*
D03*
X71099Y189099D02*
D03*
X171299Y16053D02*
D03*
X142699Y16499D02*
D03*
X125299Y53299D02*
D03*
X136099Y47299D02*
D03*
X142499Y46899D02*
D03*
X129865Y8320D02*
D03*
X136288Y10765D02*
D03*
X146351D02*
D03*
X150288D02*
D03*
X169865Y28320D02*
D03*
Y34320D02*
D03*
Y40320D02*
D03*
X167633Y58320D02*
D03*
X143833Y72288D02*
D03*
Y68351D02*
D03*
X136099Y16299D02*
D03*
X776099Y619899D02*
D03*
X785079Y599299D02*
D03*
X785699Y604099D02*
D03*
X791699Y610099D02*
D03*
X794299Y632699D02*
D03*
X789299Y618099D02*
D03*
X785499Y620899D02*
D03*
X753499Y494299D02*
D03*
X679699Y141099D02*
D03*
X675099Y142699D02*
D03*
X764899Y130899D02*
D03*
Y127299D02*
D03*
X716899Y232299D02*
D03*
Y229299D02*
D03*
X717099Y226099D02*
D03*
X720299Y240899D02*
D03*
X716899Y237499D02*
D03*
X760499Y455899D02*
D03*
X828099Y508699D02*
D03*
X823099Y487699D02*
D03*
X832699Y159699D02*
D03*
X816699Y160699D02*
D03*
X853099Y168499D02*
D03*
X753468Y472531D02*
D03*
X755188Y470188D02*
D03*
X748259Y493499D02*
D03*
X745919D02*
D03*
X681499Y356899D02*
D03*
X685099Y213699D02*
D03*
X771299Y238499D02*
D03*
X890899D02*
D03*
X661899Y169099D02*
D03*
X662699Y176299D02*
D03*
X673499Y167899D02*
D03*
X711699Y483499D02*
D03*
X712099Y480299D02*
D03*
X718499Y488099D02*
D03*
X714699Y484899D02*
D03*
X917899Y534699D02*
D03*
X747099Y539899D02*
D03*
X835699Y459899D02*
D03*
X844699Y450899D02*
D03*
X837699Y451099D02*
D03*
X939167Y562399D02*
D03*
Y557399D02*
D03*
X952331Y563442D02*
D03*
X820299Y439899D02*
D03*
X939167Y569899D02*
D03*
Y564899D02*
D03*
X905699Y280099D02*
D03*
X902099Y279899D02*
D03*
X860499Y399499D02*
D03*
X875899Y422099D02*
D03*
X869699Y403699D02*
D03*
X928168Y515631D02*
D03*
X918631Y515568D02*
D03*
X816699Y472499D02*
D03*
X810699Y472499D02*
D03*
Y476436D02*
D03*
X804699Y472499D02*
D03*
Y476436D02*
D03*
X798699Y472499D02*
D03*
X792699Y472499D02*
D03*
X792899Y476347D02*
D03*
X786699Y472499D02*
D03*
Y476436D02*
D03*
X780699Y472499D02*
D03*
Y476436D02*
D03*
X774699D02*
D03*
Y472499D02*
D03*
X768699D02*
D03*
Y476436D02*
D03*
X762699D02*
D03*
X1031799Y782173D02*
D03*
X1043799D02*
D03*
X1045442Y740268D02*
D03*
X1039156Y736331D02*
D03*
X1042299Y731411D02*
D03*
Y721188D02*
D03*
X904652Y485931D02*
D03*
Y489868D02*
D03*
X978268Y500652D02*
D03*
X964268D02*
D03*
X960331D02*
D03*
X962268Y503946D02*
D03*
X958331D02*
D03*
X988268Y535946D02*
D03*
X989417Y532599D02*
D03*
Y503999D02*
D03*
X1013252Y563546D02*
D03*
X903432Y534899D02*
D03*
Y539899D02*
D03*
Y544899D02*
D03*
Y547399D02*
D03*
Y549899D02*
D03*
Y552399D02*
D03*
Y557399D02*
D03*
Y559899D02*
D03*
Y562399D02*
D03*
Y564899D02*
D03*
Y567399D02*
D03*
Y569899D02*
D03*
Y527399D02*
D03*
Y572399D02*
D03*
X939167D02*
D03*
Y567399D02*
D03*
Y559899D02*
D03*
Y554899D02*
D03*
Y532399D02*
D03*
Y539899D02*
D03*
X1027799Y791426D02*
D03*
X1031799D02*
D03*
X1035799D02*
D03*
X1039799D02*
D03*
X1043799D02*
D03*
X1047799D02*
D03*
Y782173D02*
D03*
X1039799D02*
D03*
X1035799D02*
D03*
X1027799D02*
D03*
X1118268Y825641D02*
D03*
X1114331D02*
D03*
X1118268Y834957D02*
D03*
X1114331D02*
D03*
X1129868Y900268D02*
D03*
X1133315Y871965D02*
D03*
X1116099Y877899D02*
D03*
X1157024Y873879D02*
D03*
X1113735Y842135D02*
D03*
X1157948Y871299D02*
D03*
X1113735Y846072D02*
D03*
X1154864Y869694D02*
D03*
Y861820D02*
D03*
X1146068Y859852D02*
D03*
X1158160Y857883D02*
D03*
X1149165Y855915D02*
D03*
X1154864Y853946D02*
D03*
X1149165Y848041D02*
D03*
X1146068Y844104D02*
D03*
X1158160Y842135D02*
D03*
X1113735Y871663D02*
D03*
X1119234Y869694D02*
D03*
X1110438Y867726D02*
D03*
X1122530Y865757D02*
D03*
X1113735Y863789D02*
D03*
X1119234Y853946D02*
D03*
X1110438Y844104D02*
D03*
X1147094Y877464D02*
D03*
X1145126Y868668D02*
D03*
X1143157Y880760D02*
D03*
X1139220Y877464D02*
D03*
X1135283Y880760D02*
D03*
X1127409Y877899D02*
D03*
X1123472Y877464D02*
D03*
X1149063Y836335D02*
D03*
X1137252Y833038D02*
D03*
X1131346Y841834D02*
D03*
X1129378Y833038D02*
D03*
X1127409Y845130D02*
D03*
X1121504Y833038D02*
D03*
X1119535Y845130D02*
D03*
X1070926Y840299D02*
D03*
X1061672D02*
D03*
Y852299D02*
D03*
X1063299Y894926D02*
D03*
Y885673D02*
D03*
X978499Y920126D02*
D03*
Y910873D02*
D03*
X978799Y897673D02*
D03*
X987299Y897672D02*
D03*
X978799Y906926D02*
D03*
X965172Y851099D02*
D03*
X974426Y843099D02*
D03*
X970299Y810926D02*
D03*
Y801672D02*
D03*
X968299Y830926D02*
D03*
X992268Y813957D02*
D03*
X988331D02*
D03*
X992268Y807957D02*
D03*
X988331D02*
D03*
X992268Y801957D02*
D03*
X988331D02*
D03*
X992268Y795957D02*
D03*
X988331D02*
D03*
X992268Y789957D02*
D03*
X988331D02*
D03*
Y783957D02*
D03*
X992268Y777957D02*
D03*
X988331D02*
D03*
X992268Y769957D02*
D03*
X988331D02*
D03*
X992268Y763957D02*
D03*
X988331D02*
D03*
X992268Y749957D02*
D03*
X988331D02*
D03*
X992268Y743957D02*
D03*
X1073672Y836299D02*
D03*
Y828299D02*
D03*
X1082926Y836299D02*
D03*
Y828299D02*
D03*
Y820299D02*
D03*
X1073673D02*
D03*
X1082926Y812299D02*
D03*
X1073672D02*
D03*
Y804299D02*
D03*
X1082926D02*
D03*
X1107268Y860957D02*
D03*
X1103331D02*
D03*
Y854957D02*
D03*
X1103299Y848957D02*
D03*
X1107268Y842957D02*
D03*
X1103331D02*
D03*
X1107268Y836957D02*
D03*
X1103331D02*
D03*
X1107268Y830957D02*
D03*
X1103331D02*
D03*
X1107268Y824957D02*
D03*
X1103331D02*
D03*
X1125041Y812331D02*
D03*
X1170252Y898562D02*
D03*
X1040699Y599099D02*
D03*
X1052657Y600299D02*
D03*
X985039Y883487D02*
D03*
X977559D02*
D03*
Y874825D02*
D03*
X981299Y881112D02*
D03*
X988039Y857773D02*
D03*
Y849112D02*
D03*
X980559D02*
D03*
X984299Y851487D02*
D03*
X1037299Y309499D02*
D03*
X1043899Y308899D02*
D03*
X1051899Y363699D02*
D03*
X1045499Y341386D02*
D03*
X1016899Y334899D02*
D03*
X1016699Y331299D02*
D03*
X1021899Y338236D02*
D03*
X1048699Y331499D02*
D03*
X998099Y450099D02*
D03*
X877899Y328299D02*
D03*
X868502D02*
D03*
X872199Y271799D02*
D03*
X881399D02*
D03*
X872199Y267799D02*
D03*
X881399D02*
D03*
X889499Y374299D02*
D03*
X855899Y402299D02*
D03*
X906699Y419899D02*
D03*
X879099Y381099D02*
D03*
X878899Y383899D02*
D03*
X878699Y404099D02*
D03*
X883499Y405499D02*
D03*
X881299Y409499D02*
D03*
X873499Y416699D02*
D03*
X884899Y400899D02*
D03*
X758099Y217499D02*
D03*
X809499Y167878D02*
D03*
X804699Y143068D02*
D03*
X823899Y133468D02*
D03*
X836320Y170699D02*
D03*
X826720Y189899D02*
D03*
X809499Y217530D02*
D03*
X826720Y199499D02*
D03*
X856330Y156299D02*
D03*
X790677Y146152D02*
D03*
X837921D02*
D03*
X789194Y203921D02*
D03*
X839404Y201953D02*
D03*
X848446Y199984D02*
D03*
X836107Y198016D02*
D03*
X839404Y194079D02*
D03*
Y186205D02*
D03*
X848446Y184236D02*
D03*
X836107Y182268D02*
D03*
X848446Y176362D02*
D03*
X839404Y170457D02*
D03*
Y162583D02*
D03*
X848446Y160614D02*
D03*
X780152Y201953D02*
D03*
X789194Y199984D02*
D03*
X776855Y198016D02*
D03*
X792491Y196047D02*
D03*
X780152Y194079D02*
D03*
X789194Y192110D02*
D03*
X776855Y190142D02*
D03*
X792491Y188173D02*
D03*
X780152Y186205D02*
D03*
X789194Y184236D02*
D03*
X776855Y182268D02*
D03*
X792491Y180299D02*
D03*
X780152Y178331D02*
D03*
X789194Y176362D02*
D03*
X776855Y174394D02*
D03*
X792491Y172425D02*
D03*
X776855Y166520D02*
D03*
X789194Y160614D02*
D03*
X828079Y205404D02*
D03*
X824142Y202107D02*
D03*
X814299Y217743D02*
D03*
X810362Y214446D02*
D03*
X808394Y202107D02*
D03*
X804457Y205404D02*
D03*
X800520Y202107D02*
D03*
X798551Y217743D02*
D03*
X796583Y205404D02*
D03*
X794614Y214446D02*
D03*
X792646Y202107D02*
D03*
X833984Y155194D02*
D03*
X832016Y142855D02*
D03*
X828079Y146152D02*
D03*
X824142Y142855D02*
D03*
X820205Y146152D02*
D03*
X818236Y155194D02*
D03*
X816268Y142855D02*
D03*
X810362Y155194D02*
D03*
X808394Y142855D02*
D03*
X802488Y155194D02*
D03*
X692699Y175299D02*
D03*
X760099Y240299D02*
D03*
X757299Y220699D02*
D03*
X692499Y191899D02*
D03*
X748499Y218299D02*
D03*
X749299Y214499D02*
D03*
X753899Y220699D02*
D03*
X735899Y229099D02*
D03*
X735945Y232799D02*
D03*
X730099Y213899D02*
D03*
X729899Y217499D02*
D03*
X726699Y224499D02*
D03*
Y228499D02*
D03*
X726499Y231899D02*
D03*
X722299Y232099D02*
D03*
X766931Y164299D02*
D03*
X754331Y186899D02*
D03*
X763899Y159699D02*
D03*
X803668Y224299D02*
D03*
X792931D02*
D03*
X776931D02*
D03*
X787668D02*
D03*
X762899Y200299D02*
D03*
X762299Y213099D02*
D03*
X753699Y212899D02*
D03*
X763299Y203699D02*
D03*
X753699Y203499D02*
D03*
X736699Y167699D02*
D03*
X760099Y370699D02*
D03*
X757699D02*
D03*
X755299D02*
D03*
X752899D02*
D03*
X750499D02*
D03*
X683099Y417899D02*
D03*
X702699Y311499D02*
D03*
X710299Y212099D02*
D03*
X702899Y206299D02*
D03*
X706099Y208699D02*
D03*
X721307Y314803D02*
D03*
X725244Y318740D02*
D03*
X721307D02*
D03*
X717370Y314803D02*
D03*
Y318740D02*
D03*
X695739Y316539D02*
D03*
X682099Y322499D02*
D03*
X708935Y285164D02*
D03*
X716799Y261799D02*
D03*
X707999Y304799D02*
D03*
X699130Y227899D02*
D03*
X693663Y239299D02*
D03*
X679799Y247699D02*
D03*
X674696Y254024D02*
D03*
Y272024D02*
D03*
X678799Y282899D02*
D03*
X674886Y307001D02*
D03*
X672399Y323299D02*
D03*
X678823Y333001D02*
D03*
X681699Y350299D02*
D03*
X674070Y367999D02*
D03*
X678623Y396899D02*
D03*
X695622Y428662D02*
D03*
Y436536D02*
D03*
Y440473D02*
D03*
Y448347D02*
D03*
Y452284D02*
D03*
Y456221D02*
D03*
Y460158D02*
D03*
Y464095D02*
D03*
Y468032D02*
D03*
X685622Y430599D02*
D03*
Y434536D02*
D03*
Y438473D02*
D03*
Y442410D02*
D03*
Y446347D02*
D03*
Y450284D02*
D03*
Y458158D02*
D03*
Y462095D02*
D03*
Y469969D02*
D03*
X685842Y287101D02*
D03*
Y279227D02*
D03*
Y275290D02*
D03*
Y267416D02*
D03*
Y263479D02*
D03*
Y259542D02*
D03*
Y255605D02*
D03*
Y251668D02*
D03*
Y247731D02*
D03*
X695842Y285164D02*
D03*
Y281227D02*
D03*
Y277290D02*
D03*
Y273353D02*
D03*
Y269416D02*
D03*
Y265479D02*
D03*
Y257605D02*
D03*
Y253668D02*
D03*
Y245794D02*
D03*
X685532Y350015D02*
D03*
Y342141D02*
D03*
Y338204D02*
D03*
Y334267D02*
D03*
Y330330D02*
D03*
Y326393D02*
D03*
Y322456D02*
D03*
Y314582D02*
D03*
Y310645D02*
D03*
X695532Y348078D02*
D03*
Y344141D02*
D03*
Y340204D02*
D03*
Y336267D02*
D03*
Y328393D02*
D03*
Y324456D02*
D03*
X685532Y412109D02*
D03*
Y404235D02*
D03*
Y400298D02*
D03*
Y396361D02*
D03*
Y392424D02*
D03*
Y388487D02*
D03*
Y384550D02*
D03*
Y376676D02*
D03*
Y372739D02*
D03*
Y368802D02*
D03*
Y364865D02*
D03*
X695532Y410172D02*
D03*
Y406235D02*
D03*
Y402298D02*
D03*
Y398361D02*
D03*
Y390487D02*
D03*
Y386550D02*
D03*
Y382613D02*
D03*
Y378676D02*
D03*
Y374739D02*
D03*
Y370802D02*
D03*
Y362928D02*
D03*
X65095Y62299D02*
D03*
Y82299D02*
D03*
X40299Y42699D02*
D03*
X43899Y38299D02*
D03*
X36299Y41899D02*
D03*
X16331Y57299D02*
D03*
X20268Y92299D02*
D03*
X27503Y62299D02*
D03*
Y92299D02*
D03*
Y112299D02*
D03*
X65095Y102299D02*
D03*
Y112299D02*
D03*
Y122299D02*
D03*
X68499Y207699D02*
D03*
X64359Y239280D02*
D03*
Y259280D02*
D03*
X20499Y317699D02*
D03*
X22327Y297280D02*
D03*
X40099Y321499D02*
D03*
Y324699D02*
D03*
X30099Y318299D02*
D03*
X37576Y285962D02*
D03*
X26499Y356499D02*
D03*
X25499Y359959D02*
D03*
X76220Y565199D02*
D03*
Y575199D02*
D03*
Y585199D02*
D03*
Y595199D02*
D03*
Y605199D02*
D03*
Y615199D02*
D03*
Y625199D02*
D03*
X76299Y635199D02*
D03*
X530799Y556799D02*
D03*
Y560799D02*
D03*
Y563799D02*
D03*
Y566799D02*
D03*
Y569299D02*
D03*
Y572299D02*
D03*
X516299Y559299D02*
D03*
X512299D02*
D03*
X508299D02*
D03*
X504299D02*
D03*
X500299D02*
D03*
X431499Y569499D02*
D03*
X489128Y570770D02*
D03*
X486628D02*
D03*
X474128D02*
D03*
X471628D02*
D03*
X456628D02*
D03*
X454128D02*
D03*
X402628D02*
D03*
X405128D02*
D03*
X387628D02*
D03*
X390128D02*
D03*
X370128D02*
D03*
X372628D02*
D03*
X365128D02*
D03*
X362628D02*
D03*
X357628D02*
D03*
X355128D02*
D03*
X350128D02*
D03*
X347628D02*
D03*
X355128Y545270D02*
D03*
X357628D02*
D03*
X372628D02*
D03*
X370128D02*
D03*
X390128D02*
D03*
X387628D02*
D03*
X405128D02*
D03*
X402628D02*
D03*
X439128D02*
D03*
X441628D02*
D03*
X456628D02*
D03*
X454128D02*
D03*
X474128D02*
D03*
X471628D02*
D03*
X489128D02*
D03*
X486628D02*
D03*
X715628Y570770D02*
D03*
X718128D02*
D03*
X723128D02*
D03*
X725628D02*
D03*
X730628D02*
D03*
X733128D02*
D03*
X740628D02*
D03*
X738128D02*
D03*
X758128D02*
D03*
X755628D02*
D03*
X773128D02*
D03*
X770628D02*
D03*
X723128Y545270D02*
D03*
X725628D02*
D03*
X740628D02*
D03*
X738128D02*
D03*
X758128D02*
D03*
X755628D02*
D03*
X773128D02*
D03*
X770628D02*
D03*
X822128Y570770D02*
D03*
X824628D02*
D03*
X839628D02*
D03*
X842128D02*
D03*
X854628D02*
D03*
X857128D02*
D03*
X854628Y545270D02*
D03*
X857128D02*
D03*
X839628D02*
D03*
X842128D02*
D03*
X822128D02*
D03*
X824628D02*
D03*
X809628D02*
D03*
X807128D02*
D03*
X462509Y281342D02*
D03*
X482194Y301027D02*
D03*
X454635Y304964D02*
D03*
X462509D02*
D03*
X482194D02*
D03*
X478257D02*
D03*
X482194Y308901D02*
D03*
X462509Y312838D02*
D03*
X495973Y306933D02*
D03*
X478257Y308901D02*
D03*
Y312838D02*
D03*
X470383D02*
D03*
X462509Y308901D02*
D03*
X495973Y316382D02*
D03*
X462509Y320713D02*
D03*
X470383D02*
D03*
X478257D02*
D03*
X482194Y324650D02*
D03*
X486131D02*
D03*
X482194Y328587D02*
D03*
Y332524D02*
D03*
X478257D02*
D03*
X474320Y328587D02*
D03*
X482194Y336461D02*
D03*
X478257D02*
D03*
X482194Y340398D02*
D03*
X478257Y344335D02*
D03*
X474320D02*
D03*
X470383D02*
D03*
Y336461D02*
D03*
X482194Y344335D02*
D03*
X478257Y348272D02*
D03*
X482194D02*
D03*
Y352209D02*
D03*
X495973Y320713D02*
D03*
X466446Y301027D02*
D03*
X470383Y297090D02*
D03*
X446761Y304964D02*
D03*
X516499Y529099D02*
D03*
X351099Y460899D02*
D03*
X309099Y112499D02*
D03*
X289899Y308499D02*
D03*
X584899Y404299D02*
D03*
X430299Y467099D02*
D03*
X436099Y461699D02*
D03*
X432499Y462299D02*
D03*
Y459699D02*
D03*
X431099Y456499D02*
D03*
X359499Y461099D02*
D03*
X355699Y460699D02*
D03*
X648899Y327699D02*
D03*
X367099Y461499D02*
D03*
X370499Y461299D02*
D03*
X374299D02*
D03*
X363299D02*
D03*
X406699Y155499D02*
D03*
X405899Y163499D02*
D03*
X399516Y312838D02*
D03*
X413711Y178094D02*
D03*
X412348Y176148D02*
D03*
X375894Y371894D02*
D03*
X379831Y344335D02*
D03*
Y375831D02*
D03*
X387705Y344335D02*
D03*
X391642Y348272D02*
D03*
Y356146D02*
D03*
Y364020D02*
D03*
Y371894D02*
D03*
X438887D02*
D03*
X399516D02*
D03*
X442824D02*
D03*
X415265D02*
D03*
X478257Y375831D02*
D03*
X478347Y379921D02*
D03*
X462509Y375831D02*
D03*
X462599Y379921D02*
D03*
X454635Y375831D02*
D03*
X450787Y379921D02*
D03*
X470383Y375831D02*
D03*
Y371894D02*
D03*
X482194Y367957D02*
D03*
X458662Y383858D02*
D03*
X454724Y387795D02*
D03*
X462599D02*
D03*
Y391732D02*
D03*
X466536Y387795D02*
D03*
X470473D02*
D03*
X478257Y371894D02*
D03*
X482194D02*
D03*
X474320D02*
D03*
X462509D02*
D03*
X466446D02*
D03*
Y364020D02*
D03*
Y367957D02*
D03*
X474410Y387795D02*
D03*
X368020Y352209D02*
D03*
Y371894D02*
D03*
X371957Y375831D02*
D03*
X688099Y476299D02*
D03*
X484099Y228299D02*
D03*
X650899Y251299D02*
D03*
X654099Y270899D02*
D03*
X652099Y273099D02*
D03*
X649499Y273899D02*
D03*
X86268Y321799D02*
D03*
Y305799D02*
D03*
Y289799D02*
D03*
Y273799D02*
D03*
Y257799D02*
D03*
Y241799D02*
D03*
Y225799D02*
D03*
X126331Y227799D02*
D03*
Y243228D02*
D03*
Y258656D02*
D03*
X126134Y273999D02*
D03*
X126331Y335799D02*
D03*
Y320371D02*
D03*
Y304942D02*
D03*
Y289513D02*
D03*
X253864Y138320D02*
D03*
X275099Y196469D02*
D03*
Y194129D02*
D03*
X257068Y184399D02*
D03*
X257296Y200517D02*
D03*
X249662Y199399D02*
D03*
Y196899D02*
D03*
X226299Y189728D02*
D03*
X208468Y200499D02*
D03*
X205099Y180399D02*
D03*
X152499Y126299D02*
D03*
X152299Y122299D02*
D03*
X244299D02*
D03*
X244499Y126299D02*
D03*
X262299Y160299D02*
D03*
X248288Y157265D02*
D03*
X266599Y158799D02*
D03*
X176599D02*
D03*
X158288Y157265D02*
D03*
X163864Y138320D02*
D03*
X197999Y98540D02*
D03*
X214599Y98499D02*
D03*
X338899Y85346D02*
D03*
X291099Y110299D02*
D03*
X281499D02*
D03*
X289252Y147699D02*
D03*
Y133699D02*
D03*
X245199Y244299D02*
D03*
X258899Y249399D02*
D03*
X379831Y352209D02*
D03*
X375894Y340398D02*
D03*
X387705Y352209D02*
D03*
X375894Y344335D02*
D03*
X371957D02*
D03*
X383768Y356146D02*
D03*
Y340398D02*
D03*
Y348272D02*
D03*
X368020Y285279D02*
D03*
X375894Y336461D02*
D03*
X458572Y371894D02*
D03*
X438887Y375831D02*
D03*
X415265D02*
D03*
X454635Y371894D02*
D03*
X434950D02*
D03*
X419202D02*
D03*
X411328D02*
D03*
X403453D02*
D03*
X379831D02*
D03*
Y364020D02*
D03*
X348335Y371894D02*
D03*
Y375831D02*
D03*
X356209D02*
D03*
Y348272D02*
D03*
Y356146D02*
D03*
Y352209D02*
D03*
X360146D02*
D03*
X364083D02*
D03*
Y375831D02*
D03*
Y360083D02*
D03*
Y371894D02*
D03*
Y356146D02*
D03*
X371957Y371894D02*
D03*
X360146Y360083D02*
D03*
Y364020D02*
D03*
Y371894D02*
D03*
Y348272D02*
D03*
X364083D02*
D03*
X360146Y344335D02*
D03*
X364083Y340398D02*
D03*
X368020D02*
D03*
X371957D02*
D03*
X360146D02*
D03*
Y336461D02*
D03*
Y332524D02*
D03*
X356209Y360083D02*
D03*
Y364020D02*
D03*
Y371894D02*
D03*
X352272Y360083D02*
D03*
Y364020D02*
D03*
Y371894D02*
D03*
X344398D02*
D03*
X336524Y367957D02*
D03*
Y364020D02*
D03*
Y356146D02*
D03*
X340461Y375831D02*
D03*
Y356146D02*
D03*
Y371894D02*
D03*
X332587D02*
D03*
X368020Y360083D02*
D03*
Y364020D02*
D03*
X336524Y371894D02*
D03*
X328650D02*
D03*
X364173Y379921D02*
D03*
X332587Y352209D02*
D03*
Y375831D02*
D03*
X336524Y340398D02*
D03*
X332587Y348272D02*
D03*
X340461Y344335D02*
D03*
Y340398D02*
D03*
X344398Y344335D02*
D03*
X340461Y332524D02*
D03*
X332587Y344335D02*
D03*
Y340398D02*
D03*
Y336461D02*
D03*
Y332524D02*
D03*
Y328587D02*
D03*
X328650Y364020D02*
D03*
Y367957D02*
D03*
Y352209D02*
D03*
X340461D02*
D03*
X344398Y356146D02*
D03*
X368020Y348272D02*
D03*
X371957Y336461D02*
D03*
X375894Y332524D02*
D03*
X371957Y348272D02*
D03*
X375894Y328587D02*
D03*
X379831D02*
D03*
X383768Y332524D02*
D03*
Y324650D02*
D03*
Y312838D02*
D03*
Y301027D02*
D03*
Y304964D02*
D03*
Y297090D02*
D03*
X379831Y312838D02*
D03*
Y320713D02*
D03*
Y308901D02*
D03*
Y301027D02*
D03*
Y297090D02*
D03*
X371957Y332524D02*
D03*
X387705Y336461D02*
D03*
X466536Y379921D02*
D03*
Y383858D02*
D03*
X470473Y391732D02*
D03*
X458662Y387795D02*
D03*
X470473Y379921D02*
D03*
X474410D02*
D03*
X458662D02*
D03*
X458572Y364020D02*
D03*
X474320D02*
D03*
X482194D02*
D03*
X368020Y281342D02*
D03*
X371957D02*
D03*
X332677Y379921D02*
D03*
X344398Y348272D02*
D03*
X368020Y336461D02*
D03*
X364083D02*
D03*
X368020Y344335D02*
D03*
X474410Y383858D02*
D03*
X352272Y249846D02*
D03*
X356209D02*
D03*
X360146D02*
D03*
X320776Y352209D02*
D03*
X391642Y340398D02*
D03*
Y332524D02*
D03*
X352272Y356146D02*
D03*
Y352209D02*
D03*
X348335Y356146D02*
D03*
X348334Y348221D02*
D03*
X352272Y348272D02*
D03*
X336524Y293153D02*
D03*
X196850Y366142D02*
D03*
X340461Y297090D02*
D03*
X344398Y257720D02*
D03*
X368020Y245909D02*
D03*
X413296Y228193D02*
D03*
X348425Y167323D02*
D03*
Y159449D02*
D03*
X895299Y302067D02*
D03*
X848331Y263531D02*
D03*
X873055Y318744D02*
D03*
X832331Y263531D02*
D03*
X836331D02*
D03*
X848299Y258499D02*
D03*
Y260899D02*
D03*
X852331Y263531D02*
D03*
X856331D02*
D03*
X860331D02*
D03*
X386899Y462499D02*
D03*
X387099Y464899D02*
D03*
X425899Y457099D02*
D03*
X932399Y374299D02*
D03*
X884752Y388299D02*
D03*
Y370299D02*
D03*
X368099Y516703D02*
D03*
X412699Y502233D02*
D03*
X419565Y516699D02*
D03*
X423831Y517965D02*
D03*
X427768D02*
D03*
X422699Y503499D02*
D03*
X448499Y519099D02*
D03*
X436699Y511899D02*
D03*
X439899Y492898D02*
D03*
X428965Y493931D02*
D03*
X415633D02*
D03*
X407633Y493931D02*
D03*
X414199Y488434D02*
D03*
X398199D02*
D03*
Y479165D02*
D03*
X406199Y479165D02*
D03*
X414199Y479165D02*
D03*
X421899Y479165D02*
D03*
X426299Y500534D02*
D03*
X418299D02*
D03*
X652099Y332331D02*
D03*
X391165Y508799D02*
D03*
X698899Y491465D02*
D03*
Y500931D02*
D03*
X365621Y491080D02*
D03*
X579659Y488059D02*
D03*
X590139Y488139D02*
D03*
X592659Y496159D02*
D03*
X603139Y496239D02*
D03*
X592659Y488159D02*
D03*
X603139Y488239D02*
D03*
X618239Y488139D02*
D03*
X607759Y488059D02*
D03*
X611059Y496259D02*
D03*
X621539Y496339D02*
D03*
X94659Y788739D02*
D03*
X700028Y464459D02*
D03*
X705339Y510339D02*
D03*
X692739Y494059D02*
D03*
X692659Y506939D02*
D03*
X692676Y491657D02*
D03*
X692757Y477634D02*
D03*
X672371Y481028D02*
D03*
Y487028D02*
D03*
X707539Y322339D02*
D03*
Y318339D02*
D03*
Y314339D02*
D03*
X933417Y266299D02*
D03*
X923181D02*
D03*
Y270299D02*
D03*
Y274299D02*
D03*
Y278299D02*
D03*
Y282299D02*
D03*
Y286299D02*
D03*
Y290299D02*
D03*
X923150Y294299D02*
D03*
Y298299D02*
D03*
Y302299D02*
D03*
X914299Y326443D02*
D03*
Y323903D02*
D03*
X907099Y297679D02*
D03*
Y300219D02*
D03*
X907190Y305390D02*
D03*
X881099Y310409D02*
D03*
X881299Y316331D02*
D03*
X880299Y292699D02*
D03*
X911699Y312394D02*
D03*
Y308457D02*
D03*
Y322236D02*
D03*
X905083Y332990D02*
D03*
X880899Y326142D02*
D03*
X895299Y332699D02*
D03*
X889299Y332499D02*
D03*
Y335099D02*
D03*
X875099Y320299D02*
D03*
X844099Y259499D02*
D03*
X840299D02*
D03*
X867068Y324331D02*
D03*
Y320331D02*
D03*
Y316331D02*
D03*
Y312331D02*
D03*
Y308331D02*
D03*
Y300331D02*
D03*
Y296331D02*
D03*
Y292331D02*
D03*
Y288331D02*
D03*
Y284331D02*
D03*
Y280331D02*
D03*
Y276331D02*
D03*
X882299Y421099D02*
D03*
Y427099D02*
D03*
Y433099D02*
D03*
X807099Y438362D02*
D03*
Y442299D02*
D03*
X797099D02*
D03*
Y438362D02*
D03*
X787099Y442299D02*
D03*
X777099D02*
D03*
X885099Y438362D02*
D03*
Y442299D02*
D03*
X879099Y438362D02*
D03*
Y442299D02*
D03*
X873099Y438362D02*
D03*
Y442299D02*
D03*
X867099D02*
D03*
Y438362D02*
D03*
X861099D02*
D03*
Y442299D02*
D03*
X855099Y438362D02*
D03*
Y442299D02*
D03*
X864799Y455756D02*
D03*
X874799D02*
D03*
X844799D02*
D03*
X849799D02*
D03*
X854799D02*
D03*
X839799D02*
D03*
X854799Y508842D02*
D03*
X849799D02*
D03*
X844799D02*
D03*
X859799D02*
D03*
X874799D02*
D03*
X869799D02*
D03*
X879799D02*
D03*
X819799D02*
D03*
X804799D02*
D03*
X809799D02*
D03*
X814799D02*
D03*
X799799D02*
D03*
X784799D02*
D03*
X789799D02*
D03*
X794799D02*
D03*
X784799Y458331D02*
D03*
X814799D02*
D03*
X809799D02*
D03*
X779799D02*
D03*
X749799Y508842D02*
D03*
X739799D02*
D03*
X729799D02*
D03*
Y458331D02*
D03*
X719799D02*
D03*
X749799D02*
D03*
X754799D02*
D03*
X744799D02*
D03*
X739799D02*
D03*
X734799D02*
D03*
X724799D02*
D03*
X759799Y508842D02*
D03*
X754799D02*
D03*
X744799D02*
D03*
X734799D02*
D03*
X724799Y506268D02*
D03*
X216699Y432799D02*
D03*
Y436799D02*
D03*
X897229Y580512D02*
D03*
X899769D02*
D03*
X923299Y801499D02*
D03*
Y804099D02*
D03*
X896899Y724331D02*
D03*
Y728268D02*
D03*
X899099Y897868D02*
D03*
X898899Y908331D02*
D03*
X892299Y892630D02*
D03*
X896039Y875968D02*
D03*
X888559D02*
D03*
X896039Y862630D02*
D03*
X892299D02*
D03*
X888559D02*
D03*
X896039Y845968D02*
D03*
X888559D02*
D03*
X882299Y845731D02*
D03*
X875899Y830268D02*
D03*
X892134Y813899D02*
D03*
X896268Y807899D02*
D03*
X892331D02*
D03*
X896268Y801899D02*
D03*
X892299Y801699D02*
D03*
X892331Y795899D02*
D03*
X896268D02*
D03*
X892331Y789899D02*
D03*
Y783899D02*
D03*
Y777899D02*
D03*
X896268Y769899D02*
D03*
X892331Y749899D02*
D03*
X896268D02*
D03*
Y743899D02*
D03*
X991899Y584699D02*
D03*
X1022699Y581931D02*
D03*
X1013228Y582277D02*
D03*
X1005299Y582277D02*
D03*
X997228Y582277D02*
D03*
X981228D02*
D03*
X1013228Y591014D02*
D03*
X1005299D02*
D03*
X997228D02*
D03*
X989228D02*
D03*
X981228D02*
D03*
X983299Y631103D02*
D03*
X1013299Y593495D02*
D03*
X1023299D02*
D03*
X1033299Y631103D02*
D03*
X1023299D02*
D03*
X1003299D02*
D03*
X993299D02*
D03*
X954331Y631899D02*
D03*
X951931Y642299D02*
D03*
X960668D02*
D03*
X950299Y680499D02*
D03*
X940299D02*
D03*
X930299D02*
D03*
X920299D02*
D03*
X927902Y658253D02*
D03*
X925343D02*
D03*
X945815Y619546D02*
D03*
X943256D02*
D03*
X938138D02*
D03*
X935579D02*
D03*
X933020D02*
D03*
X930461D02*
D03*
X927902D02*
D03*
X925343D02*
D03*
X922783D02*
D03*
Y658253D02*
D03*
X917268Y637968D02*
D03*
X895699Y632699D02*
D03*
Y648699D02*
D03*
X913899Y628299D02*
D03*
Y625740D02*
D03*
Y630858D02*
D03*
X898699D02*
D03*
Y625740D02*
D03*
X913899Y644299D02*
D03*
Y641740D02*
D03*
Y646858D02*
D03*
X898699D02*
D03*
Y641740D02*
D03*
Y657740D02*
D03*
Y662858D02*
D03*
X913899D02*
D03*
Y657740D02*
D03*
X895699Y664699D02*
D03*
X913899Y660299D02*
D03*
X1046733Y731020D02*
D03*
Y733579D02*
D03*
X1054630Y664980D02*
D03*
X1006299Y674980D02*
D03*
X1003605Y672976D02*
D03*
X964331Y655613D02*
D03*
Y661613D02*
D03*
Y667613D02*
D03*
Y673613D02*
D03*
X1032394Y761417D02*
D03*
Y773228D02*
D03*
X1020394Y761417D02*
D03*
Y773228D02*
D03*
X1008394Y761417D02*
D03*
Y773228D02*
D03*
X996394Y761417D02*
D03*
Y773228D02*
D03*
X936394Y761417D02*
D03*
Y773228D02*
D03*
X924794Y761323D02*
D03*
Y773134D02*
D03*
X912394Y773228D02*
D03*
Y761417D02*
D03*
X900394D02*
D03*
Y773228D02*
D03*
X889569Y580315D02*
D03*
X887029D02*
D03*
X899791Y566535D02*
D03*
X897251D02*
D03*
X622441Y505504D02*
D03*
Y502964D02*
D03*
X889555Y569291D02*
D03*
X887015D02*
D03*
X341051Y463548D02*
D03*
X433899Y468259D02*
D03*
Y465919D02*
D03*
X427802Y455196D02*
D03*
X338796Y465202D02*
D03*
X330699Y497665D02*
D03*
X341729Y483259D02*
D03*
X612099Y410099D02*
D03*
X610299Y414299D02*
D03*
X611499Y399499D02*
D03*
X589499Y399699D02*
D03*
X634099Y445899D02*
D03*
X627699Y450299D02*
D03*
X639099Y446099D02*
D03*
X680499Y476699D02*
D03*
X654325Y436502D02*
D03*
X643099Y452899D02*
D03*
X652699Y466699D02*
D03*
X670099Y458899D02*
D03*
X657073Y450276D02*
D03*
X681199Y458536D02*
D03*
X657073Y469961D02*
D03*
Y462087D02*
D03*
Y458150D02*
D03*
Y446339D02*
D03*
Y442402D02*
D03*
Y438465D02*
D03*
Y434528D02*
D03*
Y430591D02*
D03*
Y426654D02*
D03*
X667273Y428623D02*
D03*
Y440434D02*
D03*
X654099Y448299D02*
D03*
X667273Y452245D02*
D03*
Y456182D02*
D03*
Y460119D02*
D03*
Y464056D02*
D03*
Y467993D02*
D03*
Y471930D02*
D03*
X681599Y452536D02*
D03*
X681199Y430336D02*
D03*
X656989Y330287D02*
D03*
Y334224D02*
D03*
Y338161D02*
D03*
Y342098D02*
D03*
Y349972D02*
D03*
X667189Y328487D02*
D03*
Y336361D02*
D03*
Y340298D02*
D03*
Y344235D02*
D03*
Y348172D02*
D03*
Y352109D02*
D03*
X666989Y362928D02*
D03*
Y370802D02*
D03*
Y374739D02*
D03*
Y378676D02*
D03*
Y382613D02*
D03*
Y386550D02*
D03*
Y390487D02*
D03*
Y398361D02*
D03*
Y402298D02*
D03*
Y406235D02*
D03*
Y410172D02*
D03*
Y414109D02*
D03*
X656989Y360928D02*
D03*
Y364865D02*
D03*
Y368802D02*
D03*
Y372739D02*
D03*
Y376676D02*
D03*
Y384550D02*
D03*
Y388487D02*
D03*
Y392424D02*
D03*
Y396361D02*
D03*
Y400298D02*
D03*
Y404235D02*
D03*
Y412109D02*
D03*
X667493Y289061D02*
D03*
Y285124D02*
D03*
Y281187D02*
D03*
Y277250D02*
D03*
Y273313D02*
D03*
Y269376D02*
D03*
Y265439D02*
D03*
Y257565D02*
D03*
Y253628D02*
D03*
Y245754D02*
D03*
X657293Y243786D02*
D03*
Y247723D02*
D03*
Y251660D02*
D03*
Y255597D02*
D03*
Y259534D02*
D03*
Y263471D02*
D03*
Y267408D02*
D03*
Y275282D02*
D03*
Y279219D02*
D03*
Y287093D02*
D03*
X667183Y324416D02*
D03*
Y320479D02*
D03*
Y316542D02*
D03*
Y312605D02*
D03*
Y308668D02*
D03*
Y300794D02*
D03*
X656983Y298826D02*
D03*
Y302763D02*
D03*
Y306700D02*
D03*
Y310637D02*
D03*
Y322448D02*
D03*
Y326385D02*
D03*
X632680Y526899D02*
D03*
X687798Y529299D02*
D03*
Y526899D02*
D03*
X680334Y529346D02*
D03*
Y526946D02*
D03*
X672838Y529299D02*
D03*
Y526899D02*
D03*
X665357Y529299D02*
D03*
Y526899D02*
D03*
X655515Y529299D02*
D03*
Y526899D02*
D03*
X648035Y529299D02*
D03*
Y526899D02*
D03*
X640161Y529299D02*
D03*
Y526899D02*
D03*
X632680Y529299D02*
D03*
X603940D02*
D03*
Y526899D02*
D03*
X596460Y529299D02*
D03*
Y526899D02*
D03*
X588980Y529299D02*
D03*
Y526899D02*
D03*
X581499D02*
D03*
Y529299D02*
D03*
X547644Y529296D02*
D03*
X234617Y529099D02*
D03*
X227137D02*
D03*
X219657D02*
D03*
X212176D02*
D03*
X202334D02*
D03*
X204934D02*
D03*
X194854D02*
D03*
X197454D02*
D03*
X182099D02*
D03*
X179499D02*
D03*
X176568Y464731D02*
D03*
X345899Y497768D02*
D03*
X342099Y497965D02*
D03*
X326699Y497468D02*
D03*
X329799Y483465D02*
D03*
X333799D02*
D03*
X337699D02*
D03*
X328999Y518399D02*
D03*
X328661Y520799D02*
D03*
X326699Y506999D02*
D03*
X330699Y507134D02*
D03*
X329799Y492799D02*
D03*
X333799Y492934D02*
D03*
X346699Y523099D02*
D03*
X349899Y512699D02*
D03*
X346099Y507634D02*
D03*
X342099Y507434D02*
D03*
X341699Y492934D02*
D03*
X337699Y492799D02*
D03*
X333899Y513499D02*
D03*
X336299Y513161D02*
D03*
X339299D02*
D03*
X341699Y513499D02*
D03*
X343899Y530099D02*
D03*
X340699Y531599D02*
D03*
X328899Y523299D02*
D03*
X357817Y509017D02*
D03*
X774299Y161299D02*
D03*
X698059Y294259D02*
D03*
X707939Y294339D02*
D03*
X717370Y302992D02*
D03*
X654299Y206499D02*
D03*
X671299Y210299D02*
D03*
X654099Y221499D02*
D03*
X653899Y225299D02*
D03*
X671299Y229099D02*
D03*
X640099Y227299D02*
D03*
X481799Y515799D02*
D03*
Y511799D02*
D03*
X476799Y507299D02*
D03*
Y503299D02*
D03*
Y498799D02*
D03*
Y494799D02*
D03*
X478299Y490799D02*
D03*
Y486799D02*
D03*
X483099Y482899D02*
D03*
X497499Y512099D02*
D03*
X497383Y494499D02*
D03*
X506000Y506000D02*
D03*
X506400Y501300D02*
D03*
X787699Y529099D02*
D03*
X810099Y521299D02*
D03*
X799499Y569499D02*
D03*
X810099Y525299D02*
D03*
X1043307Y840551D02*
D03*
X1039370D02*
D03*
X1043307Y836614D02*
D03*
Y832677D02*
D03*
X1035433Y836614D02*
D03*
X1039370Y824803D02*
D03*
Y816929D02*
D03*
X1043307D02*
D03*
X1031496Y812992D02*
D03*
X1023622D02*
D03*
X768551Y397480D02*
D03*
Y365984D02*
D03*
Y326614D02*
D03*
Y295118D02*
D03*
Y354173D02*
D03*
Y338425D02*
D03*
Y291181D02*
D03*
Y283307D02*
D03*
X772490Y397488D02*
D03*
Y295110D02*
D03*
X772421Y279398D02*
D03*
X1067799Y787299D02*
D03*
X811858Y291181D02*
D03*
X815795D02*
D03*
X800047Y295118D02*
D03*
X776425Y365984D02*
D03*
X732347Y167508D02*
D03*
Y171445D02*
D03*
Y175382D02*
D03*
Y183008D02*
D03*
Y186945D02*
D03*
Y190882D02*
D03*
X238299Y215799D02*
D03*
X922638Y242520D02*
D03*
X969882Y214173D02*
D03*
X922638D02*
D03*
X969882Y239370D02*
D03*
Y217323D02*
D03*
X925787Y242520D02*
D03*
Y214173D02*
D03*
X966732Y239370D02*
D03*
Y217323D02*
D03*
X928937Y242520D02*
D03*
Y214173D02*
D03*
X966732Y236220D02*
D03*
Y220472D02*
D03*
X925787Y236220D02*
D03*
Y220472D02*
D03*
X963583Y239370D02*
D03*
Y217323D02*
D03*
X928937Y239370D02*
D03*
Y217323D02*
D03*
X960433Y242520D02*
D03*
X932087D02*
D03*
Y214173D02*
D03*
X963583Y236220D02*
D03*
Y220472D02*
D03*
X928937Y236220D02*
D03*
Y220472D02*
D03*
X935236Y242520D02*
D03*
X960433Y239370D02*
D03*
Y217323D02*
D03*
X957283Y214173D02*
D03*
X935236D02*
D03*
X954134Y242520D02*
D03*
X960433Y236220D02*
D03*
X938386Y242520D02*
D03*
X932087Y236220D02*
D03*
X960433Y220472D02*
D03*
X932087D02*
D03*
X938386Y214173D02*
D03*
X957283Y239370D02*
D03*
Y217323D02*
D03*
X950984Y242520D02*
D03*
X941535D02*
D03*
X950984Y214173D02*
D03*
X941535D02*
D03*
X944685Y242520D02*
D03*
Y214173D02*
D03*
X954134Y239370D02*
D03*
X957283Y236220D02*
D03*
Y220472D02*
D03*
X954134Y217323D02*
D03*
X950984Y239370D02*
D03*
X941535D02*
D03*
X950984Y217323D02*
D03*
X941535D02*
D03*
X954134Y236220D02*
D03*
X938386D02*
D03*
X954134Y220472D02*
D03*
X938386D02*
D03*
X941535Y236220D02*
D03*
Y220472D02*
D03*
X944685Y236220D02*
D03*
Y220472D02*
D03*
X964764Y304528D02*
D03*
X1012008Y276181D02*
D03*
X964764D02*
D03*
X1012008Y301378D02*
D03*
Y279331D02*
D03*
X967913Y304528D02*
D03*
Y276181D02*
D03*
X1008858Y301378D02*
D03*
Y279331D02*
D03*
X971063Y304528D02*
D03*
Y276181D02*
D03*
X1008858Y298228D02*
D03*
Y282480D02*
D03*
X967913Y298228D02*
D03*
Y282480D02*
D03*
X1005709Y301378D02*
D03*
Y279331D02*
D03*
X971063Y301378D02*
D03*
Y279331D02*
D03*
X1002559Y304528D02*
D03*
X974213D02*
D03*
Y276181D02*
D03*
X1005709Y298228D02*
D03*
Y282480D02*
D03*
X971063Y298228D02*
D03*
Y282480D02*
D03*
X977362Y304528D02*
D03*
X1002559Y301378D02*
D03*
Y279331D02*
D03*
X999409Y276181D02*
D03*
X977362D02*
D03*
X996260Y304528D02*
D03*
X1002559Y298228D02*
D03*
X980512Y304528D02*
D03*
X974213Y298228D02*
D03*
X1002559Y282480D02*
D03*
X974213D02*
D03*
X980512Y276181D02*
D03*
X999409Y301378D02*
D03*
Y279331D02*
D03*
X993110Y304528D02*
D03*
X983661D02*
D03*
X993110Y276181D02*
D03*
X983661D02*
D03*
X986811Y304528D02*
D03*
Y276181D02*
D03*
X996260Y301378D02*
D03*
X999409Y298228D02*
D03*
Y282480D02*
D03*
X996260Y279331D02*
D03*
X993110Y301378D02*
D03*
X983661D02*
D03*
X993110Y279331D02*
D03*
X983661D02*
D03*
X996260Y298228D02*
D03*
X980512D02*
D03*
X996260Y282480D02*
D03*
X980512D02*
D03*
X983661Y298228D02*
D03*
Y282480D02*
D03*
X986811Y298228D02*
D03*
Y282480D02*
D03*
X964764Y410433D02*
D03*
X1012008Y382087D02*
D03*
X964764D02*
D03*
X1012008Y407283D02*
D03*
Y385236D02*
D03*
X967913Y410433D02*
D03*
Y382087D02*
D03*
X1008858Y407283D02*
D03*
Y385236D02*
D03*
X971063Y410433D02*
D03*
Y382087D02*
D03*
X1008858Y404134D02*
D03*
Y388386D02*
D03*
X967913Y404134D02*
D03*
Y388386D02*
D03*
X1005709Y407283D02*
D03*
Y385236D02*
D03*
X971063Y407283D02*
D03*
Y385236D02*
D03*
X1002559Y410433D02*
D03*
X974213D02*
D03*
Y382087D02*
D03*
X1005709Y404134D02*
D03*
Y388386D02*
D03*
X971063Y404134D02*
D03*
Y388386D02*
D03*
X977362Y410433D02*
D03*
X1002559Y407283D02*
D03*
Y385236D02*
D03*
X999409Y382087D02*
D03*
X977362D02*
D03*
X996260Y410433D02*
D03*
X1002559Y404134D02*
D03*
X980512Y410433D02*
D03*
X974213Y404134D02*
D03*
X1002559Y388386D02*
D03*
X974213D02*
D03*
X980512Y382087D02*
D03*
X999409Y407283D02*
D03*
Y385236D02*
D03*
X993110Y410433D02*
D03*
X983661D02*
D03*
X993110Y382087D02*
D03*
X983661D02*
D03*
X986811Y410433D02*
D03*
Y382087D02*
D03*
X996260Y407283D02*
D03*
X999409Y404134D02*
D03*
Y388386D02*
D03*
X996260Y385236D02*
D03*
X993110Y407283D02*
D03*
X983661D02*
D03*
X993110Y385236D02*
D03*
X983661D02*
D03*
X996260Y404134D02*
D03*
X980512D02*
D03*
X996260Y388386D02*
D03*
X980512D02*
D03*
X983661Y404134D02*
D03*
Y388386D02*
D03*
X986811Y404134D02*
D03*
Y388386D02*
D03*
X1113299Y884299D02*
D03*
X212598Y389764D02*
D03*
Y377953D02*
D03*
X220473Y389764D02*
D03*
X208661D02*
D03*
X220473Y377953D02*
D03*
X208661D02*
D03*
X212598Y393701D02*
D03*
Y374016D02*
D03*
X220473Y393701D02*
D03*
X224410Y389764D02*
D03*
X208661Y393701D02*
D03*
X204724Y389764D02*
D03*
X224410Y377953D02*
D03*
X204724D02*
D03*
X220473Y374016D02*
D03*
X208661D02*
D03*
X224410Y393701D02*
D03*
X204724D02*
D03*
X224410Y374016D02*
D03*
X204724D02*
D03*
X212598Y397638D02*
D03*
Y370079D02*
D03*
X220473Y397638D02*
D03*
X208661D02*
D03*
X220473Y370079D02*
D03*
X208661D02*
D03*
X224410Y397638D02*
D03*
X204724D02*
D03*
X228347Y393701D02*
D03*
Y374016D02*
D03*
X200787Y393701D02*
D03*
X224410Y370079D02*
D03*
X204724D02*
D03*
X200787Y374016D02*
D03*
X212598Y401575D02*
D03*
Y366142D02*
D03*
X220473Y401575D02*
D03*
X208661D02*
D03*
X220473Y366142D02*
D03*
X208661D02*
D03*
X228347Y397638D02*
D03*
X200787D02*
D03*
X228347Y370079D02*
D03*
X200787D02*
D03*
X224410Y401575D02*
D03*
X204724D02*
D03*
Y366142D02*
D03*
X228347Y401575D02*
D03*
X232284Y397638D02*
D03*
X212598Y405512D02*
D03*
X200787Y401575D02*
D03*
X232284Y370079D02*
D03*
X196850Y397638D02*
D03*
X228347Y366142D02*
D03*
X196850Y370079D02*
D03*
X200787Y366142D02*
D03*
X212598Y362205D02*
D03*
X220473Y405512D02*
D03*
X208661D02*
D03*
X236221Y389764D02*
D03*
Y377953D02*
D03*
X192913Y389764D02*
D03*
Y377953D02*
D03*
X220473Y362205D02*
D03*
X224410Y405512D02*
D03*
X204724D02*
D03*
X224410Y362205D02*
D03*
X204724D02*
D03*
X232284Y401575D02*
D03*
X196850D02*
D03*
X232284Y366142D02*
D03*
X228347Y405512D02*
D03*
X236221Y397638D02*
D03*
X200787Y405512D02*
D03*
X236221Y370079D02*
D03*
X192913Y397638D02*
D03*
X228347Y362205D02*
D03*
X192913Y370079D02*
D03*
X200787Y362205D02*
D03*
X240158Y381890D02*
D03*
X188976D02*
D03*
Y389764D02*
D03*
Y377953D02*
D03*
X240158Y393701D02*
D03*
Y374016D02*
D03*
X188976Y393701D02*
D03*
Y374016D02*
D03*
X232284Y405512D02*
D03*
X236221Y401575D02*
D03*
X196850Y405512D02*
D03*
X192913Y401575D02*
D03*
X236221Y366142D02*
D03*
X232284Y362205D02*
D03*
X192913Y366142D02*
D03*
X196850Y362205D02*
D03*
X240158Y397638D02*
D03*
Y370079D02*
D03*
X188976Y397638D02*
D03*
Y370079D02*
D03*
X244095Y381890D02*
D03*
X236221Y405512D02*
D03*
X192913D02*
D03*
X236221Y362205D02*
D03*
X185039Y389764D02*
D03*
X192913Y362205D02*
D03*
X185039Y377953D02*
D03*
X240158Y401575D02*
D03*
X188976D02*
D03*
X240158Y366142D02*
D03*
X188976D02*
D03*
X244095Y393701D02*
D03*
Y374016D02*
D03*
X185039Y393701D02*
D03*
Y374016D02*
D03*
X244095Y397638D02*
D03*
Y370079D02*
D03*
X185039Y397638D02*
D03*
Y370079D02*
D03*
X240158Y405512D02*
D03*
X188976D02*
D03*
X240158Y362205D02*
D03*
X188976D02*
D03*
X244095Y401575D02*
D03*
Y366142D02*
D03*
X185039Y401575D02*
D03*
Y366142D02*
D03*
X244095Y362205D02*
D03*
X185039Y405512D02*
D03*
Y362205D02*
D03*
X328740Y139764D02*
D03*
X340551D02*
D03*
X328740Y147638D02*
D03*
Y135827D02*
D03*
X340551Y147638D02*
D03*
Y135827D02*
D03*
X324803Y139764D02*
D03*
X344488D02*
D03*
X324803Y147638D02*
D03*
X328740Y151575D02*
D03*
X324803Y135827D02*
D03*
X328740Y131890D02*
D03*
X340551Y151575D02*
D03*
Y131890D02*
D03*
X344488Y147638D02*
D03*
Y135827D02*
D03*
X324803Y151575D02*
D03*
Y131890D02*
D03*
X344488Y151575D02*
D03*
Y131890D02*
D03*
X320866Y139764D02*
D03*
X348425D02*
D03*
X320866Y147638D02*
D03*
Y135827D02*
D03*
X348425Y147638D02*
D03*
Y135827D02*
D03*
X320866Y151575D02*
D03*
Y131890D02*
D03*
X324803Y155512D02*
D03*
X344488D02*
D03*
X324803Y127953D02*
D03*
X348425Y151575D02*
D03*
Y131890D02*
D03*
X344488Y127953D02*
D03*
X316929Y139764D02*
D03*
X352362D02*
D03*
X316929Y147638D02*
D03*
Y135827D02*
D03*
X352362Y147638D02*
D03*
Y135827D02*
D03*
X320866Y155512D02*
D03*
Y127953D02*
D03*
X348425Y155512D02*
D03*
Y127953D02*
D03*
X316929Y151575D02*
D03*
Y131890D02*
D03*
X352362Y151575D02*
D03*
Y131890D02*
D03*
X316929Y155512D02*
D03*
X320866Y159449D02*
D03*
X312992Y139764D02*
D03*
X316929Y127953D02*
D03*
X352362Y155512D02*
D03*
X336614Y120079D02*
D03*
X348425Y124016D02*
D03*
X352362Y127953D02*
D03*
X312992Y147638D02*
D03*
Y135827D02*
D03*
X328740Y163386D02*
D03*
X340551D02*
D03*
X328740Y120079D02*
D03*
X340551D02*
D03*
X356299Y147638D02*
D03*
Y135827D02*
D03*
X312992Y151575D02*
D03*
Y131890D02*
D03*
X356299Y151575D02*
D03*
Y131890D02*
D03*
X316929Y159449D02*
D03*
Y124016D02*
D03*
X352362Y159449D02*
D03*
X312992Y155512D02*
D03*
X320866Y163386D02*
D03*
X312992Y127953D02*
D03*
X348425Y163386D02*
D03*
X320866Y120079D02*
D03*
X356299Y155512D02*
D03*
X348425Y120079D02*
D03*
X336614Y116142D02*
D03*
X328740D02*
D03*
X340551D02*
D03*
X324803Y167323D02*
D03*
X344488D02*
D03*
X324803Y116142D02*
D03*
X344488D02*
D03*
X312992Y159449D02*
D03*
X316929Y163386D02*
D03*
X312992Y124016D02*
D03*
X352362Y163386D02*
D03*
X356299Y159449D02*
D03*
X352362Y120079D02*
D03*
X356299Y124016D02*
D03*
X320866Y167323D02*
D03*
Y116142D02*
D03*
X348425D02*
D03*
X312992Y163386D02*
D03*
Y120079D02*
D03*
X356299Y163386D02*
D03*
X328740Y112205D02*
D03*
X356299Y120079D02*
D03*
X340551Y112205D02*
D03*
X316929Y167323D02*
D03*
Y116142D02*
D03*
X352362Y167323D02*
D03*
Y116142D02*
D03*
X324803Y171260D02*
D03*
X344488D02*
D03*
X324803Y112205D02*
D03*
X344488D02*
D03*
X320866Y171260D02*
D03*
X348425D02*
D03*
X320866Y112205D02*
D03*
X348425D02*
D03*
X312992Y167323D02*
D03*
Y116142D02*
D03*
X356299Y167323D02*
D03*
Y116142D02*
D03*
X316929Y171260D02*
D03*
X352362D02*
D03*
X316929Y112205D02*
D03*
X352362D02*
D03*
X356299Y171260D02*
D03*
X312992Y112205D02*
D03*
X356299D02*
D03*
X604331Y238189D02*
D03*
Y250000D02*
D03*
X596457Y238189D02*
D03*
X608268D02*
D03*
X596457Y250000D02*
D03*
X608268D02*
D03*
X604331Y234252D02*
D03*
Y253937D02*
D03*
X596457Y234252D02*
D03*
X592520Y238189D02*
D03*
X608268Y234252D02*
D03*
X612205Y238189D02*
D03*
X592520Y250000D02*
D03*
X612205D02*
D03*
X596457Y253937D02*
D03*
X608268D02*
D03*
X592520Y234252D02*
D03*
X612205D02*
D03*
X592520Y253937D02*
D03*
X612205D02*
D03*
X604331Y230315D02*
D03*
Y257874D02*
D03*
X596457Y230315D02*
D03*
X608268D02*
D03*
X596457Y257874D02*
D03*
X608268D02*
D03*
X592520Y230315D02*
D03*
X612205D02*
D03*
X588583Y234252D02*
D03*
Y253937D02*
D03*
X616142Y234252D02*
D03*
X592520Y257874D02*
D03*
X612205D02*
D03*
X616142Y253937D02*
D03*
X596457Y226378D02*
D03*
X608268D02*
D03*
X596457Y261811D02*
D03*
X608268D02*
D03*
X588583Y230315D02*
D03*
X616142D02*
D03*
X588583Y257874D02*
D03*
X616142D02*
D03*
X592520Y226378D02*
D03*
X612205D02*
D03*
X592520Y261811D02*
D03*
X612205D02*
D03*
X588583Y226378D02*
D03*
X584646Y230315D02*
D03*
X604331Y222441D02*
D03*
X616142Y226378D02*
D03*
X584646Y257874D02*
D03*
X620079Y230315D02*
D03*
X588583Y261811D02*
D03*
X624016Y246063D02*
D03*
X620079Y257874D02*
D03*
X616142Y261811D02*
D03*
X604331Y265748D02*
D03*
X596457Y222441D02*
D03*
X608268D02*
D03*
X580709Y238189D02*
D03*
Y250000D02*
D03*
X624016Y238189D02*
D03*
Y250000D02*
D03*
X596457Y265748D02*
D03*
X608268D02*
D03*
X592520Y222441D02*
D03*
X612205D02*
D03*
X592520Y265748D02*
D03*
X612205D02*
D03*
X620079Y226378D02*
D03*
X584646Y261811D02*
D03*
X620079D02*
D03*
X588583Y222441D02*
D03*
X580709Y230315D02*
D03*
X616142Y222441D02*
D03*
X580709Y257874D02*
D03*
X624016Y230315D02*
D03*
X588583Y265748D02*
D03*
X624016Y257874D02*
D03*
X616142Y265748D02*
D03*
X576772Y246063D02*
D03*
X627953D02*
D03*
Y238189D02*
D03*
Y250000D02*
D03*
X576772Y234252D02*
D03*
Y253937D02*
D03*
X627953Y234252D02*
D03*
Y253937D02*
D03*
X584646Y222441D02*
D03*
X580709Y226378D02*
D03*
X620079Y222441D02*
D03*
X624016Y226378D02*
D03*
X580709Y261811D02*
D03*
X584646Y265748D02*
D03*
X624016Y261811D02*
D03*
X620079Y265748D02*
D03*
X576772Y230315D02*
D03*
Y257874D02*
D03*
X627953Y230315D02*
D03*
Y257874D02*
D03*
X572835Y246063D02*
D03*
X580709Y222441D02*
D03*
X624016D02*
D03*
X580709Y265748D02*
D03*
X631890Y238189D02*
D03*
X624016Y265748D02*
D03*
X631890Y250000D02*
D03*
X576772Y226378D02*
D03*
Y261811D02*
D03*
X627953D02*
D03*
X572835Y234252D02*
D03*
Y253937D02*
D03*
X631890Y234252D02*
D03*
Y253937D02*
D03*
X572835Y230315D02*
D03*
Y257874D02*
D03*
X631890Y230315D02*
D03*
Y257874D02*
D03*
X576772Y222441D02*
D03*
X627953D02*
D03*
X576772Y265748D02*
D03*
X627953D02*
D03*
X572835Y226378D02*
D03*
Y261811D02*
D03*
X631890Y226378D02*
D03*
Y261811D02*
D03*
X572835Y265748D02*
D03*
X631890Y222441D02*
D03*
Y265748D02*
D03*
Y383858D02*
D03*
Y340551D02*
D03*
X572835Y383858D02*
D03*
X631890Y379921D02*
D03*
Y344488D02*
D03*
X572835Y379921D02*
D03*
Y344488D02*
D03*
X627953Y383858D02*
D03*
X576772D02*
D03*
X627953Y340551D02*
D03*
X576772D02*
D03*
X631890Y375984D02*
D03*
Y348425D02*
D03*
X572835Y375984D02*
D03*
Y348425D02*
D03*
X631890Y372047D02*
D03*
Y352362D02*
D03*
X572835Y372047D02*
D03*
Y352362D02*
D03*
X627953Y379921D02*
D03*
X576772D02*
D03*
X627953Y344488D02*
D03*
X576772D02*
D03*
X631890Y368110D02*
D03*
X624016Y383858D02*
D03*
X631890Y356299D02*
D03*
X580709Y383858D02*
D03*
X624016Y340551D02*
D03*
X580709D02*
D03*
X572835Y364173D02*
D03*
X627953Y375984D02*
D03*
Y348425D02*
D03*
X576772Y375984D02*
D03*
Y348425D02*
D03*
X620079Y383858D02*
D03*
X624016Y379921D02*
D03*
X584646Y383858D02*
D03*
X580709Y379921D02*
D03*
X624016Y344488D02*
D03*
X620079Y340551D02*
D03*
X580709Y344488D02*
D03*
X584646Y340551D02*
D03*
X627953Y372047D02*
D03*
Y352362D02*
D03*
X576772D02*
D03*
X627953Y368110D02*
D03*
Y356299D02*
D03*
Y364173D02*
D03*
X576772D02*
D03*
X616142Y383858D02*
D03*
X624016Y375984D02*
D03*
X588583Y383858D02*
D03*
X624016Y348425D02*
D03*
X580709Y375984D02*
D03*
X616142Y340551D02*
D03*
X580709Y348425D02*
D03*
X588583Y340551D02*
D03*
X620079Y379921D02*
D03*
X584646D02*
D03*
X620079Y344488D02*
D03*
X584646D02*
D03*
X612205Y383858D02*
D03*
X592520D02*
D03*
X612205Y340551D02*
D03*
X608268Y383858D02*
D03*
X596457D02*
D03*
X624016Y368110D02*
D03*
Y356299D02*
D03*
X580709Y368110D02*
D03*
Y356299D02*
D03*
X608268Y340551D02*
D03*
X616142Y379921D02*
D03*
X620079Y375984D02*
D03*
X624016Y364173D02*
D03*
X588583Y379921D02*
D03*
X620079Y348425D02*
D03*
X584646Y375984D02*
D03*
X616142Y344488D02*
D03*
X584646Y348425D02*
D03*
X588583Y344488D02*
D03*
X612205Y379921D02*
D03*
X592520D02*
D03*
X612205Y344488D02*
D03*
X592520D02*
D03*
X616142Y375984D02*
D03*
X588583D02*
D03*
X616142Y348425D02*
D03*
X588583D02*
D03*
X596457Y379921D02*
D03*
X608268Y344488D02*
D03*
X616142Y372047D02*
D03*
X612205Y375984D02*
D03*
X592520D02*
D03*
X616142Y352362D02*
D03*
X588583Y372047D02*
D03*
Y352362D02*
D03*
X612205Y348425D02*
D03*
X592520D02*
D03*
X608268Y375984D02*
D03*
X596457D02*
D03*
X608268Y348425D02*
D03*
X596457D02*
D03*
X604331Y375984D02*
D03*
Y348425D02*
D03*
X612205Y372047D02*
D03*
X592520D02*
D03*
X612205Y352362D02*
D03*
X592520D02*
D03*
X608268Y372047D02*
D03*
X596457D02*
D03*
X612205Y368110D02*
D03*
X592520D02*
D03*
X612205Y356299D02*
D03*
X608268Y352362D02*
D03*
X592520Y356299D02*
D03*
X596457Y352362D02*
D03*
X604331Y372047D02*
D03*
Y352362D02*
D03*
X608268Y368110D02*
D03*
X596457D02*
D03*
X608268Y356299D02*
D03*
X596457D02*
D03*
X604331Y368110D02*
D03*
Y356299D02*
D03*
X997899Y368699D02*
D03*
X1027299Y341299D02*
D03*
X783799Y266799D02*
D03*
X871299Y388299D02*
D03*
X870799Y370299D02*
D03*
X819094Y372638D02*
D03*
X836811Y416732D02*
D03*
X803346D02*
D03*
X811024Y316339D02*
D03*
X822047Y276772D02*
D03*
X828543Y320079D02*
D03*
X742323Y314961D02*
D03*
Y377953D02*
D03*
X764370Y417520D02*
D03*
X776378Y393307D02*
D03*
X766535Y392913D02*
D03*
X756693D02*
D03*
X1053299Y588299D02*
D03*
X1090299Y286299D02*
D03*
X1021299Y202299D02*
D03*
X863299Y141299D02*
D03*
X912299Y142299D02*
D03*
X968299D02*
D03*
X1004299Y144299D02*
D03*
X1011299Y137299D02*
D03*
X586299Y87299D02*
D03*
X578299Y41299D02*
D03*
X614299Y126299D02*
D03*
X1076299Y735299D02*
D03*
X1081299Y286799D02*
D03*
X1084299Y290299D02*
D03*
X28299Y342299D02*
D03*
X172299Y160299D02*
D03*
X152299Y144299D02*
D03*
Y162299D02*
D03*
X242299Y144299D02*
D03*
Y162299D02*
D03*
X210299Y111299D02*
D03*
X586299Y300299D02*
D03*
X852299Y128299D02*
D03*
X862299Y130299D02*
D03*
X1129299Y309299D02*
D03*
X984299Y578299D02*
D03*
X1132299Y315299D02*
D03*
X989299Y580299D02*
D03*
X971457Y518307D02*
D03*
Y513299D02*
D03*
X979173Y531142D02*
D03*
X964799Y512299D02*
D03*
X971457Y523425D02*
D03*
Y520866D02*
D03*
X1005709Y669882D02*
D03*
X1025000Y280512D02*
D03*
Y287992D02*
D03*
X1050299Y588299D02*
D03*
X1126299Y323299D02*
D03*
X1124299Y325799D02*
D03*
X891299Y73299D02*
D03*
X589299Y70299D02*
D03*
X605799Y112299D02*
D03*
X599799Y102299D02*
D03*
X133299Y16299D02*
D03*
X182299Y23299D02*
D03*
X12799Y80299D02*
D03*
X725244Y279370D02*
D03*
X839417Y413228D02*
D03*
X851228Y291181D02*
D03*
X717370D02*
D03*
X729181Y279370D02*
D03*
X835480Y413228D02*
D03*
X851228Y295118D02*
D03*
X733118Y279370D02*
D03*
X839417Y409291D02*
D03*
Y283307D02*
D03*
X729181D02*
D03*
X831543Y413228D02*
D03*
X851228Y393543D02*
D03*
X717370D02*
D03*
X851228Y299055D02*
D03*
X717370D02*
D03*
X737055Y279370D02*
D03*
X835480Y409291D02*
D03*
X733118D02*
D03*
X847291Y397480D02*
D03*
X721307D02*
D03*
X847291Y295118D02*
D03*
X721307D02*
D03*
X835480Y283307D02*
D03*
X733118D02*
D03*
X827606Y413228D02*
D03*
X851228Y389606D02*
D03*
Y302992D02*
D03*
X740992Y279370D02*
D03*
X831543Y409291D02*
D03*
X847291Y393543D02*
D03*
X721307D02*
D03*
X847291Y299055D02*
D03*
X831543Y283307D02*
D03*
X737055D02*
D03*
X733118Y405354D02*
D03*
X843354Y295118D02*
D03*
X725244D02*
D03*
X835480Y287244D02*
D03*
X733118D02*
D03*
X823669Y413228D02*
D03*
X851228Y306929D02*
D03*
X827606Y409291D02*
D03*
X847291Y389606D02*
D03*
X721307D02*
D03*
X847291Y302992D02*
D03*
X721307D02*
D03*
X827606Y283307D02*
D03*
X740992D02*
D03*
X819732Y413228D02*
D03*
X748866D02*
D03*
X851228Y310866D02*
D03*
X717370D02*
D03*
X819732Y279370D02*
D03*
X748866D02*
D03*
X831543Y405354D02*
D03*
X725244Y393543D02*
D03*
X843354Y299055D02*
D03*
X725244D02*
D03*
X831543Y287244D02*
D03*
X737055D02*
D03*
X733118Y291181D02*
D03*
X815795Y413228D02*
D03*
X752803D02*
D03*
X717370Y377795D02*
D03*
X851228Y314803D02*
D03*
X815795Y279370D02*
D03*
X827606Y405354D02*
D03*
X843354Y389606D02*
D03*
X725244D02*
D03*
X843354Y302992D02*
D03*
X827606Y287244D02*
D03*
X740992D02*
D03*
X811858Y413228D02*
D03*
X831543Y401417D02*
D03*
X851228Y373858D02*
D03*
X717370D02*
D03*
X851228Y318740D02*
D03*
X831543Y291181D02*
D03*
X737055D02*
D03*
X756740Y279370D02*
D03*
X819732Y409291D02*
D03*
X847291Y310866D02*
D03*
X721307D02*
D03*
X819732Y283307D02*
D03*
X748866D02*
D03*
X807921Y413228D02*
D03*
X851228Y369921D02*
D03*
X717370D02*
D03*
X851228Y322677D02*
D03*
X717370D02*
D03*
X807921Y279370D02*
D03*
X823669Y405354D02*
D03*
X843354Y385669D02*
D03*
X725244D02*
D03*
X843354Y306929D02*
D03*
X823669Y287244D02*
D03*
X744929D02*
D03*
X815795Y409291D02*
D03*
X847291Y377795D02*
D03*
X721307D02*
D03*
X847291Y314803D02*
D03*
X815795Y283307D02*
D03*
X752803D02*
D03*
X827606Y401417D02*
D03*
X839417Y389606D02*
D03*
X729181D02*
D03*
X851228Y365984D02*
D03*
X717370D02*
D03*
X851228Y326614D02*
D03*
X717370D02*
D03*
X839417Y302992D02*
D03*
X827606Y291181D02*
D03*
X740992D02*
D03*
X803984Y279370D02*
D03*
X831543Y397480D02*
D03*
X737055D02*
D03*
X835480Y393543D02*
D03*
X733118D02*
D03*
X835480Y299055D02*
D03*
X733118D02*
D03*
X831543Y295118D02*
D03*
X737055D02*
D03*
X851228Y362047D02*
D03*
X717370D02*
D03*
X851228Y330551D02*
D03*
X717370D02*
D03*
X800047Y279370D02*
D03*
X811858Y409291D02*
D03*
X819732Y405354D02*
D03*
X847291Y373858D02*
D03*
X721307D02*
D03*
X847291Y318740D02*
D03*
X843354Y310866D02*
D03*
X725244D02*
D03*
X819732Y287244D02*
D03*
X811858Y283307D02*
D03*
X756740D02*
D03*
X851228Y358110D02*
D03*
X717370D02*
D03*
X851228Y334488D02*
D03*
X717370D02*
D03*
X796110Y279370D02*
D03*
X792173Y413228D02*
D03*
X776425D02*
D03*
X851228Y354173D02*
D03*
X717370D02*
D03*
X851228Y338425D02*
D03*
X717370D02*
D03*
X792173Y279370D02*
D03*
X776425D02*
D03*
X788236Y413228D02*
D03*
X780362D02*
D03*
X823669Y401417D02*
D03*
X839417Y385669D02*
D03*
X729181D02*
D03*
X851228Y350236D02*
D03*
X717370D02*
D03*
X851228Y342362D02*
D03*
X717370D02*
D03*
X839417Y306929D02*
D03*
X729181D02*
D03*
X823669Y291181D02*
D03*
X744929D02*
D03*
X788236Y279370D02*
D03*
X780362D02*
D03*
X807921Y409291D02*
D03*
X760677D02*
D03*
X847291Y369921D02*
D03*
X721307D02*
D03*
X847291Y322677D02*
D03*
X721307D02*
D03*
X807921Y283307D02*
D03*
X760677D02*
D03*
X815795Y405354D02*
D03*
X827606Y397480D02*
D03*
X740992D02*
D03*
X835480Y389606D02*
D03*
X733118D02*
D03*
X843354Y377795D02*
D03*
X725244D02*
D03*
X843354Y314803D02*
D03*
X725244D02*
D03*
X835480Y302992D02*
D03*
X733118D02*
D03*
X827606Y295118D02*
D03*
X740992D02*
D03*
X815795Y287244D02*
D03*
X752803D02*
D03*
X803984Y409291D02*
D03*
X847291Y365984D02*
D03*
X721307D02*
D03*
X847291Y326614D02*
D03*
X721307D02*
D03*
X803984Y283307D02*
D03*
X764614D02*
D03*
X819732Y401417D02*
D03*
X839417Y310866D02*
D03*
X729181D02*
D03*
X819732Y291181D02*
D03*
X748866D02*
D03*
X811858Y405354D02*
D03*
X725244Y373858D02*
D03*
X847291Y362047D02*
D03*
X721307D02*
D03*
X847291Y330551D02*
D03*
X721307D02*
D03*
X843354Y318740D02*
D03*
X811858Y287244D02*
D03*
X756740D02*
D03*
X800047Y283307D02*
D03*
X847291Y358110D02*
D03*
X721307D02*
D03*
X847291Y334488D02*
D03*
X721307D02*
D03*
X796110Y283307D02*
D03*
X788236Y409291D02*
D03*
X780362D02*
D03*
X807921Y405354D02*
D03*
X725244Y369921D02*
D03*
X847291Y350236D02*
D03*
X721307D02*
D03*
X847291Y342362D02*
D03*
X721307D02*
D03*
X843354Y322677D02*
D03*
X725244D02*
D03*
X807921Y287244D02*
D03*
X760677D02*
D03*
X788236Y283307D02*
D03*
X780362D02*
D03*
X815795Y401417D02*
D03*
X752803D02*
D03*
X839417Y377795D02*
D03*
X729181D02*
D03*
X839417Y314803D02*
D03*
X729181D02*
D03*
X803984Y405354D02*
D03*
X843354Y365984D02*
D03*
X725244D02*
D03*
X843354Y326614D02*
D03*
X725244D02*
D03*
X803984Y287244D02*
D03*
X764614D02*
D03*
X819732Y397480D02*
D03*
X748866D02*
D03*
X835480Y381732D02*
D03*
X733118D02*
D03*
X835480Y310866D02*
D03*
X733118D02*
D03*
X819732Y295118D02*
D03*
X748866D02*
D03*
X811858Y401417D02*
D03*
X839417Y373858D02*
D03*
X729181D02*
D03*
X839417Y318740D02*
D03*
X729181D02*
D03*
X756740Y291181D02*
D03*
X800047Y405354D02*
D03*
X843354Y362047D02*
D03*
X725244D02*
D03*
X843354Y330551D02*
D03*
X725244D02*
D03*
X800047Y287244D02*
D03*
X843354Y358110D02*
D03*
X725244D02*
D03*
X843354Y334488D02*
D03*
X725244D02*
D03*
X796110Y287244D02*
D03*
X807921Y401417D02*
D03*
X729181Y369921D02*
D03*
X839417Y322677D02*
D03*
X729181D02*
D03*
X807921Y291181D02*
D03*
X792173Y405354D02*
D03*
X776425D02*
D03*
X843354Y354173D02*
D03*
X725244D02*
D03*
X843354Y338425D02*
D03*
X725244D02*
D03*
X792173Y287244D02*
D03*
X776425D02*
D03*
X788236Y405354D02*
D03*
X780362D02*
D03*
X843354Y350236D02*
D03*
X725244D02*
D03*
X843354Y342362D02*
D03*
X725244D02*
D03*
X788236Y287244D02*
D03*
X780362D02*
D03*
X803984Y401417D02*
D03*
X839417Y365984D02*
D03*
X729181D02*
D03*
X839417Y326614D02*
D03*
X729181D02*
D03*
X803984Y291181D02*
D03*
X811858Y397480D02*
D03*
X756740D02*
D03*
X835480Y373858D02*
D03*
X733118D02*
D03*
X835480Y318740D02*
D03*
X733118D02*
D03*
X811858Y295118D02*
D03*
X756740D02*
D03*
X839417Y362047D02*
D03*
X729181D02*
D03*
X839417Y330551D02*
D03*
X729181D02*
D03*
X800047Y291181D02*
D03*
X839417Y358110D02*
D03*
X729181D02*
D03*
X839417Y334488D02*
D03*
X729181D02*
D03*
X796110Y291181D02*
D03*
X807921Y397480D02*
D03*
X760677D02*
D03*
X835480Y369921D02*
D03*
X733118D02*
D03*
X835480Y322677D02*
D03*
X733118D02*
D03*
X807921Y295118D02*
D03*
X760677D02*
D03*
X792173Y401417D02*
D03*
X839417Y354173D02*
D03*
X729181D02*
D03*
X839417Y338425D02*
D03*
X729181D02*
D03*
X792173Y291181D02*
D03*
X776425D02*
D03*
X788236Y401417D02*
D03*
X780362D02*
D03*
X839417Y350236D02*
D03*
X729181D02*
D03*
X839417Y342362D02*
D03*
X729181D02*
D03*
X788236Y291181D02*
D03*
X780362D02*
D03*
X803984Y397480D02*
D03*
X764614D02*
D03*
X835480Y365984D02*
D03*
X733118D02*
D03*
X835480Y326614D02*
D03*
X733118D02*
D03*
X803984Y295118D02*
D03*
X764614D02*
D03*
X800047Y397480D02*
D03*
X835480Y362047D02*
D03*
X733118D02*
D03*
X835480Y330551D02*
D03*
X733118D02*
D03*
X796110Y397480D02*
D03*
X835480Y358110D02*
D03*
X733118D02*
D03*
X835480Y334488D02*
D03*
X733118D02*
D03*
X796110Y295118D02*
D03*
X780362Y397480D02*
D03*
X835480Y350236D02*
D03*
X733118Y342362D02*
D03*
X788236Y295118D02*
D03*
X800047Y365984D02*
D03*
X803984Y362047D02*
D03*
X764614D02*
D03*
X803984Y330551D02*
D03*
X764614D02*
D03*
X800047Y326614D02*
D03*
X792173Y365984D02*
D03*
X803984Y354173D02*
D03*
X764614D02*
D03*
X803984Y338425D02*
D03*
X764614D02*
D03*
X792173Y326614D02*
D03*
Y362047D02*
D03*
X800047Y354173D02*
D03*
Y338425D02*
D03*
X792173Y330551D02*
D03*
X728347Y194882D02*
D03*
Y163386D02*
D03*
X704724D02*
D03*
X708661Y194882D02*
D03*
X700787Y187008D02*
D03*
Y171260D02*
D03*
X724410Y163386D02*
D03*
X708661D02*
D03*
X728347Y190945D02*
D03*
X704724D02*
D03*
X700787Y183071D02*
D03*
Y175197D02*
D03*
X728347Y167323D02*
D03*
X704724D02*
D03*
X720473Y163386D02*
D03*
X724410Y190945D02*
D03*
X708661D02*
D03*
X728347Y187008D02*
D03*
X704724D02*
D03*
X728347Y171260D02*
D03*
X704724D02*
D03*
X724410Y167323D02*
D03*
X708661D02*
D03*
X720473Y190945D02*
D03*
X712598D02*
D03*
X728347Y183071D02*
D03*
X704724D02*
D03*
X728347Y175197D02*
D03*
X704724D02*
D03*
X720473Y167323D02*
D03*
X712598D02*
D03*
X724410Y187008D02*
D03*
X708661D02*
D03*
X724410Y171260D02*
D03*
X708661D02*
D03*
X720473Y187008D02*
D03*
X712598D02*
D03*
X724410Y183071D02*
D03*
X708661D02*
D03*
X724410Y175197D02*
D03*
X708661D02*
D03*
X720473Y171260D02*
D03*
X712598D02*
D03*
X720473Y183071D02*
D03*
X712598D02*
D03*
X720473Y175197D02*
D03*
X712598D02*
D03*
X1043307Y852362D02*
D03*
X1039370D02*
D03*
X1035433D02*
D03*
X1031496D02*
D03*
X1023622D02*
D03*
X1019685D02*
D03*
X1011811D02*
D03*
X1015748D02*
D03*
Y848425D02*
D03*
X1031496D02*
D03*
X1035433D02*
D03*
X1039370D02*
D03*
X1043307D02*
D03*
Y844488D02*
D03*
X1039370D02*
D03*
X1035433D02*
D03*
X1011811D02*
D03*
Y848425D02*
D03*
X1007874D02*
D03*
Y844488D02*
D03*
X1011811Y840551D02*
D03*
X1015748D02*
D03*
X1035433D02*
D03*
X1039370Y836614D02*
D03*
X1007874Y805118D02*
D03*
X1011811D02*
D03*
X1015748Y832677D02*
D03*
X1011811D02*
D03*
X1007874D02*
D03*
Y836614D02*
D03*
X1011811D02*
D03*
X1019685Y812992D02*
D03*
X1015748Y824803D02*
D03*
Y820866D02*
D03*
Y816929D02*
D03*
X1011811D02*
D03*
Y820866D02*
D03*
Y824803D02*
D03*
X1007874Y820866D02*
D03*
Y816929D02*
D03*
Y812992D02*
D03*
Y824803D02*
D03*
X1011811Y809055D02*
D03*
X1007874D02*
D03*
X1015748Y812992D02*
D03*
X1011811D02*
D03*
X1019685Y809055D02*
D03*
X1015748D02*
D03*
X1019685Y805118D02*
D03*
X1015748D02*
D03*
X1023622Y809055D02*
D03*
Y805118D02*
D03*
X1035433Y832677D02*
D03*
X1039370D02*
D03*
X1035433Y812992D02*
D03*
X1039370D02*
D03*
X1035433Y816929D02*
D03*
X1039370Y820866D02*
D03*
X1035433D02*
D03*
Y824803D02*
D03*
X1043307D02*
D03*
Y820866D02*
D03*
Y812992D02*
D03*
Y805118D02*
D03*
Y809055D02*
D03*
X1039370D02*
D03*
X1035433D02*
D03*
Y805118D02*
D03*
X1039370D02*
D03*
X1031496Y809055D02*
D03*
Y805118D02*
D03*
X940945D02*
D03*
Y809055D02*
D03*
X948819Y805118D02*
D03*
X944882D02*
D03*
Y809055D02*
D03*
X948819D02*
D03*
X952756D02*
D03*
Y805118D02*
D03*
Y812992D02*
D03*
Y816929D02*
D03*
Y820866D02*
D03*
Y824803D02*
D03*
X948819D02*
D03*
X944882D02*
D03*
Y820866D02*
D03*
X948819D02*
D03*
Y816929D02*
D03*
X944882D02*
D03*
X948819Y812992D02*
D03*
X944882D02*
D03*
X940945D02*
D03*
X952756Y832677D02*
D03*
X948819D02*
D03*
X944882D02*
D03*
X952756Y836614D02*
D03*
X933071Y805118D02*
D03*
Y809055D02*
D03*
X929134Y805118D02*
D03*
X925197Y809055D02*
D03*
X929134D02*
D03*
X921260Y812992D02*
D03*
X925197D02*
D03*
X917323Y809055D02*
D03*
X921260D02*
D03*
X917323Y824803D02*
D03*
Y816929D02*
D03*
Y820866D02*
D03*
X921260Y824803D02*
D03*
Y820866D02*
D03*
Y816929D02*
D03*
X925197D02*
D03*
Y820866D02*
D03*
Y824803D02*
D03*
X929134Y812992D02*
D03*
X933071D02*
D03*
X921260Y836614D02*
D03*
X917323D02*
D03*
Y832677D02*
D03*
X921260D02*
D03*
X925197D02*
D03*
X917323Y805118D02*
D03*
X952756Y840551D02*
D03*
X948819Y836614D02*
D03*
Y840551D02*
D03*
X944882D02*
D03*
Y836614D02*
D03*
X925197Y840551D02*
D03*
X921260D02*
D03*
X917323D02*
D03*
Y844488D02*
D03*
Y848425D02*
D03*
X921260D02*
D03*
Y844488D02*
D03*
X925197D02*
D03*
X944882D02*
D03*
X948819D02*
D03*
X952756D02*
D03*
Y848425D02*
D03*
X948819D02*
D03*
X940945D02*
D03*
X925197D02*
D03*
Y852362D02*
D03*
X921260D02*
D03*
X929134D02*
D03*
X933071D02*
D03*
X940945D02*
D03*
X944882D02*
D03*
X948819D02*
D03*
X933071Y856299D02*
D03*
X776425Y330551D02*
D03*
Y362047D02*
D03*
Y326614D02*
D03*
X46299Y329799D02*
D03*
X26299Y362299D02*
D03*
X179476Y568898D02*
D03*
X202008D02*
D03*
X204764D02*
D03*
X212008D02*
D03*
X227008D02*
D03*
X229764D02*
D03*
X318508D02*
D03*
X321264D02*
D03*
X206899Y461031D02*
D03*
X196699Y421299D02*
D03*
X194499Y451431D02*
D03*
X216699Y444799D02*
D03*
Y440799D02*
D03*
X189580Y529099D02*
D03*
X186980D02*
D03*
X214776D02*
D03*
X222257D02*
D03*
X229737D02*
D03*
X237217D02*
D03*
X557724Y529296D02*
D03*
X318504Y529099D02*
D03*
X321104D02*
D03*
X311024D02*
D03*
X313624D02*
D03*
X303543D02*
D03*
X306143D02*
D03*
X296063D02*
D03*
X298663D02*
D03*
X286220D02*
D03*
X288820D02*
D03*
X278740D02*
D03*
X281340D02*
D03*
X271266D02*
D03*
X273866D02*
D03*
X266386D02*
D03*
X263786D02*
D03*
X194508Y568898D02*
D03*
X197264D02*
D03*
X214764D02*
D03*
X219508D02*
D03*
X222264D02*
D03*
X234508D02*
D03*
X237264D02*
D03*
X263508D02*
D03*
X266264D02*
D03*
X311008D02*
D03*
X313764D02*
D03*
X303508D02*
D03*
X306264D02*
D03*
X296008D02*
D03*
X298764D02*
D03*
X288764D02*
D03*
X286008D02*
D03*
X281264D02*
D03*
X278508D02*
D03*
X273764D02*
D03*
X271008D02*
D03*
X182216D02*
D03*
X187008D02*
D03*
X189764D02*
D03*
X547699Y570699D02*
D03*
Y567499D02*
D03*
X555199Y570699D02*
D03*
X562699D02*
D03*
X570199Y567499D02*
D03*
Y570699D02*
D03*
X654199D02*
D03*
Y567499D02*
D03*
X646699Y570699D02*
D03*
Y567499D02*
D03*
X639199Y570699D02*
D03*
Y567499D02*
D03*
X631699D02*
D03*
Y570699D02*
D03*
X686699D02*
D03*
Y567499D02*
D03*
X679199Y570699D02*
D03*
Y567499D02*
D03*
X671699Y570699D02*
D03*
Y567499D02*
D03*
X664199D02*
D03*
Y570699D02*
D03*
X550244Y529296D02*
D03*
X555124D02*
D03*
X555199Y567499D02*
D03*
X562699D02*
D03*
X580199Y570699D02*
D03*
Y567499D02*
D03*
X587699D02*
D03*
Y570699D02*
D03*
X595199Y567499D02*
D03*
Y570699D02*
D03*
X602699Y567499D02*
D03*
Y570699D02*
D03*
X950189Y865899D02*
D03*
X947449D02*
D03*
X939575D02*
D03*
X942315D02*
D03*
X930504D02*
D03*
X919890D02*
D03*
X922630D02*
D03*
X1023622Y856299D02*
D03*
X1010441Y865899D02*
D03*
X1013181D02*
D03*
X1018315D02*
D03*
X1021055D02*
D03*
X1030126D02*
D03*
X1032866D02*
D03*
X1040740D02*
D03*
X929330Y875299D02*
D03*
X940930D02*
D03*
X948930D02*
D03*
X1039630Y875799D02*
D03*
X1031630Y875599D02*
D03*
X1019830D02*
D03*
X1011830D02*
D03*
X921330Y875299D02*
D03*
X1038000Y865899D02*
D03*
X927764D02*
D03*
X587008Y313923D02*
D03*
X605400Y318724D02*
D03*
X577727Y290306D02*
D03*
X588464D02*
D03*
X597781Y283071D02*
D03*
X601213Y306331D02*
D03*
X600787Y311811D02*
D03*
X621260Y314961D02*
D03*
X620470Y280707D02*
D03*
X596457Y340551D02*
D03*
X592520D02*
D03*
X596457Y344488D02*
D03*
X604331Y340551D02*
D03*
Y383858D02*
D03*
X539324Y392126D02*
D03*
X886315Y287256D02*
D03*
X789899Y458441D02*
D03*
X804699D02*
D03*
X799699D02*
D03*
X794699D02*
D03*
X864699Y507132D02*
D03*
X563783Y529299D02*
D03*
Y526899D02*
D03*
X571263Y529299D02*
D03*
Y526899D02*
D03*
X669699Y446899D02*
D03*
X617499Y446699D02*
D03*
X670499Y469799D02*
D03*
X600000Y271260D02*
D03*
X595038D02*
D03*
X548819Y222047D02*
D03*
X589699Y201099D02*
D03*
X606899D02*
D03*
X627668Y192299D02*
D03*
X616734D02*
D03*
X582299Y120099D02*
D03*
X594299Y116099D02*
D03*
X635699Y110299D02*
D03*
X637099Y113499D02*
D03*
X634699Y105099D02*
D03*
X606299D02*
D03*
X612299Y117099D02*
D03*
X619499Y118699D02*
D03*
X639499Y172699D02*
D03*
X641999D02*
D03*
X644499D02*
D03*
X646999D02*
D03*
X637006Y140550D02*
D03*
X639499Y140599D02*
D03*
X641854Y140945D02*
D03*
X678430Y196039D02*
D03*
Y192299D02*
D03*
X662568Y196039D02*
D03*
X662289Y188642D02*
D03*
X678430Y188559D02*
D03*
X717668Y144799D02*
D03*
X706931D02*
D03*
X364095Y406399D02*
D03*
X387795Y391732D02*
D03*
X395669D02*
D03*
X314499Y381099D02*
D03*
X324725Y406399D02*
D03*
Y408799D02*
D03*
X360236Y383858D02*
D03*
X391732Y387795D02*
D03*
X372047Y391732D02*
D03*
X379921Y387795D02*
D03*
X356299Y379921D02*
D03*
X360236D02*
D03*
X387795Y387795D02*
D03*
X423306Y406399D02*
D03*
X470550D02*
D03*
X478424Y408799D02*
D03*
X332599Y406399D02*
D03*
X508799Y366331D02*
D03*
X450787Y383858D02*
D03*
X442913Y379921D02*
D03*
Y383858D02*
D03*
X438976Y379921D02*
D03*
X435039D02*
D03*
Y383858D02*
D03*
X427165Y379921D02*
D03*
Y383858D02*
D03*
X419291Y379921D02*
D03*
Y383858D02*
D03*
X411417Y379921D02*
D03*
Y383858D02*
D03*
X399606Y379921D02*
D03*
Y383858D02*
D03*
X391732Y379921D02*
D03*
Y383858D02*
D03*
X383858Y379921D02*
D03*
Y383858D02*
D03*
X395669Y387795D02*
D03*
X403543D02*
D03*
X411417D02*
D03*
X415354D02*
D03*
X419291D02*
D03*
X423228D02*
D03*
X431102D02*
D03*
X435039D02*
D03*
X438976D02*
D03*
X442913D02*
D03*
X446850D02*
D03*
X450787D02*
D03*
X482284D02*
D03*
X454724Y391732D02*
D03*
X446850D02*
D03*
X438976D02*
D03*
X431102D02*
D03*
X423228D02*
D03*
X415354D02*
D03*
X403543D02*
D03*
X486221Y379921D02*
D03*
X317317Y389083D02*
D03*
X317299Y386699D02*
D03*
X332599Y408799D02*
D03*
X340473Y406399D02*
D03*
Y408799D02*
D03*
X371969Y406399D02*
D03*
Y408799D02*
D03*
X379843Y406399D02*
D03*
Y408799D02*
D03*
X387717Y406399D02*
D03*
Y408799D02*
D03*
X395591D02*
D03*
X415432Y406399D02*
D03*
Y408799D02*
D03*
X423306D02*
D03*
X431180Y406399D02*
D03*
Y408799D02*
D03*
X439054Y406399D02*
D03*
Y408799D02*
D03*
X446928Y406399D02*
D03*
Y408799D02*
D03*
X454802Y406399D02*
D03*
Y408799D02*
D03*
X462676Y406399D02*
D03*
Y408799D02*
D03*
X470550D02*
D03*
X478424Y406399D02*
D03*
X364099Y409199D02*
D03*
X356221Y408799D02*
D03*
X348347D02*
D03*
Y406399D02*
D03*
X375984Y383858D02*
D03*
X344488D02*
D03*
X336614D02*
D03*
X344488Y387795D02*
D03*
X352362Y379921D02*
D03*
Y383858D02*
D03*
X348425Y391732D02*
D03*
X356299Y387795D02*
D03*
X356221Y406399D02*
D03*
X395591D02*
D03*
X399969Y387799D02*
D03*
X368110Y379921D02*
D03*
X372047Y387795D02*
D03*
X375984Y379921D02*
D03*
X368110Y383858D02*
D03*
X375984Y387795D02*
D03*
X379921Y391732D02*
D03*
X368110Y387795D02*
D03*
X364173D02*
D03*
Y391732D02*
D03*
X360236Y387795D02*
D03*
X356299Y391732D02*
D03*
X352362Y387795D02*
D03*
X348425D02*
D03*
X328740D02*
D03*
X344488Y379921D02*
D03*
X340551D02*
D03*
X336614D02*
D03*
X328740D02*
D03*
Y383858D02*
D03*
X332677Y387795D02*
D03*
X336614D02*
D03*
X340551D02*
D03*
X332677Y391732D02*
D03*
X340551D02*
D03*
X407341Y222229D02*
D03*
X411328Y241972D02*
D03*
X419202Y257720D02*
D03*
X423139Y241972D02*
D03*
X462509Y238035D02*
D03*
X446761Y222287D02*
D03*
X450698D02*
D03*
X493217Y275437D02*
D03*
X500304Y269531D02*
D03*
X502666Y291972D02*
D03*
X499910D02*
D03*
X493217Y279374D02*
D03*
X501879Y265594D02*
D03*
X493611Y287248D02*
D03*
X501879Y257720D02*
D03*
X495783Y283446D02*
D03*
X495973Y287248D02*
D03*
X419202Y222287D02*
D03*
X423139D02*
D03*
X427076D02*
D03*
X431013D02*
D03*
X466446D02*
D03*
X425107Y228193D02*
D03*
X429044D02*
D03*
X432981D02*
D03*
X436918D02*
D03*
X444792D02*
D03*
X448729D02*
D03*
X452666D02*
D03*
X456603D02*
D03*
X464477D02*
D03*
X468414D02*
D03*
X472351D02*
D03*
X476288D02*
D03*
X478226Y222240D02*
D03*
X501926Y238066D02*
D03*
X492036Y236067D02*
D03*
X495973Y240004D02*
D03*
Y243941D02*
D03*
Y247878D02*
D03*
X501926Y249877D02*
D03*
X501879Y253783D02*
D03*
X495973Y255752D02*
D03*
Y259689D02*
D03*
Y263626D02*
D03*
Y267563D02*
D03*
Y275437D02*
D03*
Y279374D02*
D03*
X411328Y364020D02*
D03*
X478257Y356146D02*
D03*
Y352209D02*
D03*
Y340398D02*
D03*
X470383Y356146D02*
D03*
X462509D02*
D03*
X454635Y364020D02*
D03*
X446761D02*
D03*
Y360083D02*
D03*
X438887Y364020D02*
D03*
X431013D02*
D03*
X434950D02*
D03*
X419202D02*
D03*
X399516D02*
D03*
X474320Y356146D02*
D03*
Y352209D02*
D03*
X466446Y356146D02*
D03*
Y352209D02*
D03*
X458572Y360083D02*
D03*
Y356146D02*
D03*
Y352209D02*
D03*
X454635Y356146D02*
D03*
X442824Y364020D02*
D03*
X450698Y360083D02*
D03*
Y356146D02*
D03*
X495973Y312445D02*
D03*
X470383Y348272D02*
D03*
X490668Y310870D02*
D03*
X495973Y302996D02*
D03*
Y295122D02*
D03*
X501879Y297090D02*
D03*
X495973Y299059D02*
D03*
X501879Y304965D02*
D03*
Y308902D02*
D03*
Y314807D02*
D03*
Y318744D02*
D03*
Y322681D02*
D03*
Y326618D02*
D03*
Y334492D02*
D03*
Y338429D02*
D03*
Y342366D02*
D03*
X495899Y328661D02*
D03*
Y332598D02*
D03*
Y336535D02*
D03*
Y340472D02*
D03*
X501879Y346303D02*
D03*
X495973Y348272D02*
D03*
X320776Y356146D02*
D03*
Y348272D02*
D03*
X317309Y370846D02*
D03*
X478257Y324650D02*
D03*
Y301027D02*
D03*
Y297090D02*
D03*
X482194D02*
D03*
Y293153D02*
D03*
X478257D02*
D03*
Y289216D02*
D03*
X482194D02*
D03*
Y285279D02*
D03*
X478257Y281342D02*
D03*
X482194D02*
D03*
X478257Y277405D02*
D03*
X482194D02*
D03*
X478257Y273468D02*
D03*
Y269531D02*
D03*
X482194D02*
D03*
X478257Y265594D02*
D03*
X482194D02*
D03*
X478257Y261657D02*
D03*
X482194D02*
D03*
Y257720D02*
D03*
X478257D02*
D03*
Y253783D02*
D03*
X482194D02*
D03*
Y249846D02*
D03*
X478257D02*
D03*
Y241972D02*
D03*
X482194D02*
D03*
X474320D02*
D03*
X470383D02*
D03*
X462509D02*
D03*
X458572D02*
D03*
X454635D02*
D03*
X450698D02*
D03*
X446761D02*
D03*
X442824D02*
D03*
X438887D02*
D03*
X434950D02*
D03*
X431013D02*
D03*
X419202D02*
D03*
X332587Y324650D02*
D03*
X486131Y281342D02*
D03*
Y241972D02*
D03*
X474320Y238035D02*
D03*
X434950D02*
D03*
X328650Y320713D02*
D03*
X482194Y238035D02*
D03*
X470383D02*
D03*
X458572D02*
D03*
X442824D02*
D03*
X438887D02*
D03*
X450698Y371894D02*
D03*
X336524Y352209D02*
D03*
X340461Y348272D02*
D03*
X344398Y336461D02*
D03*
X336524Y332524D02*
D03*
X344398D02*
D03*
X348335D02*
D03*
X352272D02*
D03*
X356209D02*
D03*
X364083D02*
D03*
X368020Y328587D02*
D03*
X364083D02*
D03*
X360146D02*
D03*
X352272D02*
D03*
X348335D02*
D03*
X344398D02*
D03*
X340461D02*
D03*
X336524D02*
D03*
Y324650D02*
D03*
X340461D02*
D03*
X348335D02*
D03*
X352272D02*
D03*
X356209D02*
D03*
X360146D02*
D03*
X364083D02*
D03*
X368020D02*
D03*
Y320713D02*
D03*
X364083D02*
D03*
X360146D02*
D03*
X356209D02*
D03*
X352272D02*
D03*
X348335D02*
D03*
X344398D02*
D03*
X340461D02*
D03*
X336524D02*
D03*
X395579Y360083D02*
D03*
X403453D02*
D03*
X399516Y356146D02*
D03*
X395579Y352209D02*
D03*
X403453D02*
D03*
X399516Y348272D02*
D03*
X395579Y344335D02*
D03*
X403453D02*
D03*
X399516Y340398D02*
D03*
X395579Y336461D02*
D03*
X403453D02*
D03*
X399516Y332524D02*
D03*
X371957Y328587D02*
D03*
X387705D02*
D03*
X395579D02*
D03*
X403453D02*
D03*
X399516Y324650D02*
D03*
X391642D02*
D03*
X375894D02*
D03*
X371957D02*
D03*
X375894Y320713D02*
D03*
X387705D02*
D03*
X395579D02*
D03*
X399516D02*
D03*
X415265Y360083D02*
D03*
X423139D02*
D03*
X434950D02*
D03*
X442824D02*
D03*
X434950Y356146D02*
D03*
X427076D02*
D03*
X419202D02*
D03*
X411328D02*
D03*
X415265Y352209D02*
D03*
X423139D02*
D03*
X431013D02*
D03*
X438887D02*
D03*
X442824D02*
D03*
Y348272D02*
D03*
X438887D02*
D03*
X434950D02*
D03*
X427076D02*
D03*
X419202D02*
D03*
X411328D02*
D03*
X415265Y344335D02*
D03*
X423139D02*
D03*
X431013D02*
D03*
X438887D02*
D03*
X442824D02*
D03*
Y340398D02*
D03*
X438887D02*
D03*
X427076D02*
D03*
X419202D02*
D03*
X411328D02*
D03*
X415265Y336461D02*
D03*
X423139D02*
D03*
X431013D02*
D03*
X438887D02*
D03*
X442824D02*
D03*
Y332524D02*
D03*
X438887D02*
D03*
X434950D02*
D03*
X427076D02*
D03*
X419202D02*
D03*
X411328D02*
D03*
X415265Y328587D02*
D03*
X423139D02*
D03*
X431013D02*
D03*
X442824D02*
D03*
Y324650D02*
D03*
X438887D02*
D03*
X434950D02*
D03*
X427076D02*
D03*
X419202D02*
D03*
X411328D02*
D03*
X423139Y320713D02*
D03*
X431013D02*
D03*
X434950D02*
D03*
X438887D02*
D03*
X442824D02*
D03*
X438887Y312838D02*
D03*
X434950D02*
D03*
X427076D02*
D03*
X419202D02*
D03*
X423139Y308901D02*
D03*
X431013D02*
D03*
X434950D02*
D03*
X438887D02*
D03*
X442824D02*
D03*
Y304964D02*
D03*
X438887D02*
D03*
X434950D02*
D03*
X427076D02*
D03*
X419202D02*
D03*
X423139Y301027D02*
D03*
X431013D02*
D03*
X434950D02*
D03*
X438887D02*
D03*
X442824D02*
D03*
X427076Y297090D02*
D03*
X419202D02*
D03*
X434950Y293153D02*
D03*
X438887D02*
D03*
X442824D02*
D03*
Y289216D02*
D03*
X438887D02*
D03*
X434950D02*
D03*
X431013D02*
D03*
X419202D02*
D03*
Y285279D02*
D03*
X423139D02*
D03*
X431013D02*
D03*
X434950D02*
D03*
X442824D02*
D03*
Y281342D02*
D03*
X438887D02*
D03*
X434950D02*
D03*
X431013D02*
D03*
X423139D02*
D03*
X419202D02*
D03*
Y277405D02*
D03*
X423139D02*
D03*
X427076D02*
D03*
X431013D02*
D03*
X434950D02*
D03*
X438887D02*
D03*
X442824D02*
D03*
X438887Y273468D02*
D03*
X434950D02*
D03*
X431013D02*
D03*
X427076D02*
D03*
X423139D02*
D03*
X419202D02*
D03*
Y269531D02*
D03*
X423139D02*
D03*
X427076D02*
D03*
X434950D02*
D03*
X438887D02*
D03*
X442824D02*
D03*
Y265594D02*
D03*
X438887D02*
D03*
X434950D02*
D03*
X431013D02*
D03*
X427076D02*
D03*
X423139D02*
D03*
X419202Y261657D02*
D03*
X423139D02*
D03*
X427076D02*
D03*
X431013D02*
D03*
X434950D02*
D03*
X442824D02*
D03*
Y257720D02*
D03*
X431013D02*
D03*
X427076D02*
D03*
X423139D02*
D03*
X419202Y253783D02*
D03*
X427076D02*
D03*
X431013D02*
D03*
X434950D02*
D03*
X438887D02*
D03*
X442824D02*
D03*
Y249846D02*
D03*
X438887D02*
D03*
X434950D02*
D03*
X431013D02*
D03*
X427076D02*
D03*
X423139D02*
D03*
X419202D02*
D03*
Y245909D02*
D03*
X423139D02*
D03*
X427076D02*
D03*
X431013D02*
D03*
X434950D02*
D03*
X442824D02*
D03*
X450698D02*
D03*
X446761D02*
D03*
X454635D02*
D03*
X458572D02*
D03*
X462509D02*
D03*
X466446D02*
D03*
X470383D02*
D03*
X474320D02*
D03*
Y249846D02*
D03*
X470383D02*
D03*
X466446D02*
D03*
X462509D02*
D03*
X458572D02*
D03*
X454635D02*
D03*
X450698Y253783D02*
D03*
X458572D02*
D03*
X466446D02*
D03*
X470383D02*
D03*
X474320D02*
D03*
X470383Y257720D02*
D03*
X466446D02*
D03*
X462509D02*
D03*
X458572D02*
D03*
X454635D02*
D03*
X450698D02*
D03*
Y261657D02*
D03*
X454635D02*
D03*
X458572D02*
D03*
X462509D02*
D03*
X466446D02*
D03*
X470383D02*
D03*
X474320D02*
D03*
Y265594D02*
D03*
X470383D02*
D03*
X466446D02*
D03*
X462509D02*
D03*
X454635D02*
D03*
X450698D02*
D03*
Y269531D02*
D03*
X454635D02*
D03*
X458572D02*
D03*
X462509D02*
D03*
X466446D02*
D03*
X474320D02*
D03*
Y273468D02*
D03*
X470383D02*
D03*
X466446D02*
D03*
X462509D02*
D03*
X458572D02*
D03*
X454635D02*
D03*
X450698D02*
D03*
Y277405D02*
D03*
X458572D02*
D03*
X462509D02*
D03*
X466446D02*
D03*
X470383D02*
D03*
X474320D02*
D03*
Y281342D02*
D03*
X470383D02*
D03*
X458572D02*
D03*
X454635D02*
D03*
X450698D02*
D03*
X446761D02*
D03*
Y277405D02*
D03*
Y273468D02*
D03*
Y269531D02*
D03*
Y265594D02*
D03*
Y257720D02*
D03*
Y253783D02*
D03*
Y249846D02*
D03*
Y285279D02*
D03*
X450698D02*
D03*
X454635D02*
D03*
X458572D02*
D03*
X462509D02*
D03*
X466446D02*
D03*
X470383D02*
D03*
X474320D02*
D03*
Y289216D02*
D03*
X470383D02*
D03*
X466446D02*
D03*
X462509D02*
D03*
X458572D02*
D03*
X454635D02*
D03*
X446761D02*
D03*
Y293153D02*
D03*
X450698D02*
D03*
X454635D02*
D03*
X458572D02*
D03*
X466446D02*
D03*
X470383D02*
D03*
X474320D02*
D03*
X466446Y297090D02*
D03*
X462509D02*
D03*
X458572D02*
D03*
X454635D02*
D03*
X450698D02*
D03*
X446761D02*
D03*
X450698Y301027D02*
D03*
X454635D02*
D03*
X458572D02*
D03*
X462509D02*
D03*
X470383D02*
D03*
X474320D02*
D03*
Y304964D02*
D03*
X466446D02*
D03*
X470383D02*
D03*
X450698D02*
D03*
X446761Y308901D02*
D03*
X450698D02*
D03*
X454635D02*
D03*
X458572D02*
D03*
X466446D02*
D03*
X474320D02*
D03*
Y312838D02*
D03*
X466446D02*
D03*
X458572D02*
D03*
X454635D02*
D03*
X450698D02*
D03*
X446761D02*
D03*
Y320713D02*
D03*
X450698D02*
D03*
X458572D02*
D03*
X466446D02*
D03*
X474320D02*
D03*
X446761Y328587D02*
D03*
Y324650D02*
D03*
X450698D02*
D03*
Y328587D02*
D03*
X454635D02*
D03*
Y324650D02*
D03*
X458572D02*
D03*
Y328587D02*
D03*
X462509D02*
D03*
Y324650D02*
D03*
X466446Y328587D02*
D03*
X470383D02*
D03*
Y324650D02*
D03*
X474320D02*
D03*
Y332524D02*
D03*
X470383D02*
D03*
X466446D02*
D03*
X462509D02*
D03*
X458572D02*
D03*
X454635D02*
D03*
X450698Y336461D02*
D03*
X454635D02*
D03*
X446761Y332524D02*
D03*
X458572Y336461D02*
D03*
X466446D02*
D03*
X474320D02*
D03*
X470383Y340398D02*
D03*
X466446D02*
D03*
X462509D02*
D03*
X458572D02*
D03*
X454635D02*
D03*
X450698D02*
D03*
X446761D02*
D03*
X450698Y344335D02*
D03*
X454635D02*
D03*
X458572D02*
D03*
X462509D02*
D03*
X466446D02*
D03*
X474320Y348272D02*
D03*
X466446D02*
D03*
X462509D02*
D03*
X454635D02*
D03*
X450698D02*
D03*
X446761D02*
D03*
Y352209D02*
D03*
X450698D02*
D03*
X454635D02*
D03*
X462509D02*
D03*
X446761Y356146D02*
D03*
X490668Y271500D02*
D03*
X460540Y233898D02*
D03*
X421170Y233698D02*
D03*
X324313Y322681D02*
D03*
X431013Y293153D02*
D03*
X423139D02*
D03*
X427076Y289216D02*
D03*
X344359Y352221D02*
D03*
X348335Y336461D02*
D03*
X352272D02*
D03*
X356209D02*
D03*
X348335Y340398D02*
D03*
X356209D02*
D03*
X352272Y344335D02*
D03*
X356209D02*
D03*
X318808Y326618D02*
D03*
Y330555D02*
D03*
Y334492D02*
D03*
Y338429D02*
D03*
X330619Y228193D02*
D03*
X334556D02*
D03*
X338493D02*
D03*
X336524Y222287D02*
D03*
X340461D02*
D03*
X344398D02*
D03*
X358309Y225446D02*
D03*
X346309Y225046D02*
D03*
X350304Y228946D02*
D03*
X346367Y228193D02*
D03*
X358178D02*
D03*
X369989D02*
D03*
X373926D02*
D03*
X377863D02*
D03*
X385737D02*
D03*
X389674D02*
D03*
X393611D02*
D03*
X397548D02*
D03*
X405422D02*
D03*
X360146Y222287D02*
D03*
X368020D02*
D03*
X375894D02*
D03*
X379831D02*
D03*
X383768D02*
D03*
X387705D02*
D03*
X395579D02*
D03*
X399516D02*
D03*
X403453D02*
D03*
X409359Y228193D02*
D03*
X417233D02*
D03*
X399516Y281342D02*
D03*
X395579D02*
D03*
X383768Y285279D02*
D03*
X379831Y281342D02*
D03*
X375894Y277405D02*
D03*
Y273468D02*
D03*
X415265Y241972D02*
D03*
X403453D02*
D03*
X399516D02*
D03*
X395579D02*
D03*
X391642D02*
D03*
X387705D02*
D03*
X379831D02*
D03*
X375894D02*
D03*
X371957D02*
D03*
X368020D02*
D03*
X364083D02*
D03*
X360146D02*
D03*
X352272D02*
D03*
X348335D02*
D03*
X340461D02*
D03*
X336524D02*
D03*
X332587D02*
D03*
Y245909D02*
D03*
Y249846D02*
D03*
Y253783D02*
D03*
Y257720D02*
D03*
Y261657D02*
D03*
Y265594D02*
D03*
Y269531D02*
D03*
Y273468D02*
D03*
Y281342D02*
D03*
Y289216D02*
D03*
Y297090D02*
D03*
Y301027D02*
D03*
Y304964D02*
D03*
Y308901D02*
D03*
Y312838D02*
D03*
X391642Y238035D02*
D03*
X352272D02*
D03*
X328650Y269531D02*
D03*
Y308901D02*
D03*
Y293153D02*
D03*
Y273468D02*
D03*
Y281342D02*
D03*
X336524Y312838D02*
D03*
X340461D02*
D03*
X344398D02*
D03*
X348335D02*
D03*
X352272D02*
D03*
X356209D02*
D03*
X364083D02*
D03*
X368020D02*
D03*
Y308901D02*
D03*
X364083D02*
D03*
X360146D02*
D03*
X356209D02*
D03*
X352272D02*
D03*
X344398D02*
D03*
X340461D02*
D03*
X336524D02*
D03*
X348335Y304964D02*
D03*
X352272D02*
D03*
X356209D02*
D03*
X360146D02*
D03*
X364083D02*
D03*
X368020D02*
D03*
Y301027D02*
D03*
X360146D02*
D03*
X356209D02*
D03*
X352272D02*
D03*
X348335D02*
D03*
X344398D02*
D03*
X336524D02*
D03*
Y297090D02*
D03*
X344398D02*
D03*
X348335D02*
D03*
X356209D02*
D03*
X360146D02*
D03*
X364083D02*
D03*
X368020D02*
D03*
Y293153D02*
D03*
X364083D02*
D03*
X360146D02*
D03*
X356209D02*
D03*
X352272D02*
D03*
X348335D02*
D03*
X344398D02*
D03*
X391642Y312838D02*
D03*
X375894D02*
D03*
X371957Y308901D02*
D03*
X375894D02*
D03*
X387705D02*
D03*
X395579D02*
D03*
X403453D02*
D03*
X371957Y304964D02*
D03*
X391642D02*
D03*
X399516D02*
D03*
X411328D02*
D03*
X403453Y301027D02*
D03*
X395579D02*
D03*
X387705D02*
D03*
X371957Y297090D02*
D03*
X375894D02*
D03*
X391642D02*
D03*
X399516D02*
D03*
X411328D02*
D03*
X403453Y293153D02*
D03*
X395579D02*
D03*
X387705D02*
D03*
X371957D02*
D03*
X383768Y289216D02*
D03*
X391642D02*
D03*
X399516D02*
D03*
X403453Y285279D02*
D03*
X395579D02*
D03*
X387705D02*
D03*
X379831D02*
D03*
X375894D02*
D03*
Y281342D02*
D03*
X387705D02*
D03*
X391642D02*
D03*
X403453D02*
D03*
Y277405D02*
D03*
X399516D02*
D03*
X395579D02*
D03*
X391642D02*
D03*
X387705D02*
D03*
X383768D02*
D03*
X379831D02*
D03*
X368020D02*
D03*
Y273468D02*
D03*
X371957D02*
D03*
X379831D02*
D03*
X383768D02*
D03*
X387705D02*
D03*
X395579D02*
D03*
X403453D02*
D03*
X399516Y269531D02*
D03*
X395579D02*
D03*
X383768D02*
D03*
X379831D02*
D03*
X375894D02*
D03*
X371957D02*
D03*
X368020D02*
D03*
Y265594D02*
D03*
X371957D02*
D03*
X379831D02*
D03*
X383768D02*
D03*
X387705D02*
D03*
X391642D02*
D03*
X395579D02*
D03*
X399516D02*
D03*
X395579Y261657D02*
D03*
X391642D02*
D03*
X387705D02*
D03*
X383768D02*
D03*
X379831D02*
D03*
X375894D02*
D03*
X371957D02*
D03*
X368020D02*
D03*
Y257720D02*
D03*
X371957D02*
D03*
X375894D02*
D03*
X379831D02*
D03*
X383768D02*
D03*
X387705D02*
D03*
X395579D02*
D03*
X399516D02*
D03*
X403453D02*
D03*
Y253783D02*
D03*
X399516D02*
D03*
X395579D02*
D03*
X391642D02*
D03*
X387705D02*
D03*
X383768D02*
D03*
X375894D02*
D03*
X371957D02*
D03*
X368020D02*
D03*
X371957Y249846D02*
D03*
X375894D02*
D03*
X379831D02*
D03*
X383768D02*
D03*
X387705D02*
D03*
X391642D02*
D03*
X395579D02*
D03*
X399516D02*
D03*
X403453D02*
D03*
Y245909D02*
D03*
X399516D02*
D03*
X391642D02*
D03*
X387705D02*
D03*
X383768D02*
D03*
X379831D02*
D03*
X375894D02*
D03*
X371957D02*
D03*
X336524Y289216D02*
D03*
X340461D02*
D03*
X344398D02*
D03*
X348335D02*
D03*
X352272D02*
D03*
X356209D02*
D03*
X360146D02*
D03*
X364083D02*
D03*
Y285279D02*
D03*
X360146D02*
D03*
X352272D02*
D03*
X348335D02*
D03*
X344398D02*
D03*
X340461D02*
D03*
X336524D02*
D03*
Y281342D02*
D03*
X340461D02*
D03*
X348335D02*
D03*
X352272D02*
D03*
X356209D02*
D03*
X360146D02*
D03*
X364083D02*
D03*
Y277405D02*
D03*
X352272D02*
D03*
X348335D02*
D03*
X344398D02*
D03*
X340461D02*
D03*
X336524D02*
D03*
X340461Y273468D02*
D03*
X344398D02*
D03*
X348335D02*
D03*
X352272D02*
D03*
X356209D02*
D03*
X360146Y269531D02*
D03*
X364083Y273468D02*
D03*
X356209Y269531D02*
D03*
X352272D02*
D03*
X344398D02*
D03*
X340461D02*
D03*
X336524D02*
D03*
X340461Y265594D02*
D03*
X344398D02*
D03*
X348335D02*
D03*
X352272D02*
D03*
X356209D02*
D03*
X360146D02*
D03*
X364083D02*
D03*
X356209Y261657D02*
D03*
X352272D02*
D03*
X348335D02*
D03*
X344398D02*
D03*
X340461D02*
D03*
X336524D02*
D03*
Y257720D02*
D03*
X340461D02*
D03*
X348335D02*
D03*
X356209D02*
D03*
X360146D02*
D03*
Y253783D02*
D03*
X364083Y257720D02*
D03*
Y249846D02*
D03*
X356209Y253783D02*
D03*
X352272D02*
D03*
X348335Y249846D02*
D03*
Y253783D02*
D03*
X344398D02*
D03*
X340461Y249846D02*
D03*
X336524Y253783D02*
D03*
Y245909D02*
D03*
X340461D02*
D03*
X344398D02*
D03*
X348335D02*
D03*
X352272D02*
D03*
X415265Y312838D02*
D03*
Y308901D02*
D03*
Y301027D02*
D03*
Y293153D02*
D03*
X411328Y289216D02*
D03*
X415265Y285279D02*
D03*
Y281342D02*
D03*
X411328D02*
D03*
Y277405D02*
D03*
X415265Y273468D02*
D03*
X411328D02*
D03*
Y269531D02*
D03*
X415265D02*
D03*
Y265594D02*
D03*
X411328D02*
D03*
Y261657D02*
D03*
X415265D02*
D03*
Y257720D02*
D03*
X411328D02*
D03*
Y253783D02*
D03*
X415265D02*
D03*
Y249846D02*
D03*
X411328Y245909D02*
D03*
X415265D02*
D03*
X381800Y233698D02*
D03*
X342430D02*
D03*
X324313Y243941D02*
D03*
Y283311D02*
D03*
X318808Y247878D02*
D03*
Y251815D02*
D03*
Y255752D02*
D03*
Y259689D02*
D03*
Y267563D02*
D03*
Y271500D02*
D03*
Y279374D02*
D03*
Y287248D02*
D03*
Y291185D02*
D03*
Y295122D02*
D03*
Y299059D02*
D03*
Y306933D02*
D03*
Y310870D02*
D03*
Y318744D02*
D03*
Y314807D02*
D03*
X336524Y249846D02*
D03*
X356209Y241972D02*
D03*
X364083Y245909D02*
D03*
Y253783D02*
D03*
X360146Y245909D02*
D03*
X403453Y269531D02*
D03*
X312902Y324650D02*
D03*
X313093Y328614D02*
D03*
X312902Y336461D02*
D03*
Y340398D02*
D03*
Y241972D02*
D03*
Y245909D02*
D03*
Y261657D02*
D03*
Y265594D02*
D03*
Y277405D02*
D03*
Y297090D02*
D03*
Y301027D02*
D03*
Y304964D02*
D03*
X307909Y315646D02*
D03*
X312902Y312838D02*
D03*
Y253783D02*
D03*
Y257720D02*
D03*
X317327Y373229D02*
D03*
X403453Y375831D02*
D03*
X233668Y339299D02*
D03*
X242199Y315129D02*
D03*
Y317469D02*
D03*
X210999Y339199D02*
D03*
X189199Y339099D02*
D03*
X183399D02*
D03*
X332587Y293153D02*
D03*
X371957Y289216D02*
D03*
Y285279D02*
D03*
X312499Y238099D02*
D03*
X307699Y237099D02*
D03*
X438887Y257720D02*
D03*
Y261657D02*
D03*
X454635Y253783D02*
D03*
X563799Y176519D02*
D03*
Y178859D02*
D03*
X553248Y177248D02*
D03*
X555502Y178902D02*
D03*
X486131Y245909D02*
D03*
X482194D02*
D03*
X494799Y160079D02*
D03*
X495668Y157739D02*
D03*
X685899Y482099D02*
D03*
X757899Y214699D02*
D03*
X754331Y154699D02*
D03*
X733899Y150899D02*
D03*
Y148099D02*
D03*
X794099Y160099D02*
D03*
X760499Y194899D02*
D03*
X762299Y143499D02*
D03*
X790987Y94697D02*
D03*
X808100Y90957D02*
D03*
X817313Y122205D02*
D03*
Y110394D02*
D03*
X798073Y133252D02*
D03*
X901671Y116252D02*
D03*
X887185Y120773D02*
D03*
X879705D02*
D03*
X887185Y112112D02*
D03*
X883445Y114487D02*
D03*
X897773Y86039D02*
D03*
Y82299D02*
D03*
Y78559D02*
D03*
X889299Y149899D02*
D03*
X898331Y158268D02*
D03*
X956331Y160268D02*
D03*
X1012331D02*
D03*
X981899Y164099D02*
D03*
X1007409Y152099D02*
D03*
X924299Y163899D02*
D03*
X948699Y151099D02*
D03*
X944499Y144099D02*
D03*
X868099Y164499D02*
D03*
X892099Y151899D02*
D03*
X904299Y155699D02*
D03*
X881799Y145299D02*
D03*
X1020303Y162299D02*
D03*
X965189Y163699D02*
D03*
X906303Y161499D02*
D03*
X962299Y172299D02*
D03*
X957099Y145299D02*
D03*
X960239Y144653D02*
D03*
X902239Y142653D02*
D03*
X899099Y143299D02*
D03*
X904299Y170299D02*
D03*
X1013099Y145299D02*
D03*
X1018299Y172299D02*
D03*
X837699Y216899D02*
D03*
X863131Y220299D02*
D03*
X873468Y240299D02*
D03*
X1021931Y122918D02*
D03*
X1086499Y89299D02*
D03*
X1160699Y82499D02*
D03*
X1035831Y190631D02*
D03*
X1021499Y258299D02*
D03*
X1011099D02*
D03*
X995840Y233409D02*
D03*
Y229409D02*
D03*
Y225409D02*
D03*
Y221409D02*
D03*
X922638Y472441D02*
D03*
X969882Y444094D02*
D03*
X922638D02*
D03*
X969882Y469291D02*
D03*
X925787Y472441D02*
D03*
Y444094D02*
D03*
X966732Y469291D02*
D03*
Y447244D02*
D03*
X928937Y472441D02*
D03*
Y444094D02*
D03*
X966732Y466142D02*
D03*
Y450394D02*
D03*
X925787Y466142D02*
D03*
Y450394D02*
D03*
X963583Y469291D02*
D03*
Y447244D02*
D03*
X928937Y469291D02*
D03*
Y447244D02*
D03*
X960433Y472441D02*
D03*
X932087D02*
D03*
Y444094D02*
D03*
X963583Y466142D02*
D03*
Y450394D02*
D03*
X928937Y466142D02*
D03*
Y450394D02*
D03*
X935236Y472441D02*
D03*
X960433Y469291D02*
D03*
Y447244D02*
D03*
X957283Y444094D02*
D03*
X935236D02*
D03*
X954134Y472441D02*
D03*
X960433Y466142D02*
D03*
X938386Y472441D02*
D03*
X932087Y466142D02*
D03*
X960433Y450394D02*
D03*
X932087D02*
D03*
X938386Y444094D02*
D03*
X957283Y469291D02*
D03*
Y447244D02*
D03*
X950984Y472441D02*
D03*
X941535D02*
D03*
X950984Y444094D02*
D03*
X941535D02*
D03*
X944685Y472441D02*
D03*
Y444094D02*
D03*
X954134Y469291D02*
D03*
X957283Y466142D02*
D03*
Y450394D02*
D03*
X954134Y447244D02*
D03*
X950984Y469291D02*
D03*
X941535D02*
D03*
X950984Y447244D02*
D03*
X941535D02*
D03*
X954134Y466142D02*
D03*
X938386D02*
D03*
X954134Y450394D02*
D03*
X938386D02*
D03*
X941535Y466142D02*
D03*
Y450394D02*
D03*
X944685Y466142D02*
D03*
Y450394D02*
D03*
X954699Y296699D02*
D03*
X955099Y274299D02*
D03*
X955299Y281899D02*
D03*
X1059831Y287831D02*
D03*
X1046099Y290899D02*
D03*
Y288099D02*
D03*
X879499Y361499D02*
D03*
X901499Y348899D02*
D03*
X894099Y344099D02*
D03*
X886699Y340099D02*
D03*
X879899Y333099D02*
D03*
X911499Y369899D02*
D03*
X861899Y327299D02*
D03*
X911499Y388099D02*
D03*
X923499Y399899D02*
D03*
X946299Y400099D02*
D03*
X949299Y407099D02*
D03*
X933499Y401699D02*
D03*
X913096Y355502D02*
D03*
X117742Y910589D02*
D03*
X134856Y906849D02*
D03*
X27503Y72299D02*
D03*
X54699Y860299D02*
D03*
X134787D02*
D03*
X25299Y107299D02*
D03*
X1163599Y811299D02*
D03*
X997899Y359699D02*
D03*
Y323699D02*
D03*
Y332699D02*
D03*
Y341699D02*
D03*
Y350699D02*
D03*
X981731Y367215D02*
D03*
X985746Y365246D02*
D03*
X981731Y363278D02*
D03*
Y358215D02*
D03*
X985746Y360183D02*
D03*
Y356246D02*
D03*
X981731Y354278D02*
D03*
X985746Y351183D02*
D03*
X981731Y349215D02*
D03*
X985746Y347246D02*
D03*
X981731Y345278D02*
D03*
X985746Y342183D02*
D03*
X981731Y340215D02*
D03*
X985746Y338246D02*
D03*
X981731Y336278D02*
D03*
X985746Y333183D02*
D03*
X981731Y331215D02*
D03*
X985931Y329246D02*
D03*
X981731Y327278D02*
D03*
X985231Y324031D02*
D03*
X981731Y322215D02*
D03*
X985746Y320246D02*
D03*
X981731Y318278D02*
D03*
X984499Y455399D02*
D03*
X952599Y251699D02*
D03*
X708899Y275099D02*
D03*
X494882Y551181D02*
D03*
X927000Y61800D02*
D03*
X933000Y61200D02*
D03*
X946000Y61600D02*
D03*
X978264Y61644D02*
D03*
X988106D02*
D03*
X997949D02*
D03*
X902364Y76366D02*
D03*
X964296Y116096D02*
D03*
X900000Y46400D02*
D03*
X880000Y873969D02*
D03*
X574000Y875968D02*
D03*
X512000Y875469D02*
D03*
X205000Y615842D02*
D03*
X510500D02*
D03*
X573500D02*
D03*
X878500D02*
D03*
X961600Y57600D02*
D03*
X900000Y837000D02*
D03*
X181400Y153400D02*
D03*
X183600Y148800D02*
D03*
X273400Y152000D02*
D03*
X274200Y149000D02*
D03*
X1190800Y869600D02*
D03*
X912400Y63000D02*
D03*
X408400Y521400D02*
D03*
X430200Y522400D02*
D03*
X671000Y221600D02*
D03*
X206800Y874969D02*
D03*
X348000Y521000D02*
D03*
X348800Y517200D02*
D03*
X335000Y531600D02*
D03*
X446729Y336492D02*
D03*
X442824Y297090D02*
D03*
X438887D02*
D03*
X403453Y265594D02*
D03*
X399516Y261657D02*
D03*
X379831Y289216D02*
D03*
X375894D02*
D03*
X340461Y304964D02*
D03*
Y301027D02*
D03*
X366189Y227793D02*
D03*
X584646Y226378D02*
D03*
X568000Y238400D02*
D03*
X627984Y226378D02*
D03*
X545600Y375200D02*
D03*
X576803Y372047D02*
D03*
X354299Y218799D02*
D03*
X391642Y273468D02*
D03*
Y269531D02*
D03*
X356299Y127953D02*
D03*
X352362Y124016D02*
D03*
X336614Y167323D02*
D03*
Y171260D02*
D03*
X316929Y120016D02*
D03*
X320866Y123953D02*
D03*
X364083Y238035D02*
D03*
X366142Y234142D02*
D03*
X356209Y277405D02*
D03*
X364083Y269531D02*
D03*
X371957Y312838D02*
D03*
X344398Y304964D02*
D03*
X208661Y362205D02*
D03*
X224410Y366142D02*
D03*
X239800Y357800D02*
D03*
X192913Y381890D02*
D03*
X1077500Y120700D02*
D03*
X216699Y424799D02*
D03*
Y428799D02*
D03*
X395579Y371894D02*
D03*
Y375831D02*
D03*
X609968Y432409D02*
D03*
X83500Y159200D02*
D03*
X69100Y159500D02*
D03*
X65100Y144000D02*
D03*
X55100Y259500D02*
D03*
Y249500D02*
D03*
X55101Y239499D02*
D03*
Y229499D02*
D03*
X14500Y207800D02*
D03*
X24299Y375099D02*
D03*
X18499Y376099D02*
D03*
X36000Y385200D02*
D03*
X40800Y396400D02*
D03*
X71900Y503000D02*
D03*
Y493000D02*
D03*
Y483000D02*
D03*
Y473000D02*
D03*
X72200Y453000D02*
D03*
Y443000D02*
D03*
X71900Y433000D02*
D03*
X71500Y387000D02*
D03*
X71963Y463000D02*
D03*
X980921Y721672D02*
D03*
X1022700Y590900D02*
D03*
X744095Y382283D02*
D03*
X944882Y848425D02*
D03*
X952756Y852362D02*
D03*
X861737Y121559D02*
D03*
X870866Y100000D02*
D03*
X1122835Y846850D02*
D03*
X771260Y484252D02*
D03*
X829920Y484251D02*
D03*
X890945Y482677D02*
D03*
X295700Y373700D02*
D03*
X250000Y202400D02*
D03*
X276600Y51100D02*
D03*
X712900Y517200D02*
D03*
X1151400Y897500D02*
D03*
X1158740Y897140D02*
D03*
X985039Y874825D02*
D03*
X898500Y815700D02*
D03*
X958899Y756099D02*
D03*
X1101277Y807069D02*
D03*
Y803131D02*
D03*
X192700Y51100D02*
D03*
X205300Y51600D02*
D03*
X723600Y134400D02*
D03*
X55600Y890331D02*
D03*
X1048685Y239543D02*
D03*
X1042253Y222441D02*
D03*
Y230315D02*
D03*
X1007400Y233800D02*
D03*
Y237737D02*
D03*
X1010100Y238189D02*
D03*
X1022299Y253299D02*
D03*
X1027400Y254400D02*
D03*
X1032799Y256299D02*
D03*
X1028200Y247600D02*
D03*
X1030200Y250100D02*
D03*
X1034000Y249100D02*
D03*
X1036500Y246600D02*
D03*
X1040300Y242100D02*
D03*
X1043000Y237800D02*
D03*
X1043400Y234200D02*
D03*
X1032200Y215800D02*
D03*
X1018409Y250400D02*
D03*
X1016441Y246498D02*
D03*
X1013390Y242890D02*
D03*
X1026000Y215600D02*
D03*
X1000900Y547600D02*
D03*
X1001100Y556800D02*
D03*
X965400Y555600D02*
D03*
X968148Y559452D02*
D03*
X965200Y559500D02*
D03*
X967700Y563500D02*
D03*
X969500Y567000D02*
D03*
X1002600Y566900D02*
D03*
X997500Y569700D02*
D03*
X985800Y573300D02*
D03*
X989200Y573000D02*
D03*
X993700Y574848D02*
D03*
X984331Y535946D02*
D03*
X975500Y574900D02*
D03*
X974700Y572100D02*
D03*
X1004299Y462499D02*
D03*
X1005400Y538600D02*
D03*
X978400Y598300D02*
D03*
X989400Y471659D02*
D03*
X937128Y492800D02*
D03*
Y495359D02*
D03*
X989400Y469100D02*
D03*
X952128Y495359D02*
D03*
X1004400Y471659D02*
D03*
X777099Y438362D02*
D03*
X787099D02*
D03*
X882500Y449900D02*
D03*
X893700Y465900D02*
D03*
X896190Y677260D02*
D03*
Y684740D02*
D03*
Y694260D02*
D03*
Y701740D02*
D03*
Y710260D02*
D03*
Y717740D02*
D03*
X879809D02*
D03*
Y710260D02*
D03*
Y701740D02*
D03*
Y694260D02*
D03*
Y684740D02*
D03*
Y677260D02*
D03*
X752100Y650900D02*
D03*
X752800Y658100D02*
D03*
X753900Y660800D02*
D03*
X1154969Y830949D02*
D03*
X1151031Y825051D02*
D03*
X258100Y16900D02*
D03*
X813500Y117400D02*
D03*
X1158526Y288559D02*
D03*
Y283441D02*
D03*
Y275559D02*
D03*
Y273000D02*
D03*
Y270441D02*
D03*
X1173474Y288559D02*
D03*
Y283441D02*
D03*
Y275559D02*
D03*
Y270441D02*
D03*
X1158526Y262559D02*
D03*
Y260000D02*
D03*
Y257441D02*
D03*
X1173474Y262559D02*
D03*
Y257441D02*
D03*
X211700Y14700D02*
D03*
X198600Y15900D02*
D03*
X211600Y31000D02*
D03*
X195600Y31100D02*
D03*
D192*
X1141386Y863986D02*
D03*
Y859261D02*
D03*
Y854537D02*
D03*
Y849813D02*
D03*
X1136661Y863986D02*
D03*
Y859261D02*
D03*
Y854537D02*
D03*
Y849813D02*
D03*
X1131937Y863986D02*
D03*
Y859261D02*
D03*
Y854537D02*
D03*
Y849813D02*
D03*
X1127213Y863986D02*
D03*
Y859261D02*
D03*
Y854537D02*
D03*
Y849813D02*
D03*
M02*
