%FSLAX25Y25*%
%MOIN*%
G70*
G01*
G75*
G04 Layer_Color=8421504*
%ADD10C,0.00500*%
%ADD11C,0.00500*%
G04:AMPARAMS|DCode=12|XSize=19.69mil|YSize=23.62mil|CornerRadius=4.92mil|HoleSize=0mil|Usage=FLASHONLY|Rotation=270.000|XOffset=0mil|YOffset=0mil|HoleType=Round|Shape=RoundedRectangle|*
%AMROUNDEDRECTD12*
21,1,0.01969,0.01378,0,0,270.0*
21,1,0.00984,0.02362,0,0,270.0*
1,1,0.00984,-0.00689,-0.00492*
1,1,0.00984,-0.00689,0.00492*
1,1,0.00984,0.00689,0.00492*
1,1,0.00984,0.00689,-0.00492*
%
%ADD12ROUNDEDRECTD12*%
%ADD13R,0.02362X0.02362*%
%ADD14R,0.09449X0.10827*%
%ADD15R,0.02362X0.02362*%
%ADD16R,0.02756X0.03937*%
%ADD17R,0.03347X0.01378*%
%ADD18C,0.03937*%
%ADD19C,0.01969*%
%ADD20R,0.02362X0.08858*%
%ADD21R,0.06299X0.01772*%
%ADD22R,0.03347X0.01969*%
%ADD23R,0.04331X0.10236*%
G04:AMPARAMS|DCode=24|XSize=19.69mil|YSize=23.62mil|CornerRadius=4.92mil|HoleSize=0mil|Usage=FLASHONLY|Rotation=180.000|XOffset=0mil|YOffset=0mil|HoleType=Round|Shape=RoundedRectangle|*
%AMROUNDEDRECTD24*
21,1,0.01969,0.01378,0,0,180.0*
21,1,0.00984,0.02362,0,0,180.0*
1,1,0.00984,-0.00492,0.00689*
1,1,0.00984,0.00492,0.00689*
1,1,0.00984,0.00492,-0.00689*
1,1,0.00984,-0.00492,-0.00689*
%
%ADD24ROUNDEDRECTD24*%
%ADD25R,0.03740X0.07874*%
%ADD26R,0.06299X0.07362*%
%ADD27R,0.05906X0.04331*%
%ADD28R,0.05906X0.06496*%
%ADD29R,0.06102X0.16417*%
%ADD30R,0.06102X0.08661*%
%ADD31R,0.04724X0.07677*%
%ADD32R,0.08268X0.12598*%
%ADD33R,0.07087X0.04528*%
%ADD34O,0.06102X0.00984*%
%ADD35O,0.00984X0.06102*%
%ADD36R,0.20000X0.05000*%
%ADD37R,0.03937X0.07087*%
%ADD38R,0.14488X0.05000*%
%ADD39R,0.05000X0.01693*%
%ADD40C,0.01772*%
%ADD41R,0.05000X0.14488*%
%ADD42R,0.10236X0.04331*%
%ADD43R,0.05512X0.03937*%
%ADD44R,0.04331X0.05512*%
%ADD45R,0.01181X0.06496*%
%ADD46R,0.08661X0.05709*%
%ADD47R,0.10827X0.09449*%
%ADD48R,0.03937X0.02756*%
%ADD49R,0.05709X0.08661*%
%ADD50R,0.07874X0.04331*%
%ADD51R,0.04331X0.05315*%
%ADD52R,0.15748X0.05906*%
%ADD53R,0.05906X0.15748*%
%ADD54R,0.05315X0.04331*%
%ADD55R,0.06693X0.01378*%
%ADD56R,0.05512X0.04724*%
%ADD57R,0.02165X0.00787*%
%ADD58R,0.05512X0.04331*%
%ADD59R,0.03150X0.03150*%
%ADD60R,0.05118X0.02362*%
%ADD61R,0.05118X0.03937*%
%ADD62R,0.04528X0.06693*%
%ADD63O,0.08071X0.02362*%
%ADD64R,0.06890X0.01181*%
%ADD65R,0.25394X0.07874*%
%ADD66R,0.07874X0.25394*%
%ADD67R,0.07087X0.03937*%
%ADD68R,0.06693X0.04528*%
%ADD69R,0.03347X0.03150*%
%ADD70R,0.13976X0.12598*%
%ADD71R,0.12598X0.13976*%
%ADD72R,0.27953X0.11024*%
%ADD73R,0.07047X0.05000*%
%ADD74R,0.12500X0.07008*%
%ADD75R,0.07087X0.02362*%
%ADD76R,0.06496X0.01181*%
%ADD77R,0.01378X0.07087*%
%ADD78R,0.01772X0.06299*%
%ADD79R,0.01772X0.07087*%
%ADD80R,0.01378X0.06102*%
%ADD81R,0.01378X0.03347*%
%ADD82R,0.07087X0.07087*%
%ADD83R,0.07087X0.07087*%
%ADD84R,0.07087X0.07874*%
%ADD85R,0.07874X0.07087*%
%ADD86R,0.03937X0.05512*%
%ADD87R,0.80000X0.15000*%
%ADD88R,0.01654X0.04803*%
%ADD89R,0.01600X0.08500*%
%ADD90R,0.71000X0.02000*%
%ADD91R,0.15590X0.15590*%
%ADD92R,0.03740X0.01378*%
%ADD93R,0.01378X0.03740*%
%ADD94R,0.12992X0.12992*%
%ADD95R,0.12992X0.12992*%
%ADD96R,0.01102X0.03347*%
%ADD97R,0.03347X0.01102*%
%ADD98R,0.11811X0.11811*%
%ADD99R,0.17716X0.17716*%
%ADD100R,0.03150X0.01181*%
%ADD101R,0.01181X0.03150*%
%ADD102R,0.11811X0.11811*%
%ADD103R,0.06181X0.07402*%
%ADD104R,0.03740X0.01181*%
%ADD105R,0.01181X0.03740*%
%ADD106R,0.05512X0.05512*%
%ADD107R,0.05512X0.01575*%
%ADD108R,0.03150X0.01102*%
%ADD109R,0.01102X0.03150*%
%ADD110R,0.06299X0.06299*%
%ADD111R,0.06299X0.06299*%
%ADD112C,0.01200*%
%ADD113C,0.01000*%
%ADD114C,0.00800*%
%ADD115C,0.00600*%
%ADD116C,0.02000*%
%ADD117C,0.02500*%
%ADD118C,0.05000*%
%ADD119C,0.10000*%
%ADD120C,0.01500*%
%ADD121R,0.11500X0.04000*%
%ADD122C,0.07087*%
%ADD123C,0.07874*%
%ADD124C,0.05906*%
%ADD125C,0.11811*%
%ADD126C,0.12205*%
%ADD127C,0.06437*%
%ADD128C,0.05591*%
%ADD129C,0.09252*%
%ADD130C,0.05512*%
G04:AMPARAMS|DCode=131|XSize=78.74mil|YSize=118.11mil|CornerRadius=19.69mil|HoleSize=0mil|Usage=FLASHONLY|Rotation=270.000|XOffset=0mil|YOffset=0mil|HoleType=Round|Shape=RoundedRectangle|*
%AMROUNDEDRECTD131*
21,1,0.07874,0.07874,0,0,270.0*
21,1,0.03937,0.11811,0,0,270.0*
1,1,0.03937,-0.03937,-0.01969*
1,1,0.03937,-0.03937,0.01969*
1,1,0.03937,0.03937,0.01969*
1,1,0.03937,0.03937,-0.01969*
%
%ADD131ROUNDEDRECTD131*%
%ADD132C,0.13780*%
%ADD133C,0.09055*%
%ADD134C,0.09843*%
%ADD135C,0.08661*%
%ADD136R,0.07874X0.07874*%
%ADD137C,0.04331*%
G04:AMPARAMS|DCode=138|XSize=47.24mil|YSize=110.24mil|CornerRadius=11.81mil|HoleSize=0mil|Usage=FLASHONLY|Rotation=270.000|XOffset=0mil|YOffset=0mil|HoleType=Round|Shape=RoundedRectangle|*
%AMROUNDEDRECTD138*
21,1,0.04724,0.08661,0,0,270.0*
21,1,0.02362,0.11024,0,0,270.0*
1,1,0.02362,-0.04331,-0.01181*
1,1,0.02362,-0.04331,0.01181*
1,1,0.02362,0.04331,0.01181*
1,1,0.02362,0.04331,-0.01181*
%
%ADD138ROUNDEDRECTD138*%
G04:AMPARAMS|DCode=139|XSize=51.18mil|YSize=86.61mil|CornerRadius=12.8mil|HoleSize=0mil|Usage=FLASHONLY|Rotation=180.000|XOffset=0mil|YOffset=0mil|HoleType=Round|Shape=RoundedRectangle|*
%AMROUNDEDRECTD139*
21,1,0.05118,0.06102,0,0,180.0*
21,1,0.02559,0.08661,0,0,180.0*
1,1,0.02559,-0.01280,0.03051*
1,1,0.02559,0.01280,0.03051*
1,1,0.02559,0.01280,-0.03051*
1,1,0.02559,-0.01280,-0.03051*
%
%ADD139ROUNDEDRECTD139*%
%ADD140C,0.04724*%
%ADD141C,0.31496*%
%ADD142C,0.12598*%
%ADD143C,0.06378*%
%ADD144C,0.09646*%
%ADD145C,0.12000*%
%ADD146C,0.04500*%
%ADD147C,0.01900*%
%ADD148C,0.01940*%
%ADD149C,0.02000*%
%ADD150C,0.05000*%
%ADD151C,0.01860*%
%ADD152C,0.02598*%
%ADD153C,0.04000*%
%ADD154C,0.06771*%
%ADD155C,0.04409*%
%ADD156C,0.07164*%
G04:AMPARAMS|DCode=157|XSize=107.244mil|YSize=107.244mil|CornerRadius=0mil|HoleSize=0mil|Usage=FLASHONLY|Rotation=0.000|XOffset=0mil|YOffset=0mil|HoleType=Round|Shape=Relief|Width=15mil|Gap=10mil|Entries=4|*
%AMTHD157*
7,0,0,0.10724,0.08724,0.01500,45*
%
%ADD157THD157*%
%ADD158C,0.06062*%
G04:AMPARAMS|DCode=159|XSize=96.221mil|YSize=96.221mil|CornerRadius=0mil|HoleSize=0mil|Usage=FLASHONLY|Rotation=0.000|XOffset=0mil|YOffset=0mil|HoleType=Round|Shape=Relief|Width=15mil|Gap=10mil|Entries=4|*
%AMTHD159*
7,0,0,0.09622,0.07622,0.01500,45*
%
%ADD159THD159*%
%ADD160C,0.11495*%
%ADD161C,0.15038*%
%ADD162C,0.06377*%
G04:AMPARAMS|DCode=163|XSize=99.37mil|YSize=99.37mil|CornerRadius=0mil|HoleSize=0mil|Usage=FLASHONLY|Rotation=0.000|XOffset=0mil|YOffset=0mil|HoleType=Round|Shape=Relief|Width=15mil|Gap=10mil|Entries=4|*
%AMTHD163*
7,0,0,0.09937,0.07937,0.01500,45*
%
%ADD163THD163*%
G04:AMPARAMS|DCode=164|XSize=92.284mil|YSize=92.284mil|CornerRadius=0mil|HoleSize=0mil|Usage=FLASHONLY|Rotation=0.000|XOffset=0mil|YOffset=0mil|HoleType=Round|Shape=Relief|Width=15mil|Gap=10mil|Entries=4|*
%AMTHD164*
7,0,0,0.09228,0.07228,0.01500,45*
%
%ADD164THD164*%
%ADD165C,0.11889*%
%ADD166C,0.05196*%
G04:AMPARAMS|DCode=167|XSize=87.559mil|YSize=87.559mil|CornerRadius=0mil|HoleSize=0mil|Usage=FLASHONLY|Rotation=0.000|XOffset=0mil|YOffset=0mil|HoleType=Round|Shape=Relief|Width=15mil|Gap=10mil|Entries=4|*
%AMTHD167*
7,0,0,0.08756,0.06756,0.01500,45*
%
%ADD167THD167*%
%ADD168O,0.12204X0.09133*%
%ADD169C,0.12086*%
%ADD170C,0.08346*%
G04:AMPARAMS|DCode=171|XSize=126.929mil|YSize=126.929mil|CornerRadius=0mil|HoleSize=0mil|Usage=FLASHONLY|Rotation=0.000|XOffset=0mil|YOffset=0mil|HoleType=Round|Shape=Relief|Width=15mil|Gap=10mil|Entries=4|*
%AMTHD171*
7,0,0,0.12693,0.10693,0.01500,45*
%
%ADD171THD171*%
G04:AMPARAMS|DCode=172|XSize=103.307mil|YSize=103.307mil|CornerRadius=0mil|HoleSize=0mil|Usage=FLASHONLY|Rotation=0.000|XOffset=0mil|YOffset=0mil|HoleType=Round|Shape=Relief|Width=15mil|Gap=10mil|Entries=4|*
%AMTHD172*
7,0,0,0.10331,0.08331,0.01500,45*
%
%ADD172THD172*%
%ADD173C,0.05983*%
G04:AMPARAMS|DCode=174|XSize=95.433mil|YSize=95.433mil|CornerRadius=0mil|HoleSize=0mil|Usage=FLASHONLY|Rotation=0.000|XOffset=0mil|YOffset=0mil|HoleType=Round|Shape=Relief|Width=15mil|Gap=10mil|Entries=4|*
%AMTHD174*
7,0,0,0.09543,0.07543,0.01500,45*
%
%ADD174THD174*%
%ADD175C,0.04802*%
G04:AMPARAMS|DCode=176|XSize=83.622mil|YSize=83.622mil|CornerRadius=0mil|HoleSize=0mil|Usage=FLASHONLY|Rotation=0.000|XOffset=0mil|YOffset=0mil|HoleType=Round|Shape=Relief|Width=15mil|Gap=10mil|Entries=4|*
%AMTHD176*
7,0,0,0.08362,0.06362,0.01500,45*
%
%ADD176THD176*%
%AMTHOVALD177*
21,1,0.06299,0.09150,0,0,360.0*
1,1,0.09150,-0.03150,0.00000*
1,1,0.09150,0.03150,0.00000*
21,0,0.06299,0.07150,0,0,360.0*
1,0,0.07150,-0.03150,0.00000*
1,0,0.07150,0.03150,0.00000*
4,0,4,-0.02619,-0.00530,-0.05854,-0.03765,-0.06915,-0.02705,-0.03680,0.00530,-0.02619,-0.00530,0.0*
4,0,4,0.03680,-0.00530,0.06915,0.02705,0.05854,0.03765,0.02619,0.00530,0.03680,-0.00530,0.0*
4,0,4,-0.03680,-0.00530,-0.06915,0.02705,-0.05854,0.03765,-0.02619,0.00530,-0.03680,-0.00530,0.0*
4,0,4,0.02619,-0.00530,0.05854,-0.03765,0.06915,-0.02705,0.03680,0.00530,0.02619,-0.00530,0.0*
%
%ADD177THOVALD177*%

%AMTHOVALD178*
21,1,0.03543,0.09937,0,0,270.0*
1,1,0.09937,0.00000,0.01772*
1,1,0.09937,0.00000,-0.01772*
21,0,0.03543,0.07937,0,0,270.0*
1,0,0.07937,0.00000,0.01772*
1,0,0.07937,0.00000,-0.01772*
4,0,4,-0.00530,0.01241,-0.04044,0.04755,-0.02983,0.05815,0.00530,0.02302,-0.00530,0.01241,0.0*
4,0,4,-0.00530,-0.02302,0.02983,-0.05815,0.04044,-0.04755,0.00530,-0.01241,-0.00530,-0.02302,0.0*
4,0,4,-0.00530,0.02302,0.02983,0.05815,0.04044,0.04755,0.00530,0.01241,-0.00530,0.02302,0.0*
4,0,4,-0.00530,-0.01241,-0.04044,-0.04755,-0.02983,-0.05815,0.00530,-0.02302,-0.00530,-0.01241,0.0*
%
%ADD178THOVALD178*%

%ADD179C,0.05590*%
G04:AMPARAMS|DCode=180|XSize=91.496mil|YSize=91.496mil|CornerRadius=0mil|HoleSize=0mil|Usage=FLASHONLY|Rotation=0.000|XOffset=0mil|YOffset=0mil|HoleType=Round|Shape=Relief|Width=15mil|Gap=10mil|Entries=4|*
%AMTHD180*
7,0,0,0.09150,0.07150,0.01500,45*
%
%ADD180THD180*%
G04:AMPARAMS|DCode=181|XSize=210mil|YSize=210mil|CornerRadius=0mil|HoleSize=0mil|Usage=FLASHONLY|Rotation=0.000|XOffset=0mil|YOffset=0mil|HoleType=Round|Shape=Relief|Width=15mil|Gap=10mil|Entries=4|*
%AMTHD181*
7,0,0,0.21000,0.19000,0.01500,45*
%
%ADD181THD181*%
%ADD182C,0.17440*%
%ADD183C,0.15235*%
G04:AMPARAMS|DCode=184|XSize=122.992mil|YSize=122.992mil|CornerRadius=0mil|HoleSize=0mil|Usage=FLASHONLY|Rotation=0.000|XOffset=0mil|YOffset=0mil|HoleType=Round|Shape=Relief|Width=15mil|Gap=10mil|Entries=4|*
%AMTHD184*
7,0,0,0.12299,0.10299,0.01500,45*
%
%ADD184THD184*%
G04:AMPARAMS|DCode=185|XSize=100.157mil|YSize=100.157mil|CornerRadius=0mil|HoleSize=0mil|Usage=FLASHONLY|Rotation=0.000|XOffset=0mil|YOffset=0mil|HoleType=Round|Shape=Relief|Width=15mil|Gap=10mil|Entries=4|*
%AMTHD185*
7,0,0,0.10016,0.08016,0.01500,45*
%
%ADD185THD185*%
%ADD186C,0.06456*%
G04:AMPARAMS|DCode=187|XSize=117.087mil|YSize=117.087mil|CornerRadius=0mil|HoleSize=0mil|Usage=FLASHONLY|Rotation=0.000|XOffset=0mil|YOffset=0mil|HoleType=Round|Shape=Relief|Width=15mil|Gap=10mil|Entries=4|*
%AMTHD187*
7,0,0,0.11709,0.09709,0.01500,45*
%
%ADD187THD187*%
%ADD188C,0.08149*%
%ADD189C,0.14743*%
%ADD190C,0.07040*%
%ADD191C,0.03440*%
%ADD192C,0.03739*%
%ADD193C,0.00380*%
%ADD194C,0.00394*%
%ADD195C,0.22874*%
%ADD196C,0.00380*%
%ADD197C,0.07000*%
%ADD198C,0.05668*%
%ADD199C,0.09133*%
%ADD200O,0.11889X0.05590*%
%ADD201O,0.06377X0.09920*%
%ADD202C,0.08739*%
%ADD203C,0.05240*%
%ADD204C,0.03444*%
%ADD205R,0.00787X0.02165*%
%ADD206C,0.00984*%
%ADD207C,0.02362*%
%ADD208C,0.00787*%
%ADD209C,0.06000*%
%ADD210C,0.00100*%
%ADD211C,0.00300*%
%ADD212C,0.00315*%
%ADD213C,0.00900*%
%ADD214C,0.00591*%
%ADD215R,0.09095X0.09095*%
%ADD216R,0.09095X0.09095*%
%ADD217R,0.08268X0.08268*%
%ADD218R,0.12402X0.12402*%
%ADD219R,0.08268X0.08268*%
%ADD220R,0.03961X0.05181*%
%ADD221R,0.03858X0.03858*%
%ADD222R,0.04961X0.04961*%
%ADD223R,0.04409X0.04409*%
%ADD224R,0.04409X0.04409*%
D12*
X647968Y232000D02*
D03*
X644031D02*
D03*
X253969Y205000D02*
D03*
X250031D02*
D03*
X192831Y423780D02*
D03*
X196768D02*
D03*
X192831Y427780D02*
D03*
X196768D02*
D03*
X469068Y519299D02*
D03*
X465131D02*
D03*
X388668Y517899D02*
D03*
X384731D02*
D03*
X958331Y512299D02*
D03*
X962268D02*
D03*
X974331Y498299D02*
D03*
X978268D02*
D03*
X34331Y282299D02*
D03*
X38268D02*
D03*
X632268Y136299D02*
D03*
X628331D02*
D03*
X114331Y646299D02*
D03*
X118268D02*
D03*
X501268Y515299D02*
D03*
X497331D02*
D03*
X1072331Y906299D02*
D03*
X1076268D02*
D03*
X866331Y240299D02*
D03*
X870268D02*
D03*
Y220299D02*
D03*
X866331D02*
D03*
X958268Y634299D02*
D03*
X954331D02*
D03*
X876331Y290299D02*
D03*
X880268D02*
D03*
X872331Y308299D02*
D03*
X876268D02*
D03*
X872331Y304299D02*
D03*
X876268D02*
D03*
X1044831Y364599D02*
D03*
X1048768D02*
D03*
X780268Y144299D02*
D03*
X776331D02*
D03*
X210331Y424799D02*
D03*
X214268D02*
D03*
X210331Y428799D02*
D03*
X214268D02*
D03*
X201068Y451431D02*
D03*
X197131D02*
D03*
X201068Y455431D02*
D03*
X197131D02*
D03*
X210331Y432799D02*
D03*
X214268D02*
D03*
X617268Y414480D02*
D03*
X613331D02*
D03*
X210331Y436799D02*
D03*
X214268D02*
D03*
X619268Y410299D02*
D03*
X615331D02*
D03*
X210331Y440799D02*
D03*
X214268D02*
D03*
X210331Y444799D02*
D03*
X214268D02*
D03*
X172631Y462299D02*
D03*
X176568D02*
D03*
X598063Y318724D02*
D03*
X602000D02*
D03*
X18331Y362299D02*
D03*
X22268D02*
D03*
X76331Y276299D02*
D03*
X80268D02*
D03*
X76331Y268299D02*
D03*
X80268D02*
D03*
X244331Y148299D02*
D03*
X248268D02*
D03*
X154331D02*
D03*
X158268D02*
D03*
X264268Y184299D02*
D03*
X260331D02*
D03*
X242268Y210299D02*
D03*
X238331D02*
D03*
X226331Y339299D02*
D03*
X230268D02*
D03*
X501268Y518799D02*
D03*
X497331D02*
D03*
X501268Y492299D02*
D03*
X497331D02*
D03*
X501268Y488799D02*
D03*
X497331D02*
D03*
X488768Y515799D02*
D03*
X484831D02*
D03*
X488768Y511799D02*
D03*
X484831D02*
D03*
X483768Y507299D02*
D03*
X479831D02*
D03*
X483768Y503799D02*
D03*
X479831D02*
D03*
X483768Y498799D02*
D03*
X479831D02*
D03*
X483768Y495299D02*
D03*
X479831D02*
D03*
X485268Y490799D02*
D03*
X481331D02*
D03*
X485268Y486999D02*
D03*
X481331D02*
D03*
X1040469Y270500D02*
D03*
X1036532D02*
D03*
X636531Y179500D02*
D03*
X640469D02*
D03*
X644531D02*
D03*
X648468D02*
D03*
X1054968Y244000D02*
D03*
X1051031D02*
D03*
X175969Y58000D02*
D03*
X172031D02*
D03*
X175969Y22000D02*
D03*
X172031D02*
D03*
D13*
X585064Y290306D02*
D03*
X581127D02*
D03*
X22632Y325400D02*
D03*
X26568D02*
D03*
X130032Y386000D02*
D03*
X133968D02*
D03*
X1154968Y828000D02*
D03*
X1151031D02*
D03*
X302969Y377000D02*
D03*
X299031D02*
D03*
X299031Y371000D02*
D03*
X302969D02*
D03*
X1171031Y872000D02*
D03*
X1174969D02*
D03*
X80237Y463000D02*
D03*
X76300D02*
D03*
X80237Y453000D02*
D03*
X76300D02*
D03*
X80237Y443000D02*
D03*
X76300D02*
D03*
X79937Y433000D02*
D03*
X76000D02*
D03*
X383968Y180000D02*
D03*
X380031D02*
D03*
X383968Y176000D02*
D03*
X380031D02*
D03*
X280031Y174000D02*
D03*
X283968D02*
D03*
X280031Y170000D02*
D03*
X283968D02*
D03*
X16331Y60299D02*
D03*
X20268D02*
D03*
X20268Y80299D02*
D03*
X16331D02*
D03*
X20268Y95299D02*
D03*
X16331D02*
D03*
X20268Y108799D02*
D03*
X16331D02*
D03*
X896268Y741299D02*
D03*
X892331D02*
D03*
Y838299D02*
D03*
X896268D02*
D03*
X971768Y843099D02*
D03*
X967831D02*
D03*
X992268Y741299D02*
D03*
X988331D02*
D03*
X986331Y838299D02*
D03*
X990268D02*
D03*
X1118268Y832299D02*
D03*
X1114331D02*
D03*
X1118268Y828299D02*
D03*
X1114331D02*
D03*
X994268Y488299D02*
D03*
X990331D02*
D03*
X990268Y494299D02*
D03*
X986331D02*
D03*
X1048768Y360599D02*
D03*
X1044831D02*
D03*
X1026268Y684299D02*
D03*
X1022331D02*
D03*
X1058268Y592299D02*
D03*
X1054331D02*
D03*
X1027512Y206299D02*
D03*
X1031449D02*
D03*
X648268Y136299D02*
D03*
X644331D02*
D03*
X968268Y658299D02*
D03*
X964331D02*
D03*
X968268Y664299D02*
D03*
X964331D02*
D03*
X968268Y670299D02*
D03*
X964331D02*
D03*
X968268Y676299D02*
D03*
X964331D02*
D03*
X176268Y52299D02*
D03*
X172331D02*
D03*
X176268Y46299D02*
D03*
X172331D02*
D03*
X76868Y710099D02*
D03*
X72931D02*
D03*
X76868Y720099D02*
D03*
X72931D02*
D03*
X76868Y730099D02*
D03*
X72931D02*
D03*
X76868Y740099D02*
D03*
X72931D02*
D03*
X704268Y318299D02*
D03*
X700331D02*
D03*
X704268Y314299D02*
D03*
X700331D02*
D03*
X704268Y322299D02*
D03*
X700331D02*
D03*
X158268Y160299D02*
D03*
X154331D02*
D03*
X158268Y136299D02*
D03*
X154331D02*
D03*
X170268Y132299D02*
D03*
X166331D02*
D03*
X248268Y160299D02*
D03*
X244331D02*
D03*
X248268Y136299D02*
D03*
X244331D02*
D03*
X256331Y138299D02*
D03*
X260268D02*
D03*
X260268Y132299D02*
D03*
X256331D02*
D03*
X770331Y168299D02*
D03*
X774268D02*
D03*
X104268Y642299D02*
D03*
X100331D02*
D03*
X136268Y8299D02*
D03*
X132331D02*
D03*
X150268D02*
D03*
X146331D02*
D03*
X930236Y294299D02*
D03*
X926299D02*
D03*
X930268Y290299D02*
D03*
X926331D02*
D03*
X930268Y270299D02*
D03*
X926331D02*
D03*
X930268Y266299D02*
D03*
X926331D02*
D03*
X930268Y274299D02*
D03*
X926331D02*
D03*
X930268Y278299D02*
D03*
X926331D02*
D03*
X930236Y298299D02*
D03*
X926299D02*
D03*
X930236Y302299D02*
D03*
X926299D02*
D03*
X930268Y286299D02*
D03*
X926331D02*
D03*
X930268Y282299D02*
D03*
X926331D02*
D03*
X1021931Y126118D02*
D03*
X1025868D02*
D03*
X176268Y40299D02*
D03*
X172331D02*
D03*
X176268Y28299D02*
D03*
X172331D02*
D03*
X176268Y34299D02*
D03*
X172331D02*
D03*
X1064268Y278299D02*
D03*
X1060331D02*
D03*
X1062268Y722299D02*
D03*
X1058331D02*
D03*
X1080268Y820299D02*
D03*
X1076331D02*
D03*
X714268Y144799D02*
D03*
X710331D02*
D03*
X964268Y498299D02*
D03*
X960331D02*
D03*
X1018268Y258299D02*
D03*
X1014331D02*
D03*
X698531Y518299D02*
D03*
X702468D02*
D03*
X708268Y500299D02*
D03*
X704331D02*
D03*
X800268Y224299D02*
D03*
X796331D02*
D03*
X397768Y508799D02*
D03*
X393831D02*
D03*
X1080331Y562299D02*
D03*
X1084268D02*
D03*
X958331Y506299D02*
D03*
X962268D02*
D03*
X1048331Y382299D02*
D03*
X1052268D02*
D03*
X1025868Y119699D02*
D03*
X1021931D02*
D03*
X100331Y650299D02*
D03*
X104268D02*
D03*
X1000331Y233299D02*
D03*
X1004268D02*
D03*
X1000331Y229299D02*
D03*
X1004268D02*
D03*
X1000331Y225299D02*
D03*
X1004268D02*
D03*
X1000331Y221299D02*
D03*
X1004268D02*
D03*
X1027512Y212299D02*
D03*
X1031449D02*
D03*
X984331Y538299D02*
D03*
X988268D02*
D03*
X952331Y560299D02*
D03*
X956268D02*
D03*
X108331Y676299D02*
D03*
X112268D02*
D03*
X108331Y686299D02*
D03*
X112268D02*
D03*
X954331Y642299D02*
D03*
X958268D02*
D03*
X881969Y102000D02*
D03*
X878032D02*
D03*
X894331Y360299D02*
D03*
X898268D02*
D03*
X701331Y294299D02*
D03*
X705268D02*
D03*
X774268Y164299D02*
D03*
X770331D02*
D03*
X1103331Y858299D02*
D03*
X1107268D02*
D03*
X1103331Y852299D02*
D03*
X1107268D02*
D03*
X1103331Y846299D02*
D03*
X1107268D02*
D03*
X1146831Y885799D02*
D03*
X1150768D02*
D03*
X1103331Y840299D02*
D03*
X1107268D02*
D03*
X1103331Y834299D02*
D03*
X1107268D02*
D03*
X1103331Y828299D02*
D03*
X1107268D02*
D03*
X1103331Y822299D02*
D03*
X1107268D02*
D03*
X22331Y300299D02*
D03*
X26268D02*
D03*
X595931Y496199D02*
D03*
X599868D02*
D03*
X611031Y488099D02*
D03*
X614968D02*
D03*
X614331Y496299D02*
D03*
X618268D02*
D03*
X582931Y488099D02*
D03*
X586868D02*
D03*
X595931Y488199D02*
D03*
X599868D02*
D03*
X142331Y710299D02*
D03*
X146268D02*
D03*
X142331Y720299D02*
D03*
X146268D02*
D03*
X142331Y730299D02*
D03*
X146268D02*
D03*
X142331Y740299D02*
D03*
X146268D02*
D03*
X1064331Y840299D02*
D03*
X1068268D02*
D03*
X210268Y449299D02*
D03*
X206331D02*
D03*
X672331Y490299D02*
D03*
X676268D02*
D03*
X988331Y747299D02*
D03*
X992268D02*
D03*
X988331Y811299D02*
D03*
X992268D02*
D03*
X988331Y805299D02*
D03*
X992268D02*
D03*
X988331Y799299D02*
D03*
X992268D02*
D03*
X988331Y767299D02*
D03*
X992268D02*
D03*
X988331Y793299D02*
D03*
X992268D02*
D03*
X988331Y787299D02*
D03*
X992268D02*
D03*
X988331Y761299D02*
D03*
X992268D02*
D03*
X988331Y781299D02*
D03*
X992268D02*
D03*
X988331Y775299D02*
D03*
X992268D02*
D03*
X1064331Y852299D02*
D03*
X1068268D02*
D03*
X702268Y510299D02*
D03*
X698331D02*
D03*
X672331Y484299D02*
D03*
X676268D02*
D03*
X637268Y450299D02*
D03*
X633331D02*
D03*
X625768Y403799D02*
D03*
X621831D02*
D03*
X611331Y282299D02*
D03*
X615268D02*
D03*
X892331Y747299D02*
D03*
X896268D02*
D03*
X892331Y811299D02*
D03*
X896268D02*
D03*
X892331Y805299D02*
D03*
X896268D02*
D03*
X892331Y799299D02*
D03*
X896268D02*
D03*
X892331Y793299D02*
D03*
X896268D02*
D03*
X892331Y787299D02*
D03*
X896268D02*
D03*
X892331Y781299D02*
D03*
X896268D02*
D03*
X892331Y775299D02*
D03*
X896268D02*
D03*
X967831Y851099D02*
D03*
X971768D02*
D03*
X244331Y142299D02*
D03*
X248268D02*
D03*
X244331Y154299D02*
D03*
X248268D02*
D03*
X166331Y138299D02*
D03*
X170268D02*
D03*
X154331Y142299D02*
D03*
X158268D02*
D03*
X154331Y154299D02*
D03*
X158268D02*
D03*
X211731Y200399D02*
D03*
X215668D02*
D03*
X1076331Y836299D02*
D03*
X1080268D02*
D03*
X644331Y227299D02*
D03*
X648268D02*
D03*
X1076331Y828299D02*
D03*
X1080268D02*
D03*
X1076331Y812299D02*
D03*
X1080268D02*
D03*
X1076331Y804299D02*
D03*
X1080268D02*
D03*
X644331Y222799D02*
D03*
X648268D02*
D03*
X516331Y534299D02*
D03*
X520268D02*
D03*
X780331Y224299D02*
D03*
X784268D02*
D03*
X620331Y192299D02*
D03*
X624268D02*
D03*
X284331Y110299D02*
D03*
X288268D02*
D03*
X665831Y176299D02*
D03*
X669768D02*
D03*
X665831Y167799D02*
D03*
X669768D02*
D03*
X423831Y515299D02*
D03*
X427768D02*
D03*
X73299Y155000D02*
D03*
X69362D02*
D03*
X73299Y143892D02*
D03*
X69362D02*
D03*
X69299Y184299D02*
D03*
X73236D02*
D03*
X69299Y174299D02*
D03*
X73236D02*
D03*
X69299Y164299D02*
D03*
X73236D02*
D03*
X76000Y473000D02*
D03*
X79937D02*
D03*
X76000Y483000D02*
D03*
X79937D02*
D03*
X76000Y493000D02*
D03*
X79937D02*
D03*
X76000Y503000D02*
D03*
X79937D02*
D03*
X76299Y568299D02*
D03*
X80236D02*
D03*
X76299Y578299D02*
D03*
X80236D02*
D03*
X76299Y588299D02*
D03*
X80236D02*
D03*
X76299Y598299D02*
D03*
X80236D02*
D03*
X76299Y608299D02*
D03*
X80236D02*
D03*
X76299Y618299D02*
D03*
X80236D02*
D03*
X76299Y628299D02*
D03*
X80236D02*
D03*
X76299Y638299D02*
D03*
X80236D02*
D03*
X68999Y233999D02*
D03*
X72936D02*
D03*
X68899Y243999D02*
D03*
X72836D02*
D03*
X69000Y254000D02*
D03*
X72937D02*
D03*
X69000Y264000D02*
D03*
X72937D02*
D03*
X212299Y180299D02*
D03*
X208362D02*
D03*
X761668Y154699D02*
D03*
X757731D02*
D03*
X754331Y190299D02*
D03*
X758268D02*
D03*
X797299Y105099D02*
D03*
X801236D02*
D03*
X552032Y366000D02*
D03*
X555969D02*
D03*
X552032Y362000D02*
D03*
X555969D02*
D03*
X552032Y358000D02*
D03*
X555969D02*
D03*
X552032Y370000D02*
D03*
X555969D02*
D03*
X554032Y248000D02*
D03*
X557969D02*
D03*
X554032Y244000D02*
D03*
X557969D02*
D03*
X554032Y236000D02*
D03*
X557969D02*
D03*
X554032Y240000D02*
D03*
X557969D02*
D03*
X273969Y420000D02*
D03*
X270031D02*
D03*
X273969Y424000D02*
D03*
X270031D02*
D03*
X273969Y428000D02*
D03*
X270031D02*
D03*
X273969Y432000D02*
D03*
X270031D02*
D03*
X197731Y63000D02*
D03*
X201669D02*
D03*
X1175031Y808000D02*
D03*
X1178969D02*
D03*
D14*
X486299Y188358D02*
D03*
Y208240D02*
D03*
X406299Y188358D02*
D03*
Y208240D02*
D03*
X1115299Y808240D02*
D03*
Y788358D02*
D03*
X1070299Y136358D02*
D03*
Y156240D02*
D03*
X671499Y134358D02*
D03*
Y154240D02*
D03*
X381999Y447840D02*
D03*
Y427958D02*
D03*
X140299Y338240D02*
D03*
Y318358D02*
D03*
X406769Y448010D02*
D03*
Y428128D02*
D03*
D15*
X147799Y576768D02*
D03*
Y572831D02*
D03*
X914299Y306331D02*
D03*
Y310268D02*
D03*
X129000Y140032D02*
D03*
Y143968D02*
D03*
X130800Y170231D02*
D03*
Y174169D02*
D03*
X135000Y202969D02*
D03*
Y199031D02*
D03*
X140000Y526968D02*
D03*
Y523032D02*
D03*
X130000Y99032D02*
D03*
Y102969D02*
D03*
X131400Y493032D02*
D03*
Y496969D02*
D03*
X132000Y457768D02*
D03*
Y453831D02*
D03*
X134000Y422031D02*
D03*
Y425969D02*
D03*
X1098619Y807069D02*
D03*
Y803131D02*
D03*
X1179000Y933031D02*
D03*
Y936969D02*
D03*
X1109300Y910131D02*
D03*
Y914069D02*
D03*
X127000Y33968D02*
D03*
Y30031D02*
D03*
X837000Y135968D02*
D03*
Y132032D02*
D03*
X876000Y873969D02*
D03*
Y870032D02*
D03*
X203000Y874969D02*
D03*
Y871031D02*
D03*
X900000Y37532D02*
D03*
Y41469D02*
D03*
Y69968D02*
D03*
Y66031D02*
D03*
X948499Y144131D02*
D03*
Y148068D02*
D03*
X502209Y370114D02*
D03*
Y366177D02*
D03*
X807299Y521331D02*
D03*
Y525268D02*
D03*
X913999Y637968D02*
D03*
Y634031D02*
D03*
X840299Y264331D02*
D03*
Y268268D02*
D03*
X844299Y264331D02*
D03*
Y268268D02*
D03*
X1019799Y142268D02*
D03*
Y138331D02*
D03*
X226299Y186268D02*
D03*
Y182331D02*
D03*
X156299Y454231D02*
D03*
Y458168D02*
D03*
X698899Y498068D02*
D03*
Y494131D02*
D03*
X427299Y510268D02*
D03*
Y506331D02*
D03*
X1086299Y736268D02*
D03*
Y732331D02*
D03*
Y744331D02*
D03*
Y748268D02*
D03*
X1077299Y109831D02*
D03*
Y113768D02*
D03*
X1162299Y86331D02*
D03*
Y90268D02*
D03*
X586299Y92331D02*
D03*
Y96268D02*
D03*
X909799Y164831D02*
D03*
Y168768D02*
D03*
X885799Y145331D02*
D03*
Y149268D02*
D03*
X967299Y166331D02*
D03*
Y170268D02*
D03*
X1023799Y162331D02*
D03*
Y166268D02*
D03*
X1000299Y144331D02*
D03*
Y148268D02*
D03*
X991299Y449768D02*
D03*
Y445831D02*
D03*
X1026299Y190268D02*
D03*
Y186331D02*
D03*
X128299Y654331D02*
D03*
Y658268D02*
D03*
X1042299Y740268D02*
D03*
Y736331D02*
D03*
X146299Y72268D02*
D03*
Y68331D02*
D03*
X1042299Y728268D02*
D03*
Y724331D02*
D03*
X753799Y210268D02*
D03*
Y206331D02*
D03*
X763299Y210268D02*
D03*
Y206331D02*
D03*
X1110299Y888331D02*
D03*
Y892268D02*
D03*
X774299Y442268D02*
D03*
Y438331D02*
D03*
X784299Y442268D02*
D03*
Y438331D02*
D03*
X804299Y442268D02*
D03*
Y438331D02*
D03*
X794299Y442268D02*
D03*
Y438331D02*
D03*
X878000Y320469D02*
D03*
Y316532D02*
D03*
X1034299Y314268D02*
D03*
Y310331D02*
D03*
X1040299Y314268D02*
D03*
Y310331D02*
D03*
X762299Y140268D02*
D03*
Y136331D02*
D03*
X858299Y442268D02*
D03*
Y438331D02*
D03*
X876299Y442268D02*
D03*
Y438331D02*
D03*
X870299Y442268D02*
D03*
Y438331D02*
D03*
X852299Y442268D02*
D03*
Y438331D02*
D03*
X882299Y442268D02*
D03*
Y438331D02*
D03*
X864299Y442268D02*
D03*
Y438331D02*
D03*
X1009999Y869031D02*
D03*
Y872968D02*
D03*
X1013599Y869031D02*
D03*
Y872968D02*
D03*
X1017999Y869031D02*
D03*
Y872968D02*
D03*
X1021599Y869031D02*
D03*
Y872968D02*
D03*
X1029799Y869031D02*
D03*
Y872968D02*
D03*
X1033399Y869031D02*
D03*
Y872968D02*
D03*
X1037799Y869031D02*
D03*
Y872968D02*
D03*
X1041399Y869231D02*
D03*
Y873168D02*
D03*
X1039799Y788768D02*
D03*
Y784831D02*
D03*
X1027799Y788768D02*
D03*
Y784831D02*
D03*
X1035799Y788768D02*
D03*
Y784831D02*
D03*
X1031799Y788768D02*
D03*
Y784831D02*
D03*
X1063299Y892268D02*
D03*
Y888331D02*
D03*
X1043799Y788768D02*
D03*
Y784831D02*
D03*
X1047799Y788768D02*
D03*
Y784831D02*
D03*
X978799Y904268D02*
D03*
Y900331D02*
D03*
X414199Y485768D02*
D03*
Y481831D02*
D03*
X398199Y485768D02*
D03*
Y481831D02*
D03*
X421899Y485768D02*
D03*
Y481831D02*
D03*
X406199D02*
D03*
Y485768D02*
D03*
X418299Y497868D02*
D03*
Y493931D02*
D03*
X426299Y497868D02*
D03*
Y493931D02*
D03*
X410299Y493931D02*
D03*
Y497868D02*
D03*
X872299Y812331D02*
D03*
Y816268D02*
D03*
X633299Y280331D02*
D03*
Y284268D02*
D03*
X212499Y323231D02*
D03*
Y327168D02*
D03*
X248299Y240331D02*
D03*
Y244268D02*
D03*
X264299Y250268D02*
D03*
Y246331D02*
D03*
X268299Y250268D02*
D03*
Y246331D02*
D03*
X21480Y376102D02*
D03*
Y372165D02*
D03*
X52799Y367331D02*
D03*
Y371268D02*
D03*
X15480Y376102D02*
D03*
Y372165D02*
D03*
X919499Y868731D02*
D03*
Y872668D02*
D03*
X923099Y868731D02*
D03*
Y872668D02*
D03*
X927499Y868731D02*
D03*
Y872668D02*
D03*
X931099Y868731D02*
D03*
Y872668D02*
D03*
X939099Y868731D02*
D03*
Y872668D02*
D03*
X942699Y868731D02*
D03*
Y872668D02*
D03*
X947099Y868731D02*
D03*
Y872668D02*
D03*
X950699Y868731D02*
D03*
Y872668D02*
D03*
X978499Y917468D02*
D03*
Y913531D02*
D03*
X896499Y897868D02*
D03*
Y893931D02*
D03*
X882299Y848331D02*
D03*
Y852268D02*
D03*
X240299Y126268D02*
D03*
Y122331D02*
D03*
X150299Y594268D02*
D03*
Y590331D02*
D03*
X140299Y594268D02*
D03*
Y590331D02*
D03*
X130299Y590331D02*
D03*
Y594268D02*
D03*
X148299Y126268D02*
D03*
Y122331D02*
D03*
X218299Y194268D02*
D03*
Y190331D02*
D03*
X1022699Y588268D02*
D03*
Y584331D02*
D03*
X1013228Y588614D02*
D03*
Y584677D02*
D03*
X1005228Y588614D02*
D03*
Y584677D02*
D03*
X997228D02*
D03*
Y588614D02*
D03*
X989228D02*
D03*
Y584677D02*
D03*
X981228Y588614D02*
D03*
Y584677D02*
D03*
X658299Y194268D02*
D03*
Y190331D02*
D03*
X902299Y485931D02*
D03*
Y489868D02*
D03*
X970299Y804331D02*
D03*
Y808268D02*
D03*
X894299Y724331D02*
D03*
Y728268D02*
D03*
X1110299Y884268D02*
D03*
Y880331D02*
D03*
X370299Y120331D02*
D03*
Y124268D02*
D03*
X570000Y875968D02*
D03*
Y872031D02*
D03*
X874500Y615842D02*
D03*
Y611905D02*
D03*
X569500Y615842D02*
D03*
Y611905D02*
D03*
X508000Y875469D02*
D03*
Y871531D02*
D03*
X506500Y615842D02*
D03*
Y611905D02*
D03*
X201000Y615842D02*
D03*
Y611905D02*
D03*
X1065000Y250031D02*
D03*
Y253969D02*
D03*
D16*
X200260Y31118D02*
D03*
X207740D02*
D03*
Y20882D02*
D03*
X204000D02*
D03*
X200260D02*
D03*
X260559Y190181D02*
D03*
X264299D02*
D03*
X268039D02*
D03*
Y200417D02*
D03*
X260559D02*
D03*
X120039Y661417D02*
D03*
X116299D02*
D03*
X112559D02*
D03*
Y651181D02*
D03*
X120039D02*
D03*
D17*
X1161669Y283441D02*
D03*
Y286000D02*
D03*
Y288559D02*
D03*
X1170331D02*
D03*
Y286000D02*
D03*
Y283441D02*
D03*
X1161669Y270441D02*
D03*
Y273000D02*
D03*
Y275559D02*
D03*
X1170331D02*
D03*
Y273000D02*
D03*
Y270441D02*
D03*
X1161669Y257441D02*
D03*
Y260000D02*
D03*
Y262559D02*
D03*
X1170331D02*
D03*
Y260000D02*
D03*
Y257441D02*
D03*
X940298Y490241D02*
D03*
Y492800D02*
D03*
Y495359D02*
D03*
X948959D02*
D03*
Y492800D02*
D03*
Y490241D02*
D03*
X992569Y466541D02*
D03*
Y469100D02*
D03*
Y471659D02*
D03*
X1001231D02*
D03*
Y469100D02*
D03*
Y466541D02*
D03*
X901968Y662858D02*
D03*
Y660299D02*
D03*
Y657740D02*
D03*
X910630D02*
D03*
Y660299D02*
D03*
Y662858D02*
D03*
X901968Y630858D02*
D03*
Y628299D02*
D03*
Y625740D02*
D03*
X910630D02*
D03*
Y628299D02*
D03*
Y630858D02*
D03*
X110630Y934039D02*
D03*
Y930299D02*
D03*
Y926559D02*
D03*
X101968D02*
D03*
Y930299D02*
D03*
Y934039D02*
D03*
X894630Y86039D02*
D03*
Y82299D02*
D03*
Y78559D02*
D03*
X885968D02*
D03*
Y82299D02*
D03*
Y86039D02*
D03*
X901968Y646858D02*
D03*
Y644299D02*
D03*
Y641740D02*
D03*
X910630D02*
D03*
Y644299D02*
D03*
Y646858D02*
D03*
D19*
X702756Y165354D02*
D03*
Y169291D02*
D03*
Y173228D02*
D03*
Y177165D02*
D03*
Y181102D02*
D03*
Y185039D02*
D03*
Y188976D02*
D03*
Y192913D02*
D03*
X706693Y165354D02*
D03*
Y169291D02*
D03*
Y173228D02*
D03*
Y177165D02*
D03*
Y181102D02*
D03*
Y185039D02*
D03*
Y188976D02*
D03*
Y192913D02*
D03*
X710630Y165354D02*
D03*
Y169291D02*
D03*
Y173228D02*
D03*
Y177165D02*
D03*
Y181102D02*
D03*
Y185039D02*
D03*
Y188976D02*
D03*
Y192913D02*
D03*
X714567Y165354D02*
D03*
Y169291D02*
D03*
Y173228D02*
D03*
Y177165D02*
D03*
Y181102D02*
D03*
Y185039D02*
D03*
Y188976D02*
D03*
Y192913D02*
D03*
X718504Y165354D02*
D03*
Y169291D02*
D03*
Y173228D02*
D03*
Y177165D02*
D03*
Y181102D02*
D03*
Y185039D02*
D03*
Y188976D02*
D03*
Y192913D02*
D03*
X722441Y165354D02*
D03*
Y169291D02*
D03*
Y173228D02*
D03*
Y177165D02*
D03*
Y181102D02*
D03*
Y185039D02*
D03*
Y188976D02*
D03*
Y192913D02*
D03*
X726378Y165354D02*
D03*
Y169291D02*
D03*
Y173228D02*
D03*
Y177165D02*
D03*
Y181102D02*
D03*
Y185039D02*
D03*
Y188976D02*
D03*
Y192913D02*
D03*
X730315Y165354D02*
D03*
Y169291D02*
D03*
Y173228D02*
D03*
Y177165D02*
D03*
Y181102D02*
D03*
Y185039D02*
D03*
Y188976D02*
D03*
Y192913D02*
D03*
X950787Y807087D02*
D03*
X946850D02*
D03*
X942913D02*
D03*
X938976D02*
D03*
X935039D02*
D03*
X931102D02*
D03*
X927165D02*
D03*
X923228D02*
D03*
X919291D02*
D03*
X950787Y811024D02*
D03*
X946850D02*
D03*
X942913D02*
D03*
X938976D02*
D03*
X935039D02*
D03*
X931102D02*
D03*
X927165D02*
D03*
X923228D02*
D03*
X919291D02*
D03*
X950787Y814961D02*
D03*
X946850D02*
D03*
X942913D02*
D03*
X938976D02*
D03*
X935039D02*
D03*
X931102D02*
D03*
X927165D02*
D03*
X923228D02*
D03*
X919291D02*
D03*
X950787Y818898D02*
D03*
X946850D02*
D03*
X942913D02*
D03*
X938976D02*
D03*
X935039D02*
D03*
X931102D02*
D03*
X927165D02*
D03*
X923228D02*
D03*
X919291D02*
D03*
X950787Y822835D02*
D03*
X946850D02*
D03*
X942913D02*
D03*
X938976D02*
D03*
X935039D02*
D03*
X931102D02*
D03*
X927165D02*
D03*
X923228D02*
D03*
X919291D02*
D03*
X950787Y826772D02*
D03*
X946850D02*
D03*
X942913D02*
D03*
X938976D02*
D03*
X935039D02*
D03*
X931102D02*
D03*
X927165D02*
D03*
X923228D02*
D03*
X919291D02*
D03*
X950787Y830709D02*
D03*
X946850D02*
D03*
X942913D02*
D03*
X938976D02*
D03*
X935039D02*
D03*
X931102D02*
D03*
X927165D02*
D03*
X923228D02*
D03*
X919291D02*
D03*
X950787Y834646D02*
D03*
X946850D02*
D03*
X942913D02*
D03*
X938976D02*
D03*
X935039D02*
D03*
X931102D02*
D03*
X927165D02*
D03*
X923228D02*
D03*
X919291D02*
D03*
X950787Y838583D02*
D03*
X946850D02*
D03*
X942913D02*
D03*
X938976D02*
D03*
X935039D02*
D03*
X931102D02*
D03*
X927165D02*
D03*
X923228D02*
D03*
X919291D02*
D03*
X950787Y842520D02*
D03*
X946850D02*
D03*
X942913D02*
D03*
X938976D02*
D03*
X935039D02*
D03*
X931102D02*
D03*
X927165D02*
D03*
X923228D02*
D03*
X919291D02*
D03*
X950787Y846457D02*
D03*
X946850D02*
D03*
X942913D02*
D03*
X938976D02*
D03*
X935039D02*
D03*
X931102D02*
D03*
X927165D02*
D03*
X923228D02*
D03*
X919291D02*
D03*
X950787Y850394D02*
D03*
X946850D02*
D03*
X942913D02*
D03*
X938976D02*
D03*
X935039D02*
D03*
X931102D02*
D03*
X927165D02*
D03*
X923228D02*
D03*
X919291D02*
D03*
X950787Y854331D02*
D03*
X946850D02*
D03*
X942913D02*
D03*
X938976D02*
D03*
X935039D02*
D03*
X931102D02*
D03*
X927165D02*
D03*
X923228D02*
D03*
X919291D02*
D03*
X1041339Y807087D02*
D03*
X1037402D02*
D03*
X1033465D02*
D03*
X1029528D02*
D03*
X1025591D02*
D03*
X1021653D02*
D03*
X1017717D02*
D03*
X1013780D02*
D03*
X1009842D02*
D03*
X1041339Y811024D02*
D03*
X1037402D02*
D03*
X1033465D02*
D03*
X1029528D02*
D03*
X1025591D02*
D03*
X1021653D02*
D03*
X1017717D02*
D03*
X1013780D02*
D03*
X1009842D02*
D03*
X1041339Y814961D02*
D03*
X1037402D02*
D03*
X1033465D02*
D03*
X1029528D02*
D03*
X1025591D02*
D03*
X1021653D02*
D03*
X1017717D02*
D03*
X1013780D02*
D03*
X1009842D02*
D03*
X1041339Y818898D02*
D03*
X1037402D02*
D03*
X1033465D02*
D03*
X1029528D02*
D03*
X1025591D02*
D03*
X1021653D02*
D03*
X1017717D02*
D03*
X1013780D02*
D03*
X1009842D02*
D03*
X1041339Y822835D02*
D03*
X1037402D02*
D03*
X1033465D02*
D03*
X1029528D02*
D03*
X1025591D02*
D03*
X1021653D02*
D03*
X1017717D02*
D03*
X1013780D02*
D03*
X1009842D02*
D03*
X1041339Y826772D02*
D03*
X1037402D02*
D03*
X1033465D02*
D03*
X1029528D02*
D03*
X1025591D02*
D03*
X1021653D02*
D03*
X1017717D02*
D03*
X1013780D02*
D03*
X1009842D02*
D03*
X1041339Y830709D02*
D03*
X1037402D02*
D03*
X1033465D02*
D03*
X1029528D02*
D03*
X1025591D02*
D03*
X1021653D02*
D03*
X1017717D02*
D03*
X1013780D02*
D03*
X1009842D02*
D03*
X1041339Y834646D02*
D03*
X1037402D02*
D03*
X1033465D02*
D03*
X1029528D02*
D03*
X1025591D02*
D03*
X1021653D02*
D03*
X1017717D02*
D03*
X1013780D02*
D03*
X1009842D02*
D03*
X1041339Y838583D02*
D03*
X1037402D02*
D03*
X1033465D02*
D03*
X1029528D02*
D03*
X1025591D02*
D03*
X1021653D02*
D03*
X1017717D02*
D03*
X1013780D02*
D03*
X1009842D02*
D03*
X1041339Y842520D02*
D03*
X1037402D02*
D03*
X1033465D02*
D03*
X1029528D02*
D03*
X1025591D02*
D03*
X1021653D02*
D03*
X1017717D02*
D03*
X1013780D02*
D03*
X1009842D02*
D03*
X1041339Y846457D02*
D03*
X1037402D02*
D03*
X1033465D02*
D03*
X1029528D02*
D03*
X1025591D02*
D03*
X1021653D02*
D03*
X1017717D02*
D03*
X1013780D02*
D03*
X1009842D02*
D03*
X1041339Y850394D02*
D03*
X1037402D02*
D03*
X1033465D02*
D03*
X1029528D02*
D03*
X1025591D02*
D03*
X1021653D02*
D03*
X1017717D02*
D03*
X1013780D02*
D03*
X1009842D02*
D03*
X1041339Y854331D02*
D03*
X1037402D02*
D03*
X1033465D02*
D03*
X1029528D02*
D03*
X1025591D02*
D03*
X1021653D02*
D03*
X1017717D02*
D03*
X1013780D02*
D03*
X1009842D02*
D03*
X849260Y411260D02*
D03*
Y407323D02*
D03*
Y403386D02*
D03*
Y399449D02*
D03*
Y395512D02*
D03*
Y391575D02*
D03*
Y387638D02*
D03*
Y383701D02*
D03*
Y379764D02*
D03*
Y375827D02*
D03*
Y371890D02*
D03*
Y367953D02*
D03*
Y364016D02*
D03*
Y360079D02*
D03*
Y356142D02*
D03*
Y352205D02*
D03*
Y348268D02*
D03*
Y344331D02*
D03*
Y340394D02*
D03*
Y336457D02*
D03*
Y332520D02*
D03*
Y328583D02*
D03*
Y324646D02*
D03*
Y320709D02*
D03*
Y316772D02*
D03*
Y312835D02*
D03*
Y308898D02*
D03*
Y304961D02*
D03*
Y301024D02*
D03*
Y297087D02*
D03*
Y293150D02*
D03*
Y289213D02*
D03*
Y285276D02*
D03*
Y281339D02*
D03*
X845323Y411260D02*
D03*
Y407323D02*
D03*
Y403386D02*
D03*
Y399449D02*
D03*
Y395512D02*
D03*
Y391575D02*
D03*
Y387638D02*
D03*
Y383701D02*
D03*
Y379764D02*
D03*
Y375827D02*
D03*
Y371890D02*
D03*
Y367953D02*
D03*
Y364016D02*
D03*
Y360079D02*
D03*
Y356142D02*
D03*
Y352205D02*
D03*
Y348268D02*
D03*
Y344331D02*
D03*
Y340394D02*
D03*
Y336457D02*
D03*
Y332520D02*
D03*
Y328583D02*
D03*
Y324646D02*
D03*
Y320709D02*
D03*
Y316772D02*
D03*
Y312835D02*
D03*
Y308898D02*
D03*
Y304961D02*
D03*
Y301024D02*
D03*
Y297087D02*
D03*
Y293150D02*
D03*
Y289213D02*
D03*
Y285276D02*
D03*
Y281339D02*
D03*
X841386Y411260D02*
D03*
Y407323D02*
D03*
Y403386D02*
D03*
Y399449D02*
D03*
Y395512D02*
D03*
Y391575D02*
D03*
Y387638D02*
D03*
Y383701D02*
D03*
Y379764D02*
D03*
Y375827D02*
D03*
Y371890D02*
D03*
Y367953D02*
D03*
Y364016D02*
D03*
Y360079D02*
D03*
Y356142D02*
D03*
Y352205D02*
D03*
Y348268D02*
D03*
Y344331D02*
D03*
Y340394D02*
D03*
Y336457D02*
D03*
Y332520D02*
D03*
Y328583D02*
D03*
Y324646D02*
D03*
Y320709D02*
D03*
Y316772D02*
D03*
Y312835D02*
D03*
Y308898D02*
D03*
Y304961D02*
D03*
Y301024D02*
D03*
Y297087D02*
D03*
Y293150D02*
D03*
Y289213D02*
D03*
Y285276D02*
D03*
Y281339D02*
D03*
X837449Y411260D02*
D03*
Y407323D02*
D03*
Y403386D02*
D03*
Y399449D02*
D03*
Y395512D02*
D03*
Y391575D02*
D03*
Y387638D02*
D03*
Y383701D02*
D03*
Y379764D02*
D03*
Y375827D02*
D03*
Y371890D02*
D03*
Y367953D02*
D03*
Y364016D02*
D03*
Y360079D02*
D03*
Y356142D02*
D03*
Y352205D02*
D03*
Y348268D02*
D03*
Y344331D02*
D03*
Y340394D02*
D03*
Y336457D02*
D03*
Y332520D02*
D03*
Y328583D02*
D03*
Y324646D02*
D03*
Y320709D02*
D03*
Y316772D02*
D03*
Y312835D02*
D03*
Y308898D02*
D03*
Y304961D02*
D03*
Y301024D02*
D03*
Y297087D02*
D03*
Y293150D02*
D03*
Y289213D02*
D03*
Y285276D02*
D03*
Y281339D02*
D03*
X833512Y411260D02*
D03*
Y407323D02*
D03*
Y403386D02*
D03*
Y399449D02*
D03*
Y395512D02*
D03*
Y391575D02*
D03*
Y387638D02*
D03*
Y383701D02*
D03*
Y379764D02*
D03*
Y375827D02*
D03*
Y371890D02*
D03*
Y367953D02*
D03*
Y364016D02*
D03*
Y360079D02*
D03*
Y356142D02*
D03*
Y352205D02*
D03*
Y348268D02*
D03*
Y344331D02*
D03*
Y340394D02*
D03*
Y336457D02*
D03*
Y332520D02*
D03*
Y328583D02*
D03*
Y324646D02*
D03*
Y320709D02*
D03*
Y316772D02*
D03*
Y312835D02*
D03*
Y308898D02*
D03*
Y304961D02*
D03*
Y301024D02*
D03*
Y297087D02*
D03*
Y293150D02*
D03*
Y289213D02*
D03*
Y285276D02*
D03*
Y281339D02*
D03*
X829575Y411260D02*
D03*
Y407323D02*
D03*
Y403386D02*
D03*
Y399449D02*
D03*
Y395512D02*
D03*
Y297087D02*
D03*
Y293150D02*
D03*
Y289213D02*
D03*
Y285276D02*
D03*
Y281339D02*
D03*
X825638Y411260D02*
D03*
Y407323D02*
D03*
Y403386D02*
D03*
Y399449D02*
D03*
Y395512D02*
D03*
Y297087D02*
D03*
Y293150D02*
D03*
Y289213D02*
D03*
Y285276D02*
D03*
Y281339D02*
D03*
X821701Y411260D02*
D03*
Y407323D02*
D03*
Y403386D02*
D03*
Y399449D02*
D03*
Y395512D02*
D03*
Y297087D02*
D03*
Y293150D02*
D03*
Y289213D02*
D03*
Y285276D02*
D03*
Y281339D02*
D03*
X817764Y411260D02*
D03*
Y407323D02*
D03*
Y403386D02*
D03*
Y399449D02*
D03*
Y395512D02*
D03*
Y297087D02*
D03*
Y293150D02*
D03*
Y289213D02*
D03*
Y285276D02*
D03*
Y281339D02*
D03*
X813827Y411260D02*
D03*
Y407323D02*
D03*
Y403386D02*
D03*
Y399449D02*
D03*
Y395512D02*
D03*
Y297087D02*
D03*
Y293150D02*
D03*
Y289213D02*
D03*
Y285276D02*
D03*
Y281339D02*
D03*
X809890Y411260D02*
D03*
Y407323D02*
D03*
Y403386D02*
D03*
Y399449D02*
D03*
Y395512D02*
D03*
Y297087D02*
D03*
Y293150D02*
D03*
Y289213D02*
D03*
Y285276D02*
D03*
Y281339D02*
D03*
X805953Y411260D02*
D03*
Y407323D02*
D03*
Y403386D02*
D03*
Y399449D02*
D03*
Y395512D02*
D03*
Y297087D02*
D03*
Y293150D02*
D03*
Y289213D02*
D03*
Y285276D02*
D03*
Y281339D02*
D03*
X802016Y411260D02*
D03*
Y407323D02*
D03*
Y403386D02*
D03*
Y399449D02*
D03*
Y395512D02*
D03*
Y364016D02*
D03*
Y360079D02*
D03*
Y356142D02*
D03*
Y352205D02*
D03*
Y348268D02*
D03*
Y344331D02*
D03*
Y340394D02*
D03*
Y336457D02*
D03*
Y332520D02*
D03*
Y328583D02*
D03*
Y297087D02*
D03*
Y293150D02*
D03*
Y289213D02*
D03*
Y285276D02*
D03*
Y281339D02*
D03*
X798079Y411260D02*
D03*
Y407323D02*
D03*
Y403386D02*
D03*
Y399449D02*
D03*
Y395512D02*
D03*
Y364016D02*
D03*
Y360079D02*
D03*
Y356142D02*
D03*
Y352205D02*
D03*
Y348268D02*
D03*
Y344331D02*
D03*
Y340394D02*
D03*
Y336457D02*
D03*
Y332520D02*
D03*
Y328583D02*
D03*
Y297087D02*
D03*
Y293150D02*
D03*
Y289213D02*
D03*
Y285276D02*
D03*
Y281339D02*
D03*
X794142Y411260D02*
D03*
Y407323D02*
D03*
Y403386D02*
D03*
Y399449D02*
D03*
Y395512D02*
D03*
Y364016D02*
D03*
Y360079D02*
D03*
Y356142D02*
D03*
Y352205D02*
D03*
Y348268D02*
D03*
Y344331D02*
D03*
Y340394D02*
D03*
Y336457D02*
D03*
Y332520D02*
D03*
Y328583D02*
D03*
Y297087D02*
D03*
Y293150D02*
D03*
Y289213D02*
D03*
Y285276D02*
D03*
Y281339D02*
D03*
X790205Y411260D02*
D03*
Y407323D02*
D03*
Y403386D02*
D03*
Y399449D02*
D03*
Y395512D02*
D03*
Y364016D02*
D03*
Y360079D02*
D03*
Y356142D02*
D03*
Y352205D02*
D03*
Y348268D02*
D03*
Y344331D02*
D03*
Y340394D02*
D03*
Y336457D02*
D03*
Y332520D02*
D03*
Y328583D02*
D03*
Y297087D02*
D03*
Y293150D02*
D03*
Y289213D02*
D03*
Y285276D02*
D03*
Y281339D02*
D03*
X786268Y411260D02*
D03*
Y407323D02*
D03*
Y403386D02*
D03*
Y399449D02*
D03*
Y395512D02*
D03*
Y364016D02*
D03*
Y360079D02*
D03*
Y356142D02*
D03*
Y352205D02*
D03*
Y348268D02*
D03*
Y344331D02*
D03*
Y340394D02*
D03*
Y336457D02*
D03*
Y332520D02*
D03*
Y328583D02*
D03*
Y297087D02*
D03*
Y293150D02*
D03*
Y289213D02*
D03*
Y285276D02*
D03*
Y281339D02*
D03*
X782331Y411260D02*
D03*
Y407323D02*
D03*
Y403386D02*
D03*
Y399449D02*
D03*
Y395512D02*
D03*
Y364016D02*
D03*
Y360079D02*
D03*
Y356142D02*
D03*
Y352205D02*
D03*
Y348268D02*
D03*
Y344331D02*
D03*
Y340394D02*
D03*
Y336457D02*
D03*
Y332520D02*
D03*
Y328583D02*
D03*
Y297087D02*
D03*
Y293150D02*
D03*
Y289213D02*
D03*
Y285276D02*
D03*
Y281339D02*
D03*
X778394Y411260D02*
D03*
Y407323D02*
D03*
Y403386D02*
D03*
Y399449D02*
D03*
Y395512D02*
D03*
Y364016D02*
D03*
Y360079D02*
D03*
Y356142D02*
D03*
Y352205D02*
D03*
Y348268D02*
D03*
Y344331D02*
D03*
Y340394D02*
D03*
Y336457D02*
D03*
Y332520D02*
D03*
Y328583D02*
D03*
Y297087D02*
D03*
Y293150D02*
D03*
Y289213D02*
D03*
Y285276D02*
D03*
Y281339D02*
D03*
X774457Y411260D02*
D03*
Y407323D02*
D03*
Y403386D02*
D03*
Y399449D02*
D03*
Y395512D02*
D03*
Y364016D02*
D03*
Y360079D02*
D03*
Y356142D02*
D03*
Y352205D02*
D03*
Y348268D02*
D03*
Y344331D02*
D03*
Y340394D02*
D03*
Y336457D02*
D03*
Y332520D02*
D03*
Y328583D02*
D03*
Y297087D02*
D03*
Y293150D02*
D03*
Y289213D02*
D03*
Y285276D02*
D03*
Y281339D02*
D03*
X770520Y411260D02*
D03*
Y407323D02*
D03*
Y403386D02*
D03*
Y399449D02*
D03*
Y395512D02*
D03*
Y364016D02*
D03*
Y360079D02*
D03*
Y356142D02*
D03*
Y352205D02*
D03*
Y348268D02*
D03*
Y344331D02*
D03*
Y340394D02*
D03*
Y336457D02*
D03*
Y332520D02*
D03*
Y328583D02*
D03*
Y297087D02*
D03*
Y293150D02*
D03*
Y289213D02*
D03*
Y285276D02*
D03*
Y281339D02*
D03*
X766583Y411260D02*
D03*
Y407323D02*
D03*
Y403386D02*
D03*
Y399449D02*
D03*
Y395512D02*
D03*
Y364016D02*
D03*
Y360079D02*
D03*
Y356142D02*
D03*
Y352205D02*
D03*
Y348268D02*
D03*
Y344331D02*
D03*
Y340394D02*
D03*
Y336457D02*
D03*
Y332520D02*
D03*
Y328583D02*
D03*
Y297087D02*
D03*
Y293150D02*
D03*
Y289213D02*
D03*
Y285276D02*
D03*
Y281339D02*
D03*
X762646Y411260D02*
D03*
Y407323D02*
D03*
Y403386D02*
D03*
Y399449D02*
D03*
Y395512D02*
D03*
Y297087D02*
D03*
Y293150D02*
D03*
Y289213D02*
D03*
Y285276D02*
D03*
Y281339D02*
D03*
X758709Y411260D02*
D03*
Y407323D02*
D03*
Y403386D02*
D03*
Y399449D02*
D03*
Y395512D02*
D03*
Y297087D02*
D03*
Y293150D02*
D03*
Y289213D02*
D03*
Y285276D02*
D03*
Y281339D02*
D03*
X754772Y411260D02*
D03*
Y407323D02*
D03*
Y403386D02*
D03*
Y399449D02*
D03*
Y395512D02*
D03*
Y297087D02*
D03*
Y293150D02*
D03*
Y289213D02*
D03*
Y285276D02*
D03*
Y281339D02*
D03*
X750835Y411260D02*
D03*
Y407323D02*
D03*
Y403386D02*
D03*
Y399449D02*
D03*
Y395512D02*
D03*
Y297087D02*
D03*
Y293150D02*
D03*
Y289213D02*
D03*
Y285276D02*
D03*
Y281339D02*
D03*
X746898Y411260D02*
D03*
Y407323D02*
D03*
Y403386D02*
D03*
Y399449D02*
D03*
Y395512D02*
D03*
Y297087D02*
D03*
Y293150D02*
D03*
Y289213D02*
D03*
Y285276D02*
D03*
Y281339D02*
D03*
X742961Y411260D02*
D03*
Y407323D02*
D03*
Y403386D02*
D03*
Y399449D02*
D03*
Y395512D02*
D03*
Y297087D02*
D03*
Y293150D02*
D03*
Y289213D02*
D03*
Y285276D02*
D03*
Y281339D02*
D03*
X739024Y411260D02*
D03*
Y407323D02*
D03*
Y403386D02*
D03*
Y399449D02*
D03*
Y395512D02*
D03*
Y297087D02*
D03*
Y293150D02*
D03*
Y289213D02*
D03*
Y285276D02*
D03*
Y281339D02*
D03*
X735087Y411260D02*
D03*
Y407323D02*
D03*
Y403386D02*
D03*
Y399449D02*
D03*
Y395512D02*
D03*
Y391575D02*
D03*
Y387638D02*
D03*
Y383701D02*
D03*
Y379764D02*
D03*
Y375827D02*
D03*
Y371890D02*
D03*
Y367953D02*
D03*
Y364016D02*
D03*
Y360079D02*
D03*
Y356142D02*
D03*
Y352205D02*
D03*
Y348268D02*
D03*
Y344331D02*
D03*
Y340394D02*
D03*
Y336457D02*
D03*
Y332520D02*
D03*
Y328583D02*
D03*
Y324646D02*
D03*
Y320709D02*
D03*
Y316772D02*
D03*
Y312835D02*
D03*
Y308898D02*
D03*
Y304961D02*
D03*
Y301024D02*
D03*
Y297087D02*
D03*
Y293150D02*
D03*
Y289213D02*
D03*
Y285276D02*
D03*
Y281339D02*
D03*
X731150Y411260D02*
D03*
Y407323D02*
D03*
Y403386D02*
D03*
Y399449D02*
D03*
Y395512D02*
D03*
Y391575D02*
D03*
Y387638D02*
D03*
Y383701D02*
D03*
Y379764D02*
D03*
Y375827D02*
D03*
Y371890D02*
D03*
Y367953D02*
D03*
Y364016D02*
D03*
Y360079D02*
D03*
Y356142D02*
D03*
Y352205D02*
D03*
Y348268D02*
D03*
Y344331D02*
D03*
Y340394D02*
D03*
Y336457D02*
D03*
Y332520D02*
D03*
Y328583D02*
D03*
Y324646D02*
D03*
Y320709D02*
D03*
Y316772D02*
D03*
Y312835D02*
D03*
Y308898D02*
D03*
Y304961D02*
D03*
Y301024D02*
D03*
Y297087D02*
D03*
Y293150D02*
D03*
Y289213D02*
D03*
Y285276D02*
D03*
Y281339D02*
D03*
X727213Y411260D02*
D03*
Y407323D02*
D03*
Y403386D02*
D03*
Y399449D02*
D03*
Y395512D02*
D03*
Y391575D02*
D03*
Y387638D02*
D03*
Y383701D02*
D03*
Y379764D02*
D03*
Y375827D02*
D03*
Y371890D02*
D03*
Y367953D02*
D03*
Y364016D02*
D03*
Y360079D02*
D03*
Y356142D02*
D03*
Y352205D02*
D03*
Y348268D02*
D03*
Y344331D02*
D03*
Y340394D02*
D03*
Y336457D02*
D03*
Y332520D02*
D03*
Y328583D02*
D03*
Y324646D02*
D03*
Y320709D02*
D03*
Y316772D02*
D03*
Y312835D02*
D03*
Y308898D02*
D03*
Y304961D02*
D03*
Y301024D02*
D03*
Y297087D02*
D03*
Y293150D02*
D03*
Y289213D02*
D03*
Y285276D02*
D03*
Y281339D02*
D03*
X723276Y411260D02*
D03*
Y407323D02*
D03*
Y403386D02*
D03*
Y399449D02*
D03*
Y395512D02*
D03*
Y391575D02*
D03*
Y387638D02*
D03*
Y383701D02*
D03*
Y379764D02*
D03*
Y375827D02*
D03*
Y371890D02*
D03*
Y367953D02*
D03*
Y364016D02*
D03*
Y360079D02*
D03*
Y356142D02*
D03*
Y352205D02*
D03*
Y348268D02*
D03*
Y344331D02*
D03*
Y340394D02*
D03*
Y336457D02*
D03*
Y332520D02*
D03*
Y328583D02*
D03*
Y324646D02*
D03*
Y320709D02*
D03*
Y316772D02*
D03*
Y312835D02*
D03*
Y308898D02*
D03*
Y304961D02*
D03*
Y301024D02*
D03*
Y297087D02*
D03*
Y293150D02*
D03*
Y289213D02*
D03*
Y285276D02*
D03*
Y281339D02*
D03*
X719339Y411260D02*
D03*
Y407323D02*
D03*
Y403386D02*
D03*
Y399449D02*
D03*
Y395512D02*
D03*
Y391575D02*
D03*
Y387638D02*
D03*
Y383701D02*
D03*
Y379764D02*
D03*
Y375827D02*
D03*
Y371890D02*
D03*
Y367953D02*
D03*
Y364016D02*
D03*
Y360079D02*
D03*
Y356142D02*
D03*
Y352205D02*
D03*
Y348268D02*
D03*
Y344331D02*
D03*
Y340394D02*
D03*
Y336457D02*
D03*
Y332520D02*
D03*
Y328583D02*
D03*
Y324646D02*
D03*
Y320709D02*
D03*
Y316772D02*
D03*
Y312835D02*
D03*
Y308898D02*
D03*
Y304961D02*
D03*
Y301024D02*
D03*
Y297087D02*
D03*
Y293150D02*
D03*
Y289213D02*
D03*
Y285276D02*
D03*
Y281339D02*
D03*
X488189Y393701D02*
D03*
Y389764D02*
D03*
Y385827D02*
D03*
Y381890D02*
D03*
Y377953D02*
D03*
Y374016D02*
D03*
Y370079D02*
D03*
Y366142D02*
D03*
Y362205D02*
D03*
Y358268D02*
D03*
Y354331D02*
D03*
Y350394D02*
D03*
Y346457D02*
D03*
Y342520D02*
D03*
Y338583D02*
D03*
Y334646D02*
D03*
Y330709D02*
D03*
Y326772D02*
D03*
Y322835D02*
D03*
Y318898D02*
D03*
Y314961D02*
D03*
Y311024D02*
D03*
Y307087D02*
D03*
Y303150D02*
D03*
Y299213D02*
D03*
Y295276D02*
D03*
Y291339D02*
D03*
Y287402D02*
D03*
Y283465D02*
D03*
Y279528D02*
D03*
Y275590D02*
D03*
Y271654D02*
D03*
Y267717D02*
D03*
Y263779D02*
D03*
Y259842D02*
D03*
Y255906D02*
D03*
Y251969D02*
D03*
Y248031D02*
D03*
Y244094D02*
D03*
Y240158D02*
D03*
X484252Y397638D02*
D03*
Y393701D02*
D03*
Y389764D02*
D03*
Y385827D02*
D03*
Y381890D02*
D03*
Y377953D02*
D03*
Y374016D02*
D03*
Y370079D02*
D03*
Y366142D02*
D03*
Y362205D02*
D03*
Y358268D02*
D03*
Y354331D02*
D03*
Y350394D02*
D03*
Y346457D02*
D03*
Y342520D02*
D03*
Y338583D02*
D03*
Y334646D02*
D03*
Y330709D02*
D03*
Y326772D02*
D03*
Y322835D02*
D03*
Y318898D02*
D03*
Y314961D02*
D03*
Y311024D02*
D03*
Y307087D02*
D03*
Y303150D02*
D03*
Y299213D02*
D03*
Y295276D02*
D03*
Y291339D02*
D03*
Y287402D02*
D03*
Y283465D02*
D03*
Y279528D02*
D03*
Y275590D02*
D03*
Y271654D02*
D03*
Y267717D02*
D03*
Y263779D02*
D03*
Y259842D02*
D03*
Y255906D02*
D03*
Y251969D02*
D03*
Y248031D02*
D03*
Y244094D02*
D03*
Y240158D02*
D03*
Y236221D02*
D03*
X480315Y397638D02*
D03*
Y393701D02*
D03*
Y389764D02*
D03*
Y385827D02*
D03*
Y381890D02*
D03*
Y377953D02*
D03*
Y374016D02*
D03*
Y370079D02*
D03*
Y366142D02*
D03*
Y362205D02*
D03*
Y358268D02*
D03*
Y354331D02*
D03*
Y350394D02*
D03*
Y346457D02*
D03*
Y342520D02*
D03*
Y338583D02*
D03*
Y334646D02*
D03*
Y330709D02*
D03*
Y326772D02*
D03*
Y322835D02*
D03*
Y318898D02*
D03*
Y314961D02*
D03*
Y311024D02*
D03*
Y307087D02*
D03*
Y303150D02*
D03*
Y299213D02*
D03*
Y295276D02*
D03*
Y291339D02*
D03*
Y287402D02*
D03*
Y283465D02*
D03*
Y279528D02*
D03*
Y275590D02*
D03*
Y271654D02*
D03*
Y267717D02*
D03*
Y263779D02*
D03*
Y259842D02*
D03*
Y255906D02*
D03*
Y251969D02*
D03*
Y248031D02*
D03*
Y244094D02*
D03*
Y240158D02*
D03*
Y236221D02*
D03*
X476378Y397638D02*
D03*
Y393701D02*
D03*
Y389764D02*
D03*
Y385827D02*
D03*
Y381890D02*
D03*
Y377953D02*
D03*
Y374016D02*
D03*
Y370079D02*
D03*
Y366142D02*
D03*
Y362205D02*
D03*
Y358268D02*
D03*
Y354331D02*
D03*
Y350394D02*
D03*
Y346457D02*
D03*
Y342520D02*
D03*
Y338583D02*
D03*
Y334646D02*
D03*
Y330709D02*
D03*
Y326772D02*
D03*
Y322835D02*
D03*
Y318898D02*
D03*
Y314961D02*
D03*
Y311024D02*
D03*
Y307087D02*
D03*
Y303150D02*
D03*
Y299213D02*
D03*
Y295276D02*
D03*
Y291339D02*
D03*
Y287402D02*
D03*
Y283465D02*
D03*
Y279528D02*
D03*
Y275590D02*
D03*
Y271654D02*
D03*
Y267717D02*
D03*
Y263779D02*
D03*
Y259842D02*
D03*
Y255906D02*
D03*
Y251969D02*
D03*
Y248031D02*
D03*
Y244094D02*
D03*
Y240158D02*
D03*
Y236221D02*
D03*
X472441Y397638D02*
D03*
Y393701D02*
D03*
Y389764D02*
D03*
Y385827D02*
D03*
Y381890D02*
D03*
Y377953D02*
D03*
Y374016D02*
D03*
Y370079D02*
D03*
Y366142D02*
D03*
Y362205D02*
D03*
Y358268D02*
D03*
Y354331D02*
D03*
Y350394D02*
D03*
Y346457D02*
D03*
Y342520D02*
D03*
Y338583D02*
D03*
Y334646D02*
D03*
Y330709D02*
D03*
Y326772D02*
D03*
Y322835D02*
D03*
Y318898D02*
D03*
Y314961D02*
D03*
Y311024D02*
D03*
Y307087D02*
D03*
Y303150D02*
D03*
Y299213D02*
D03*
Y295276D02*
D03*
Y291339D02*
D03*
Y287402D02*
D03*
Y283465D02*
D03*
Y279528D02*
D03*
Y275590D02*
D03*
Y271654D02*
D03*
Y267717D02*
D03*
Y263779D02*
D03*
Y259842D02*
D03*
Y255906D02*
D03*
Y251969D02*
D03*
Y248031D02*
D03*
Y244094D02*
D03*
Y240158D02*
D03*
Y236221D02*
D03*
X468504Y397638D02*
D03*
Y393701D02*
D03*
Y389764D02*
D03*
Y385827D02*
D03*
Y381890D02*
D03*
Y377953D02*
D03*
Y374016D02*
D03*
Y370079D02*
D03*
Y366142D02*
D03*
Y362205D02*
D03*
Y358268D02*
D03*
Y354331D02*
D03*
Y350394D02*
D03*
Y346457D02*
D03*
Y342520D02*
D03*
Y338583D02*
D03*
Y334646D02*
D03*
Y330709D02*
D03*
Y326772D02*
D03*
Y322835D02*
D03*
Y318898D02*
D03*
Y314961D02*
D03*
Y311024D02*
D03*
Y307087D02*
D03*
Y303150D02*
D03*
Y299213D02*
D03*
Y295276D02*
D03*
Y291339D02*
D03*
Y287402D02*
D03*
Y283465D02*
D03*
Y279528D02*
D03*
Y275590D02*
D03*
Y271654D02*
D03*
Y267717D02*
D03*
Y263779D02*
D03*
Y259842D02*
D03*
Y255906D02*
D03*
Y251969D02*
D03*
Y248031D02*
D03*
Y244094D02*
D03*
Y240158D02*
D03*
Y236221D02*
D03*
X464567Y397638D02*
D03*
Y393701D02*
D03*
Y389764D02*
D03*
Y385827D02*
D03*
Y381890D02*
D03*
Y377953D02*
D03*
Y374016D02*
D03*
Y370079D02*
D03*
Y366142D02*
D03*
Y362205D02*
D03*
Y358268D02*
D03*
Y354331D02*
D03*
Y350394D02*
D03*
Y346457D02*
D03*
Y342520D02*
D03*
Y338583D02*
D03*
Y334646D02*
D03*
Y330709D02*
D03*
Y326772D02*
D03*
Y322835D02*
D03*
Y318898D02*
D03*
Y314961D02*
D03*
Y311024D02*
D03*
Y307087D02*
D03*
Y303150D02*
D03*
Y299213D02*
D03*
Y295276D02*
D03*
Y291339D02*
D03*
Y287402D02*
D03*
Y283465D02*
D03*
Y279528D02*
D03*
Y275590D02*
D03*
Y271654D02*
D03*
Y267717D02*
D03*
Y263779D02*
D03*
Y259842D02*
D03*
Y255906D02*
D03*
Y251969D02*
D03*
Y248031D02*
D03*
Y244094D02*
D03*
Y240158D02*
D03*
Y236221D02*
D03*
X460630Y397638D02*
D03*
Y393701D02*
D03*
Y389764D02*
D03*
Y385827D02*
D03*
Y381890D02*
D03*
Y377953D02*
D03*
Y374016D02*
D03*
Y370079D02*
D03*
Y366142D02*
D03*
Y362205D02*
D03*
Y358268D02*
D03*
Y354331D02*
D03*
Y350394D02*
D03*
Y346457D02*
D03*
Y342520D02*
D03*
Y338583D02*
D03*
Y334646D02*
D03*
Y330709D02*
D03*
Y326772D02*
D03*
Y322835D02*
D03*
Y318898D02*
D03*
Y314961D02*
D03*
Y311024D02*
D03*
Y307087D02*
D03*
Y303150D02*
D03*
Y299213D02*
D03*
Y295276D02*
D03*
Y291339D02*
D03*
Y287402D02*
D03*
Y283465D02*
D03*
Y279528D02*
D03*
Y275590D02*
D03*
Y271654D02*
D03*
Y267717D02*
D03*
Y263779D02*
D03*
Y259842D02*
D03*
Y255906D02*
D03*
Y251969D02*
D03*
Y248031D02*
D03*
Y244094D02*
D03*
Y240158D02*
D03*
Y236221D02*
D03*
X456693Y397638D02*
D03*
Y393701D02*
D03*
Y389764D02*
D03*
Y385827D02*
D03*
Y381890D02*
D03*
Y377953D02*
D03*
Y374016D02*
D03*
Y370079D02*
D03*
Y366142D02*
D03*
Y362205D02*
D03*
Y358268D02*
D03*
Y354331D02*
D03*
Y350394D02*
D03*
Y346457D02*
D03*
Y342520D02*
D03*
Y338583D02*
D03*
Y334646D02*
D03*
Y330709D02*
D03*
Y326772D02*
D03*
Y322835D02*
D03*
Y318898D02*
D03*
Y314961D02*
D03*
Y311024D02*
D03*
Y307087D02*
D03*
Y303150D02*
D03*
Y299213D02*
D03*
Y295276D02*
D03*
Y291339D02*
D03*
Y287402D02*
D03*
Y283465D02*
D03*
Y279528D02*
D03*
Y275590D02*
D03*
Y271654D02*
D03*
Y267717D02*
D03*
Y263779D02*
D03*
Y259842D02*
D03*
Y255906D02*
D03*
Y251969D02*
D03*
Y248031D02*
D03*
Y244094D02*
D03*
Y240158D02*
D03*
Y236221D02*
D03*
X452756Y397638D02*
D03*
Y393701D02*
D03*
Y389764D02*
D03*
Y385827D02*
D03*
Y381890D02*
D03*
Y377953D02*
D03*
Y374016D02*
D03*
Y370079D02*
D03*
Y366142D02*
D03*
Y362205D02*
D03*
Y358268D02*
D03*
Y354331D02*
D03*
Y350394D02*
D03*
Y346457D02*
D03*
Y342520D02*
D03*
Y338583D02*
D03*
Y334646D02*
D03*
Y330709D02*
D03*
Y326772D02*
D03*
Y322835D02*
D03*
Y318898D02*
D03*
Y314961D02*
D03*
Y311024D02*
D03*
Y307087D02*
D03*
Y303150D02*
D03*
Y299213D02*
D03*
Y295276D02*
D03*
Y291339D02*
D03*
Y287402D02*
D03*
Y283465D02*
D03*
Y279528D02*
D03*
Y275590D02*
D03*
Y271654D02*
D03*
Y267717D02*
D03*
Y263779D02*
D03*
Y259842D02*
D03*
Y255906D02*
D03*
Y251969D02*
D03*
Y248031D02*
D03*
Y244094D02*
D03*
Y240158D02*
D03*
Y236221D02*
D03*
X448819Y397638D02*
D03*
Y393701D02*
D03*
Y389764D02*
D03*
Y385827D02*
D03*
Y381890D02*
D03*
Y377953D02*
D03*
Y374016D02*
D03*
Y370079D02*
D03*
Y366142D02*
D03*
Y362205D02*
D03*
Y358268D02*
D03*
Y354331D02*
D03*
Y350394D02*
D03*
Y346457D02*
D03*
Y342520D02*
D03*
Y338583D02*
D03*
Y334646D02*
D03*
Y330709D02*
D03*
Y326772D02*
D03*
Y322835D02*
D03*
Y318898D02*
D03*
Y314961D02*
D03*
Y311024D02*
D03*
Y307087D02*
D03*
Y303150D02*
D03*
Y299213D02*
D03*
Y295276D02*
D03*
Y291339D02*
D03*
Y287402D02*
D03*
Y283465D02*
D03*
Y279528D02*
D03*
Y275590D02*
D03*
Y271654D02*
D03*
Y267717D02*
D03*
Y263779D02*
D03*
Y259842D02*
D03*
Y255906D02*
D03*
Y251969D02*
D03*
Y248031D02*
D03*
Y244094D02*
D03*
Y240158D02*
D03*
Y236221D02*
D03*
X444882Y397638D02*
D03*
Y393701D02*
D03*
Y389764D02*
D03*
Y385827D02*
D03*
Y381890D02*
D03*
Y377953D02*
D03*
Y374016D02*
D03*
Y370079D02*
D03*
Y366142D02*
D03*
Y362205D02*
D03*
Y358268D02*
D03*
Y354331D02*
D03*
Y350394D02*
D03*
Y346457D02*
D03*
Y342520D02*
D03*
Y338583D02*
D03*
Y334646D02*
D03*
Y330709D02*
D03*
Y326772D02*
D03*
Y322835D02*
D03*
Y318898D02*
D03*
Y314961D02*
D03*
Y311024D02*
D03*
Y307087D02*
D03*
Y303150D02*
D03*
Y299213D02*
D03*
Y295276D02*
D03*
Y291339D02*
D03*
Y287402D02*
D03*
Y283465D02*
D03*
Y279528D02*
D03*
Y275590D02*
D03*
Y271654D02*
D03*
Y267717D02*
D03*
Y263779D02*
D03*
Y259842D02*
D03*
Y255906D02*
D03*
Y251969D02*
D03*
Y248031D02*
D03*
Y244094D02*
D03*
Y240158D02*
D03*
Y236221D02*
D03*
X440945Y397638D02*
D03*
Y393701D02*
D03*
Y389764D02*
D03*
Y385827D02*
D03*
Y381890D02*
D03*
Y377953D02*
D03*
Y374016D02*
D03*
Y370079D02*
D03*
Y366142D02*
D03*
Y362205D02*
D03*
Y358268D02*
D03*
Y354331D02*
D03*
Y350394D02*
D03*
Y346457D02*
D03*
Y342520D02*
D03*
Y338583D02*
D03*
Y334646D02*
D03*
Y330709D02*
D03*
Y326772D02*
D03*
Y322835D02*
D03*
Y318898D02*
D03*
Y314961D02*
D03*
Y311024D02*
D03*
Y307087D02*
D03*
Y303150D02*
D03*
Y299213D02*
D03*
Y295276D02*
D03*
Y291339D02*
D03*
Y287402D02*
D03*
Y283465D02*
D03*
Y279528D02*
D03*
Y275590D02*
D03*
Y271654D02*
D03*
Y267717D02*
D03*
Y263779D02*
D03*
Y259842D02*
D03*
Y255906D02*
D03*
Y251969D02*
D03*
Y248031D02*
D03*
Y244094D02*
D03*
Y240158D02*
D03*
Y236221D02*
D03*
X437008Y397638D02*
D03*
Y393701D02*
D03*
Y389764D02*
D03*
Y385827D02*
D03*
Y381890D02*
D03*
Y377953D02*
D03*
Y374016D02*
D03*
Y370079D02*
D03*
Y366142D02*
D03*
Y362205D02*
D03*
Y358268D02*
D03*
Y354331D02*
D03*
Y350394D02*
D03*
Y346457D02*
D03*
Y342520D02*
D03*
Y338583D02*
D03*
Y334646D02*
D03*
Y330709D02*
D03*
Y326772D02*
D03*
Y322835D02*
D03*
Y318898D02*
D03*
Y314961D02*
D03*
Y311024D02*
D03*
Y307087D02*
D03*
Y303150D02*
D03*
Y299213D02*
D03*
Y295276D02*
D03*
Y291339D02*
D03*
Y287402D02*
D03*
Y283465D02*
D03*
Y279528D02*
D03*
Y275590D02*
D03*
Y271654D02*
D03*
Y267717D02*
D03*
Y263779D02*
D03*
Y259842D02*
D03*
Y255906D02*
D03*
Y251969D02*
D03*
Y248031D02*
D03*
Y244094D02*
D03*
Y240158D02*
D03*
Y236221D02*
D03*
X433071Y397638D02*
D03*
Y393701D02*
D03*
Y389764D02*
D03*
Y385827D02*
D03*
Y381890D02*
D03*
Y377953D02*
D03*
Y374016D02*
D03*
Y370079D02*
D03*
Y366142D02*
D03*
Y362205D02*
D03*
Y358268D02*
D03*
Y354331D02*
D03*
Y350394D02*
D03*
Y346457D02*
D03*
Y342520D02*
D03*
Y338583D02*
D03*
Y334646D02*
D03*
Y330709D02*
D03*
Y326772D02*
D03*
Y322835D02*
D03*
Y318898D02*
D03*
Y314961D02*
D03*
Y311024D02*
D03*
Y307087D02*
D03*
Y303150D02*
D03*
Y299213D02*
D03*
Y295276D02*
D03*
Y291339D02*
D03*
Y287402D02*
D03*
Y283465D02*
D03*
Y279528D02*
D03*
Y275590D02*
D03*
Y271654D02*
D03*
Y267717D02*
D03*
Y263779D02*
D03*
Y259842D02*
D03*
Y255906D02*
D03*
Y251969D02*
D03*
Y248031D02*
D03*
Y244094D02*
D03*
Y240158D02*
D03*
Y236221D02*
D03*
X429134Y397638D02*
D03*
Y393701D02*
D03*
Y389764D02*
D03*
Y385827D02*
D03*
Y381890D02*
D03*
Y377953D02*
D03*
Y374016D02*
D03*
Y370079D02*
D03*
Y366142D02*
D03*
Y362205D02*
D03*
Y358268D02*
D03*
Y354331D02*
D03*
Y350394D02*
D03*
Y346457D02*
D03*
Y342520D02*
D03*
Y338583D02*
D03*
Y334646D02*
D03*
Y330709D02*
D03*
Y326772D02*
D03*
Y322835D02*
D03*
Y318898D02*
D03*
Y314961D02*
D03*
Y311024D02*
D03*
Y307087D02*
D03*
Y303150D02*
D03*
Y299213D02*
D03*
Y295276D02*
D03*
Y291339D02*
D03*
Y287402D02*
D03*
Y283465D02*
D03*
Y279528D02*
D03*
Y275590D02*
D03*
Y271654D02*
D03*
Y267717D02*
D03*
Y263779D02*
D03*
Y259842D02*
D03*
Y255906D02*
D03*
Y251969D02*
D03*
Y248031D02*
D03*
Y244094D02*
D03*
Y240158D02*
D03*
Y236221D02*
D03*
X425197Y397638D02*
D03*
Y393701D02*
D03*
Y389764D02*
D03*
Y385827D02*
D03*
Y381890D02*
D03*
Y377953D02*
D03*
Y374016D02*
D03*
Y370079D02*
D03*
Y366142D02*
D03*
Y362205D02*
D03*
Y358268D02*
D03*
Y354331D02*
D03*
Y350394D02*
D03*
Y346457D02*
D03*
Y342520D02*
D03*
Y338583D02*
D03*
Y334646D02*
D03*
Y330709D02*
D03*
Y326772D02*
D03*
Y322835D02*
D03*
Y318898D02*
D03*
Y314961D02*
D03*
Y311024D02*
D03*
Y307087D02*
D03*
Y303150D02*
D03*
Y299213D02*
D03*
Y295276D02*
D03*
Y291339D02*
D03*
Y287402D02*
D03*
Y283465D02*
D03*
Y279528D02*
D03*
Y275590D02*
D03*
Y271654D02*
D03*
Y267717D02*
D03*
Y263779D02*
D03*
Y259842D02*
D03*
Y255906D02*
D03*
Y251969D02*
D03*
Y248031D02*
D03*
Y244094D02*
D03*
Y240158D02*
D03*
Y236221D02*
D03*
X421260Y397638D02*
D03*
Y393701D02*
D03*
Y389764D02*
D03*
Y385827D02*
D03*
Y381890D02*
D03*
Y377953D02*
D03*
Y374016D02*
D03*
Y370079D02*
D03*
Y366142D02*
D03*
Y362205D02*
D03*
Y358268D02*
D03*
Y354331D02*
D03*
Y350394D02*
D03*
Y346457D02*
D03*
Y342520D02*
D03*
Y338583D02*
D03*
Y334646D02*
D03*
Y330709D02*
D03*
Y326772D02*
D03*
Y322835D02*
D03*
Y318898D02*
D03*
Y314961D02*
D03*
Y311024D02*
D03*
Y307087D02*
D03*
Y303150D02*
D03*
Y299213D02*
D03*
Y295276D02*
D03*
Y291339D02*
D03*
Y287402D02*
D03*
Y283465D02*
D03*
Y279528D02*
D03*
Y275590D02*
D03*
Y271654D02*
D03*
Y267717D02*
D03*
Y263779D02*
D03*
Y259842D02*
D03*
Y255906D02*
D03*
Y251969D02*
D03*
Y248031D02*
D03*
Y244094D02*
D03*
Y240158D02*
D03*
Y236221D02*
D03*
X417323Y397638D02*
D03*
Y393701D02*
D03*
Y389764D02*
D03*
Y385827D02*
D03*
Y381890D02*
D03*
Y377953D02*
D03*
Y374016D02*
D03*
Y370079D02*
D03*
Y366142D02*
D03*
Y362205D02*
D03*
Y358268D02*
D03*
Y354331D02*
D03*
Y350394D02*
D03*
Y346457D02*
D03*
Y342520D02*
D03*
Y338583D02*
D03*
Y334646D02*
D03*
Y330709D02*
D03*
Y326772D02*
D03*
Y322835D02*
D03*
Y318898D02*
D03*
Y314961D02*
D03*
Y311024D02*
D03*
Y307087D02*
D03*
Y303150D02*
D03*
Y299213D02*
D03*
Y295276D02*
D03*
Y291339D02*
D03*
Y287402D02*
D03*
Y283465D02*
D03*
Y279528D02*
D03*
Y275590D02*
D03*
Y271654D02*
D03*
Y267717D02*
D03*
Y263779D02*
D03*
Y259842D02*
D03*
Y255906D02*
D03*
Y251969D02*
D03*
Y248031D02*
D03*
Y244094D02*
D03*
Y240158D02*
D03*
Y236221D02*
D03*
X413386Y397638D02*
D03*
Y393701D02*
D03*
Y389764D02*
D03*
Y385827D02*
D03*
Y381890D02*
D03*
Y377953D02*
D03*
Y374016D02*
D03*
Y370079D02*
D03*
Y366142D02*
D03*
Y362205D02*
D03*
Y358268D02*
D03*
Y354331D02*
D03*
Y350394D02*
D03*
Y346457D02*
D03*
Y342520D02*
D03*
Y338583D02*
D03*
Y334646D02*
D03*
Y330709D02*
D03*
Y326772D02*
D03*
Y322835D02*
D03*
Y318898D02*
D03*
Y314961D02*
D03*
Y311024D02*
D03*
Y307087D02*
D03*
Y303150D02*
D03*
Y299213D02*
D03*
Y295276D02*
D03*
Y291339D02*
D03*
Y287402D02*
D03*
Y283465D02*
D03*
Y279528D02*
D03*
Y275590D02*
D03*
Y271654D02*
D03*
Y267717D02*
D03*
Y263779D02*
D03*
Y259842D02*
D03*
Y255906D02*
D03*
Y251969D02*
D03*
Y248031D02*
D03*
Y244094D02*
D03*
Y240158D02*
D03*
Y236221D02*
D03*
X409449Y397638D02*
D03*
Y393701D02*
D03*
Y389764D02*
D03*
Y385827D02*
D03*
Y381890D02*
D03*
Y377953D02*
D03*
Y374016D02*
D03*
Y370079D02*
D03*
Y366142D02*
D03*
Y362205D02*
D03*
Y358268D02*
D03*
Y354331D02*
D03*
Y350394D02*
D03*
Y346457D02*
D03*
Y342520D02*
D03*
Y338583D02*
D03*
Y334646D02*
D03*
Y330709D02*
D03*
Y326772D02*
D03*
Y322835D02*
D03*
Y318898D02*
D03*
Y314961D02*
D03*
Y311024D02*
D03*
Y307087D02*
D03*
Y303150D02*
D03*
Y299213D02*
D03*
Y295276D02*
D03*
Y291339D02*
D03*
Y287402D02*
D03*
Y283465D02*
D03*
Y279528D02*
D03*
Y275590D02*
D03*
Y271654D02*
D03*
Y267717D02*
D03*
Y263779D02*
D03*
Y259842D02*
D03*
Y255906D02*
D03*
Y251969D02*
D03*
Y248031D02*
D03*
Y244094D02*
D03*
Y240158D02*
D03*
Y236221D02*
D03*
X405512Y397638D02*
D03*
Y393701D02*
D03*
Y389764D02*
D03*
Y385827D02*
D03*
Y381890D02*
D03*
Y377953D02*
D03*
Y374016D02*
D03*
Y370079D02*
D03*
Y366142D02*
D03*
Y362205D02*
D03*
Y358268D02*
D03*
Y354331D02*
D03*
Y350394D02*
D03*
Y346457D02*
D03*
Y342520D02*
D03*
Y338583D02*
D03*
Y334646D02*
D03*
Y330709D02*
D03*
Y326772D02*
D03*
Y322835D02*
D03*
Y318898D02*
D03*
Y314961D02*
D03*
Y311024D02*
D03*
Y307087D02*
D03*
Y303150D02*
D03*
Y299213D02*
D03*
Y295276D02*
D03*
Y291339D02*
D03*
Y287402D02*
D03*
Y283465D02*
D03*
Y279528D02*
D03*
Y275590D02*
D03*
Y271654D02*
D03*
Y267717D02*
D03*
Y263779D02*
D03*
Y259842D02*
D03*
Y255906D02*
D03*
Y251969D02*
D03*
Y248031D02*
D03*
Y244094D02*
D03*
Y240158D02*
D03*
Y236221D02*
D03*
X401575Y397638D02*
D03*
Y393701D02*
D03*
Y389764D02*
D03*
Y385827D02*
D03*
Y381890D02*
D03*
Y377953D02*
D03*
Y374016D02*
D03*
Y370079D02*
D03*
Y366142D02*
D03*
Y362205D02*
D03*
Y358268D02*
D03*
Y354331D02*
D03*
Y350394D02*
D03*
Y346457D02*
D03*
Y342520D02*
D03*
Y338583D02*
D03*
Y334646D02*
D03*
Y330709D02*
D03*
Y326772D02*
D03*
Y322835D02*
D03*
Y318898D02*
D03*
Y314961D02*
D03*
Y311024D02*
D03*
Y307087D02*
D03*
Y303150D02*
D03*
Y299213D02*
D03*
Y295276D02*
D03*
Y291339D02*
D03*
Y287402D02*
D03*
Y283465D02*
D03*
Y279528D02*
D03*
Y275590D02*
D03*
Y271654D02*
D03*
Y267717D02*
D03*
Y263779D02*
D03*
Y259842D02*
D03*
Y255906D02*
D03*
Y251969D02*
D03*
Y248031D02*
D03*
Y244094D02*
D03*
Y240158D02*
D03*
Y236221D02*
D03*
X397638Y397638D02*
D03*
Y393701D02*
D03*
Y389764D02*
D03*
Y385827D02*
D03*
Y381890D02*
D03*
Y377953D02*
D03*
Y374016D02*
D03*
Y370079D02*
D03*
Y366142D02*
D03*
Y362205D02*
D03*
Y358268D02*
D03*
Y354331D02*
D03*
Y350394D02*
D03*
Y346457D02*
D03*
Y342520D02*
D03*
Y338583D02*
D03*
Y334646D02*
D03*
Y330709D02*
D03*
Y326772D02*
D03*
Y322835D02*
D03*
Y318898D02*
D03*
Y314961D02*
D03*
Y311024D02*
D03*
Y307087D02*
D03*
Y303150D02*
D03*
Y299213D02*
D03*
Y295276D02*
D03*
Y291339D02*
D03*
Y287402D02*
D03*
Y283465D02*
D03*
Y279528D02*
D03*
Y275590D02*
D03*
Y271654D02*
D03*
Y267717D02*
D03*
Y263779D02*
D03*
Y259842D02*
D03*
Y255906D02*
D03*
Y251969D02*
D03*
Y248031D02*
D03*
Y244094D02*
D03*
Y240158D02*
D03*
Y236221D02*
D03*
X393701Y397638D02*
D03*
Y393701D02*
D03*
Y389764D02*
D03*
Y385827D02*
D03*
Y381890D02*
D03*
Y377953D02*
D03*
Y374016D02*
D03*
Y370079D02*
D03*
Y366142D02*
D03*
Y362205D02*
D03*
Y358268D02*
D03*
Y354331D02*
D03*
Y350394D02*
D03*
Y346457D02*
D03*
Y342520D02*
D03*
Y338583D02*
D03*
Y334646D02*
D03*
Y330709D02*
D03*
Y326772D02*
D03*
Y322835D02*
D03*
Y318898D02*
D03*
Y314961D02*
D03*
Y311024D02*
D03*
Y307087D02*
D03*
Y303150D02*
D03*
Y299213D02*
D03*
Y295276D02*
D03*
Y291339D02*
D03*
Y287402D02*
D03*
Y283465D02*
D03*
Y279528D02*
D03*
Y275590D02*
D03*
Y271654D02*
D03*
Y267717D02*
D03*
Y263779D02*
D03*
Y259842D02*
D03*
Y255906D02*
D03*
Y251969D02*
D03*
Y248031D02*
D03*
Y244094D02*
D03*
Y240158D02*
D03*
Y236221D02*
D03*
X389764Y397638D02*
D03*
Y393701D02*
D03*
Y389764D02*
D03*
Y385827D02*
D03*
Y381890D02*
D03*
Y377953D02*
D03*
Y374016D02*
D03*
Y370079D02*
D03*
Y366142D02*
D03*
Y362205D02*
D03*
Y358268D02*
D03*
Y354331D02*
D03*
Y350394D02*
D03*
Y346457D02*
D03*
Y342520D02*
D03*
Y338583D02*
D03*
Y334646D02*
D03*
Y330709D02*
D03*
Y326772D02*
D03*
Y322835D02*
D03*
Y318898D02*
D03*
Y314961D02*
D03*
Y311024D02*
D03*
Y307087D02*
D03*
Y303150D02*
D03*
Y299213D02*
D03*
Y295276D02*
D03*
Y291339D02*
D03*
Y287402D02*
D03*
Y283465D02*
D03*
Y279528D02*
D03*
Y275590D02*
D03*
Y271654D02*
D03*
Y267717D02*
D03*
Y263779D02*
D03*
Y259842D02*
D03*
Y255906D02*
D03*
Y251969D02*
D03*
Y248031D02*
D03*
Y244094D02*
D03*
Y240158D02*
D03*
Y236221D02*
D03*
X385827Y397638D02*
D03*
Y393701D02*
D03*
Y389764D02*
D03*
Y385827D02*
D03*
Y381890D02*
D03*
Y377953D02*
D03*
Y374016D02*
D03*
Y370079D02*
D03*
Y366142D02*
D03*
Y362205D02*
D03*
Y358268D02*
D03*
Y354331D02*
D03*
Y350394D02*
D03*
Y346457D02*
D03*
Y342520D02*
D03*
Y338583D02*
D03*
Y334646D02*
D03*
Y330709D02*
D03*
Y326772D02*
D03*
Y322835D02*
D03*
Y318898D02*
D03*
Y314961D02*
D03*
Y311024D02*
D03*
Y307087D02*
D03*
Y303150D02*
D03*
Y299213D02*
D03*
Y295276D02*
D03*
Y291339D02*
D03*
Y287402D02*
D03*
Y283465D02*
D03*
Y279528D02*
D03*
Y275590D02*
D03*
Y271654D02*
D03*
Y267717D02*
D03*
Y263779D02*
D03*
Y259842D02*
D03*
Y255906D02*
D03*
Y251969D02*
D03*
Y248031D02*
D03*
Y244094D02*
D03*
Y240158D02*
D03*
Y236221D02*
D03*
X381890Y397638D02*
D03*
Y393701D02*
D03*
Y389764D02*
D03*
Y385827D02*
D03*
Y381890D02*
D03*
Y377953D02*
D03*
Y374016D02*
D03*
Y370079D02*
D03*
Y366142D02*
D03*
Y362205D02*
D03*
Y358268D02*
D03*
Y354331D02*
D03*
Y350394D02*
D03*
Y346457D02*
D03*
Y342520D02*
D03*
Y338583D02*
D03*
Y334646D02*
D03*
Y330709D02*
D03*
Y326772D02*
D03*
Y322835D02*
D03*
Y318898D02*
D03*
Y314961D02*
D03*
Y311024D02*
D03*
Y307087D02*
D03*
Y303150D02*
D03*
Y299213D02*
D03*
Y295276D02*
D03*
Y291339D02*
D03*
Y287402D02*
D03*
Y283465D02*
D03*
Y279528D02*
D03*
Y275590D02*
D03*
Y271654D02*
D03*
Y267717D02*
D03*
Y263779D02*
D03*
Y259842D02*
D03*
Y255906D02*
D03*
Y251969D02*
D03*
Y248031D02*
D03*
Y244094D02*
D03*
Y240158D02*
D03*
Y236221D02*
D03*
X377953Y397638D02*
D03*
Y393701D02*
D03*
Y389764D02*
D03*
Y385827D02*
D03*
Y381890D02*
D03*
Y377953D02*
D03*
Y374016D02*
D03*
Y370079D02*
D03*
Y366142D02*
D03*
Y362205D02*
D03*
Y358268D02*
D03*
Y354331D02*
D03*
Y350394D02*
D03*
Y346457D02*
D03*
Y342520D02*
D03*
Y338583D02*
D03*
Y334646D02*
D03*
Y330709D02*
D03*
Y326772D02*
D03*
Y322835D02*
D03*
Y318898D02*
D03*
Y314961D02*
D03*
Y311024D02*
D03*
Y307087D02*
D03*
Y303150D02*
D03*
Y299213D02*
D03*
Y295276D02*
D03*
Y291339D02*
D03*
Y287402D02*
D03*
Y283465D02*
D03*
Y279528D02*
D03*
Y275590D02*
D03*
Y271654D02*
D03*
Y267717D02*
D03*
Y263779D02*
D03*
Y259842D02*
D03*
Y255906D02*
D03*
Y251969D02*
D03*
Y248031D02*
D03*
Y244094D02*
D03*
Y240158D02*
D03*
Y236221D02*
D03*
X374016Y397638D02*
D03*
Y393701D02*
D03*
Y389764D02*
D03*
Y385827D02*
D03*
Y381890D02*
D03*
Y377953D02*
D03*
Y374016D02*
D03*
Y370079D02*
D03*
Y366142D02*
D03*
Y362205D02*
D03*
Y358268D02*
D03*
Y354331D02*
D03*
Y350394D02*
D03*
Y346457D02*
D03*
Y342520D02*
D03*
Y338583D02*
D03*
Y334646D02*
D03*
Y330709D02*
D03*
Y326772D02*
D03*
Y322835D02*
D03*
Y318898D02*
D03*
Y314961D02*
D03*
Y311024D02*
D03*
Y307087D02*
D03*
Y303150D02*
D03*
Y299213D02*
D03*
Y295276D02*
D03*
Y291339D02*
D03*
Y287402D02*
D03*
Y283465D02*
D03*
Y279528D02*
D03*
Y275590D02*
D03*
Y271654D02*
D03*
Y267717D02*
D03*
Y263779D02*
D03*
Y259842D02*
D03*
Y255906D02*
D03*
Y251969D02*
D03*
Y248031D02*
D03*
Y244094D02*
D03*
Y240158D02*
D03*
Y236221D02*
D03*
X370079Y397638D02*
D03*
Y393701D02*
D03*
Y389764D02*
D03*
Y385827D02*
D03*
Y381890D02*
D03*
Y377953D02*
D03*
Y374016D02*
D03*
Y370079D02*
D03*
Y366142D02*
D03*
Y362205D02*
D03*
Y358268D02*
D03*
Y354331D02*
D03*
Y350394D02*
D03*
Y346457D02*
D03*
Y342520D02*
D03*
Y338583D02*
D03*
Y334646D02*
D03*
Y330709D02*
D03*
Y326772D02*
D03*
Y322835D02*
D03*
Y318898D02*
D03*
Y314961D02*
D03*
Y311024D02*
D03*
Y307087D02*
D03*
Y303150D02*
D03*
Y299213D02*
D03*
Y295276D02*
D03*
Y291339D02*
D03*
Y287402D02*
D03*
Y283465D02*
D03*
Y279528D02*
D03*
Y275590D02*
D03*
Y271654D02*
D03*
Y267717D02*
D03*
Y263779D02*
D03*
Y259842D02*
D03*
Y255906D02*
D03*
Y251969D02*
D03*
Y248031D02*
D03*
Y244094D02*
D03*
Y240158D02*
D03*
Y236221D02*
D03*
X366142Y397638D02*
D03*
Y393701D02*
D03*
Y389764D02*
D03*
Y385827D02*
D03*
Y381890D02*
D03*
Y377953D02*
D03*
Y374016D02*
D03*
Y370079D02*
D03*
Y366142D02*
D03*
Y362205D02*
D03*
Y358268D02*
D03*
Y354331D02*
D03*
Y350394D02*
D03*
Y346457D02*
D03*
Y342520D02*
D03*
Y338583D02*
D03*
Y334646D02*
D03*
Y330709D02*
D03*
Y326772D02*
D03*
Y322835D02*
D03*
Y318898D02*
D03*
Y314961D02*
D03*
Y311024D02*
D03*
Y307087D02*
D03*
Y303150D02*
D03*
Y299213D02*
D03*
Y295276D02*
D03*
Y291339D02*
D03*
Y287402D02*
D03*
Y283465D02*
D03*
Y279528D02*
D03*
Y275590D02*
D03*
Y271654D02*
D03*
Y267717D02*
D03*
Y263779D02*
D03*
Y259842D02*
D03*
Y255906D02*
D03*
Y251969D02*
D03*
Y248031D02*
D03*
Y244094D02*
D03*
Y240158D02*
D03*
Y236221D02*
D03*
X362205Y397638D02*
D03*
Y393701D02*
D03*
Y389764D02*
D03*
Y385827D02*
D03*
Y381890D02*
D03*
Y377953D02*
D03*
Y374016D02*
D03*
Y370079D02*
D03*
Y366142D02*
D03*
Y362205D02*
D03*
Y358268D02*
D03*
Y354331D02*
D03*
Y350394D02*
D03*
Y346457D02*
D03*
Y342520D02*
D03*
Y338583D02*
D03*
Y334646D02*
D03*
Y330709D02*
D03*
Y326772D02*
D03*
Y322835D02*
D03*
Y318898D02*
D03*
Y314961D02*
D03*
Y311024D02*
D03*
Y307087D02*
D03*
Y303150D02*
D03*
Y299213D02*
D03*
Y295276D02*
D03*
Y291339D02*
D03*
Y287402D02*
D03*
Y283465D02*
D03*
Y279528D02*
D03*
Y275590D02*
D03*
Y271654D02*
D03*
Y267717D02*
D03*
Y263779D02*
D03*
Y259842D02*
D03*
Y255906D02*
D03*
Y251969D02*
D03*
Y248031D02*
D03*
Y244094D02*
D03*
Y240158D02*
D03*
Y236221D02*
D03*
X358268Y397638D02*
D03*
Y393701D02*
D03*
Y389764D02*
D03*
Y385827D02*
D03*
Y381890D02*
D03*
Y377953D02*
D03*
Y374016D02*
D03*
Y370079D02*
D03*
Y366142D02*
D03*
Y362205D02*
D03*
Y358268D02*
D03*
Y354331D02*
D03*
Y350394D02*
D03*
Y346457D02*
D03*
Y342520D02*
D03*
Y338583D02*
D03*
Y334646D02*
D03*
Y330709D02*
D03*
Y326772D02*
D03*
Y322835D02*
D03*
Y318898D02*
D03*
Y314961D02*
D03*
Y311024D02*
D03*
Y307087D02*
D03*
Y303150D02*
D03*
Y299213D02*
D03*
Y295276D02*
D03*
Y291339D02*
D03*
Y287402D02*
D03*
Y283465D02*
D03*
Y279528D02*
D03*
Y275590D02*
D03*
Y271654D02*
D03*
Y267717D02*
D03*
Y263779D02*
D03*
Y259842D02*
D03*
Y255906D02*
D03*
Y251969D02*
D03*
Y248031D02*
D03*
Y244094D02*
D03*
Y240158D02*
D03*
Y236221D02*
D03*
X354331Y397638D02*
D03*
Y393701D02*
D03*
Y389764D02*
D03*
Y385827D02*
D03*
Y381890D02*
D03*
Y377953D02*
D03*
Y374016D02*
D03*
Y370079D02*
D03*
Y366142D02*
D03*
Y362205D02*
D03*
Y358268D02*
D03*
Y354331D02*
D03*
Y350394D02*
D03*
Y346457D02*
D03*
Y342520D02*
D03*
Y338583D02*
D03*
Y334646D02*
D03*
Y330709D02*
D03*
Y326772D02*
D03*
Y322835D02*
D03*
Y318898D02*
D03*
Y314961D02*
D03*
Y311024D02*
D03*
Y307087D02*
D03*
Y303150D02*
D03*
Y299213D02*
D03*
Y295276D02*
D03*
Y291339D02*
D03*
Y287402D02*
D03*
Y283465D02*
D03*
Y279528D02*
D03*
Y275590D02*
D03*
Y271654D02*
D03*
Y267717D02*
D03*
Y263779D02*
D03*
Y259842D02*
D03*
Y255906D02*
D03*
Y251969D02*
D03*
Y248031D02*
D03*
Y244094D02*
D03*
Y240158D02*
D03*
Y236221D02*
D03*
X350394Y397638D02*
D03*
Y393701D02*
D03*
Y389764D02*
D03*
Y385827D02*
D03*
Y381890D02*
D03*
Y377953D02*
D03*
Y374016D02*
D03*
Y370079D02*
D03*
Y366142D02*
D03*
Y362205D02*
D03*
Y358268D02*
D03*
Y354331D02*
D03*
Y350394D02*
D03*
Y346457D02*
D03*
Y342520D02*
D03*
Y338583D02*
D03*
Y334646D02*
D03*
Y330709D02*
D03*
Y326772D02*
D03*
Y322835D02*
D03*
Y318898D02*
D03*
Y314961D02*
D03*
Y311024D02*
D03*
Y307087D02*
D03*
Y303150D02*
D03*
Y299213D02*
D03*
Y295276D02*
D03*
Y291339D02*
D03*
Y287402D02*
D03*
Y283465D02*
D03*
Y279528D02*
D03*
Y275590D02*
D03*
Y271654D02*
D03*
Y267717D02*
D03*
Y263779D02*
D03*
Y259842D02*
D03*
Y255906D02*
D03*
Y251969D02*
D03*
Y248031D02*
D03*
Y244094D02*
D03*
Y240158D02*
D03*
Y236221D02*
D03*
X346457Y397638D02*
D03*
Y393701D02*
D03*
Y389764D02*
D03*
Y385827D02*
D03*
Y381890D02*
D03*
Y377953D02*
D03*
Y374016D02*
D03*
Y370079D02*
D03*
Y366142D02*
D03*
Y362205D02*
D03*
Y358268D02*
D03*
Y354331D02*
D03*
Y350394D02*
D03*
Y346457D02*
D03*
Y342520D02*
D03*
Y338583D02*
D03*
Y334646D02*
D03*
Y330709D02*
D03*
Y326772D02*
D03*
Y322835D02*
D03*
Y318898D02*
D03*
Y314961D02*
D03*
Y311024D02*
D03*
Y307087D02*
D03*
Y303150D02*
D03*
Y299213D02*
D03*
Y295276D02*
D03*
Y291339D02*
D03*
Y287402D02*
D03*
Y283465D02*
D03*
Y279528D02*
D03*
Y275590D02*
D03*
Y271654D02*
D03*
Y267717D02*
D03*
Y263779D02*
D03*
Y259842D02*
D03*
Y255906D02*
D03*
Y251969D02*
D03*
Y248031D02*
D03*
Y244094D02*
D03*
Y240158D02*
D03*
Y236221D02*
D03*
X342520Y397638D02*
D03*
Y393701D02*
D03*
Y389764D02*
D03*
Y385827D02*
D03*
Y381890D02*
D03*
Y377953D02*
D03*
Y374016D02*
D03*
Y370079D02*
D03*
Y366142D02*
D03*
Y362205D02*
D03*
Y358268D02*
D03*
Y354331D02*
D03*
Y350394D02*
D03*
Y346457D02*
D03*
Y342520D02*
D03*
Y338583D02*
D03*
Y334646D02*
D03*
Y330709D02*
D03*
Y326772D02*
D03*
Y322835D02*
D03*
Y318898D02*
D03*
Y314961D02*
D03*
Y311024D02*
D03*
Y307087D02*
D03*
Y303150D02*
D03*
Y299213D02*
D03*
Y295276D02*
D03*
Y291339D02*
D03*
Y287402D02*
D03*
Y283465D02*
D03*
Y279528D02*
D03*
Y275590D02*
D03*
Y271654D02*
D03*
Y267717D02*
D03*
Y263779D02*
D03*
Y259842D02*
D03*
Y255906D02*
D03*
Y251969D02*
D03*
Y248031D02*
D03*
Y244094D02*
D03*
Y240158D02*
D03*
Y236221D02*
D03*
X338583Y397638D02*
D03*
Y393701D02*
D03*
Y389764D02*
D03*
Y385827D02*
D03*
Y381890D02*
D03*
Y377953D02*
D03*
Y374016D02*
D03*
Y370079D02*
D03*
Y366142D02*
D03*
Y362205D02*
D03*
Y358268D02*
D03*
Y354331D02*
D03*
Y350394D02*
D03*
Y346457D02*
D03*
Y342520D02*
D03*
Y338583D02*
D03*
Y334646D02*
D03*
Y330709D02*
D03*
Y326772D02*
D03*
Y322835D02*
D03*
Y318898D02*
D03*
Y314961D02*
D03*
Y311024D02*
D03*
Y307087D02*
D03*
Y303150D02*
D03*
Y299213D02*
D03*
Y295276D02*
D03*
Y291339D02*
D03*
Y287402D02*
D03*
Y283465D02*
D03*
Y279528D02*
D03*
Y275590D02*
D03*
Y271654D02*
D03*
Y267717D02*
D03*
Y263779D02*
D03*
Y259842D02*
D03*
Y255906D02*
D03*
Y251969D02*
D03*
Y248031D02*
D03*
Y244094D02*
D03*
Y240158D02*
D03*
Y236221D02*
D03*
X334646Y397638D02*
D03*
Y393701D02*
D03*
Y389764D02*
D03*
Y385827D02*
D03*
Y381890D02*
D03*
Y377953D02*
D03*
Y374016D02*
D03*
Y370079D02*
D03*
Y366142D02*
D03*
Y362205D02*
D03*
Y358268D02*
D03*
Y354331D02*
D03*
Y350394D02*
D03*
Y346457D02*
D03*
Y342520D02*
D03*
Y338583D02*
D03*
Y334646D02*
D03*
Y330709D02*
D03*
Y326772D02*
D03*
Y322835D02*
D03*
Y318898D02*
D03*
Y314961D02*
D03*
Y311024D02*
D03*
Y307087D02*
D03*
Y303150D02*
D03*
Y299213D02*
D03*
Y295276D02*
D03*
Y291339D02*
D03*
Y287402D02*
D03*
Y283465D02*
D03*
Y279528D02*
D03*
Y275590D02*
D03*
Y271654D02*
D03*
Y267717D02*
D03*
Y263779D02*
D03*
Y259842D02*
D03*
Y255906D02*
D03*
Y251969D02*
D03*
Y248031D02*
D03*
Y244094D02*
D03*
Y240158D02*
D03*
Y236221D02*
D03*
X330709Y397638D02*
D03*
Y393701D02*
D03*
Y389764D02*
D03*
Y385827D02*
D03*
Y381890D02*
D03*
Y377953D02*
D03*
Y374016D02*
D03*
Y370079D02*
D03*
Y366142D02*
D03*
Y362205D02*
D03*
Y358268D02*
D03*
Y354331D02*
D03*
Y350394D02*
D03*
Y346457D02*
D03*
Y342520D02*
D03*
Y338583D02*
D03*
Y334646D02*
D03*
Y330709D02*
D03*
Y326772D02*
D03*
Y322835D02*
D03*
Y318898D02*
D03*
Y314961D02*
D03*
Y311024D02*
D03*
Y307087D02*
D03*
Y303150D02*
D03*
Y299213D02*
D03*
Y295276D02*
D03*
Y291339D02*
D03*
Y287402D02*
D03*
Y283465D02*
D03*
Y279528D02*
D03*
Y275590D02*
D03*
Y271654D02*
D03*
Y267717D02*
D03*
Y263779D02*
D03*
Y259842D02*
D03*
Y255906D02*
D03*
Y251969D02*
D03*
Y248031D02*
D03*
Y244094D02*
D03*
Y240158D02*
D03*
Y236221D02*
D03*
X326772Y393701D02*
D03*
Y389764D02*
D03*
Y385827D02*
D03*
Y381890D02*
D03*
Y377953D02*
D03*
Y374016D02*
D03*
Y370079D02*
D03*
Y366142D02*
D03*
Y362205D02*
D03*
Y358268D02*
D03*
Y354331D02*
D03*
Y350394D02*
D03*
Y346457D02*
D03*
Y342520D02*
D03*
Y338583D02*
D03*
Y334646D02*
D03*
Y330709D02*
D03*
Y326772D02*
D03*
Y322835D02*
D03*
Y318898D02*
D03*
Y314961D02*
D03*
Y311024D02*
D03*
Y307087D02*
D03*
Y303150D02*
D03*
Y299213D02*
D03*
Y295276D02*
D03*
Y291339D02*
D03*
Y287402D02*
D03*
Y283465D02*
D03*
Y279528D02*
D03*
Y275590D02*
D03*
Y271654D02*
D03*
Y267717D02*
D03*
Y263779D02*
D03*
Y259842D02*
D03*
Y255906D02*
D03*
Y251969D02*
D03*
Y248031D02*
D03*
Y244094D02*
D03*
Y240158D02*
D03*
D20*
X764799Y500409D02*
D03*
X759799D02*
D03*
X754799D02*
D03*
X749799D02*
D03*
X744799D02*
D03*
X739799D02*
D03*
X734799D02*
D03*
X729799D02*
D03*
X724799D02*
D03*
X719799D02*
D03*
X764799Y464189D02*
D03*
X759799D02*
D03*
X754799D02*
D03*
X749799D02*
D03*
X744799D02*
D03*
X739799D02*
D03*
X734799D02*
D03*
X729799D02*
D03*
X724799D02*
D03*
X719799D02*
D03*
X824799Y500409D02*
D03*
X819799D02*
D03*
X814799D02*
D03*
X809799D02*
D03*
X804799D02*
D03*
X799799D02*
D03*
X794799D02*
D03*
X789799D02*
D03*
X784799D02*
D03*
X779799D02*
D03*
X824799Y464189D02*
D03*
X819799D02*
D03*
X814799D02*
D03*
X809799D02*
D03*
X804799D02*
D03*
X799799D02*
D03*
X794799D02*
D03*
X789799D02*
D03*
X784799D02*
D03*
X779799D02*
D03*
X884799Y500409D02*
D03*
X879799D02*
D03*
X874799D02*
D03*
X869799D02*
D03*
X864799D02*
D03*
X859799D02*
D03*
X854799D02*
D03*
X849799D02*
D03*
X844799D02*
D03*
X839799D02*
D03*
X884799Y464189D02*
D03*
X879799D02*
D03*
X874799D02*
D03*
X869799D02*
D03*
X864799D02*
D03*
X859799D02*
D03*
X854799D02*
D03*
X849799D02*
D03*
X844799D02*
D03*
X839799D02*
D03*
D21*
X1070665Y284461D02*
D03*
Y287020D02*
D03*
Y289579D02*
D03*
Y292138D02*
D03*
X1053933Y284461D02*
D03*
Y287020D02*
D03*
Y289579D02*
D03*
Y292138D02*
D03*
X1068665Y728461D02*
D03*
Y731020D02*
D03*
Y733579D02*
D03*
Y736138D02*
D03*
X1051933Y728461D02*
D03*
Y731020D02*
D03*
Y733579D02*
D03*
Y736138D02*
D03*
X1064665Y598461D02*
D03*
Y601020D02*
D03*
Y603579D02*
D03*
Y606138D02*
D03*
X1047933Y598461D02*
D03*
Y601020D02*
D03*
Y603579D02*
D03*
Y606138D02*
D03*
D22*
X892921Y684740D02*
D03*
Y681000D02*
D03*
Y677260D02*
D03*
X883079D02*
D03*
Y681000D02*
D03*
Y684740D02*
D03*
X892921Y701740D02*
D03*
Y698000D02*
D03*
Y694260D02*
D03*
X883079D02*
D03*
Y698000D02*
D03*
Y701740D02*
D03*
X892921Y717740D02*
D03*
Y714000D02*
D03*
Y710260D02*
D03*
X883079D02*
D03*
Y714000D02*
D03*
Y717740D02*
D03*
X675220Y196039D02*
D03*
Y192299D02*
D03*
Y188559D02*
D03*
X665378D02*
D03*
Y192299D02*
D03*
Y196039D02*
D03*
X657878Y221559D02*
D03*
Y225299D02*
D03*
Y229039D02*
D03*
X667721D02*
D03*
Y225299D02*
D03*
Y221559D02*
D03*
D23*
X1059315Y233000D02*
D03*
X1048685D02*
D03*
X1016014Y555000D02*
D03*
X1005384D02*
D03*
X996014Y198899D02*
D03*
X985384D02*
D03*
X916414Y786299D02*
D03*
X905784D02*
D03*
X1011614D02*
D03*
X1000984D02*
D03*
X611984Y294299D02*
D03*
X622614D02*
D03*
X1043984Y415299D02*
D03*
X1054614D02*
D03*
X1068984Y628299D02*
D03*
X1079614D02*
D03*
X954984Y522299D02*
D03*
X965614D02*
D03*
X1047984Y497299D02*
D03*
X1058614D02*
D03*
X94984Y662299D02*
D03*
X105614D02*
D03*
X34984Y344299D02*
D03*
X45614D02*
D03*
X156984Y360299D02*
D03*
X167614D02*
D03*
X1140614Y784299D02*
D03*
X1129984D02*
D03*
X461614Y484799D02*
D03*
X450984D02*
D03*
X1167614Y662299D02*
D03*
X1156984D02*
D03*
X1016315Y482000D02*
D03*
X1005685D02*
D03*
X1065614Y318299D02*
D03*
X1054984D02*
D03*
X1065614Y334299D02*
D03*
X1054984D02*
D03*
X1065614Y350299D02*
D03*
X1054984D02*
D03*
X1039173Y371260D02*
D03*
X1028543D02*
D03*
X962814Y322799D02*
D03*
X952184D02*
D03*
X643614Y316299D02*
D03*
X632984D02*
D03*
X643614Y300299D02*
D03*
X632984D02*
D03*
X145614Y266299D02*
D03*
X134984D02*
D03*
X145614Y242299D02*
D03*
X134984D02*
D03*
X145614Y290299D02*
D03*
X134984D02*
D03*
X966214Y786299D02*
D03*
X955584D02*
D03*
X364984Y483799D02*
D03*
X375614D02*
D03*
D24*
X230299Y182331D02*
D03*
Y186268D02*
D03*
X506299Y370268D02*
D03*
Y366331D02*
D03*
X435099Y505268D02*
D03*
Y501331D02*
D03*
X356799Y503268D02*
D03*
Y499331D02*
D03*
X878299Y82268D02*
D03*
Y78331D02*
D03*
X94299Y930268D02*
D03*
Y926331D02*
D03*
X929299Y378268D02*
D03*
Y374331D02*
D03*
X1128299Y816268D02*
D03*
Y812331D02*
D03*
X1160799Y807331D02*
D03*
Y811268D02*
D03*
X895699Y658331D02*
D03*
Y662268D02*
D03*
X940299Y666268D02*
D03*
Y662331D02*
D03*
X928299Y666268D02*
D03*
Y662331D02*
D03*
X895699Y642331D02*
D03*
Y646268D02*
D03*
Y626331D02*
D03*
Y630268D02*
D03*
X987299Y904268D02*
D03*
Y900331D02*
D03*
X968299Y824331D02*
D03*
Y828268D02*
D03*
X663780Y532283D02*
D03*
Y536220D02*
D03*
X631102Y532283D02*
D03*
Y536220D02*
D03*
X579921Y532283D02*
D03*
Y536220D02*
D03*
X547244Y532283D02*
D03*
Y536220D02*
D03*
X667323Y532283D02*
D03*
Y536220D02*
D03*
X634646Y532283D02*
D03*
Y536220D02*
D03*
X583465Y532283D02*
D03*
Y536220D02*
D03*
X550787Y532283D02*
D03*
Y536220D02*
D03*
X671260Y532283D02*
D03*
Y536220D02*
D03*
X638583Y532283D02*
D03*
Y536220D02*
D03*
X587402Y532283D02*
D03*
Y536220D02*
D03*
X554724Y532283D02*
D03*
Y536220D02*
D03*
X674803Y532283D02*
D03*
Y536220D02*
D03*
X642126Y532283D02*
D03*
Y536220D02*
D03*
X590945Y532283D02*
D03*
Y536220D02*
D03*
X558268Y532283D02*
D03*
Y536220D02*
D03*
X678740Y532283D02*
D03*
Y536220D02*
D03*
X646457Y532283D02*
D03*
Y536220D02*
D03*
X594882Y532283D02*
D03*
Y536220D02*
D03*
X562205Y532283D02*
D03*
Y536220D02*
D03*
X682299Y532331D02*
D03*
Y536268D02*
D03*
X650000Y532283D02*
D03*
Y536220D02*
D03*
X598425Y532283D02*
D03*
Y536220D02*
D03*
X565748Y532283D02*
D03*
Y536220D02*
D03*
X686299Y532331D02*
D03*
Y536268D02*
D03*
X653937Y532283D02*
D03*
Y536220D02*
D03*
X602362Y532283D02*
D03*
Y536220D02*
D03*
X569685Y532283D02*
D03*
Y536220D02*
D03*
X689764Y532283D02*
D03*
Y536220D02*
D03*
X657480Y532283D02*
D03*
Y536220D02*
D03*
X605905Y532283D02*
D03*
Y536220D02*
D03*
X573228Y532283D02*
D03*
Y536220D02*
D03*
X295669Y532283D02*
D03*
Y536220D02*
D03*
X263386Y532283D02*
D03*
Y536220D02*
D03*
X211811Y532283D02*
D03*
Y536220D02*
D03*
X179134Y532283D02*
D03*
Y536220D02*
D03*
X299213Y532283D02*
D03*
Y536220D02*
D03*
X266929Y532283D02*
D03*
Y536220D02*
D03*
X215354Y532283D02*
D03*
Y536220D02*
D03*
X182677Y532283D02*
D03*
Y536220D02*
D03*
X303150Y532283D02*
D03*
Y536220D02*
D03*
X270866Y532283D02*
D03*
Y536220D02*
D03*
X219291Y532283D02*
D03*
Y536220D02*
D03*
X186614Y532283D02*
D03*
Y536220D02*
D03*
X306693Y532283D02*
D03*
Y536220D02*
D03*
X274409Y532283D02*
D03*
Y536220D02*
D03*
X222835Y532283D02*
D03*
Y536220D02*
D03*
X190157Y532283D02*
D03*
Y536220D02*
D03*
X310630Y532283D02*
D03*
Y536220D02*
D03*
X278346Y532283D02*
D03*
Y536220D02*
D03*
X226772Y532283D02*
D03*
Y536220D02*
D03*
X194488Y532283D02*
D03*
Y536220D02*
D03*
X314173Y532283D02*
D03*
Y536220D02*
D03*
X281890Y532283D02*
D03*
Y536220D02*
D03*
X230315Y532283D02*
D03*
Y536220D02*
D03*
X198031Y532283D02*
D03*
Y536220D02*
D03*
X318110Y532283D02*
D03*
Y536220D02*
D03*
X285827Y532283D02*
D03*
Y536220D02*
D03*
X234252Y532283D02*
D03*
Y536220D02*
D03*
X201968Y532283D02*
D03*
Y536220D02*
D03*
X321654Y532283D02*
D03*
Y536220D02*
D03*
X289370Y532283D02*
D03*
Y536220D02*
D03*
X237795Y532283D02*
D03*
Y536220D02*
D03*
X205512Y532283D02*
D03*
Y536220D02*
D03*
X645299Y432268D02*
D03*
Y428331D02*
D03*
X254299Y244268D02*
D03*
Y240331D02*
D03*
X48299Y371268D02*
D03*
Y367331D02*
D03*
X896299Y912268D02*
D03*
Y908331D02*
D03*
X873299Y826331D02*
D03*
Y830268D02*
D03*
X248299Y126268D02*
D03*
Y122331D02*
D03*
X156299Y126268D02*
D03*
Y122331D02*
D03*
X326699Y504468D02*
D03*
Y500531D02*
D03*
X330699Y504468D02*
D03*
Y500531D02*
D03*
X329799Y490268D02*
D03*
Y486331D02*
D03*
X333799Y490268D02*
D03*
Y486331D02*
D03*
X337699Y490268D02*
D03*
Y486331D02*
D03*
X341699Y490268D02*
D03*
Y486331D02*
D03*
X346099Y504768D02*
D03*
Y500831D02*
D03*
X342099Y504768D02*
D03*
Y500831D02*
D03*
X932299Y666268D02*
D03*
Y662331D02*
D03*
X936299Y666268D02*
D03*
Y662331D02*
D03*
X853000Y205031D02*
D03*
Y208968D02*
D03*
D25*
X910567Y31602D02*
D03*
X915291D02*
D03*
D26*
X931118Y108079D02*
D03*
D27*
X908008Y76366D02*
D03*
D28*
Y108512D02*
D03*
D29*
X1017358Y103551D02*
D03*
D30*
Y33728D02*
D03*
D31*
X927083Y48000D02*
D03*
X932988D02*
D03*
X938894D02*
D03*
X948736D02*
D03*
X958579D02*
D03*
X968421D02*
D03*
X978264D02*
D03*
X988106D02*
D03*
X997949D02*
D03*
D32*
X1007890Y15303D02*
D03*
X914189D02*
D03*
D33*
X832299Y122205D02*
D03*
Y110394D02*
D03*
X1176041Y853094D02*
D03*
Y864905D02*
D03*
X84299Y866394D02*
D03*
Y878205D02*
D03*
X52299Y866394D02*
D03*
Y878205D02*
D03*
X1002299Y774205D02*
D03*
Y762394D02*
D03*
X1014299Y774205D02*
D03*
Y762394D02*
D03*
X1026299Y774205D02*
D03*
Y762394D02*
D03*
X1038299Y774205D02*
D03*
Y762394D02*
D03*
X906299Y774205D02*
D03*
Y762394D02*
D03*
X918299Y774205D02*
D03*
Y762394D02*
D03*
X930299Y774205D02*
D03*
Y762394D02*
D03*
X942299Y774205D02*
D03*
Y762394D02*
D03*
X52299Y800394D02*
D03*
Y812205D02*
D03*
X68299Y800394D02*
D03*
Y812205D02*
D03*
X84299Y800394D02*
D03*
Y812205D02*
D03*
X100299Y800394D02*
D03*
Y812205D02*
D03*
X67299Y828394D02*
D03*
Y840205D02*
D03*
X83299Y828394D02*
D03*
Y840205D02*
D03*
X99299Y828394D02*
D03*
Y840205D02*
D03*
X52299Y828394D02*
D03*
Y840205D02*
D03*
X810299Y110394D02*
D03*
Y122205D02*
D03*
X850299Y110394D02*
D03*
Y122205D02*
D03*
X870299Y110394D02*
D03*
Y122205D02*
D03*
X100299Y866394D02*
D03*
Y878205D02*
D03*
X68299Y866394D02*
D03*
Y878205D02*
D03*
D34*
X784673Y203921D02*
D03*
Y201953D02*
D03*
Y199984D02*
D03*
Y198016D02*
D03*
Y196047D02*
D03*
Y194079D02*
D03*
Y192110D02*
D03*
Y190142D02*
D03*
Y188173D02*
D03*
Y186205D02*
D03*
Y184236D02*
D03*
Y182268D02*
D03*
Y180299D02*
D03*
Y178331D02*
D03*
Y176362D02*
D03*
Y174394D02*
D03*
Y172425D02*
D03*
Y170457D02*
D03*
Y168488D02*
D03*
Y166520D02*
D03*
Y164551D02*
D03*
Y162583D02*
D03*
Y160614D02*
D03*
Y158646D02*
D03*
Y156677D02*
D03*
X843925D02*
D03*
Y158646D02*
D03*
Y160614D02*
D03*
Y162583D02*
D03*
Y164551D02*
D03*
Y166520D02*
D03*
Y168488D02*
D03*
Y170457D02*
D03*
Y172425D02*
D03*
Y174394D02*
D03*
Y176362D02*
D03*
Y178331D02*
D03*
Y180299D02*
D03*
Y182268D02*
D03*
Y184236D02*
D03*
Y186205D02*
D03*
Y188173D02*
D03*
Y190142D02*
D03*
Y192110D02*
D03*
Y194079D02*
D03*
Y196047D02*
D03*
Y198016D02*
D03*
Y199984D02*
D03*
Y201953D02*
D03*
Y203921D02*
D03*
D35*
X790677Y150673D02*
D03*
X792646D02*
D03*
X794614D02*
D03*
X796583D02*
D03*
X798551D02*
D03*
X800520D02*
D03*
X802488D02*
D03*
X804457D02*
D03*
X806425D02*
D03*
X808394D02*
D03*
X810362D02*
D03*
X812331D02*
D03*
X814299D02*
D03*
X816268D02*
D03*
X818236D02*
D03*
X820205D02*
D03*
X822173D02*
D03*
X824142D02*
D03*
X826110D02*
D03*
X828079D02*
D03*
X830047D02*
D03*
X832016D02*
D03*
X833984D02*
D03*
X835953D02*
D03*
X837921D02*
D03*
Y209925D02*
D03*
X835953D02*
D03*
X833984D02*
D03*
X832016D02*
D03*
X830047D02*
D03*
X828079D02*
D03*
X826110D02*
D03*
X824142D02*
D03*
X822173D02*
D03*
X820205D02*
D03*
X818236D02*
D03*
X816268D02*
D03*
X814299D02*
D03*
X812331D02*
D03*
X810362D02*
D03*
X808394D02*
D03*
X806425D02*
D03*
X804457D02*
D03*
X802488D02*
D03*
X800520D02*
D03*
X798551D02*
D03*
X796583D02*
D03*
X794614D02*
D03*
X792646D02*
D03*
X790677D02*
D03*
D36*
X59803Y513000D02*
D03*
X32795D02*
D03*
Y423000D02*
D03*
X59803D02*
D03*
X32795Y503079D02*
D03*
X59803D02*
D03*
Y453000D02*
D03*
Y443000D02*
D03*
Y433000D02*
D03*
Y483000D02*
D03*
Y473000D02*
D03*
Y463000D02*
D03*
Y493000D02*
D03*
X32795D02*
D03*
Y463000D02*
D03*
Y473000D02*
D03*
Y483000D02*
D03*
Y433000D02*
D03*
Y443000D02*
D03*
Y453000D02*
D03*
X32795Y588299D02*
D03*
Y578299D02*
D03*
Y568299D02*
D03*
Y618299D02*
D03*
Y608299D02*
D03*
Y598299D02*
D03*
Y628299D02*
D03*
X59803D02*
D03*
Y598299D02*
D03*
Y608299D02*
D03*
Y618299D02*
D03*
Y568299D02*
D03*
Y578299D02*
D03*
Y588299D02*
D03*
Y638378D02*
D03*
X32795D02*
D03*
X59803Y558299D02*
D03*
X32795D02*
D03*
Y648299D02*
D03*
X59803D02*
D03*
D37*
X71512Y393000D02*
D03*
X60488D02*
D03*
X860787Y148299D02*
D03*
X871811D02*
D03*
X916787D02*
D03*
X927811D02*
D03*
X972787D02*
D03*
X983811D02*
D03*
X613811Y134299D02*
D03*
X602787D02*
D03*
X25512Y214000D02*
D03*
X14488D02*
D03*
D38*
X37559Y234000D02*
D03*
Y224000D02*
D03*
Y264000D02*
D03*
Y254000D02*
D03*
Y244000D02*
D03*
X55039D02*
D03*
Y254000D02*
D03*
Y264000D02*
D03*
Y224000D02*
D03*
Y234000D02*
D03*
X56043Y181000D02*
D03*
Y191000D02*
D03*
Y201000D02*
D03*
Y151000D02*
D03*
Y161000D02*
D03*
Y171000D02*
D03*
Y141000D02*
D03*
X36555D02*
D03*
Y171000D02*
D03*
Y161000D02*
D03*
Y151000D02*
D03*
Y201000D02*
D03*
Y191000D02*
D03*
Y181000D02*
D03*
X56043Y82299D02*
D03*
Y72299D02*
D03*
Y62299D02*
D03*
Y112299D02*
D03*
Y102299D02*
D03*
Y92299D02*
D03*
Y122299D02*
D03*
X36555D02*
D03*
Y92299D02*
D03*
Y102299D02*
D03*
Y112299D02*
D03*
Y62299D02*
D03*
Y72299D02*
D03*
Y82299D02*
D03*
D39*
X907402Y527399D02*
D03*
Y529899D02*
D03*
Y532399D02*
D03*
Y534899D02*
D03*
Y537399D02*
D03*
Y539899D02*
D03*
Y542399D02*
D03*
Y544899D02*
D03*
Y547399D02*
D03*
Y549899D02*
D03*
Y552399D02*
D03*
Y554899D02*
D03*
Y557399D02*
D03*
Y559899D02*
D03*
Y562399D02*
D03*
Y564899D02*
D03*
Y567399D02*
D03*
Y569899D02*
D03*
Y572399D02*
D03*
X935197Y527399D02*
D03*
Y529899D02*
D03*
Y532399D02*
D03*
Y534899D02*
D03*
Y537399D02*
D03*
Y539899D02*
D03*
Y542399D02*
D03*
Y544899D02*
D03*
Y547399D02*
D03*
Y549899D02*
D03*
Y552399D02*
D03*
Y554899D02*
D03*
Y557399D02*
D03*
Y559899D02*
D03*
Y562399D02*
D03*
Y564899D02*
D03*
Y567399D02*
D03*
Y569899D02*
D03*
Y572399D02*
D03*
D40*
X924213Y215748D02*
D03*
Y218898D02*
D03*
Y222047D02*
D03*
Y234646D02*
D03*
Y237795D02*
D03*
Y240945D02*
D03*
X927362Y215748D02*
D03*
Y218898D02*
D03*
Y222047D02*
D03*
Y234646D02*
D03*
Y237795D02*
D03*
Y240945D02*
D03*
X930512Y215748D02*
D03*
Y218898D02*
D03*
Y222047D02*
D03*
Y234646D02*
D03*
Y237795D02*
D03*
Y240945D02*
D03*
X933661Y215748D02*
D03*
Y218898D02*
D03*
Y222047D02*
D03*
Y234646D02*
D03*
Y237795D02*
D03*
Y240945D02*
D03*
X936811Y215748D02*
D03*
Y218898D02*
D03*
Y222047D02*
D03*
Y234646D02*
D03*
Y237795D02*
D03*
Y240945D02*
D03*
X939961Y215748D02*
D03*
Y218898D02*
D03*
Y222047D02*
D03*
Y234646D02*
D03*
Y237795D02*
D03*
Y240945D02*
D03*
X943110Y215748D02*
D03*
Y218898D02*
D03*
Y222047D02*
D03*
Y234646D02*
D03*
Y237795D02*
D03*
Y240945D02*
D03*
X946260Y215748D02*
D03*
Y218898D02*
D03*
Y222047D02*
D03*
Y234646D02*
D03*
Y237795D02*
D03*
Y240945D02*
D03*
X949409Y215748D02*
D03*
Y218898D02*
D03*
Y222047D02*
D03*
Y234646D02*
D03*
Y237795D02*
D03*
Y240945D02*
D03*
X952559Y218898D02*
D03*
Y222047D02*
D03*
Y234646D02*
D03*
Y237795D02*
D03*
Y240945D02*
D03*
X955709Y215748D02*
D03*
Y218898D02*
D03*
Y222047D02*
D03*
Y234646D02*
D03*
Y237795D02*
D03*
X958858Y218898D02*
D03*
Y222047D02*
D03*
Y234646D02*
D03*
Y237795D02*
D03*
Y240945D02*
D03*
X962008Y215748D02*
D03*
Y218898D02*
D03*
Y222047D02*
D03*
Y234646D02*
D03*
Y237795D02*
D03*
X965158Y218898D02*
D03*
Y222047D02*
D03*
Y234646D02*
D03*
Y237795D02*
D03*
Y240945D02*
D03*
X968307Y215748D02*
D03*
Y218898D02*
D03*
Y222047D02*
D03*
Y234646D02*
D03*
Y237795D02*
D03*
X966339Y277756D02*
D03*
Y280906D02*
D03*
Y284055D02*
D03*
Y296654D02*
D03*
Y299803D02*
D03*
Y302953D02*
D03*
X969488Y277756D02*
D03*
Y280906D02*
D03*
Y284055D02*
D03*
Y296654D02*
D03*
Y299803D02*
D03*
Y302953D02*
D03*
X972638Y277756D02*
D03*
Y280906D02*
D03*
Y284055D02*
D03*
Y296654D02*
D03*
Y299803D02*
D03*
Y302953D02*
D03*
X975787Y277756D02*
D03*
Y280906D02*
D03*
Y284055D02*
D03*
Y296654D02*
D03*
Y299803D02*
D03*
Y302953D02*
D03*
X978937Y277756D02*
D03*
Y280906D02*
D03*
Y284055D02*
D03*
Y296654D02*
D03*
Y299803D02*
D03*
Y302953D02*
D03*
X982087Y277756D02*
D03*
Y280906D02*
D03*
Y284055D02*
D03*
Y296654D02*
D03*
Y299803D02*
D03*
Y302953D02*
D03*
X985236Y277756D02*
D03*
Y280906D02*
D03*
Y284055D02*
D03*
Y296654D02*
D03*
Y299803D02*
D03*
Y302953D02*
D03*
X988386Y277756D02*
D03*
Y280906D02*
D03*
Y284055D02*
D03*
Y296654D02*
D03*
Y299803D02*
D03*
Y302953D02*
D03*
X991535Y277756D02*
D03*
Y280906D02*
D03*
Y284055D02*
D03*
Y296654D02*
D03*
Y299803D02*
D03*
Y302953D02*
D03*
X994685Y280906D02*
D03*
Y284055D02*
D03*
Y296654D02*
D03*
Y299803D02*
D03*
Y302953D02*
D03*
X997835Y277756D02*
D03*
Y280906D02*
D03*
Y284055D02*
D03*
Y296654D02*
D03*
Y299803D02*
D03*
X1000984Y280906D02*
D03*
Y284055D02*
D03*
Y296654D02*
D03*
Y299803D02*
D03*
Y302953D02*
D03*
X1004134Y277756D02*
D03*
Y280906D02*
D03*
Y284055D02*
D03*
Y296654D02*
D03*
Y299803D02*
D03*
X1007283Y280906D02*
D03*
Y284055D02*
D03*
Y296654D02*
D03*
Y299803D02*
D03*
Y302953D02*
D03*
X1010433Y277756D02*
D03*
Y280906D02*
D03*
Y284055D02*
D03*
Y296654D02*
D03*
Y299803D02*
D03*
X966339Y383661D02*
D03*
Y386811D02*
D03*
Y389961D02*
D03*
Y402559D02*
D03*
Y405709D02*
D03*
Y408858D02*
D03*
X969488Y383661D02*
D03*
Y386811D02*
D03*
Y389961D02*
D03*
Y402559D02*
D03*
Y405709D02*
D03*
Y408858D02*
D03*
X972638Y383661D02*
D03*
Y386811D02*
D03*
Y389961D02*
D03*
Y402559D02*
D03*
Y405709D02*
D03*
Y408858D02*
D03*
X975787Y383661D02*
D03*
Y386811D02*
D03*
Y389961D02*
D03*
Y402559D02*
D03*
Y405709D02*
D03*
Y408858D02*
D03*
X978937Y383661D02*
D03*
Y386811D02*
D03*
Y389961D02*
D03*
Y402559D02*
D03*
Y405709D02*
D03*
Y408858D02*
D03*
X982087Y383661D02*
D03*
Y386811D02*
D03*
Y389961D02*
D03*
Y402559D02*
D03*
Y405709D02*
D03*
Y408858D02*
D03*
X985236Y383661D02*
D03*
Y386811D02*
D03*
Y389961D02*
D03*
Y402559D02*
D03*
Y405709D02*
D03*
Y408858D02*
D03*
X988386Y383661D02*
D03*
Y386811D02*
D03*
Y389961D02*
D03*
Y402559D02*
D03*
Y405709D02*
D03*
Y408858D02*
D03*
X991535Y383661D02*
D03*
Y386811D02*
D03*
Y389961D02*
D03*
Y402559D02*
D03*
Y405709D02*
D03*
Y408858D02*
D03*
X994685Y386811D02*
D03*
Y389961D02*
D03*
Y402559D02*
D03*
Y405709D02*
D03*
Y408858D02*
D03*
X997835Y383661D02*
D03*
Y386811D02*
D03*
Y389961D02*
D03*
Y402559D02*
D03*
Y405709D02*
D03*
X1000984Y386811D02*
D03*
Y389961D02*
D03*
Y402559D02*
D03*
Y405709D02*
D03*
Y408858D02*
D03*
X1004134Y383661D02*
D03*
Y386811D02*
D03*
Y389961D02*
D03*
Y402559D02*
D03*
Y405709D02*
D03*
X1007283Y386811D02*
D03*
Y389961D02*
D03*
Y402559D02*
D03*
Y405709D02*
D03*
Y408858D02*
D03*
X1010433Y383661D02*
D03*
Y386811D02*
D03*
Y389961D02*
D03*
Y402559D02*
D03*
Y405709D02*
D03*
X924213Y445669D02*
D03*
Y448819D02*
D03*
Y451968D02*
D03*
Y464567D02*
D03*
Y467717D02*
D03*
Y470866D02*
D03*
X927362Y445669D02*
D03*
Y448819D02*
D03*
Y451968D02*
D03*
Y464567D02*
D03*
Y467717D02*
D03*
Y470866D02*
D03*
X930512Y445669D02*
D03*
Y448819D02*
D03*
Y451968D02*
D03*
Y464567D02*
D03*
Y467717D02*
D03*
Y470866D02*
D03*
X933661Y445669D02*
D03*
Y448819D02*
D03*
Y451968D02*
D03*
Y464567D02*
D03*
Y467717D02*
D03*
Y470866D02*
D03*
X936811Y445669D02*
D03*
Y448819D02*
D03*
Y451968D02*
D03*
Y464567D02*
D03*
Y467717D02*
D03*
Y470866D02*
D03*
X939961Y445669D02*
D03*
Y448819D02*
D03*
Y451968D02*
D03*
Y464567D02*
D03*
Y467717D02*
D03*
Y470866D02*
D03*
X943110Y445669D02*
D03*
Y448819D02*
D03*
Y451968D02*
D03*
Y464567D02*
D03*
Y467717D02*
D03*
Y470866D02*
D03*
X946260Y445669D02*
D03*
Y448819D02*
D03*
Y451968D02*
D03*
Y464567D02*
D03*
Y467717D02*
D03*
Y470866D02*
D03*
X949409Y445669D02*
D03*
Y448819D02*
D03*
Y451968D02*
D03*
Y464567D02*
D03*
Y467717D02*
D03*
Y470866D02*
D03*
X952559Y448819D02*
D03*
Y451968D02*
D03*
Y464567D02*
D03*
Y467717D02*
D03*
Y470866D02*
D03*
X955709Y445669D02*
D03*
Y448819D02*
D03*
Y451968D02*
D03*
Y464567D02*
D03*
Y467717D02*
D03*
X958858Y448819D02*
D03*
Y451968D02*
D03*
Y464567D02*
D03*
Y467717D02*
D03*
Y470866D02*
D03*
X962008Y445669D02*
D03*
Y448819D02*
D03*
Y451968D02*
D03*
Y464567D02*
D03*
Y467717D02*
D03*
X965158Y448819D02*
D03*
Y451968D02*
D03*
Y464567D02*
D03*
Y467717D02*
D03*
Y470866D02*
D03*
X968307Y445669D02*
D03*
Y448819D02*
D03*
Y451968D02*
D03*
Y464567D02*
D03*
Y467717D02*
D03*
X190913Y364173D02*
D03*
Y368110D02*
D03*
Y372047D02*
D03*
Y375984D02*
D03*
Y379921D02*
D03*
Y383858D02*
D03*
Y387795D02*
D03*
Y391732D02*
D03*
Y395669D02*
D03*
Y399606D02*
D03*
Y403543D02*
D03*
X194850Y364173D02*
D03*
Y368110D02*
D03*
Y372047D02*
D03*
Y375984D02*
D03*
Y379921D02*
D03*
Y383858D02*
D03*
Y387795D02*
D03*
Y391732D02*
D03*
Y395669D02*
D03*
Y399606D02*
D03*
Y403543D02*
D03*
X198787Y364173D02*
D03*
Y368110D02*
D03*
Y372047D02*
D03*
Y375984D02*
D03*
Y379921D02*
D03*
Y383858D02*
D03*
Y387795D02*
D03*
Y391732D02*
D03*
Y395669D02*
D03*
Y399606D02*
D03*
Y403543D02*
D03*
X202724Y364173D02*
D03*
Y368110D02*
D03*
Y372047D02*
D03*
Y375984D02*
D03*
Y379921D02*
D03*
Y383858D02*
D03*
Y387795D02*
D03*
Y391732D02*
D03*
Y395669D02*
D03*
Y399606D02*
D03*
Y403543D02*
D03*
X206661Y364173D02*
D03*
Y368110D02*
D03*
Y372047D02*
D03*
Y375984D02*
D03*
Y379921D02*
D03*
Y383858D02*
D03*
Y387795D02*
D03*
Y391732D02*
D03*
Y395669D02*
D03*
Y399606D02*
D03*
Y403543D02*
D03*
X210598Y364173D02*
D03*
Y368110D02*
D03*
Y372047D02*
D03*
Y375984D02*
D03*
Y379921D02*
D03*
Y383858D02*
D03*
Y387795D02*
D03*
Y391732D02*
D03*
Y395669D02*
D03*
Y399606D02*
D03*
Y403543D02*
D03*
X214535Y364173D02*
D03*
Y368110D02*
D03*
Y372047D02*
D03*
Y375984D02*
D03*
Y379921D02*
D03*
Y383858D02*
D03*
Y387795D02*
D03*
Y391732D02*
D03*
Y395669D02*
D03*
Y399606D02*
D03*
Y403543D02*
D03*
X218472Y364173D02*
D03*
Y368110D02*
D03*
Y372047D02*
D03*
Y375984D02*
D03*
Y379921D02*
D03*
Y383858D02*
D03*
Y387795D02*
D03*
Y391732D02*
D03*
Y395669D02*
D03*
Y399606D02*
D03*
Y403543D02*
D03*
X222410Y364173D02*
D03*
Y368110D02*
D03*
Y372047D02*
D03*
Y375984D02*
D03*
Y379921D02*
D03*
Y383858D02*
D03*
Y387795D02*
D03*
Y391732D02*
D03*
Y395669D02*
D03*
Y399606D02*
D03*
Y403543D02*
D03*
X226346Y364173D02*
D03*
Y368110D02*
D03*
Y372047D02*
D03*
Y375984D02*
D03*
Y379921D02*
D03*
Y383858D02*
D03*
Y387795D02*
D03*
Y391732D02*
D03*
Y395669D02*
D03*
Y399606D02*
D03*
Y403543D02*
D03*
X230283Y364173D02*
D03*
Y368110D02*
D03*
Y372047D02*
D03*
Y375984D02*
D03*
Y379921D02*
D03*
Y383858D02*
D03*
Y387795D02*
D03*
Y391732D02*
D03*
Y395669D02*
D03*
Y399606D02*
D03*
Y403543D02*
D03*
X234221Y364173D02*
D03*
Y368110D02*
D03*
Y372047D02*
D03*
Y375984D02*
D03*
Y379921D02*
D03*
Y383858D02*
D03*
Y387795D02*
D03*
Y391732D02*
D03*
Y395669D02*
D03*
Y399606D02*
D03*
Y403543D02*
D03*
X238158Y364173D02*
D03*
Y368110D02*
D03*
Y372047D02*
D03*
Y375984D02*
D03*
Y379921D02*
D03*
Y383858D02*
D03*
Y387795D02*
D03*
Y391732D02*
D03*
Y395669D02*
D03*
Y399606D02*
D03*
Y403543D02*
D03*
X242094Y364173D02*
D03*
Y368110D02*
D03*
Y372047D02*
D03*
Y375984D02*
D03*
Y379921D02*
D03*
Y383858D02*
D03*
Y387795D02*
D03*
Y391732D02*
D03*
Y395669D02*
D03*
Y399606D02*
D03*
Y403543D02*
D03*
X186976D02*
D03*
Y399606D02*
D03*
Y395669D02*
D03*
Y391732D02*
D03*
Y387795D02*
D03*
Y383858D02*
D03*
Y379921D02*
D03*
Y375984D02*
D03*
Y372047D02*
D03*
Y368110D02*
D03*
Y364173D02*
D03*
X354331Y118079D02*
D03*
X350394D02*
D03*
X346457D02*
D03*
X342520D02*
D03*
X338583D02*
D03*
X334646D02*
D03*
X330709D02*
D03*
X326772D02*
D03*
X322835D02*
D03*
X318898D02*
D03*
X314961D02*
D03*
X354331Y122016D02*
D03*
X350394D02*
D03*
X346457D02*
D03*
X342520D02*
D03*
X338583D02*
D03*
X334646D02*
D03*
X330709D02*
D03*
X326772D02*
D03*
X322835D02*
D03*
X318898D02*
D03*
X314961D02*
D03*
X354331Y125953D02*
D03*
X350394D02*
D03*
X346457D02*
D03*
X342520D02*
D03*
X338583D02*
D03*
X334646D02*
D03*
X330709D02*
D03*
X326772D02*
D03*
X322835D02*
D03*
X318898D02*
D03*
X314961D02*
D03*
X354331Y129890D02*
D03*
X350394D02*
D03*
X346457D02*
D03*
X342520D02*
D03*
X338583D02*
D03*
X334646D02*
D03*
X330709D02*
D03*
X326772D02*
D03*
X322835D02*
D03*
X318898D02*
D03*
X314961D02*
D03*
X354331Y133827D02*
D03*
X350394D02*
D03*
X346457D02*
D03*
X342520D02*
D03*
X338583D02*
D03*
X334646D02*
D03*
X330709D02*
D03*
X326772D02*
D03*
X322835D02*
D03*
X318898D02*
D03*
X314961D02*
D03*
X354331Y137764D02*
D03*
X350394D02*
D03*
X346457D02*
D03*
X342520D02*
D03*
X338583D02*
D03*
X334646D02*
D03*
X330709D02*
D03*
X326772D02*
D03*
X322835D02*
D03*
X318898D02*
D03*
X314961D02*
D03*
X354331Y141701D02*
D03*
X350394D02*
D03*
X346457D02*
D03*
X342520D02*
D03*
X338583D02*
D03*
X334646D02*
D03*
X330709D02*
D03*
X326772D02*
D03*
X322835D02*
D03*
X318898D02*
D03*
X314961D02*
D03*
X354331Y145638D02*
D03*
X350394D02*
D03*
X346457D02*
D03*
X342520D02*
D03*
X338583D02*
D03*
X334646D02*
D03*
X330709D02*
D03*
X326772D02*
D03*
X322835D02*
D03*
X318898D02*
D03*
X314961D02*
D03*
X354331Y149575D02*
D03*
X350394D02*
D03*
X346457D02*
D03*
X342520D02*
D03*
X338583D02*
D03*
X334646D02*
D03*
X330709D02*
D03*
X326772D02*
D03*
X322835D02*
D03*
X318898D02*
D03*
X314961D02*
D03*
X354331Y153512D02*
D03*
X350394D02*
D03*
X346457D02*
D03*
X342520D02*
D03*
X338583D02*
D03*
X334646D02*
D03*
X330709D02*
D03*
X326772D02*
D03*
X322835D02*
D03*
X318898D02*
D03*
X314961D02*
D03*
X354331Y157449D02*
D03*
X350394D02*
D03*
X346457D02*
D03*
X342520D02*
D03*
X338583D02*
D03*
X334646D02*
D03*
X330709D02*
D03*
X326772D02*
D03*
X322835D02*
D03*
X318898D02*
D03*
X314961D02*
D03*
X354331Y161386D02*
D03*
X350394D02*
D03*
X346457D02*
D03*
X342520D02*
D03*
X338583D02*
D03*
X334646D02*
D03*
X330709D02*
D03*
X326772D02*
D03*
X322835D02*
D03*
X318898D02*
D03*
X314961D02*
D03*
X354331Y165323D02*
D03*
X350394D02*
D03*
X346457D02*
D03*
X342520D02*
D03*
X338583D02*
D03*
X334646D02*
D03*
X330709D02*
D03*
X326772D02*
D03*
X322835D02*
D03*
X318898D02*
D03*
X314961D02*
D03*
X354331Y169260D02*
D03*
X350394D02*
D03*
X346457D02*
D03*
X342520D02*
D03*
X338583D02*
D03*
X334646D02*
D03*
X330709D02*
D03*
X326772D02*
D03*
X322835D02*
D03*
X318898D02*
D03*
X314961D02*
D03*
Y114142D02*
D03*
X318898D02*
D03*
X322835D02*
D03*
X326772D02*
D03*
X330709D02*
D03*
X334646D02*
D03*
X338583D02*
D03*
X342520D02*
D03*
X346457D02*
D03*
X350394D02*
D03*
X354331D02*
D03*
X626016Y381890D02*
D03*
Y377953D02*
D03*
Y374016D02*
D03*
Y370079D02*
D03*
Y366142D02*
D03*
Y362205D02*
D03*
Y358268D02*
D03*
Y354331D02*
D03*
Y350394D02*
D03*
Y346457D02*
D03*
Y342520D02*
D03*
X622079Y381890D02*
D03*
Y377953D02*
D03*
Y374016D02*
D03*
Y370079D02*
D03*
Y366142D02*
D03*
Y362205D02*
D03*
Y358268D02*
D03*
Y354331D02*
D03*
Y350394D02*
D03*
Y346457D02*
D03*
Y342520D02*
D03*
X618142Y381890D02*
D03*
Y377953D02*
D03*
Y374016D02*
D03*
Y370079D02*
D03*
Y366142D02*
D03*
Y362205D02*
D03*
Y358268D02*
D03*
Y354331D02*
D03*
Y350394D02*
D03*
Y346457D02*
D03*
Y342520D02*
D03*
X614205Y381890D02*
D03*
Y377953D02*
D03*
Y374016D02*
D03*
Y370079D02*
D03*
Y366142D02*
D03*
Y362205D02*
D03*
Y358268D02*
D03*
Y354331D02*
D03*
Y350394D02*
D03*
Y346457D02*
D03*
Y342520D02*
D03*
X610268Y381890D02*
D03*
Y377953D02*
D03*
Y374016D02*
D03*
Y370079D02*
D03*
Y366142D02*
D03*
Y362205D02*
D03*
Y358268D02*
D03*
Y354331D02*
D03*
Y350394D02*
D03*
Y346457D02*
D03*
Y342520D02*
D03*
X606331Y381890D02*
D03*
Y377953D02*
D03*
Y374016D02*
D03*
Y370079D02*
D03*
Y366142D02*
D03*
Y362205D02*
D03*
Y358268D02*
D03*
Y354331D02*
D03*
Y350394D02*
D03*
Y346457D02*
D03*
Y342520D02*
D03*
X602394Y381890D02*
D03*
Y377953D02*
D03*
Y374016D02*
D03*
Y370079D02*
D03*
Y366142D02*
D03*
Y362205D02*
D03*
Y358268D02*
D03*
Y354331D02*
D03*
Y350394D02*
D03*
Y346457D02*
D03*
Y342520D02*
D03*
X598457Y381890D02*
D03*
Y377953D02*
D03*
Y374016D02*
D03*
Y370079D02*
D03*
Y366142D02*
D03*
Y362205D02*
D03*
Y358268D02*
D03*
Y354331D02*
D03*
Y350394D02*
D03*
Y346457D02*
D03*
Y342520D02*
D03*
X594520Y381890D02*
D03*
Y377953D02*
D03*
Y374016D02*
D03*
Y370079D02*
D03*
Y366142D02*
D03*
Y362205D02*
D03*
Y358268D02*
D03*
Y354331D02*
D03*
Y350394D02*
D03*
Y346457D02*
D03*
Y342520D02*
D03*
X590583Y381890D02*
D03*
Y377953D02*
D03*
Y374016D02*
D03*
Y370079D02*
D03*
Y366142D02*
D03*
Y362205D02*
D03*
Y358268D02*
D03*
Y354331D02*
D03*
Y350394D02*
D03*
Y346457D02*
D03*
Y342520D02*
D03*
X586646Y381890D02*
D03*
Y377953D02*
D03*
Y374016D02*
D03*
Y370079D02*
D03*
Y366142D02*
D03*
Y362205D02*
D03*
Y358268D02*
D03*
Y354331D02*
D03*
Y350394D02*
D03*
Y346457D02*
D03*
Y342520D02*
D03*
X582709Y381890D02*
D03*
Y377953D02*
D03*
Y374016D02*
D03*
Y370079D02*
D03*
Y366142D02*
D03*
Y362205D02*
D03*
Y358268D02*
D03*
Y354331D02*
D03*
Y350394D02*
D03*
Y346457D02*
D03*
Y342520D02*
D03*
X578772Y381890D02*
D03*
Y377953D02*
D03*
Y374016D02*
D03*
Y370079D02*
D03*
Y366142D02*
D03*
Y362205D02*
D03*
Y358268D02*
D03*
Y354331D02*
D03*
Y350394D02*
D03*
Y346457D02*
D03*
Y342520D02*
D03*
X574835Y381890D02*
D03*
Y377953D02*
D03*
Y374016D02*
D03*
Y370079D02*
D03*
Y366142D02*
D03*
Y362205D02*
D03*
Y358268D02*
D03*
Y354331D02*
D03*
Y350394D02*
D03*
Y346457D02*
D03*
Y342520D02*
D03*
X629953D02*
D03*
Y346457D02*
D03*
Y350394D02*
D03*
Y354331D02*
D03*
Y358268D02*
D03*
Y362205D02*
D03*
Y366142D02*
D03*
Y370079D02*
D03*
Y374016D02*
D03*
Y377953D02*
D03*
Y381890D02*
D03*
X626016Y263779D02*
D03*
Y259842D02*
D03*
Y255906D02*
D03*
Y251969D02*
D03*
Y248031D02*
D03*
Y244094D02*
D03*
Y240158D02*
D03*
Y236221D02*
D03*
Y232283D02*
D03*
Y228346D02*
D03*
Y224410D02*
D03*
X622079Y263779D02*
D03*
Y259842D02*
D03*
Y255906D02*
D03*
Y251969D02*
D03*
Y248031D02*
D03*
Y244094D02*
D03*
Y240158D02*
D03*
Y236221D02*
D03*
Y232283D02*
D03*
Y228346D02*
D03*
Y224410D02*
D03*
X618142Y263779D02*
D03*
Y259842D02*
D03*
Y255906D02*
D03*
Y251969D02*
D03*
Y248031D02*
D03*
Y244094D02*
D03*
Y240158D02*
D03*
Y236221D02*
D03*
Y232283D02*
D03*
Y228346D02*
D03*
Y224410D02*
D03*
X614205Y263779D02*
D03*
Y259842D02*
D03*
Y255906D02*
D03*
Y251969D02*
D03*
Y248031D02*
D03*
Y244094D02*
D03*
Y240158D02*
D03*
Y236221D02*
D03*
Y232283D02*
D03*
Y228346D02*
D03*
Y224410D02*
D03*
X610268Y263779D02*
D03*
Y259842D02*
D03*
Y255906D02*
D03*
Y251969D02*
D03*
Y248031D02*
D03*
Y244094D02*
D03*
Y240158D02*
D03*
Y236221D02*
D03*
Y232283D02*
D03*
Y228346D02*
D03*
Y224410D02*
D03*
X606331Y263779D02*
D03*
Y259842D02*
D03*
Y255906D02*
D03*
Y251969D02*
D03*
Y248031D02*
D03*
Y244094D02*
D03*
Y240158D02*
D03*
Y236221D02*
D03*
Y232283D02*
D03*
Y228346D02*
D03*
Y224410D02*
D03*
X602394Y263779D02*
D03*
Y259842D02*
D03*
Y255906D02*
D03*
Y251969D02*
D03*
Y248031D02*
D03*
Y244094D02*
D03*
Y240158D02*
D03*
Y236221D02*
D03*
Y232283D02*
D03*
Y228346D02*
D03*
Y224410D02*
D03*
X598457Y263779D02*
D03*
Y259842D02*
D03*
Y255906D02*
D03*
Y251969D02*
D03*
Y248031D02*
D03*
Y244094D02*
D03*
Y240158D02*
D03*
Y236221D02*
D03*
Y232283D02*
D03*
Y228346D02*
D03*
Y224410D02*
D03*
X594520Y263779D02*
D03*
Y259842D02*
D03*
Y255906D02*
D03*
Y251969D02*
D03*
Y248031D02*
D03*
Y244094D02*
D03*
Y240158D02*
D03*
Y236221D02*
D03*
Y232283D02*
D03*
Y228346D02*
D03*
Y224410D02*
D03*
X590583Y263779D02*
D03*
Y259842D02*
D03*
Y255906D02*
D03*
Y251969D02*
D03*
Y248031D02*
D03*
Y244094D02*
D03*
Y240158D02*
D03*
Y236221D02*
D03*
Y232283D02*
D03*
Y228346D02*
D03*
Y224410D02*
D03*
X586646Y263779D02*
D03*
Y259842D02*
D03*
Y255906D02*
D03*
Y251969D02*
D03*
Y248031D02*
D03*
Y244094D02*
D03*
Y240158D02*
D03*
Y236221D02*
D03*
Y232283D02*
D03*
Y228346D02*
D03*
Y224410D02*
D03*
X582709Y263779D02*
D03*
Y259842D02*
D03*
Y255906D02*
D03*
Y251969D02*
D03*
Y248031D02*
D03*
Y244094D02*
D03*
Y240158D02*
D03*
Y236221D02*
D03*
Y232283D02*
D03*
Y228346D02*
D03*
Y224410D02*
D03*
X578772Y263779D02*
D03*
Y259842D02*
D03*
Y255906D02*
D03*
Y251969D02*
D03*
Y248031D02*
D03*
Y244094D02*
D03*
Y240158D02*
D03*
Y236221D02*
D03*
Y232283D02*
D03*
Y228346D02*
D03*
Y224410D02*
D03*
X574835Y263779D02*
D03*
Y259842D02*
D03*
Y255906D02*
D03*
Y251969D02*
D03*
Y248031D02*
D03*
Y244094D02*
D03*
Y240158D02*
D03*
Y236221D02*
D03*
Y232283D02*
D03*
Y228346D02*
D03*
Y224410D02*
D03*
X629953D02*
D03*
Y228346D02*
D03*
Y232283D02*
D03*
Y236221D02*
D03*
Y240158D02*
D03*
Y244094D02*
D03*
Y248031D02*
D03*
Y251969D02*
D03*
Y255906D02*
D03*
Y259842D02*
D03*
Y263779D02*
D03*
D41*
X963221Y602555D02*
D03*
Y622043D02*
D03*
X1013299D02*
D03*
X1023299D02*
D03*
X1033299D02*
D03*
X983299D02*
D03*
X993299D02*
D03*
X1003299D02*
D03*
X973299D02*
D03*
Y602555D02*
D03*
X1003299D02*
D03*
X993299D02*
D03*
X983299D02*
D03*
X1033299D02*
D03*
X1023299D02*
D03*
X1013299D02*
D03*
X920299Y689559D02*
D03*
X910299D02*
D03*
X950299D02*
D03*
X940299D02*
D03*
X930299D02*
D03*
Y707039D02*
D03*
X940299D02*
D03*
X950299D02*
D03*
X910299D02*
D03*
X920299D02*
D03*
D42*
X1063499Y831614D02*
D03*
Y820984D02*
D03*
X133799Y73614D02*
D03*
Y62984D02*
D03*
X1188299Y741614D02*
D03*
Y730984D02*
D03*
X457099Y536614D02*
D03*
Y525984D02*
D03*
X376699Y535214D02*
D03*
Y524584D02*
D03*
X445099Y536614D02*
D03*
Y525984D02*
D03*
X363299Y535114D02*
D03*
Y524484D02*
D03*
X1092299Y271614D02*
D03*
Y260984D02*
D03*
X1052299Y144984D02*
D03*
Y155614D02*
D03*
X894299Y451614D02*
D03*
Y440984D02*
D03*
X995299Y882114D02*
D03*
Y871484D02*
D03*
X1059899Y879614D02*
D03*
Y868984D02*
D03*
X306299Y82984D02*
D03*
Y93614D02*
D03*
X234299Y275614D02*
D03*
Y264984D02*
D03*
X221299Y247984D02*
D03*
Y258614D02*
D03*
X233299Y247984D02*
D03*
Y258614D02*
D03*
X60299Y347984D02*
D03*
Y358614D02*
D03*
X74299Y347984D02*
D03*
Y358614D02*
D03*
X905099Y881714D02*
D03*
Y871084D02*
D03*
X965899Y878814D02*
D03*
Y868184D02*
D03*
D43*
X130630Y906849D02*
D03*
X121968Y903109D02*
D03*
Y910589D02*
D03*
X1018630Y178559D02*
D03*
Y186039D02*
D03*
X1009968Y182299D02*
D03*
X962630Y176559D02*
D03*
Y184039D02*
D03*
X953968Y180299D02*
D03*
X906630Y176559D02*
D03*
Y184039D02*
D03*
X897968Y180299D02*
D03*
X91968Y684039D02*
D03*
Y676559D02*
D03*
X100630Y680299D02*
D03*
X1036468Y117039D02*
D03*
Y109559D02*
D03*
X1045130Y113299D02*
D03*
X1055968Y106039D02*
D03*
Y98559D02*
D03*
X1064630Y102299D02*
D03*
X800630Y525559D02*
D03*
Y533039D02*
D03*
X791968Y529299D02*
D03*
X583968Y116039D02*
D03*
Y108559D02*
D03*
X592630Y112299D02*
D03*
X121968Y812039D02*
D03*
Y804559D02*
D03*
X130630Y808299D02*
D03*
X15968Y314039D02*
D03*
Y306559D02*
D03*
X24630Y310299D02*
D03*
X121968Y888039D02*
D03*
Y880559D02*
D03*
X130630Y884299D02*
D03*
X121968Y836039D02*
D03*
Y828559D02*
D03*
X130630Y832299D02*
D03*
X121968Y864039D02*
D03*
Y856559D02*
D03*
X130630Y860299D02*
D03*
X795213Y94697D02*
D03*
Y87217D02*
D03*
X803874Y90957D02*
D03*
D44*
X953752Y191799D02*
D03*
X947846D02*
D03*
X897752Y191299D02*
D03*
X891846D02*
D03*
X611252Y404299D02*
D03*
X605346D02*
D03*
X587252Y318299D02*
D03*
X581346D02*
D03*
X1140252Y892299D02*
D03*
X1134346D02*
D03*
X289252Y152299D02*
D03*
X283346D02*
D03*
X289252Y138299D02*
D03*
X283346D02*
D03*
X1013252Y568299D02*
D03*
X1007346D02*
D03*
X1010252Y193299D02*
D03*
X1004346D02*
D03*
X1164346Y886331D02*
D03*
X1170252D02*
D03*
X1034346Y321799D02*
D03*
X1040252D02*
D03*
X837846Y221299D02*
D03*
X843752D02*
D03*
X589346Y404299D02*
D03*
X595252D02*
D03*
D45*
X962236Y166370D02*
D03*
X960268D02*
D03*
X958299D02*
D03*
X956331D02*
D03*
X954362D02*
D03*
X962236Y150228D02*
D03*
X960268D02*
D03*
X958299D02*
D03*
X956331D02*
D03*
X954362D02*
D03*
X904236Y164370D02*
D03*
X902268D02*
D03*
X900299D02*
D03*
X898331D02*
D03*
X896362D02*
D03*
X904236Y148228D02*
D03*
X902268D02*
D03*
X900299D02*
D03*
X898331D02*
D03*
X896362D02*
D03*
X1018236Y166370D02*
D03*
X1016268D02*
D03*
X1014299D02*
D03*
X1012331D02*
D03*
X1010362D02*
D03*
X1018236Y150228D02*
D03*
X1016268D02*
D03*
X1014299D02*
D03*
X1012331D02*
D03*
X1010362D02*
D03*
D46*
X516499Y192181D02*
D03*
Y202417D02*
D03*
X812299Y249181D02*
D03*
Y259417D02*
D03*
X826299Y249181D02*
D03*
Y259417D02*
D03*
X818299Y445417D02*
D03*
Y435181D02*
D03*
X832299Y445417D02*
D03*
Y435181D02*
D03*
X728299Y249181D02*
D03*
Y259417D02*
D03*
X722299Y445417D02*
D03*
Y435181D02*
D03*
X758299Y445417D02*
D03*
Y435181D02*
D03*
X790299Y249181D02*
D03*
Y259417D02*
D03*
X386299Y191181D02*
D03*
Y201417D02*
D03*
X444299Y191181D02*
D03*
Y201417D02*
D03*
X426299Y191181D02*
D03*
Y201417D02*
D03*
X368299Y191181D02*
D03*
Y201417D02*
D03*
X350299Y191181D02*
D03*
Y201417D02*
D03*
X332299Y191181D02*
D03*
Y201417D02*
D03*
X462299Y191181D02*
D03*
Y201417D02*
D03*
X490299Y87417D02*
D03*
Y77181D02*
D03*
X836299Y87417D02*
D03*
Y77181D02*
D03*
X281599Y93517D02*
D03*
Y83281D02*
D03*
X628299Y87417D02*
D03*
Y77181D02*
D03*
X262299Y93417D02*
D03*
Y83181D02*
D03*
X610299Y87417D02*
D03*
Y77181D02*
D03*
X832299Y523181D02*
D03*
Y533417D02*
D03*
X748299Y523181D02*
D03*
Y533417D02*
D03*
X768299Y523181D02*
D03*
Y533417D02*
D03*
X852299Y523181D02*
D03*
Y533417D02*
D03*
X400899Y526681D02*
D03*
Y536917D02*
D03*
X535499Y525881D02*
D03*
Y536117D02*
D03*
X419099Y526481D02*
D03*
Y536717D02*
D03*
X502499Y525381D02*
D03*
Y535617D02*
D03*
X298111Y210227D02*
D03*
Y199991D02*
D03*
X483799Y525181D02*
D03*
Y535417D02*
D03*
D47*
X280358Y230299D02*
D03*
X300240D02*
D03*
X532240Y394299D02*
D03*
X512358D02*
D03*
X1101240Y886299D02*
D03*
X1081358D02*
D03*
X532540Y309699D02*
D03*
X512658D02*
D03*
X1064358Y644299D02*
D03*
X1084240D02*
D03*
X1038358Y432299D02*
D03*
X1058240D02*
D03*
X280358Y318299D02*
D03*
X300240D02*
D03*
X277358Y404299D02*
D03*
X297240D02*
D03*
X394428Y469909D02*
D03*
X414310D02*
D03*
D48*
X682480Y504134D02*
D03*
Y500394D02*
D03*
Y496654D02*
D03*
X692717D02*
D03*
Y504134D02*
D03*
X1029181Y288039D02*
D03*
Y284299D02*
D03*
Y280559D02*
D03*
X1039417D02*
D03*
Y288039D02*
D03*
X692717Y488386D02*
D03*
Y480906D02*
D03*
X682480D02*
D03*
Y484646D02*
D03*
Y488386D02*
D03*
X667917Y206559D02*
D03*
Y210299D02*
D03*
Y214039D02*
D03*
X657681D02*
D03*
Y206559D02*
D03*
D49*
X524771Y222679D02*
D03*
X535007D02*
D03*
X461417Y472299D02*
D03*
X451181D02*
D03*
X1015118Y502000D02*
D03*
X1004882D02*
D03*
X527417Y330299D02*
D03*
X517181D02*
D03*
X527417Y352299D02*
D03*
X517181D02*
D03*
X535417Y260000D02*
D03*
X525181D02*
D03*
X535417Y278000D02*
D03*
X525181D02*
D03*
X535417Y242000D02*
D03*
X525181D02*
D03*
X281181Y366299D02*
D03*
X291417D02*
D03*
X755181Y230299D02*
D03*
X765417D02*
D03*
X281181Y346299D02*
D03*
X291417D02*
D03*
X285181Y274299D02*
D03*
X295417D02*
D03*
X285181Y254299D02*
D03*
X295417D02*
D03*
X281181Y386299D02*
D03*
X291417D02*
D03*
X285181Y294299D02*
D03*
X295417D02*
D03*
X527417Y372299D02*
D03*
X517181D02*
D03*
X364681Y471399D02*
D03*
X374917D02*
D03*
D50*
X1137016Y809968D02*
D03*
X1151583D02*
D03*
Y818630D02*
D03*
X1137016D02*
D03*
X875583Y225968D02*
D03*
X861016D02*
D03*
Y234630D02*
D03*
X875583D02*
D03*
D51*
X895252Y868299D02*
D03*
X889346D02*
D03*
X984252D02*
D03*
X978346D02*
D03*
X1134346Y900268D02*
D03*
X1140252D02*
D03*
X875346Y370299D02*
D03*
X881252D02*
D03*
Y388299D02*
D03*
X875346D02*
D03*
X1170252Y894331D02*
D03*
X1164346D02*
D03*
X203252Y461131D02*
D03*
X197346D02*
D03*
X492752Y481899D02*
D03*
X486846D02*
D03*
D52*
X1013614Y528000D02*
D03*
X1040386D02*
D03*
X1110913Y672299D02*
D03*
X1137685D02*
D03*
X1056913Y698299D02*
D03*
X1083685D02*
D03*
D53*
X1045299Y478685D02*
D03*
Y451913D02*
D03*
D54*
X353899Y512246D02*
D03*
Y518152D02*
D03*
X802299Y255346D02*
D03*
Y261252D02*
D03*
X734299Y439252D02*
D03*
Y433346D02*
D03*
X844299Y439252D02*
D03*
Y433346D02*
D03*
X748299Y251346D02*
D03*
Y257252D02*
D03*
X738299D02*
D03*
Y251346D02*
D03*
X886299Y291346D02*
D03*
Y297252D02*
D03*
D55*
X976079Y672976D02*
D03*
Y670417D02*
D03*
Y667858D02*
D03*
Y665299D02*
D03*
Y662740D02*
D03*
Y660181D02*
D03*
Y657622D02*
D03*
X998520Y672976D02*
D03*
Y670417D02*
D03*
Y667858D02*
D03*
Y665299D02*
D03*
Y662740D02*
D03*
Y660181D02*
D03*
Y657622D02*
D03*
X126979Y636674D02*
D03*
Y634115D02*
D03*
Y631556D02*
D03*
Y628997D02*
D03*
Y626438D02*
D03*
Y623879D02*
D03*
Y621320D02*
D03*
Y618761D02*
D03*
Y616202D02*
D03*
Y613643D02*
D03*
Y611083D02*
D03*
Y608524D02*
D03*
X149420Y636674D02*
D03*
Y634115D02*
D03*
Y631556D02*
D03*
Y628997D02*
D03*
Y626438D02*
D03*
Y623879D02*
D03*
Y621320D02*
D03*
Y618761D02*
D03*
Y616202D02*
D03*
Y613643D02*
D03*
Y611083D02*
D03*
Y608524D02*
D03*
D56*
X893299Y821968D02*
D03*
X883299Y830630D02*
D03*
X893299D02*
D03*
X883299Y821968D02*
D03*
X987299D02*
D03*
X977299Y830630D02*
D03*
X987299D02*
D03*
X977299Y821968D02*
D03*
D57*
X992868Y324152D02*
D03*
Y318246D02*
D03*
Y322183D02*
D03*
Y320215D02*
D03*
X988931D02*
D03*
Y322183D02*
D03*
Y318246D02*
D03*
Y324152D02*
D03*
X992868Y360152D02*
D03*
Y354246D02*
D03*
Y358183D02*
D03*
Y356215D02*
D03*
X988931D02*
D03*
Y358183D02*
D03*
Y354246D02*
D03*
Y360152D02*
D03*
X992868Y369152D02*
D03*
Y363246D02*
D03*
Y367183D02*
D03*
Y365215D02*
D03*
X988931D02*
D03*
Y367183D02*
D03*
Y363246D02*
D03*
Y369152D02*
D03*
X992868Y351152D02*
D03*
Y345246D02*
D03*
Y349183D02*
D03*
Y347215D02*
D03*
X988931D02*
D03*
Y349183D02*
D03*
Y345246D02*
D03*
Y351152D02*
D03*
X992868Y342152D02*
D03*
Y336246D02*
D03*
Y340183D02*
D03*
Y338215D02*
D03*
X988931D02*
D03*
Y340183D02*
D03*
Y336246D02*
D03*
Y342152D02*
D03*
X992868Y333152D02*
D03*
Y327246D02*
D03*
Y331183D02*
D03*
Y329215D02*
D03*
X988931D02*
D03*
Y331183D02*
D03*
Y327246D02*
D03*
Y333152D02*
D03*
D58*
X1045299Y281752D02*
D03*
Y275846D02*
D03*
X580299Y157346D02*
D03*
Y163252D02*
D03*
X1162799Y869252D02*
D03*
Y863346D02*
D03*
X894299Y297252D02*
D03*
Y291346D02*
D03*
X802299Y133252D02*
D03*
Y127346D02*
D03*
X897445Y116252D02*
D03*
Y110346D02*
D03*
X602299Y201252D02*
D03*
Y195346D02*
D03*
Y283346D02*
D03*
Y289252D02*
D03*
X594299Y201252D02*
D03*
Y195346D02*
D03*
X596299Y303346D02*
D03*
Y309252D02*
D03*
X206299Y339252D02*
D03*
Y333346D02*
D03*
X334299Y85346D02*
D03*
Y91252D02*
D03*
X178799Y339252D02*
D03*
Y333346D02*
D03*
X194299Y339252D02*
D03*
Y333346D02*
D03*
X272299Y263252D02*
D03*
Y257346D02*
D03*
X22299Y353252D02*
D03*
Y347346D02*
D03*
X704331Y464764D02*
D03*
Y458858D02*
D03*
D59*
X1116000Y901559D02*
D03*
Y896441D02*
D03*
X1070299Y879858D02*
D03*
Y874740D02*
D03*
D60*
X210433Y106079D02*
D03*
Y98520D02*
D03*
X202165D02*
D03*
D61*
Y105291D02*
D03*
D62*
X1047886Y511299D02*
D03*
X1058713D02*
D03*
X1167713Y696299D02*
D03*
X1156886D02*
D03*
X1167713Y680299D02*
D03*
X1156886D02*
D03*
D63*
X1048772Y639980D02*
D03*
Y644980D02*
D03*
Y649980D02*
D03*
Y654980D02*
D03*
Y659980D02*
D03*
Y664980D02*
D03*
Y669980D02*
D03*
Y674980D02*
D03*
X1012157Y639980D02*
D03*
Y644980D02*
D03*
Y649980D02*
D03*
Y654980D02*
D03*
Y659980D02*
D03*
Y664980D02*
D03*
Y669980D02*
D03*
Y674980D02*
D03*
D64*
X662083Y414070D02*
D03*
Y412101D02*
D03*
Y410133D02*
D03*
Y408164D02*
D03*
Y406196D02*
D03*
Y404227D02*
D03*
Y402259D02*
D03*
Y400290D02*
D03*
Y398322D02*
D03*
Y396353D02*
D03*
Y394385D02*
D03*
Y392416D02*
D03*
Y390448D02*
D03*
Y388479D02*
D03*
Y386511D02*
D03*
Y384542D02*
D03*
Y382574D02*
D03*
Y380605D02*
D03*
Y378637D02*
D03*
Y376668D02*
D03*
Y374700D02*
D03*
Y372731D02*
D03*
Y370763D02*
D03*
Y368794D02*
D03*
Y366826D02*
D03*
Y364857D02*
D03*
Y362889D02*
D03*
Y360920D02*
D03*
X690626Y414070D02*
D03*
Y412101D02*
D03*
Y410133D02*
D03*
Y408164D02*
D03*
Y406196D02*
D03*
Y404227D02*
D03*
Y402259D02*
D03*
Y400290D02*
D03*
Y398322D02*
D03*
Y396353D02*
D03*
Y394385D02*
D03*
Y392416D02*
D03*
Y390448D02*
D03*
Y388479D02*
D03*
Y386511D02*
D03*
Y384542D02*
D03*
Y382574D02*
D03*
Y380605D02*
D03*
Y378637D02*
D03*
Y376668D02*
D03*
Y374700D02*
D03*
Y372731D02*
D03*
Y370763D02*
D03*
Y368794D02*
D03*
Y366826D02*
D03*
Y364857D02*
D03*
Y362889D02*
D03*
Y360920D02*
D03*
X662083Y351975D02*
D03*
Y350007D02*
D03*
Y348038D02*
D03*
Y346070D02*
D03*
Y344101D02*
D03*
Y342133D02*
D03*
Y340164D02*
D03*
Y338196D02*
D03*
Y336227D02*
D03*
Y334259D02*
D03*
Y332290D02*
D03*
Y330322D02*
D03*
Y328353D02*
D03*
Y326385D02*
D03*
Y324416D02*
D03*
Y322448D02*
D03*
Y320479D02*
D03*
Y318511D02*
D03*
Y316542D02*
D03*
Y314574D02*
D03*
Y312605D02*
D03*
Y310637D02*
D03*
Y308668D02*
D03*
Y306700D02*
D03*
Y304731D02*
D03*
Y302763D02*
D03*
Y300794D02*
D03*
Y298826D02*
D03*
X690626Y351975D02*
D03*
Y350007D02*
D03*
Y348038D02*
D03*
Y346070D02*
D03*
Y344101D02*
D03*
Y342133D02*
D03*
Y340164D02*
D03*
Y338196D02*
D03*
Y336227D02*
D03*
Y334259D02*
D03*
Y332290D02*
D03*
Y330322D02*
D03*
Y328353D02*
D03*
Y326385D02*
D03*
Y324416D02*
D03*
Y322448D02*
D03*
Y320479D02*
D03*
Y318511D02*
D03*
Y316542D02*
D03*
Y314574D02*
D03*
Y312605D02*
D03*
Y310637D02*
D03*
Y308668D02*
D03*
Y306700D02*
D03*
Y304731D02*
D03*
Y302763D02*
D03*
Y300794D02*
D03*
Y298826D02*
D03*
X690936Y243786D02*
D03*
Y245754D02*
D03*
Y247723D02*
D03*
Y249691D02*
D03*
Y251660D02*
D03*
Y253628D02*
D03*
Y255597D02*
D03*
Y257565D02*
D03*
Y259534D02*
D03*
Y261502D02*
D03*
Y263471D02*
D03*
Y265439D02*
D03*
Y267408D02*
D03*
Y269376D02*
D03*
Y271345D02*
D03*
Y273313D02*
D03*
Y275282D02*
D03*
Y277250D02*
D03*
Y279219D02*
D03*
Y281187D02*
D03*
Y283156D02*
D03*
Y285124D02*
D03*
Y287093D02*
D03*
Y289061D02*
D03*
X662393Y243786D02*
D03*
Y245754D02*
D03*
Y247723D02*
D03*
Y249691D02*
D03*
Y251660D02*
D03*
Y253628D02*
D03*
Y255597D02*
D03*
Y257565D02*
D03*
Y259534D02*
D03*
Y261502D02*
D03*
Y263471D02*
D03*
Y265439D02*
D03*
Y267408D02*
D03*
Y269376D02*
D03*
Y271345D02*
D03*
Y273313D02*
D03*
Y275282D02*
D03*
Y277250D02*
D03*
Y279219D02*
D03*
Y281187D02*
D03*
Y283156D02*
D03*
Y285124D02*
D03*
Y287093D02*
D03*
Y289061D02*
D03*
X690716Y426654D02*
D03*
Y428623D02*
D03*
Y430591D02*
D03*
Y432560D02*
D03*
Y434528D02*
D03*
Y436497D02*
D03*
Y438465D02*
D03*
Y440434D02*
D03*
Y442402D02*
D03*
Y444371D02*
D03*
Y446339D02*
D03*
Y448308D02*
D03*
Y450276D02*
D03*
Y452245D02*
D03*
Y454213D02*
D03*
Y456182D02*
D03*
Y458150D02*
D03*
Y460119D02*
D03*
Y462087D02*
D03*
Y464056D02*
D03*
Y466024D02*
D03*
Y467993D02*
D03*
Y469961D02*
D03*
Y471930D02*
D03*
X662173Y426654D02*
D03*
Y428623D02*
D03*
Y430591D02*
D03*
Y432560D02*
D03*
Y434528D02*
D03*
Y436497D02*
D03*
Y438465D02*
D03*
Y440434D02*
D03*
Y442402D02*
D03*
Y444371D02*
D03*
Y446339D02*
D03*
Y448308D02*
D03*
Y450276D02*
D03*
Y452245D02*
D03*
Y454213D02*
D03*
Y456182D02*
D03*
Y458150D02*
D03*
Y460119D02*
D03*
Y462087D02*
D03*
Y464056D02*
D03*
Y466024D02*
D03*
Y467993D02*
D03*
Y469961D02*
D03*
Y471930D02*
D03*
D65*
X1110299Y316732D02*
D03*
Y295866D02*
D03*
X512299Y92732D02*
D03*
Y71866D02*
D03*
X860299Y92732D02*
D03*
Y71866D02*
D03*
D66*
X1075866Y344299D02*
D03*
X1096732D02*
D03*
D67*
X76299Y663811D02*
D03*
Y652787D02*
D03*
X1078299Y863811D02*
D03*
Y852787D02*
D03*
X74299Y196756D02*
D03*
Y207780D02*
D03*
D68*
X1106299Y271713D02*
D03*
Y260886D02*
D03*
X1120299Y271713D02*
D03*
Y260886D02*
D03*
X1134299Y271713D02*
D03*
Y260886D02*
D03*
X1148299Y271713D02*
D03*
Y260886D02*
D03*
D69*
X776299Y257543D02*
D03*
Y263055D02*
D03*
X766299Y257543D02*
D03*
Y263055D02*
D03*
X756299Y257543D02*
D03*
Y263055D02*
D03*
D70*
X1078299Y787354D02*
D03*
Y769244D02*
D03*
X1080299Y611354D02*
D03*
Y593244D02*
D03*
X1142299Y315354D02*
D03*
Y297244D02*
D03*
D71*
X1058354Y399299D02*
D03*
X1040244D02*
D03*
X1055354Y576299D02*
D03*
X1037244D02*
D03*
X1135354Y344299D02*
D03*
X1117244D02*
D03*
D72*
X1064299Y175669D02*
D03*
Y196929D02*
D03*
D73*
X45799Y775299D02*
D03*
X30799D02*
D03*
Y765299D02*
D03*
X45799D02*
D03*
X121799Y775299D02*
D03*
X106799D02*
D03*
Y765299D02*
D03*
X121799D02*
D03*
X83799Y775299D02*
D03*
X68799D02*
D03*
Y765299D02*
D03*
X83799D02*
D03*
D74*
X93567Y719260D02*
D03*
Y709299D02*
D03*
Y729339D02*
D03*
Y739299D02*
D03*
X127031D02*
D03*
Y729339D02*
D03*
Y709299D02*
D03*
Y719260D02*
D03*
X25567D02*
D03*
Y709299D02*
D03*
Y729339D02*
D03*
Y739299D02*
D03*
X59031D02*
D03*
Y729339D02*
D03*
Y709299D02*
D03*
Y719260D02*
D03*
D75*
X954064Y734400D02*
D03*
Y729400D02*
D03*
Y724400D02*
D03*
Y719400D02*
D03*
X974536Y734400D02*
D03*
Y729400D02*
D03*
Y724400D02*
D03*
Y719400D02*
D03*
X1164264Y799000D02*
D03*
Y794000D02*
D03*
Y789000D02*
D03*
Y784000D02*
D03*
X1184736Y799000D02*
D03*
Y794000D02*
D03*
Y789000D02*
D03*
Y784000D02*
D03*
D76*
X612228Y114236D02*
D03*
Y112268D02*
D03*
Y110299D02*
D03*
Y108331D02*
D03*
Y106362D02*
D03*
X628370Y114236D02*
D03*
Y112268D02*
D03*
Y110299D02*
D03*
Y108331D02*
D03*
Y106362D02*
D03*
X1043870Y330362D02*
D03*
Y332331D02*
D03*
Y334299D02*
D03*
Y336268D02*
D03*
Y338236D02*
D03*
X1027728Y330362D02*
D03*
Y332331D02*
D03*
Y334299D02*
D03*
Y336268D02*
D03*
Y338236D02*
D03*
X622370Y304362D02*
D03*
Y306331D02*
D03*
Y308299D02*
D03*
Y310268D02*
D03*
Y312236D02*
D03*
X606228Y304362D02*
D03*
Y306331D02*
D03*
Y308299D02*
D03*
Y310268D02*
D03*
Y312236D02*
D03*
X244228Y263236D02*
D03*
Y261268D02*
D03*
Y259299D02*
D03*
Y257331D02*
D03*
Y255362D02*
D03*
X260370Y263236D02*
D03*
Y261268D02*
D03*
Y259299D02*
D03*
Y257331D02*
D03*
Y255362D02*
D03*
X48370Y354362D02*
D03*
Y356331D02*
D03*
Y358299D02*
D03*
Y360268D02*
D03*
Y362236D02*
D03*
X32228Y354362D02*
D03*
Y356331D02*
D03*
Y358299D02*
D03*
Y360268D02*
D03*
Y362236D02*
D03*
D77*
X629549Y146063D02*
D03*
X632049D02*
D03*
X634549D02*
D03*
X637049D02*
D03*
X639549D02*
D03*
X642049D02*
D03*
X644549D02*
D03*
X647049D02*
D03*
X629549Y166535D02*
D03*
X632049D02*
D03*
X634549D02*
D03*
X637049D02*
D03*
X639549D02*
D03*
X642049D02*
D03*
X644549D02*
D03*
X647049D02*
D03*
D78*
X997461Y439114D02*
D03*
X1000020D02*
D03*
X1002579D02*
D03*
X1005138D02*
D03*
X997461Y455846D02*
D03*
X1000020D02*
D03*
X1002579D02*
D03*
X1005138D02*
D03*
X1032461Y179933D02*
D03*
X1035020D02*
D03*
X1037579D02*
D03*
X1040138D02*
D03*
X1032461Y196665D02*
D03*
X1035020D02*
D03*
X1037579D02*
D03*
X1040138D02*
D03*
D79*
X922783Y625415D02*
D03*
X925343D02*
D03*
X927902D02*
D03*
X930461D02*
D03*
X933020D02*
D03*
X935579D02*
D03*
X938138D02*
D03*
X940697D02*
D03*
X943256D02*
D03*
X945815D02*
D03*
X922783Y652383D02*
D03*
X925343D02*
D03*
X927902D02*
D03*
X930461D02*
D03*
X933020D02*
D03*
X935579D02*
D03*
X938138D02*
D03*
X940697D02*
D03*
X943256D02*
D03*
X945815D02*
D03*
D80*
X40138Y313618D02*
D03*
X37579D02*
D03*
X35020D02*
D03*
X32461D02*
D03*
X40138Y290980D02*
D03*
X37579D02*
D03*
X35020D02*
D03*
X32461D02*
D03*
D81*
X879705Y117630D02*
D03*
X883445D02*
D03*
X887185D02*
D03*
Y108968D02*
D03*
X883445D02*
D03*
X879705D02*
D03*
X980559Y854630D02*
D03*
X984299D02*
D03*
X988039D02*
D03*
Y845968D02*
D03*
X984299D02*
D03*
X980559D02*
D03*
X985039Y877968D02*
D03*
X981299D02*
D03*
X977559D02*
D03*
Y886630D02*
D03*
X981299D02*
D03*
X985039D02*
D03*
X888559Y858630D02*
D03*
X892299D02*
D03*
X896039D02*
D03*
Y849968D02*
D03*
X892299D02*
D03*
X888559D02*
D03*
Y888630D02*
D03*
X892299D02*
D03*
X896039D02*
D03*
Y879968D02*
D03*
X892299D02*
D03*
X888559D02*
D03*
X1057559Y258331D02*
D03*
X1055000D02*
D03*
X1052441D02*
D03*
Y249669D02*
D03*
X1055000D02*
D03*
X1057559D02*
D03*
X867559Y204315D02*
D03*
X865000D02*
D03*
X862441D02*
D03*
Y195653D02*
D03*
X865000D02*
D03*
X867559D02*
D03*
D82*
X637299Y437681D02*
D03*
X627299D02*
D03*
X617299D02*
D03*
Y422917D02*
D03*
X627299D02*
D03*
X637299D02*
D03*
X995787Y713900D02*
D03*
X1031613D02*
D03*
D83*
X167117Y454299D02*
D03*
Y444299D02*
D03*
Y434299D02*
D03*
X181881D02*
D03*
Y444299D02*
D03*
Y454299D02*
D03*
X220917Y331299D02*
D03*
Y321299D02*
D03*
Y311299D02*
D03*
X235681D02*
D03*
Y321299D02*
D03*
Y331299D02*
D03*
D84*
X919299Y368031D02*
D03*
Y384567D02*
D03*
X899299D02*
D03*
Y368031D02*
D03*
D85*
X770031Y116299D02*
D03*
X786567D02*
D03*
Y136299D02*
D03*
X770031D02*
D03*
D86*
X1034559Y685968D02*
D03*
X1042039D02*
D03*
X1038299Y694630D02*
D03*
X1032559Y125968D02*
D03*
X1040039D02*
D03*
X1036299Y134630D02*
D03*
X160039Y50630D02*
D03*
X152559D02*
D03*
X156299Y41968D02*
D03*
X416039Y515130D02*
D03*
X408559D02*
D03*
X412299Y506468D02*
D03*
X1093039Y913630D02*
D03*
X1085559D02*
D03*
X1089299Y904968D02*
D03*
X1148260Y893669D02*
D03*
X1155740D02*
D03*
X1152000Y902331D02*
D03*
X199700Y48669D02*
D03*
X195960Y57331D02*
D03*
X203440D02*
D03*
D88*
X133461Y27142D02*
D03*
X136020D02*
D03*
X138579D02*
D03*
X141138D02*
D03*
X133461Y37457D02*
D03*
X136020D02*
D03*
X138579D02*
D03*
X141138D02*
D03*
D89*
X725628Y577049D02*
D03*
X733128D02*
D03*
X765628Y551549D02*
D03*
X797128Y577049D02*
D03*
X804628D02*
D03*
X812128D02*
D03*
X819628D02*
D03*
X827128D02*
D03*
X829628D02*
D03*
X837128D02*
D03*
X844628D02*
D03*
X852128D02*
D03*
X859628D02*
D03*
X797128Y551549D02*
D03*
X804628D02*
D03*
X812128D02*
D03*
X819628D02*
D03*
X827128D02*
D03*
X829628D02*
D03*
X837128D02*
D03*
X844628D02*
D03*
X852128D02*
D03*
X859628D02*
D03*
X775628D02*
D03*
X768128D02*
D03*
X760628D02*
D03*
X753128D02*
D03*
X745628D02*
D03*
X743128D02*
D03*
X735628D02*
D03*
X728128D02*
D03*
X720628D02*
D03*
X713128D02*
D03*
X775628Y577049D02*
D03*
X768128D02*
D03*
X760628D02*
D03*
X753128D02*
D03*
X745628D02*
D03*
X743128D02*
D03*
X735628D02*
D03*
X728128D02*
D03*
X720628D02*
D03*
X713128D02*
D03*
X607628Y551549D02*
D03*
X600128D02*
D03*
X592628D02*
D03*
X585128D02*
D03*
X577628D02*
D03*
X575128D02*
D03*
X567628D02*
D03*
X560128D02*
D03*
X552628D02*
D03*
X545128D02*
D03*
X629128D02*
D03*
X636628D02*
D03*
X644128D02*
D03*
X651628D02*
D03*
X659128D02*
D03*
X661628D02*
D03*
X669128D02*
D03*
X676628D02*
D03*
X684128D02*
D03*
X691628D02*
D03*
Y577049D02*
D03*
X684128D02*
D03*
X676628D02*
D03*
X669128D02*
D03*
X661628D02*
D03*
X659128D02*
D03*
X651628D02*
D03*
X644128D02*
D03*
X636628D02*
D03*
X629128D02*
D03*
X545128D02*
D03*
X552628D02*
D03*
X560128D02*
D03*
X567628D02*
D03*
X575128D02*
D03*
X577628D02*
D03*
X585128D02*
D03*
X592628D02*
D03*
X600128D02*
D03*
X607628D02*
D03*
X857128D02*
D03*
X854628D02*
D03*
X849628D02*
D03*
X847128D02*
D03*
X842128D02*
D03*
X839628D02*
D03*
X834628D02*
D03*
X832128D02*
D03*
X824628D02*
D03*
X822128D02*
D03*
X817128D02*
D03*
X814628D02*
D03*
X809628D02*
D03*
X807128D02*
D03*
X802128D02*
D03*
X799628D02*
D03*
X857128Y551549D02*
D03*
X854628D02*
D03*
X849628D02*
D03*
X847128D02*
D03*
X842128D02*
D03*
X839628D02*
D03*
X834628D02*
D03*
X832128D02*
D03*
X824628D02*
D03*
X822128D02*
D03*
X817128D02*
D03*
X814628D02*
D03*
X809628D02*
D03*
X807128D02*
D03*
X802128D02*
D03*
X799628D02*
D03*
X773128Y577049D02*
D03*
X770628D02*
D03*
X765628D02*
D03*
X763128D02*
D03*
X758128D02*
D03*
X755628D02*
D03*
X750628D02*
D03*
X748128D02*
D03*
X740628D02*
D03*
X738128D02*
D03*
X730628D02*
D03*
X723128D02*
D03*
X718128D02*
D03*
X715628D02*
D03*
X773128Y551549D02*
D03*
X770628D02*
D03*
X763128D02*
D03*
X758128D02*
D03*
X755628D02*
D03*
X750628D02*
D03*
X748128D02*
D03*
X740628D02*
D03*
X738128D02*
D03*
X733128D02*
D03*
X730628D02*
D03*
X725628D02*
D03*
X723128D02*
D03*
X718128D02*
D03*
X715628D02*
D03*
X689128Y577049D02*
D03*
X686628D02*
D03*
X681628D02*
D03*
X679128D02*
D03*
X674128D02*
D03*
X671628D02*
D03*
X666628D02*
D03*
X664128D02*
D03*
X656628D02*
D03*
X654128D02*
D03*
X649128D02*
D03*
X646628D02*
D03*
X641628D02*
D03*
X639128D02*
D03*
X634128D02*
D03*
X631628D02*
D03*
X689128Y551549D02*
D03*
X686628D02*
D03*
X681628D02*
D03*
X679128D02*
D03*
X674128D02*
D03*
X671628D02*
D03*
X666628D02*
D03*
X664128D02*
D03*
X656628D02*
D03*
X654128D02*
D03*
X649128D02*
D03*
X646628D02*
D03*
X641628D02*
D03*
X639128D02*
D03*
X634128D02*
D03*
X631628D02*
D03*
X605128Y577049D02*
D03*
X602628D02*
D03*
X597628D02*
D03*
X595128D02*
D03*
X590128D02*
D03*
X587628D02*
D03*
X582628D02*
D03*
X580128D02*
D03*
X572628D02*
D03*
X570128D02*
D03*
X565128D02*
D03*
X562628D02*
D03*
X557628D02*
D03*
X555128D02*
D03*
X550128D02*
D03*
X547628D02*
D03*
X605128Y551549D02*
D03*
X602628D02*
D03*
X597628D02*
D03*
X595128D02*
D03*
X590128D02*
D03*
X587628D02*
D03*
X582628D02*
D03*
X580128D02*
D03*
X572628D02*
D03*
X570128D02*
D03*
X565128D02*
D03*
X562628D02*
D03*
X557628D02*
D03*
X555128D02*
D03*
X550128D02*
D03*
X547628D02*
D03*
X357628Y577049D02*
D03*
X365128D02*
D03*
X397628Y551549D02*
D03*
X429128Y577049D02*
D03*
X436628D02*
D03*
X444128D02*
D03*
X451628D02*
D03*
X459128D02*
D03*
X461628D02*
D03*
X469128D02*
D03*
X476628D02*
D03*
X484128D02*
D03*
X491628D02*
D03*
X429128Y551549D02*
D03*
X436628D02*
D03*
X444128D02*
D03*
X451628D02*
D03*
X459128D02*
D03*
X461628D02*
D03*
X469128D02*
D03*
X476628D02*
D03*
X484128D02*
D03*
X491628D02*
D03*
X407628D02*
D03*
X400128D02*
D03*
X392628D02*
D03*
X385128D02*
D03*
X377628D02*
D03*
X375128D02*
D03*
X367628D02*
D03*
X360128D02*
D03*
X352628D02*
D03*
X345128D02*
D03*
X407628Y577049D02*
D03*
X400128D02*
D03*
X392628D02*
D03*
X385128D02*
D03*
X377628D02*
D03*
X375128D02*
D03*
X367628D02*
D03*
X360128D02*
D03*
X352628D02*
D03*
X345128D02*
D03*
X239628Y551549D02*
D03*
X232128D02*
D03*
X224628D02*
D03*
X217128D02*
D03*
X209628D02*
D03*
X207128D02*
D03*
X199628D02*
D03*
X192128D02*
D03*
X184628D02*
D03*
X177128D02*
D03*
X261128D02*
D03*
X268628D02*
D03*
X276128D02*
D03*
X283628D02*
D03*
X291128D02*
D03*
X293628D02*
D03*
X301128D02*
D03*
X308628D02*
D03*
X316128D02*
D03*
X323628D02*
D03*
Y577049D02*
D03*
X316128D02*
D03*
X308628D02*
D03*
X301128D02*
D03*
X293628D02*
D03*
X291128D02*
D03*
X283628D02*
D03*
X276128D02*
D03*
X268628D02*
D03*
X261128D02*
D03*
X177128D02*
D03*
X184628D02*
D03*
X192128D02*
D03*
X199628D02*
D03*
X207128D02*
D03*
X209628D02*
D03*
X217128D02*
D03*
X224628D02*
D03*
X232128D02*
D03*
X239628D02*
D03*
X489128D02*
D03*
X486628D02*
D03*
X481628D02*
D03*
X479128D02*
D03*
X474128D02*
D03*
X471628D02*
D03*
X466628D02*
D03*
X464128D02*
D03*
X456628D02*
D03*
X454128D02*
D03*
X449128D02*
D03*
X446628D02*
D03*
X441628D02*
D03*
X439128D02*
D03*
X434128D02*
D03*
X431628D02*
D03*
X489128Y551549D02*
D03*
X486628D02*
D03*
X481628D02*
D03*
X479128D02*
D03*
X474128D02*
D03*
X471628D02*
D03*
X466628D02*
D03*
X464128D02*
D03*
X456628D02*
D03*
X454128D02*
D03*
X449128D02*
D03*
X446628D02*
D03*
X441628D02*
D03*
X439128D02*
D03*
X434128D02*
D03*
X431628D02*
D03*
X405128Y577049D02*
D03*
X402628D02*
D03*
X397628D02*
D03*
X395128D02*
D03*
X390128D02*
D03*
X387628D02*
D03*
X382628D02*
D03*
X380128D02*
D03*
X372628D02*
D03*
X370128D02*
D03*
X362628D02*
D03*
X355128D02*
D03*
X350128D02*
D03*
X347628D02*
D03*
X405128Y551549D02*
D03*
X402628D02*
D03*
X395128D02*
D03*
X390128D02*
D03*
X387628D02*
D03*
X382628D02*
D03*
X380128D02*
D03*
X372628D02*
D03*
X370128D02*
D03*
X365128D02*
D03*
X362628D02*
D03*
X357628D02*
D03*
X355128D02*
D03*
X350128D02*
D03*
X347628D02*
D03*
X321128Y577049D02*
D03*
X318628D02*
D03*
X313628D02*
D03*
X311128D02*
D03*
X306128D02*
D03*
X303628D02*
D03*
X298628D02*
D03*
X296128D02*
D03*
X288628D02*
D03*
X286128D02*
D03*
X281128D02*
D03*
X278628D02*
D03*
X273628D02*
D03*
X271128D02*
D03*
X266128D02*
D03*
X263628D02*
D03*
X321128Y551549D02*
D03*
X318628D02*
D03*
X313628D02*
D03*
X311128D02*
D03*
X306128D02*
D03*
X303628D02*
D03*
X298628D02*
D03*
X296128D02*
D03*
X288628D02*
D03*
X286128D02*
D03*
X281128D02*
D03*
X278628D02*
D03*
X273628D02*
D03*
X271128D02*
D03*
X266128D02*
D03*
X263628D02*
D03*
X237128Y577049D02*
D03*
X234628D02*
D03*
X229628D02*
D03*
X227128D02*
D03*
X222128D02*
D03*
X219628D02*
D03*
X214628D02*
D03*
X212128D02*
D03*
X204628D02*
D03*
X202128D02*
D03*
X197128D02*
D03*
X194628D02*
D03*
X189628D02*
D03*
X187128D02*
D03*
X182128D02*
D03*
X179628D02*
D03*
X237128Y551549D02*
D03*
X234628D02*
D03*
X229628D02*
D03*
X227128D02*
D03*
X222128D02*
D03*
X219628D02*
D03*
X214628D02*
D03*
X212128D02*
D03*
X204628D02*
D03*
X202128D02*
D03*
X197128D02*
D03*
X194628D02*
D03*
X189628D02*
D03*
X187128D02*
D03*
X182128D02*
D03*
X179628D02*
D03*
D90*
X576299Y564299D02*
D03*
X660299D02*
D03*
X744299D02*
D03*
X828299D02*
D03*
X208299D02*
D03*
X292299D02*
D03*
X376299D02*
D03*
X460299D02*
D03*
D91*
X1013700Y713900D02*
D03*
D92*
X460646Y500181D02*
D03*
Y502740D02*
D03*
Y505299D02*
D03*
Y507858D02*
D03*
Y510417D02*
D03*
X441552D02*
D03*
Y507858D02*
D03*
Y505299D02*
D03*
Y502740D02*
D03*
Y500181D02*
D03*
X380246Y498781D02*
D03*
Y501340D02*
D03*
Y503899D02*
D03*
Y506458D02*
D03*
Y509017D02*
D03*
X361152D02*
D03*
Y506458D02*
D03*
Y503899D02*
D03*
Y501340D02*
D03*
Y498781D02*
D03*
X974752Y523417D02*
D03*
Y520858D02*
D03*
Y518299D02*
D03*
Y515740D02*
D03*
Y513181D02*
D03*
X993847D02*
D03*
Y515740D02*
D03*
Y518299D02*
D03*
Y520858D02*
D03*
Y523417D02*
D03*
D93*
X456217Y514847D02*
D03*
X453658D02*
D03*
X451099D02*
D03*
X448540D02*
D03*
X445981D02*
D03*
Y495752D02*
D03*
X448540D02*
D03*
X451099D02*
D03*
X453658D02*
D03*
X456217D02*
D03*
X375817Y513447D02*
D03*
X373258D02*
D03*
X370699D02*
D03*
X368140D02*
D03*
X365581D02*
D03*
Y494352D02*
D03*
X368140D02*
D03*
X370699D02*
D03*
X373258D02*
D03*
X375817D02*
D03*
X989417Y527846D02*
D03*
X986858D02*
D03*
X984299D02*
D03*
X981740D02*
D03*
X979181D02*
D03*
Y508752D02*
D03*
X981740D02*
D03*
X984299D02*
D03*
X986858D02*
D03*
X989417D02*
D03*
D96*
X1034157Y243209D02*
D03*
X1032189D02*
D03*
X1030221D02*
D03*
X1028252D02*
D03*
X1026283D02*
D03*
X1024315D02*
D03*
X1022346D02*
D03*
X1020378D02*
D03*
X1018409D02*
D03*
X1016441D02*
D03*
Y219390D02*
D03*
X1018409D02*
D03*
X1020378D02*
D03*
X1022346D02*
D03*
X1024315D02*
D03*
X1026283D02*
D03*
X1028252D02*
D03*
X1030221D02*
D03*
X1032189D02*
D03*
X1034157D02*
D03*
X993157Y568409D02*
D03*
X991189D02*
D03*
X989221D02*
D03*
X987252D02*
D03*
X985283D02*
D03*
X983315D02*
D03*
X981347D02*
D03*
X979378D02*
D03*
X977409D02*
D03*
X975441D02*
D03*
Y544590D02*
D03*
X977409D02*
D03*
X979378D02*
D03*
X981347D02*
D03*
X983315D02*
D03*
X985283D02*
D03*
X987252D02*
D03*
X989221D02*
D03*
X991189D02*
D03*
X993157D02*
D03*
X887441Y305390D02*
D03*
X889409D02*
D03*
X891378D02*
D03*
X893347D02*
D03*
X895315D02*
D03*
X897283D02*
D03*
X899252D02*
D03*
X901221D02*
D03*
X903189D02*
D03*
X905157D02*
D03*
Y329209D02*
D03*
X903189D02*
D03*
X901221D02*
D03*
X899252D02*
D03*
X897283D02*
D03*
X895315D02*
D03*
X893347D02*
D03*
X891378D02*
D03*
X889409D02*
D03*
X887441D02*
D03*
D97*
X1013390Y240158D02*
D03*
Y238189D02*
D03*
Y236221D02*
D03*
Y234252D02*
D03*
Y232283D02*
D03*
Y230315D02*
D03*
Y228346D02*
D03*
Y226378D02*
D03*
Y224410D02*
D03*
Y222441D02*
D03*
X1037209D02*
D03*
Y224410D02*
D03*
Y226378D02*
D03*
Y228346D02*
D03*
Y230315D02*
D03*
Y232283D02*
D03*
Y234252D02*
D03*
Y236221D02*
D03*
Y238189D02*
D03*
Y240158D02*
D03*
X972390Y565357D02*
D03*
Y563389D02*
D03*
Y561420D02*
D03*
Y559452D02*
D03*
Y557483D02*
D03*
Y555515D02*
D03*
Y553546D02*
D03*
Y551578D02*
D03*
Y549610D02*
D03*
Y547641D02*
D03*
X996209D02*
D03*
Y549610D02*
D03*
Y551578D02*
D03*
Y553546D02*
D03*
Y555515D02*
D03*
Y557483D02*
D03*
Y559452D02*
D03*
Y561420D02*
D03*
Y563389D02*
D03*
Y565357D02*
D03*
X884390Y326157D02*
D03*
Y324189D02*
D03*
Y322220D02*
D03*
Y320252D02*
D03*
Y318284D02*
D03*
Y316315D02*
D03*
Y314347D02*
D03*
Y312378D02*
D03*
Y310409D02*
D03*
Y308441D02*
D03*
X908209D02*
D03*
Y310409D02*
D03*
Y312378D02*
D03*
Y314347D02*
D03*
Y316315D02*
D03*
Y318284D02*
D03*
Y320252D02*
D03*
Y322220D02*
D03*
Y324189D02*
D03*
Y326157D02*
D03*
D100*
X1152114Y871663D02*
D03*
Y869695D02*
D03*
Y867726D02*
D03*
Y865757D02*
D03*
Y863789D02*
D03*
Y861821D02*
D03*
Y859852D02*
D03*
Y857883D02*
D03*
Y855915D02*
D03*
Y853946D02*
D03*
Y851978D02*
D03*
Y850009D02*
D03*
Y848041D02*
D03*
Y846072D02*
D03*
Y844104D02*
D03*
Y842135D02*
D03*
X1116484D02*
D03*
Y844104D02*
D03*
Y846072D02*
D03*
Y848041D02*
D03*
Y850009D02*
D03*
Y851978D02*
D03*
Y853946D02*
D03*
Y855915D02*
D03*
Y857883D02*
D03*
Y859852D02*
D03*
Y861821D02*
D03*
Y863789D02*
D03*
Y865757D02*
D03*
Y867726D02*
D03*
Y869695D02*
D03*
Y871663D02*
D03*
D101*
X1149063Y839084D02*
D03*
X1147095D02*
D03*
X1145126D02*
D03*
X1143157D02*
D03*
X1141189D02*
D03*
X1139221D02*
D03*
X1137252D02*
D03*
X1135283D02*
D03*
X1133315D02*
D03*
X1131347D02*
D03*
X1129378D02*
D03*
X1127409D02*
D03*
X1125441D02*
D03*
X1123472D02*
D03*
X1121504D02*
D03*
X1119535D02*
D03*
Y874714D02*
D03*
X1121504D02*
D03*
X1123472D02*
D03*
X1125441D02*
D03*
X1127409D02*
D03*
X1129378D02*
D03*
X1131347D02*
D03*
X1133315D02*
D03*
X1135283D02*
D03*
X1137252D02*
D03*
X1139221D02*
D03*
X1141189D02*
D03*
X1143157D02*
D03*
X1145126D02*
D03*
X1147095D02*
D03*
X1149063D02*
D03*
D104*
X267811Y148331D02*
D03*
Y150299D02*
D03*
Y152268D02*
D03*
X256787D02*
D03*
Y150299D02*
D03*
Y148331D02*
D03*
X177811D02*
D03*
Y150299D02*
D03*
Y152268D02*
D03*
X166787D02*
D03*
Y150299D02*
D03*
Y148331D02*
D03*
D105*
X262299Y144787D02*
D03*
X264268D02*
D03*
X260331D02*
D03*
Y155811D02*
D03*
X264268D02*
D03*
X262299D02*
D03*
X172299Y144787D02*
D03*
X174268D02*
D03*
X170331D02*
D03*
Y155811D02*
D03*
X174268D02*
D03*
X172299D02*
D03*
D107*
X244961Y194461D02*
D03*
Y197020D02*
D03*
Y199579D02*
D03*
Y202138D02*
D03*
X227638Y194461D02*
D03*
Y197020D02*
D03*
Y199579D02*
D03*
Y202138D02*
D03*
D108*
X490297Y506152D02*
D03*
Y504183D02*
D03*
Y502215D02*
D03*
Y500246D02*
D03*
X502502D02*
D03*
Y502215D02*
D03*
Y504183D02*
D03*
Y506152D02*
D03*
X203902Y436346D02*
D03*
Y438315D02*
D03*
Y440283D02*
D03*
Y442252D02*
D03*
X191697D02*
D03*
Y440283D02*
D03*
Y438315D02*
D03*
Y436346D02*
D03*
X343902Y519347D02*
D03*
Y521315D02*
D03*
Y523283D02*
D03*
Y525252D02*
D03*
X331697D02*
D03*
Y523283D02*
D03*
Y521315D02*
D03*
Y519347D02*
D03*
D109*
X493446Y497097D02*
D03*
X495415D02*
D03*
X497383D02*
D03*
X499352D02*
D03*
Y509302D02*
D03*
X497383D02*
D03*
X495415D02*
D03*
X493446D02*
D03*
X200752Y445402D02*
D03*
X198784D02*
D03*
X196815D02*
D03*
X194846D02*
D03*
Y433197D02*
D03*
X196815D02*
D03*
X198784D02*
D03*
X200752D02*
D03*
X334846Y516197D02*
D03*
X336815D02*
D03*
X338784D02*
D03*
X340752D02*
D03*
Y528402D02*
D03*
X338784D02*
D03*
X336815D02*
D03*
X334846D02*
D03*
D215*
X451099Y505299D02*
D03*
X370699Y503899D02*
D03*
D216*
X984299Y518299D02*
D03*
D217*
X1025299Y231299D02*
D03*
X984299Y556499D02*
D03*
D218*
X1134299Y856899D02*
D03*
D219*
X896299Y317299D02*
D03*
D220*
X1035799Y334299D02*
D03*
X614299Y308299D02*
D03*
X252299Y259299D02*
D03*
X40299Y358299D02*
D03*
D221*
X262299Y150299D02*
D03*
X172299D02*
D03*
D222*
X236299Y198299D02*
D03*
D223*
X496399Y503199D02*
D03*
X197799Y439299D02*
D03*
D224*
X337799Y522299D02*
D03*
M02*
