%FSLAX25Y25*%
%MOIN*%
G70*
G01*
G75*
G04 Layer_Color=16711935*
%ADD10C,0.00500*%
%ADD11C,0.00500*%
G04:AMPARAMS|DCode=12|XSize=19.69mil|YSize=23.62mil|CornerRadius=4.92mil|HoleSize=0mil|Usage=FLASHONLY|Rotation=270.000|XOffset=0mil|YOffset=0mil|HoleType=Round|Shape=RoundedRectangle|*
%AMROUNDEDRECTD12*
21,1,0.01969,0.01378,0,0,270.0*
21,1,0.00984,0.02362,0,0,270.0*
1,1,0.00984,-0.00689,-0.00492*
1,1,0.00984,-0.00689,0.00492*
1,1,0.00984,0.00689,0.00492*
1,1,0.00984,0.00689,-0.00492*
%
%ADD12ROUNDEDRECTD12*%
%ADD13R,0.02362X0.02362*%
%ADD14R,0.09449X0.10827*%
%ADD15R,0.02362X0.02362*%
%ADD16R,0.02756X0.03937*%
%ADD17R,0.03347X0.01378*%
%ADD18C,0.03937*%
%ADD19C,0.01969*%
%ADD20R,0.02362X0.08858*%
%ADD21R,0.06299X0.01772*%
%ADD22R,0.03347X0.01969*%
%ADD23R,0.04331X0.10236*%
G04:AMPARAMS|DCode=24|XSize=19.69mil|YSize=23.62mil|CornerRadius=4.92mil|HoleSize=0mil|Usage=FLASHONLY|Rotation=180.000|XOffset=0mil|YOffset=0mil|HoleType=Round|Shape=RoundedRectangle|*
%AMROUNDEDRECTD24*
21,1,0.01969,0.01378,0,0,180.0*
21,1,0.00984,0.02362,0,0,180.0*
1,1,0.00984,-0.00492,0.00689*
1,1,0.00984,0.00492,0.00689*
1,1,0.00984,0.00492,-0.00689*
1,1,0.00984,-0.00492,-0.00689*
%
%ADD24ROUNDEDRECTD24*%
%ADD25R,0.03740X0.07874*%
%ADD26R,0.06299X0.07362*%
%ADD27R,0.05906X0.04331*%
%ADD28R,0.05906X0.06496*%
%ADD29R,0.06102X0.16417*%
%ADD30R,0.06102X0.08661*%
%ADD31R,0.04724X0.07677*%
%ADD32R,0.08268X0.12598*%
%ADD33R,0.07087X0.04528*%
%ADD34O,0.06102X0.00984*%
%ADD35O,0.00984X0.06102*%
%ADD36R,0.20000X0.05000*%
%ADD37R,0.03937X0.07087*%
%ADD38R,0.14488X0.05000*%
%ADD39R,0.05000X0.01693*%
%ADD40C,0.01772*%
%ADD41R,0.05000X0.14488*%
%ADD42R,0.10236X0.04331*%
%ADD43R,0.05512X0.03937*%
%ADD44R,0.04331X0.05512*%
%ADD45R,0.01181X0.06496*%
%ADD46R,0.08661X0.05709*%
%ADD47R,0.10827X0.09449*%
%ADD48R,0.03937X0.02756*%
%ADD49R,0.05709X0.08661*%
%ADD50R,0.07874X0.04331*%
%ADD51R,0.04331X0.05315*%
%ADD52R,0.15748X0.05906*%
%ADD53R,0.05906X0.15748*%
%ADD54R,0.05315X0.04331*%
%ADD55R,0.06693X0.01378*%
%ADD56R,0.05512X0.04724*%
%ADD57R,0.02165X0.00787*%
%ADD58R,0.05512X0.04331*%
%ADD59R,0.03150X0.03150*%
%ADD60R,0.05118X0.02362*%
%ADD61R,0.05118X0.03937*%
%ADD62R,0.04528X0.06693*%
%ADD63O,0.08071X0.02362*%
%ADD64R,0.06890X0.01181*%
%ADD65R,0.25394X0.07874*%
%ADD66R,0.07874X0.25394*%
%ADD67R,0.07087X0.03937*%
%ADD68R,0.06693X0.04528*%
%ADD69R,0.03347X0.03150*%
%ADD70R,0.13976X0.12598*%
%ADD71R,0.12598X0.13976*%
%ADD72R,0.27953X0.11024*%
%ADD73R,0.07047X0.05000*%
%ADD74R,0.12500X0.07008*%
%ADD75R,0.07087X0.02362*%
%ADD76R,0.06496X0.01181*%
%ADD77R,0.01378X0.07087*%
%ADD78R,0.01772X0.06299*%
%ADD79R,0.01772X0.07087*%
%ADD80R,0.01378X0.06102*%
%ADD81R,0.01378X0.03347*%
%ADD82R,0.07087X0.07087*%
%ADD83R,0.07087X0.07087*%
%ADD84R,0.07087X0.07874*%
%ADD85R,0.07874X0.07087*%
%ADD86R,0.03937X0.05512*%
%ADD87R,0.80000X0.15000*%
%ADD88R,0.01654X0.04803*%
%ADD89R,0.01600X0.08500*%
%ADD90R,0.71000X0.02000*%
%ADD91R,0.15590X0.15590*%
%ADD92R,0.03740X0.01378*%
%ADD93R,0.01378X0.03740*%
%ADD94R,0.12992X0.12992*%
%ADD95R,0.12992X0.12992*%
%ADD96R,0.01102X0.03347*%
%ADD97R,0.03347X0.01102*%
%ADD98R,0.11811X0.11811*%
%ADD99R,0.17716X0.17716*%
%ADD100R,0.03150X0.01181*%
%ADD101R,0.01181X0.03150*%
%ADD102R,0.11811X0.11811*%
%ADD103R,0.06181X0.07402*%
%ADD104R,0.03740X0.01181*%
%ADD105R,0.01181X0.03740*%
%ADD106R,0.05512X0.05512*%
%ADD107R,0.05512X0.01575*%
%ADD108R,0.03150X0.01102*%
%ADD109R,0.01102X0.03150*%
%ADD110R,0.06299X0.06299*%
%ADD111R,0.06299X0.06299*%
%ADD112C,0.01200*%
%ADD113C,0.01000*%
%ADD114C,0.00800*%
%ADD115C,0.00600*%
%ADD116C,0.02000*%
%ADD117C,0.02500*%
%ADD118C,0.05000*%
%ADD119C,0.10000*%
%ADD120C,0.01500*%
%ADD121R,0.11500X0.04000*%
%ADD122C,0.07087*%
%ADD123C,0.07874*%
%ADD124C,0.05906*%
%ADD125C,0.11811*%
%ADD126C,0.12205*%
%ADD127C,0.06437*%
%ADD128C,0.05591*%
%ADD129C,0.09252*%
%ADD130C,0.05512*%
G04:AMPARAMS|DCode=131|XSize=78.74mil|YSize=118.11mil|CornerRadius=19.69mil|HoleSize=0mil|Usage=FLASHONLY|Rotation=270.000|XOffset=0mil|YOffset=0mil|HoleType=Round|Shape=RoundedRectangle|*
%AMROUNDEDRECTD131*
21,1,0.07874,0.07874,0,0,270.0*
21,1,0.03937,0.11811,0,0,270.0*
1,1,0.03937,-0.03937,-0.01969*
1,1,0.03937,-0.03937,0.01969*
1,1,0.03937,0.03937,0.01969*
1,1,0.03937,0.03937,-0.01969*
%
%ADD131ROUNDEDRECTD131*%
%ADD132C,0.13780*%
%ADD133C,0.09055*%
%ADD134C,0.09843*%
%ADD135C,0.08661*%
%ADD136R,0.07874X0.07874*%
%ADD137C,0.04331*%
G04:AMPARAMS|DCode=138|XSize=47.24mil|YSize=110.24mil|CornerRadius=11.81mil|HoleSize=0mil|Usage=FLASHONLY|Rotation=270.000|XOffset=0mil|YOffset=0mil|HoleType=Round|Shape=RoundedRectangle|*
%AMROUNDEDRECTD138*
21,1,0.04724,0.08661,0,0,270.0*
21,1,0.02362,0.11024,0,0,270.0*
1,1,0.02362,-0.04331,-0.01181*
1,1,0.02362,-0.04331,0.01181*
1,1,0.02362,0.04331,0.01181*
1,1,0.02362,0.04331,-0.01181*
%
%ADD138ROUNDEDRECTD138*%
G04:AMPARAMS|DCode=139|XSize=51.18mil|YSize=86.61mil|CornerRadius=12.8mil|HoleSize=0mil|Usage=FLASHONLY|Rotation=180.000|XOffset=0mil|YOffset=0mil|HoleType=Round|Shape=RoundedRectangle|*
%AMROUNDEDRECTD139*
21,1,0.05118,0.06102,0,0,180.0*
21,1,0.02559,0.08661,0,0,180.0*
1,1,0.02559,-0.01280,0.03051*
1,1,0.02559,0.01280,0.03051*
1,1,0.02559,0.01280,-0.03051*
1,1,0.02559,-0.01280,-0.03051*
%
%ADD139ROUNDEDRECTD139*%
%ADD140C,0.04724*%
%ADD141C,0.31496*%
%ADD142C,0.12598*%
%ADD143C,0.06378*%
%ADD144C,0.09646*%
%ADD145C,0.12000*%
%ADD146C,0.04500*%
%ADD147C,0.01900*%
%ADD148C,0.01940*%
%ADD149C,0.02000*%
%ADD150C,0.05000*%
%ADD151C,0.01860*%
%ADD152C,0.02598*%
%ADD153C,0.04000*%
%ADD154C,0.06771*%
%ADD155C,0.04409*%
%ADD156C,0.07164*%
G04:AMPARAMS|DCode=157|XSize=107.244mil|YSize=107.244mil|CornerRadius=0mil|HoleSize=0mil|Usage=FLASHONLY|Rotation=0.000|XOffset=0mil|YOffset=0mil|HoleType=Round|Shape=Relief|Width=15mil|Gap=10mil|Entries=4|*
%AMTHD157*
7,0,0,0.10724,0.08724,0.01500,45*
%
%ADD157THD157*%
%ADD158C,0.06062*%
G04:AMPARAMS|DCode=159|XSize=96.221mil|YSize=96.221mil|CornerRadius=0mil|HoleSize=0mil|Usage=FLASHONLY|Rotation=0.000|XOffset=0mil|YOffset=0mil|HoleType=Round|Shape=Relief|Width=15mil|Gap=10mil|Entries=4|*
%AMTHD159*
7,0,0,0.09622,0.07622,0.01500,45*
%
%ADD159THD159*%
%ADD160C,0.11495*%
%ADD161C,0.15038*%
%ADD162C,0.06377*%
G04:AMPARAMS|DCode=163|XSize=99.37mil|YSize=99.37mil|CornerRadius=0mil|HoleSize=0mil|Usage=FLASHONLY|Rotation=0.000|XOffset=0mil|YOffset=0mil|HoleType=Round|Shape=Relief|Width=15mil|Gap=10mil|Entries=4|*
%AMTHD163*
7,0,0,0.09937,0.07937,0.01500,45*
%
%ADD163THD163*%
G04:AMPARAMS|DCode=164|XSize=92.284mil|YSize=92.284mil|CornerRadius=0mil|HoleSize=0mil|Usage=FLASHONLY|Rotation=0.000|XOffset=0mil|YOffset=0mil|HoleType=Round|Shape=Relief|Width=15mil|Gap=10mil|Entries=4|*
%AMTHD164*
7,0,0,0.09228,0.07228,0.01500,45*
%
%ADD164THD164*%
%ADD165C,0.11889*%
%ADD166C,0.05196*%
G04:AMPARAMS|DCode=167|XSize=87.559mil|YSize=87.559mil|CornerRadius=0mil|HoleSize=0mil|Usage=FLASHONLY|Rotation=0.000|XOffset=0mil|YOffset=0mil|HoleType=Round|Shape=Relief|Width=15mil|Gap=10mil|Entries=4|*
%AMTHD167*
7,0,0,0.08756,0.06756,0.01500,45*
%
%ADD167THD167*%
%ADD168O,0.12204X0.09133*%
%ADD169C,0.12086*%
%ADD170C,0.08346*%
G04:AMPARAMS|DCode=171|XSize=126.929mil|YSize=126.929mil|CornerRadius=0mil|HoleSize=0mil|Usage=FLASHONLY|Rotation=0.000|XOffset=0mil|YOffset=0mil|HoleType=Round|Shape=Relief|Width=15mil|Gap=10mil|Entries=4|*
%AMTHD171*
7,0,0,0.12693,0.10693,0.01500,45*
%
%ADD171THD171*%
G04:AMPARAMS|DCode=172|XSize=103.307mil|YSize=103.307mil|CornerRadius=0mil|HoleSize=0mil|Usage=FLASHONLY|Rotation=0.000|XOffset=0mil|YOffset=0mil|HoleType=Round|Shape=Relief|Width=15mil|Gap=10mil|Entries=4|*
%AMTHD172*
7,0,0,0.10331,0.08331,0.01500,45*
%
%ADD172THD172*%
%ADD173C,0.05983*%
G04:AMPARAMS|DCode=174|XSize=95.433mil|YSize=95.433mil|CornerRadius=0mil|HoleSize=0mil|Usage=FLASHONLY|Rotation=0.000|XOffset=0mil|YOffset=0mil|HoleType=Round|Shape=Relief|Width=15mil|Gap=10mil|Entries=4|*
%AMTHD174*
7,0,0,0.09543,0.07543,0.01500,45*
%
%ADD174THD174*%
%ADD175C,0.04802*%
G04:AMPARAMS|DCode=176|XSize=83.622mil|YSize=83.622mil|CornerRadius=0mil|HoleSize=0mil|Usage=FLASHONLY|Rotation=0.000|XOffset=0mil|YOffset=0mil|HoleType=Round|Shape=Relief|Width=15mil|Gap=10mil|Entries=4|*
%AMTHD176*
7,0,0,0.08362,0.06362,0.01500,45*
%
%ADD176THD176*%
%AMTHOVALD177*
21,1,0.06299,0.09150,0,0,360.0*
1,1,0.09150,-0.03150,0.00000*
1,1,0.09150,0.03150,0.00000*
21,0,0.06299,0.07150,0,0,360.0*
1,0,0.07150,-0.03150,0.00000*
1,0,0.07150,0.03150,0.00000*
4,0,4,-0.02619,-0.00530,-0.05854,-0.03765,-0.06915,-0.02705,-0.03680,0.00530,-0.02619,-0.00530,0.0*
4,0,4,0.03680,-0.00530,0.06915,0.02705,0.05854,0.03765,0.02619,0.00530,0.03680,-0.00530,0.0*
4,0,4,-0.03680,-0.00530,-0.06915,0.02705,-0.05854,0.03765,-0.02619,0.00530,-0.03680,-0.00530,0.0*
4,0,4,0.02619,-0.00530,0.05854,-0.03765,0.06915,-0.02705,0.03680,0.00530,0.02619,-0.00530,0.0*
%
%ADD177THOVALD177*%

%AMTHOVALD178*
21,1,0.03543,0.09937,0,0,270.0*
1,1,0.09937,0.00000,0.01772*
1,1,0.09937,0.00000,-0.01772*
21,0,0.03543,0.07937,0,0,270.0*
1,0,0.07937,0.00000,0.01772*
1,0,0.07937,0.00000,-0.01772*
4,0,4,-0.00530,0.01241,-0.04044,0.04755,-0.02983,0.05815,0.00530,0.02302,-0.00530,0.01241,0.0*
4,0,4,-0.00530,-0.02302,0.02983,-0.05815,0.04044,-0.04755,0.00530,-0.01241,-0.00530,-0.02302,0.0*
4,0,4,-0.00530,0.02302,0.02983,0.05815,0.04044,0.04755,0.00530,0.01241,-0.00530,0.02302,0.0*
4,0,4,-0.00530,-0.01241,-0.04044,-0.04755,-0.02983,-0.05815,0.00530,-0.02302,-0.00530,-0.01241,0.0*
%
%ADD178THOVALD178*%

%ADD179C,0.05590*%
G04:AMPARAMS|DCode=180|XSize=91.496mil|YSize=91.496mil|CornerRadius=0mil|HoleSize=0mil|Usage=FLASHONLY|Rotation=0.000|XOffset=0mil|YOffset=0mil|HoleType=Round|Shape=Relief|Width=15mil|Gap=10mil|Entries=4|*
%AMTHD180*
7,0,0,0.09150,0.07150,0.01500,45*
%
%ADD180THD180*%
G04:AMPARAMS|DCode=181|XSize=210mil|YSize=210mil|CornerRadius=0mil|HoleSize=0mil|Usage=FLASHONLY|Rotation=0.000|XOffset=0mil|YOffset=0mil|HoleType=Round|Shape=Relief|Width=15mil|Gap=10mil|Entries=4|*
%AMTHD181*
7,0,0,0.21000,0.19000,0.01500,45*
%
%ADD181THD181*%
%ADD182C,0.17440*%
%ADD183C,0.15235*%
G04:AMPARAMS|DCode=184|XSize=122.992mil|YSize=122.992mil|CornerRadius=0mil|HoleSize=0mil|Usage=FLASHONLY|Rotation=0.000|XOffset=0mil|YOffset=0mil|HoleType=Round|Shape=Relief|Width=15mil|Gap=10mil|Entries=4|*
%AMTHD184*
7,0,0,0.12299,0.10299,0.01500,45*
%
%ADD184THD184*%
G04:AMPARAMS|DCode=185|XSize=100.157mil|YSize=100.157mil|CornerRadius=0mil|HoleSize=0mil|Usage=FLASHONLY|Rotation=0.000|XOffset=0mil|YOffset=0mil|HoleType=Round|Shape=Relief|Width=15mil|Gap=10mil|Entries=4|*
%AMTHD185*
7,0,0,0.10016,0.08016,0.01500,45*
%
%ADD185THD185*%
%ADD186C,0.06456*%
G04:AMPARAMS|DCode=187|XSize=117.087mil|YSize=117.087mil|CornerRadius=0mil|HoleSize=0mil|Usage=FLASHONLY|Rotation=0.000|XOffset=0mil|YOffset=0mil|HoleType=Round|Shape=Relief|Width=15mil|Gap=10mil|Entries=4|*
%AMTHD187*
7,0,0,0.11709,0.09709,0.01500,45*
%
%ADD187THD187*%
%ADD188C,0.08149*%
%ADD189C,0.14743*%
%ADD190C,0.07040*%
%ADD191C,0.03440*%
%ADD192C,0.03739*%
%ADD193C,0.00380*%
%ADD194C,0.00394*%
%ADD195C,0.22874*%
%ADD196C,0.00380*%
%ADD197C,0.07000*%
%ADD198C,0.05668*%
%ADD199C,0.09133*%
%ADD200O,0.11889X0.05590*%
%ADD201O,0.06377X0.09920*%
%ADD202C,0.08739*%
%ADD203C,0.05240*%
%ADD204C,0.03444*%
%ADD205R,0.00787X0.02165*%
%ADD206C,0.00984*%
%ADD207C,0.02362*%
%ADD208C,0.00787*%
%ADD209C,0.06000*%
%ADD210C,0.00100*%
%ADD211C,0.00300*%
%ADD212C,0.00315*%
%ADD213C,0.00900*%
%ADD214C,0.00591*%
%ADD215R,0.09095X0.09095*%
%ADD216R,0.09095X0.09095*%
%ADD217R,0.08268X0.08268*%
%ADD218R,0.12402X0.12402*%
%ADD219R,0.08268X0.08268*%
%ADD220R,0.03961X0.05181*%
%ADD221R,0.03858X0.03858*%
%ADD222R,0.04961X0.04961*%
%ADD223R,0.04409X0.04409*%
%ADD224R,0.04409X0.04409*%
%ADD225C,0.07874*%
%ADD226O,0.06502X0.01384*%
%ADD227O,0.01384X0.06502*%
%ADD228C,0.02372*%
%ADD229C,0.02569*%
%ADD230R,0.07290X0.01581*%
%ADD231R,0.02000X0.08900*%
%ADD232R,0.71400X0.02400*%
%ADD233R,0.01502X0.03747*%
%ADD234R,0.03747X0.01502*%
%ADD235R,0.12211X0.12211*%
%ADD236R,0.18116X0.18116*%
%ADD237R,0.03550X0.01581*%
%ADD238R,0.01581X0.03550*%
%ADD239R,0.12211X0.12211*%
%ADD240C,0.04900*%
%ADD241C,0.02998*%
D12*
X965469Y62500D02*
D03*
X961531D02*
D03*
X964801Y441192D02*
D03*
X968738D02*
D03*
X943331Y441799D02*
D03*
X947268D02*
D03*
X948228Y463484D02*
D03*
X944291D02*
D03*
X934268Y463799D02*
D03*
X930331D02*
D03*
X948468Y453610D02*
D03*
X944531D02*
D03*
X934492Y453216D02*
D03*
X930555D02*
D03*
X965268Y474799D02*
D03*
X961331D02*
D03*
X1004768Y449299D02*
D03*
X1000831D02*
D03*
X1039768Y188299D02*
D03*
X1035831D02*
D03*
X813780Y297244D02*
D03*
X817717D02*
D03*
X833465D02*
D03*
X829528D02*
D03*
X791929Y297638D02*
D03*
X787992D02*
D03*
X796063Y324213D02*
D03*
X800000D02*
D03*
X821654Y297244D02*
D03*
X825591D02*
D03*
X809843Y281299D02*
D03*
X805905D02*
D03*
X814961Y314173D02*
D03*
X811024D02*
D03*
X841360Y297051D02*
D03*
X837423D02*
D03*
X818110Y274606D02*
D03*
X822047D02*
D03*
X746331Y268299D02*
D03*
X750268D02*
D03*
X746331Y272299D02*
D03*
X750268D02*
D03*
X746331Y276299D02*
D03*
X750268D02*
D03*
X760268D02*
D03*
X756331D02*
D03*
X734331Y268299D02*
D03*
X738268D02*
D03*
X734331Y272299D02*
D03*
X738268D02*
D03*
X762598Y293110D02*
D03*
X758661D02*
D03*
X804134Y368307D02*
D03*
X800197D02*
D03*
X825591Y395472D02*
D03*
X829528D02*
D03*
X821850Y395276D02*
D03*
X817913D02*
D03*
X799409Y418898D02*
D03*
X803346D02*
D03*
X815157Y374803D02*
D03*
X819094D02*
D03*
X840748Y418898D02*
D03*
X836811D02*
D03*
X736024Y314961D02*
D03*
X739961D02*
D03*
X736024Y377953D02*
D03*
X739961D02*
D03*
X770669Y417520D02*
D03*
X766732D02*
D03*
X731102Y285236D02*
D03*
X735039D02*
D03*
X752756Y297244D02*
D03*
X748819D02*
D03*
X742913Y297047D02*
D03*
X738976D02*
D03*
X782283Y328740D02*
D03*
X778346D02*
D03*
X786220Y328642D02*
D03*
X790157D02*
D03*
X786319Y364075D02*
D03*
X790256D02*
D03*
X782283Y364173D02*
D03*
X778346D02*
D03*
X739764Y370079D02*
D03*
X735827D02*
D03*
X739764Y366142D02*
D03*
X735827D02*
D03*
X739764Y362205D02*
D03*
X735827D02*
D03*
X740157Y334646D02*
D03*
X736220D02*
D03*
X740157Y330709D02*
D03*
X736220D02*
D03*
X740157Y326772D02*
D03*
X736220D02*
D03*
X764567Y324016D02*
D03*
X768504D02*
D03*
X828937Y324409D02*
D03*
X832874D02*
D03*
X828937Y328346D02*
D03*
X832874D02*
D03*
X828937Y332480D02*
D03*
X832874D02*
D03*
X828740Y360236D02*
D03*
X832677D02*
D03*
X828740Y367717D02*
D03*
X832677D02*
D03*
X828740Y371654D02*
D03*
X832677D02*
D03*
X786220Y368110D02*
D03*
X790157D02*
D03*
X772441Y390839D02*
D03*
X776378D02*
D03*
X762598Y390945D02*
D03*
X766535D02*
D03*
X752756D02*
D03*
X756693D02*
D03*
X782283Y368110D02*
D03*
X778346D02*
D03*
X727165Y411220D02*
D03*
X731102D02*
D03*
X742913Y395276D02*
D03*
X738976D02*
D03*
X921431Y521599D02*
D03*
X925368D02*
D03*
X714567Y161417D02*
D03*
X718504D02*
D03*
X702731Y192999D02*
D03*
X706668D02*
D03*
X1161268Y876799D02*
D03*
X1157331D02*
D03*
X1133331Y836299D02*
D03*
X1137268D02*
D03*
X1114768Y848799D02*
D03*
X1110831D02*
D03*
X1126831Y869799D02*
D03*
X1130768D02*
D03*
X1150768Y880799D02*
D03*
X1146831D02*
D03*
X1091268Y932299D02*
D03*
X1087331D02*
D03*
X918268Y320299D02*
D03*
X914331D02*
D03*
X1001868Y330199D02*
D03*
X997931D02*
D03*
X1001868Y321199D02*
D03*
X997931D02*
D03*
X1001868Y339199D02*
D03*
X997931D02*
D03*
X1001868Y348199D02*
D03*
X997931D02*
D03*
X1001868Y357199D02*
D03*
X997931D02*
D03*
X1001868Y366199D02*
D03*
X997931D02*
D03*
X813780Y293110D02*
D03*
X817717D02*
D03*
X1032268Y352299D02*
D03*
X1028331D02*
D03*
X985827Y379528D02*
D03*
X989764D02*
D03*
X976124Y391725D02*
D03*
X972187D02*
D03*
X990256Y401673D02*
D03*
X986319D02*
D03*
X1007130Y379004D02*
D03*
X1011067D02*
D03*
X976268Y401799D02*
D03*
X972331D02*
D03*
X989768Y391799D02*
D03*
X985831D02*
D03*
X985447Y273652D02*
D03*
X989384D02*
D03*
X989974Y285463D02*
D03*
X986037D02*
D03*
X975801Y295502D02*
D03*
X971864D02*
D03*
X1007768Y306799D02*
D03*
X1003831D02*
D03*
X976268Y284799D02*
D03*
X972331D02*
D03*
X1006831Y273299D02*
D03*
X1010768D02*
D03*
X989384Y295699D02*
D03*
X985447D02*
D03*
X943568Y211464D02*
D03*
X947505D02*
D03*
X933922Y233511D02*
D03*
X929985D02*
D03*
X934268Y222799D02*
D03*
X930331D02*
D03*
X948768Y233799D02*
D03*
X944831D02*
D03*
X947701Y223275D02*
D03*
X943764D02*
D03*
X965615Y244929D02*
D03*
X961678D02*
D03*
X785768Y166520D02*
D03*
X781831D02*
D03*
X820268Y220299D02*
D03*
X816331D02*
D03*
X800768Y195799D02*
D03*
X796831D02*
D03*
X823668Y160699D02*
D03*
X819731D02*
D03*
X857268Y171299D02*
D03*
X853331D02*
D03*
X1017717Y850394D02*
D03*
X1013780D02*
D03*
X1005906Y854429D02*
D03*
X1009843D02*
D03*
X1033465Y814961D02*
D03*
X1037402D02*
D03*
X1021654Y826772D02*
D03*
X1017717D02*
D03*
Y842520D02*
D03*
X1013780D02*
D03*
X1045276Y846457D02*
D03*
X1041339D02*
D03*
X1000787Y809055D02*
D03*
X1004724D02*
D03*
X1000886Y844488D02*
D03*
X1004823D02*
D03*
X1021654Y814961D02*
D03*
X1017717D02*
D03*
X1021654Y838583D02*
D03*
X1017717D02*
D03*
X1029528D02*
D03*
X1033465D02*
D03*
X1021654Y818898D02*
D03*
X1017717D02*
D03*
X1029528Y822835D02*
D03*
X1033465D02*
D03*
X1021654D02*
D03*
X1017717D02*
D03*
X427165Y318898D02*
D03*
X431102D02*
D03*
X423228Y314961D02*
D03*
X419291D02*
D03*
X391732Y318298D02*
D03*
X395669D02*
D03*
X448819Y389764D02*
D03*
X444882D02*
D03*
X476378D02*
D03*
X480315D02*
D03*
X464567D02*
D03*
X460630D02*
D03*
X370079Y381890D02*
D03*
X366142D02*
D03*
Y389764D02*
D03*
X362205D02*
D03*
X350394D02*
D03*
X346457D02*
D03*
Y381890D02*
D03*
X342520D02*
D03*
Y389764D02*
D03*
X338583D02*
D03*
X472441D02*
D03*
X468504D02*
D03*
X480315Y381890D02*
D03*
X484252D02*
D03*
X472441D02*
D03*
X476378D02*
D03*
X456693Y389764D02*
D03*
X452756D02*
D03*
X374016D02*
D03*
X370079D02*
D03*
X358268D02*
D03*
X354331D02*
D03*
X362205Y381890D02*
D03*
X358268D02*
D03*
X338583D02*
D03*
X334646D02*
D03*
Y389764D02*
D03*
X330709D02*
D03*
X1007614Y413175D02*
D03*
X1003677D02*
D03*
X397538Y247931D02*
D03*
X401475D02*
D03*
X346357Y271554D02*
D03*
X342420D02*
D03*
X425097Y291239D02*
D03*
X429034D02*
D03*
X452656Y287302D02*
D03*
X456593D02*
D03*
X432971Y306987D02*
D03*
X436908D02*
D03*
X342420Y326672D02*
D03*
X338483D02*
D03*
X377853Y338483D02*
D03*
X373916D02*
D03*
X964831Y211799D02*
D03*
X968768D02*
D03*
X444732Y354181D02*
D03*
X448669D02*
D03*
X456693Y346307D02*
D03*
X452756D02*
D03*
X334546Y354231D02*
D03*
X330609D02*
D03*
X590551Y354331D02*
D03*
X594488D02*
D03*
X586614Y374016D02*
D03*
X590551D02*
D03*
X586614Y350394D02*
D03*
X590551D02*
D03*
X614173Y354331D02*
D03*
X610236D02*
D03*
X618110Y374016D02*
D03*
X614173D02*
D03*
X618110Y350394D02*
D03*
X614173D02*
D03*
X468504Y381890D02*
D03*
X464567D02*
D03*
X586614Y255905D02*
D03*
X590551D02*
D03*
X590453Y236220D02*
D03*
X594390D02*
D03*
X614173D02*
D03*
X610236D02*
D03*
X618110Y232283D02*
D03*
X614173D02*
D03*
X618110Y255906D02*
D03*
X614173D02*
D03*
X586713Y232283D02*
D03*
X590650D02*
D03*
X444882Y381890D02*
D03*
X440945D02*
D03*
X610236Y366142D02*
D03*
X606299D02*
D03*
X590453D02*
D03*
X594390D02*
D03*
X618110D02*
D03*
X614173D02*
D03*
X440945Y389764D02*
D03*
X437008D02*
D03*
X618110Y248031D02*
D03*
X614173D02*
D03*
X610236D02*
D03*
X606299D02*
D03*
X590551D02*
D03*
X594488D02*
D03*
X425197Y389764D02*
D03*
X421260D02*
D03*
X417323D02*
D03*
X413386D02*
D03*
X650268Y351299D02*
D03*
X646331D02*
D03*
X650268Y375299D02*
D03*
X646331D02*
D03*
X555543Y352299D02*
D03*
X559480D02*
D03*
X650268Y362299D02*
D03*
X646331D02*
D03*
X557331Y332299D02*
D03*
X561268D02*
D03*
X555531Y375299D02*
D03*
X559468D02*
D03*
X393701Y389764D02*
D03*
X397638D02*
D03*
X651268Y245299D02*
D03*
X647331D02*
D03*
X556331Y268299D02*
D03*
X560268D02*
D03*
X556331Y230299D02*
D03*
X560268D02*
D03*
X651268Y263299D02*
D03*
X647331D02*
D03*
X651268Y237299D02*
D03*
X647331D02*
D03*
X556331Y253299D02*
D03*
X560268D02*
D03*
X611331Y286299D02*
D03*
X615268D02*
D03*
X202756Y391732D02*
D03*
X206693D02*
D03*
X234252Y395669D02*
D03*
X230315D02*
D03*
X230413Y372146D02*
D03*
X226476D02*
D03*
X198917Y372047D02*
D03*
X202854D02*
D03*
X226378Y391732D02*
D03*
X222441D02*
D03*
X198819Y395669D02*
D03*
X202756D02*
D03*
X385827Y389764D02*
D03*
X389764D02*
D03*
X338484Y141831D02*
D03*
X342421D02*
D03*
X338583Y145669D02*
D03*
X342520D02*
D03*
X226378Y379921D02*
D03*
X222441D02*
D03*
X206693D02*
D03*
X210630D02*
D03*
X198917Y379823D02*
D03*
X202854D02*
D03*
X334646Y133858D02*
D03*
X330709D02*
D03*
X334646Y137697D02*
D03*
X330709D02*
D03*
X334646Y149606D02*
D03*
X330709D02*
D03*
X334646Y153543D02*
D03*
X330709D02*
D03*
X168331Y372299D02*
D03*
X172268D02*
D03*
X168331Y386299D02*
D03*
X172268D02*
D03*
X168331Y398299D02*
D03*
X172268D02*
D03*
X264268Y367299D02*
D03*
X260331D02*
D03*
X265268Y383299D02*
D03*
X261331D02*
D03*
X265268Y397299D02*
D03*
X261331D02*
D03*
X82331Y244299D02*
D03*
X86268D02*
D03*
X82331Y228299D02*
D03*
X86268D02*
D03*
X82331Y308299D02*
D03*
X86268D02*
D03*
X82331Y292299D02*
D03*
X86268D02*
D03*
X82331Y324299D02*
D03*
X86268D02*
D03*
X82331Y260299D02*
D03*
X86268D02*
D03*
X82331Y276299D02*
D03*
X86268D02*
D03*
X130268Y338299D02*
D03*
X126331D02*
D03*
X130268Y322871D02*
D03*
X126331D02*
D03*
X130268Y307442D02*
D03*
X126331D02*
D03*
X130268Y292013D02*
D03*
X126331D02*
D03*
X130268Y276585D02*
D03*
X126331D02*
D03*
X130268Y261156D02*
D03*
X126331D02*
D03*
X130268Y245728D02*
D03*
X126331D02*
D03*
X130268Y230299D02*
D03*
X126331D02*
D03*
X88331Y344299D02*
D03*
X92268D02*
D03*
X88331Y350299D02*
D03*
X92268D02*
D03*
X915354Y854429D02*
D03*
X919291D02*
D03*
X927165Y850394D02*
D03*
X923228D02*
D03*
X910236Y809055D02*
D03*
X914173D02*
D03*
X931102Y826772D02*
D03*
X927165D02*
D03*
X954724Y846457D02*
D03*
X950787D02*
D03*
X910630Y844488D02*
D03*
X914567D02*
D03*
X927165Y842520D02*
D03*
X923228D02*
D03*
X942913Y814961D02*
D03*
X946850D02*
D03*
X931102Y822835D02*
D03*
X927165D02*
D03*
X938976Y838583D02*
D03*
X942913D02*
D03*
X938976Y822835D02*
D03*
X942913D02*
D03*
X931102Y818898D02*
D03*
X927165D02*
D03*
X931102Y814961D02*
D03*
X927165D02*
D03*
X931102Y838583D02*
D03*
X927165D02*
D03*
X1020968Y563000D02*
D03*
X1017031D02*
D03*
X678633Y274424D02*
D03*
X674696D02*
D03*
X678633Y256424D02*
D03*
X674696D02*
D03*
X674686Y399299D02*
D03*
X678623D02*
D03*
X678007Y370399D02*
D03*
X674070D02*
D03*
X674886Y335401D02*
D03*
X678823D02*
D03*
Y309401D02*
D03*
X674886D02*
D03*
X598331Y112299D02*
D03*
X602268D02*
D03*
X1032433Y665480D02*
D03*
X1028496D02*
D03*
X250331Y250299D02*
D03*
X254268D02*
D03*
X797768Y144299D02*
D03*
X793831D02*
D03*
D13*
X1183031Y286000D02*
D03*
X1186968D02*
D03*
X371031Y316000D02*
D03*
X374969D02*
D03*
X382469D02*
D03*
X378532D02*
D03*
X452969Y318000D02*
D03*
X449031D02*
D03*
X441032Y316500D02*
D03*
X444969D02*
D03*
X362469Y316000D02*
D03*
X358531D02*
D03*
X345532D02*
D03*
X349468D02*
D03*
X106918Y900349D02*
D03*
X102981D02*
D03*
X106918Y910499D02*
D03*
X102981D02*
D03*
X951615Y477622D02*
D03*
X947678D02*
D03*
X705068Y304799D02*
D03*
X701131D02*
D03*
X705268Y351999D02*
D03*
X701331D02*
D03*
X36331Y46299D02*
D03*
X40268D02*
D03*
X36331Y38299D02*
D03*
X40268D02*
D03*
X953331Y657299D02*
D03*
X957268D02*
D03*
X953331Y663299D02*
D03*
X957268D02*
D03*
X953331Y669299D02*
D03*
X957268D02*
D03*
X953331Y675299D02*
D03*
X957268D02*
D03*
X925368Y515599D02*
D03*
X921431D02*
D03*
X641268Y367299D02*
D03*
X637331D02*
D03*
X864268Y280299D02*
D03*
X860331D02*
D03*
X864268Y288299D02*
D03*
X860331D02*
D03*
X864268Y276299D02*
D03*
X860331D02*
D03*
X864268Y296299D02*
D03*
X860331D02*
D03*
X864268Y292299D02*
D03*
X860331D02*
D03*
X864268Y284299D02*
D03*
X860331D02*
D03*
X864268Y312299D02*
D03*
X860331D02*
D03*
X864268Y300299D02*
D03*
X860331D02*
D03*
X864268Y308299D02*
D03*
X860331D02*
D03*
X864268Y324299D02*
D03*
X860331D02*
D03*
X864268Y320299D02*
D03*
X860331D02*
D03*
X864268Y316299D02*
D03*
X860331D02*
D03*
X998268Y417799D02*
D03*
X994331D02*
D03*
X993768Y311799D02*
D03*
X989831D02*
D03*
X952032Y246897D02*
D03*
X948095D02*
D03*
X882331Y418299D02*
D03*
X886268D02*
D03*
X1026768Y769299D02*
D03*
X1022831D02*
D03*
X882331Y424299D02*
D03*
X886268D02*
D03*
X882331Y430299D02*
D03*
X886268D02*
D03*
X311531Y315799D02*
D03*
X315468D02*
D03*
X315368Y319599D02*
D03*
X311431D02*
D03*
X565331Y366299D02*
D03*
X569268D02*
D03*
X641268Y249299D02*
D03*
X637331D02*
D03*
X565331Y362299D02*
D03*
X569268D02*
D03*
X565331Y248299D02*
D03*
X569268D02*
D03*
X565331Y241299D02*
D03*
X569268D02*
D03*
X177331Y380299D02*
D03*
X181268D02*
D03*
X253268Y379299D02*
D03*
X249331D02*
D03*
X253268Y387299D02*
D03*
X249331D02*
D03*
X590268Y310299D02*
D03*
X586331D02*
D03*
X590268Y304299D02*
D03*
X586331D02*
D03*
X854331Y132299D02*
D03*
X858268D02*
D03*
X832268Y130299D02*
D03*
X828331D02*
D03*
X818331D02*
D03*
X822268D02*
D03*
X1049299Y891999D02*
D03*
X1053236D02*
D03*
X1038299Y892299D02*
D03*
X1042236D02*
D03*
X1028299D02*
D03*
X1024362D02*
D03*
X1017299D02*
D03*
X1013362D02*
D03*
X962299Y900299D02*
D03*
X966236D02*
D03*
X958299Y910299D02*
D03*
X962236D02*
D03*
X948199Y893899D02*
D03*
X952136D02*
D03*
X934299Y894099D02*
D03*
X930362D02*
D03*
X922399Y893999D02*
D03*
X918462D02*
D03*
X362168Y489799D02*
D03*
X358231D02*
D03*
X875268Y328299D02*
D03*
X871331D02*
D03*
X97931Y788699D02*
D03*
X101868D02*
D03*
X878768Y267799D02*
D03*
X874831D02*
D03*
X878768Y271799D02*
D03*
X874831D02*
D03*
D15*
X192000Y37031D02*
D03*
Y40968D02*
D03*
Y25969D02*
D03*
Y22031D02*
D03*
X1166000Y273969D02*
D03*
Y270031D02*
D03*
X96000Y772031D02*
D03*
Y775969D02*
D03*
X933400Y604368D02*
D03*
Y600431D02*
D03*
X929000Y600232D02*
D03*
Y604169D02*
D03*
X924800Y600232D02*
D03*
Y604169D02*
D03*
X989000Y599031D02*
D03*
Y602969D02*
D03*
X994000Y599031D02*
D03*
Y602969D02*
D03*
X1150900Y156231D02*
D03*
Y160168D02*
D03*
X1112600Y606031D02*
D03*
Y609968D02*
D03*
X1101200Y389031D02*
D03*
Y392969D02*
D03*
X408000Y348969D02*
D03*
Y345031D02*
D03*
X407500Y301969D02*
D03*
Y298031D02*
D03*
X407000Y276031D02*
D03*
Y279969D02*
D03*
X408000Y268468D02*
D03*
Y264531D02*
D03*
X407500Y255031D02*
D03*
Y258968D02*
D03*
X363500Y221031D02*
D03*
Y224969D02*
D03*
X432299Y498331D02*
D03*
Y502268D02*
D03*
X434299Y490331D02*
D03*
Y494268D02*
D03*
X596299Y102331D02*
D03*
Y106268D02*
D03*
X84299Y886331D02*
D03*
Y890268D02*
D03*
X52531Y886299D02*
D03*
Y890236D02*
D03*
X777499Y476468D02*
D03*
Y472531D02*
D03*
X771499Y476468D02*
D03*
Y472531D02*
D03*
X765499Y476468D02*
D03*
Y472531D02*
D03*
X783499Y476468D02*
D03*
Y472531D02*
D03*
X795499Y476468D02*
D03*
Y472531D02*
D03*
X789499Y476468D02*
D03*
Y472531D02*
D03*
X813499Y476468D02*
D03*
Y472531D02*
D03*
X807499Y476468D02*
D03*
Y472531D02*
D03*
X801499Y472531D02*
D03*
Y476468D02*
D03*
X819499Y472531D02*
D03*
Y476468D02*
D03*
X690299Y315768D02*
D03*
Y311831D02*
D03*
X682299Y314768D02*
D03*
Y310831D02*
D03*
X681799Y327831D02*
D03*
Y331768D02*
D03*
X750299Y250331D02*
D03*
Y254268D02*
D03*
X1178699Y878568D02*
D03*
Y874631D02*
D03*
X1172699Y878568D02*
D03*
Y874631D02*
D03*
X1184699Y878568D02*
D03*
Y874631D02*
D03*
X1190699Y874631D02*
D03*
Y878568D02*
D03*
X860299Y266331D02*
D03*
Y270268D02*
D03*
X852299Y266331D02*
D03*
Y270268D02*
D03*
X832299Y266331D02*
D03*
Y270268D02*
D03*
X844299Y266331D02*
D03*
Y270268D02*
D03*
X848299Y266331D02*
D03*
Y270268D02*
D03*
X856299Y266331D02*
D03*
Y270268D02*
D03*
X836299Y266331D02*
D03*
Y270268D02*
D03*
X840299Y266331D02*
D03*
Y270268D02*
D03*
X68299Y886331D02*
D03*
Y890268D02*
D03*
X114299Y862268D02*
D03*
Y858331D02*
D03*
X996299Y776331D02*
D03*
Y780268D02*
D03*
X1008299Y776331D02*
D03*
Y780268D02*
D03*
X1020299Y776331D02*
D03*
Y780268D02*
D03*
X354299Y222231D02*
D03*
Y226168D02*
D03*
X350299D02*
D03*
Y222231D02*
D03*
X338299Y104331D02*
D03*
Y108268D02*
D03*
Y179268D02*
D03*
Y175331D02*
D03*
X331299Y179268D02*
D03*
Y175331D02*
D03*
X900299Y776331D02*
D03*
Y780268D02*
D03*
X912299Y776331D02*
D03*
Y780268D02*
D03*
X924299Y776331D02*
D03*
Y780268D02*
D03*
X936299Y776331D02*
D03*
Y780268D02*
D03*
X68299Y824268D02*
D03*
Y820331D02*
D03*
X52299Y824268D02*
D03*
Y820331D02*
D03*
X84299Y824268D02*
D03*
Y820331D02*
D03*
X100299Y824268D02*
D03*
Y820331D02*
D03*
X52299Y848331D02*
D03*
Y852268D02*
D03*
X67299Y848331D02*
D03*
Y852268D02*
D03*
X83299Y848331D02*
D03*
Y852268D02*
D03*
X99299Y848331D02*
D03*
Y852268D02*
D03*
X811543Y88988D02*
D03*
Y92925D02*
D03*
X787543D02*
D03*
Y88988D02*
D03*
X138299Y882331D02*
D03*
Y886268D02*
D03*
X100299Y886331D02*
D03*
Y890268D02*
D03*
X114299Y886268D02*
D03*
Y882331D02*
D03*
Y834268D02*
D03*
Y830331D02*
D03*
X1110299Y875268D02*
D03*
Y871331D02*
D03*
X1036299Y916299D02*
D03*
Y920236D02*
D03*
X1030299Y916299D02*
D03*
Y920236D02*
D03*
X1024299Y916299D02*
D03*
Y920236D02*
D03*
X1018299Y916299D02*
D03*
Y920236D02*
D03*
X941999Y914599D02*
D03*
Y918536D02*
D03*
X931899Y914599D02*
D03*
Y918536D02*
D03*
X922099Y914599D02*
D03*
Y918536D02*
D03*
X349499Y489331D02*
D03*
Y493268D02*
D03*
X652099Y329468D02*
D03*
Y325531D02*
D03*
X767799Y206268D02*
D03*
Y202331D02*
D03*
X758299Y206268D02*
D03*
Y202331D02*
D03*
D18*
X739700Y148099D02*
D03*
X933858Y612598D02*
D03*
X929134D02*
D03*
X924409D02*
D03*
X1005906Y335039D02*
D03*
X999300Y245000D02*
D03*
X967000Y777000D02*
D03*
X960000D02*
D03*
X967000Y770000D02*
D03*
X960000D02*
D03*
X890299Y360299D02*
D03*
X579299Y403799D02*
D03*
X569399Y206099D02*
D03*
X1045799Y866299D02*
D03*
X999799Y854799D02*
D03*
X650299Y338299D02*
D03*
X625399Y206099D02*
D03*
X193299Y419299D02*
D03*
X290799Y164799D02*
D03*
X226299Y419299D02*
D03*
X83799Y286299D02*
D03*
X85000Y265000D02*
D03*
X685799Y238299D02*
D03*
X289799Y128799D02*
D03*
X958661Y812299D02*
D03*
Y828299D02*
D03*
Y820299D02*
D03*
X129799Y285299D02*
D03*
X969299Y886299D02*
D03*
X914299D02*
D03*
X958661Y836299D02*
D03*
X676299Y213299D02*
D03*
X947799Y662299D02*
D03*
X70299Y330299D02*
D03*
X651799Y213299D02*
D03*
X712299Y495299D02*
D03*
X83799Y281299D02*
D03*
X667799Y238299D02*
D03*
X650499Y312899D02*
D03*
X498000Y378500D02*
D03*
D24*
X1056299Y603768D02*
D03*
Y599831D02*
D03*
X1049799Y735547D02*
D03*
Y731610D02*
D03*
X432971Y255806D02*
D03*
Y251868D02*
D03*
X417223Y263680D02*
D03*
Y259743D02*
D03*
X948271Y450460D02*
D03*
Y446523D02*
D03*
X920319Y450066D02*
D03*
Y446129D02*
D03*
X919799Y467331D02*
D03*
Y471268D02*
D03*
X1062799Y291768D02*
D03*
Y287831D02*
D03*
X864299Y370331D02*
D03*
Y374268D02*
D03*
X860299Y370331D02*
D03*
Y374268D02*
D03*
X856299Y370331D02*
D03*
Y374268D02*
D03*
X833465Y312795D02*
D03*
Y308858D02*
D03*
Y344291D02*
D03*
Y348228D02*
D03*
Y304921D02*
D03*
Y300984D02*
D03*
X830709Y316142D02*
D03*
Y320079D02*
D03*
X750787Y289173D02*
D03*
Y293110D02*
D03*
X806496Y358071D02*
D03*
Y362008D02*
D03*
X833465Y375984D02*
D03*
Y379921D02*
D03*
Y395472D02*
D03*
Y391535D02*
D03*
Y383661D02*
D03*
Y387598D02*
D03*
X849213Y375787D02*
D03*
Y371850D02*
D03*
X845276Y399606D02*
D03*
Y395669D02*
D03*
X723228Y293110D02*
D03*
Y297047D02*
D03*
X762598Y281299D02*
D03*
Y285236D02*
D03*
X735039Y297047D02*
D03*
Y300984D02*
D03*
X801968Y301968D02*
D03*
Y298031D02*
D03*
X766535Y344291D02*
D03*
Y340354D02*
D03*
Y348425D02*
D03*
Y352362D02*
D03*
X762598Y348425D02*
D03*
Y352362D02*
D03*
Y344488D02*
D03*
Y340551D02*
D03*
X801968Y344094D02*
D03*
Y340157D02*
D03*
X762598Y301968D02*
D03*
Y298031D02*
D03*
X766535Y301968D02*
D03*
Y298031D02*
D03*
X770472Y301968D02*
D03*
Y298031D02*
D03*
X762205Y366142D02*
D03*
Y362205D02*
D03*
X805905Y301968D02*
D03*
Y298031D02*
D03*
X798031Y301968D02*
D03*
Y298031D02*
D03*
X801969Y348425D02*
D03*
Y352362D02*
D03*
X805905Y344094D02*
D03*
Y340157D02*
D03*
X805906Y348425D02*
D03*
Y352362D02*
D03*
Y390945D02*
D03*
Y394882D02*
D03*
X801969Y390945D02*
D03*
Y394882D02*
D03*
X798031Y390945D02*
D03*
Y394882D02*
D03*
X735433Y307087D02*
D03*
Y311024D02*
D03*
X735630Y338386D02*
D03*
Y342323D02*
D03*
X723228Y399409D02*
D03*
Y395472D02*
D03*
X735039Y395669D02*
D03*
Y391732D02*
D03*
X735433Y385433D02*
D03*
Y381496D02*
D03*
X702756Y169390D02*
D03*
Y173327D02*
D03*
X1153299Y836831D02*
D03*
Y840768D02*
D03*
X1146599Y851831D02*
D03*
Y855768D02*
D03*
X1122299Y857831D02*
D03*
Y861768D02*
D03*
X1143299Y840331D02*
D03*
Y844268D02*
D03*
X898299Y338268D02*
D03*
Y334331D02*
D03*
X783858Y273425D02*
D03*
Y269488D02*
D03*
X837402Y356102D02*
D03*
Y352165D02*
D03*
X794094Y285236D02*
D03*
Y289173D02*
D03*
X837402Y312795D02*
D03*
Y316732D02*
D03*
X990101Y388378D02*
D03*
Y384441D02*
D03*
X962299Y405331D02*
D03*
Y409268D02*
D03*
Y387268D02*
D03*
Y383331D02*
D03*
X990299Y282768D02*
D03*
Y278831D02*
D03*
X962299Y281268D02*
D03*
Y277331D02*
D03*
X947505Y220322D02*
D03*
Y216385D02*
D03*
X919799Y237331D02*
D03*
Y241268D02*
D03*
Y219268D02*
D03*
Y215331D02*
D03*
X1033465Y846457D02*
D03*
Y850394D02*
D03*
X1029528Y846457D02*
D03*
Y850394D02*
D03*
X1021654D02*
D03*
Y854331D02*
D03*
X1029528Y814961D02*
D03*
Y811024D02*
D03*
X1011799Y878431D02*
D03*
Y882368D02*
D03*
X1019799Y878431D02*
D03*
Y882368D02*
D03*
X1031499Y878431D02*
D03*
Y882368D02*
D03*
X1039599Y878431D02*
D03*
Y882368D02*
D03*
X405512Y289370D02*
D03*
Y293307D02*
D03*
X408949Y336614D02*
D03*
Y340551D02*
D03*
Y309055D02*
D03*
Y305118D02*
D03*
X405512Y324803D02*
D03*
Y328740D02*
D03*
Y356299D02*
D03*
Y352362D02*
D03*
X330559Y373966D02*
D03*
Y370029D02*
D03*
X369979Y374016D02*
D03*
Y370079D02*
D03*
X393601Y374016D02*
D03*
Y370079D02*
D03*
X413286Y374016D02*
D03*
Y370079D02*
D03*
X436908Y374016D02*
D03*
Y370079D02*
D03*
X452656Y374016D02*
D03*
Y370079D02*
D03*
X468404Y374016D02*
D03*
Y370079D02*
D03*
X484252Y374016D02*
D03*
Y370079D02*
D03*
X338483Y374016D02*
D03*
Y370079D02*
D03*
X377853Y374016D02*
D03*
Y370079D02*
D03*
X401475Y374016D02*
D03*
Y370079D02*
D03*
X421260Y374016D02*
D03*
Y370079D02*
D03*
X444782Y374016D02*
D03*
Y370079D02*
D03*
X460530Y374016D02*
D03*
Y370079D02*
D03*
X476278Y374016D02*
D03*
Y370079D02*
D03*
X346357Y374016D02*
D03*
Y370079D02*
D03*
X334596Y303050D02*
D03*
Y299113D02*
D03*
X330659Y291189D02*
D03*
Y295126D02*
D03*
X330609Y275491D02*
D03*
Y271554D02*
D03*
X413336Y306937D02*
D03*
Y310874D02*
D03*
X346357Y267617D02*
D03*
Y263680D02*
D03*
X373916D02*
D03*
Y259743D02*
D03*
X366042Y247931D02*
D03*
Y243994D02*
D03*
X381790Y255806D02*
D03*
Y251868D02*
D03*
X397538Y271554D02*
D03*
Y267617D02*
D03*
X468396Y267551D02*
D03*
Y263614D02*
D03*
X417421Y291437D02*
D03*
Y287500D02*
D03*
X476278Y259743D02*
D03*
Y263680D02*
D03*
X468404Y283365D02*
D03*
Y287302D02*
D03*
X334596Y306987D02*
D03*
Y310924D02*
D03*
X366042Y346357D02*
D03*
Y342420D02*
D03*
X962299Y299331D02*
D03*
Y303268D02*
D03*
X436908Y350294D02*
D03*
Y346357D02*
D03*
X460630Y334646D02*
D03*
Y338583D02*
D03*
X456593Y322735D02*
D03*
Y326672D02*
D03*
X472341Y306987D02*
D03*
Y310924D02*
D03*
X433021Y326622D02*
D03*
Y322685D02*
D03*
X444782Y303050D02*
D03*
Y306987D02*
D03*
X886299Y572331D02*
D03*
Y576268D02*
D03*
X890299Y572331D02*
D03*
Y576268D02*
D03*
X602165Y366043D02*
D03*
Y369980D02*
D03*
X598720Y366142D02*
D03*
Y370079D02*
D03*
X598524Y248031D02*
D03*
Y251969D02*
D03*
X602362Y248031D02*
D03*
Y251969D02*
D03*
X590551Y362205D02*
D03*
Y358268D02*
D03*
X610236Y362205D02*
D03*
Y358268D02*
D03*
X594488Y362205D02*
D03*
Y358268D02*
D03*
X606299Y362205D02*
D03*
Y358268D02*
D03*
X590551Y244193D02*
D03*
Y240256D02*
D03*
X594390Y244193D02*
D03*
Y240256D02*
D03*
X606299Y244094D02*
D03*
Y240157D02*
D03*
X610236Y244193D02*
D03*
Y240256D02*
D03*
X218504Y379921D02*
D03*
Y375984D02*
D03*
X214567Y379921D02*
D03*
Y375984D02*
D03*
X322835Y157480D02*
D03*
Y153543D02*
D03*
X346457Y125984D02*
D03*
Y129921D02*
D03*
X326870D02*
D03*
Y133858D02*
D03*
X322835Y125984D02*
D03*
Y129921D02*
D03*
X346457Y157480D02*
D03*
Y153543D02*
D03*
X326772D02*
D03*
Y149606D02*
D03*
X354231Y374016D02*
D03*
Y370079D02*
D03*
X206693Y383858D02*
D03*
Y387795D02*
D03*
X226378Y383858D02*
D03*
Y387795D02*
D03*
X222441Y383858D02*
D03*
Y387795D02*
D03*
X210630Y383858D02*
D03*
Y387795D02*
D03*
X362005Y373866D02*
D03*
Y369929D02*
D03*
X338681Y133858D02*
D03*
Y137795D02*
D03*
X338583Y125886D02*
D03*
Y129823D02*
D03*
Y153543D02*
D03*
Y149606D02*
D03*
X353299Y188268D02*
D03*
Y184331D02*
D03*
X317299Y188268D02*
D03*
Y184331D02*
D03*
X334299Y95331D02*
D03*
Y99268D02*
D03*
Y188268D02*
D03*
Y184331D02*
D03*
X352299Y95331D02*
D03*
Y99268D02*
D03*
X314955Y95549D02*
D03*
Y99486D02*
D03*
X92299Y50331D02*
D03*
Y54268D02*
D03*
X108299Y50331D02*
D03*
Y54268D02*
D03*
X102299Y554102D02*
D03*
Y550165D02*
D03*
X98299Y554102D02*
D03*
Y550165D02*
D03*
X938976Y846457D02*
D03*
Y850394D02*
D03*
X942913Y846457D02*
D03*
Y850394D02*
D03*
X931102D02*
D03*
Y854331D02*
D03*
X938976Y814961D02*
D03*
Y811024D02*
D03*
X896299Y572331D02*
D03*
Y576268D02*
D03*
X900299Y572331D02*
D03*
Y576268D02*
D03*
X921299Y878031D02*
D03*
Y881968D02*
D03*
X929299Y878231D02*
D03*
Y882168D02*
D03*
X940899Y878231D02*
D03*
Y882168D02*
D03*
X948899Y878231D02*
D03*
Y882168D02*
D03*
X260299Y170268D02*
D03*
Y166331D02*
D03*
X266299Y170268D02*
D03*
Y166331D02*
D03*
X170299Y168268D02*
D03*
Y164331D02*
D03*
X176299Y168268D02*
D03*
Y164331D02*
D03*
X886299Y480331D02*
D03*
Y484268D02*
D03*
X980921Y728268D02*
D03*
Y724331D02*
D03*
X895299Y154331D02*
D03*
Y158268D02*
D03*
X953799Y156331D02*
D03*
Y160268D02*
D03*
X1009299Y156331D02*
D03*
Y160268D02*
D03*
X864299Y394268D02*
D03*
Y390331D02*
D03*
X860299Y394268D02*
D03*
Y390331D02*
D03*
X856299Y394268D02*
D03*
Y390331D02*
D03*
X806496Y326575D02*
D03*
Y330512D02*
D03*
X350199Y530268D02*
D03*
Y526331D02*
D03*
X346799Y530268D02*
D03*
Y526331D02*
D03*
X327299Y529768D02*
D03*
Y525831D02*
D03*
X330799Y529768D02*
D03*
Y525831D02*
D03*
X678892Y462522D02*
D03*
Y458585D02*
D03*
X678907Y434413D02*
D03*
Y430476D02*
D03*
X662799Y225268D02*
D03*
Y221331D02*
D03*
X826299Y480331D02*
D03*
Y484268D02*
D03*
X766299Y480331D02*
D03*
Y484268D02*
D03*
X1159000Y793969D02*
D03*
Y790032D02*
D03*
D44*
X1005047Y552000D02*
D03*
X1010953D02*
D03*
X996953Y548000D02*
D03*
X991047D02*
D03*
X1047047Y230000D02*
D03*
X1052953D02*
D03*
X677625Y287014D02*
D03*
X671720D02*
D03*
X679987Y243313D02*
D03*
X674082D02*
D03*
X695352Y227899D02*
D03*
X689446D02*
D03*
X697441Y239370D02*
D03*
X703346D02*
D03*
D57*
X641268Y371346D02*
D03*
Y377252D02*
D03*
Y373315D02*
D03*
Y375283D02*
D03*
X637331D02*
D03*
Y373315D02*
D03*
Y377252D02*
D03*
Y371346D02*
D03*
X641268Y347346D02*
D03*
Y353252D02*
D03*
Y349315D02*
D03*
Y351283D02*
D03*
X637331D02*
D03*
Y349315D02*
D03*
Y353252D02*
D03*
Y347346D02*
D03*
X565331Y354252D02*
D03*
Y348346D02*
D03*
Y352283D02*
D03*
Y350315D02*
D03*
X569268D02*
D03*
Y352283D02*
D03*
Y348346D02*
D03*
Y354252D02*
D03*
X641268Y253346D02*
D03*
Y259252D02*
D03*
Y255315D02*
D03*
Y257283D02*
D03*
X637331D02*
D03*
Y255315D02*
D03*
Y259252D02*
D03*
Y253346D02*
D03*
X641268Y230346D02*
D03*
Y236252D02*
D03*
Y232315D02*
D03*
Y234283D02*
D03*
X637331D02*
D03*
Y232315D02*
D03*
Y236252D02*
D03*
Y230346D02*
D03*
X565331Y236252D02*
D03*
Y230346D02*
D03*
Y234283D02*
D03*
Y232315D02*
D03*
X569268D02*
D03*
Y234283D02*
D03*
Y230346D02*
D03*
Y236252D02*
D03*
X641268Y357346D02*
D03*
Y363252D02*
D03*
Y359315D02*
D03*
Y361283D02*
D03*
X637331D02*
D03*
Y359315D02*
D03*
Y363252D02*
D03*
Y357346D02*
D03*
X565331Y378252D02*
D03*
Y372346D02*
D03*
Y376283D02*
D03*
Y374315D02*
D03*
X569268D02*
D03*
Y376283D02*
D03*
Y372346D02*
D03*
Y378252D02*
D03*
X641268Y239346D02*
D03*
Y245252D02*
D03*
Y241315D02*
D03*
Y243283D02*
D03*
X637331D02*
D03*
Y241315D02*
D03*
Y245252D02*
D03*
Y239346D02*
D03*
X565331Y260252D02*
D03*
Y254346D02*
D03*
Y258283D02*
D03*
Y256315D02*
D03*
X569268D02*
D03*
Y258283D02*
D03*
Y254346D02*
D03*
Y260252D02*
D03*
X177331Y377252D02*
D03*
Y371346D02*
D03*
Y375283D02*
D03*
Y373315D02*
D03*
X181268D02*
D03*
Y375283D02*
D03*
Y371346D02*
D03*
Y377252D02*
D03*
X177331Y398252D02*
D03*
Y392346D02*
D03*
Y396283D02*
D03*
Y394315D02*
D03*
X181268D02*
D03*
Y396283D02*
D03*
Y392346D02*
D03*
Y398252D02*
D03*
X253268Y392346D02*
D03*
Y398252D02*
D03*
Y394315D02*
D03*
Y396283D02*
D03*
X249331D02*
D03*
Y394315D02*
D03*
Y398252D02*
D03*
Y392346D02*
D03*
X177331Y389252D02*
D03*
Y383346D02*
D03*
Y387283D02*
D03*
Y385315D02*
D03*
X181268D02*
D03*
Y387283D02*
D03*
Y383346D02*
D03*
Y389252D02*
D03*
X253268Y367346D02*
D03*
Y373252D02*
D03*
Y369315D02*
D03*
Y371283D02*
D03*
X249331D02*
D03*
Y369315D02*
D03*
Y373252D02*
D03*
Y367346D02*
D03*
D58*
X1042000Y217953D02*
D03*
Y212047D02*
D03*
X676989Y350662D02*
D03*
Y344756D02*
D03*
X676725Y323141D02*
D03*
Y317235D02*
D03*
X677299Y452352D02*
D03*
Y446446D02*
D03*
D122*
X1183000Y674000D02*
D03*
Y684000D02*
D03*
X920299Y168299D02*
D03*
X940299D02*
D03*
X930299D02*
D03*
X976299D02*
D03*
X996299D02*
D03*
X986299D02*
D03*
X1184299Y275299D02*
D03*
Y265299D02*
D03*
X612299Y156299D02*
D03*
X592299D02*
D03*
X602299D02*
D03*
X864299Y168299D02*
D03*
X884299D02*
D03*
X874299D02*
D03*
D123*
X1126299Y371299D02*
D03*
X1113799D02*
D03*
X1101299D02*
D03*
X1088799D02*
D03*
X1126299Y496299D02*
D03*
X1076299D02*
D03*
Y483799D02*
D03*
Y458799D02*
D03*
Y446299D02*
D03*
Y371299D02*
D03*
Y383799D02*
D03*
Y396299D02*
D03*
Y421299D02*
D03*
Y433799D02*
D03*
X1122299Y102299D02*
D03*
X1132299D02*
D03*
X1142299D02*
D03*
X1152299D02*
D03*
X1092299Y122299D02*
D03*
X1182299Y172299D02*
D03*
Y102299D02*
D03*
X1172299D02*
D03*
X1092299Y132299D02*
D03*
X1112299Y102299D02*
D03*
X1162299D02*
D03*
X1092299Y162299D02*
D03*
X1182299Y242299D02*
D03*
X1172299D02*
D03*
X1162299D02*
D03*
X1152299D02*
D03*
X1142299D02*
D03*
X1092299Y172299D02*
D03*
Y202299D02*
D03*
Y212299D02*
D03*
Y242299D02*
D03*
X1102299D02*
D03*
X1163799Y578299D02*
D03*
X1176299D02*
D03*
X1163799Y640799D02*
D03*
X1151299D02*
D03*
X1113799D02*
D03*
X1101299D02*
D03*
Y578299D02*
D03*
Y590799D02*
D03*
Y603299D02*
D03*
Y615799D02*
D03*
Y628299D02*
D03*
X1043299Y14866D02*
D03*
X1075299D02*
D03*
X1126299Y35535D02*
D03*
X1159799Y718299D02*
D03*
X1172299D02*
D03*
Y730799D02*
D03*
Y768299D02*
D03*
X1159799D02*
D03*
X1122299D02*
D03*
X1097299Y718299D02*
D03*
Y730799D02*
D03*
Y743299D02*
D03*
Y755799D02*
D03*
Y768299D02*
D03*
D124*
X1139079Y919063D02*
D03*
X1148921D02*
D03*
X1139079Y926937D02*
D03*
X1148921D02*
D03*
X1047779Y899299D02*
D03*
X1037780D02*
D03*
X1007780D02*
D03*
X1017780D02*
D03*
X1027779D02*
D03*
X1022779Y909299D02*
D03*
X1012780D02*
D03*
X1002779D02*
D03*
X1032780D02*
D03*
X1042780D02*
D03*
X956979Y899299D02*
D03*
X946980D02*
D03*
X916980D02*
D03*
X926980D02*
D03*
X936979D02*
D03*
X931979Y909299D02*
D03*
X921980D02*
D03*
X911979D02*
D03*
X941980D02*
D03*
X951980D02*
D03*
X1054499Y831299D02*
D03*
Y821299D02*
D03*
X949581Y787528D02*
D03*
X914299Y880299D02*
D03*
X1036362Y97795D02*
D03*
X1056299Y89299D02*
D03*
X79299Y68299D02*
D03*
X1033299Y564099D02*
D03*
X14399Y617599D02*
D03*
X215699Y58099D02*
D03*
X1080740Y216535D02*
D03*
X1083699Y271614D02*
D03*
X827740Y87417D02*
D03*
X618858Y77181D02*
D03*
X636858D02*
D03*
Y87417D02*
D03*
X618458Y87099D02*
D03*
X481740Y87417D02*
D03*
X354799Y524199D02*
D03*
X1022799Y371299D02*
D03*
X353940Y535299D02*
D03*
X527299Y322299D02*
D03*
X643614Y290299D02*
D03*
Y326299D02*
D03*
X603016Y294709D02*
D03*
X512598Y300949D02*
D03*
X533098Y300787D02*
D03*
X914499Y870099D02*
D03*
X978299Y861452D02*
D03*
X492599Y535299D02*
D03*
Y525299D02*
D03*
X1045299Y371799D02*
D03*
X903299Y440799D02*
D03*
Y451799D02*
D03*
X74835Y342299D02*
D03*
X60335D02*
D03*
X74764Y364299D02*
D03*
X60264D02*
D03*
X145835Y233299D02*
D03*
X134835D02*
D03*
Y257299D02*
D03*
X145299D02*
D03*
X145335Y281299D02*
D03*
X134799D02*
D03*
X148799Y337799D02*
D03*
X148996Y318299D02*
D03*
X877335Y92799D02*
D03*
X512799Y100335D02*
D03*
X662999Y134299D02*
D03*
X662802Y154299D02*
D03*
X758299Y451799D02*
D03*
X280299Y309835D02*
D03*
X300299D02*
D03*
Y238764D02*
D03*
X280299D02*
D03*
X535299Y286500D02*
D03*
X436099Y536799D02*
D03*
Y525799D02*
D03*
X466099Y536799D02*
D03*
Y525799D02*
D03*
X883299Y868299D02*
D03*
X1004699Y871399D02*
D03*
X1004299Y882099D02*
D03*
X1011299Y795299D02*
D03*
X1001299D02*
D03*
X1050899Y869299D02*
D03*
Y879299D02*
D03*
X956899Y878499D02*
D03*
Y868499D02*
D03*
X968099Y796499D02*
D03*
X906099Y795299D02*
D03*
X916099D02*
D03*
X748299Y230299D02*
D03*
X772299D02*
D03*
X722299Y452299D02*
D03*
Y428299D02*
D03*
X734299Y427299D02*
D03*
Y445299D02*
D03*
X758299Y428299D02*
D03*
X818299Y452299D02*
D03*
X832299D02*
D03*
X844299Y445299D02*
D03*
Y427299D02*
D03*
X832299Y428299D02*
D03*
X818299D02*
D03*
X812299Y266299D02*
D03*
X790299D02*
D03*
X728299Y242299D02*
D03*
Y266299D02*
D03*
X748299Y263299D02*
D03*
X756299Y268299D02*
D03*
X748299Y245299D02*
D03*
X738299D02*
D03*
X826299Y266299D02*
D03*
X802299Y267299D02*
D03*
X826299Y242299D02*
D03*
X812299D02*
D03*
X802299Y249299D02*
D03*
X756299Y252299D02*
D03*
X776299Y268299D02*
D03*
X88299Y897799D02*
D03*
X1006799Y492299D02*
D03*
X85299Y663799D02*
D03*
X967299Y532299D02*
D03*
X1139299Y283299D02*
D03*
X1146299D02*
D03*
X1084299Y847299D02*
D03*
X1052362Y137795D02*
D03*
X1079921Y136358D02*
D03*
X1072866Y216535D02*
D03*
X1064992D02*
D03*
X1057118D02*
D03*
X1049244D02*
D03*
X1080740Y208661D02*
D03*
X1072866D02*
D03*
X1064992D02*
D03*
X1057118D02*
D03*
X1049244D02*
D03*
X1106299Y336299D02*
D03*
Y344299D02*
D03*
Y352299D02*
D03*
X1075299Y327799D02*
D03*
X1066299Y579299D02*
D03*
Y571299D02*
D03*
X1168299Y688299D02*
D03*
Y672299D02*
D03*
X1082299Y758299D02*
D03*
X1074299D02*
D03*
X1080299Y582299D02*
D03*
X1097299Y672299D02*
D03*
X1174299Y662299D02*
D03*
X1038299Y423299D02*
D03*
X1037299Y415299D02*
D03*
X1036299Y387299D02*
D03*
X1040299Y564299D02*
D03*
X738299Y263299D02*
D03*
X1111299Y325299D02*
D03*
X1142799Y326299D02*
D03*
X632984Y289799D02*
D03*
Y326299D02*
D03*
X622614Y285299D02*
D03*
X525299Y286500D02*
D03*
Y268500D02*
D03*
X535299D02*
D03*
X525299Y250500D02*
D03*
X535299D02*
D03*
X494799Y208299D02*
D03*
Y188299D02*
D03*
X469799Y201299D02*
D03*
Y191299D02*
D03*
X451799Y201299D02*
D03*
Y191299D02*
D03*
X433799Y201299D02*
D03*
Y191299D02*
D03*
X414799Y188299D02*
D03*
X393799Y201299D02*
D03*
Y191299D02*
D03*
X375799Y201299D02*
D03*
Y191299D02*
D03*
X357799Y201299D02*
D03*
Y191299D02*
D03*
X339799Y201299D02*
D03*
Y191299D02*
D03*
X295299Y246799D02*
D03*
X285299D02*
D03*
Y266799D02*
D03*
X295299D02*
D03*
X285299Y286799D02*
D03*
X295299D02*
D03*
X281299Y338799D02*
D03*
X291299D02*
D03*
X281299Y358799D02*
D03*
X291299D02*
D03*
X281299Y378799D02*
D03*
X291299D02*
D03*
X305611Y200109D02*
D03*
X524889Y230179D02*
D03*
X534889D02*
D03*
X411599Y536599D02*
D03*
X527999Y535999D02*
D03*
Y525999D02*
D03*
X510999Y534999D02*
D03*
Y524999D02*
D03*
X393399Y536799D02*
D03*
Y526799D02*
D03*
X385699Y535214D02*
D03*
Y524714D02*
D03*
X740799Y533299D02*
D03*
Y523299D02*
D03*
X775799Y533299D02*
D03*
Y523299D02*
D03*
X824799Y533299D02*
D03*
Y523299D02*
D03*
X844799Y533299D02*
D03*
Y523299D02*
D03*
X1101299Y894799D02*
D03*
X1089299Y898299D02*
D03*
X517299Y322299D02*
D03*
Y344299D02*
D03*
X527299D02*
D03*
X517299Y364299D02*
D03*
X527299D02*
D03*
X212299Y258799D02*
D03*
X243799Y275799D02*
D03*
X224299Y264799D02*
D03*
X790299Y242299D02*
D03*
X776299Y252299D02*
D03*
X1065799Y309799D02*
D03*
X1055299D02*
D03*
X211799Y248299D02*
D03*
X242299D02*
D03*
X766299Y268299D02*
D03*
Y252299D02*
D03*
X305611Y210109D02*
D03*
X411099Y526599D02*
D03*
X508499Y192299D02*
D03*
Y202299D02*
D03*
X297499Y395899D02*
D03*
X277499D02*
D03*
X381699Y484299D02*
D03*
X358699D02*
D03*
X381699Y471699D02*
D03*
X358299D02*
D03*
X444899Y484899D02*
D03*
X444399Y472506D02*
D03*
X468099Y484499D02*
D03*
X468599Y472106D02*
D03*
X512299Y385799D02*
D03*
X532299Y385835D02*
D03*
X390651Y427799D02*
D03*
X397967D02*
D03*
X390681Y447799D02*
D03*
X397717Y447999D02*
D03*
X962699Y313799D02*
D03*
X951699D02*
D03*
X985099Y207899D02*
D03*
X996099D02*
D03*
X414299Y461499D02*
D03*
X394699D02*
D03*
X414799Y208299D02*
D03*
X297740Y93614D02*
D03*
Y82984D02*
D03*
X290158Y93517D02*
D03*
Y83281D02*
D03*
X270858Y83181D02*
D03*
Y93417D02*
D03*
X157263Y350940D02*
D03*
X167499D02*
D03*
X45735Y335414D02*
D03*
X34935D02*
D03*
X1040899Y492299D02*
D03*
X1064299Y654099D02*
D03*
X1046299Y703546D02*
D03*
X1188299Y749614D02*
D03*
X1115299Y817699D02*
D03*
X1140499Y793499D02*
D03*
X1060984Y628699D02*
D03*
X1044299Y387299D02*
D03*
X1065699Y359099D02*
D03*
X1015354Y492126D02*
D03*
X1011417Y520866D02*
D03*
D125*
X1167701Y937606D02*
D03*
X1120299D02*
D03*
D126*
X307480Y356339D02*
D03*
X507480Y278386D02*
D03*
D127*
X1076488Y547299D02*
D03*
X1086488Y537299D02*
D03*
Y547299D02*
D03*
X1096488Y537299D02*
D03*
Y547299D02*
D03*
X1106488Y537299D02*
D03*
Y547299D02*
D03*
X1116488Y537299D02*
D03*
Y547299D02*
D03*
X1076488Y537299D02*
D03*
D128*
X921299Y549899D02*
D03*
Y559899D02*
D03*
Y569899D02*
D03*
Y539899D02*
D03*
Y529899D02*
D03*
D129*
Y504899D02*
D03*
D130*
X100299Y544299D02*
D03*
Y536425D02*
D03*
Y528551D02*
D03*
Y520677D02*
D03*
Y512803D02*
D03*
Y504929D02*
D03*
Y497055D02*
D03*
Y489181D02*
D03*
Y481307D02*
D03*
Y473433D02*
D03*
Y465559D02*
D03*
Y457685D02*
D03*
Y449811D02*
D03*
Y441937D02*
D03*
Y434063D02*
D03*
Y426189D02*
D03*
Y418315D02*
D03*
Y410441D02*
D03*
Y402567D02*
D03*
Y394693D02*
D03*
Y386819D02*
D03*
Y378945D02*
D03*
Y371071D02*
D03*
Y363197D02*
D03*
Y63984D02*
D03*
Y71858D02*
D03*
Y79732D02*
D03*
Y87606D02*
D03*
Y95480D02*
D03*
Y103354D02*
D03*
Y111228D02*
D03*
Y119102D02*
D03*
Y126976D02*
D03*
Y134850D02*
D03*
Y142724D02*
D03*
Y150598D02*
D03*
Y158472D02*
D03*
Y166347D02*
D03*
Y174221D02*
D03*
Y182095D02*
D03*
Y189969D02*
D03*
Y197843D02*
D03*
Y205716D02*
D03*
Y213591D02*
D03*
Y221465D02*
D03*
Y229339D02*
D03*
Y237213D02*
D03*
Y245087D02*
D03*
Y252961D02*
D03*
Y260835D02*
D03*
Y268709D02*
D03*
Y276583D02*
D03*
Y284457D02*
D03*
Y292331D02*
D03*
Y300205D02*
D03*
Y308079D02*
D03*
Y315953D02*
D03*
Y323827D02*
D03*
Y331701D02*
D03*
Y339575D02*
D03*
X92819Y359260D02*
D03*
Y367134D02*
D03*
Y375008D02*
D03*
Y382882D02*
D03*
Y390756D02*
D03*
Y398630D02*
D03*
Y406504D02*
D03*
Y414378D02*
D03*
Y422252D02*
D03*
Y430126D02*
D03*
Y438000D02*
D03*
Y445874D02*
D03*
Y453748D02*
D03*
Y461622D02*
D03*
Y469496D02*
D03*
Y477370D02*
D03*
Y485244D02*
D03*
Y493118D02*
D03*
Y500992D02*
D03*
Y508866D02*
D03*
Y516740D02*
D03*
Y524614D02*
D03*
Y532488D02*
D03*
Y540362D02*
D03*
Y60047D02*
D03*
Y67921D02*
D03*
Y75795D02*
D03*
Y83669D02*
D03*
Y91543D02*
D03*
Y99417D02*
D03*
Y107291D02*
D03*
Y115165D02*
D03*
Y123039D02*
D03*
Y130913D02*
D03*
Y138787D02*
D03*
Y146661D02*
D03*
Y154535D02*
D03*
Y162409D02*
D03*
Y170283D02*
D03*
Y178157D02*
D03*
Y186031D02*
D03*
Y193905D02*
D03*
Y201780D02*
D03*
Y209653D02*
D03*
Y217528D02*
D03*
Y225402D02*
D03*
Y233276D02*
D03*
Y241150D02*
D03*
Y249024D02*
D03*
Y256898D02*
D03*
Y264772D02*
D03*
Y272646D02*
D03*
Y280520D02*
D03*
Y288394D02*
D03*
Y296268D02*
D03*
Y304142D02*
D03*
Y312016D02*
D03*
Y319890D02*
D03*
Y327764D02*
D03*
Y335638D02*
D03*
X107780D02*
D03*
Y327764D02*
D03*
Y319890D02*
D03*
Y312016D02*
D03*
Y304142D02*
D03*
Y296268D02*
D03*
Y288394D02*
D03*
Y280520D02*
D03*
Y272646D02*
D03*
Y264772D02*
D03*
Y256898D02*
D03*
Y249024D02*
D03*
Y241150D02*
D03*
Y233276D02*
D03*
Y225402D02*
D03*
Y217528D02*
D03*
Y209653D02*
D03*
Y201780D02*
D03*
Y193905D02*
D03*
Y186031D02*
D03*
Y178157D02*
D03*
Y170283D02*
D03*
Y162409D02*
D03*
Y154535D02*
D03*
Y146661D02*
D03*
Y138787D02*
D03*
Y130913D02*
D03*
Y123039D02*
D03*
Y115165D02*
D03*
Y107291D02*
D03*
Y99417D02*
D03*
Y91543D02*
D03*
Y83669D02*
D03*
Y75795D02*
D03*
Y67921D02*
D03*
Y60047D02*
D03*
Y540362D02*
D03*
Y532488D02*
D03*
Y524614D02*
D03*
Y516740D02*
D03*
Y508866D02*
D03*
Y500992D02*
D03*
Y493118D02*
D03*
Y485244D02*
D03*
Y477370D02*
D03*
Y469496D02*
D03*
Y461622D02*
D03*
Y453748D02*
D03*
Y445874D02*
D03*
Y438000D02*
D03*
Y430126D02*
D03*
Y422252D02*
D03*
Y414378D02*
D03*
Y406504D02*
D03*
Y398630D02*
D03*
Y390756D02*
D03*
Y382882D02*
D03*
Y375008D02*
D03*
Y367134D02*
D03*
Y359260D02*
D03*
X115260Y339575D02*
D03*
Y331701D02*
D03*
Y323827D02*
D03*
Y315953D02*
D03*
Y308079D02*
D03*
Y300205D02*
D03*
Y292331D02*
D03*
Y284457D02*
D03*
Y276583D02*
D03*
Y268709D02*
D03*
Y260835D02*
D03*
Y252961D02*
D03*
Y245087D02*
D03*
Y237213D02*
D03*
Y229339D02*
D03*
Y221465D02*
D03*
Y213591D02*
D03*
Y205716D02*
D03*
Y197843D02*
D03*
Y189969D02*
D03*
Y182095D02*
D03*
Y174221D02*
D03*
Y166347D02*
D03*
Y158472D02*
D03*
Y150598D02*
D03*
Y142724D02*
D03*
Y134850D02*
D03*
Y126976D02*
D03*
Y119102D02*
D03*
Y111228D02*
D03*
Y103354D02*
D03*
Y95480D02*
D03*
Y87606D02*
D03*
Y79732D02*
D03*
Y71858D02*
D03*
Y63984D02*
D03*
Y363197D02*
D03*
Y371071D02*
D03*
Y378945D02*
D03*
Y386819D02*
D03*
Y394693D02*
D03*
Y402567D02*
D03*
Y410441D02*
D03*
Y418315D02*
D03*
Y426189D02*
D03*
Y434063D02*
D03*
Y441937D02*
D03*
Y449811D02*
D03*
Y457685D02*
D03*
Y465559D02*
D03*
Y473433D02*
D03*
Y481307D02*
D03*
Y489181D02*
D03*
Y497055D02*
D03*
Y504929D02*
D03*
Y512803D02*
D03*
Y520677D02*
D03*
Y528551D02*
D03*
Y536425D02*
D03*
Y544299D02*
D03*
D131*
X104039Y349417D02*
D03*
D132*
Y30520D02*
D03*
Y573984D02*
D03*
D133*
X206299Y150299D02*
D03*
X180299Y100299D02*
D03*
X232299D02*
D03*
X1055909Y922291D02*
D03*
X994689D02*
D03*
X965109D02*
D03*
X903889D02*
D03*
D134*
X196299Y160299D02*
D03*
Y140299D02*
D03*
X216299D02*
D03*
Y160299D02*
D03*
X170299Y110299D02*
D03*
Y90299D02*
D03*
X190299D02*
D03*
Y110299D02*
D03*
X222299D02*
D03*
Y90299D02*
D03*
X242299D02*
D03*
Y110299D02*
D03*
D135*
X1044299Y85732D02*
D03*
X1076299D02*
D03*
D136*
X1126299Y65063D02*
D03*
D137*
X289000Y50000D02*
D03*
X296992D02*
D03*
X309000D02*
D03*
X316992D02*
D03*
X329000D02*
D03*
X336992D02*
D03*
X349000D02*
D03*
X356992D02*
D03*
X369000D02*
D03*
X376992D02*
D03*
X389000D02*
D03*
X396992D02*
D03*
X409000D02*
D03*
X416992D02*
D03*
X429000D02*
D03*
X436992D02*
D03*
X449000D02*
D03*
X456992D02*
D03*
X469000D02*
D03*
X476992D02*
D03*
X282996Y43110D02*
D03*
X292996D02*
D03*
X302996D02*
D03*
X312996D02*
D03*
X322996D02*
D03*
X332996D02*
D03*
X342996D02*
D03*
X352996D02*
D03*
X362996D02*
D03*
X372996D02*
D03*
X382996D02*
D03*
X392996D02*
D03*
X402996D02*
D03*
X412996D02*
D03*
X422996D02*
D03*
X432996D02*
D03*
X442996D02*
D03*
X452996D02*
D03*
X462996D02*
D03*
X472996D02*
D03*
X279020Y36220D02*
D03*
X287012D02*
D03*
X299020D02*
D03*
X307012D02*
D03*
X319020D02*
D03*
X327012D02*
D03*
X339020D02*
D03*
X347012D02*
D03*
X359020D02*
D03*
X367012D02*
D03*
X379020D02*
D03*
X387012D02*
D03*
X399020D02*
D03*
X407012D02*
D03*
X419020D02*
D03*
X427012D02*
D03*
X439020D02*
D03*
X447012D02*
D03*
X459020D02*
D03*
X467012D02*
D03*
X289000Y26378D02*
D03*
X296992D02*
D03*
X309000D02*
D03*
X316992D02*
D03*
X329000D02*
D03*
X336992D02*
D03*
X349000D02*
D03*
X356992D02*
D03*
X369000D02*
D03*
X376992D02*
D03*
X389000D02*
D03*
X396992D02*
D03*
X409000D02*
D03*
X416992D02*
D03*
X429000D02*
D03*
X436992D02*
D03*
X449000D02*
D03*
X456992D02*
D03*
X469000D02*
D03*
X476992D02*
D03*
X282996Y19488D02*
D03*
X292996D02*
D03*
X302996D02*
D03*
X312996D02*
D03*
X322996D02*
D03*
X332996D02*
D03*
X342996D02*
D03*
X352996D02*
D03*
X362996D02*
D03*
X372996D02*
D03*
X382996D02*
D03*
X392996D02*
D03*
X402996D02*
D03*
X412996D02*
D03*
X422996D02*
D03*
X432996D02*
D03*
X442996D02*
D03*
X452996D02*
D03*
X462996D02*
D03*
X472996D02*
D03*
X279020Y12598D02*
D03*
X287012D02*
D03*
X299020D02*
D03*
X307012D02*
D03*
X319020D02*
D03*
X327012D02*
D03*
X339020D02*
D03*
X347012D02*
D03*
X359020D02*
D03*
X367012D02*
D03*
X379020D02*
D03*
X387012D02*
D03*
X399020D02*
D03*
X407012D02*
D03*
X419020D02*
D03*
X427012D02*
D03*
X439020D02*
D03*
X447012D02*
D03*
X459020D02*
D03*
X467012D02*
D03*
X238626Y48858D02*
D03*
X523291D02*
D03*
X511087D02*
D03*
X498882D02*
D03*
X250831D02*
D03*
X263035D02*
D03*
Y40984D02*
D03*
X250831D02*
D03*
X498882D02*
D03*
X511087D02*
D03*
X523291D02*
D03*
X238626D02*
D03*
X263035Y33110D02*
D03*
X250831D02*
D03*
X498882D02*
D03*
X511087D02*
D03*
X523291D02*
D03*
X238626D02*
D03*
X263035Y25236D02*
D03*
X250831D02*
D03*
X498882D02*
D03*
X511087D02*
D03*
X523291D02*
D03*
X238626D02*
D03*
X641500Y50000D02*
D03*
X649492D02*
D03*
X661500D02*
D03*
X669492D02*
D03*
X681500D02*
D03*
X689492D02*
D03*
X701500D02*
D03*
X709492D02*
D03*
X721500D02*
D03*
X729492D02*
D03*
X741500D02*
D03*
X749492D02*
D03*
X761500D02*
D03*
X769492D02*
D03*
X781500D02*
D03*
X789492D02*
D03*
X801500D02*
D03*
X809492D02*
D03*
X821500D02*
D03*
X829492D02*
D03*
X635496Y43110D02*
D03*
X645496D02*
D03*
X655496D02*
D03*
X665496D02*
D03*
X675496D02*
D03*
X685496D02*
D03*
X695496D02*
D03*
X705496D02*
D03*
X715496D02*
D03*
X725496D02*
D03*
X735496D02*
D03*
X745496D02*
D03*
X755496D02*
D03*
X765496D02*
D03*
X775496D02*
D03*
X785496D02*
D03*
X795496D02*
D03*
X805496D02*
D03*
X815496D02*
D03*
X825496D02*
D03*
X631520Y36220D02*
D03*
X639512D02*
D03*
X651520D02*
D03*
X659512D02*
D03*
X671520D02*
D03*
X679512D02*
D03*
X691520D02*
D03*
X699512D02*
D03*
X711520D02*
D03*
X719512D02*
D03*
X731520D02*
D03*
X739512D02*
D03*
X751520D02*
D03*
X759512D02*
D03*
X771520D02*
D03*
X779512D02*
D03*
X791520D02*
D03*
X799512D02*
D03*
X811520D02*
D03*
X819512D02*
D03*
X641500Y26378D02*
D03*
X649492D02*
D03*
X661500D02*
D03*
X669492D02*
D03*
X681500D02*
D03*
X689492D02*
D03*
X701500D02*
D03*
X709492D02*
D03*
X721500D02*
D03*
X729492D02*
D03*
X741500D02*
D03*
X749492D02*
D03*
X761500D02*
D03*
X769492D02*
D03*
X781500D02*
D03*
X789492D02*
D03*
X801500D02*
D03*
X809492D02*
D03*
X821500D02*
D03*
X829492D02*
D03*
X635496Y19488D02*
D03*
X645496D02*
D03*
X655496D02*
D03*
X665496D02*
D03*
X675496D02*
D03*
X685496D02*
D03*
X695496D02*
D03*
X705496D02*
D03*
X715496D02*
D03*
X725496D02*
D03*
X735496D02*
D03*
X745496D02*
D03*
X755496D02*
D03*
X765496D02*
D03*
X775496D02*
D03*
X785496D02*
D03*
X795496D02*
D03*
X805496D02*
D03*
X815496D02*
D03*
X825496D02*
D03*
X631520Y12598D02*
D03*
X639512D02*
D03*
X651520D02*
D03*
X659512D02*
D03*
X671520D02*
D03*
X679512D02*
D03*
X691520D02*
D03*
X699512D02*
D03*
X711520D02*
D03*
X719512D02*
D03*
X731520D02*
D03*
X739512D02*
D03*
X751520D02*
D03*
X759512D02*
D03*
X771520D02*
D03*
X779512D02*
D03*
X791520D02*
D03*
X799512D02*
D03*
X811520D02*
D03*
X819512D02*
D03*
X591126Y48858D02*
D03*
X875791D02*
D03*
X863587D02*
D03*
X851382D02*
D03*
X603331D02*
D03*
X615535D02*
D03*
Y40984D02*
D03*
X603331D02*
D03*
X851382D02*
D03*
X863587D02*
D03*
X875791D02*
D03*
X591126D02*
D03*
X615535Y33110D02*
D03*
X603331D02*
D03*
X851382D02*
D03*
X863587D02*
D03*
X875791D02*
D03*
X591126D02*
D03*
X615535Y25236D02*
D03*
X603331D02*
D03*
X851382D02*
D03*
X863587D02*
D03*
X875791D02*
D03*
X591126D02*
D03*
D138*
X1089299Y954740D02*
D03*
D139*
X1078669Y932299D02*
D03*
X1099929D02*
D03*
D140*
X1081031Y924740D02*
D03*
X1086543D02*
D03*
X1092055D02*
D03*
X1097567D02*
D03*
D142*
X1002799Y934299D02*
D03*
X1047799D02*
D03*
X911999D02*
D03*
X956999D02*
D03*
D143*
X999197Y950284D02*
D03*
X1009197D02*
D03*
X1041402D02*
D03*
X1051402D02*
D03*
X908397D02*
D03*
X918397D02*
D03*
X950602D02*
D03*
X960602D02*
D03*
D144*
X1179126Y545244D02*
D03*
Y528709D02*
D03*
Y512173D02*
D03*
Y495638D02*
D03*
Y479102D02*
D03*
Y462567D02*
D03*
Y446032D02*
D03*
Y429496D02*
D03*
Y412961D02*
D03*
Y396425D02*
D03*
Y379890D02*
D03*
Y363354D02*
D03*
X1157472D02*
D03*
Y379890D02*
D03*
Y396425D02*
D03*
Y412961D02*
D03*
Y429496D02*
D03*
Y446032D02*
D03*
Y462567D02*
D03*
Y479102D02*
D03*
Y495638D02*
D03*
Y512173D02*
D03*
Y528709D02*
D03*
Y545244D02*
D03*
D145*
X1177315Y344850D02*
D03*
D147*
X195600Y31100D02*
D03*
X211600Y31000D02*
D03*
X209200Y12400D02*
D03*
X198600Y15900D02*
D03*
X211700Y14700D02*
D03*
X813500Y117400D02*
D03*
X258100Y16900D02*
D03*
X753900Y660800D02*
D03*
X752800Y658100D02*
D03*
X752100Y650900D02*
D03*
X893700Y465900D02*
D03*
X882500Y449900D02*
D03*
X978400Y598300D02*
D03*
X986500Y548000D02*
D03*
X974700Y572100D02*
D03*
X975500Y574900D02*
D03*
X993700Y574848D02*
D03*
X989200Y573000D02*
D03*
X985800Y573300D02*
D03*
X997500Y569700D02*
D03*
X1002600Y566900D02*
D03*
X969500Y567000D02*
D03*
X967700Y563500D02*
D03*
X965200Y559500D02*
D03*
X965400Y555600D02*
D03*
X1000800Y559900D02*
D03*
X1001100Y556800D02*
D03*
X1000900Y547600D02*
D03*
X1026000Y215600D02*
D03*
X1032200Y215800D02*
D03*
X1043400Y234200D02*
D03*
X1043000Y237800D02*
D03*
X1040300Y242100D02*
D03*
X1036500Y246600D02*
D03*
X1034000Y249100D02*
D03*
X1030200Y250100D02*
D03*
X1028200Y247600D02*
D03*
X1032799Y256299D02*
D03*
X1027400Y254400D02*
D03*
X1022299Y253299D02*
D03*
X723600Y134400D02*
D03*
X205300Y51600D02*
D03*
X192700Y51100D02*
D03*
X898500Y815700D02*
D03*
X1158740Y897140D02*
D03*
X1151400Y897500D02*
D03*
X712900Y517200D02*
D03*
X276600Y51100D02*
D03*
X295700Y373700D02*
D03*
X890945Y482677D02*
D03*
X829920Y484251D02*
D03*
X771260Y484252D02*
D03*
X1122835Y846850D02*
D03*
X870866Y100000D02*
D03*
X861737Y121559D02*
D03*
X744095Y382283D02*
D03*
X1022700Y590900D02*
D03*
X83100Y463000D02*
D03*
X71963D02*
D03*
X71500Y387000D02*
D03*
X82800Y433000D02*
D03*
X83100Y443000D02*
D03*
Y453000D02*
D03*
X82800Y473000D02*
D03*
Y483000D02*
D03*
Y493000D02*
D03*
Y503000D02*
D03*
X71900Y433000D02*
D03*
X72200Y443000D02*
D03*
Y453000D02*
D03*
X71900Y473000D02*
D03*
Y483000D02*
D03*
Y493000D02*
D03*
Y503000D02*
D03*
X40800Y396400D02*
D03*
X36000Y385200D02*
D03*
X14500Y207800D02*
D03*
X55101Y229499D02*
D03*
Y239499D02*
D03*
X55100Y249500D02*
D03*
Y259500D02*
D03*
X65100Y144000D02*
D03*
X69100Y159500D02*
D03*
X609968Y432409D02*
D03*
X1077500Y120700D02*
D03*
X1025539Y520866D02*
D03*
X1026359Y524409D02*
D03*
X1157480Y785827D02*
D03*
X1191732Y783858D02*
D03*
X1192126Y807874D02*
D03*
X1192913Y796457D02*
D03*
X1192126Y801968D02*
D03*
X859300Y191500D02*
D03*
X858200Y205700D02*
D03*
X880200Y198000D02*
D03*
X879300Y193200D02*
D03*
X1164000Y846800D02*
D03*
X1083200Y676700D02*
D03*
D148*
X1173474Y257441D02*
D03*
Y260000D02*
D03*
Y262559D02*
D03*
X1158526Y257441D02*
D03*
Y260000D02*
D03*
Y262559D02*
D03*
X1173474Y270441D02*
D03*
Y273000D02*
D03*
Y275559D02*
D03*
Y283441D02*
D03*
Y286000D02*
D03*
Y288559D02*
D03*
X1158526Y270441D02*
D03*
Y273000D02*
D03*
Y275559D02*
D03*
Y283441D02*
D03*
Y288559D02*
D03*
X903432Y532399D02*
D03*
X1151031Y825051D02*
D03*
X1154969Y830949D02*
D03*
X879809Y677260D02*
D03*
Y681000D02*
D03*
Y684740D02*
D03*
Y694260D02*
D03*
Y698000D02*
D03*
Y701740D02*
D03*
Y710260D02*
D03*
Y714000D02*
D03*
Y717740D02*
D03*
X896190D02*
D03*
Y710260D02*
D03*
Y701740D02*
D03*
Y694260D02*
D03*
Y684740D02*
D03*
Y677260D02*
D03*
X787099Y438362D02*
D03*
X777099D02*
D03*
X1004400Y469100D02*
D03*
Y471659D02*
D03*
X952128Y495359D02*
D03*
Y492800D02*
D03*
X989400Y469100D02*
D03*
Y466541D02*
D03*
X937128Y495359D02*
D03*
Y492800D02*
D03*
Y490241D02*
D03*
X989400Y471659D02*
D03*
X1005400Y538600D02*
D03*
X1004299Y462499D02*
D03*
X984331Y535946D02*
D03*
X1010953Y547400D02*
D03*
X1016014Y547616D02*
D03*
X1020200Y568200D02*
D03*
X1013390Y242890D02*
D03*
X1016441Y246498D02*
D03*
X1018409Y250400D02*
D03*
X1040498Y232283D02*
D03*
X1010100Y238189D02*
D03*
X1007400Y237737D02*
D03*
X1010100Y234252D02*
D03*
Y230315D02*
D03*
X1007400Y233800D02*
D03*
X1052953Y225765D02*
D03*
X1037765Y212047D02*
D03*
X1042253Y230315D02*
D03*
Y222441D02*
D03*
X1059315Y239543D02*
D03*
X1048685D02*
D03*
X55600Y890331D02*
D03*
X767000Y168200D02*
D03*
X1101277Y803131D02*
D03*
Y807069D02*
D03*
X958899Y756099D02*
D03*
X985039Y874825D02*
D03*
X1148821Y902331D02*
D03*
X1179000Y929853D02*
D03*
X1109300Y906953D02*
D03*
X1116000Y906038D02*
D03*
X253900Y202100D02*
D03*
X250000Y202400D02*
D03*
X931118Y115282D02*
D03*
X980921Y721672D02*
D03*
X20636Y423000D02*
D03*
Y433000D02*
D03*
Y443000D02*
D03*
Y453000D02*
D03*
Y463000D02*
D03*
Y473000D02*
D03*
Y483000D02*
D03*
Y493000D02*
D03*
X21141Y503000D02*
D03*
X20636Y513000D02*
D03*
X18499Y376099D02*
D03*
X24299Y375099D02*
D03*
X75937Y264000D02*
D03*
Y254000D02*
D03*
X28507Y264000D02*
D03*
Y254000D02*
D03*
Y244000D02*
D03*
Y234000D02*
D03*
Y224000D02*
D03*
X27503Y201000D02*
D03*
X76299Y143892D02*
D03*
Y155000D02*
D03*
X83500Y159200D02*
D03*
X65095Y141000D02*
D03*
X27503Y191000D02*
D03*
Y181000D02*
D03*
Y171000D02*
D03*
Y161000D02*
D03*
Y151000D02*
D03*
X27599Y141147D02*
D03*
X216699Y428799D02*
D03*
Y424799D02*
D03*
X239800Y357800D02*
D03*
X354299Y218799D02*
D03*
X545600Y375200D02*
D03*
X366189Y227793D02*
D03*
X383000Y169500D02*
D03*
X348800Y517200D02*
D03*
X348000Y521000D02*
D03*
X206800Y874969D02*
D03*
X671000Y221600D02*
D03*
X430200Y522400D02*
D03*
X408400Y521400D02*
D03*
X912400Y63000D02*
D03*
X1190800Y869600D02*
D03*
X274200Y149000D02*
D03*
X273400Y152000D02*
D03*
X183600Y148800D02*
D03*
X181400Y153400D02*
D03*
X900000Y837000D02*
D03*
X965600Y57600D02*
D03*
X961600D02*
D03*
X874500Y607905D02*
D03*
X878500Y615842D02*
D03*
X569500Y607905D02*
D03*
X573500Y615842D02*
D03*
X506500Y607905D02*
D03*
X510500Y615842D02*
D03*
X201000Y607905D02*
D03*
X205000Y615842D02*
D03*
X203000Y867031D02*
D03*
X508000Y867531D02*
D03*
X512000Y875469D02*
D03*
X570000Y868032D02*
D03*
X574000Y875968D02*
D03*
X880000Y873969D02*
D03*
X876000Y866031D02*
D03*
X900000Y46400D02*
D03*
X1025791Y98200D02*
D03*
X964296Y116096D02*
D03*
X902364Y76366D02*
D03*
X997949Y61644D02*
D03*
X988106D02*
D03*
X978264D02*
D03*
X946000Y61600D02*
D03*
X933000Y61200D02*
D03*
X927000Y61800D02*
D03*
X920968Y15303D02*
D03*
X1017358Y26950D02*
D03*
X1014668Y15303D02*
D03*
X938894Y54779D02*
D03*
X968421D02*
D03*
X494882Y551181D02*
D03*
X1044099Y321799D02*
D03*
X708899Y275099D02*
D03*
X952599Y251699D02*
D03*
X984499Y455399D02*
D03*
X981731Y318278D02*
D03*
X985746Y320246D02*
D03*
X981731Y322215D02*
D03*
X985231Y324031D02*
D03*
X981731Y327278D02*
D03*
X985931Y329246D02*
D03*
X981731Y331215D02*
D03*
X985746Y333183D02*
D03*
X981731Y336278D02*
D03*
X985746Y338246D02*
D03*
X981731Y340215D02*
D03*
X985746Y342183D02*
D03*
X981731Y345278D02*
D03*
X985746Y347246D02*
D03*
X981731Y349215D02*
D03*
X985746Y351183D02*
D03*
X981731Y354278D02*
D03*
X985746Y356246D02*
D03*
Y360183D02*
D03*
X981731Y358215D02*
D03*
Y363278D02*
D03*
X985746Y365246D02*
D03*
X981731Y367215D02*
D03*
X1163599Y811299D02*
D03*
X25299Y107299D02*
D03*
X134787Y860299D02*
D03*
X54699D02*
D03*
X27503Y72299D02*
D03*
X134856Y906849D02*
D03*
X117742Y903109D02*
D03*
Y910589D02*
D03*
X859268Y169299D02*
D03*
X800768Y192768D02*
D03*
X913096Y355502D02*
D03*
X933499Y401699D02*
D03*
X949299Y407099D02*
D03*
X946299Y400099D02*
D03*
X923499Y399899D02*
D03*
X911499Y388099D02*
D03*
X861899Y327299D02*
D03*
X911499Y369899D02*
D03*
X879899Y333099D02*
D03*
X886699Y340099D02*
D03*
X894099Y344099D02*
D03*
X901499Y348899D02*
D03*
X879499Y361499D02*
D03*
X1046099Y288099D02*
D03*
Y290899D02*
D03*
X1059831Y287831D02*
D03*
X1065872Y291768D02*
D03*
X1048661Y292138D02*
D03*
X1075938D02*
D03*
X955299Y281899D02*
D03*
X955099Y274299D02*
D03*
X954699Y296699D02*
D03*
X995840Y221409D02*
D03*
Y225409D02*
D03*
Y229409D02*
D03*
Y233409D02*
D03*
X1011099Y258299D02*
D03*
X1021499D02*
D03*
X1027512Y209156D02*
D03*
X1042469Y179933D02*
D03*
X1160699Y82499D02*
D03*
X1086499Y89299D02*
D03*
X1044039Y125968D02*
D03*
X1021931Y116499D02*
D03*
Y122918D02*
D03*
X863131Y240299D02*
D03*
X873468D02*
D03*
X863131Y220299D02*
D03*
X873468D02*
D03*
X843699Y216899D02*
D03*
X837699D02*
D03*
X1019799Y135131D02*
D03*
X1018299Y172299D02*
D03*
X1013099Y145299D02*
D03*
X904299Y170299D02*
D03*
X899099Y143299D02*
D03*
X902239Y142653D02*
D03*
X960239Y144653D02*
D03*
X957099Y145299D02*
D03*
X962299Y172299D02*
D03*
X906303Y161499D02*
D03*
X965189Y163699D02*
D03*
X1020303Y162299D02*
D03*
X904299Y155699D02*
D03*
X956331Y156331D02*
D03*
X892099Y151899D02*
D03*
X868099Y164499D02*
D03*
X948699Y151099D02*
D03*
X924299Y163899D02*
D03*
X1007409Y152099D02*
D03*
X981899Y164099D02*
D03*
X1023132Y186039D02*
D03*
X999844Y193299D02*
D03*
X967132Y184039D02*
D03*
X943344Y191799D02*
D03*
X911132Y184039D02*
D03*
X887344Y191299D02*
D03*
X1012331Y156331D02*
D03*
Y160268D02*
D03*
X956331D02*
D03*
X898331Y154331D02*
D03*
Y158268D02*
D03*
X889299Y149899D02*
D03*
X897773Y78559D02*
D03*
Y82299D02*
D03*
Y86039D02*
D03*
X878299Y85411D02*
D03*
X883445Y105825D02*
D03*
Y114487D02*
D03*
X879705Y112112D02*
D03*
X887185D02*
D03*
X879705Y120773D02*
D03*
X887185D02*
D03*
X901671Y110346D02*
D03*
Y116252D02*
D03*
X798073Y127346D02*
D03*
Y133252D02*
D03*
X817313Y110394D02*
D03*
Y122205D02*
D03*
X857313Y110394D02*
D03*
X808100Y90957D02*
D03*
X790987Y87217D02*
D03*
Y94697D02*
D03*
X783299Y144299D02*
D03*
X762299Y143499D02*
D03*
X760499Y194899D02*
D03*
X794099Y160099D02*
D03*
X733899Y148099D02*
D03*
Y150899D02*
D03*
X754331Y154699D02*
D03*
X757899Y214699D02*
D03*
X685899Y482099D02*
D03*
X495668Y157739D02*
D03*
X494799Y160079D02*
D03*
X555502Y178902D02*
D03*
X553248Y177248D02*
D03*
X563799Y178859D02*
D03*
Y176519D02*
D03*
X307699Y237099D02*
D03*
X312499Y238099D02*
D03*
X183399Y333199D02*
D03*
Y339099D02*
D03*
X189199Y333399D02*
D03*
Y339099D02*
D03*
X210999Y333199D02*
D03*
Y339199D02*
D03*
X212499Y319831D02*
D03*
X242199Y317469D02*
D03*
Y315129D02*
D03*
X222931Y339299D02*
D03*
X233668D02*
D03*
X312902Y257720D02*
D03*
Y253783D02*
D03*
Y312838D02*
D03*
X307909Y315646D02*
D03*
X312902Y304964D02*
D03*
Y301027D02*
D03*
Y297090D02*
D03*
Y277405D02*
D03*
Y265594D02*
D03*
Y261657D02*
D03*
Y245909D02*
D03*
Y241972D02*
D03*
X307810Y319446D02*
D03*
X312902Y340398D02*
D03*
Y336461D02*
D03*
X313093Y328614D02*
D03*
X312902Y324650D02*
D03*
X318808Y314807D02*
D03*
Y318744D02*
D03*
Y310870D02*
D03*
Y306933D02*
D03*
Y299059D02*
D03*
Y295122D02*
D03*
Y291185D02*
D03*
Y287248D02*
D03*
Y279374D02*
D03*
Y271500D02*
D03*
Y267563D02*
D03*
Y259689D02*
D03*
Y255752D02*
D03*
Y251815D02*
D03*
Y247878D02*
D03*
X417233Y228193D02*
D03*
X409359D02*
D03*
X403453Y222287D02*
D03*
X399516D02*
D03*
X395579D02*
D03*
X387705D02*
D03*
X383768D02*
D03*
X379831D02*
D03*
X375894D02*
D03*
X368020D02*
D03*
X360146D02*
D03*
X405422Y228193D02*
D03*
X397548D02*
D03*
X393611D02*
D03*
X389674D02*
D03*
X385737D02*
D03*
X377863D02*
D03*
X373926D02*
D03*
X369989D02*
D03*
X358178D02*
D03*
X346367D02*
D03*
X350304Y228946D02*
D03*
X346309Y225046D02*
D03*
X358309Y225446D02*
D03*
X344398Y222287D02*
D03*
X340461D02*
D03*
X336524D02*
D03*
X338493Y228193D02*
D03*
X334556D02*
D03*
X330619D02*
D03*
X318808Y338429D02*
D03*
Y334492D02*
D03*
Y330555D02*
D03*
Y326618D02*
D03*
X495973Y348272D02*
D03*
X501879Y346303D02*
D03*
X495899Y340472D02*
D03*
Y336535D02*
D03*
Y332598D02*
D03*
Y328661D02*
D03*
X501879Y342366D02*
D03*
Y338429D02*
D03*
Y334492D02*
D03*
Y326618D02*
D03*
Y322681D02*
D03*
Y318744D02*
D03*
Y314807D02*
D03*
Y308902D02*
D03*
Y304965D02*
D03*
X495973Y299059D02*
D03*
X501879Y297090D02*
D03*
X495973Y295122D02*
D03*
Y302996D02*
D03*
Y312445D02*
D03*
Y279374D02*
D03*
Y275437D02*
D03*
Y267563D02*
D03*
Y263626D02*
D03*
Y259689D02*
D03*
Y255752D02*
D03*
X501879Y253783D02*
D03*
X501926Y249877D02*
D03*
X495973Y247878D02*
D03*
Y243941D02*
D03*
Y240004D02*
D03*
X492036Y236067D02*
D03*
X501926Y238066D02*
D03*
X478226Y222240D02*
D03*
X476288Y228193D02*
D03*
X472351D02*
D03*
X468414D02*
D03*
X464477D02*
D03*
X456603D02*
D03*
X452666D02*
D03*
X448729D02*
D03*
X444792D02*
D03*
X436918D02*
D03*
X432981D02*
D03*
X429044D02*
D03*
X425107D02*
D03*
X466446Y222287D02*
D03*
X431013D02*
D03*
X427076D02*
D03*
X423139D02*
D03*
X419202D02*
D03*
X495973Y287248D02*
D03*
X495783Y283446D02*
D03*
X501879Y257720D02*
D03*
X493611Y287248D02*
D03*
X501879Y265594D02*
D03*
X493217Y279374D02*
D03*
X499910Y291972D02*
D03*
X502666D02*
D03*
X500304Y269531D02*
D03*
X493217Y275437D02*
D03*
X450698Y222287D02*
D03*
X446761D02*
D03*
X407341Y222229D02*
D03*
X350299Y218799D02*
D03*
X508768Y370268D02*
D03*
X508799Y366331D02*
D03*
X314499Y381099D02*
D03*
X706931Y144799D02*
D03*
X717668D02*
D03*
X678430Y188559D02*
D03*
X662289Y188642D02*
D03*
X662568Y192299D02*
D03*
Y196039D02*
D03*
X678430Y192299D02*
D03*
Y196039D02*
D03*
X624931Y136299D02*
D03*
X641854Y140945D02*
D03*
X639499Y140599D02*
D03*
X637006Y140550D02*
D03*
X646999Y172699D02*
D03*
X644499D02*
D03*
X641999D02*
D03*
X639499D02*
D03*
X634299Y140499D02*
D03*
X650449Y146063D02*
D03*
X619499Y118699D02*
D03*
X612299Y117099D02*
D03*
X606299Y105099D02*
D03*
X634699D02*
D03*
X637099Y113499D02*
D03*
X635699Y110299D02*
D03*
X633770Y108331D02*
D03*
Y114236D02*
D03*
X594299Y116099D02*
D03*
X582299Y104499D02*
D03*
Y120099D02*
D03*
X575699Y163499D02*
D03*
X616734Y192299D02*
D03*
X627668D02*
D03*
X606899Y195099D02*
D03*
Y201099D02*
D03*
X589699Y195099D02*
D03*
Y201099D02*
D03*
X548819Y222047D02*
D03*
X595038Y271260D02*
D03*
X600000D02*
D03*
X670499Y469799D02*
D03*
X617499Y446699D02*
D03*
X669699Y446899D02*
D03*
X190912Y425699D02*
D03*
X571263Y526899D02*
D03*
Y529299D02*
D03*
X563783Y526899D02*
D03*
Y529299D02*
D03*
X329099Y533102D02*
D03*
X864699Y507132D02*
D03*
X794699Y458441D02*
D03*
X799699D02*
D03*
X804699D02*
D03*
X789899D02*
D03*
X759799Y458341D02*
D03*
X886315Y287256D02*
D03*
X539324Y392126D02*
D03*
X620470Y280707D02*
D03*
X621260Y314961D02*
D03*
X627559Y311024D02*
D03*
X615748Y306693D02*
D03*
X612992D02*
D03*
X615748Y310236D02*
D03*
X612992D02*
D03*
X600787Y311811D02*
D03*
X601213Y306331D02*
D03*
X607953Y286299D02*
D03*
X597781Y288976D02*
D03*
Y283071D02*
D03*
X607931Y282299D02*
D03*
X588464Y290306D02*
D03*
X577727D02*
D03*
X605400Y318724D02*
D03*
X594663D02*
D03*
X587008Y313923D02*
D03*
X581102D02*
D03*
X927764Y865899D02*
D03*
X1038000D02*
D03*
X921330Y875299D02*
D03*
X1011830Y875599D02*
D03*
X1019830D02*
D03*
X1031630D02*
D03*
X1039630Y875799D02*
D03*
X948930Y875299D02*
D03*
X940930D02*
D03*
X929330D02*
D03*
X1040740Y865899D02*
D03*
X1032866D02*
D03*
X1030126D02*
D03*
X1021055D02*
D03*
X1018315D02*
D03*
X1013181D02*
D03*
X1010441D02*
D03*
X922630D02*
D03*
X919890D02*
D03*
X930504D02*
D03*
X942315D02*
D03*
X939575D02*
D03*
X947449D02*
D03*
X950189D02*
D03*
X549599Y557899D02*
D03*
X557099D02*
D03*
X564670Y558049D02*
D03*
X572099Y557899D02*
D03*
X580657D02*
D03*
X588157D02*
D03*
X595657D02*
D03*
X603157D02*
D03*
X610657D02*
D03*
X694657D02*
D03*
X687157D02*
D03*
X679657D02*
D03*
X672157D02*
D03*
X664657D02*
D03*
X656099D02*
D03*
X648670Y558049D02*
D03*
X641099Y557899D02*
D03*
X633599D02*
D03*
X626099D02*
D03*
X293628Y557828D02*
D03*
X291128D02*
D03*
X316128D02*
D03*
X323628D02*
D03*
X301128D02*
D03*
X308628D02*
D03*
X276128D02*
D03*
X283628D02*
D03*
X268628D02*
D03*
X261128D02*
D03*
X209628D02*
D03*
X207128D02*
D03*
X232128D02*
D03*
X239628D02*
D03*
X217128D02*
D03*
X224628D02*
D03*
X192128D02*
D03*
X199628D02*
D03*
X184628D02*
D03*
X177128D02*
D03*
X293628Y583328D02*
D03*
X291128D02*
D03*
X316128D02*
D03*
X323628D02*
D03*
X301128D02*
D03*
X308628D02*
D03*
X276128D02*
D03*
X283628D02*
D03*
X268628D02*
D03*
X261128D02*
D03*
X209628D02*
D03*
X207128D02*
D03*
X232128D02*
D03*
X239628D02*
D03*
X217128D02*
D03*
X224628D02*
D03*
X192128D02*
D03*
X199628D02*
D03*
X184628D02*
D03*
X177128D02*
D03*
X661599Y582978D02*
D03*
X659099D02*
D03*
X684099D02*
D03*
X691599D02*
D03*
X669099D02*
D03*
X676599D02*
D03*
X644099D02*
D03*
X651599D02*
D03*
X636599D02*
D03*
X629099D02*
D03*
X577599Y582899D02*
D03*
X575099D02*
D03*
X600099D02*
D03*
X607599D02*
D03*
X585099D02*
D03*
X592599D02*
D03*
X560099D02*
D03*
X567599D02*
D03*
X552599D02*
D03*
X545099D02*
D03*
X602699Y570699D02*
D03*
Y567499D02*
D03*
X595199Y570699D02*
D03*
Y567499D02*
D03*
X587699Y570699D02*
D03*
Y567499D02*
D03*
X580199D02*
D03*
Y570699D02*
D03*
X562699Y567499D02*
D03*
X555199D02*
D03*
X555124Y529296D02*
D03*
X550244D02*
D03*
X664199Y570699D02*
D03*
Y567499D02*
D03*
X671699D02*
D03*
Y570699D02*
D03*
X679199Y567499D02*
D03*
Y570699D02*
D03*
X686699Y567499D02*
D03*
Y570699D02*
D03*
X631699D02*
D03*
Y567499D02*
D03*
X639199D02*
D03*
Y570699D02*
D03*
X646699Y567499D02*
D03*
Y570699D02*
D03*
X654199Y567499D02*
D03*
Y570699D02*
D03*
X570199D02*
D03*
Y567499D02*
D03*
X562699Y570699D02*
D03*
X555199D02*
D03*
X547699Y567499D02*
D03*
Y570699D02*
D03*
X189764Y568898D02*
D03*
X187008D02*
D03*
X182216D02*
D03*
X271008D02*
D03*
X273764D02*
D03*
X278508D02*
D03*
X281264D02*
D03*
X286008D02*
D03*
X288764D02*
D03*
X298764D02*
D03*
X296008D02*
D03*
X306264D02*
D03*
X303508D02*
D03*
X313764D02*
D03*
X311008D02*
D03*
X266264D02*
D03*
X263508D02*
D03*
X237264D02*
D03*
X234508D02*
D03*
X222264D02*
D03*
X219508D02*
D03*
X214764D02*
D03*
X197264D02*
D03*
X194508D02*
D03*
X263786Y529099D02*
D03*
X266386D02*
D03*
X273866D02*
D03*
X271266D02*
D03*
X281340D02*
D03*
X278740D02*
D03*
X288820D02*
D03*
X286220D02*
D03*
X298663D02*
D03*
X296063D02*
D03*
X306143D02*
D03*
X303543D02*
D03*
X313624D02*
D03*
X311024D02*
D03*
X321104D02*
D03*
X318504D02*
D03*
X557724Y529296D02*
D03*
X237217Y529099D02*
D03*
X229737D02*
D03*
X222257D02*
D03*
X214776D02*
D03*
X186980D02*
D03*
X189580D02*
D03*
X216699Y440799D02*
D03*
Y444799D02*
D03*
X194499Y451431D02*
D03*
X196699Y421299D02*
D03*
X203499Y451431D02*
D03*
X206899Y461031D02*
D03*
X203499Y455431D02*
D03*
X321264Y568898D02*
D03*
X318508D02*
D03*
X229764D02*
D03*
X227008D02*
D03*
X212008D02*
D03*
X204764D02*
D03*
X202008D02*
D03*
X179476D02*
D03*
X790651Y214265D02*
D03*
X26299Y362299D02*
D03*
X46299Y329799D02*
D03*
X989299Y580299D02*
D03*
X1132299Y315299D02*
D03*
X984299Y578299D02*
D03*
X1129299Y309299D02*
D03*
X1090299Y286299D02*
D03*
X764370Y417520D02*
D03*
X743799Y272299D02*
D03*
Y268299D02*
D03*
X870799Y370299D02*
D03*
X871299Y388299D02*
D03*
X864299Y396899D02*
D03*
X860299D02*
D03*
X856299D02*
D03*
X783799Y266799D02*
D03*
X1027299Y341299D02*
D03*
X1113299Y884299D02*
D03*
X1107331Y871331D02*
D03*
X238299Y215799D02*
D03*
X773209Y417496D02*
D03*
X1034799Y352299D02*
D03*
X810099Y525299D02*
D03*
X799499Y569499D02*
D03*
X810099Y521299D02*
D03*
X804699Y533299D02*
D03*
X787699Y529099D02*
D03*
X506400Y501300D02*
D03*
X506000Y506000D02*
D03*
X497383Y494499D02*
D03*
X497499Y512099D02*
D03*
X483099Y482899D02*
D03*
X504299Y518699D02*
D03*
X503099Y490631D02*
D03*
X500299Y512099D02*
D03*
X478299Y486799D02*
D03*
Y490799D02*
D03*
X476799Y494799D02*
D03*
Y498799D02*
D03*
Y503299D02*
D03*
Y507299D02*
D03*
X481799Y511799D02*
D03*
Y515799D02*
D03*
X469099Y517099D02*
D03*
X640099Y227299D02*
D03*
X671299Y229099D02*
D03*
Y225299D02*
D03*
X653899D02*
D03*
X654099Y221499D02*
D03*
X671299Y214099D02*
D03*
Y210299D02*
D03*
X654299Y206499D02*
D03*
X707939Y294339D02*
D03*
X698059Y294259D02*
D03*
X774299Y161299D02*
D03*
X357817Y509017D02*
D03*
X357899Y506499D02*
D03*
X348599Y533602D02*
D03*
X343899Y530099D02*
D03*
X336299Y513161D02*
D03*
X333899Y513499D02*
D03*
X337699Y492799D02*
D03*
X341699Y492934D02*
D03*
X342099Y507434D02*
D03*
X346099Y507634D02*
D03*
X349899Y512699D02*
D03*
X346699Y523099D02*
D03*
X333799Y492934D02*
D03*
X329799Y492799D02*
D03*
X330699Y507134D02*
D03*
X326699Y506999D02*
D03*
X328661Y520799D02*
D03*
X328999Y518399D02*
D03*
X337699Y483465D02*
D03*
X333799D02*
D03*
X329799D02*
D03*
X326699Y497468D02*
D03*
X342099Y497965D02*
D03*
X345899Y497768D02*
D03*
X156299Y461199D02*
D03*
X172631Y464731D02*
D03*
X176568D02*
D03*
X179499Y529099D02*
D03*
X182099D02*
D03*
X197454D02*
D03*
X194854D02*
D03*
X204934D02*
D03*
X202334D02*
D03*
X212176D02*
D03*
X219657D02*
D03*
X227137D02*
D03*
X234617D02*
D03*
X547644Y529296D02*
D03*
X581499Y529299D02*
D03*
Y526899D02*
D03*
X588980D02*
D03*
Y529299D02*
D03*
X596460Y526899D02*
D03*
Y529299D02*
D03*
X603940Y526899D02*
D03*
Y529299D02*
D03*
X632680D02*
D03*
X640161Y526899D02*
D03*
Y529299D02*
D03*
X648035Y526899D02*
D03*
Y529299D02*
D03*
X655515Y526899D02*
D03*
Y529299D02*
D03*
X665357Y526899D02*
D03*
Y529299D02*
D03*
X672838Y526899D02*
D03*
Y529299D02*
D03*
X680334Y526946D02*
D03*
Y529346D02*
D03*
X687798Y526899D02*
D03*
Y529299D02*
D03*
X632680Y526899D02*
D03*
X552712Y352299D02*
D03*
X554831Y332231D02*
D03*
X681599Y446136D02*
D03*
Y452536D02*
D03*
X630099Y450299D02*
D03*
X670099Y458899D02*
D03*
X652699Y466699D02*
D03*
X643099Y452899D02*
D03*
X680499Y476699D02*
D03*
X639099Y446099D02*
D03*
X627699Y450299D02*
D03*
X634099Y445899D02*
D03*
X589499Y399699D02*
D03*
X595499D02*
D03*
X605099Y399299D02*
D03*
X611499Y399499D02*
D03*
X625699Y406499D02*
D03*
X610299Y414299D02*
D03*
X612099Y410099D02*
D03*
X647699Y432299D02*
D03*
X341729Y483259D02*
D03*
X330699Y497665D02*
D03*
X338796Y465202D02*
D03*
X427802Y455196D02*
D03*
X433899Y465919D02*
D03*
Y468259D02*
D03*
X341051Y463548D02*
D03*
X887015Y569291D02*
D03*
X889555D02*
D03*
X622441Y502964D02*
D03*
Y505504D02*
D03*
X897251Y566535D02*
D03*
X899791D02*
D03*
X887029Y580315D02*
D03*
X889569D02*
D03*
X900394Y773228D02*
D03*
Y761417D02*
D03*
X912394D02*
D03*
Y773228D02*
D03*
X924794Y773134D02*
D03*
Y761323D02*
D03*
X936394Y773228D02*
D03*
Y761417D02*
D03*
X996394Y773228D02*
D03*
Y761417D02*
D03*
X1008394Y773228D02*
D03*
Y761417D02*
D03*
X1020394Y773228D02*
D03*
Y761417D02*
D03*
X1032394Y773228D02*
D03*
Y761417D02*
D03*
X964331Y673613D02*
D03*
Y667613D02*
D03*
Y661613D02*
D03*
Y655613D02*
D03*
X970993Y657622D02*
D03*
X1003605Y672976D02*
D03*
X1006299Y674980D02*
D03*
X1054630Y664980D02*
D03*
Y659980D02*
D03*
X1015346Y690899D02*
D03*
X1046733Y733579D02*
D03*
Y731020D02*
D03*
X913899Y660299D02*
D03*
X898699D02*
D03*
X895699Y664699D02*
D03*
Y655702D02*
D03*
X913899Y657740D02*
D03*
Y662858D02*
D03*
X898699D02*
D03*
Y657740D02*
D03*
Y641740D02*
D03*
Y646858D02*
D03*
X913899D02*
D03*
Y641740D02*
D03*
X898699Y644299D02*
D03*
X913899D02*
D03*
X898699Y625740D02*
D03*
Y630858D02*
D03*
X913899D02*
D03*
Y625740D02*
D03*
X898699Y628299D02*
D03*
X913899D02*
D03*
X895699Y639702D02*
D03*
Y648699D02*
D03*
Y623702D02*
D03*
Y632699D02*
D03*
X917268Y637968D02*
D03*
X922783Y658253D02*
D03*
Y619546D02*
D03*
X925343D02*
D03*
X927902D02*
D03*
X930461D02*
D03*
X933020D02*
D03*
X935579D02*
D03*
X938138D02*
D03*
X940697D02*
D03*
X943256D02*
D03*
X945815D02*
D03*
X925343Y658253D02*
D03*
X927902D02*
D03*
X925931Y666268D02*
D03*
X942668Y666268D02*
D03*
X910299Y716099D02*
D03*
X920299D02*
D03*
X930299D02*
D03*
X940299D02*
D03*
X950299D02*
D03*
X920299Y680499D02*
D03*
X930299D02*
D03*
X940299D02*
D03*
X950299D02*
D03*
X958268Y631899D02*
D03*
X960668Y642299D02*
D03*
X951931D02*
D03*
X954331Y631899D02*
D03*
X993299Y631103D02*
D03*
X1003299D02*
D03*
X1023299D02*
D03*
X1033299D02*
D03*
X1023299Y593495D02*
D03*
X1013299D02*
D03*
X963220D02*
D03*
X983299Y631103D02*
D03*
X981228Y591014D02*
D03*
X989228D02*
D03*
X997228D02*
D03*
X1005299D02*
D03*
X1013228D02*
D03*
X981228Y582277D02*
D03*
X997228D02*
D03*
X1005299Y582277D02*
D03*
X1013228Y582277D02*
D03*
X1022699Y581931D02*
D03*
X991899Y584699D02*
D03*
X892331Y743899D02*
D03*
X896268D02*
D03*
Y749899D02*
D03*
X892331D02*
D03*
X896268Y769899D02*
D03*
X892331Y777899D02*
D03*
X896268Y783899D02*
D03*
X892331D02*
D03*
Y789899D02*
D03*
X896268Y795899D02*
D03*
X892331D02*
D03*
X892299Y801699D02*
D03*
X896268Y801899D02*
D03*
X892331Y807899D02*
D03*
X896268D02*
D03*
X892134Y813899D02*
D03*
X875899Y830268D02*
D03*
Y826331D02*
D03*
X874899Y816268D02*
D03*
X882299Y854868D02*
D03*
Y845731D02*
D03*
X888559Y845968D02*
D03*
X892299D02*
D03*
X896039D02*
D03*
X888559Y862630D02*
D03*
X892299D02*
D03*
X896039D02*
D03*
X888559Y875968D02*
D03*
X892299D02*
D03*
X896039D02*
D03*
X892299Y892630D02*
D03*
X915880Y894299D02*
D03*
X954718D02*
D03*
X944781Y918236D02*
D03*
X934781D02*
D03*
X924781D02*
D03*
X898899Y912268D02*
D03*
Y908331D02*
D03*
X899099Y897868D02*
D03*
X896899Y728268D02*
D03*
Y724331D02*
D03*
X923299Y804099D02*
D03*
Y801499D02*
D03*
X899769Y580512D02*
D03*
X897229D02*
D03*
X216699Y436799D02*
D03*
Y432799D02*
D03*
X719799Y506268D02*
D03*
X724799D02*
D03*
X734799Y508842D02*
D03*
X744799D02*
D03*
X754799D02*
D03*
X759799D02*
D03*
X764799D02*
D03*
X724799Y458331D02*
D03*
X734799D02*
D03*
X739799D02*
D03*
X744799D02*
D03*
X754799D02*
D03*
X749799D02*
D03*
X719799D02*
D03*
X729799D02*
D03*
Y508842D02*
D03*
X739799D02*
D03*
X749799D02*
D03*
X779799Y458331D02*
D03*
X809799D02*
D03*
X819799D02*
D03*
X814799D02*
D03*
X784799D02*
D03*
X779799Y508842D02*
D03*
X794799D02*
D03*
X789799D02*
D03*
X784799D02*
D03*
X799799D02*
D03*
X814799D02*
D03*
X809799D02*
D03*
X804799D02*
D03*
X819799D02*
D03*
X824799D02*
D03*
X884799D02*
D03*
X879799D02*
D03*
X869799D02*
D03*
X874799D02*
D03*
X859799D02*
D03*
X844799D02*
D03*
X849799D02*
D03*
X854799D02*
D03*
X839799D02*
D03*
Y455756D02*
D03*
X854799D02*
D03*
X849799D02*
D03*
X844799D02*
D03*
X859799D02*
D03*
X874799D02*
D03*
X869799D02*
D03*
X864799D02*
D03*
X879799D02*
D03*
X855099Y442299D02*
D03*
Y438362D02*
D03*
X861099Y442299D02*
D03*
Y438362D02*
D03*
X867099D02*
D03*
Y442299D02*
D03*
X873099D02*
D03*
Y438362D02*
D03*
X879099Y442299D02*
D03*
Y438362D02*
D03*
X885099Y442299D02*
D03*
Y438362D02*
D03*
X777099Y442299D02*
D03*
X787099D02*
D03*
X797099Y438362D02*
D03*
Y442299D02*
D03*
X807099D02*
D03*
Y438362D02*
D03*
X882299Y433099D02*
D03*
X886236D02*
D03*
X882299Y427099D02*
D03*
X886236D02*
D03*
X882299Y421099D02*
D03*
X886236D02*
D03*
X867068Y276331D02*
D03*
Y280331D02*
D03*
Y284331D02*
D03*
Y288331D02*
D03*
Y292331D02*
D03*
Y296331D02*
D03*
Y300331D02*
D03*
Y308331D02*
D03*
Y312331D02*
D03*
Y316331D02*
D03*
Y320331D02*
D03*
Y324331D02*
D03*
X840299Y259499D02*
D03*
X844099D02*
D03*
X875099Y320299D02*
D03*
X889299Y335099D02*
D03*
Y332499D02*
D03*
X895299Y332699D02*
D03*
X880899Y326142D02*
D03*
X905083Y332990D02*
D03*
X911699Y322236D02*
D03*
Y308457D02*
D03*
Y312394D02*
D03*
X898390Y291362D02*
D03*
X880299Y292699D02*
D03*
X876362D02*
D03*
X869899Y304331D02*
D03*
X881299Y316331D02*
D03*
X884390Y306409D02*
D03*
X881099Y310409D02*
D03*
X900883Y338284D02*
D03*
X920852Y320315D02*
D03*
X907190Y305390D02*
D03*
X907099Y300219D02*
D03*
Y297679D02*
D03*
X914299Y323903D02*
D03*
Y326443D02*
D03*
X878499Y313699D02*
D03*
X923150Y302299D02*
D03*
Y298299D02*
D03*
Y294299D02*
D03*
X923181Y290299D02*
D03*
Y286299D02*
D03*
Y282299D02*
D03*
Y278299D02*
D03*
Y274299D02*
D03*
Y270299D02*
D03*
Y266299D02*
D03*
X933417D02*
D03*
X707539Y314339D02*
D03*
Y318339D02*
D03*
Y322339D02*
D03*
X672371Y487028D02*
D03*
Y481028D02*
D03*
X678628Y480859D02*
D03*
X692757Y477634D02*
D03*
X692676Y491657D02*
D03*
X692659Y506939D02*
D03*
X692739Y494059D02*
D03*
X682539Y493659D02*
D03*
X705339Y510339D02*
D03*
X700028Y464459D02*
D03*
Y458459D02*
D03*
X94659Y788739D02*
D03*
X105139Y788659D02*
D03*
X621539Y496339D02*
D03*
X611059Y496259D02*
D03*
X607759Y488059D02*
D03*
X618239Y488139D02*
D03*
X603139Y488239D02*
D03*
X592659Y488159D02*
D03*
X603139Y496239D02*
D03*
X592659Y496159D02*
D03*
X590139Y488139D02*
D03*
X579659Y488059D02*
D03*
X365621Y491080D02*
D03*
X355031Y489831D02*
D03*
X698899Y500931D02*
D03*
Y491465D02*
D03*
X391165Y508799D02*
D03*
X652099Y332331D02*
D03*
X410299Y500534D02*
D03*
X418299D02*
D03*
X426299D02*
D03*
X421899Y479165D02*
D03*
Y488434D02*
D03*
X414199Y479165D02*
D03*
X406199Y479165D02*
D03*
X398199Y479165D02*
D03*
Y488434D02*
D03*
X406199D02*
D03*
X414199D02*
D03*
X407633Y493931D02*
D03*
X415633Y493931D02*
D03*
X428965D02*
D03*
X439899Y492898D02*
D03*
X429099Y502299D02*
D03*
X437523Y507691D02*
D03*
X436699Y511899D02*
D03*
X448499Y519099D02*
D03*
X422699Y503499D02*
D03*
X427768Y517965D02*
D03*
X423831D02*
D03*
X404833Y516299D02*
D03*
X419565Y516699D02*
D03*
X412699Y502233D02*
D03*
X368099Y516703D02*
D03*
X884752Y370299D02*
D03*
Y388299D02*
D03*
X932399Y374299D02*
D03*
Y378299D02*
D03*
X425899Y457099D02*
D03*
X387099Y464899D02*
D03*
X386899Y462499D02*
D03*
X860331Y263531D02*
D03*
X856331D02*
D03*
X852331D02*
D03*
X848299Y260899D02*
D03*
Y258499D02*
D03*
X836331Y263531D02*
D03*
X832331D02*
D03*
X872462Y310499D02*
D03*
X873055Y318744D02*
D03*
X848331Y263531D02*
D03*
X895299Y302067D02*
D03*
X413296Y228193D02*
D03*
X250999Y261099D02*
D03*
X253755D02*
D03*
X250999Y257556D02*
D03*
X253755D02*
D03*
X265399Y259299D02*
D03*
X258899Y249399D02*
D03*
X245199Y244299D02*
D03*
X257199Y244268D02*
D03*
X283299Y133699D02*
D03*
X289252D02*
D03*
Y147699D02*
D03*
X283346D02*
D03*
X281499Y110299D02*
D03*
X291099D02*
D03*
X373131Y120331D02*
D03*
X355131Y95331D02*
D03*
X337131D02*
D03*
X317786Y95549D02*
D03*
X651268Y266131D02*
D03*
X651465Y248131D02*
D03*
X651268Y240131D02*
D03*
X168331Y395468D02*
D03*
Y383468D02*
D03*
Y369468D02*
D03*
X338899Y85346D02*
D03*
Y91252D02*
D03*
X314768Y188099D02*
D03*
X553468Y230299D02*
D03*
X553568Y253299D02*
D03*
X553468Y268299D02*
D03*
X264299Y369931D02*
D03*
X265299Y380668D02*
D03*
X214599Y98499D02*
D03*
X197999Y98540D02*
D03*
Y105312D02*
D03*
X151865Y136320D02*
D03*
X163864Y138320D02*
D03*
X163865Y132320D02*
D03*
X151865Y148320D02*
D03*
X151864Y154320D02*
D03*
X158288Y157265D02*
D03*
X163633Y150320D02*
D03*
X167999Y158799D02*
D03*
X176599D02*
D03*
X181065Y150279D02*
D03*
X176599Y141799D02*
D03*
X266599D02*
D03*
X271065Y150279D02*
D03*
X266599Y158799D02*
D03*
X257999D02*
D03*
X253633Y150320D02*
D03*
X248288Y157265D02*
D03*
X253865Y132320D02*
D03*
X241864Y154320D02*
D03*
X241865Y148320D02*
D03*
Y136320D02*
D03*
X263399Y170268D02*
D03*
X244499Y126299D02*
D03*
X244299Y122299D02*
D03*
X152299D02*
D03*
X152499Y126299D02*
D03*
X205099Y180399D02*
D03*
X215562Y180199D02*
D03*
X208468Y200499D02*
D03*
X242168Y207036D02*
D03*
X226299Y189728D02*
D03*
X228299Y179599D02*
D03*
X249662Y196899D02*
D03*
Y199399D02*
D03*
X257296Y200517D02*
D03*
X267531Y184199D02*
D03*
X257068Y184399D02*
D03*
X275099Y194129D02*
D03*
Y196469D02*
D03*
X253864Y138320D02*
D03*
X173399Y168268D02*
D03*
X272299Y252646D02*
D03*
X649499Y273899D02*
D03*
X652099Y273099D02*
D03*
X654099Y270899D02*
D03*
X650899Y251299D02*
D03*
X484099Y228299D02*
D03*
X688099Y476299D02*
D03*
X412348Y176148D02*
D03*
X413711Y178094D02*
D03*
X405899Y163499D02*
D03*
X406699Y155499D02*
D03*
X363299Y461299D02*
D03*
X374299D02*
D03*
X370499D02*
D03*
X367099Y461499D02*
D03*
X648899Y327699D02*
D03*
X355699Y460699D02*
D03*
X359499Y461099D02*
D03*
X431099Y456499D02*
D03*
X432499Y459699D02*
D03*
Y462299D02*
D03*
X436099Y461699D02*
D03*
X430299Y467099D02*
D03*
X584899Y404299D02*
D03*
X289899Y308499D02*
D03*
X309099Y112499D02*
D03*
X351099Y460899D02*
D03*
X516499Y529099D02*
D03*
X495973Y320713D02*
D03*
Y316382D02*
D03*
Y306933D02*
D03*
X799628Y545270D02*
D03*
X802128D02*
D03*
X807128D02*
D03*
X809628D02*
D03*
X814628D02*
D03*
X817128D02*
D03*
X824628D02*
D03*
X822128D02*
D03*
X834628D02*
D03*
X832128D02*
D03*
X842128D02*
D03*
X839628D02*
D03*
X849628D02*
D03*
X847128D02*
D03*
X857128D02*
D03*
X854628D02*
D03*
X857128Y570770D02*
D03*
X854628D02*
D03*
X849628D02*
D03*
X847128D02*
D03*
X842128D02*
D03*
X839628D02*
D03*
X834628D02*
D03*
X832128D02*
D03*
X824628D02*
D03*
X822128D02*
D03*
X797128Y557828D02*
D03*
X804628D02*
D03*
X819628D02*
D03*
X812128D02*
D03*
X844628D02*
D03*
X837128D02*
D03*
X859628D02*
D03*
X852128D02*
D03*
X827128D02*
D03*
X829628D02*
D03*
X713128Y583328D02*
D03*
X720628D02*
D03*
X735628D02*
D03*
X728128D02*
D03*
X760628D02*
D03*
X753128D02*
D03*
X775628D02*
D03*
X768128D02*
D03*
X743128D02*
D03*
X745628D02*
D03*
X829857Y583678D02*
D03*
X827357D02*
D03*
X797128Y583328D02*
D03*
X804628D02*
D03*
X819628D02*
D03*
X812128D02*
D03*
X844628D02*
D03*
X837128D02*
D03*
X859628D02*
D03*
X852128D02*
D03*
X461857Y583678D02*
D03*
X459357D02*
D03*
X429128Y583328D02*
D03*
X436628D02*
D03*
X451628D02*
D03*
X444128D02*
D03*
X476628D02*
D03*
X469128D02*
D03*
X491628D02*
D03*
X484128D02*
D03*
Y557828D02*
D03*
X491628D02*
D03*
X469128D02*
D03*
X476628D02*
D03*
X444128D02*
D03*
X451628D02*
D03*
X436628D02*
D03*
X429128D02*
D03*
X459357Y558178D02*
D03*
X461857D02*
D03*
X745628Y557828D02*
D03*
X743128D02*
D03*
X768128D02*
D03*
X775628D02*
D03*
X753128D02*
D03*
X760628D02*
D03*
X728128D02*
D03*
X735628D02*
D03*
X720628D02*
D03*
X713128D02*
D03*
X770628Y545270D02*
D03*
X773128D02*
D03*
X763128D02*
D03*
X765628D02*
D03*
X755628D02*
D03*
X758128D02*
D03*
X748128D02*
D03*
X750628D02*
D03*
X738128D02*
D03*
X740628D02*
D03*
X733128D02*
D03*
X730628D02*
D03*
X725628D02*
D03*
X723128D02*
D03*
X718128D02*
D03*
X715628D02*
D03*
X770628Y570770D02*
D03*
X773128D02*
D03*
X763128D02*
D03*
X765628D02*
D03*
X755628D02*
D03*
X758128D02*
D03*
X748128D02*
D03*
X750628D02*
D03*
X738128D02*
D03*
X740628D02*
D03*
X733128D02*
D03*
X730628D02*
D03*
X725628D02*
D03*
X723128D02*
D03*
X718128D02*
D03*
X715628D02*
D03*
X486628Y545270D02*
D03*
X489128D02*
D03*
X479128D02*
D03*
X481628D02*
D03*
X471628D02*
D03*
X474128D02*
D03*
X464128D02*
D03*
X466628D02*
D03*
X454128D02*
D03*
X456628D02*
D03*
X449128D02*
D03*
X446628D02*
D03*
X441628D02*
D03*
X439128D02*
D03*
X434128D02*
D03*
X431628D02*
D03*
X402628D02*
D03*
X405128D02*
D03*
X395128D02*
D03*
X397628D02*
D03*
X387628D02*
D03*
X390128D02*
D03*
X380128D02*
D03*
X382628D02*
D03*
X370128D02*
D03*
X372628D02*
D03*
X365128D02*
D03*
X362628D02*
D03*
X357628D02*
D03*
X355128D02*
D03*
X350128D02*
D03*
X347628D02*
D03*
X345128Y557828D02*
D03*
X352628D02*
D03*
X367628D02*
D03*
X360128D02*
D03*
X392628D02*
D03*
X385128D02*
D03*
X407628D02*
D03*
X400128D02*
D03*
X375128D02*
D03*
X377628D02*
D03*
X345128Y583328D02*
D03*
X352628D02*
D03*
X367628D02*
D03*
X360128D02*
D03*
X392628D02*
D03*
X385128D02*
D03*
X407628D02*
D03*
X400128D02*
D03*
X375128D02*
D03*
X377628D02*
D03*
X347628Y570770D02*
D03*
X350128D02*
D03*
X355128D02*
D03*
X357628D02*
D03*
X362628D02*
D03*
X365128D02*
D03*
X372628D02*
D03*
X370128D02*
D03*
X382628D02*
D03*
X380128D02*
D03*
X390128D02*
D03*
X387628D02*
D03*
X397628D02*
D03*
X395128D02*
D03*
X405128D02*
D03*
X402628D02*
D03*
X454128D02*
D03*
X456628D02*
D03*
X464128D02*
D03*
X466628D02*
D03*
X471628D02*
D03*
X474128D02*
D03*
X479128D02*
D03*
X481628D02*
D03*
X486628D02*
D03*
X489128D02*
D03*
X431499Y569499D02*
D03*
X500299Y559299D02*
D03*
X504299D02*
D03*
X508299D02*
D03*
X512299D02*
D03*
X516299D02*
D03*
X530799Y572299D02*
D03*
Y569299D02*
D03*
Y566799D02*
D03*
Y563799D02*
D03*
Y560799D02*
D03*
Y556799D02*
D03*
X76299Y635199D02*
D03*
X76220Y625199D02*
D03*
Y615199D02*
D03*
Y605199D02*
D03*
Y595199D02*
D03*
Y585199D02*
D03*
Y575199D02*
D03*
Y565199D02*
D03*
X75836Y243999D02*
D03*
X75936Y233999D02*
D03*
X80157Y565199D02*
D03*
Y575199D02*
D03*
Y585199D02*
D03*
Y595199D02*
D03*
Y605199D02*
D03*
Y615199D02*
D03*
Y625199D02*
D03*
X80354Y635199D02*
D03*
X20636Y568299D02*
D03*
Y558299D02*
D03*
Y588299D02*
D03*
Y578299D02*
D03*
Y608299D02*
D03*
Y598299D02*
D03*
Y628099D02*
D03*
Y618099D02*
D03*
Y648299D02*
D03*
Y638299D02*
D03*
X23165Y358299D02*
D03*
X25499Y359959D02*
D03*
X26499Y356499D02*
D03*
X15334Y362302D02*
D03*
X38899Y360299D02*
D03*
X41699D02*
D03*
Y356299D02*
D03*
X38899Y356099D02*
D03*
X53299Y361099D02*
D03*
X45280Y371271D02*
D03*
X34137Y284718D02*
D03*
X37576Y285962D02*
D03*
X40899Y285499D02*
D03*
X30099Y318299D02*
D03*
X40099Y324699D02*
D03*
Y321499D02*
D03*
X11080Y306502D02*
D03*
X22327Y297280D02*
D03*
X20499Y317699D02*
D03*
X64359Y259280D02*
D03*
Y239280D02*
D03*
X22296Y343280D02*
D03*
X68499Y207699D02*
D03*
X76236Y184299D02*
D03*
Y174299D02*
D03*
Y164299D02*
D03*
X27503Y122299D02*
D03*
X65095D02*
D03*
Y112299D02*
D03*
Y102299D02*
D03*
X27503Y112299D02*
D03*
Y92299D02*
D03*
Y62299D02*
D03*
X20268Y92299D02*
D03*
X16331Y57299D02*
D03*
X801236Y102099D02*
D03*
X36299Y41899D02*
D03*
X43899Y38299D02*
D03*
X40299Y42699D02*
D03*
X65095Y82299D02*
D03*
Y72299D02*
D03*
Y62299D02*
D03*
X680407Y370399D02*
D03*
X681699Y350299D02*
D03*
Y344799D02*
D03*
X672399Y323299D02*
D03*
Y317799D02*
D03*
X678799Y282899D02*
D03*
X671799D02*
D03*
X673799Y247699D02*
D03*
X679799D02*
D03*
X693663Y239299D02*
D03*
X707124D02*
D03*
X699130Y227899D02*
D03*
X685668D02*
D03*
X707999Y304799D02*
D03*
X716799Y261799D02*
D03*
X708935Y285164D02*
D03*
X682099Y322499D02*
D03*
X695739Y316539D02*
D03*
X706099Y208699D02*
D03*
X702899Y206299D02*
D03*
X710299Y212099D02*
D03*
X702699Y311499D02*
D03*
X683099Y417899D02*
D03*
X750499Y370699D02*
D03*
X752899D02*
D03*
X755299D02*
D03*
X757699D02*
D03*
X760099D02*
D03*
X736699Y167699D02*
D03*
X753699Y203499D02*
D03*
X763299Y203699D02*
D03*
X753699Y212899D02*
D03*
X762299Y213099D02*
D03*
X762899Y200299D02*
D03*
X787668Y224299D02*
D03*
X776931D02*
D03*
X792931D02*
D03*
X803668D02*
D03*
X761668Y190299D02*
D03*
X763899Y159699D02*
D03*
X754331Y186899D02*
D03*
X766931Y164299D02*
D03*
X722299Y232099D02*
D03*
X726499Y231899D02*
D03*
X726699Y228499D02*
D03*
Y224499D02*
D03*
X729899Y217499D02*
D03*
X730099Y213899D02*
D03*
X735945Y232799D02*
D03*
X735899Y229099D02*
D03*
X753899Y220699D02*
D03*
X749299Y214499D02*
D03*
X748499Y218299D02*
D03*
X692499Y191899D02*
D03*
X757299Y220699D02*
D03*
X760099Y240299D02*
D03*
X692699Y175299D02*
D03*
X800520Y142855D02*
D03*
X802488Y155194D02*
D03*
X808394Y142855D02*
D03*
X810362Y155194D02*
D03*
X816268Y142855D02*
D03*
X818236Y155194D02*
D03*
X820205Y146152D02*
D03*
X824142Y142855D02*
D03*
X828079Y146152D02*
D03*
X832016Y142855D02*
D03*
X833984Y155194D02*
D03*
X792646Y202107D02*
D03*
X794614Y214446D02*
D03*
X796583Y205404D02*
D03*
X798551Y217743D02*
D03*
X800520Y202107D02*
D03*
X804457Y205404D02*
D03*
X808394Y202107D02*
D03*
X810362Y214446D02*
D03*
X814299Y217743D02*
D03*
X822173D02*
D03*
X824142Y202107D02*
D03*
X828079Y205404D02*
D03*
X789194Y160614D02*
D03*
X792491Y164551D02*
D03*
X776855Y166520D02*
D03*
X792491Y172425D02*
D03*
X776855Y174394D02*
D03*
X789194Y176362D02*
D03*
X780152Y178331D02*
D03*
X792491Y180299D02*
D03*
X776855Y182268D02*
D03*
X789194Y184236D02*
D03*
X780152Y186205D02*
D03*
X792491Y188173D02*
D03*
X776855Y190142D02*
D03*
X789194Y192110D02*
D03*
X780152Y194079D02*
D03*
X792491Y196047D02*
D03*
X776855Y198016D02*
D03*
X789194Y199984D02*
D03*
X780152Y201953D02*
D03*
X848446Y160614D02*
D03*
X839404Y162583D02*
D03*
Y170457D02*
D03*
X848446Y176362D02*
D03*
X839404Y178331D02*
D03*
X836107Y182268D02*
D03*
X848446Y184236D02*
D03*
X839404Y186205D02*
D03*
X848446Y192110D02*
D03*
X839404Y194079D02*
D03*
X836107Y198016D02*
D03*
X848446Y199984D02*
D03*
X839404Y201953D02*
D03*
X836320Y204299D02*
D03*
X789194Y203921D02*
D03*
X837921Y146152D02*
D03*
X790677D02*
D03*
X856330Y156299D02*
D03*
X826720Y199499D02*
D03*
X809499Y217530D02*
D03*
X826720Y189899D02*
D03*
X836320Y170699D02*
D03*
X823899Y133468D02*
D03*
X804699Y143068D02*
D03*
X809499Y167878D02*
D03*
X758099Y217499D02*
D03*
X884899Y400899D02*
D03*
X873499Y416699D02*
D03*
X881299Y409499D02*
D03*
X883499Y405499D02*
D03*
X878699Y404099D02*
D03*
X878899Y383899D02*
D03*
X879099Y381099D02*
D03*
X906699Y419899D02*
D03*
X855899Y402299D02*
D03*
X889499Y374299D02*
D03*
X881399Y267799D02*
D03*
X872199D02*
D03*
X881399Y271799D02*
D03*
X872199D02*
D03*
X868502Y328299D02*
D03*
X877899D02*
D03*
X1007899Y449299D02*
D03*
X998099Y450099D02*
D03*
X1034099Y336499D02*
D03*
X1037299D02*
D03*
Y332299D02*
D03*
X1034099D02*
D03*
X1049099Y337499D02*
D03*
X1048699Y331499D02*
D03*
X1021899Y338236D02*
D03*
Y334299D02*
D03*
X1016699Y331299D02*
D03*
X1016899Y334899D02*
D03*
X1045499Y341386D02*
D03*
X1044831Y366699D02*
D03*
X1051899Y363699D02*
D03*
X1043899Y308899D02*
D03*
X1037299Y309499D02*
D03*
X984299Y842825D02*
D03*
Y851487D02*
D03*
X980559Y849112D02*
D03*
X988039D02*
D03*
Y857773D02*
D03*
X981299Y881112D02*
D03*
Y889773D02*
D03*
X977559Y874825D02*
D03*
Y883487D02*
D03*
X985039D02*
D03*
X1040699Y599099D02*
D03*
X1170252Y882099D02*
D03*
Y898562D02*
D03*
X1125041Y816268D02*
D03*
Y812331D02*
D03*
X1103331Y824957D02*
D03*
X1107268D02*
D03*
X1103331Y830957D02*
D03*
X1107268D02*
D03*
X1103331Y836957D02*
D03*
X1107268D02*
D03*
X1103331Y842957D02*
D03*
X1107268D02*
D03*
X1103299Y848957D02*
D03*
X1103331Y854957D02*
D03*
Y860957D02*
D03*
X1107268D02*
D03*
X1082926Y804299D02*
D03*
X1073672D02*
D03*
Y812299D02*
D03*
X1082926D02*
D03*
X1073673Y820299D02*
D03*
X1082926D02*
D03*
Y828299D02*
D03*
Y836299D02*
D03*
X1073672Y828299D02*
D03*
Y836299D02*
D03*
X988331Y743957D02*
D03*
X992268D02*
D03*
X988331Y749957D02*
D03*
X992268D02*
D03*
X988331Y763957D02*
D03*
X992268D02*
D03*
X988331Y769957D02*
D03*
X992268D02*
D03*
X988331Y777957D02*
D03*
X992268D02*
D03*
X988331Y783957D02*
D03*
X992268D02*
D03*
X988331Y789957D02*
D03*
X992268D02*
D03*
X988331Y795957D02*
D03*
X992268D02*
D03*
X988331Y801957D02*
D03*
X992268D02*
D03*
X988331Y807957D02*
D03*
X992268D02*
D03*
X988331Y813957D02*
D03*
X992268D02*
D03*
X968299Y830926D02*
D03*
Y821673D02*
D03*
X970299Y801672D02*
D03*
Y810926D02*
D03*
X965173Y843099D02*
D03*
X974426D02*
D03*
X965172Y851099D02*
D03*
X974426D02*
D03*
X978799Y906926D02*
D03*
X987299D02*
D03*
Y897672D02*
D03*
X978799Y897673D02*
D03*
X978499Y910873D02*
D03*
Y920126D02*
D03*
X1069673Y906299D02*
D03*
X1063299Y885673D02*
D03*
Y894926D02*
D03*
X1061672Y852299D02*
D03*
X1070926D02*
D03*
X1061672Y840299D02*
D03*
X1070926D02*
D03*
X1119535Y845130D02*
D03*
X1121504Y833038D02*
D03*
X1123472Y841834D02*
D03*
X1127409Y845130D02*
D03*
X1129378Y833038D02*
D03*
X1131346Y841834D02*
D03*
X1137252Y833038D02*
D03*
X1147094Y841834D02*
D03*
X1149063Y836335D02*
D03*
X1121504Y868668D02*
D03*
X1123472Y877464D02*
D03*
X1127409Y877899D02*
D03*
X1135283Y880760D02*
D03*
X1139220Y877464D02*
D03*
X1141189Y871965D02*
D03*
X1143157Y880760D02*
D03*
X1145126Y868668D02*
D03*
X1147094Y877464D02*
D03*
X1149063Y871965D02*
D03*
X1110438Y844104D02*
D03*
X1119234Y853946D02*
D03*
X1113735Y855915D02*
D03*
Y863789D02*
D03*
X1122530Y865757D02*
D03*
X1110438Y867726D02*
D03*
X1119234Y869694D02*
D03*
X1113735Y871663D02*
D03*
X1158160Y842135D02*
D03*
X1146068Y844104D02*
D03*
X1154864Y846072D02*
D03*
X1149165Y848041D02*
D03*
X1154864Y853946D02*
D03*
X1149165Y855915D02*
D03*
X1158160Y857883D02*
D03*
X1146068Y859852D02*
D03*
X1154864Y861820D02*
D03*
Y869694D02*
D03*
X1113735Y846072D02*
D03*
X1157948Y871299D02*
D03*
X1113735Y842135D02*
D03*
X1157024Y873879D02*
D03*
X1116099Y877899D02*
D03*
X1163926Y876799D02*
D03*
X1166946Y863346D02*
D03*
X1156631Y836831D02*
D03*
X1148968Y851831D02*
D03*
X1129899Y892299D02*
D03*
X1129868Y900268D02*
D03*
X1114331Y834957D02*
D03*
X1118268D02*
D03*
X1114331Y825641D02*
D03*
X1118268D02*
D03*
X1027799Y782173D02*
D03*
X1035799D02*
D03*
X1039799D02*
D03*
X1047799D02*
D03*
Y791426D02*
D03*
X1043799D02*
D03*
X1039799D02*
D03*
X1035799D02*
D03*
X1031799D02*
D03*
X1027799D02*
D03*
X939167Y537399D02*
D03*
Y534899D02*
D03*
Y539899D02*
D03*
Y532399D02*
D03*
Y542399D02*
D03*
Y529899D02*
D03*
Y544899D02*
D03*
Y547399D02*
D03*
Y549899D02*
D03*
Y552399D02*
D03*
Y554899D02*
D03*
Y559899D02*
D03*
Y567399D02*
D03*
Y572399D02*
D03*
Y527399D02*
D03*
X903432Y572399D02*
D03*
Y527399D02*
D03*
Y569899D02*
D03*
Y567399D02*
D03*
Y564899D02*
D03*
Y562399D02*
D03*
Y559899D02*
D03*
Y557399D02*
D03*
Y554899D02*
D03*
Y552399D02*
D03*
Y549899D02*
D03*
Y547399D02*
D03*
Y544899D02*
D03*
Y529899D02*
D03*
Y542399D02*
D03*
Y539899D02*
D03*
Y534899D02*
D03*
Y537399D02*
D03*
X1007346Y563546D02*
D03*
X1013252D02*
D03*
X989417Y503999D02*
D03*
X981740D02*
D03*
X989417Y532599D02*
D03*
X988268Y535946D02*
D03*
X951253Y522499D02*
D03*
X958331Y503946D02*
D03*
X962268D02*
D03*
X960331Y500652D02*
D03*
X964268D02*
D03*
X974134D02*
D03*
X978268D02*
D03*
X904652Y489868D02*
D03*
Y485931D02*
D03*
X1042299Y721188D02*
D03*
Y731411D02*
D03*
X1039156Y736331D02*
D03*
X1045442Y740268D02*
D03*
X1043799Y782173D02*
D03*
X1031799D02*
D03*
X763499Y480299D02*
D03*
X762699Y476436D02*
D03*
X768699D02*
D03*
Y472499D02*
D03*
X774699D02*
D03*
Y476436D02*
D03*
X780699D02*
D03*
Y472499D02*
D03*
X786699Y476436D02*
D03*
Y472499D02*
D03*
X792899Y476347D02*
D03*
X792699Y472499D02*
D03*
X798699Y476436D02*
D03*
Y472499D02*
D03*
X804699Y476436D02*
D03*
Y472499D02*
D03*
X810699Y476436D02*
D03*
Y472499D02*
D03*
X816699Y476436D02*
D03*
Y472499D02*
D03*
X823499Y480299D02*
D03*
X883499D02*
D03*
X918631Y515568D02*
D03*
X928168Y515631D02*
D03*
X869699Y403699D02*
D03*
X875899Y422099D02*
D03*
X860499Y399499D02*
D03*
X902099Y279899D02*
D03*
X905699Y280099D02*
D03*
X939167Y564899D02*
D03*
Y569899D02*
D03*
X820299Y439899D02*
D03*
X952331Y563442D02*
D03*
X939167Y557399D02*
D03*
Y562399D02*
D03*
X837699Y451099D02*
D03*
X844699Y450899D02*
D03*
X835699Y459899D02*
D03*
X747099Y539899D02*
D03*
X917899Y534699D02*
D03*
X714699Y484899D02*
D03*
X718499Y488099D02*
D03*
X712099Y480299D02*
D03*
X711699Y483499D02*
D03*
X673499Y167899D02*
D03*
X662699Y176299D02*
D03*
X661899Y169099D02*
D03*
X890899Y238499D02*
D03*
X771299D02*
D03*
X685099Y213699D02*
D03*
X681499Y356899D02*
D03*
X745919Y493499D02*
D03*
X748259D02*
D03*
X755188Y470188D02*
D03*
X753468Y472531D02*
D03*
X826899Y160699D02*
D03*
X853099Y168499D02*
D03*
X816699Y160699D02*
D03*
X832699Y159699D02*
D03*
X823099Y487699D02*
D03*
X828099Y508699D02*
D03*
X760499Y455899D02*
D03*
X716899Y237499D02*
D03*
X720299Y240899D02*
D03*
X734298Y260098D02*
D03*
X717099Y226099D02*
D03*
X716899Y229299D02*
D03*
Y232299D02*
D03*
X764899Y127299D02*
D03*
Y130899D02*
D03*
X675099Y142699D02*
D03*
X679699Y141099D02*
D03*
X753499Y494299D02*
D03*
X785499Y620899D02*
D03*
X789299Y618099D02*
D03*
X794299Y632699D02*
D03*
X791699Y610099D02*
D03*
X785699Y604099D02*
D03*
X785079Y599299D02*
D03*
X776099Y619899D02*
D03*
X136099Y16299D02*
D03*
X143833Y68351D02*
D03*
Y72288D02*
D03*
X167633Y58320D02*
D03*
X180765Y58279D02*
D03*
X169865Y40320D02*
D03*
Y34320D02*
D03*
Y28320D02*
D03*
X177279Y16033D02*
D03*
X150288Y10765D02*
D03*
X146351D02*
D03*
X136288D02*
D03*
X129865Y8320D02*
D03*
X142499Y46899D02*
D03*
X136099Y47299D02*
D03*
X125299Y53299D02*
D03*
X142699Y16499D02*
D03*
X145465Y23933D02*
D03*
X171299Y16053D02*
D03*
X71099Y189099D02*
D03*
X70899Y179299D02*
D03*
X71299Y169499D02*
D03*
X766299Y442699D02*
D03*
X774299Y446299D02*
D03*
X762899Y607299D02*
D03*
X764299Y610899D02*
D03*
X131795Y608524D02*
D03*
X122162Y611083D02*
D03*
X131795Y613643D02*
D03*
X122162Y616202D02*
D03*
X131795Y618761D02*
D03*
X122162Y621320D02*
D03*
X131795Y623879D02*
D03*
X122162Y626438D02*
D03*
X131795Y628997D02*
D03*
X122162Y631556D02*
D03*
X131795Y634115D02*
D03*
X122162Y636674D02*
D03*
X154236Y608524D02*
D03*
X144603Y611083D02*
D03*
X154236Y613643D02*
D03*
X144603Y616202D02*
D03*
Y621320D02*
D03*
X154236Y623879D02*
D03*
X144603Y626438D02*
D03*
X154236Y628997D02*
D03*
X144603Y631556D02*
D03*
X154236Y634115D02*
D03*
X144603Y636674D02*
D03*
X101287Y719260D02*
D03*
X134751D02*
D03*
X85847Y729339D02*
D03*
X119311D02*
D03*
X85847Y709299D02*
D03*
X119311D02*
D03*
X101287Y739299D02*
D03*
X134751D02*
D03*
X33287Y719260D02*
D03*
X66751D02*
D03*
X17847Y729339D02*
D03*
X51311D02*
D03*
X17847Y709299D02*
D03*
X51311D02*
D03*
X33287Y739299D02*
D03*
X66751D02*
D03*
X134856Y808299D02*
D03*
X117742Y804559D02*
D03*
Y812039D02*
D03*
X134856Y832299D02*
D03*
X117742Y828559D02*
D03*
Y836039D02*
D03*
Y856559D02*
D03*
Y864039D02*
D03*
X134856Y884299D02*
D03*
X117742Y880559D02*
D03*
Y888039D02*
D03*
X105313Y866394D02*
D03*
Y878205D02*
D03*
X89313Y866394D02*
D03*
Y878205D02*
D03*
X73313D02*
D03*
X57313Y866394D02*
D03*
Y878205D02*
D03*
X72313Y828394D02*
D03*
Y840205D02*
D03*
X104313Y828394D02*
D03*
Y840205D02*
D03*
X57313Y828394D02*
D03*
Y840205D02*
D03*
X88313Y828394D02*
D03*
Y840205D02*
D03*
X57313Y800394D02*
D03*
Y812205D02*
D03*
X73313Y800394D02*
D03*
Y812205D02*
D03*
X89313Y800394D02*
D03*
Y812205D02*
D03*
X105313Y800394D02*
D03*
Y812205D02*
D03*
X50793Y765299D02*
D03*
Y775299D02*
D03*
X88793Y765299D02*
D03*
Y775299D02*
D03*
X126793Y765299D02*
D03*
Y775299D02*
D03*
X94984Y668887D02*
D03*
X105614D02*
D03*
X116299Y664856D02*
D03*
X109619Y654721D02*
D03*
X126980Y646841D02*
D03*
X91968Y687478D02*
D03*
X100630Y683738D02*
D03*
X108331Y689738D02*
D03*
X112268D02*
D03*
X108331Y679738D02*
D03*
X112268D02*
D03*
X142331Y713738D02*
D03*
X146268D02*
D03*
X142331Y723738D02*
D03*
X146268D02*
D03*
X142331Y733738D02*
D03*
X146268D02*
D03*
X142299Y743338D02*
D03*
X146499D02*
D03*
X85699Y893099D02*
D03*
X114499Y934099D02*
D03*
Y930359D02*
D03*
Y926619D02*
D03*
X90430Y930208D02*
D03*
X132168Y654390D02*
D03*
X114391Y642430D02*
D03*
X118328D02*
D03*
X100390Y646430D02*
D03*
X104328D02*
D03*
X100391Y638430D02*
D03*
X104328D02*
D03*
X126430Y594208D02*
D03*
Y590271D02*
D03*
X136430Y594208D02*
D03*
Y590271D02*
D03*
X146430Y594208D02*
D03*
Y590271D02*
D03*
X143930Y576708D02*
D03*
Y572771D02*
D03*
X87299Y824299D02*
D03*
X71299D02*
D03*
X103299D02*
D03*
X55299D02*
D03*
X70299Y852299D02*
D03*
X86299D02*
D03*
X102299D02*
D03*
X55299D02*
D03*
X109899Y665899D02*
D03*
X72931Y736661D02*
D03*
X76868D02*
D03*
X72931Y726661D02*
D03*
X76868D02*
D03*
X72931Y716661D02*
D03*
X76868D02*
D03*
X72931Y706661D02*
D03*
X76868D02*
D03*
X786499Y450499D02*
D03*
X881299Y446899D02*
D03*
X875499Y449299D02*
D03*
X572899Y314299D02*
D03*
X1168099Y879699D02*
D03*
X1190699Y881226D02*
D03*
X1020172Y769299D02*
D03*
X1017641Y780268D02*
D03*
X980921Y730926D02*
D03*
X900299Y782926D02*
D03*
X912299D02*
D03*
X924299D02*
D03*
X936299D02*
D03*
X1139099Y884699D02*
D03*
X1170041Y874699D02*
D03*
X1176041D02*
D03*
X851743Y190142D02*
D03*
X918699Y754899D02*
D03*
X911899Y750699D02*
D03*
X901800Y786000D02*
D03*
X921395Y781003D02*
D03*
X912499Y765899D02*
D03*
X888099Y763499D02*
D03*
X912899Y801899D02*
D03*
X907499Y825699D02*
D03*
X832099Y729499D02*
D03*
X990268Y841443D02*
D03*
X977416Y854630D02*
D03*
X1070299Y883157D02*
D03*
X1063465Y736138D02*
D03*
X1046733D02*
D03*
X590299Y307099D02*
D03*
X152539Y55779D02*
D03*
X95931Y50331D02*
D03*
X111931D02*
D03*
X105931Y554102D02*
D03*
X94668D02*
D03*
X88331Y347499D02*
D03*
X76334Y271318D02*
D03*
X73312Y276302D02*
D03*
X865578Y564299D02*
D03*
X744299Y567099D02*
D03*
X660299D02*
D03*
X576299D02*
D03*
X610499D02*
D03*
X542699D02*
D03*
X625699D02*
D03*
X694699D02*
D03*
X711299D02*
D03*
X778299D02*
D03*
X796499Y567299D02*
D03*
X828299Y567099D02*
D03*
X388668Y515099D02*
D03*
X778699Y157699D02*
D03*
X266499Y394806D02*
D03*
X647299Y428299D02*
D03*
X852299Y154699D02*
D03*
X154236Y618761D02*
D03*
X85899Y79299D02*
D03*
X187299Y137099D02*
D03*
X84499Y153899D02*
D03*
X173699Y49099D02*
D03*
X586899Y102899D02*
D03*
X278099Y59899D02*
D03*
X1040099Y635899D02*
D03*
X502499Y497099D02*
D03*
X522499Y538499D02*
D03*
X697499Y506099D02*
D03*
X220099Y699499D02*
D03*
X830099Y741099D02*
D03*
X330499Y583499D02*
D03*
X236099Y189699D02*
D03*
X677099Y226299D02*
D03*
X676699Y222099D02*
D03*
X641699Y217099D02*
D03*
X819201Y164598D02*
D03*
X662499Y158699D02*
D03*
X672699Y146699D02*
D03*
X665299Y149099D02*
D03*
X788099Y142099D02*
D03*
X853299Y136099D02*
D03*
X875699Y214099D02*
D03*
X873299Y212099D02*
D03*
X1037699Y203499D02*
D03*
X1018369Y158298D02*
D03*
X661699Y416699D02*
D03*
X1022099Y550299D02*
D03*
X1019499Y543699D02*
D03*
X1056299Y740899D02*
D03*
X748099Y653659D02*
D03*
Y658039D02*
D03*
Y671179D02*
D03*
Y675559D02*
D03*
Y644899D02*
D03*
X981899Y670499D02*
D03*
Y665381D02*
D03*
Y662822D02*
D03*
Y660263D02*
D03*
Y673058D02*
D03*
X863299Y807299D02*
D03*
X860299Y813099D02*
D03*
X862699Y817899D02*
D03*
X745499Y684899D02*
D03*
X913699Y652299D02*
D03*
X468799Y509599D02*
D03*
X472299Y513499D02*
D03*
X831499Y684099D02*
D03*
X827099Y679899D02*
D03*
X762299Y516699D02*
D03*
X762099Y512699D02*
D03*
X688099Y499299D02*
D03*
X681099Y425499D02*
D03*
X666899Y424699D02*
D03*
X680699Y427899D02*
D03*
X750499Y478299D02*
D03*
X711699Y477899D02*
D03*
X757299Y476699D02*
D03*
X778499Y480699D02*
D03*
X702468Y521731D02*
D03*
X780299Y635699D02*
D03*
X833899Y503699D02*
D03*
X835499Y497699D02*
D03*
X679299Y415899D02*
D03*
X670899Y429299D02*
D03*
X680899Y440299D02*
D03*
X950299Y515699D02*
D03*
X952499Y512699D02*
D03*
X954899Y508099D02*
D03*
X954099Y504099D02*
D03*
X1020099Y533699D02*
D03*
X966499Y483699D02*
D03*
X975399Y484299D02*
D03*
X819799Y586599D02*
D03*
X984899Y701699D02*
D03*
X840099Y679899D02*
D03*
X1117899Y735299D02*
D03*
X1084899Y870899D02*
D03*
X1085699Y867699D02*
D03*
X1044099Y710899D02*
D03*
X1192899Y268899D02*
D03*
X354241Y228746D02*
D03*
X132299Y659299D02*
D03*
X1170800Y796000D02*
D03*
X1157600Y864000D02*
D03*
X216535Y944882D02*
D03*
X236221Y925197D02*
D03*
X255906Y944882D02*
D03*
X275590Y925197D02*
D03*
X295276Y944882D02*
D03*
X314961Y925197D02*
D03*
X334646Y944882D02*
D03*
X354331Y925197D02*
D03*
X374016Y944882D02*
D03*
X393701Y925197D02*
D03*
X413386Y944882D02*
D03*
X433071Y925197D02*
D03*
X452756Y944882D02*
D03*
X472441Y925197D02*
D03*
X492126Y944882D02*
D03*
X511811Y925197D02*
D03*
X531496Y944882D02*
D03*
X570866D02*
D03*
X590551Y925197D02*
D03*
X610236Y944882D02*
D03*
X629921Y925197D02*
D03*
X649606Y944882D02*
D03*
X669291Y925197D02*
D03*
X688976Y944882D02*
D03*
X708661Y925197D02*
D03*
X728346Y944882D02*
D03*
X748032Y925197D02*
D03*
X767717Y944882D02*
D03*
X787402Y925197D02*
D03*
X807087Y944882D02*
D03*
X826772Y925197D02*
D03*
X846457Y944882D02*
D03*
X866142Y925197D02*
D03*
X196850D02*
D03*
X177165Y944882D02*
D03*
X157480Y925197D02*
D03*
X137795Y944882D02*
D03*
X472441Y826772D02*
D03*
X452756Y846457D02*
D03*
X433071Y826772D02*
D03*
X413386Y846457D02*
D03*
X393701Y826772D02*
D03*
X374016Y846457D02*
D03*
X354331Y826772D02*
D03*
X334646Y846457D02*
D03*
X314961Y826772D02*
D03*
X295276Y846457D02*
D03*
X275590Y826772D02*
D03*
X255906Y846457D02*
D03*
X236221Y826772D02*
D03*
X216535Y846457D02*
D03*
X196850Y826772D02*
D03*
X177165Y846457D02*
D03*
X472441Y748032D02*
D03*
X452756Y767717D02*
D03*
X433071Y748032D02*
D03*
X413386Y767717D02*
D03*
X393701Y748032D02*
D03*
X374016Y767717D02*
D03*
X354331Y748032D02*
D03*
X334646Y767717D02*
D03*
X314961Y748032D02*
D03*
X295276Y767717D02*
D03*
X275590Y748032D02*
D03*
X255906Y767717D02*
D03*
X236221Y748032D02*
D03*
X216535Y767717D02*
D03*
X196850Y748032D02*
D03*
X177165Y767717D02*
D03*
X787402Y748032D02*
D03*
X767717Y767717D02*
D03*
X748032Y748032D02*
D03*
X728346Y767717D02*
D03*
X708661Y748032D02*
D03*
X688976Y767717D02*
D03*
X669291Y748032D02*
D03*
X649606Y767717D02*
D03*
X629921Y748032D02*
D03*
X610236Y767717D02*
D03*
X590551Y748032D02*
D03*
X570866Y767717D02*
D03*
X551181Y748032D02*
D03*
X531496Y767717D02*
D03*
X511811Y748032D02*
D03*
X492126Y767717D02*
D03*
X787402Y826772D02*
D03*
X767717Y846457D02*
D03*
X748032Y826772D02*
D03*
X728346Y846457D02*
D03*
X708661Y826772D02*
D03*
X688976Y846457D02*
D03*
X669291Y826772D02*
D03*
X649606Y846457D02*
D03*
X629921Y826772D02*
D03*
X610236Y846457D02*
D03*
X590551Y826772D02*
D03*
X570866Y846457D02*
D03*
X551181Y826772D02*
D03*
X531496Y846457D02*
D03*
X511811Y826772D02*
D03*
X492126Y846457D02*
D03*
X246063Y688976D02*
D03*
X265748D02*
D03*
X285433D02*
D03*
X344488D02*
D03*
X324803D02*
D03*
X305118D02*
D03*
X403543D02*
D03*
X383858D02*
D03*
X364173D02*
D03*
X462598D02*
D03*
X442913D02*
D03*
X423228D02*
D03*
X521654D02*
D03*
X501968D02*
D03*
X482283D02*
D03*
X580709D02*
D03*
X561024D02*
D03*
X541339D02*
D03*
X639764D02*
D03*
X620079D02*
D03*
X600394D02*
D03*
X698819D02*
D03*
X679134D02*
D03*
X659449D02*
D03*
X949500Y258000D02*
D03*
X676300Y218100D02*
D03*
X832800Y204000D02*
D03*
X553100Y375300D02*
D03*
X681000Y129800D02*
D03*
X678600Y127200D02*
D03*
X946348Y724400D02*
D03*
X965099Y728699D02*
D03*
Y733699D02*
D03*
X986417Y724409D02*
D03*
X982480Y713779D02*
D03*
X1038299Y701157D02*
D03*
X1047888Y244000D02*
D03*
X1061857Y250031D02*
D03*
X1065000Y257112D02*
D03*
X1055000Y261474D02*
D03*
X1057559D02*
D03*
X1052441D02*
D03*
X1049298Y249669D02*
D03*
X1054968Y240857D02*
D03*
X1175031Y811258D02*
D03*
X1178969D02*
D03*
X1163599Y807362D02*
D03*
X328650Y285279D02*
D03*
X896190Y681000D02*
D03*
Y698000D02*
D03*
Y714000D02*
D03*
D149*
X968148Y559452D02*
D03*
X968400Y554400D02*
D03*
X1041118Y275799D02*
D03*
X881799Y145299D02*
D03*
X944499Y144099D02*
D03*
X598362Y115799D02*
D03*
X12799Y80299D02*
D03*
X182299Y23299D02*
D03*
X133299Y16299D02*
D03*
X599799Y102299D02*
D03*
X605799Y112299D02*
D03*
X589299Y70299D02*
D03*
X891299Y73299D02*
D03*
X1124299Y325799D02*
D03*
X1126299Y323299D02*
D03*
X1050299Y588299D02*
D03*
X1025000Y287992D02*
D03*
Y280512D02*
D03*
X1005709Y669882D02*
D03*
X971457Y520866D02*
D03*
Y523425D02*
D03*
X964799Y512299D02*
D03*
X979173Y531142D02*
D03*
X971457Y513299D02*
D03*
Y518307D02*
D03*
X862299Y130299D02*
D03*
X852299Y128299D02*
D03*
X586299Y300299D02*
D03*
X210299Y111299D02*
D03*
X242299Y162299D02*
D03*
Y144299D02*
D03*
X152299Y162299D02*
D03*
Y144299D02*
D03*
X172299Y160299D02*
D03*
X28299Y342299D02*
D03*
X1084299Y290299D02*
D03*
X1081299Y286799D02*
D03*
X1076299Y735299D02*
D03*
X614299Y126299D02*
D03*
X578299Y41299D02*
D03*
X586299Y87299D02*
D03*
X1011299Y137299D02*
D03*
X1004299Y144299D02*
D03*
X968299Y142299D02*
D03*
X912299D02*
D03*
X863299Y141299D02*
D03*
X1021299Y202299D02*
D03*
X1053299Y588299D02*
D03*
X1067799Y787299D02*
D03*
X172299Y150299D02*
D03*
X262299D02*
D03*
Y160299D02*
D03*
X1032899Y284299D02*
D03*
X1056299Y606699D02*
D03*
X1052657Y600299D02*
D03*
X1076299Y729299D02*
D03*
X1071299Y747299D02*
D03*
X497974Y504774D02*
D03*
X494824Y501624D02*
D03*
X497974D02*
D03*
X494824Y504774D02*
D03*
X196224Y437724D02*
D03*
X199374Y440874D02*
D03*
X196224D02*
D03*
X199374Y437724D02*
D03*
X336224Y523874D02*
D03*
X339374Y520724D02*
D03*
Y523874D02*
D03*
X336224Y520724D02*
D03*
D150*
X897000Y27400D02*
D03*
D152*
X455824Y500575D02*
D03*
X451099D02*
D03*
X446375D02*
D03*
X455824Y505299D02*
D03*
X451099D02*
D03*
X446375D02*
D03*
X455824Y510024D02*
D03*
X451099D02*
D03*
X446375D02*
D03*
X375424Y499175D02*
D03*
X370699D02*
D03*
X365975D02*
D03*
X375424Y503899D02*
D03*
X370699D02*
D03*
X365975D02*
D03*
X375424Y508624D02*
D03*
X370699D02*
D03*
X365975D02*
D03*
X989024Y523024D02*
D03*
Y518299D02*
D03*
Y513575D02*
D03*
X984299Y523024D02*
D03*
Y518299D02*
D03*
Y513575D02*
D03*
X979575Y523024D02*
D03*
Y518299D02*
D03*
Y513575D02*
D03*
X234331Y200268D02*
D03*
X238268D02*
D03*
X234331Y196331D02*
D03*
X238268D02*
D03*
D195*
X65000Y25000D02*
D03*
Y310000D02*
D03*
Y920000D02*
D03*
X555000D02*
D03*
X1175000Y830000D02*
D03*
Y25000D02*
D03*
Y310000D02*
D03*
X555000Y25000D02*
D03*
Y310000D02*
D03*
X181976Y615874D02*
D03*
X486622D02*
D03*
Y875598D02*
D03*
X181976D02*
D03*
X549976Y615874D02*
D03*
X854622D02*
D03*
X549976Y875598D02*
D03*
X854622D02*
D03*
D205*
X342346Y104331D02*
D03*
X348252D02*
D03*
X344315D02*
D03*
X346283D02*
D03*
Y108268D02*
D03*
X344315D02*
D03*
X348252D02*
D03*
X342346D02*
D03*
X320346Y104331D02*
D03*
X326252D02*
D03*
X322315D02*
D03*
X324283D02*
D03*
Y108268D02*
D03*
X322315D02*
D03*
X326252D02*
D03*
X320346D02*
D03*
X325252Y179268D02*
D03*
X319346D02*
D03*
X323283D02*
D03*
X321315D02*
D03*
Y175331D02*
D03*
X323283D02*
D03*
X319346D02*
D03*
X325252D02*
D03*
X328346Y104331D02*
D03*
X334252D02*
D03*
X330315D02*
D03*
X332283D02*
D03*
Y108268D02*
D03*
X330315D02*
D03*
X334252D02*
D03*
X328346D02*
D03*
X350252Y179268D02*
D03*
X344346D02*
D03*
X348283D02*
D03*
X346315D02*
D03*
Y175331D02*
D03*
X348283D02*
D03*
X344346D02*
D03*
X350252D02*
D03*
D225*
X1175799Y57699D02*
D03*
X27599Y24699D02*
D03*
X24199Y939099D02*
D03*
X1182649Y907249D02*
D03*
D240*
X864949Y571799D02*
D03*
X539449D02*
D03*
X496949D02*
D03*
X171449D02*
D03*
D241*
X1027661Y233661D02*
D03*
Y228937D02*
D03*
X1022937Y233661D02*
D03*
Y228937D02*
D03*
X986661Y558861D02*
D03*
Y554137D02*
D03*
X981937Y558861D02*
D03*
Y554137D02*
D03*
X1127213Y849813D02*
D03*
Y854537D02*
D03*
Y859261D02*
D03*
Y863986D02*
D03*
X1131937Y849813D02*
D03*
Y854537D02*
D03*
Y859261D02*
D03*
Y863986D02*
D03*
X1136661Y849813D02*
D03*
Y854537D02*
D03*
Y859261D02*
D03*
Y863986D02*
D03*
X1141386Y849813D02*
D03*
Y854537D02*
D03*
Y859261D02*
D03*
Y863986D02*
D03*
X893937Y319661D02*
D03*
X898661D02*
D03*
X893937Y314937D02*
D03*
X898661D02*
D03*
M02*
